<svg id="Layer_1" data-name="Layer 1" xmlns="http://www.w3.org/2000/svg" viewBox="0 0 962.64 835.58"><title>acorns</title><path d="M246.73,634.35c-1.75.79-2.46-.55-3.16-1.65-9-14.13-5.51-28.78,5.6-38.66.66-.6,2.33-.52,1.65-2.11s-2.16-1-3.15-1c-13,.41-25.07,4.41-36.9,9.77-6.78,3.07-11.37,8.33-16.74,12.89-6.36,5.4-13.39,10.08-18.32,17.33,14.06,1.31,25.77,7.65,36.79,15.45,2.23,1.58,3.9,4.05,5.6,6.28,2.94,3.85,1.41,7.94-3.36,9a33.64,33.64,0,0,1-6.57.73c-4,.07-4.45,1.85-3,5.17a47.93,47.93,0,0,0,6.41,10.66c4.21,5.36,8.68,10.53,13.06,15.76a21.69,21.69,0,0,1,5,15.29c-.18,4.57-3.3,6.83-8,7-5.26.24-10.53.41-15.31-2.06-5.42-2.8-9.64.87-10.06,7.36-.68,10.54,3.45,19.94,6.89,29.52a48,48,0,0,1,3.08,20.11c-.39,5-2,9.57-5.77,13.11-3.6,3.37-7.48,3.4-11,0a36.23,36.23,0,0,1-5.76-7.36c-2.79-4.56-6.91-4.21-9.42.61-3.05,5.85-2.33,12-1.89,18.29.8,11.4,1.93,22.91-3,33.82-3.36,7.38-11.78,9.36-18.61,5.44-6.25-3.58-10.14-8.69-13.65-14.66-2.78-4.75-5.11-4.47-7.85.36a13.53,13.53,0,0,0-1.32,8.22c1.39,14.57-1.59,28.37-7.57,41.6-2.17,4.8-9.28,5.86-13,2.07A31,31,0,0,1,98.73,856a27.23,27.23,0,0,0-4.39-10.09c-2.35-3.7-5.63-4-8.9-1-6.29,5.8-12.47,11.71-18.76,17.51-3,2.75-6.24,5.44-10.63,3.61-6.22-2.59-12.58-5.33-14-13-2-10.54-.78-20.44,6.09-29.18.88-1.12,1.14-2.73,1.71-4.1.8-1.94.84-4-.57-5.48s-3,.41-4.36.79c-4,1.09-7.43,3.32-11.81,3.67-9,.71-15.42-6.64-12.43-15,1.62-4.53,4.57-8.11,7.91-11.61,5.78-6.06,12.76-10.64,18.94-16.19,3.25-2.92,7.76-4.29,11.3-7.06A17,17,0,0,0,64.27,762c2.32-5.48,1.65-7-4.4-7.16a50.75,50.75,0,0,0-11.48,1.32,35.68,35.68,0,0,1-10.66.24c-5.21-.52-7.76-4.75-6.91-9.94,1.56-9.58,8.15-15.26,15.58-20.14,12.66-8.3,27.44-10.68,41.74-14.33.28-.08.6,0,.89-.08,5.7-1.27,9.28-4.23,8.68-7.82-.85-5.12-5.38-5-9.24-5.83-4.17-.91-8.46-1.68-12.35-3.33-6.55-2.78-6.67-9.21-6.45-14.88.2-5,3.78-8.61,8.55-10.41,9.44-3.55,19.28-3.94,29.16-3a39,39,0,0,0,22.31-4.55c1.8-.94,3.72-2.36,3.29-4.83s-2.74-1.69-4.33-2.24c-1.26-.43-2.51-.68-3.75-1-2.19-.59-3.48-2.13-2.67-4.75a17.26,17.26,0,0,1,7.45-9.52c8.38-5.57,18.07-7.11,27.52-9.39,3.73-.91,7.53-1.46,11.3-2.22s6-3.39,7.54-6.38,3.29-5.87,7.54-8.32c-8.39.3-14.54-3.38-21.42-4.28-6.44-.84-12,1-17.38,3.93a188.56,188.56,0,0,0-19.43,12,8.58,8.58,0,0,1-10.09.06c-3.21-2.22-4.76-5.44-3.73-9.51.21-.85.17-1.76.38-2.6.36-1.39.39-2.73-.77-3.71-1.34-1.13-2.79-.73-4.13.1-2.73,1.68-5.64,3-7.18,6.25-.76,1.59-3.35,1.54-4.72,3.31-3.06,4-6.17,7.93-10.15,11.16-3.19,2.58-6.47,4.57-10.44,2.62s-4.09-5.85-3.63-9.7c.19-1.61.66-3.2.82-4.82.09-1,1.25-2,0-2.86s-2.45-.57-3.78,0a45.16,45.16,0,0,0-15.16,10.56c-5.41,5.92-8,6.78-12,4.59-4.66-2.52-7.73-10.58-6.26-16,2.6-9.61,9.85-14.39,18.39-17.76a17.64,17.64,0,0,0,6.76-4.86c2-2.17,3.17-3-.91-4-7.31-1.82-14.71-3.73-19.61-10.4-1.42-1.92-1.8-3.58-1-5.68,3.6-9,11.52-14,21.3-14.38s19.37.86,28.94,2.57a50.76,50.76,0,0,0,12.44.17c-.26-5.13-1-9.7-4.48-13.73-2.76-3.19-.57-8.46,4-9.85,3.73-1.14,7.61-1.29,10.86,1.82,8.26,7.9,16.3,16,23.28,25.08a11,11,0,0,0,7,4.32c2.31.4,4.09.17,5.07-2.25s3.38-3.74,5.41-5.12c2.49-1.7,6.94.2,8.48,3.13,6.28,11.92,9.65,24.42,8.12,38-.56,5,4.2,8.63,9.33,8,8.42-1,15.72-4.82,23.06-8.62,10.09-5.23,20-10.94,30.4-15.4,7.52-3.22,15.53-4.76,24.18-3.07,9.13,1.78,18.59,3.65,27.9,1.21,6.49-1.71,13-3.68,18.36-8.2,4.81-4.08,10.67-5.64,16.72-6.11a27.5,27.5,0,0,0,18.71-9.06c4.79-5.24,10.22-7.63,17.19-6.63-1,2-3.07,1.86-4.69,1.86-4.7,0-7.52,3.12-10.55,5.9-.58.54-2,1.32-.69,2.47,1.18,1,2.18-.24,2.55-.88,1.41-2.46,4.15-2.8,6.1-4.74.39,1.74-2.28,2.09-.75,3.94,1.65-.21,2.6-2.33,4.47-2.19l-2,2.61c6.36-1.81,6.36-1.81,6.38-5.21l-4.57,2.76c.17-4.4,5.22-2.84,6.87-5.45-.92-1.21-2.24-.55-3.27-1,.45-1.5-.66-1.78-1.66-2-5-1.11-10.07-2.33-15.17-3.15a10.42,10.42,0,0,0-5.18.94c-7.14,2.89-14.65,4.13-22.21,4.92-10.48,1.09-20.91.6-31.06-2.47a17.64,17.64,0,0,0-10.5.14,12.75,12.75,0,0,1-7.87.39c3.51-2.87,7.58-2.74,11.22-3.76,8.16-2.3,16.58-3.08,25-3.62,5.87-.37,11.72,1.47,17.72,0,6.16-1.53,12.11-3.67,18.1-5.68,1.91-.64,1.13-2-.36-2.79a47.75,47.75,0,0,1-5.71-3.36c-4.23-3.19-4.26-7.39.3-10,8.57-5,6.42-6.57.21-11.52-5-4-10.64-7-16.14-10.19-1.51-.88-3.46-1.57-3.39-3.71s1.57-3.22,3.43-4.21c4.85-2.6,5.46-5.7,2.35-11.19-4.2,4.7-9.42,3.7-14.31,2-4.32-1.49-7.39-.05-10.33,2.6a71.39,71.39,0,0,1-13.09,9.26,9.85,9.85,0,0,1-10.84-1.46c-6.73-6.38-8.91-14.76-10.72-23.37-1.44-6.82-5.46-9-12.57-7.75-4.57.83-8.8,1-13-2.88-5.49-5.16-5.82-11.34-5-17.57.71-5.59,2.9-11.08,7.78-14.81l-.09-.09c2,1.32.65,2.85-.14,3.77-3.87,4.52-4.47,9.77-4.4,15.44.15,10.85,5.5,15.35,16.3,13.27,7.57-1.45,13.3,2.65,14.2,10.2.94,7.89,4.51,14.6,9.22,20.8a5.26,5.26,0,0,0,5.86,2.15,30.32,30.32,0,0,0,11.38-6.18c5.89-4.8,11.77-9,20.13-4.76,2.61,1.33,6.2.86,8.22-2.93s2.06-7.34.2-11.34c-2.56-5.5-4.39-11.26-3.88-17.55.38-4.76,2.35-6.33,6.89-4.77a52.53,52.53,0,0,1,6.13,2.62c2.43,1.2,4.66,1.7,6.86-.53s3.81-4.61,2.89-8.28c-1.36-5.46-4.14-10.06-7.45-14.44-6.56-8.7-7.2-16-2-24.11,3.18-4.93,7.24-7.19,11.3-6.3,6.95,1.52,9.57-.7,9.68-7.8.07-4.92-2.5-8.71-4.83-12.63C333,367,326.5,360,321.44,352a172.78,172.78,0,0,0-12.15-16.54c-3.62-4.44-5.07-10.06-7.47-16.36-1.25,3.31-2.29,5.57-2.95,7.95-1.6,5.71-2.92,11.51-6.43,16.46l-.38-.33c1.95-5.68,3.9-11.35,6.15-17.92-3.16,2.37-3.84,5.58-7.06,7.39,1-2.4,1.28-4.84,2.64-6,3.21-2.7,5.49-6,7.86-9.36,2.05-2.91,2.14-7.13,5.89-8.9l.82.4c-.81,1.65-2.36,2.59-2.77,4.81-1.39,7.64,1.64,13.87,5.28,20,2.88,4.9,7.22,8.66,10.39,13.39q9.15,13.71,19.15,26.86a21.89,21.89,0,0,1,4.74,15.35c-.5,7.37-3.73,9.58-11.36,8.29a8.5,8.5,0,0,0-5.9,1.09,15.07,15.07,0,0,0-6.59,17.69A38.15,38.15,0,0,0,328,428c4.52,5.52,7.48,11.36,4.43,18.74-.69,1.66-.12,3.2,2.18,3.48,1.88.22,3.16.11,3.41-2.24.41-4.09,2.26-7.28,6.21-9.06,2.22-1,4.13-.37,4.94,1.55,3.8,9,7.21,18,5.2,28.18-1.13,5.74,3.17,9.22,9,7.69,2.62-.69,4.83-2.16,7.24-3.24a7.14,7.14,0,0,1,7.93,1c2.27,1.89,1.26,4.17.37,6.14-2.88,6.3-5.58,12.72-9.53,18.46-5.5,8-2.51,15.41,6.94,17,1.47.24,2.94.46,4.38.82,5.85,1.46,6.92,4,4.78,9.57-2.67,7-8.63,9.76-15.77,12.53a110.47,110.47,0,0,0,25.87,12.65c5.65,2,11.6,3.63,17.87,2.87a81.88,81.88,0,0,1,23.39,1c8.52,1.44,17.14,1.83,25.69,2.34,9,.53,16.94-4,24.92-7.64a5,5,0,0,0-.15-1.19c-3.21,0-6.73-.81-9.65.18-5.35,1.79-9.55-.91-14-2.41-1.51-.51-3-1-4.59-1.44-8.44-2.21-17.16-2.49-25.75-3.5-6.49-.76-12.76-2.35-19.12-3.35-5.21-.82-8.56-3.56-12.22-6.49-.71-.56-.92-1.11-.4-1.87s1.06-.77,1.86-.31a29.31,29.31,0,0,0,5.7,2.34c10.1,3.15,20.55,2.56,30.88,3.07,8,.4,16,.24,24,.72,11.37.69,22.51.26,32.54-5.94,8.66-5.36,17.71-9.25,28-10.65s19.74-5.08,29.39-8.37c12.93-4.39,23.72-12.31,34.1-20.91.61-.51,1.22-.85,1-1.68s-1-1-1.75-1a27.74,27.74,0,0,0-8.12,1.74c-4.66,1.54-8.28,5.08-12.9,6.58-3.86,1.25-7.38-.3-7-3.36.41-3.57-1.95-3-3.44-2.85-2.33.2-5,.56-6.81,1.89-5.64,4.2-12.23,6.47-18.38,9.61-6.5,3.32-13.12,6-19.65,0-2.36-2.18-3.47-4.57-1.47-7.65,1.38-2.12,3.25-4,3.64-6.82-9.7.37-19.21,4.67-27.38,11.75a46.15,46.15,0,0,1-16.24,9.56c-3.78,1.2-7.61.6-10-1.66-2.56-2.39-.18-5.9,1.27-8.54s.37-3.27-1.89-3.78c-5.46-1.25-10.71.13-15.53,2.18-13.58,5.76-22.77-4.73-21.75-13.8.64-5.71,5.43-8.42,9.79-11.22-.51,1.91-2.32,2.62-3.53,3.89-2.34,2.45-5,4.78-4.68,8.67.09,1.13-.34,3.06,1.07,3s3-1.3,4-2.43c1.66-1.77-2.21-.66-1.45-2.35a53.82,53.82,0,0,0,16.16-2.07c6.38-1.62,12.08-5.09,18.66-6.13-.31-2.16-3.48-1.4-4-5.33,6.14,8.1,11,1.08,16.29.54l-3.08-2a16.12,16.12,0,0,1,4.93,1.47c2,.77,3.71-.66,5.51-1.1.55-.13-1.86-.85-1-2.37,1.23.29,2.52.66,3.82.87a6.87,6.87,0,0,0,3.89-.52c2.91-1.22-1.86-1.8-.12-2.8,2.49,1,4.94,2.67,7.91.64a23.72,23.72,0,0,1-1.87-1.51c-.5-.5-1.55-.78-1.07-2,3.34,1.26,5.94,4.94,10.08,2.65-.68-2-3.23-1.39-4-3.41,3.06.46,5.37,3.43,8.62,2-.23-1.63-2.24-1.25-2.07-3.07,1.5.69,3,2,4.32,1.86,3.73-.45,7.14-1.51,11.09.31,2.25,1.05,6-1.26,8.37-.29,4.49,1.83,9.17.87,13.61,2.36-2.68-3.21-6.92-4.35-9-8,4,2.35,7.55,5.26,12.45,7.73-2-3.77-6.18-4.51-7.34-8.66,1.09.94,1.64,1.43,2.22,1.9,3.22,2.63,6.38,5.33,9.7,7.81a4.87,4.87,0,0,0,4.65.89c.81-.33-.89-1.45,0-2.26,2.6,1.44,4.3,4.3,8.29,5.35-2.61-3.6-6.81-4.71-7.88-9,6.08,3.45,9.76,9.25,16.73,12.45-2-4-5.83-5.12-6.44-8.69,3.1,4.77,9.06,5.34,12.85,9.62-.31-8.75-4.2-16.75-.58-24.92-.33,5.42-.79,10.89.8,16.18,1.47,4.9-.95,11.35,5.48,14.34,1-1.28-1.74-2.08-.19-3.63,1.55,4,5.9,5.75,7.1,10.07-3.95-4.34-10.61-2.45-14.59-6.76a18.92,18.92,0,0,0-5.69-4.14c-14-6.59-28.86-9.14-44.21-10.2-17.63-1.21-34.15,3.63-50.76,8.11-6.71,1.8-12.81,5.51-19.77,6.75-4.79.85-8.86,3.71-13.87,4.5-5.41.86-10.51,3.67-15.73,5.67-2.27.88-2.45,1.86-.71,3.89,4.38,5.1,9.63,5.33,15.38,3.38a48.5,48.5,0,0,1,13-2.6c8.25-.43,9.06.78,6.61,8.49-1.31,4.13-.25,5.78,4.19,5.93,7.21.25,13-3.87,17.83-8.07a55.49,55.49,0,0,1,24.14-12.57c2.2-.51,4.79-2.36,6.71-.25,2.17,2.39-.72,4.32-1.63,6.31-1.21,2.65-2.65,5.18-.3,7.86s8.56,4.24,11.95,2.71c5.92-2.68,11.81-5.49,17.55-8.54s11-6.35,17.64-6.48c2.37-.05,3.36.25,2.3,3-1.23,3.19.39,4.89,3.64,3.95a16.83,16.83,0,0,0,4.37-2c5-3.18,10.12-6.5,16.23-6.61,6.29-.12,12.64.7,17.52-4.55-.63.77-1.31,1.51-1.88,2.32-.78,1.1-3,1.74-2.12,3.31s2.59-.09,3.93-.22c-.5,1-1.53,2.21-.47,3.2,1.29,1.2,2-.81,2.7-1.24,3.23-1.88,3.5-6.24,6.47-8.55.23-.17-.82-.53-1.35-.67,1.51-2,3.11-.49,4.81-.45,3.51.1,6.81-1.64,10-3.25a151.83,151.83,0,0,1,26.51-9.78c6-1.73,12.21-3.31,17-8-12.2,3.89-24,9-36.71,11.31a255.56,255.56,0,0,0,33.07-12.73c-9.66.88-17.87,6.56-27.29,8.19v0c5.9-2.92,11-7.78,18.63-7.25-1.09-1.57-2.22-1.23-3.16-1.46-3.43-.82-7.3-.12-10.31-2.05-2.32-1.49-3.77-1-5.4.55a29.28,29.28,0,0,1-12.21,7.05c-4,1.17-8,3.17-12.53.66-1.94-1.07-6.68-2.21-7,.21-.48,3.26-2.72,4-4.3,5.33-2.88,2.46-2.66,6-4.22,8.92-.4.74.22,1.5.84,1.84.89.5,1.19-.3,1.58-1,.84-1.39,1.37-3.46,3.58-2.43.27,1.81-2.12,1.25-1.93,2.86.35,2.93-1.78,2.6-3.49,2.5-6.15-.39-12.57-10.87-10.23-16.57,5.25-12.82.63-24.78-9.73-32-3-2.05-4.47-.62-5.95,1.64-1.14,1.73-2.1,3.58-3.28,5.27-3.33,4.78-8.32,5.05-11.92.28-4.18-5.55-8-11.4-10.13-18.11,3.19.3,1.65-3.33,3.62-4.35.07,3.79-2.74,7.95,2.07,11a33.1,33.1,0,0,1,.75-4.88c.66-2.17,1.16-4.67,4.18-4.84-3.92,4.12-3.46,9-2.78,14,1.65-4.53,3.68-9,2.72-14-1.84-4.69-1.44-9.53-.91-14.42-1.08,8.22,2.73,15.52,4.13,23.26-1.24.48-.75-2.73-2.38-1.17s-1.8,8.94-.11,11.77c.7-3.77,2.54-7,2.34-10.74,2.44.37,2.11,2.94,3.16,4.36,1.92,2.58,2.61,2.16,3.68-1.72.2,3.14.82,4.87.76,6.91,1.15-4.86,5.67-7.38,6.93-13,1,2.76-.32,5,1.33,5.76s1.53-1.72,2.54-2.41c1.06,1.29-.73,3.42,1.15,4.28,1.23.56.55-1.73,1.72-1.78.7,1.39-.65,3.29,1.18,4.13,1.42.65,1-1.68,2.22-1.57.77,1.36-.48,3.19,1,4.54,1.82-1.46.51-3.89,1.77-5.89,2.25,3.42-1,6.34.1,10.33l2.62-7.19c.14,4.75,2.2,2.18,3.93,1.35-3.25,7-3.9,11.89-2,15.06-.08-2.67.7-4.85,1.78-8-.2,10.48-1.25,15.45-4.54,22.56-1.71,3.69-.44,7.79,3.29,10.57-2.86-7.29-2.88-7.29.05-14,4.26-9.75,5.88-20,5.92-30.59,0-1.71.78-3.89-1.7-5.07s-4.23-.47-6.24.8c-4.36,2.77-7.89,1.06-8.38-4.1-.7-7.38-1.49-14.77,1.12-22a17.79,17.79,0,0,0,.65-4.81c.16-2.64-.56-4.23-3.84-3.84-1.53.18-3.67,1.13-5.36-1.14,1.29-.13,2.14-.27,3-.3,7.23-.21,8.37.56,7.28,7.67a109.74,109.74,0,0,0-1.12,22.46c.23,4.46,2.78,6,6.79,4.09,5.87-2.79,9.16-.49,9.42,6.21.3,7.71-2.18,15-3.08,22.46-.64,5.41-2.41,10.93-.81,16.5,1.16-.15,1.06-.83,1.31-1.32,4-7.93,9.7-10.2,17.76-7a5.17,5.17,0,0,0,2.54.48c7.5-.71,13.32-5,19.32-8.92.29-.19.57-1,.48-1.06-2-1.71-1.9-4.95-4.48-6.27-6.4-3.27-10.95-8.66-14.81-14.4a16.08,16.08,0,0,1-2.43-11.29c.81-6.5,3.21-13.18,1-19.74-1.17-3.37,0-4,2.82-4.92,1.59-.51,2.43,0,3.63.5a16.11,16.11,0,0,0,11.11.64c9.43-2.5,18.42-1.13,25.41,6.62a10.24,10.24,0,0,0,5.11,3.36,30.33,30.33,0,0,1,20,15.76c1.4,2.64,2.3,1.92,3.89,1,5-2.85,9.85-6,15.53-7.46s11.75-2.84,17.29-5.08c12.76-5.14,25.8-6.27,39.3-4.39,6,.84,12.13,1.68,18.16,1.45,13.61-.51,25.79-5.35,36.49-13.8s23-14.44,33.15-23.47c2.86-2.54,6.81-4.09,8.46-8.38-8.92,1.21-17.47,2-25.86,3.64-4.62.91-9.06,3-13.4,5-6.48,2.93-13,5-20.29,4.73-4.68-.2-9.13-1.85-13.85-1.51A3.17,3.17,0,0,1,781,371c1.56-1.61,3.36-1.56,5.35-1.28,6.13.87,12.21.15,18.21-1.09,9.39-1.95,16.61-8.78,25.56-11.74,4.06-1.35,7.59-4.47,12.29-3.77a1.67,1.67,0,0,1,.28,1.8c-3.36-.41-6.38.81-9.45,1.9-2,.7-2.62,2.86-4.82,3.51-9.63,2.82-17.4,10.05-27.59,11.7,11.89,0,21.27-8,32.57-9.8,11.13-1.76,22.58-1.85,33-7.19-3.17,6.65-9.46,9.5-14.23,13.95-2.56,2.4-4.56,5.81-7.52,7.2-4.87,2.3-8.46,6.17-12.48,9.33-2.32,1.82-4.76.92-6.7,2.53-6.93,5.74-15.12,9.73-21.9,15.72-1.81,1.6-3.53,3.75-6.42,4,.38-1.9,2.95-1.11,3-3.24-5.82,1.25-11.53,2.8-17.34,3.55-2,.26-1,3.43-1.65,2-1.16-2.46-2.29-.91-3.41-.87-4.13.18-8.26.92-12.44.23,2.34-1.46,5,.19,7.3-1.24-8.31,1.19-16.26-1.79-24.65-1.57a64.67,64.67,0,0,0-21.56,3.76c-4.12,1.54-8.13,4-12.46,4.42-9.15.84-16.87,5.32-25.06,8.65-1.64.66-2.05,2.14-2.45,3.89-1.14,4.92-1.62,10.17-6.12,13.74-1.39,1.1-3.34,2-3.83,4.33,3.13.8,5.81-.41,8.5-1.47,7.74-3.07,15.24-7,23.24-9a148,148,0,0,1,37.09-4.54c1.55,0,3.63.94,4.64-1.38-4.32-1.65-8.58,1.24-12.84-.1,17.71-1.34,35.22-4,52.69-7,7.68-1.32,15.16-3.24,22.13-6.77,2.85-1.45,2.76-1.63,3,.9-4.51,2.22-9.72,2.85-13.8,6.08a89.82,89.82,0,0,0,14.23-4.59c1.76-.73,1-1.49-.59-1.35l16.38-7.44c-.13,2.27-2,2.31-2.56,3.44.77.83,2.15-.11,2.72,1.08-2.28.72-1.86,2-.09,2.34,1,.19,3.78.1,3.43-1.8-.67-3.66,2.43-8.12-2.79-11,2.86-.26,3.89.48,4.67,2.85,2.88,8.65-.25,19.74-7.86,25.4a24.45,24.45,0,0,0-6.33,6.78c-1.73,2.79-2.66,5.56-.36,8.56,2.15,2.81,4.83,2.24,7.67,1.51,5.57-1.45,9.09,2.39,7.65,8-1,3.83-3.72,6.36-6.16,9.08a38.75,38.75,0,0,0-9.35,16.52c3.37-1.84,4.17-5.34,6.63-7.37,1.29,1.65-1.43,2.54-.37,4,1.65-.5,1.28-3.22,4.06-2.94-1.29,2.92-3.27,5.56-3.39,9.84l6.76-8.62a11.89,11.89,0,0,1-3.27,6.2,1.56,1.56,0,0,0,0,2.37c.93.68,1.85.48,2.6-.67s.85-3.11,2.89-3.71c.61,1.81-2,2.46-1.07,4.3,1.33-.79,2.11-2.51,4.41-3-1.38,2-2.36,3.4-3.39,4.81-.63.85-.7,1.69.15,2.34,1,.77,1.61-.05,2.13-.8,1.13-1.62,2.24-3.26,4.05-5.91-.5,4.36-4.25,6.29-3.42,10.93l4.8-8.5a7.79,7.79,0,0,1-1.23,4.52,16.51,16.51,0,0,0-2.59,9.08c0,3.27,0,3.15-1.32,5.8-1.22,2.48-3.64,4.51-3.63,8.27,2.65-2.16,2.92-5.8,6.56-6.64a40.17,40.17,0,0,0-1.92,4.72c-.39,1.5-2,2.83-1,4.74,2.6-1.81,3.63-5,7.44-7.13-2.34,4.08-3.57,7.21-3.81,10.86,1-4.42,6.19-3.44,8.21-7.59.24,3.05-2.49,3.62-2.35,5.37.09,1.13-2.08,2.25-.35,3,2.06.89,1.15-1.46,1.68-2.24,1.24-1.78,1.47-4.49,4.89-3.34,3,1,1,3.13,1.11,4.65,2-.26,1.89-2.93,4.44-3.22-.62,2.08-2.35,3.16-2.27,5.16,1.26-.47,3.43-1.34,3.46-1.27,2.63,5.91,2.9-2,4.73-.69.4,1.76.8,3.63,1.25,5.48.25,1,.85,2.58,1.89,1.8,2-1.47,1.37-.63,1.42.88s1.49,3,1.26,4.9c1.44-.69,1.62-2.44,3.35-2.43a6.83,6.83,0,0,1-2.05,4.81c-.63.61-.8,1.85-.42,1.92,3.87.81-.66,2.79.6,3.88-2.45,2.16-3,5.73-5.73,7.71-1.09.8-2.5,1.67-2,3.76a4.26,4.26,0,0,0,3.38-2.71c1.26-2.78,3.43-2,5.32-1.65,3.31.71.64,3,.72,4.62,2.33-.47.72-4.68,4.33-3.71-.72,1.26-1.4,2.47-2.08,3.65,1.32.91,2-.85,3.21-.55-1.14,2.48-1.79,5-4.26,6.94,3.85,1,3.39-3.62,6.25-3.69-.18.71-.15,1.45-.49,1.74-1.13.95-1.56,2-.2,2.83s1.44-1,2.11-1.61c1-.92,1.19-2.59,3-3.4-.48,1.28-.84,2.21-1.19,3.14-.5,1.34-2.75,2.78-.26,4s4.74,4.88,8.11,2.55a11.43,11.43,0,0,0,5-7.53c1.29-7.31,3-14.53,2.68-22.06-.17-3.91,1.12-4.4,4.55-2.7a65.81,65.81,0,0,1,6.38,3.94c6.64,4.29,13.29,3,16.09-3.37,1.53-3.48,1-7.32.25-11-1.9-9.47-7.8-16.79-13.36-24.28-4.08-5.49-10.27-9.58-10.74-17.45-.17-2.92,0-5.15,2.6-6.83s4.79-1.88,7.28,0a40.09,40.09,0,0,0,5.26,3.36,5.59,5.59,0,0,0,5.9-.42c1.87-1.2,2-3.09,1.6-5.16-1.61-8.87-6.81-15-14.07-20a154.82,154.82,0,0,1-24.64-20.95c-7.85-8.27-6.45-9.14,4.18-13.32,3.75-1.47,4.36-5,1.17-7.78a13.39,13.39,0,0,0-5-2.73c-8.88-2.36-17.77-3.19-26.61.35a34,34,0,0,1-11.74,2.17c-3.78.11-6.18-3.93-10.16-3.39-.42.05-1-1-1.49-1.54,3-2-1.29-2.29-.81-3.76,1.22-.6,2.62-.89,3.54-2.31.67-1.05,2.49-1.25,3,0,1.78,4.6,2.93.18,3.64-.4,3.33-2.77,5-6.89,8.25-10A124.16,124.16,0,0,0,870.38,373a60,60,0,0,0,6.25-9.89c1.5-2.94,4.23-5.31,6.66-7.67,2-1.92,6.33-2.25,4.08-6.73,0-.06.68-.46,1-.74,1.8-1.53,3.58-3.08,5.37-4.62-1.22,3.7-4.86,6.32-4.63,10.71,0,.55-1.24,1.16-1.9,1.74l-3.36,2.95.87.86c14.1-10.31,24.17-25.15,38.62-35.07,1.31-1.24,2.9-2.22,3.74-3.91,7.57-3.25,13.28-9.19,20-13.7-10.92,5.38-21.54,11.27-32.76,15.93-1.12,1.6-2.4,3-4.43,3.45,2.19-2.79,2.21-6.92,5.77-8.92,4.44-2.5,7.09-7.46,12.23-9,0,.85-.85,2.54,1.2,1.66a31.72,31.72,0,0,0,6.17-3.35c8.49-6.18,17.36-11.76,27.63-14.22,3.26-.79,5.34-3.55,8.52-3.73,3.91-.23,7.44-1.65,11.09-2.75v4.49c-6.55.64-12.26,3.45-17.75,6.82,3.76-1.08,7.76-1.5,11.08-3.73,2.43-1.64,4.58-1.46,6.67.49v.9c-10.94.62-20.71,4.77-29.76,10.53-11.44,7.28-22.59,15.14-32.58,24.26-15.15,13.82-30.38,27.73-42.41,44.49C872.2,382,866,389.5,862,398.34c-1.09,2.4-3.19,4.09-5,6.11,4.58-.6,8.69-2.37,13.13-3.1,7.43-1.23,14.53-.09,21.58,1.61a9,9,0,0,1,7.23,7.64c.75,4.72-.84,7.11-5.55,8-5.91,1.1-6.86,3.47-2.89,8,7.24,8.18,16.19,14.49,24.83,21,7,5.21,13,10.5,14.94,19.24.54,2.42,1,5-.19,7.38-2.61,5.22-8.29,6.07-13,1.93-2-1.79-4.09-3.95-7-2s-2,4.72-1.31,7.61c1.27,5.09,5.27,8.12,8.36,11.76,6.7,7.89,12.27,16.42,15,26.42a22.28,22.28,0,0,1-.54,12.3c-2.92,9.33-13.87,9-20.6,4.25-1.83-1.29-3.73-4-5.67-3.07s-.55,4.1-.74,6.26c-.6,6.77-1.41,13.49-3.71,19.94-.34,1-.76,2.22-1.53,2.64-5,2.67-2.91,5.76-1.06,9.32,3.7,7.14,1.88,11.3-5.7,14.1A8.11,8.11,0,0,0,889.29,599a32.39,32.39,0,0,0,5.45,5.07c4.11,2.9,4.81,7.76,5.75,12.15,1.13,5.19,2.44,10.4,2.29,15.85-.24,8.62-3.67,11.11-12.12,9.92-10.27-1.46-15.77-8.29-21-16.07-2.82-4.15-6.5-7.75-10-11.37-2.79-2.87-5.91-2.08-7,1.75a35.74,35.74,0,0,0-1.78,9.58c0,5.8-4,8-8.17,10-3.4,1.65-6-1-8.27-2.91-4.09-3.39-6.85-8-10.1-12.29-2.51,1.61-.78,4.74-2.71,7-6.47,7.45-14.13,7.71-22.63,5.07-.28-.09-.53-.28-.81-.37-11-3.6-14.9,1-15.52,11.63-.17,3,.2,5.88-.7,8.86-2.65,8.83-10.12,12.32-18.58,8.93-12.82-5.14-18-15-18.21-28.13-.14-7.82-2.58-9.94-10.42-8.91a23.12,23.12,0,0,0-10.49,4.6c-3.54,2.59-7.62,4-11.22,6.37-1.7,1.1-3.51,1.38-4.68-.57-2.12-3.52-4.51-7-4.53-11.38,0-8.34-.28-16.68,2.07-24.82.92-3.22.62-6.53.62-9.8,0-5.81-4.2-8.35-9.53-5.64a55.57,55.57,0,0,0-7.4,4.78c-3.88,2.82-7.64,1.87-10.69-3-4.27-6.88-3-14.12-1.33-21.51,1.45-6.31,5.51-11.47,7-17.69,1.41-5.7.41-7.51-5.22-8.53-8.34-1.52-9.61-5.06-6.27-14.92,2.73-8,9.57-12.25,15.22-17.61a35.84,35.84,0,0,1,3.15-2.45c6.51-4.92,6.63-5,1.43-10.75-2.48-2.73-2.83-4.62.09-7.34,5.15-4.8,10.9-8.42,17.83-9.44,9.91-1.46,16.35-6.38,18.53-16.38a8.93,8.93,0,0,1,1.25-2.22c-.58,11.47-6.66,18.15-17.58,19.86-6.4,1-12.32,3.33-17,8.07-4,4-4,4.75.79,7.91,2.66,1.75,3.1,3.48,1.32,6.28-2.09,3.27-5.19,5.27-8.1,7.56-5.86,4.6-11.45,9.4-14.84,16.31-3.51,7.17-1.91,12.09,4.52,12.88,6.13.75,8.21,4,6.73,10-1.64,6.65-5.43,12.45-7.11,19.12s-2.39,12.77,1.34,18.83c2.93,4.77,5.82,5.37,10.26,2.15,1.68-1.23,3.41-2.4,5.17-3.5,6.21-3.9,11.74-1.17,12.12,6.1.24,4.76.43,9.6-1,14.21-1.95,6.28-1.86,12.71-1.5,19.08a18.6,18.6,0,0,0,4.22,11.49c.83,1,1.48,1.45,2.56.82,3.33-1.92,7.2-2.8,10.18-5.39a22.36,22.36,0,0,1,10.57-5.47c3.69-.67,7.58-1.52,11.17,1.06s2.16,6.15,2.5,9.42c1.27,12.1,5.34,22.43,18.19,26.55,8.15,2.62,15.4-2.2,15.76-10.82.09-2.39-.33-4.85.11-7.16,1-5,.69-10.73,7.52-12.62,3.93-1.09,7.32-.26,10.7,1.16,7.73,3.24,15.87,1.89,20.79-3.64,1-1.13,1.87-2.22,1.78-3.89-.24-4.34-1-8.27-4.05-11.87-4.27-5-9.72-8.18-14.9-11.85-4.81-3.41-10.13-6.24-12.39-12.27-1.62-4.33-.43-7.29,3.93-8.5a84.68,84.68,0,0,1,8.7-1.72,7,7,0,0,0,4.85-10.29c-4.24-7-10.72-10.81-18.32-13a83.79,83.79,0,0,1-24.67-11.34c-4.05-2.78-4.13-7.25-.32-10.38a29.8,29.8,0,0,1,8.87-5c2.22-.79,4-1.73,4.91-4.51,1.66-5.24-1.76-6.84-5.19-8.77-8.79-4.94-17.18-10.46-24-18-5.13-5.6-4.28-8.53,3-11.13,3.55-1.28,4.08-2.91,1.69-5.91a21.55,21.55,0,0,0-9.27-6.76c-2.36-.92-4.85-1.74-7.23-4.18,8.07.53,13.68,4.52,19.11,9.35.6-13.22-11.06-18.68-15.75-28.95-4.06,6.84-5.16,13.39-5.62,19.91-2.82-.18-.59-2.85-2.3-3.86a18.87,18.87,0,0,0-1.15,2.55c-2.67,9.68-2.65,19.68-3.44,29.58a7.7,7.7,0,0,0,2.17,5.7h0c-2,.71-2.37,2.26-2.28,4.21a279.27,279.27,0,0,0,3.93,34.36c.21,1.25,1.13,1.83,1.87,2.7a79.26,79.26,0,0,0,12.4,11.89,37,37,0,0,1-13.52-11.11c1.61,7.14,2.31,14.26,4.36,21.23s2.77,14.4,7,20.67l.09-.09c-1.43-.12-2.33,0-1.49,1.88a36.84,36.84,0,0,1,2.18,5.83c4.23,15.71,12,29.57,21.89,42.35.92,1.19,2.73,2.26,1.86,5.12-5-6.11-9.8-11.63-13.25-18.27-1.16,1.37.63,2.55-.9,4-2.76-4.31,0-10.86-5.55-13.77-.62,1.8.51,3.79-.87,5.45-1.54-4.34,1.46-9-1.51-13.2-1.79,2,.25,4.44-1.34,6.57-3.27-4.88,2.6-10.62-1.89-15.24-1.44,2.23-.18,5-1.51,7.31-3.76-4.79,4.12-10.19-1.26-15-1.66,3.36-.39,6.88-1.85,10.18.23-5-3.52-9.06-2.68-14.14,3.31.22-.88,4,2.17,4.4,2.58-5.5,1.55-10.48-2.2-15.07,1.83-3.18.42-5.93-1.19-10.05-.75,4.71-1.29,8.07-1.83,11.44-.34-2.75-.28-5.36-1.88-7.87a4.88,4.88,0,0,1,.19-5.17c4.07-5.44.31-10.58,0-15.93-2.21.74-.89,3-2.72,4.88-.3-3.54,1.08-5.63,1.92-7.88.65-1.76.19-3.39-1.52-7.28-1.86,3.74-.8,8.2-3.38,11.6-.68-6.21,2.63-11.94,2.55-18.13-1.45,6.29-5.73,10.09-10.5,13.83-.47-1.82,1.74-1.77,1.55-3.12,4.64-3.66,5.29-9,5.82-14.29.91.33,1.35,2.36,2.18,1.5,2.06-2.09.57-4.74-.1-7.36l-2,6-2.48,2.21c.78-5.36,5.14-9.84,4.28-15.67-2.09-.16-1.58,2.46-3.51,2.23.6-2.34,2.29-4.45,1.37-7l-.07.14a33.69,33.69,0,0,0,2.32-4.13,2.89,2.89,0,0,0-.18-2.52c-1.06-.9-1.11,1.44-2.65,1,2.94-5.39,2.94-11.16,2.89-17-2.68,0-3.78,2-5.57,2.55l-.55.09c-.37-1.88-1.2-1-2.18-.47-2.09,1.11-4.08,2.51-6.69,2.62,7.79-4.05,13.33-9.16,15.59-18.49,2.93-12.1,10.56-22.64,13.9-34.79.25-.91.91-2.28,1.57-2.41,1.89-.37.18,2.37,2,2.68,1.2-2.51,4-3.25,6.09-5.16-7.22-.93-9.24.29-11.64,5.84-2.19,5.07-4.77,10-7.17,15,.66-4.93,3-9.29,4.74-13.85a7.46,7.46,0,0,0,.12-5.87c-.49,5-3.67,3.46-6.44,3.58-5.61.26-11.14,1.43-16.7,2.19-15.39,2.13-27.25,11.56-40.14,18.83-6.54,3.69-12.85,7.61-20.31,9.41-10.18,2.45-19.51,7.17-28.9,11.65a39.48,39.48,0,0,1-5.29,2.13c-4.8,1.48-8.86,4.31-10.61,9.32a8,8,0,0,1-4.7,5.08c-4.17,1.25-6.4,4.47-9.28,7.1-7.73,7-16.91,11.81-26.41,15.79-6.15,2.58-11.57,6.31-17.41,9.35a4.39,4.39,0,0,0-2.06,2.26c-.62,2.11-.57,4.63-2.89,5.69a12.34,12.34,0,0,1-8.75.67c-8-2.63-14.39,1.18-21.16,4.32-6.27,2.92-8.4,9.3-12.39,14a37.45,37.45,0,0,1-17,11.38c-16.1,5.51-32.77,6.28-49.62,4.7-6.63-.62-12.89-2.76-19.34-4-4.77-1-9.89-.18-15.34-.18,1.15-3.34,3.62-2.44,5.23-3.5L402.58,561c-.59-1.76,3.75.66,1.91-2.4-.49-.82.92-1.08,1.52-.8,4.79,2.23,10.26,1,15.49,2.91-3.85,1.6-7.36-1.49-12.07.54,21.21,5.15,41.13,10.82,62.79,4.61-3.6-1.16-6.6-.2-9.45-.08-3.81.15-7.61.52-11.47.5-2.19,0-4.31.92-5.67-1.64a1,1,0,0,0-.76-.4c-5.68,1.85-11.16-2.3-16.82-.39,0-1.36,2.1-.91,1.8-2.56-.14-.81.36-1,2.08-1.35-.7-1.57-2.65-.92-4.5-3,9.58,3.92,18.81,1.45,28.79,4-7.92.41-14.6-.09-21.32-.31A42.46,42.46,0,0,0,447.23,563c8.27.35,16.53-.37,24.83.76,5,.68,9.67-1.83,13.76-4.76A78.43,78.43,0,0,0,498,548.66c2.15-2.33,6.4-2,7.42-6.17a52.24,52.24,0,0,0-14.69,7.12c-9.14,5.93-18.77,10.76-30.09,9.67-10.15-1-20.37-1.31-30.42-3.33-3.78-.76-7.06,2.26-11.14,1.54-6.88-1.22-14-1-20.54-4.07a2.11,2.11,0,0,0-2.43.36c4.46,4.34,5.91,9.9,6.27,15.87a9.91,9.91,0,0,1-2.62,7.81C397.27,580,397,583,396,586.11c-3.48,11-8.13,21.24-19.13,27.35-4.4,2.45-8.26,4.35-13.1,2.29-7.42-3.16-13.25-12.72-12.59-20.39.47-5.44-.95-11.14,1.3-16.3,1.9-4.34,1-8.81,1.64-13.19.26-1.86-.7-1.69-2.1-1.67-4.24,0-5.84,3.81-8.16,6.09-6.42,6.3-13.76,10.24-22.71,10.26a27.58,27.58,0,0,0-18.34,6.6c-5.45,4.54-12.33,5.08-19.29,6.8,4.65,4.28,6.8,10.07,9.8,15.22,2.8,4.8,5.44,10.28,5.22,16.44a25.56,25.56,0,0,1-6.38,16.06c-3.12,3.75-5.27,8.22-4.74,13.49.23,2.26-.17,3.83-3.21,2.49-5.95-2.63-12.55-2.9-18.78-4.67-9.53-2.71-13.64-10-18-17.48l-.67-1.14c2.19-.12,2.83,1.58,4,3,5,6.31,9.92,12.86,18.74,14.26A106.21,106.21,0,0,1,281.61,654c2.78.79,2.91-.12,3.59-2.51,1.63-5.76,2.07-12.32,6.72-16.62,3.94-3.64,4.5-7.63,3.66-12.36-3.64.49-3.28,4.6-5.56,6.44-.52-1.07-.69-2-.15-2.77q1.78-2.53,3.81-4.89c.8-.94,2-1.9.48-2.9s-1.37.82-2,1.44c-1.3,1.28-1.43,3.66-3.95,4.13-.08-3.66,3.66-5.09,4.62-8.84-15.37,0-29.47,2.21-40.32,14.15C250.78,631.16,249.64,633.77,246.73,634.35ZM649.8,446.29c2.17-1.17,4.21-2.56,6.64-3.24s1.8-3.39,2.62-5.12c.27-.56-.31-1.42-1.27-1.36-2.14.14-2.46,1.64-2.67,3.39-.09.68-.35,1.57-1.66,1.47-4.89-.39-5.12,0-3.52,5a15,15,0,0,1-3.87-.56c-1.64-.68-2.4.8-2.61,2.1s.63,3.13,2,2.76C647.51,450.18,650.91,450.2,649.8,446.29Zm158.9-23.2c-.32,1.77.59,1.75,1.7,1.05,4.43-2.8,9.31-4.63,14.07-6.74.39-.18,1.43-.28,1-1.56-5.76,2.27-12.27,2.66-16.93,7.42-3.5-1.94-6.9,1.62-10.52.18-.94-.37-3.25.48-3.64,1.35-1.12,2.52-2.78,1.85-4.63,1.67.68-1.51,3.69.84,3-2-.45-1.94-2.58-1.55-3.81-1.1-5.52,2-11.42,1.08-17,2.44s-11.51,1.26-16.94,3.52a1.94,1.94,0,0,0,1.18.24c7.8-.8,15.63-2.79,23.42-1.79a55.86,55.86,0,0,0,18.48-.26C801.85,426.77,806.42,427.45,808.7,423.09ZM513,533.45c4.17-.72,8.16-2.39,12.48-2.38a39.2,39.2,0,0,0,9.19-1.2c2.52-.6,3.6-1.84,3.42-3.58-19.51-2.54-36.93,5-54.77,10.47.82,1,2.44-.55,3.24,1-4.77,0-9.34.49-13.63,2.48,7.54,1.22,14.85,2.08,22.44-.26,5.36-1.65,10.1-4.83,15.7-5.68l-12.66,8.08c6.13-1.28,6.21-1.2,9.53-4.54C509.49,536.22,512.71,536.55,513,533.45ZM336.24,472.32c.58,3.83-2.66,7.14-.49,11.55,2.82,5.74,6.85,10.67,9.7,16.33.71,1.42,1.48,1.1,2.76.28,1.8-1.15,3.13-3.29,5.92-3.54-1.62,2.43-3.83,3.45-5.68,4.91-.78.62-2.16,1.14-1.19,2.82,1.84,3.18,3.47,6.48,5.17,9.75,3.13,6,8,10.84,12.07,17.3-1.79-.79-3.09-.94-3.6-1.66C355,521.84,349,513.62,345,504.22c-3-7.09-8.44-12.78-11.3-20-2.42-6.09-3.71-12.43-5.45-18.67-.33-1.17-1.14-3.19-1.41-3.05-4.11,2.1-1.78-1.47-2.18-2.45-.47-1.19.66-2.69-.76-4.51-.22,2.08-.37,3.45-.56,5.2-2.9-2.61,1.4-5.63-1-7.8-.8-.23-1.09.26-1.41.8a3.88,3.88,0,0,0-.38,2.88c.18,1.12.72,3.87-2.35,2.51-.13-1.81.55-3.44,1-5.15.61-2.46-1.54-3.21-3.21-4.11-.69-.36-1.39-1.26-2.17,0-.52.88-1.55,11.21-1,12.12,1.08,1.83,1.41.3,1.91-.44-.66,5.13,2.54,9.56,2.68,14.57,0,.75,1.53,1.84.44,2.24-4.78,1.75-1.12,4.73-.87,6.83.41,3.39,1,6.36-2.1,8.85-5.64,4.52-5.61,4.59.86,8.64,1.25.79,2.63,1.36,3.93,2.07,4.56,2.51,9,5.23,12.63,9,3.34,3.48,2.94,6.2-1.11,9-1.11.76-2.22,1.52-3.24,2.38-2.44,2.05-2.94,4-.31,6.55a21.21,21.21,0,0,0,8.89,4.84c7,2.09,14.27,5.18,21.45.11,1.1-.77,1.43.52,2,1.06,2.1,2,2.25,5.14,4,7.41.61.8,1.09,2.16,2.3,1.48,1-.57.62-1.86.28-2.86-.14-.41-.5-.74-.66-1.15-1.86-4.66-1.44-5.55,3.42-6.52,5.34-1.08,9.66-3.23,11.09-9.12.27-1.12.61-2.59,2.13-3,1,1.25-1.69,2.53.4,4.06.47-2.62,4.31-4.22,1.64-7.21-1.47-1.65-4.07-2.71-6.09-1.84-2.49,1.08-3,3.76-2.86,7.75,1.47-2.73,1.81-4.74,3.95-6.19-.93,3.45-1.71,6.36-2.52,9.39-4.18-3.59-3.28-7.51-1.1-11.39-3.75-2-6.1-1.73-6.18,3.26,0-3.59.2-6.89-4-8-1.2-.33-.87-1.78-.82-2.77.14-2.67,0-5.37.86-8,.05-.14-.26-.4-.47-.7-1.28.32-1,1.69-1.55,2.44-.84-2.12.36-8.17,2.18-8.8.78-.27,2.12,1.32,3.29-.34,3.79-5.35,6.23-11.37,8.86-17.3.71-1.59.1-2.57-1.44-3.1-3.74-1.3-10.48,1.56-12.13,5.22-1.34,3-2.55,6.06-3.82,9.09-.69-4.31,2.2-7.45,3.5-11.35-1.94.37-3.5,1.38-5,.51-3.23-1.92-4.52-.49-5.21,2.61a26.78,26.78,0,0,1-1.49,3.83c-1.38-1.12-3.42-1.53-2.73-3.88a65.28,65.28,0,0,0,2.49-15.11c.43-8.26-.59-15.7-3.87-23.09-.71-1.61-1.66-2.41-3.36-2.15a2.84,2.84,0,0,0-2.35,3.28c.35,3.51-1.52,6.66-1.28,10.12.11,1.65-.5,2.95-2.49,3,.52-3.22.37-5.8-4.11-4.62a3.25,3.25,0,0,1-2.52-.61c-1.32-.8-2.58-2.59-4.17,0-1.24,2.06-1.16,3.54.42,5.6.95-1.66.68-3.22,2.41-4.18.1,4-2.83,7.4-.77,11.51,1.69,3.37,1.28,7.63,3.14,11.22C335.1,475.33,334.78,473.14,336.24,472.32ZM784.51,490.4c-3-1.79-4.51-1.07-6,2.25a89.73,89.73,0,0,0-4.22,10.75c-.61,2.09-3.37,4.79-1.27,6.18,2.39,1.59,2.13-3.36,5.55-3.57-5.47,4-.47,6,1.27,7.77,2.8,2.88,2.15-3.73,4.88-2.6.05,2.81-3.06,4.41-2.82,7.32,1,0,1.33-1.53,2.49-.46-1.34,2.4-4.4,3.93-3.55,7.38,1.4-.85,2.31-2.76,4.62-2.42-2.53,4.22-5.47,7.76-6.69,12.24l4.52-6.14c-.9,2.63-1.64,5.06-1.36,7.81.14,1.44,1.68.9,2,1.86.89-.42,1.53-.87.75-2-.3-.44-.81-1.47.37-1.33a4.78,4.78,0,0,1,1.43.21c1.06.59,0,1.17-.23,1.72-.52,1.48-1.13,2.92-1.94,5,2.1-1.52,2.45-4.28,5.37-3.63l-3,7.82c-2-1.18-2.31-.07-2.29,1.59a1.4,1.4,0,0,0,1.35,1.47c1.64.26,1.76-1.27,2.46-2.11,1.3-1.54,1.69-3.87,3.86-4.72a20.17,20.17,0,0,1-2.55,5.54c-1,1.43.1,1.87.82,2.47,1.15,1,1.66.35,2.26-.84a55,55,0,0,1,3.38-5.21c1,3.09-4.24,5.11-.92,7.8,2.87,2.31,2.26-2.66,4.56-2.57a5,5,0,0,1-.21,1.7c-.81,1.45-.53,2.54.9,3.33,1.86,1,1.66-1.06,2.44-1.66,1.23-1,1.41-2.91,3.14-3.53.48,1.42-.43,2.35-1,3.33-.91,1.67-1.48,4-.4,5,1.71,1.49,1.82-2.19,4.38-2-2,2.19-.8,4.13-.54,6.14,2.07-.25,1.33-2.94,3.73-2.89-1.25,2.21-2,5.13-1.07,6.61,2.81,4.45-.88,6.92-2.12,10.16,0,.12.26.37.41.55l3.85-2.06c-.22.54-.29,1.38-.68,1.57-5.31,2.57-6.82,8.45-10.7,12.27-.63.62-2,2.08-.53,3s1.63-1,2.27-1.69,1-2.22,2.48-2.44c.71,2.24-1.46,3.28-2,4.95-1.06,3-1.23,2.92,1.4,4.4-.45-4.34.05-4.8,10.58-9.81-.87,1.54-1.84,3.1-.77,4.34,1.73,2,2.27-2,4-1.07.85,1.58-.8,3.49,1,5.5,1-1.37,1.84-2.66,2.74-3.94.22,2.86-2.15,5-.38,7.76.58-.72.77-2.08,1.8-1.71,1.35.49.28,1.34,0,2.09-.61,1.42-2.22,2.94-.68,4.43,1.75,1.69,2-2.13,4.31-1.08-3.78,3.54-3.43,7.91-2.94,12.41,1.67-.16,1.49-2.13,2.9-2.16-1,5.8-1,5.8,1,8.36.84-.64-.17-2.66,1.85-2.44.56,5.84,2,9,5.19,11.69,4.74,3.92,10.89,1.69,12.26-4.34.82-3.62,1.11-7.32,2-11,1.88-7.38,7.16-6.71,11.15-3,4.67,4.4,9.43,8.93,12.52,14.45,4,7.18,9.83,10.62,17.53,12,6.24,1.17,10-1,9.44-7.2-.93-10.64.07-22.32-11.15-29.14-.36-.22-.57-.68-.85-1-6.44-7.75-4.68-16,3.93-18.41,5.6-1.57,7-5.46,4.57-10.7-3.81-8.23-11.71-10.31-19.39-12.48-4.63-1.31-9-2.9-12.4-6.46-3.85-4.08-2.8-8.78,2.31-10.95,3.93-1.67,5.65-4.66,4.31-8.59-1.62-4.71-4.19-8.71-9.27-10.68S852.34,523,847.13,522c-3.89-.77-8.44-.72-11.12-3.5-4.62-4.81-4.09-10.8.26-16.06,3.64-4.4,3.72-7.36,1.15-10.82-1-1.29-2.12.16-3.15-1.39-2.48-3.74-6.57-4.51-10.9-3.48-4.14,1-8.27,2-12.4,3-5.82,1.42-10.31-2-10.4-8a40.77,40.77,0,0,1,1.6-10c1.35-5.71-.63-8.53-6.34-10.08a28.8,28.8,0,0,0-16.44.55c-10.44,3.14-19.66.59-27.49-7.29-2.85-2.87-5.07-6.72-9.55-7.82,2.66,4.41,4.84,9.21,8.74,12.56,3.72,3.19,5.92,6.76,6,11.68.07,6.5,3.14,13.21-1.54,19.38-.57.76-2.13,1.39-1.26,2.88,1.51-.41,1.82-2.63,3.92-2.7-.77,2.52-3,3.95-3.33,6.64,2.72-.9,2.58-4.35,5.31-5-.31,2.9-3.7,4.14-3.1,7.53,1.85-1.09,2.24-2.78,3.2-4s1.17-3,3.17-3.09c-.21,3.34-4.5,5.44-2.57,10.14l1.15-1.84c1.27-2,2.18-5.91,4.59-4.77,2.22,1.06-.09,4.18-1.24,6.18-.55,1-1.22,2.06-.09,2.72,1.4.83,2.05-.53,2.68-1.55s.59-2.73,2.55-2.47c0,2.31-3,4.25-.7,7.1,3.14-4.14,4.4-8.82,6.22-13.24,3.58-8.7,3-10.83-4.7-16.45-.11-.09-.3-.08-.41-.17a61.32,61.32,0,0,1-11.42-12.3c8.33,12.67,20.34,10.16,32.22,8.18-6.11,3.34-12.76,2-19.63,2.78ZM145.06,725.51c5.79-8.84,9.72-18.59,13.7-28.3,2.64-6.43,3.79-13.24,5.48-20.35C127.1,695.45,125.63,690,98.83,689a27.41,27.41,0,0,1,7.2-.76c10.39.09,20.89,1.71,31.08-1.6,7.92-2.57,15.3-6.41,22.83-9.91a10,10,0,0,0,6.3-8.13c.63-3.46,1.37-6.94,1.9-10.44,1.13-7.35,2.41-14.69,2.22-22.18-.08-3-.77-5.43-4.59-4.65-7.07,1.45-14.16,2.87-21.19,4.51a35.54,35.54,0,0,0-15.82,7.72c-2.09,1.84-4.25,4.21-3.79,6.72s3.85,1.94,6.05,2.39c4.43.9,5.88,4,3.54,8a7.89,7.89,0,0,1-2.66,2.94c-7.57,4-15.34,6.87-24.27,5.75C98,668.12,88.29,667.7,79,671.71c-3.87,1.68-7.85,6.94-7.72,10.14.24,5.74,3.72,9.51,9.1,11.55,4.38,1.66,9,1.79,13.38,3.09,3,.9,6,2.2,6.52,5.73.59,3.84-1,6.95-4.16,9.23a19.3,19.3,0,0,1-8.92,3.77A112.76,112.76,0,0,0,60.62,722c-8.91,3.35-16.85,8.08-23.18,15.28-2.85,3.24-4.68,11.5-2.77,13.8,3.37,4.07,8,3,12.46,2.39.29,0,.56-.22.85-.27,5.29-.84,10.57-2,16-1.09,3.08.51,5,2.33,4.5,5.48-.94,5.94-3.77,11.1-9,14.11a126.5,126.5,0,0,0-16.93,11.48c-6.09,5-12.29,9.92-16.83,16.49-2.7,3.9-3.1,9.77-1,12.6,2.57,3.5,7.55,4.6,13,2.67,2.23-.78,4.32-2,6.52-2.87s5.16-2.14,7.12-.4,2.32,4.86,1.53,7.56A21,21,0,0,1,50,825.74c-5,6.88-6.44,14.52-5.82,22.83.54,7.23,5.29,11,11,14,5.22,2.68,8.83-.88,12.13-4.11,6.46-6.36,12.55-13.09,20.69-17.5,1.6-.87,3-1.63,4.4-.37,1.93,1.75,4.14,3.11,5.49,5.62,2.45,4.53,3.39,9.52,5.17,14.24a27,27,0,0,0,6.83,10.19c2.94,2.76,7,1.59,8.54-2.13.82-2.08,1.67-4.15,2.4-6.26,3.48-10.21,5.4-20.57,4-31.46-.55-4.4-.24-8.94,2.63-12.81,3.64-4.91,6.42-4.93,10.36-.22s6.91,10.56,12.58,14.18c7,4.49,14.12,3,17.56-4.82,4.17-9.42,2.35-19.33,1.85-29-.38-7.33-.93-14.53,2.07-21.48,2.91-6.71,8.92-7.58,13.33-1.9,1.18,1.53,2.38,3,3.49,4.62,1.92,2.75,4.47,4.69,7.83,4.11s4.81-3.59,6-6.61c3.36-8.6.3-16.72-2-24.78-2.94-10.21-8-19.88-6.93-31,.63-6.56,4.56-13.62,13.72-9.39,4.91,2.28,10.09,2.3,15.31,2,3.1-.18,5.88-3.22,4.88-6.09-1.28-3.69-2-7.58-4.62-10.89-6.87-8.72-14.55-16.84-19.9-26.72-3.56-6.58-1.77-9.92,5.74-10.06,1.19,0,2.39-.06,3.58-.06,2.07,0,4-.56,4.74-2.62.6-1.74-.95-2.89-2-4.13-6.3-7.6-15.18-11.28-23.64-15.56A53.62,53.62,0,0,0,178,633c-2.07-.43-4.59.61-4.68,1.73-.18,2.17-2.22,4.19-.11,6.87,3.79,4.8,9.46,4.61,14.33,6.47,2.7,1,5.71,1.24,7.82,3.73l-19.8-5.59c.14,3-.1,5.64,1.21,8.12.32.61,1.07,1.77.36,1.94-4.51,1.08-1.13,3.85-1.39,5.81-.13.95,1.56,2.18-.75,3-.77-6.41-1.53-12.72-2.29-19-.16,6-4.85,11.33-.3,18.08,2.33,3.45,4.11,7.55,7.08,10.67s6.14,6.5,9.9,9c3.54,2.34,7.12,4.65,10.68,7a67,67,0,0,1-30.62-26.47c-.65,4.79-2,9.08-1.51,14.12.9,9.67.27,19.48.27,29.23-1-10.29.14-20.67-1.84-30.94-1.75,13.87-10.95,27.23-2.21,42.7,1.79-10.51-.47-20.24.33-29.88a84.15,84.15,0,0,1,1.28,24.3c-1,11.45,3,20.93,9.73,29.67.66.86,1.73,1.74.68,3.26-3.74-4.18-6.14-9.06-8.65-13.91s-4.19-10.14-6.77-15q-.64,7.91-1.3,15.79c-1.43-8.61.79-17.42-1.88-26-3,10.84.36,22.41-4.05,33.07,1-9.2,2.18-18.41.77-27.71-4.2,12.15-3.91,25.2-7.78,37.41.86-9.07,2.66-18,3.25-27.78a12.42,12.42,0,0,0-2.75,7.46c-.52,5.86-1.3,11.71-3.63,17.21C143,742,144.68,737,146,730.87c-6.18,9.66-10.66,18.66-8.29,29.93,2.12-1.36.31-4.4,2.94-4.91,0,3.74-3.34,6.62-2.65,10.63,2.25,13.17,4.27,26.39,11.89,37.88.41.63,1.29,1.35,0,2.21-4.68-6.12-7.4-13-9.37-20.39s-3.07-14.85-4.73-22.48c-1.07,3.33-2,6.42-3,9.5-1.86,5.58-1.87,5.57-5.31,8.74,6.12-10.5,7.06-21.24,8.74-32.58-3.25,4.22-5.59,8.05-6.07,12.79a90.71,90.71,0,0,1-4.54,18.95c-.37,1.1-.41,2.29-2.51,3.23a138.8,138.8,0,0,0,5.81-22.64c-3.27,2.77-4.37,6.32-6.66,9-7.14,8.41-10.72,18.68-14.8,28.67a8.2,8.2,0,0,0-.69,3.46c.62,11.2-.29,22.55,3,33.5.36,1.18.49,2-1.15,2.43a41.35,41.35,0,0,0-1.19-5.17c-2.66-7.15-1.34-14.73-2.26-22.07-.41-3.32-3.07-6.66-.45-10.54,2.38-3.54,3.74-7.76,5.55-11.69-3.28,4.13-7.66,7.08-9.16,12.68a91.88,91.88,0,0,1-11.26,26c2.53-7.58,6.11-14.77,8.89-23.66a63.18,63.18,0,0,0-8.43,13.55c-4.53,9.24-10.86,17.33-17.14,25.41-1.11,1.42-1.37,3.86-4.51,4.5,3.57-5.63,7-10.53,9.5-17.16-6.22,6.31-10.48,12.77-15.27,18.83,6.41-14.79,19.63-24.59,27.91-38s18.75-25.66,27.25-39.14c-18.9,9.72-37.7,19.18-58.28,24.41a2.51,2.51,0,0,1,1.34-1.25c18.07-5.52,35-13.64,51.32-23,2.12-1.21,4.06-3.86,6.45-3.12,1.87.58,1.88-.21,2.52-1.11A293.78,293.78,0,0,0,141.12,735c1.58-3,4.36-5.76,4.07-9.65ZM87,615.17c-1.32-1.58-2.36-2.77-1.24-4.77,1.23-2.19,2-4.67,3.46-6.7,3.53-5,7.34-9.76,11.05-14.64-3.15-.91-5.57,1-8.2,1.74-8.8,2.6-17.62,5.29-25.62,9.89-7.74,4.46-15.2,9.35-21.69,15.58-.81.78-1.89,2.22-3,1.1s.5-1.82,1.3-2.59A94.13,94.13,0,0,1,54.22,606c11-8,23.26-13.07,36.17-17,10.22-3.11,20.28-6.66,31.23-4.9,3.59.58,7.19,1.09,11.91,1.81-7.19-12.36-16-22.49-25-33.66,2.39.74,3.59,1.21,4.41,2.29,7.75,10.09,16.59,19.39,22,31.11.44,1,.83,2,1.92,2.3,5.28,1.65,10.13,4,14,8.09A5.46,5.46,0,0,0,155,597.6c1-7.79-.65-15.49-1-23.43,2.24.69,1.87,2,1.92,3.17.32,6.36.63,12.71.89,19.07.06,1.49-.27,3.65,1.21,4,3,.69,4.41,3.87,7.41,4.33.1-.15.22-.24.24-.36,2.13-9.23,1.19-18.25-1.65-27.21-1-3.29-3.62-5.87-4.24-9.19-.56-3-1.54-5.24-4.62-5.75-2.93-.49-4.64,1.77-6.17,3.74-4.2,5.42-10.86,5.74-15,.16a144.06,144.06,0,0,0-9.75-12c-5.12-5.51-10-11.33-16.43-15.41a6.82,6.82,0,0,0-8.64.93c-2,1.87-2.29,4.38-.43,6.42,3.11,3.41,3.91,7.47,4.41,11.83.53,4.59.19,5.22-4.67,5-8-.38-15.85-2-23.78-3-9.7-1.2-19.64-2.71-28.27,3.77-6.23,4.67-9.52,10.85-.88,16.43,4.2,2.72,8.85,4,13.59,5.29,6.43,1.72,6.91,3.56,2.5,8.55A16.74,16.74,0,0,1,60.27,595c-3.54,3.31-8.12,4.73-12.38,6.67-10.19,4.62-14.26,16.58-8.07,24.15,3,3.72,5.48,3.88,9.08.39,5.26-5.09,10.83-9.67,17.61-12.66,2.06-.91,4-2.48,6.15-.75s2.24,4,1.2,6.48c-1,2.3-.52,4.71-.41,7.07.06,1.18,0,2.72,1.63,2.67s.81-1.63,1.1-2.53c.39-1.22-.76-3.07,1.42-3.63.86,2.7-.18,5.26-.7,8.52,4.95-2.27,1.59-8,5.42-10.19.57,2.67-1.75,5.15,0,8,4.92-3.69,2.68-10.75,7.25-14.7.24,3.74-2.27,6.56-2.38,10.24,5.27-3.33,3.91-10.41,8.58-14,.16,2-1.94,3.17-.89,5.37a35.55,35.55,0,0,0,4-3.78c2.31-2.94,4.06-5.75,8.77-6.07s7.33.94,6.79,5.78c-.25,2.22-.81,4.4-.51,6.67.15,1.12.51,2.23,1.62,2.39s1.56-1,1.84-2c.5-1.77,1.07-3.53,1.61-5.29l.72.27-1.38,6.67c5.52-6.76,5.52-6.76,7.94-6.85-.38,2.72-3.25,5-1.71,8.67,2.89-3.8,4-8,7.58-10.77l-3.75,7.86c3.75-1.4,4.07-5.3,6.69-7.12,1,1.13-1.53,2-.12,3.09.61-.42,1.62-.73,1.78-1.29,1.29-4.26,5.8-5.35,8.59-5.91,3.54-.73,6.09-1.51,8-4.5.2-.32.92-.59,1,.07.58,5.06,2.82.09,4.09.86-4.23-5.81-9.67-7.16-16.37-5.11-6,1.84-10.51,5.83-15.12,9.8,2.07-5,9.44-9.91,16.46-11.38,1.27-.27,3,0,3.28-1.66s-1.34-2.27-2.49-2.82c-7.16-3.43-14.55-6.56-22.46-7.24-5-.43-10.73-2.25-15.23.91C96.94,594.05,89.83,602.76,87,615.17ZM803.19,479.08a9.88,9.88,0,0,0-.48,2c-.14,3.37,2.54,6.6,5.86,6.54,2.82,0,6.9-.29,7-3.54.18-5.93,3.61-9.58,7.1-13.38,3.32-3.63,7-6.93,10.29-10.59,1.89-2.1,3.65-4.78,2.2-7.69s-4.06-2.52-6.95-1.78-6,.73-8.15-2.14a8.11,8.11,0,0,1-1-8.43c1.59-3.68,3.62-7.2,7-9.62a29,29,0,0,0,7.81-8.86c1.09-1.79.31-3.36-.51-4.52-.71-1-2.38-.17-3.1.64-3.44,3.88-8.37,4.77-12.83,6.56A98.56,98.56,0,0,1,789.49,431c-8.4.75-16.8-1-25.23.35-6.4,1-12.57,2.19-17.37,6.93-1.79,1.77-3.82,4-2,6.51,8.67,11.77,17,19.51,35,14.54,5.53-1.53,11.07-2.29,16.5-.18,6,2.32,8.55,4.53,7.84,10.53C803.85,472.75,802.48,475.72,803.19,479.08ZM394.38,580.76c-8.46-9.71-17.18-12.83-29-10.62-8.83,1.66-10.17,2.4-11.46,11.61s-2.75,18.56,4.53,26.61c5.17,5.7,9.26,6.58,15.74,2.06-1.89-.57-3.6.73-6.84,1,6.52-5.66,14.5-7.18,18.69-13.66a6.94,6.94,0,0,0-4.35,2.44c-.56.69-1.43,2-2.49.79s.12-2,.93-2.55a34,34,0,0,1,5.5-2.9c1.56-.63,2.86-1.27,3.19-3.16-2.59.2-4.13,2.79-7.68,2.7,3.09-4.09,9.23-3.47,10.5-8.71-1.86.24-2.48,1.61-3.56,2.33s-1.8,1.85-3.42,1.23c1.27-2.8,4.77-3.12,5.81-5.9-1.86-.63-3.23,2-5.87.55C388.21,583.37,390.72,581.21,394.38,580.76ZM656.78,407.1c-1.82.51-3.84,3.22-4.88,1.8a8.84,8.84,0,0,0-3.9-3.18c-1.32-.58-3.25-1.32-2.87-3.56-4.53,1.63-7.78-3.59-12.24-2.29-2.66.77-5.26.35-7.89-.17-3.62-.7-4.64,1-4.23,4.42.32,2.64.86,5.53.14,7.95-1.17,3.9-.33,7.25,1.08,10.71,2.46,6.1,6.34,11.22,10.64,16.13,1.64,1.88,2.77,1.62,3.73-.16,1.67-3.11,4.46-4.84,7.48-6,10.74-4,15.74-12,16.68-23.14C656.09,411,656.09,411,656.78,407.1Zm-117.66,121a7.1,7.1,0,0,0,4.21-1c6-4,12.41-7.41,18.75-10.9,3-1.65,5.6-5.51,8.12-6.39,6.19-2.17,10.85-6,15.89-9.7,3.11-2.28,5.92-5.76,10.58-5l-1,2.11c3.08-1.89,6.3-3.26,8.09-6.29-3.57-2.75-6.44-2.09-9.67.77a40.9,40.9,0,0,1-9.15,6.16c-6.62,3.21-12.29,7.94-19.89,9.65-5.73,1.28-10.87,5.18-16.27,7.92-.61.31-1,1-.47,1.37,3.18,2.23-1.16,1.73-1,2.83-1.5.08-3.62,1.09-3.53-1.69.09-3-2.34-1.73-3-1.46-6.22,2.59-12.8,3.46-19.36,4.53a45.42,45.42,0,0,0-17.54,6.72,54.71,54.71,0,0,1,17-2.16c5.32,0,10.32-3,15.73-1.12,1.43.5,3.12.29,4.41,1.21C541.1,527.17,539.24,526.78,539.12,528.15Zm-259.1,21c15.68,6.17,43.77,3.34,54.82-3.6-8.47,2.68-17.24,1.07-25.83,2.08a17.46,17.46,0,0,1-5.35,0C295.63,546.05,287.87,548.18,280,549.16Zm182.67-8.58c2.15-.1,4.31-.11,6.44-.35.61-.07,1.56-.72,1.64-1.21.2-1.32-.93-1.12-1.82-1.18-5-.35-9.95-.54-14.92-.93-3.51-.28-7.42-1.26-11.49.14,3.79,1.88,7.45,2.42,10.56,3.91,3.71,1.79,7.57,1.28,11.29,2.08,3.52.76,7.34.16,11.95.16C471.33,540.64,466.91,541.83,462.69,540.58ZM821,610.74a31.33,31.33,0,0,0-4.53-15c-1.31-2.21-3.56-1.94-5.38-2.13-1.59-.17-2.07,1.89-2.46,3.26a3.52,3.52,0,0,0,2.11,4.38C814.68,603.24,817.74,606.14,821,610.74Zm64.51-248.92c-10.24,5-14.38,15.23-21.45,22.95l1.07.92ZM676.76,439.7a3,3,0,0,1-2.83-.05c-2.06-.71-2.37,1.19-3,2.37s-.75,2.46.39,3.21,2.3-.38,3.07-1.09c2-1.89,3.9-4,5.8-6,1.33-1.45.54-2.6-.64-3.61-.81-.68-.67-2.71-2.34-2a4.71,4.71,0,0,0-2.88,3.15C673.86,437.57,676.37,437.93,676.76,439.7ZM254,585.55a14.85,14.85,0,0,0-5.63.33c-2.12.57-5.28,1.8-6.38.86-3.73-3.2-6-.3-8.82,1,4.9-.4,9.47,3.09,14.47,1.13a2.44,2.44,0,0,1,1.75.17C252.88,590.77,253.91,589,254,585.55Zm28.77,5.35c-7.66-6.5-17.14-1.92-25.63-3.74C265.37,590,274.32,588.68,282.75,590.9Zm162.72-50.47c-4.2-2.63-23.41-5.58-29.08-4.54C426.18,539.7,436,538.93,445.47,540.43Zm45,3.46c-8.27-1.41-16.38,1-24.62.65C474.16,547.67,482.33,546.18,490.48,543.89ZM265.23,594.37a17.72,17.72,0,0,0,1.83,4.25c.4.75.82,1.38,1.61.9,1.1-.67,2.51-1.1,2.95-2.49.22-.71,0-1.79-.75-1.85-1.88-.15-3.13-2-5.16-1.66-1.74.27-3.67.91-3.69,2.58s.06,3.93,1.84,5.19a1.92,1.92,0,0,0,1.63.19,1.07,1.07,0,0,0,.26-1.83A3.82,3.82,0,0,1,265.23,594.37Zm89.07-45.25a21.79,21.79,0,0,1,2.1,1.55,3.36,3.36,0,0,0,4.8.33c.93-.7,2-1.47,1.74-2.88-.45-2-2.45-1.21-3.68-1.82-1-.52-2.18-.88-3.17-1.49a1.8,1.8,0,0,0-2.6.71c-.9,1.43.71,1.64,1.49,2.06,1.24.68,3.27-.63,4.06,1.61C357.47,549.62,356.13,548.2,354.3,549.12Zm294.18-97c7.75,2.9,6.31-5.58,11.12-6.86C652.11,442.72,652.3,449.79,648.48,452.15ZM338.92,544c-3.82-4.05-7.17-3.61-16.95,2.13C327.53,545.38,333,544.25,338.92,544Zm-28.7,35.18c5.6.15,10.24-1.82,14.44-6.58C318.36,572.72,314.74,576.92,310.22,579.15Zm349-125.53a4.23,4.23,0,0,0,4.27-4.17c-.1-1.44-1-3.13-2.52-2.83a4.78,4.78,0,0,0-4,4.57C656.86,452.71,657.5,453.76,659.27,453.62Zm-374,150.07c-2.6-.86-2.4-4.64-5.35-4.74-1.71-.07-1.79,2.33-1.62,3.12.38,1.78.37,4.49,2.93,4.66C282.75,606.83,284,605.27,285.28,603.69Zm-12.68,5.92c1.5-1,3.33-1.13,4.11-2.82.34-.71,0-1.11-.54-1.39-1.51-.76-10,1.68-10.93,3.13a1.82,1.82,0,0,0,0,2.42,1.49,1.49,0,0,0,2,.28C268.83,609.54,268.74,603.28,272.6,609.61Zm45.77-37.35c-6.56-1.29-10.94,1.7-14.86,5.9C308.12,575.82,313.51,575.55,318.37,572.26ZM661.91,444.4c1.8-1.65,3.94-3,4-5.83,0-1.12,0-2.35-1.54-1.8-2.12.73-4.32,1.77-4.28,4.42C660.14,442.2,660.18,443.88,661.91,444.4ZM259.05,602.51a4.42,4.42,0,0,1-2.92.51c-2.25-.21-2.87,2-3.21,3.42a2.58,2.58,0,0,0,2.35,2.77c1.34-.06,3.54-.37,2.49-3C257.17,604.78,259.25,604.23,259.05,602.51ZM652.51,435.59c2-2.18,6.29-1.16,6.83-5.2,0-.36.9-.77,1.43-.88.9-.18,1.8-.18,1.71-1.46a1.32,1.32,0,0,0-.86-1.37c-.91-.31-2-.26-2.41.5C657.56,430.51,653.31,431.57,652.51,435.59Zm30-10.53c-1-.38,1.06,4.78-2.1,1.37-1-1.05-1.51.79-2.05,1.52s-.63,2.22.33,2.12c2.65-.28,2.19,2.47,3.56,3.69C683.69,430.64,686.05,428,682.46,425.06ZM303.09,579.32l-17.23,6.19C292.09,584.83,298.22,583.89,303.09,579.32Zm369.57-153c-2.82-.19-4.35,1.13-5.81,2.54-.82.79-2.09,1.52-1.38,2.91.42.82,1.26,2.15,2.17,1.68s2.91-.91,2.86-2.4C670.43,429.21,671.53,428.11,672.66,426.32ZM396.3,568.64c-.43-2.39-2.95-1.9-4.39-2.85-1-.65-2.08.49-1.7,1.71.55,1.79,1.07,4.07,3.3,4.25C395,571.88,395.9,570.29,396.3,568.64ZM277,600c0-2.22-1.76-3.65-2.29-3.12a24.08,24.08,0,0,0-3.9,5.93c-.21.39.75,1.46,1.52,1.11C274.42,603,276.48,602,277,600Zm117.13-39.1c-.89,2-.55,3.53,1.88,3.66,1.05,0,2.5-.41,2.12-2.12s-.66-4.11-2.95-4.3C393.45,558,393.12,559.4,394.17,560.92Zm-146.09,56.4c-.56-2.05-2.38-3-4-3.77-1-.5-2,.69-1.87,1.84a4,4,0,0,0,3.21,3.74C247.23,619.63,247.32,618.13,248.08,617.32Zm137.4-66.16c-1.07-2-3.13-2.55-5-3.18-.74-.24-1.23.63-1,1.5.67,2.11,1.18,4.5,4,4.48C385,553.94,384.8,552.23,385.48,551.16ZM366,566.61c1.33-.08,3.29-.49,2.84-1.34-.86-1.61-1.91-3.8-4.15-3.93-1.36-.08-1.74,1.36-1.65,2.62C363.22,565.87,364.13,567,366,566.61Zm-105.69,49c.52-1.27,2.39-1.93,1.88-3.4-.39-1.14.27-3.47-2-3.26a2.84,2.84,0,0,0-2.85,2.78C257.46,613.4,258.77,614.54,260.35,615.6ZM646.87,442.12c-4.91,1.42-6.51,2.25-7.77,3.49-1.1,1.07-1.28,1.85.17,2.74,1.16.72,1.84.6,2.23-.78a4.33,4.33,0,0,1,4.1-3.24C646.76,444.19,647.22,443.32,646.87,442.12Zm25.57-5.72c-.1-1.2.32-2.77-1.63-2.47a3.42,3.42,0,0,0-3.18,3.12c-.26,1.68.48,2.23,1.85,2.27A2.57,2.57,0,0,0,672.44,436.4ZM385.36,563.59c-1.85,0-3.07.69-2.91,2a2.92,2.92,0,0,0,3,2.64c1.46,0,2.87-.75,2.66-2.71C388,564.3,387.74,563.22,385.36,563.59Zm-32.59-17.25c-3.85-4.13-8.23-.83-11.85-2.14C344.84,544,347.84,548.06,352.77,546.34Zm41,9.07a44.65,44.65,0,0,0-5.17-3.63c-.55-.29-1.42,1.05-1.27,1.91.37,2.15,2.14,3.09,4,3.7C392.42,557.77,393.15,556.86,393.78,555.41Zm-151.1,65c.76,2.43-1.12,5.17,1.95,6.05,1.27.37,2.5-1.29,2.61-2.49C247.51,621,244.75,621.58,242.68,620.42Zm116.47-62.74a12.92,12.92,0,0,0-1.22,3.07c-.09,1.54-1.42,3.09-.27,4.59a1.24,1.24,0,0,0,1.95-.17c.91-1.62,2-3.29,1.12-5.28A14.94,14.94,0,0,0,359.15,557.68Zm40.33,8.64c-1.61,2.51-1.9,5.94-5,7.35-1.23.56-1,1.23-.29,2s2.53,1,2.55.07C396.76,572.29,401.45,570.3,399.48,566.32Zm-19.37-5c-.17-1-.43-2.07-1.59-1.49s-3.79-.06-3.4,2.52c.16,1.07,1,2.47,2.4,2.13A3.17,3.17,0,0,0,380.11,561.36ZM861.23,394c-3.45,2.35-4.87,6.4-7.91,9.16C857.8,401.71,859.6,398,861.23,394ZM384.61,561.15c1.52-.48,1.91-1.73,1.87-3.08a2.06,2.06,0,0,0-2.34-2.08c-1.27.15-2.67.86-2.14,2.61C382.37,559.83,382.92,561.12,384.61,561.15ZM646.37,436.61c-.1-1.52-1-2-2.13-1.77a3.89,3.89,0,0,0-3.2,2.62c-.34,1.16.69,1.89,1.89,1.83A3.61,3.61,0,0,0,646.37,436.61ZM799.91,588.49c2.11-2.69,3.83-4.84,5.52-7a1.7,1.7,0,0,0-.37-2.66c-.54-.43-1.46-.36-1.38,0C804.46,582.68,799.92,584.15,799.91,588.49ZM765.12,537.1c1.39-3.92,5.56-4.34,8.63-7.05C767.93,530.61,765.26,532.75,765.12,537.1Zm-479,68.83a15.55,15.55,0,0,1-.19,1.85c-.49,2.06.75,3,2.39,3.5.64.21,1.69.32,1.89-.52.33-1.43-.69-2.45-1.6-3.41C288,606.75,287.66,605.81,286.11,605.93Zm-65.67-11.47,11.64-3.84C227.54,590,223.75,591.61,220.44,594.46Zm441-158.24c1.31-.7,2.88-1.12,2.48-2.83-.26-1.09-.89-2.48-2.42-2.06s-1.64,1.95-1.43,3.3C660.14,435.39,660.22,436.5,661.4,436.22Zm2.86-14.69c-.15-1.52-1.58-1.08-2.62-1.26-1.94-.33-2.29,1.28-2.39,2.44-.12,1.39,1.24,1.3,2.28,1.33C663.12,424.1,664,423.37,664.26,421.53Zm10.39,6.06c-1.65.08-2.18,1.14-2.26,2.61-.08,1.29.32,2.74,1.63,2.49a4.15,4.15,0,0,0,2.39-2.65A2,2,0,0,0,674.65,427.59Zm-424,181a11.72,11.72,0,0,1-6.69-.52C245.93,613.32,246.28,613.37,250.6,608.62Zm3.91,11.1c.18-1.2-1-1.08-1.72-1-1.14.13-3-.66-3.08,1.23,0,.72-.2,2.73,1.26,2.73A3.49,3.49,0,0,0,254.51,619.72ZM365.06,553c-1.88,1.56-3,3.16-2.51,5.08.25.9,1.95.69,2.74.07C367.27,556.56,366.28,554.87,365.06,553ZM681.67,450.3a25.79,25.79,0,0,0-10.11,4.43C675.67,454.88,678.63,452.48,681.67,450.3ZM946.79,304.11l.56,1,10.85-5.79A26.31,26.31,0,0,0,946.79,304.11Zm-692.1,309.1c.07-1.48-.45-2.39-2-2.23-1.22.13-1.95.88-1.7,2.11s.62,2.81,2.26,2.8C255,615.89,254.2,614.09,254.69,613.21Z" transform="translate(-19.9 -39.43)"/><path d="M982.53,265.36c-6.28-.11-12.2,2.11-18.32,3.05-12.74,1.95-25.44.73-38.09.22-7.41-.29-14.66-3.53-22.1-4.39-10.49-1.21-18.47-7.58-27.33-12.05-11-5.53-21.94-11-33.64-14.56-5.56-1.7-11-3.82-16.55-5.46l-1-1.21c-.47-1.85-2.4-3.25-1.8-6,8.46,8,19.41,10.1,29.37,14.07a245.46,245.46,0,0,1,29.84,14.16c11,6.23,22.85,9.05,35.07,11.5s24.66,2.88,37.06,2.37a122.18,122.18,0,0,0,27.48-4.44Z" transform="translate(-19.9 -39.43)"/><path d="M982.53,285.08c-3.93-1.62-7.5.36-11.13.69-3.45.31-5.87,3.7-9.37,2.32-.16,2.56-2,2.41-3.82,2.45,1.44-2.59-.32-1.88-1.59-1.51-5.94,1.73-11.93,3.29-17.75,5.34a16,16,0,0,0-8.6,6.6c-1,1.65-.62,2.1,1.1,2.07-.82,2-3,1.51-4.57,2.48,2.52-1.55.71-5.18,3.51-6.33-.91-1.88-2.81.95-3-.7-.37-2.77,1.76-.57,2.66-.86,3.93-1.24,8.51-3.87,9.84-6.28,1.91-3.44,3.61-3.27,6.7-3.53-1.34,1.58-4,.79-3.81,3.63a389.52,389.52,0,0,1,39.86-10Z" transform="translate(-19.9 -39.43)"/><path d="M982.53,275.22c-8.1,3.58-16.95,4-25.36,6.38,8-4.2,16.64-5.87,25.36-7.28Z" transform="translate(-19.9 -39.43)"/><path d="M825.51,231l1,1.21c4.32,5,9.67,9.86,15.64,10.78,4.11.63,5.69,4.23,9.27,4.31,3.82.09,7.79-.06,10.9,2.55,4.87,4.07,11.08,5.38,16.38,8.44,2,1.17,4.84-1.38,6,1.79-.22,1.15.61,1.69,1.33,2.29,8.89,5.89,18.2,10.82,28.79,13,2.78.57,4.83,3.4,8.19,2.66,1.55-.34,3.28.16,4.27-1.66a1.89,1.89,0,0,1,1.37-.93c12.66,1.34,24.57-4,37-4.05,2.75,0,5.3-1.56,8.05-.63-4.36,3.19-9.46,4.78-14.46,6.55-4,1.43-8.07,2.72-12.12,4.07.18-1.31,1.62-1.52,2.18-2.5,4.57-2.34,9.58-3.54,15.33-5.49-9-.49-20.72,2.19-22.59,5.09,1.76-.16,3.36-.43,5-.41.84,0,2.52-1.6,2.44.94-3.82-1.13-6.94,1.64-10.53,2-.86.08-1.11,1.32.37,1.57-.16,3.7-3.25.12-4.25,1.72,0-1,1.88-1.58,1-2.48s-1.79.06-2.58.84c-1.74,1.73-3.72,3.23-5.34,5.06-.74.85-2.81,2.28,0,3.36-7,2.83-11.61,8.66-16.51,13.8-5.08,5.31-10.26,10.51-15.45,15.7a49.07,49.07,0,0,1-6.67,5.82c-3.88,2.69-6.34,6.71-9.79,9.84-4.4,4-9.84,5.92-14.68,9-4,2.53-8.49,4-12.94,5.31.27,1.71,1.71.46,2.5,1.64-4.07.92-7.76,2.68-11.9,2.79a1.67,1.67,0,0,0-.28-1.8c.22-1,1-1.21,1.88-1.58,8.82-3.69,17.83-6.8,25.92-12.27,10-6.76,18.4-15.3,27.62-22.91,3.34-2.75,6.69-5.86,8.64-10.66-13.67,4.18-27,.47-40.31,1.45-9.5.7-19.16-2.51-28.95-2.73-13-.28-25.82.47-38.49,3.28-1.15.26-3.53,0-3.31,2.06.14,1.38,2,.14,4.3.72-6.8.67-12.29,1.27-17.78,1.74s-10.61,1.13-15.91,2c-7,1.12-13.72-2.38-20.74-2.61-.84,0-1.72-.76-2.42.16s.31,1.49.58,2.26c1.86,5.42,3.27,11.09-1.65,15.56a22.06,22.06,0,0,0-6.15,9.05c-.53,1.46-1.87,2.62-2.74,4-2.45,3.86-6,6.87-8.51,10.58a49.51,49.51,0,0,1-16.22,15.56c-3.7,2.14-13.07,2-16.07-.28l-.06.06c1.61-.75,3.23,0,4.83,0,5.33.23,10.33-.45,15.23-4.53l-7.35,1.57a2.5,2.5,0,0,1,2-1.6c2.83-.81,5.67-1.64,8.44-2.65,2.34-.85,4.48-4.28,3.66-4.92-3.89-3.06-.34-3.82,1.2-4.9s3.23-2.6,5.42-2.88c1.73-.23,2.45-1.33,2.35-3.16-3.61.05-6.19,2.79-9.92,2.34,7.85-3.44,17.3-4.89,18.39-16-1.68-1.08-4.15.13-6.62-1.24-7.18-4-14.65-7.75-22.45-10.21-5.5-1.73-10.76-3.89-16-6.05-2.67-1.09-4.19-2.71-2.66-6.24,1.16-2.69,3.7-3.56,6.28-6.65-6.34,1.08-10.75-1.33-15.35-3.33-10.7-4.67-21.43-9.27-31.66-14.93a4.1,4.1,0,0,0-3.75-.09C634.63,286.3,628.58,294,621.35,300c-6.53,5.45-12.56,11.51-18.81,17.3.48-3.93,5.43-5.35,5.75-9.48-7.7,5.49-14.54,11.43-14.75,22.61,3.15-4.94,4.48-10.33,9.15-13.27-4.39,7.19-9,14.28-11.32,22.57-1.21-3.3.14-6.07.26-8.95a31.43,31.43,0,0,1,10.16-21.86c10-9.52,20.33-18.7,30-28.56,3.65-3.73,3.38-4.54-1.52-5.91-.4-.11-.71-.52-1.09-.74-6.2-3.48-12.39-7-18.61-10.41-2.55-1.41-5.33-2.46-7.72-4.08-1.65-1.12-5-.37-4.69-3.9a4.78,4.78,0,0,1-1.73,0c-5.34-2.11-11.21-.85-16.59-2.65-.32-.11-.63-.26-1.09-.45,1.13-.67,2.48.37,3.47-1-3.51-.86-6.63-2.07-10.12-2.16-2.35-.06-3.1,3-4.7,2.5-3.71-1.1-6.63.67-9.62,1.94a182.71,182.71,0,0,1-37.1,11c-.7.13-1.71,1-1.62-.8.09-2,0-2.06-1.51-1.57-1.81.6-3.58,1.35-6.41,2.44,2.59-.22,4-.49,5.66.43-1.64.49-3,1-4.44,1.32-11.76,2.75-23.55,5.42-34.7,10.2-3.05,1.3-5.8,3.53-9.21.64-.87-.73-2.44.43-2.94,1.23-.72,1.15.55,1.8,1.55,2.11a2.85,2.85,0,0,1,1.6,1.27c4.08,5.67,6.28,12.09,7.82,18.82.4,1.76.1,2.76-1.79,2.07-2.86-1-3,1.05-2.68,2.57.4,1.76.49,3.13-1,4.62-.39-2.15-1.61-4.07-1-6.11,1.24-3.88-.7-5-4-5.16-8.32-.36-14.86,4-21.08,8.58-3.2,2.37-5.28,6-7,9.41-2.07.63-.45-3-2.35-2s-.17,2.51.41,3.35c2.64,3.83,5,7.82,7.68,11.64,3.14,4.54,8,7.18,11.13,11.6l.08-.07c-2.68.71-4-1.58-5.63-2.79-8-5.81-10.58-16.2-18.46-22.17-.32-.24-.1-1.14-.24-1.7-2-8.14-2.34-16.12,2.16-23.67a4.6,4.6,0,0,0,.23-1.63c-3.67-.4-7.18-.63-10.63-1.21-11.71-1.94-23.08-5.58-34.67-7.84-10.68-2.08-21.78-.38-32.65,1.16-4.47.63-8.1,3.59-12.59,3.95,1.34-2.86,5.21-1.76,7.42-4.63-5.13.75-8.64,3.75-12.86,4.87-.94.25-1,1.38-.45,2.28-2.1,2.05-4.8,3.17-7.2,4.76-4.91,3.26-10.12,6.32-12.11,12.48-.3.95-1.54,2.48-1.77,2.22-3.45-3.78-4.7,1.24-7,1.63l-.82-.4c.5-1.16,1-2.33,1.8-4.16-3.21,1.73-5.26,3.21-6.43,6.41-2.49,6.82-7.15,12-13.85,15.73.46-2.52,3.3-2.22,3.81-4.3-2.32-.63-3.6,2.29-5.29,1.79-4.48-1.32-4.28-1.34-7.67,1-.44.31-1.18,1.94-2.39,1.36-4.67-2.25-7.58,1-10.31,3.66a27.16,27.16,0,0,1-9.56,5.92c-.65-2.31,2.37-1.8,2.07-3.85-2.53,1.5-5-4.3-7.75.36,3.09-1.11,3.6,1.62,3.91,3.05.46,2.12-1.89,2.11-3.35,2.41-.69.14-1.57-1.27-2.25-.07-2.69,4.75-2.71,4.7-6.17,7.59-1,.82-2.88,1.45-1.82,3.54,2.23-1.6,4.48-3.14,6.64-4.79.94-.72,1.78-1.27,2.54,0a1.63,1.63,0,0,1-.71,2.59c-2.12,1.06-3.54,3.56-6.89,2.5,2.84,3.69,5.31,1.23,7.83.34-.37,1.55-2.23,2.29-.95,3.86,1.75,2.12,2.51-1.4,4-.73-1.36,3-1.3,2.95.47,6.39a2.44,2.44,0,0,1,.11,2.8c-1.26,1.8-2,4-3.33,5.71-2.07,2.59,1.09,1.33,1.27,1.79-3.38,4.71-8.51,6.31-13.4,8.3-.41.17-1.05.27-1.17.56-1.54,3.7-5.67,3.57-8.19,5.73-.91.77-.64-1.71-2.21-.09-3,3.08-4.12,7.26-6.71,10.07-3.36,3.65-3.92,6.41-1.2,10.34,1.62-.75,2.89-2.42,5.14-2.25-1.26,2-5.59,2.55-3.6,5.59,2.23,3.41,3.93-1.43,6.24-1.47-.15,1.75-2.77,2.21-1.91,3.73s2.7.6,4.1.71c4.21.32,6.48,2.56,7,6.71.34,2.89-3.52,10.59-5.71,11.29-.11,0-.28-.08-.42-.13l.09.09c1.07-2.68,2.16-5.35,3.2-8a5.33,5.33,0,0,0-4.48-7.31c-6.16-.49-11.68-1.86-13.89-8.77s-.83-14.18,4.67-18.57a63.57,63.57,0,0,1,15.35-9.43c6.12-2.53,11.48-5.86,14.43-12.28,1.74-3.8,1.2-7.1-2.42-9.3-2.27-1.37-4.94-1.94-6.94-3.94-1.21-1.2-2.23-.48-2.93,1.16-3.07,7.18-9,11.13-16.22,13-2.1.54-4.51-.76-4.94-3.77a68.18,68.18,0,0,0-1.77-8.73c-1-3.47-2.44-6.82-6.78-7-3.63-.18-5,3.13-6.38,5.37-3.46,5.78-4.8,12.39-5.69,19a64.21,64.21,0,0,1-5,17.49c-1.51,3.4-4.93,6.14-8.87,5.84s-6.14-3.84-7.48-7.38c-.76-2-.29-4.76-2.94-5.5-3.24-.9-7.14-1-9.43,1.23-6.5,6.37-14.07,12-15.51,22.23-.91,6.48-5.82,11-10.59,15.24a3.58,3.58,0,0,1-4.79.18c-3.54-2.46-6.92-5-8.08-9.53a6.28,6.28,0,0,0-5.06-5c-2.78-.55-4.1,1.37-5.34,3.13-3,4.33-5.4,9.11-9.27,12.88-2.32,2.25-4.55,2.92-7.47,1.41s-2.67-3.76-1.89-6.4a31,31,0,0,1,3.94-8.36c2.72-4.12,3-8.94,4.21-13.46.76-2.78-1.9-3.79-3.84-3.45-4.7.82-8.75-1.85-13.35-1.86-3.58,0-5.94-6.09-4.63-10.28,4-12.7,12.3-21.32,24.77-25.86,3.19-1.15,6.54-1.83,9.78-2.85,2.88-.92,5.95-2.25,6.12-5.59a7.72,7.72,0,0,0-4.14-7.75c-7.83-4.29-9.59-8.8-2.44-17.31,8.8-10.47,21-14.74,33.14-19.44,5-1.94,10.26-2.74,15.49-3.66,5.69-1,8-6.23,4.86-11.13-3-4.71-2.47-8.61,1.71-12.17l-.09-.08A19,19,0,0,0,173,288.88c1.47,2.19-3.28,8.15-7.09,8.59-12.65,1.46-24.17,6.27-35.52,11.58-3,1.42-6.21,2.86-8.12,5.93s-5.66,3.8-7.22,7.32c-2.47,5.54-2.17,7.78,2.84,11.21,6.55,4.51,7.07,6.11,5,13.16-1,3.25-3.59,4.12-6.21,4.68-10,2.13-19,5.64-26,13.53A31.18,31.18,0,0,0,83.43,379c-.92,4.08,1.21,7,5.35,7.81a80.46,80.46,0,0,0,10.59,1.34c4.57.27,5.82,1.63,5.63,6.32-.26,6.62-4,11.94-6.41,17.75-.45,1.09-1.06,2.11-1.57,3.16-.74,1.52-1.3,3.07.55,4.21s3.51,1.45,5.28-.17a41.65,41.65,0,0,0,8.69-12.27c1.61-3.2,4.2-4.91,7.34-5s5.27,2.52,6.48,5.4a22.17,22.17,0,0,0,5.82,8.33c2,1.74,3.69,2,6-.22,4.09-3.94,7.15-8.25,8.31-13.88,1.82-8.82,8.31-14.49,14.23-20.47,3.64-3.66,8.6-3.63,13.3-3.84,3.14-.13,3.62,2.82,4.25,4.94,1.11,3.75,1.67,8.2,6.52,8.3,4.69.09,5.63-4.38,7.32-7.85,3.58-7.36,3.18-15.62,5.55-23.25a49.89,49.89,0,0,1,6.65-13c1.71-2.56,4.61-4.31,7.76-3.18,3.45,1.25,5.65,4.2,6.69,7.75.74,2.52,1.13,5.14,1.73,7.71.79,3.37,2.75,4.07,6,2.9,8.56-3.12,11.27-10.6,13.9-18.2,1.55-4.44,2.91-9,4.71-13.31,2-4.9,6.71-6.13,10.9-3.2,6,4.2,13.59,1.29,16-5.91,2.11-6.43,4.1-12.89,6.34-19.28,3.22-9.16,10.47-11.72,18.76-13.22.71-.13,1.41-.25,2.12-.41.1,0,.18-.21.82-1-8.47-1.28-16.26.7-24,1.78s-15.37,2.94-23.06,4.38c-8,1.49-14.92,5.92-23.74,8.09,4.25-3.49,8.85-4,13.07-6.15l-2.91-.8c20.31-3.38,40.05-8.74,61.13-10.56a5.47,5.47,0,0,0-6.29-1.22c-7.31,3-14.43,1.2-21.59-.53-2.8-.68-3.27-4-6.5-4.82-3.77-1-7.44-3.7-11.27-3.85-2.54-.1-5.76-1.83-8.28.76-2.79,2.85-6.58,4.22-9.8,6.44-2.43,1.68-8.73.2-11.36-2.59-3.41-3.63-6.68-7.4-10.61-11.77,5.41,1.31,7.58,8.17,14.45,6.4-1.94-2-4.78-.68-5.12-3.34a14.52,14.52,0,0,0,3.69.49c2.1-.24,5.07,1.3,6.12-1.18s-.41-5.07-2.38-7l.85-1c3.23,2.09,1.7-1.64,2.63-2.75a18.64,18.64,0,0,0,7.12,8.77c1.54,1,2.54.18,3.64-.35,1.83-.88-.26-1.55-.27-2.38s-.66-1.66.23-2.45c.63-.56,1.75-.91,2-.42,1.59,3.56,6.69,2.82,8,6.81a5.05,5.05,0,0,0,3.65,3.53c-.13-1.77-2-2.92-1.51-4.83,2.69-.27,1.8,2.92,3.69,3.4,1-.81-.38-2.5,1.2-3.51C263,270,264.3,273.17,267,276c.39-2.05-.67-3-1.27-4.2-.42-.81-1.64-1.72-.13-2.49,1.73-.88,1.31.93,1.8,1.64,1.91,2.82,2.34,6.61,5.55,8.75.57-1.32-.15-2-.65-2.92a30.17,30.17,0,0,1-2-5.77,1.46,1.46,0,0,1,1.13-1.7c.37-.13.72,0,1,.55,1.62,3.73,4.93,6.41,6.3,10.36.66,1.92,1,1.8,3.64,2.19-1.34-2.77-4.47-5-3.08-9.68,2.11,2.65,1.45,5.79,4.08,7,1-1.28-1.13-3.21,1.21-3.91,1.4,1.5.77,4.26,3,5.33,1.57-1.7-2.37-3.91.88-5.61a5.14,5.14,0,0,0,1.74,4.3c.62.51.88,1.79,2,1.14.75-.43.49-1.31.27-2-.43-1.36-1.24-3.18.72-3.51,1.17-.2,1.56,1.77,1.81,3.06.12.62.42,1.11,1.22,1.05,1.57-.56-.45-3.11,1.74-3.36,1.44,2.8,5.77,3.49,4.82,7.72,1.8-.55.63-2.79,2.5-2.67,1.11.95-.24,2.69,1.28,3.65,3.51-2.6,7-5.3,10.6-7.84,5.83-4.1,12.29-7,18.83-9.75,1.38-.57,2.84-1.21,1.66-2.79-4-5.27-6.08-11.49-9-17.27-2.38-4.72-6-5.36-10.44-4.8-.87.11-1.74.25-2.62.38l.14.11a8.71,8.71,0,0,1,13.23.32c4.54,6,6.93,12.95,9.61,19.77.85,2.15,1.44,2.7,3.67,1.86,9-3.41,18.48-4.77,27.89-6.42a3.37,3.37,0,0,1,2.9.56c-2.94.77-1.93,2.23-.41,3.36a7.7,7.7,0,0,0,3.35,1c11.38,1.68,22.64,4.25,34.21,4.66,6.28.22,12.54.76,18.81,1.16-4.13.62-8.3,1.54-12.35,1.16-11.49-1.08-22.85-3.74-34.51-2.87-.52,0-1.47-.33-1.55-.68-.64-2.66-2.85-2-4.64-2.58-3.4-1.11-6.66-.65-10.12.15.9-2,2.92-1.36,3.9-2.76-23.72,2.64-45.26,10.34-62.76,27.41,3.13-.37,4.71-3.79,7.91-4.07-2.41,3.7-6.88,4.9-9.71,7.94-1,1.07-1.79-.74-1.89.39-.31,3.39-2.95,4.76-5.26,6.53a15.25,15.25,0,0,0-4.8,5.46c.63.1,1,.26,1.17.15a14.33,14.33,0,0,0,1.79-1.2c7.26-5.53,14.42-11.2,21.83-16.52,2.51-1.8,5.11-4.34,8.71-3.51,2,.46,2,.72,2-.94.09-2.72,1.58-3.58,3.93-2.58,1.47.63,2-.34,2.74-1,6.26.28,10.43-4.53,15.81-6.44-5.18-.65-9.32,2.52-14,3.64.16-.7,1.08-1.69-.49-1.81a8.7,8.7,0,0,0-5.76,1.33c3.32-5.23,9.66-4.94,14.31-7.76,1-.64,2.53-.7,2.75,1.25l-9.51,3.33c3.54.64,6.44-.89,9.48-1.81,1.46-.45-.4-1.05-.08-1.61a41.55,41.55,0,0,1,4.42-.51c.76,0,1.76,0,2.16,1,.18.43-1.77.65-.16,1.4.86.41,1.65-.29,1.87-.28,3.75.25,7.48-1.26,11.22-.13a49.7,49.7,0,0,1-5.71.34c-1.79.09-1.77,1.91-1.77,2.86s1.88.78,2.14.39c2.55-3.84,6.35-2,9.63-2.18,7-.29,13.94,2.26,21,0,1.48-.46,4,0,4.33,1.39.75,3,3,2.12,4.76,2.68,7.66,2.39,15.45.39,23.16.76.81,0,1.26-.57,1.09-1-1.19-3.11,1.25-2,2.49-2.19,3.95-.58,7.89-1.17,11.85-1.63,1.36-.17,1.66-.83,1.77-2,.15-1.76-.94-1-1.82-1.25-2.29-.61-4.46-1.52-6.72.08-.56.39-1.86.35-1.68-.49.62-2.93-1.43-1.88-2.68-2-10.49-.9-21-1.71-31.46-2.7-4-.38-8-1.21-12-1.68-3.39-.4-6.65-1.71-10.2-1.07-1.61.29-2.68-.8-2.6-2.62a21.65,21.65,0,0,1,10.37.89c6,1.81,12.23,2.07,18.38,2.77,11.47,1.32,23,2.25,34.39,3.94,4.72.7,9.37-.44,14,.55,1,.2,2.66.09,2.5-1.12-.24-1.77-.81-4.1-2.09-5-2.78-2-5.45-4.21-9.43-4.53-3.37-.27-6.21-3.27-9.24-4.94-6.74-3.72-13.52-7.38-20.4-10.84-4.9-2.47-10.7-3.26-14.57-7.7-.47-.54-1.34-.81-1.11-1.7.07-.29.75-.75.89-.67,4.07,2.26,9.27.21,13,3.46-2.82.38-5.66-2.28-9.36.24,11,3,19.83,9.12,29.95,12.25-.07,2.12,1.69,2.61,3.09,3.33,5.74,2.93,11.75,5.32,17.31,8.65,3.17,1.9,6,3.76,5.21,8.11-.37,2.11,1.31,1.4,2.35,1.54l-.05,1.27c-2.86,1-6.76-1.1-8.63,2.88-2.29-2.2-3.72.89-5.55,1.22-5.35,1-10.25,4-15.88,4.31-.56,0-1.37.05-.91.89.2.38,1,.45,1.53.65-2.69,2.8-6.6-.19-9.93,2a15.23,15.23,0,0,0,12.37-.9c2.84-1.8,6.19-2.13,9.37-3-.47-1.32-1.81-.18-2.34-1.25a4.49,4.49,0,0,1,1.21-.15c4.65.73,9-1.37,13.62-1.25.88,0,2.05-1.3,2.39.53.66,3.49,2.24,3,3.68.71,3.36-5.34,9.32-4.62,14.19-6.07a272.53,272.53,0,0,1,30.46-7.67c8.89-1.57,17.93-2.62,26.24-6.12,7.76-3.27,15.82-5.43,24.83-8-3.73-1.59-6.38-.25-8.85.26A118.89,118.89,0,0,0,530.17,253c-3.23,1.14-2-.67-1.81-2l0,.05c6.56.34,12.74-2.08,18.27-4.67,2.74-1.29,3.54.79,5.37.33,4.24-1.06,8.71-1.26,12.93-2.38,1.85-.48,4.36.83,5.73-1.86-3.14-1-6.18,1.61-9.15.17.28-1.88,4.62,1.79,3.26-2.41l-.09.11c5.3-.33,10.61.2,15.93-.65,2.5-.41,5.49-1.43,7.73,1.12A7,7,0,0,0,584,241c-.68.23-1.75-1.24-2,.45-.16.94.44,1.33,1.26,1.47s.94,1.28,1.47,1.46c3,1,6.07,4.79,8.43,3.17s3.6-.84,4.9,0c6.31,4.23,13.64,6.16,20.47,9.13A60.34,60.34,0,0,1,632.25,265c-4.72-4.09-11.15-3.45-16.21-6.57,1.31,3.19,5,3,6.76,5.35-1.54.16-4.28.72-2.07,2.35,3.46,2.57,7,5.63,12.33,6.46-3.34-3.5-7.18-5-10.55-7.18-1.5-1-1.32-1.3.26-1.61,4.84,1.06,8.72,4.12,12.88,6.5,1.1.62,1,3.53,3.2,3.86,4.1.62,7.54,2.18,10.17,5.56.72.93,2.59,1.86,3.51,1.55,3.58-1.23,6.14,1.28,9.17,1.93,3.56.76,6.8,2.83,10.66,2.58a78.15,78.15,0,0,1-15.13-8.41c1-.67,1.63-.08,2.26.25,5.54,2.9,11,6.22,16.66,8.55a77.56,77.56,0,0,0,28,6.07c1.43,0,3.43.46,3.63-1.55.31-3.12,2-1.29,3-.94,5.78,2.13,11.77,3.67,17.32,6.49,1.52.77,4.34,1.92,5.41-1.53.39-1.25,1.8-.73,2.73-.45,1.38.43,1.27,1.39.56,2.4-2.06-1.05-2.34.12-2.76,1.86-.59,2.42,1.18,4.44,2.39,4.43,5,0,9.11,4.25,15,2.24-5.45-1.35-9.93-3.44-13-7.68,12.13,3.62,12.13,3.62,14,2.12l-4.83-1.61c11,3.88,21.47.35,32-1.83-8.24.48-16.24-1.13-24.31-2.13-14.12-1.74-28.08-4.26-42-7.2-7.33-1.55-14.38-4.1-21.68-5.85-9.18-2.2-18.9-2-27.62-6.15a7.15,7.15,0,0,0-2.11-.64c-4.87-.58-8.07-2.87-8.48-8.11,8.39,7.74,19.34,9.28,29.73,11.57,12.82,2.82,25.44,6.41,38.22,9.28a295.49,295.49,0,0,0,36,5.32c4.55.44,9,2.23,13.6,1.76,12.23-1.25,24.52-2,36.25-6.47,7.42-2.81,15.44-2.45,23.25-2.5,15-.11,29.83,2,44.72,3.2,11.27.91,21.59-1.93,31.94-5.42,1.24-.42,2.38-1.06,3.67-1.46s3.31-.67,3.18-2.47c-.09-1.37-1.74-2-3.06-2.23-12.83-2.35-23.34-9.63-34.12-16.24-4.87-3-10.38-4-15.54-6-10.3-4-20.86-7.89-29.77-14.28-13.19-9.45-25-20.6-30.08-36.93-.86-2.74-2.76-4.88-4.32-7.2-.78-1.17-1.82-2.62-.56-3.55,1.89-1.39,1.84,1.07,2.56,1.9,4.42,5,7.75,10.93,10.77,16.73,2.74,5.25,8.21,6.88,11.31,11.26.48.67,1.53.93,1.27,2.32-2.79.5-4-2.55-7.23-3.11C818.33,225.82,820.83,229.5,825.51,231Zm-51.9,69.38c5,.35,9.84.24,14.91,2.22s11.68.45,16.9-.92c18.22-4.77,36.7-2.45,55-2.8,7.51-.14,15.49,1.42,23.28,1.33a64.56,64.56,0,0,0,24.44-5.06c-23.65,4.34-47.21-.27-70.82.13,2.61.26,4.41-2.09,7.13-2,4.19.2,8.1,1.69,12.28,1.72,14.83.09,29.65.24,44.44-1A69.18,69.18,0,0,0,912,292.39c2.54-.63,4.94.18,8-1.15,4.37-1.91,6.13-5.52,9.29-8.15-4.39.92-8.86,3.38-12.93,2.49-10.9-2.37-19.69,4.63-29.78,5.65l7.25,1.43c-6.47.9-12.84-2.27-19.31-.21-.22.07-.93-.63-.91-.66,2.8-4.27-2.07-.88-2.19-2.2-2.22.66-4.42-.21-6.62-.12-4.8.19-9.57-1.5-14.61-.54.84,1.51,1.5,2.69,2.24,4-.71.06-1.41.3-1.55.11-3.27-4.44-7.69-4.09-12.56-3.77-4.16.28-8.42-.76-12.68-1-9.48-.44-18.43,2.3-27.44,4.32-4,.9-8.64.64-12.43,3.35,1.31,1.33,2.72-1.38,3.68.72-2,1.32-4.37,1.41-6.65,1.86-3,.58-6.29-.1-9,1.88-7.3-1.22-14.19,1.73-21.39,1.5,8.08,3.6,15.89,1.21,23.95,0C775.53,300.64,774,301.72,773.61,300.34Zm-164.5,4.35,1,1.09c6.4-3.46,11.7-8.46,17.31-13,4.39-3.56,6.43-9.46,11.92-12,.78-.36,2.58-1.45,1-2.6-1-.75-2.29-2.44-4.23.18-3.55,4.78-8.12,8.76-12.66,12.71C618.51,295.38,613.89,300.12,609.11,304.69ZM278,309c6.31-5.73,15-8.15,18.57-16.48C287.56,290.34,279.85,297.8,278,309ZM939.3,277.56c-9.19,1.74-19.5-1.18-27.26,6.49C921.21,282.22,930.86,282.5,939.3,277.56ZM699.21,298.08c-.49-2.38-2.36-2.66-3.71-3.21-5.15-2.1-10.39-4-15.63-5.87a7.42,7.42,0,0,0-3-.52c-.72,0-1.93,0-1.93,1.3,0,.84.59,1.17,1.29,1.56,6.53,3.71,14,4.45,21,7C697.71,298.51,698.37,298.2,699.21,298.08Zm-144.71-46c-11.27,2.75-22.67,5.21-33.31,10.16C532.68,260.2,544.07,257.86,554.5,252.1Zm-97.41,28.27c-2,1.22-2.82,5.34-5.13,3.47-4.31-3.48-6.31,1-9.16,1.92-1.77.61-1.84,2.82-1,4.93.75,1.79,1.88,1.86,3.12,1.42,1.44-.51,3.64-1.46,3-3.1-1.21-3.16.58-2.11,2.24-3.06,2.16-1.24,3.94,3.1,5.17-.25C456,284.07,457.29,282.68,457.09,280.37ZM798,303.91c-11.59.89-23.5-2.14-34.84,2.35C774.71,305,786.47,306.57,798,303.91ZM697.12,293c.64,1.7,2.32,1.57,2.56,2.25,1.36,3.89,4,1.58,6.13,1.41,3.41-.25,7-3.87,10.13.62,1.47-1.12,4.32,0,4.77-1.55s-2.1-1.22-3.32-1.75C710.77,291.13,704,294.41,697.12,293ZM342.58,280.44l31.68-2.74C360.66,275.61,348.12,276.83,342.58,280.44Zm131.64-6.32.45,1.28,28.77-10.33C493.15,266.54,483.76,270.55,474.22,274.12ZM434,300.1c2.57,4-5.25,6.18-1.35,10.26,2.09-1.5,2.3-4.37,4-6.67a12.66,12.66,0,0,0,1.26,2.09c1.33,1.4,2.5,0,3.58-.47.85-.37,1.78-1.27.74-2.49-.44-.51-.65-1.57-1.61-.85C437.71,304.12,436.18,301.55,434,300.1Zm266.15,11.59c-.07,2.39.47,4.35,2.56,4.4,1.55,0,4.32-.84,3.64-2.83s-.82-5.74-3.65-5.94C700.16,307.14,701,310.44,700.15,311.69Zm34.69.52c2.62-3.06,5.52-3.25,9.17-2.18a35.53,35.53,0,0,0,13.56.94,1.94,1.94,0,0,0-2.25-1.19,29,29,0,0,1-12.87-2.07C738,306.07,735.67,307.5,734.84,312.21Zm-17.66,5c-.11,2.28.66,3.94,3,3.59,2-.3,5-1.25,4.27-3.4-.55-1.6-3.68-2.77-5.85-3.2C717.14,314,717.39,316.19,717.18,317.24ZM712,299.72c-.6-.9.79-3.11-2.15-2.57-2.6.47-4.52.89-4.45,4.08a2.34,2.34,0,0,0,2.91,2.41C710.08,303.21,712.56,302.73,712,299.72Zm-1.46,4.18c-1.28,1.62-4.78.29-4.82,3.42,0,1.27.49,3.25,2.54,2.93s4.38-.55,4.36-3.37C712.6,305.69,712.52,304.1,710.54,303.9Zm-17.23,1.28c4.13.06,1.13,1.45.74,2.49-.49,1.31-1.59,3,.18,4s3.09-.42,4.24-1.56,1.22-2.53-.47-3.19c-2.19-.86-.85-2.66-1.16-4.24Zm90.92,1.89c-7,.93-14.05,0-21,.91A32,32,0,0,0,784.23,307.07Zm-68,8.18c-1.37-.75-2.65-1-3.6-2.06-.67-.73-.84-3.13-2.75-1.51a3.87,3.87,0,0,0-1.24,4.74c.71,1.39,2.05,2.42,3.94,1C713.59,316.68,715.11,316.73,716.25,315.25ZM312.38,302.79c3.92-.34,10.13-6.21,10.76-9.73C318.81,295.28,315.72,298.6,312.38,302.79Zm601.94-3.58-.57-1.71-19.08,4,.2,1ZM720,302.49c-.22-1-.11-2.81-1.53-1.83s-4.43.57-4.41,3.41c0,1.4.67,2.69,2.39,2.48C718.87,306.26,720,304.73,720,302.49Zm-16.23-2.73c-3.17.36-5.42,1.42-5.32,4.54.07,2.35,2.33,1.58,3.46,1.32C705.8,304.73,702.69,301.79,703.79,299.76Zm-263.13-7.54c.36,3.82-5.23,4.67-2.39,8.7C442,299.44,444.84,297.64,440.66,292.22ZM726,307.32c-.43-1.57-1.07-2.75-3-2.49-1.44.19-2.93,1.11-2.69,2.23s.83,3.24,3,3.12C725.25,310.08,725.7,308.75,726,307.32Zm118.23-6.69c6.07,1.86,12.21,2.66,18.5,1.41Zm-373.07-9.71c-1.83,1.57-4.35,2.16-4.73,4.93-.09.66.39.68.77.84,2.34.95,2.38-2.05,3.81-2.47,1,.76-.34,2.25,1.22,2.66C473.23,294.69,471.61,293,471.17,290.92Zm246.09,17.14c-1.8,0-3.75,1.34-3.51,2.61s.79,2.36,2.29,2.14,3-.38,3-2.46C719,309.16,718.82,308,717.26,308.06Zm15.91-3.86c-.19-1.39-1.26-2.77-2.12-2.6-1.39.28-2.15,2.14-3.76,2.51.56,1.12.62,2.64,2.53,2.53C731.57,306.54,732.38,305.42,733.17,304.2ZM462,292.09c-1.08-.87.88-3.39-1.66-3.34-1.72,0-3.28,1.09-3.09,3.05.16,1.73,1.8,2.16,3.29,2.19C461.66,294,462.66,293.62,462,292.09Zm-27.27-6.39c-3.54-.19-7.1-1.05-10.58.55C427.74,286.76,431.3,287.57,434.77,285.7Zm14.15,9.94c-1.26,2.06-2.92,1.29-4.25,1.68-1.74.51-1.25,4.21.42,3.94C447.54,300.87,449.57,299.83,448.92,295.64Zm276.94,30c.72-2.24-.22-4-1.73-4.27a5,5,0,0,0-4.84,1.73Zm7.29-6.08a38.14,38.14,0,0,1-4.46-.92c-1-.33-2-.93-2.47.52a2,2,0,0,0,1.17,2.56C729.66,322.91,731.16,321.67,733.15,319.58Zm1.42,2.17c3,.23,4.47-1.21,6.23-.83,1.15.25,1.49-.61,1.59-1.59a2.68,2.68,0,0,0-1.19-2.26c-1.19-1.05-1.26.37-1.82.87C738.2,319,736.91,319.92,734.57,321.75Zm-1.63-13.95c-1.59,1.22-4.83-.84-5.09,2.69-.07.95.4,2.09,1.27,2.08C731.87,312.55,732.32,310.14,732.94,307.8ZM456.6,295.52c-.28-1.19-1-2.16-2.07-2-1.5.22-3.37.54-3.48,2.57a1.64,1.64,0,0,0,2.17,1.55C454.58,297.37,456,297,456.6,295.52ZM433,313.27l.73.68c1.23-1,2.43-2,3.71-2.9a1.77,1.77,0,0,0,.3-3c-1.49-1.55-1.91.11-2.46,1.07C434.53,310.51,433.79,311.9,433,313.27Zm19-21c1.19-.09,2.64-.12,2.38-1.8-.16-1-.67-2.6-2-2.46-.85.1-2.45.35-2.43,2C450,291.36,450.41,292.32,452,292.26ZM736.6,329.82c3.86.21,4.94-2.09,6.4-4.18C739.3,324.46,738.16,326.87,736.6,329.82ZM576.52,245.21c-3.74-.82-6.83,2-10.53,1.86C569.85,248.65,573.08,246.5,576.52,245.21Z" transform="translate(-19.9 -39.43)"/><path d="M554.27,703.78c2,1.62,3.88,4,5.36.19.24-.61.9-1.26,1.73-.43a1.5,1.5,0,0,1,.35,2c-.83,1.3-2.74,2.35.92,2.71,1.16.11-1.94,3.87-1,6.5.2.57-2.1,1-3.34-.06-1.61-1.31-2.16,0-3,1.18-4.07,5.88-8.95,11.1-13.55,16.56-4.41,5.23-9.33,7.59-15.9,5-3.71-1.45-5.44.18-7.59,3.11-7.83,10.68-16.52,20.58-29.15,25.86a29,29,0,0,1-11.31,1.91c-3.71,0-7.42-.36-10.36,2.58-1,1-1.84.18-1.89-.62-.5-7.52-6-13.1-7.75-20.08a20,20,0,0,1-.77-7.65,108.5,108.5,0,0,1,11.46-37c.56-1.07,2.13-2.27.13-3.73-6.38-4.67-5.86-11.12-4.27-17.74.62-2.58,1-5.39,2.29-7.61,2.6-4.4,4-8.57.85-13.24-.57-.85-.46-2.79,0-2.62,2.63,1.09,3.91-3.5,6.76-1.33,1.32,1,1.17,2.06,1.5,3.33.89,3.49-.91,4.87-2.9,7.6A34.87,34.87,0,0,0,466,693.58a5.38,5.38,0,0,0,.69,2.09c1,1.92,2.5,5.18,4.32,4s4.85-3.18,3.71-7c-1.33-4.47,2.43-7.61,4-11.27,3.65-8.69,18.9-15,26.92-11.81a17.18,17.18,0,0,0,2.63.44c6.95,1.53,11.07-.25,14.76-6.4.6-1,.86-2.27,2.51-2.81.88,2.37,1.33,4.36,0,7-3,6.2,1,10.72,4.61,15.09,3.19,3.89,6.63,7.42,7.92,12.66,2.31,9.4.94,18.22-6.21,24.4-3.95,3.41-4.89,7.83-7.65,11.48-.92,1.21-1.27,2.25,1,2.77,10.67,2.51,9.32,3,16.3-4.19,3.57-3.7,6.54-8,9.85-11.9,2.91-3.48,4.71-7.16,2.9-11.81C553.92,705.82,554.2,705,554.27,703.78Zm-37.73,18.31a3,3,0,0,1,3.2-2.2c1.26,0,1.93-.09,1.62-2.08-1.53-9.86-12.06-10.34-17-16.62-.2-.26-1.38.18-2.08.38-2.77.8-4.92.47-6-2.68-.5-1.42-1.76-2.89-3.41-2.16-3,1.3-5.69.29-8.57,0-3.94-.35-8.47-2.2-10.82,3.26-4.21,9.75-9.93,18.89-12.16,29.43-1.67,7.87-4.72,15.77-.25,23.75,2.17,3.86,4.92,7.46,5.89,11.9.37,1.67,1.25.76,2.21.86,4.37.44,8.28-3.07,12.78-1.31.92.36,1.82-.14,1.38-1.44-.85-2.51.87-2,2.33-2.23,2.52-.44,5-1.24,7.74-2-1-1-3.17-.64-2.44-2.26,3.34-3.92,8.84-3.82,12.87-6.77-1.65-1.75-3.24.75-4.35-.82,2.47-5,8.65-3.88,12.14-7.29a3.26,3.26,0,0,0-2.24-.2c-.95.29-2.26,1.22-2.61-.13-.42-1.62,1.24-1,2.13-1.22,3-.8,6-1.43,8.15-4.05-1.34-.71-3,.34-4.44-1,2.93-1.72,6.25-2,8.74-5.12-2.14.4-3.75.32-4.89,1-1.36.84-2.41,1.78-4.2.56,2.81-2.45,6.92-2.25,9.28-5.28-2.46-.83-4.34,1.57-7,1,1.59-3.34,5.76-2.79,7.36-5.5C520.12,720.9,518.56,723.39,516.54,722.09ZM489.75,678c2,.6.69,1.87.65,2.85-.08,2.17,1.42,2.68,2.93,2.23s4.17.22,3.76-2.37c-.16-1,.15-4.12-2.9-3.18-2,.61-3.26-.22-4.58-1.77s-2.7.06-3.84.79c-.95.6-1.21,1.45-.23,2.58,1.38,1.59,2.24.76,3.24-.3A10.44,10.44,0,0,1,489.75,678Zm38.33,11.4c.93,0,2.61.38,2.36-.9-.38-1.93-1.46-3.87-3.76-4.37-1.5-.33-2,.53-2.24,1.93C524,689,526.46,688.66,528.08,689.36Zm-22.22-4.65c1-1.1,3.69,0,3.65-2.31-.05-2.92-3.11-2-4.71-2.9-1.3-.7-1.19,1.28-1.18,2.08C503.63,683,503.87,684.53,505.86,684.71ZM532.07,690c-.61,1.39-3.1,1.1-2.84,3,.2,1.41.82,3,2.87,2.69,1.11-.15,2.74.06,2.49-1.62A5.68,5.68,0,0,0,532.07,690Zm-17.3-2.35,3.1-1.68c-.89-.72-.55-3.28-2.42-2.26-1.54.84-4.34-.92-4.65,1.92C510.57,687.69,512.5,687.61,514.77,687.63Zm-29.67,2.52c1,0,2.74.18,2.35-1.41-.3-1.2-1-3.27-2.94-3-1.16.16-3.23-.73-3.28,1.77C481.18,690.24,483.41,689.7,485.1,690.15Zm22.46-4.28c-1.47,0-2.72.47-2.79,2.15-.09,2,1.43,2.45,3,2.29.88-.09,2.8.66,2.31-1.47C509.76,687.56,509.58,685.84,507.56,685.87Zm7.06,10.93c-.27-1.95-4.05-.72-3.78-3.67.07-.67-.64-.37-1-.2-1.5.75-.81,2-.66,3.11.24,1.86,1.41,2.4,3.14,2.28C513.45,698.25,514.8,698.06,514.62,696.8Zm17.27,4.73c1.62-.23,3.77,2.07,4.66-1.1.43-1.52-.27-3.44-1-3.46C533,696.87,533.13,699.78,531.89,701.53ZM521.45,709c1-.81,2.58-1.94,2.15-2.9s-.8-3-2.9-2.66c-1.21.21-1.82.74-1.7,2A3.87,3.87,0,0,0,521.45,709ZM503.61,686c-1.7-.9-1.38-3.62-3.74-4-1.8-.29-1.46,1-1.52,1.95-.15,2.27,1.45,3.13,3.26,3.5A1.83,1.83,0,0,0,503.61,686Zm10.87,7.87c1-.4,2.66-.41,2.91-2a2.07,2.07,0,0,0-2-2.4c-1.68-.19-2.43.83-2.55,2.35C512.72,692.83,512.68,694,514.48,693.82Zm6.23-2.68c-1.68,2.94.08,4.2,1.67,5.54,1.18,1,2,0,2.6-.68,1.18-1.42-.46-1.23-1-1.47C522.51,693.93,522,692.49,520.71,691.14Zm8,21.55c-.26,2-1.94,4.15.68,5.48,1.31.65,2.1-.75,2.38-1.44C532.81,714.15,530,714,528.69,712.69Zm7.68-8.64a5.42,5.42,0,0,1-5-.21c-1.32-.8-1.91.48-2.18,1.35-.53,1.7,1.32,1.6,1.91,1.57C533.1,706.65,535.12,706.24,536.37,704.05Z" transform="translate(-19.9 -39.43)"/><path d="M522.67,214.27c-.42.76-1,1.94-1.84,1.46-1.25-.67-2.46-2-2-3.53.64-2.36-.2-2.6-2.34-3.11-3.46-.82-4.6-3.66-4.59-7.21,0-6.51-5-9.62-9.35-13.15h0c1.84-1.68,3.65-1.89,5.13.37,6.05,9.22,15.67,14.64,23.47,22,2.62,2.46,4.71,4.67,3.27,8.7-.74,2.09-.51,4.8,1.36,6.2s1.86-2.74,4-2a15.15,15.15,0,0,0,.6,6.52c.29.81.45,1.86,1.67,1.55a1.65,1.65,0,0,0,1.24-2c-.36-2.51-1.12-4.76-3.65-5.93l-3.2-5.16c7.87,5.61,10.07,14.89,15.21,22.38-2.59,1.15-4.49.3-6.53.08-4.46-.47-8.71-2.29-13.65-.75-7.47,2.33-15,4.6-22.63,6.57-8.29,2.15-16.61,4.47-25,6.15-4.83,1-9.73,2.43-14.8,1.61-1.61-.26-2.55-.4-2.1,1.89.32,1.64-1.36,1.72-2.45,1.35-1.32-.45-.87-1.05.07-1.77,1.19-.92.08-.88-.58-1.1-1.39-.46-3,.3-5.45.5a9.27,9.27,0,0,1-6.49-2c-1.72-1.62-3.55-1.4-5.35-2-4.5-1.39-9-2.83-13.47-4.25,2.26-1.12,4.56,1.63,6.85.1-4.92-3.63-10.95-4.3-16.39-6.09a14.35,14.35,0,0,1-7.82-5.35c3.65.24,6.89,1.83,10.13,3.32,11.09,5.11,22.71,8.86,34.23,12.75,5.2,1.76,11.08.76,16.67.31,12.73-1,24.86-4.89,37.09-8.1,5.28-1.39,10.61-2.95,17-5.08-8.9-3.33-16.38-7.28-24.47-10.11-12.58-4.4-25.8-3.91-38.63-6.22a46.61,46.61,0,0,1-13-4.88c-2.48-1.28-3.14-7.35-.95-9,1.95-1.48,4-3.21,6.73-3.09a20.17,20.17,0,0,0,9.87-2.53c3-1.45,6.77-2.3,6.36-7s-2.26-8.38-7-9.86a141.24,141.24,0,0,1-21.46-8.81c-6.75-3.42-12.61-7.82-15.93-14.92-2.05-4.37-.92-7.08,3.83-8.25,4.34-1.07,8.77-2.39,13.18-2.48,9.23-.2,18-15.24,12.7-24.71-4.37-7.8-11.11-13.11-17.6-18.75-2.91-2.51-6.18-4.66-9.23-7-6.19-4.73-10.71-15.69-4.58-24.62a9.32,9.32,0,0,1,8.11-4c4.62,0,9.34-.22,13.85.58,7.54,1.33,12.6-1.91,16.87-7.5A90.17,90.17,0,0,0,480.1,47.8c1.3-2.92,2.39-6,4.67-8.23,1.12.39.9.92.62,1.47-4.39,8.54-7.87,17.61-13.71,25.34-5,6.61-10.59,12-20.17,9.14-3.47-1-7.37-.64-11.06-.85-6.44-.36-12.17,6.8-10.93,13.64.88,4.82,2.9,9.34,7,12.59,5.37,4.27,10.62,8.7,16.05,12.9a47.74,47.74,0,0,1,12.32,15c1.7,3,1.35,6.46,1,9.64-.82,6.86-9.62,15-16.53,15.81-3.68.45-7.36,1-11,1.74-4.53.93-5.57,3-3.6,7.4,2.61,5.84,7.31,9.66,12.83,12.58a123.53,123.53,0,0,0,24.36,9.81,10.23,10.23,0,0,1,7.43,10.26c-.3,4.34-2.59,7.4-6.7,9.36-4.52,2.15-9.47,2.4-14.11,3.95-1.9.63-3.15,1.19-3.19,3.51s.4,3.95,2.69,5c6.24,2.95,12.74,5.36,19.63,5.17,13.7-.4,26.25,3.8,38.84,8.37,8,2.92,15.86,6.86,24.79,6.62,1,0,2.07,1.09,2.05-.86,0-1.12.28-2.51-1.73-2.33-2.27.2-4.12-1-5.94-1.94.52-2,3.29,1.62,3.07-1.48-.11-1.58.29-3.82-2.59-3.69-.65,0-1.89-.51-1.91-.85-.26-4-5.09-3.73-6.48-7.19-.61-1.51-4-2.93-5.23-5.33.42-3,4.31-6.73-2.45-8.49C520.44,209.09,518.87,212.34,522.67,214.27Zm6.42,0c-.12,2.51-.11,4.78,1.79,5.59,1.23.53,1.64-1.28,1.72-2.47a5.12,5.12,0,0,0-2.44-4.61C528.79,212,529.15,214,529.09,214.29Zm-2.58,2.4c2.2-2,1.79-4.28.49-6.56-.3-.52-1.25-.79-1.4-.28-.63,2.07-1,4.22.16,6.27C525.89,216.35,526.21,216.47,526.51,216.69Z" transform="translate(-19.9 -39.43)"/><path d="M564.79,240.17l-12,1c1.83-5.91-4.16-8.81-4.82-13.69h0c1.31-1.44,1.82-3.16,4.19-.22,2.94,3.66,7.91,1.71,11.64.8,9.42-2.31,12.64-14.89,5.83-21.49-1.58-1.53-3.37-2.86-5-4.27-1.84,1.34-.84,4.49-3.56,5.26-.38-1.33.25-2.31.83-3.31,1.46-2.5,2.28-4.54-1.83-5.46-1.91-.42-2-2.63-.73-4a39.17,39.17,0,0,1,5.9-5.39c6.67-4.86,7.19-13.35.86-18.7-1.92-1.61-2.29-2.79-.92-5.1,4-6.75,8.32-13.39,10-21.16.9-4.14,1.72-8.49-3-11.56-2.28-1.49-3.43-1.39-5.12.69a28.9,28.9,0,0,0-3.91,6.26c-1.62-3.92,2.11-4.9,2.7-7.18.25-.95,2.11-1.13.86-2.88-1.38-1.92-2.24.59-3.65-.24,4.67-9.05,13.13-13.65,21.37-18.5l.27.3c-4.29,4.06-9.3,7.19-14.08,10.6-4.19,3-4.5,4.71,0,7.46,5.32,3.23,8.75,7.32,7.26,13.66A53.65,53.65,0,0,1,573,155.36c-1.47,2.82-2.82,5.77-5.11,8.22-1.81,2-1.86,4.26.5,6.64,5.86,5.9,5.4,14.32-.88,19.59-9.35,7.84-7.49,5.14,1,12.91,3.94,3.59,7.68,7.3,7.08,13.39-.38,3.87-3.19,6.18-5.28,9-.72.95-1.9,1.84-1.36,3s1.88.31,2.84.56c7.57,2,15.78,1.87,22.54,6.65l0,0c-4.48.47-8.32-2.1-12.61-2.67-7.43-1-15-3.39-20.56,1.19.46.64,1,.21,1.6.21,5.44,0,11-2.24,16.3.76-2.21-.14-4.43-.44-6.63-.38-3.77.11-7.81-.24-10.19,3.82,2.13,1.2,4.14-1.59,6.17-.25-.09.53-.07.78-.14.81-1.2.48-2.41.95-3.61,1.41Z" transform="translate(-19.9 -39.43)"/><path d="M502.51,188.73c1.39,4.2-.57,8.74.87,13.25-2.28-2.89-5.05-5.53-6.76-8.73-7.36-13.79-14.42-27.77-17.35-43.33-.63-3.34-.47-6.83-.74-10.25-1.12-14.37-8.86-26.25-14.81-38.77-1.68-3.54-6-4.49-9.37-6.79,5.8-.26,8.95,2.08,11.87,7.92a218.55,218.55,0,0,1,10.59,24.39c.24.66.22,1.5,1.69,1.52.3-28,4.14-55.34,18.72-80.06-15.29,28.27-17.44,59-17.16,91.54,4.8-8.56,7.71-17.28,15.13-22.75-5.26,5.23-7.71,12.22-11.28,18.46-5.22,9.12-2.89,18.47.89,27.37,4.5,10.6,7.94,21.72,14.56,31.36.65.95,1.22,2,2.35,3.82.32-3.59.56-6.26.8-8.94Z" transform="translate(-19.9 -39.43)"/><path d="M548,227.46c-4.58-21-3.42-42.36-4.45-63.57-.48-9.77.55-19.65,1.42-29.42.48-5.35-.89-9.87-3.3-14.45-3.74-7.1-7.2-14.34-10.75-21.54-.16-.33,0-.83.1-2.45,4.9,9.55,9.83,17.85,14,27.9,1.18-20,4.44-38.31,17.19-54.54-1,4.49-3.27,7.45-5.15,10.28-7.66,11.54-8.94,24.72-10.12,37.83-1.25,13.94-1.64,28-2.46,41.94-.15,2.54.36,4.93,1,8.68,5.61-12.63,16.65-19.23,24.21-28.93a25.43,25.43,0,0,1-9.33,12.47c-6.67,4.92-10.94,11.88-14.77,18.87-2.14,3.9-.66,9.1-.38,13.66.31,5.18.68,10.36,1,15.7,3-6.19,6.2-12.15,11.38-16.77A100.88,100.88,0,0,0,547.92,201c-2.06,4.88-.92,9.48-.62,14.27.26,4,2.73,8,.64,12.15Z" transform="translate(-19.9 -39.43)"/><path d="M506.5,97.69c-2,2.13-1.94,5-1.59,7.39s-.85,3.65-1.51,5.94c-3-5.5.81-10.17,0-15.2-1,2.33-2,4.66-3.07,7.25-1.76-2.18-1.33-4,.05-5.74A26.34,26.34,0,0,0,504,90.76c.43-1.06.14-2.48-.51-2.84-.86-.5-1.88.13-2,1.52-.06.87-.71,1.25-1.6,1-1.59-.41-.36-1.44-.34-2.09C499.63,86,502,84.94,503,83c1.48-3,.62-6.53,2.62-9.36.69-1,1.32-2.36,2.28-2.59,4.76-1.15,6.57-6,6.41-8.84-.4-7.49,4.74-13.21,5-20.25a3.38,3.38,0,0,1,1.42-2.17c.67,3.51-1.27,6.58-1.71,9.89-.79,6-1.78,12-2.65,18a4.43,4.43,0,0,1-2.24,3.58c-10.8,6.31-10.08,10.38-6.86,20.51a2.7,2.7,0,0,1,0,.89A6.2,6.2,0,0,0,506.5,97.69Z" transform="translate(-19.9 -39.43)"/><path d="M506.61,149.73c.69-5.21-4.78-7-5.82-11.32A3.38,3.38,0,0,0,499,142c.95,1.9.5,4.24,2.17,5.89,1.45,1.43,1.62-1.38,3-.43-.33,1.63,0,4.19-1.92,4.63s-2.37-2.25-3.5-3.52c-3.46-3.87-1.76-8.2-.86-11.66,1.53-5.92,3.11-12.21,8-16.7.68-.62,2-1.19,1.33-2.5-1.86-3.65,1.23-4.31,3.9-6.53l-2.24,5c3.7-1.82,4.45-3.61,3-6.74-.94-2-2.32-3.9-1.29-6.3l-.1,0c2.23,3.59,4.42,7.21,6.7,10.76.88,1.38,1.07,2.41-.76,3a14.2,14.2,0,0,0-3.13,1.62c-3.89,2.69-8.89,5.44-10.44,9.37-1.41,3.59-.93,9,1.84,13.21,1.5,2.28,4.24,4.15,3.64,7.51l-.2.26-1.76.74Z" transform="translate(-19.9 -39.43)"/><path d="M508.41,148.67c4.23,2.14,6.63,5.94,9,9.79,1.27,2.06.21,2.93-1.55,2.77-3.07-.28-6.14.48-9.26-1.14-4-2-7.67.88-7.49,5.58.19,5.08-.39,10.35,3.35,14.69a3.47,3.47,0,0,1,.07,3.82c-5.62-5.69-8.46-19.3-3.08-24.29,3.35-3.1,3.58-7.36,6.81-9.88l.35-.28-.16-.06c-.18,2.64-1.84,5.18-1.09,8.16,1.92-.85.29-3,2.28-3.4,1.51.95-.43,3.56,1.94,4.34a9.56,9.56,0,0,0-1.37-9.84Z" transform="translate(-19.9 -39.43)"/><path d="M584.37,111c1.07-2.22,3.35-3.57,5.08-4.69,6.32-4.06,6.72-11.25,9.95-16.89.93-1.64.07-3.32-1.44-4.22-2.4-1.43-5-3.22-7.81-2.84-4.68.63-6.38-1.11-5.72-5.62a5,5,0,0,0-.11-1.32c0-.11-.16-.2-.5-.6-2.49,1.68-4.3,4.12-6.49,6.21,1.81-5.75,9-7.85,10.27-14.26-2.49-.12-2.37,2.4-5.19,3.13C587.67,63.06,592.3,57,596.92,51l.18.15c-.48,2.57-2.19,4.47-3.66,6.46-4.22,5.68-5.88,12.41-7.83,19-.85,2.86.43,4.52,3.78,4.22a10.55,10.55,0,0,1,4.36.53c7.46,2.51,8.5,4.94,5.6,12.13-3,7.56-6.72,14.44-14.71,17.85Z" transform="translate(-19.9 -39.43)"/><path d="M561.66,618.06c17-25,36.2-48.63,51.32-75C598.89,570.13,580.09,594,561.66,618.06Z" transform="translate(-19.9 -39.43)"/><path d="M231.35,260.71l-.85,1c-4.84-3.51-10.23-6.55-10.73-13.53-.13-1.78.31-2.59,2-3.72,9.31-6.1,19.53-2,29.27-3a43.12,43.12,0,0,1,6.49-.46c1.28.07,2.32-.06,3,1.21a2.12,2.12,0,0,1,.29.38c-.33.28-.66.82-1,.81-9.36-.09-18.73,0-28.08-.49-3.92-.2-7.34.67-9.06,3.83-1.88,3.43.45,6.51,3,9C227.53,257.46,229.47,259.06,231.35,260.71Z" transform="translate(-19.9 -39.43)"/><path d="M565.89,551.4c1.16,3.36-.09,5-1,6.62-11.5,20.42-25.49,39.25-37.75,59.2,5.51-11.29,12.6-21.63,19.27-32.22S560.87,564.29,565.89,551.4Z" transform="translate(-19.9 -39.43)"/><path d="M260.83,242.62a2.12,2.12,0,0,0-.29-.38c.18-3.69,1.16-7.27,1.5-11,.4-4.36,8.28-8.28,13.54-6,5.9,2.59,11.51,6.29,14.87,12.32l.09-.08c-1.91-.07-3.59-.22-5.07-2a34.89,34.89,0,0,0-9.86-8c-3.74-2.06-6.7-.68-9.52,1.38-2.43,1.78-3.78,4.21-3,7.51A5.58,5.58,0,0,1,260.83,242.62Z" transform="translate(-19.9 -39.43)"/><path d="M115,393.71c0-2.87,2-4.85,3.62-6.8,4.82-6,9.78-11.91,15.06-17.51,3-3.22,4.65-7.07,6.58-11a3.81,3.81,0,0,0,2,4.27l-.11-.06c-2.6.76-3.13,3.46-4.49,5.24-7,9.13-15.38,17-22.78,25.77Z" transform="translate(-19.9 -39.43)"/><path d="M522.55,70.19c8.61-.58,8.44-.55,7.16-8.7-.82-5.23-1.1-10.55-1.54-15.85a7.15,7.15,0,0,1,2.24-6.18c0,4.25-.26,8.19.06,12.08.49,5.7,1.23,11.39,2.2,17,.35,2-.11,3.87-1.85,3.15C528.19,70.63,525.37,72.22,522.55,70.19Z" transform="translate(-19.9 -39.43)"/><path d="M538.92,165.76c-5.4-9.16-5.71-20.92-15.74-28.34C531.21,138.05,537.48,153.85,538.92,165.76Z" transform="translate(-19.9 -39.43)"/><path d="M543.65,215.39c-6.67-13.71-13.38-26.17-25.71-36.15C526.71,182.31,543.33,205.92,543.65,215.39Z" transform="translate(-19.9 -39.43)"/><path d="M547.09,611.49a236.7,236.7,0,0,1,22.39-30.87l-21.21,31.73C547.87,612.07,547.48,611.78,547.09,611.49Z" transform="translate(-19.9 -39.43)"/><path d="M483.24,175.82c-9.57-6-19.66-9.88-31.26-7.35C458.58,163.52,477.58,168,483.24,175.82Z" transform="translate(-19.9 -39.43)"/><path d="M166,337.61c7.1-4.77,13.59-10.39,20.94-14.82,2.77-1.67,5.49-3.35,8.86-4-5.59,3.74-11.22,7.41-16.75,11.24-3.13,2.17-6.15,4.51-9.09,6.93-1.32,1.09-2.51,1.46-4,.61Z" transform="translate(-19.9 -39.43)"/><path d="M500.92,252.89c9.58-2.89,19.55-3.68,29.45-4.9C520.88,251.38,510.92,252.22,500.92,252.89Z" transform="translate(-19.9 -39.43)"/><path d="M165.93,337.62c2.74,1.51.37,2.32-.55,2.94-7.92,5.46-14.56,12.29-21,19.31-.79.86-1.51,1.79-2.25,2.7l.13.08c-.84-4.32,3.17-5.78,5.18-8.26,4.86-6,11.34-10.28,17.38-15a7,7,0,0,0,1.21-1.79Z" transform="translate(-19.9 -39.43)"/><path d="M500.53,215.85c-8.12-.89-16.27-2.73-24.34.94C479.62,211.87,492.61,211.46,500.53,215.85Z" transform="translate(-19.9 -39.43)"/><path d="M644.58,260c-5.51-.46-9.77-3.84-14.5-6.13-3.94-1.91-7.56-4.49-11.83-5.72-.85-.24-.33-.94-.28-1.46C627.49,249.81,635.87,255.22,644.58,260Z" transform="translate(-19.9 -39.43)"/><path d="M497.6,260.35c-4.87,1-8.34,2.16-12.43,2.06-2-.05-5.43,1.62-8.2,2.57-1.09.37-1.67.2-1.81-1s.49-1,1.3-1.15C483,261.4,489.48,259.09,497.6,260.35Z" transform="translate(-19.9 -39.43)"/><path d="M556.93,39.81c5.17,2.22,2.3,6.58,3,10.26,3.31,1.13,3-3.31,5.77-4-1,3.56-3.71,5.71-5.83,8-1.11,1.22-2.07-.37-2.08-2.06C557.73,48,559.16,43.77,556.93,39.81Z" transform="translate(-19.9 -39.43)"/><path d="M551.94,81.88c-4.64-7.53-7.75-15.61-7.75-24.64C546.23,65.6,549.58,73.55,551.94,81.88Z" transform="translate(-19.9 -39.43)"/><path d="M554.88,110.72a70.12,70.12,0,0,1,14-13.44C567.53,101.29,559.36,109.17,554.88,110.72Z" transform="translate(-19.9 -39.43)"/><path d="M173.45,323.24c-12.8,0-25.81,1.93-38.52-2C147.63,324.11,160.56,322.18,173.45,323.24Z" transform="translate(-19.9 -39.43)"/><path d="M290.45,237.62c4,3.09,7.43,6.61,9,11.6l-.95,1c-3-3.54-5.85-7.11-8.86-10.6-1.32-1.54.32-1.55.93-2.12Z" transform="translate(-19.9 -39.43)"/><path d="M458.09,269.47l.05-1.27c4.42-3,10.13-1.78,14.71-4.37.19-.1.95.29,1,.49,0,.51-.16,1.49-.31,1.5C468.14,266.1,463.73,270.42,458.09,269.47Z" transform="translate(-19.9 -39.43)"/><path d="M616.57,245.32c-.83,1-1.43,1.18-2.9.51-2.07-1-4-4.15-6.94-1.41-.08.08-.69-.16-.71-.29-.48-4.06-4-2.53-6.23-3.51-.18-.08-.08-.8-.11-1.23l1.06-1.18Z" transform="translate(-19.9 -39.43)"/><path d="M170.39,272.58c0-3.53,3.37-3.33,5.31-4.38,3.8-2.07,8.2-2.45,12.57-3.54-.21,2.07-1.67,1.55-2.4,1.71a59.92,59.92,0,0,0-15.57,6.13Z" transform="translate(-19.9 -39.43)"/><path d="M528.36,250.94c-3.23,4.36-8.44,4.74-13,6.09-1.75.52-3.86,1.58-7.09.47,7.76-1.12,13.33-5.52,20.13-6.5Z" transform="translate(-19.9 -39.43)"/><path d="M506.89,195c-.25,3.71,5,6.32,2.19,10.85C505.65,197.55,505.65,197.55,506.89,195Z" transform="translate(-19.9 -39.43)"/><path d="M510.56,103.18l.1,0c-2.54-1-.94-5.07-4.16-5.51a6.2,6.2,0,0,1,.75-5c2.26,3.09,3.1,6.79,4.37,10.3,0,.06-.17.29-.28.3A4.16,4.16,0,0,1,510.56,103.18Z" transform="translate(-19.9 -39.43)"/><path d="M211.61,292c-6.56-1.28-13-2.86-17.65-8.29C199.21,287.89,205.63,289.49,211.61,292Z" transform="translate(-19.9 -39.43)"/><path d="M304.86,251.14c4.45-1.58,6.85-5.87,10.78-8.15l-.14-.11c-.83,2.34-2.49,4.1-3.92,6.07-1.95,2.69-4,3.28-6.83,2Z" transform="translate(-19.9 -39.43)"/><path d="M129,359.86c-6.15,2.55-12.32,5-19.19,4.72C116.18,363,122.6,361.54,129,359.86Z" transform="translate(-19.9 -39.43)"/><path d="M485.77,555.55a71.88,71.88,0,0,1-12.43,6.82l-.53-1,12.29-6.86Z" transform="translate(-19.9 -39.43)"/><path d="M190.61,264.61c4.71-2.37,9.71-2,14.74-1Z" transform="translate(-19.9 -39.43)"/><path d="M298.47,250.26l.95-1c2.18-.39,3.69,1.09,5.44,1.92l-.11-.18C303.14,254.22,301.17,254,298.47,250.26Z" transform="translate(-19.9 -39.43)"/><path d="M569,210.57c-.51,5.28-3.35,9.39-7,13.11Q565.5,217.13,569,210.57Z" transform="translate(-19.9 -39.43)"/><path d="M567.28,175.32c-.65,3.06-2.51,5.49-4.31,7.93-.44.59-1,1.73-2.06.83-.81-.71,0-1.44.47-1.82C563.88,180.41,564.78,177.28,567.28,175.32Z" transform="translate(-19.9 -39.43)"/><path d="M566.57,155.61l-6.82,10.95-.92-.53,6.77-10.9Z" transform="translate(-19.9 -39.43)"/><path d="M574.56,53.1c2.8-3.26,4.92-7.11,9-9.29l-8.26,10.08Z" transform="translate(-19.9 -39.43)"/><path d="M600.74,238.21l-1.06,1.18a3.1,3.1,0,0,1-2.55.69l-2.76-4.7,0,0A9.74,9.74,0,0,1,600.74,238.21Z" transform="translate(-19.9 -39.43)"/><path d="M653.62,266.29c-2.93.31-8.21-3.5-8.19-5.91Z" transform="translate(-19.9 -39.43)"/><path d="M596.92,51l5-11.56,1.07.51c-1.57,3.91-2.82,8-5.85,11.2Z" transform="translate(-19.9 -39.43)"/><path d="M114.85,393.6l-7.58,10.14c1.81-3.93,3.15-8.24,7.69-10Z" transform="translate(-19.9 -39.43)"/><path d="M584.67,63.71c2-3.58,4-7.15,7.81-9.11Z" transform="translate(-19.9 -39.43)"/><path d="M914.35,322.87a4.12,4.12,0,0,1,1.29-.14c.44.07.69.33.26.85-1.17,1.38-2.27,2.81-3.71,4.62,2.76,0,3.35-2.69,6.43-2.65-7.43,6.46-13.85,12.79-22.06,16.87-1-3,2.16-4.26,3.34-5.2,4-3.15,6.42-7.54,10-10.9C912,325.88,913.23,324.47,914.35,322.87Z" transform="translate(-19.9 -39.43)"/><path d="M721.42,487.62c.09,4.33-3.8,6.36-5.73,9.55.31-3.91,2.49-6.82,5.18-9.46Z" transform="translate(-19.9 -39.43)"/><path d="M923.35,324.55l-4.39-.24c2.84-2.4,4.41-5.23,8.13-3.67C926.25,322.33,924.66,323.31,923.35,324.55Z" transform="translate(-19.9 -39.43)"/><path d="M879.53,490.2c-1.84.57-1.84,2.58-3.88,2.49,5.64-9.43-1.45-17.26-3-25.78-.45-2.43-2-4.65-2.58-7.07-.69-2.69-1.53-3.72-4.21-.83,4.35-6.7-1.37-11.22-2.75-16.43s-4.16-9.95-7.39-14.46c-2.28-3.19-3.27-2.34-4.94.14a43.1,43.1,0,0,1-8.7,8.89c1.84-4,5.43-6.66,8.08-10s2.15-5.75-.34-8.43c-1.8-1.94-3.18-4.25-5.47-5.74a1.26,1.26,0,0,1-.37-1.93c.49-.61,1.15-.35,1.59,0,8.75,6.94,17.94,3.05,27.05,1.14.86-.18,1.69-.51,2.54-.76a4.39,4.39,0,0,1,2.14-.2c-8.35,3.34-16.9,5.69-26.69,4.67,7.62,9,11.1,20.31,20.35,27.52-1.79,1.31-2.71-1.6-5.07-1,4,6,5,13,8,19.37a106.11,106.11,0,0,1,6.94,21.91c1.64,7.4,3.34,14.32,9.7,19.14.46.35.82.89.12,1.84-2.09-2-4.16-4-6.49-6.16,4.68,16.63,3.94,33.3,3.51,49.95l-1.39,0c0-6.39.34-12.8-.1-19.16-.45-6.65-.29-13.37-2.09-19.93C882.32,503.19,881.06,496.8,879.53,490.2Z" transform="translate(-19.9 -39.43)"/><path d="M727.9,417.74c9.85-2.55,19.76-4.68,30-4.45a214.27,214.27,0,0,0,41.46-3.53,5.74,5.74,0,0,1,1.55.29c-19.56,5.76-39.62,4.16-59.32,6.76h7.21c-6.27.8-12.57.75-18.75,2Z" transform="translate(-19.9 -39.43)"/><path d="M878.21,348.44c1.45-4,5-4.68,6.85-8.41-9.66,5-17.22,11.79-26.6,15.45,2-3.33,6.76-3.7,8.12-7.64,5.93-.1,9.38-5.22,14.4-7.19,1.49-.58,2.77-1.69,4.27-2.25,1.07-.4,2.54-1.23,3.14.89.43,1.53.61,3.07-1.07,3.63C884.22,344,881.89,346.25,878.21,348.44Z" transform="translate(-19.9 -39.43)"/><path d="M934.05,303c1.1-3.44,4.68-3.29,7.09-4.74,5.42-3.28,10.92-6.54,17.25-7.87-.09.43-.07,1.17-.29,1.25-8.94,3.49-16.66,9.12-24.88,13.88a2.65,2.65,0,0,1-.87.12C932.92,304.77,933.49,303.89,934.05,303Z" transform="translate(-19.9 -39.43)"/><path d="M690.15,434.06c5.35-6.82,12.89-9.1,20.78-10.65C703.49,425.86,696.2,428.63,690.15,434.06Z" transform="translate(-19.9 -39.43)"/><path d="M717.89,428.33a45.18,45.18,0,0,1,17-2.78Z" transform="translate(-19.9 -39.43)"/><path d="M727.9,417.74l2.17,1.07c-1.93.44-3.86.94-5.8,1.32-1,.2-2.25.25-2.4-1.16-.13-1.24,1.1-1.12,1.89-1.35C725.15,417.22,726.56,416.48,727.9,417.74Z" transform="translate(-19.9 -39.43)"/><path d="M836,391.91c1.37-4,4.61-6.37,8-8.57Z" transform="translate(-19.9 -39.43)"/><path d="M848.68,379c1.76-2.9,2.21-7,6.77-7.09Z" transform="translate(-19.9 -39.43)"/><path d="M768.27,416.64H753.39v-.41H768.1Z" transform="translate(-19.9 -39.43)"/><path d="M886,262.33c-.72-.6-1.55-1.14-1.33-2.29,4.19.62,7.46,3.29,12.47,5.15C892.26,265.26,889.51,262.38,886,262.33Z" transform="translate(-19.9 -39.43)"/><path d="M736.06,573.65c-1.71,3.63-.19,7.26,0,10.88-2.08,4.52-4.13,9.06-6.24,13.56a81.24,81.24,0,0,1-7,12.79c2.39-5.39,4.8-10.76,7.16-16.15,2.1-4.81,5-9.3,3.89-15.12A6.18,6.18,0,0,1,736.06,573.65Z" transform="translate(-19.9 -39.43)"/><path d="M724.68,507.64a1.19,1.19,0,0,1-.22.38c-1.65,1.57-2.32,3.83-3.71,5.47-.79.93-3-.26-4.51,1.11a11.69,11.69,0,0,1-6.07,2.78c1.91-1.29,3.92-2.47,5.71-3.92,2.53-2,5.41-3.66,7.4-6.36,1.64-2.23.79.61,1.32.7Z" transform="translate(-19.9 -39.43)"/><path d="M730.26,501.5c1.12,2.59,3.57,3.79,5.67,5.34a64.22,64.22,0,0,1,6.11,4.72,48.69,48.69,0,0,1-11-7c-1-.82-1.69-1.72-.8-3Z" transform="translate(-19.9 -39.43)"/><path d="M742.67,478.81c-5.76,1-10.21-1.14-11.07-5.34C735,476.41,738.33,478.65,742.67,478.81Z" transform="translate(-19.9 -39.43)"/><path d="M744,585.45c4.22,1.16,5.68,5.88,9.52,7.53-3.92-1.56-7.35-3.74-9.43-7.62Z" transform="translate(-19.9 -39.43)"/><path d="M612.41,250.54c3.67-2.11,6.17-.45,8.67,1.61C617.58,255,615.19,252.6,612.41,250.54Z" transform="translate(-19.9 -39.43)"/><path d="M638.93,264.59l13.55,5.83C646.49,269.83,642.64,267.38,638.93,264.59Z" transform="translate(-19.9 -39.43)"/><path d="M543.36,416.92c-2-.07-3.75,1.33-5.38-2.08-1.87-3.89-6.93-4.16-11.18-4.42-1.49-.09-2,1-2.44,2.18a13,13,0,0,0-.34,9.16A34.68,34.68,0,0,1,525.5,431c.09,2.28-.28,4.46-2.4,5.22-2.36.86-4.92,2.3-7.61.38-3.63-2.59-7.37-5-11.06-7.52-10.18-6.84-21.48-10.07-33.85-7.79-4.4.81-7.84,3.74-10.77,6.77-3.65,3.76-2.09,8.56,4,14.49a48.78,48.78,0,0,0,5.4,4.66c1.65,1.19,3.09,2.28,2.5,4.61-.64,2.52-2.32,4.79-4.61,5-10.5.85-19.69,5.4-29.06,9.55-.23.1-.58-.06-.87-.1,8.28-6.11,17.72-9.27,27.79-10.67,2.32-.33,4-1.05,4.7-3.33.77-2.6-1.27-3.67-2.95-4.82-4-2.69-7-6.34-9.91-10-2.35-2.9-1-7.95,2-10.72,10.19-9.41,21.71-10.14,34.19-5.54a53.7,53.7,0,0,1,16.7,9.95c2.9,2.5,6.23,5,10.57,4.66,2.74-.22,4.26-1.36,4.32-4.48.07-3.72-1.83-6.86-2.35-10.37-.56-3.69-1.18-7.42,1.36-10.65.94-1.2.91-2,0-3.1-1.43-1.65-1.82-3.76-2.24-5.77-1.18-5.74,2.63-9.51,8.38-8.24,10.46,2.3,13.46-1.63,13.44-11.63,0-7.76,1-14.44,8.05-18.83,1.36-.84,2.76-2.91,4.51-1.12,1.94,2,6.21,2.72,4.36,7.08l.12-.11c-3.3-7.16-7.52-6.7-11.47-1.75a16.13,16.13,0,0,0-3.84,12.64c.39,3.35-.47,6.55-1.4,9.6-1.77,5.82-5.63,7.41-12.77,5.91-6-1.26-8.39,1-7,7.36,1-1.95.94-4.05,3-5.1,0,2.93-2.17,5.34-1.29,8.2,1.65.14,1.22-1.7,2.13-2.27,1,1.26-1.23,2.5-.13,3.61,2.11,2.12,1.94-.41,2.27-1.32.42-1.17-.35-2.81,1.44-3.42.12.19.36.4.38.62.18,2-1.79,4-.17,5.93.45.55,1-.17,3.41-4.71,1,2.22-1.89,4.72.73,6.54,1.67-1,1.23-3.29,2.85-4.49.67.88.19,1.76,0,2.65-.29,1.35-1.67,3.19.27,3.91,1.76.66,1.28-1.94,2.73-2.91C540.49,412.62,541.11,415,543.36,416.92Z" transform="translate(-19.9 -39.43)"/><path d="M454.77,341.16c4.82,1.34,8.87-2.08,13.45-2.17.6,0,1.31,0,1.48-.68,1.31-5.52,6.74-7.85,9.5-12.39,3.78-6.24,2.58-11.85-.31-17.57a11.91,11.91,0,0,1-1.21-5.3c4.15,5,6.35,9.77,5.88,15.34-.53,6.3-4.05,11.22-8.64,15.26-1.5,1.33-2.77,3-2.23,4.45,1.57,4.41-.15,3.17-3,2.47a7.62,7.62,0,0,0-6,.78c-3,2.06-5.91,1.33-8.82-.27Z" transform="translate(-19.9 -39.43)"/><path d="M678.68,345.26c-.8,8.16,1.29,15.09,8.25,20.1,1.65,1.18,4.62.14,5.12,3.12l.06-.06a8.84,8.84,0,0,0-7.46,2.66,47.24,47.24,0,0,0-4.64-9.7c-3.39-5.22-4.62-11-2.26-17.13Z" transform="translate(-19.9 -39.43)"/><path d="M560.07,368.66c2.57-.13,1.75,2,1.85,3.17.34,3.93,1.36,7.75,1.88,11.66,1,7.33,3.28,8.66,10.58,7.71-4.38,4-9.07,2.9-10.71-2.62-1.93-6.53-2.27-13.36-3.47-20Z" transform="translate(-19.9 -39.43)"/><path d="M678.68,345.26l-.93-1c-1-1.25-.49-2.53,0-3.74,2.11-5.14,4.24-10.28,6.44-15.38a3.26,3.26,0,0,1,2.1-1.59C683.64,330.8,680.29,337.73,678.68,345.26Z" transform="translate(-19.9 -39.43)"/><path d="M731.66,335.32c-2.11,5.05-6.82,6.66-11.14,8.78C721.1,339.23,722.71,337.94,731.66,335.32Z" transform="translate(-19.9 -39.43)"/><path d="M715.24,344.47c-2-3.52-4.71-3.93-6.92-4.87-1.39-.6-1.1-1.66-.67-1.87a8.33,8.33,0,0,1,5.42-.88c1.74.38,2.4,1.52,2.2,3.29C715.15,341.13,715.24,342.14,715.24,344.47Z" transform="translate(-19.9 -39.43)"/><path d="M693.28,329.46c1.44.28,2.76.46,4,.81,1.45.41,2.51,1.49,1.8,2.94-.84,1.71-1.37-.5-2.05-.44a6.69,6.69,0,0,0-2.84.82c-1.63,1-2.36-.54-3.49-.94s-.51-1.11-.3-1.73C690.93,329.42,692.5,330.06,693.28,329.46Z" transform="translate(-19.9 -39.43)"/><path d="M553.25,367.43c.2,6.84,1.68,13.62,1.31,20.49C554.2,381.08,551.8,374.38,553.25,367.43Z" transform="translate(-19.9 -39.43)"/><path d="M472.88,328.14c2-3.86,1.94-8.6,5.42-11.64C476,320.21,477.36,325.55,472.88,328.14Z" transform="translate(-19.9 -39.43)"/><path d="M695.68,356.21c-1.75.15-2.62-.94-3.24-2.39-.27-.62,0-1.55.36-1.33,2.25,1.31,4.44,1.84,7,.81.28-.11.3,1.17-.39,1.69A6.46,6.46,0,0,1,695.68,356.21Z" transform="translate(-19.9 -39.43)"/><path d="M471.72,315.36c-2.21,2.6-4.8,3-7.28,3.54a1.28,1.28,0,0,1-1.63-1.08c-.12-1,.76-1.06,1.48-1.18Z" transform="translate(-19.9 -39.43)"/><path d="M546.93,420.49c-4.31,1.88-2.66-2.29-3.73-3.68,2.44-1.09,1.36-3.83,3-6.49C546.5,414.33,544.57,417.68,546.93,420.49Z" transform="translate(-19.9 -39.43)"/><path d="M465.7,325.35c.33,4.93-2.52,5.64-5.71,6.06Z" transform="translate(-19.9 -39.43)"/><path d="M474,319.56c-1.48-4.44.94-6.63,3.51-8.75C476.47,313.51,475.38,316.2,474,319.56Z" transform="translate(-19.9 -39.43)"/><path d="M453.4,321.16c-2.48,1.39-4.86.42-7,1a1.2,1.2,0,0,1-1.53-1.14c0-1.06.93-.93,1.6-.9C448.67,320.2,451,319.66,453.4,321.16Z" transform="translate(-19.9 -39.43)"/><path d="M145.19,725.36c-5.36,1.89-10.07,5.13-15.28,7.4-13.78,6-28.21,8.66-43,9.39-5.24.26-10.47,1.7-16.88.61,10.21-1.09,19.32-2,28.42-3.06,12.57-1.43,24.54-5.25,36-10.34a25.83,25.83,0,0,0,7.67-4.91c1.36-1.33,3-2.07,2.94,1.06Z" transform="translate(-19.9 -39.43)"/><path d="M122.9,772.52a85.15,85.15,0,0,1-11.61,28.23C115.47,791.47,118.73,781.81,122.9,772.52Z" transform="translate(-19.9 -39.43)"/><path d="M168.85,639.88c-8.21,4.37-17.46,6.34-26,10.07C150.8,644.92,159.88,642.66,168.85,639.88Z" transform="translate(-19.9 -39.43)"/><path d="M171.42,694.35c.8-6.07.65-12.16,1.4-18.23v18.25Z" transform="translate(-19.9 -39.43)"/><path d="M292.44,343.51c-3.23,8.4-6.18,16.93-9.95,25.08-.71,1.54.07,2.5-.36,3.8-1.16,3.46-1.34,7.14-2.9,10.66-1.68,3.82,1.12,7.46,2.55,10.93,2,4.85,4.64,9.45,6.63,14.36a92.68,92.68,0,0,1-10.05-20.13,266.33,266.33,0,0,0-5,35c-.24,2.94-.81,5.85-1.32,8.77-1.9,10.86,4.93,19.11,8.62,28.25,1.74,4.3,4.7,8.1,6.82,12.32-7.48-7.19-10.34-17.23-15.24-26l-1.38.21v42.5l-1.79,0c0-19.11-.87-38.23,1.13-57.59l-2.16,3c1-6.06,3.52-11.23,4.93-17.46-2.61,1.64-1.91,4.88-4.27,5.46.08-7.34,6.34-13.15,5.58-21a2.72,2.72,0,0,0-1.7,2.13c-.28,1.14.35,3.55-1.47,2.93-2.11-.72,0-2.4.42-3.56,1.61-4.28,3.79-8.36,4.82-12.87.35-1.56.74-3.11,1.29-5.42-2.81,2.76-3.67,5.91-5.51,8.43.94-7.53,7.87-12.59,8.61-20.88-5.23,2.88-5.68,8.46-9.34,11.88l1.86-8.21c-4.22,5.5-8,10.31-14.25,11.88a41.1,41.1,0,0,0,9.48-8.79c3.73-4.59,9.76-6.6,12.84-12,1.17-2.05,2.91-3.77,3-6.26.35-6.89,5-11.88,7.72-17.73Z" transform="translate(-19.9 -39.43)"/><path d="M321.59,384.88c-15.51-4.39-30.44-19.92-31.14-32.31C294.53,369.49,308.5,376.72,321.59,384.88Z" transform="translate(-19.9 -39.43)"/><path d="M256.55,345.5c7.24-.29,14.5.83,21.72-.35A40.36,40.36,0,0,1,256.55,345.5Z" transform="translate(-19.9 -39.43)"/><path d="M307.91,431.06C301.4,430,298.28,425,295.19,420,299.28,423.87,302.91,428.29,307.91,431.06Z" transform="translate(-19.9 -39.43)"/><path d="M638,464c-6.71,1-13.11,3.39-19.73,4.72-4.14.83-8.31,2.27-12.75,1.38,7.08-1,13.44-4.93,20.75-4.74,4,.1,7.6-2.85,11.73-1.34Z" transform="translate(-19.9 -39.43)"/><path d="M535.6,427.25c.4,4.62,3.33,8.17,4.51,12.37C537.92,435.72,534.39,432.35,535.6,427.25Z" transform="translate(-19.9 -39.43)"/><path d="M531.13,480.12c-1.66,3.39-4.72,5.87-6.41,9.24C525,485.07,528.39,482.8,531.13,480.12Z" transform="translate(-19.9 -39.43)"/><path d="M829.22,552.29c2.28-4.95-.64-8.54-3.49-11.84-3.71-4.3-6.35-9.17-9.3-13.94-3.55-5.75-8.62-10.55-13-15.82-1.09-1.33-2.86-2.22-3-4.24,3.62,1.61,5.6,4.9,7.95,7.79,4.3,5.31,8.39,10.79,12.78,16,4.2,5,10.84,4.84,16.9,7.53-5.51-.2-10-2.19-15.94-3.84a87.93,87.93,0,0,1,9,10.82,104.52,104.52,0,0,1,9,13.3,34.93,34.93,0,0,0,6.93,9.63v.4c2.5,6.59,6.94,12.12,11,17.6,6.16,8.29,10.65,17.45,15.77,26.27,3.24,5.59,6.07,11.42,9.74,16.79-5.54-4-7.54-10.43-10.93-15.9-5.44-8.78-9.31-18.5-16.27-26.4-2.7-3.06-3.86-7.33-7.15-10.29-1.12,3.66-2.18,7.15-3.24,10.63-.69-3.85,1.26-7.23,1.25-11a11.17,11.17,0,0,0-1.66-6.29c-3.84-6-7.72-11.93-11.42-18C831.74,547.51,830.78,551.48,829.22,552.29Z" transform="translate(-19.9 -39.43)"/><path d="M800.55,506.55c-7.09-3.74-11.53-10.12-16.2-16.27,3.93,3.53,7.92,7,11.79,10.6a14.14,14.14,0,0,0,9.1,4c5.53.36,11,2.37,17.59.42-3.93,2.3-5.49,2.24-9.76,1.76S804.76,505.38,800.55,506.55Z" transform="translate(-19.9 -39.43)"/><path d="M847.1,568.1v-.4c5,1.21,9.88,2.59,14.33,5.22l.07-.09C856.28,572.53,851.7,570.29,847.1,568.1Z" transform="translate(-19.9 -39.43)"/><path d="M861.43,572.92l14.32,2.84c-5,.16-10,0-14.25-2.93Z" transform="translate(-19.9 -39.43)"/><path d="M101.14,585.07c-15.45-6.52-29.92-11.81-46.58-11.32C61.34,570,93.79,577.85,101.14,585.07Z" transform="translate(-19.9 -39.43)"/><path d="M344.71,444.16c3.6,2.51,1.87,5.54,1.3,8.36-.6,3-1.34,6-2.08,9.26-2.72-2.76-1.38-5.87-.69-8.52A37.15,37.15,0,0,0,344.71,444.16Z" transform="translate(-19.9 -39.43)"/><path d="M346.47,473.31c-3.16-5.44-.57-10.76,1-16.28-.79,2.29,3.49,2.08,2.06,4.05C346.72,464.89,348.28,469.55,346.47,473.31Z" transform="translate(-19.9 -39.43)"/><path d="M314.61,461.73c.34-1.87-.38-3.84.83-6.43.32,2.23-.44,5.18,2.87,3.64-.31,2.28,0,4.34,2.38,5.49C316.93,466.73,317,461.91,314.61,461.73Z" transform="translate(-19.9 -39.43)"/><path d="M353.58,530.72c-6.51-.59-10.9-3.17-15.21-6Z" transform="translate(-19.9 -39.43)"/><path d="M336.11,472.53c2-5,1.25-10.4,2.81-15.43C339.08,462.44,339.65,467.86,336.11,472.53Z" transform="translate(-19.9 -39.43)"/><path d="M805.26,529.37c1.12-3.86,2.36-7.71,1.09-12.17C809.16,519.77,808.7,524,805.26,529.37Z" transform="translate(-19.9 -39.43)"/><path d="M369,602.63l-3-1c-.93-.31-1.64-.81-1.12-1.91.39-.84,1-.73,1.83-.44a9.16,9.16,0,0,0,3,.52c1.33,0,3.57-1.49,3.63.56C373.41,602.15,370.6,601.93,369,602.63Z" transform="translate(-19.9 -39.43)"/><path d="M360,584.3a1.57,1.57,0,0,1-.43,0c-1-.17-1.15-.85-.79-1.61.88-1.9,2.36-2.27,4.38-1.9,1.81.33,2.67,1.26,2.48,2.94-.12,1-1,.83-1.61.26C362.55,582.76,361.27,583.7,360,584.3Z" transform="translate(-19.9 -39.43)"/><path d="M373.46,585.76c1.08-1.53,2-2.52,3.49-1.7s2.11,2.44,3,3.81c.1.16-.33.93-.56,1a2.3,2.3,0,0,1-1.65-.3C376.49,587.37,375.41,586.08,373.46,585.76Z" transform="translate(-19.9 -39.43)"/><path d="M274.19,642.75c-1.15.24-2,0-2.2-1.1a1.29,1.29,0,0,1,1.22-1.53c.88-.11,1.89.07,2.05-1.13s.27-2.48,1.95-2.33a1.72,1.72,0,0,1,1.5,1.44,3.79,3.79,0,0,1-1,3.29A4.28,4.28,0,0,1,274.19,642.75Z" transform="translate(-19.9 -39.43)"/><path d="M268.39,629.93c-1.46.85-2.86,1.62-4.21,2.47-.9.55-1.82,2.13-2.76.39-.54-1,.26-2.19,1.35-2.79C264.5,629.06,266.19,627.24,268.39,629.93Z" transform="translate(-19.9 -39.43)"/><path d="M282,625.32c-.84,1.76-2.06,1.32-3,1.37-1.36.07-1.85,2.24-3.42,1.37a1.68,1.68,0,0,1-.25-1.6c1-1.69,2.76-2,4.55-2A7.57,7.57,0,0,1,282,625.32Z" transform="translate(-19.9 -39.43)"/><path d="M633.62,411.49c3.64-3.78,5.63-3.68,10.21.68C640,413.1,636.94,409,633.62,411.49Z" transform="translate(-19.9 -39.43)"/><path d="M654.76,413.89c1.14,3.29-.91,7.79-3.3,8.16-.82.13-1.88.25-2.21-.88s.42-1.28,1.41-1.58C652.89,418.91,653.25,418.22,654.76,413.89Z" transform="translate(-19.9 -39.43)"/><path d="M643.24,426.19c-1.5,1.34-3,2.72-4.5,4-1.19,1-2.19.2-3.14-.52-.63-.47-1.11-1.08-.52-1.82s1.34-1.09,2.59-.44C639.79,428.51,640.65,425.64,643.24,426.19Z" transform="translate(-19.9 -39.43)"/><path d="M286.5,550c9.34-1.79,18.61-.32,27.91,0Z" transform="translate(-19.9 -39.43)"/><path d="M298.83,267.75c-.67.27-1.39.85-2,.77a86.13,86.13,0,0,1-27.63-8.58c9.75,3,19.62,5.5,29.52,7.93Z" transform="translate(-19.9 -39.43)"/><path d="M247.56,254.35c6-.74,10.38.29,19.36,4.57C260.29,258.16,254.22,254.85,247.56,254.35Z" transform="translate(-19.9 -39.43)"/><path d="M298.71,267.87c5.67,2.46,11.73,4.22,16.33,8.7-4.88-2.07-9.3-5.09-14.53-6.35-.89-.21-2.51-.7-1.69-2.46Z" transform="translate(-19.9 -39.43)"/><path d="M834.62,294.88c-6.27-1.07-12.41,1.11-18.49.85C822,290.68,828.43,294.72,834.62,294.88Z" transform="translate(-19.9 -39.43)"/><path d="M811.58,294.51c-6.77.36-13.52.14-20.14,1.74C798,293.85,804.79,293.84,811.58,294.51Z" transform="translate(-19.9 -39.43)"/><path d="M801.54,298.68l14.69-1.21C811.44,299.9,806.35,299.25,801.54,298.68Z" transform="translate(-19.9 -39.43)"/><path d="M486.42,738.66c-3.77,0-7.73-5.95-6.42-8.94.55-1.26,1.27-1.68,2.78-.94,2.91,1.43,5,4.3,8.81,4.31,1.46,0,.81,2.43-.1,3.07A31.12,31.12,0,0,1,486.42,738.66Z" transform="translate(-19.9 -39.43)"/><path d="M482.39,712.51c2.31-.16,3.86.47,5,2.09.9,1.31,1.46,3,.07,3.91-1.8,1.17-1.45-1.16-1.95-1.91a2.59,2.59,0,0,0-3-1.29c-1.28.23-3.28,2.45-3.61-.63C478.61,711.9,481.27,712.84,482.39,712.51Z" transform="translate(-19.9 -39.43)"/><path d="M502.23,730c-.12-4-1.5-6.2-5.36-5.76-.69.08-1-.47-1.05-1.14a1.17,1.17,0,0,1,1.27-1.41c2.07-.07,4.46-.57,5.89,1.18C504.68,725,503.9,727.32,502.23,730Z" transform="translate(-19.9 -39.43)"/></svg>