<?xml version="1.0" encoding="utf-8"?>
<!-- Generator: Adobe Illustrator 22.0.1, SVG Export Plug-In . SVG Version: 6.00 Build 0)  -->
<svg version="1.1" id="Layer_1" xmlns="http://www.w3.org/2000/svg" xmlns:xlink="http://www.w3.org/1999/xlink" x="0px" y="0px"
	 viewBox="0 0 1000 1000" style="enable-background:new 0 0 1000 1000;" xml:space="preserve">
<g>
	<g>
		<path d="M559.1,26.3c-0.4,1.5,0.1,3.5-2.1,4.1c-0.6,0.2-1.4,0.8-1.5,1.3c-0.7,4.5-5.1,5.8-7.3,8.9c-0.7,0.9-2,2.8-0.8,3.6
			c2.1,1.5,0.2,2.8-0.1,3.3c-5.8,8.7-7.6,19.4-13.1,28.1c-4.9,7.7-4.2,16.8-7.8,24.8c-1.3,2.8,0.6,3.7,3.4,3.6
			c15.9-0.5,31.7-0.1,47.5,1.8c19.2,2.3,37.5,8.3,56.1,12.9c13,3.2,26.2,6.4,38.4,12c21.9,9.9,44.2,19.1,64.8,31.8
			c11.5,7.2,22.7,14.9,34.2,22.1c5,3.1,7.8,8.2,12.5,11.7c17.2,13.1,33.2,27.7,48,43.6c14.5,15.7,27.9,32.2,39.7,50.2
			c10.5,15.9,20.5,32,29.3,48.8c8.1,15.5,14.8,31.7,21,48.1c9.5,25.1,16.8,50.8,21.1,77.2c2.6,16.1,4.4,32.4,5.6,48.7
			c1.4,18.9,0.6,37.6-0.4,56.4c-0.7,12.8-3,25.5-4.5,38.2c-2,16.3-5.8,32.2-9.9,47.9c-4.2,16.1-9.9,31.8-16,47.4
			c-9.6,24.6-21.7,47.9-35.9,70c-13.1,20.5-28.1,39.6-44.4,57.6c-17.7,19.5-36.9,37.3-57.6,53.3c-18.4,14.2-38,26.9-58.5,37.6
			c-23.8,12.5-48.5,23.3-74.4,31.3c-20.9,6.4-42,11.2-63.5,14.7c-14.5,2.4-29.3,3.5-44,4.3c-20.2,1.2-40.4,0.7-60.5-1.1
			c-27.6-2.5-54.7-7.8-81.4-15.5c-19.8-5.7-38.7-13.5-57.7-21.4c-18.3-7.6-35.4-17.3-52-28c-13-8.4-25.6-17.4-38.1-26.6
			c-0.3-0.2-0.6-0.3-0.9-0.5c-5.8-4.4-5.7-4.3-10.1,1.3c-0.7,1-2.3,1.8-3.5,1.8c-4.9,0.1-2.7,2.5-1.5,4.4c1.1,1.7,2.4,3.2,3.8,4.6
			c1.9,1.9,2.3,3.9,0.4,5.8c-1.7,1.7-3.3,3-6.1,1.1c-3.7-2.6-5.5-1.5-5.8,3.1c-0.4,4.4,0.7,8.3,4.3,11.4c2.6,2.2,4.2,5.2,1.9,8.5
			c-2.2,3-5.2,2-8.3,1.2c-13.2-3.5-17.4-17.9-13.4-28c0.2-0.6,0.1-1.3,0.2-2.2c-2.7,0.9-4.6,2.5-6.2,4.4c-1.8,2.1-4,1.9-6,0.7
			c-2.1-1.2-2.8-3.1-2-5.6c1.6-4.9,0.6-10.3,2.5-15.3c0.4-1-0.1-3.1-1.6-3.9c-1.3-0.8-2.3,0.5-3.2,1.1c-10.8,7.4-16,18.5-17.6,30.7
			c-0.5,3.9,2.1,9.1,0.2,13.1c-4.4,9.8-3.3,22.2-13.5,29.4c-2.7,1.9-5.1,4.5-8.5,1.8c-3.1-2.4-3-5.5-0.7-8.5c3.1-4.1,4.1-9,5.3-13.9
			c0.3-1.1,0.4-2.4-0.7-3.3c-1.1-0.8-1.9,0.2-2.7,0.6c-5.7,3.2-10.8,0.4-10.7-6.3c0-4,0.6-8.1,1-12.7c-1.3,0.9-2.2,1.7-3.3,2.1
			c-2.3,0.7-4.7,1-6.7-0.8c-1.8-1.7-1.3-3.7-0.7-5.7c1.1-3.5,4.3-7.2-0.3-10.4c-4.9-3.4-7.1,1.8-10.4,3.6c-1.3,0.7-2.2,2.1-3.3,3.1
			c-9.6,8.8-10,11.4-3.6,22.5c0.4,0.7,1.2,1.4,1.4,2.1c0.6,3.1,4.6,6.8,1.4,9.2c-3.2,2.5-8.1,2.2-12-0.2c-1-0.6-1.9-1.4-2.7-2.3
			c-1-1.2-2.1-2-3.3-0.6c-0.9,1-0.5,2.2,0.6,3.1c4.2,3.6,6.4,8.6,9.1,13.2c1.7,3,1.5,5.9-0.4,8c-1.6,1.8-4.3,3.2-7.4,1.8
			c-3.1-1.3-5.6-1.5-7.6,2.5c-2.1,4.2-8.7,5.6-13,3.5c-1.5-0.7-2.3-0.6-3.5,0.5c-3.7,3.5-5.9,1.1-7.7-2.2c-1.5-2.9-1.8-6.1-2.3-9.5
			c-1.9,0.8-3.6,1.6-5.4,2.2c-3.4,1.1-7.5-1-8.4-4.4c-2.5-9.4-4.1-18.8-2.4-28.6c0.7-3.9,3.5-6.8,4.3-11.5c-3.6,3-4.1,7.1-7,9.7
			c-4.5,4.1-9.8,4.4-14-0.3c-1.5-1.7-2.3-3.1-4-0.6c-1,1.6-2.5,2-3.9,1.3c-1.4-0.7-1.7-2.4-1.8-4c-0.1-5.3,2-9.8,4.8-14.2
			c0.5-0.8,1.6-1.3,1.3-3c-6,1-12,1.5-16.3-4c0-0.3,0-0.7,0-1c6.1-8.1,14.5-13.3,23.1-18.2c7.3-4.1,15.3-5.8,23.7-6.4
			c2-0.2,4.3-1.2,5.8-2.6c0.7-0.7-0.6-2.8,0-4.4c-0.8,0-1.2-0.1-1.5,0c-2,0.4-2.8,4.7-5.8,1.8c-2.6-2.5-3.8-5.3-2.8-9.1
			c2-7.9,7-14.1,11.5-20.5c5.9-8.4,12.5-16.4,19.3-24.2c8.5-9.8,20.4-13.7,32.3-17.6c11.1-3.6,22.4-5.7,33.9-7.4
			c-7.1-13.5-14.1-26.7-21.1-40c-7.1-13.7-12.7-28-18.4-42.3c-4.8-12-9.5-24.1-12.5-36.8c-3.7-15.3-7-30.7-8.9-46.3
			c-1.1-8.5-3.4-16.9-4.3-25.4c-0.7-7.3-1.6-14.6-1.6-22.1c0-5.3-0.7-11-1.5-16.4c-1.1-7.9-0.4-15.8-0.1-23.7
			c0.2-5.6,0.8-11.2,0.5-16.8c-0.6-9.7,1.9-19.2,2.5-28.8c0.6-9,2.7-17.8,4.9-26.4c1.6-6.2,2.8-12.6,4.7-18.8
			c2.6-8.8,2.9-18.1,6.1-26.7c5.3-14.3,9.9-28.8,15.7-43c4.7-11.6,10.5-22.6,15.7-33.9c8-17.3,18.7-33,29.8-48.5
			c26.1-36.5,55.4-70.1,91.9-96.3c42.9-30.7,88.5-56.6,140.5-69.7c22-5.5,44.1-9.8,66.4-12.7c13.2-1.7,26.6-1.9,39.9-2.6
			c1.9-0.1,2.7-0.3,3.4-2.4c3.7-9.5,9.7-18.6,11.3-28.4c1.8-11.1,9.3-18.8,13.2-28.5c2.2-5.5,5.3-11.8,12.9-13.9
			C551.6,29.7,554.5,25.8,559.1,26.3z M425.4,628.4c1.3-1.8,1.3-1.8,5.6,2.4c-1.2-3.8-2.5-6.9-6.3-7.4c-2.6-0.4-4.2-3.4-3.9-3.8
			c2-3.4-1.2-4.6-2.1-7.1C414.9,619.8,417.3,625,425.4,628.4c0.1,0.9,0.1,2,0,3c-1.9,1.1-2.7,0.8-4.2-1.3c-3.6-5.1-7-10.3-10-15.7
			c-1.5-2.8-3.4-5.6-6.9-6c-1.1-0.2-2.9,1.4-3-0.7c0-1.2,0.5-3.7,2.9-3.5c3.6,0.3,7.4-2.9,10.9,0.7c0.5,0.5,1.5,0.9,2.3,0.9
			c7.9-0.4,15.1-2.3,21.1-7.9c0.8-0.8,1.7-1.5,0.9-2.5c-2.2-2.7-2.3-6.6-5.3-9c-8.7-7.1-18.8-8.2-29.4-7.5
			c-5.2,0.3-10.3,1.2-16.1,1.8c0.8-1.2,0.9-1.6,1.1-1.7c9.6-4,19.7-4.2,29.6-2.2c9.2,1.9,18.4,4.4,22,15c0.9,2.6,2.2,0.9,3-0.6
			l-0.1-0.1c0.2,4.3-3.5,6.2-5.9,8.7c-2.8,2.9-6.5,5-9.9,7.4c2.8,3.3,6,6.5,8.5,10c4.1,5.8,9.5,11.3,11.2,17.8
			c2.6,10,10,15.6,16,22.8c-1.2-10.7,1.6-20.5,6.2-29.6c3.5-7,8-13.6,12.2-20.2c7.4-11.5,15.6-22.3,27.4-29.5
			c9.6-5.9,13.2-15.4,8.2-25.4c-1.4-2.8-1.3-5.5-0.2-8.3c0.2-0.6,0.6-1.3,1.4-1.2c0.7,0.1,1.4,0.5,1.1,1.3
			c-1.9,5.6,2.1,9.6,3.9,14.2c3.2,8.1-1.2,19.2-9,23.1c-4.2,2.1-8,4.8-10.9,8.7c-6.4,8.4-12,17.2-17.6,26.1
			c-6.3,10.1-9.9,20.7-11.2,32.2c-0.2,2-0.2,5.5,3.8,4.7c8-1.7,16.1-3.3,23.2-7.4c4.2-2.3,10.1-1.4,12.6-6.8
			c-1.9,5.6-3.8,11.2-7.5,15.9c-0.1-3.2,3-5.5,3-9.5c-3.3,2.6-7,2.8-10.4,4c-6.6,2.2-6.6,2.2-1.9,7.1c0.1,0.1-0.1,0.6-0.3,1.5
			c-5.9-4.8-12.4-4.1-19-2.4c-4.5,1.2-6.2,3.9-4.1,8.1c3.5,7,4.7,14,1.6,21.5c-0.7,1.6-0.6,3.2,0.1,4.9c1.6,3.9,2.8,7.9,2.8,12.9
			c2.6-2.7,4.6-4.5,6.1-7.2c4.5-8.2,7.4-17.1,13.2-24.6c-5.4,12-10.8,24.1-16.4,36c-0.9,2-1.8,2.6,1.2,3.1c3.8,0.5,7.4,2.1,11.2,2.5
			c16.7,1.9,33,5.5,49.6,7.8c21.9,3.1,43.7,7.9,65.5,11.9c1.3,0.2,3.2-0.2,2.8,1.8c-0.4,1.9-2.2,1-3.4,0.8
			c-12.8-2.7-25.8-4.7-38.6-7.1c-27.2-5.2-54.5-10.1-81.8-14.8c-20.7-3.6-41.4-7-62.1-10.4c-14.9-2.4-29.8-5.1-44.6-7.8
			c-5.3-1-11-4-16.5-0.4c-1.1,0.7-1.4-1.3-2.1-1c-1.5,1.3,2.3,3.9-1.1,4c-4.9,0.2-1.9-5.1-4-7c-1.7,0.3-1.9,1.7-2.3,2.7
			c-0.6,1.4-0.6,3.2-2.6,3.2c-2.1,0-2.2-2.2-2.3-3.4c-0.5-3.6-3.2-4-5.8-4.7c-8.5-2.3-17.2-3-25.9-4.6c-2.3-0.4-5.7-1.6-6.8-0.1
			c-1.5,2.1,1.3,4.5,2.6,6.5c12.4,19.3,26.6,37.3,39.7,56.1c8.9,12.8,18.4,25.3,27.4,38.1c9.4,13.5,18.1,27.6,28.3,40.6
			c1.6,2.1,2.4,2.9,4.6,0.8c2-2,4.6-3.2,7.5-3.8c9.1-1.8,17.9-4.5,25.6-10c12.4-8.8,26.1-14.4,41-17.1c10.6-1.9,20.9-3.4,30,4.9
			c3.4,3.2,7.6,3.3,11-1.1c1.2-1.5,3-2.9,4.8-3.6c12-5.1,21.7-15.5,36-15.4c-4.4-1.9-11.4,2.1-11.8-6.4c-4.7,1.3-8.1,3.6-10.3,7.7
			c-1,1.8-1.6,4.6-5,4.2c-3.1-0.3-3.6-2.7-4.2-5c-5.2,3.8-6.1,10.5-11.5,13.6c-1.1,0.6-1.7,1.5-3,0.6c-1.1-0.7-1.2-1.8-0.9-2.7
			c1.2-2.9,1-6.1,2.6-9.1c1.6-2.9,3.8-5.8,4.2-10c-2.1,1.3-3.6,2.2-5.2,3.2c-1.1,0.7-2.1,1.6-3.5,0.3c-1.4-1.3-0.6-2.2,0.1-3.4
			c2.7-4.4,5.1-9,7.9-13.4c3.6-5.6,9.7-6.9,15-3.2c4.9,3.5,9.4,4.6,15,1c5.7-3.6,12.2-3.3,18.5-0.7c5.6,2.2,11.3,4.3,17,6.4
			c5.7,2.1,11.1,5,17.3,5.1c9.7,0.2,18.1-3.9,25.7-9.3c12.1-8.6,26.2-8.3,40-8.8c2.2-0.1,4.4-0.1,6.6-0.6
			c12.6-3.3,25.2-6.7,37.9-9.8c4.1-1,6.5-2.7,6.9-7.1c0.3-3.3,0.7-6.7,1.6-9.9c5.7-19.3,11-38.7,15.7-58.3
			c7.1-29.6,14.9-59,22.5-88.5c1.8-7.1,3.7-14.2,5.5-21.3c-1.7-0.3-2.3,0.5-2.8,1.1c-6.3,8.2-14.7,14.3-21.5,22.1
			c-10.9,12.6-23.3,24.1-34.1,36.9c-10.7,12.6-21.9,24.8-32.8,37.3c-19.7,22.5-39.8,44.8-59.7,67.2c-2.8,3.2-5.2,6.6-8,9.9
			c-1,1.2-2.4,3-4.1,1.6c-1.9-1.6,0.5-2.6,1.3-3.6c3.9-4.4,8.1-8.7,12-13c16.1-17.8,32.3-35.7,48.2-53.6c2.5-2.8,5.5-5.3,7.2-9
			c-7.8-0.8-13.1-6.4-20.3-8.6c1.3,4,5.4,5.9,5.9,9.9c-2.6-2.4-4.9-5.1-6.9-7.9c-3.6-5-3.5-5.1-8.1-5.7c4.1,4.3,4.2,4.5,4.9,8.4
			c-6.1-8.1-12-15.4-22.4-17.7c3.9,4.6,7.5,8.9,11.2,13.2c-7.7-4.6-11.6-13.2-19.5-17.4c3.1,6.2,9.2,10.1,11.3,16.9
			c-6.8-7.3-12.7-15.6-21-21.5c3,3.9,6.1,7.8,9.9,12.8c-9-4.5-9.9-15.3-19.1-17.3c3.2,4.5,7.7,8,9.5,13.3c-1.3-1-2.4-1.2-4.5-0.5
			c-0.8,0.3-0.9-0.4-1.4-1c-4.4-5.6-8.9-11.2-13.5-16.7c-0.8-1-2.2-3.1-2.9-2.3c-1.9,2.1-2.9,0.7-3.5-0.7c-1.4-3.6-3.5-1.7-6.1-0.9
			c2.5,2.2,4.4,4.3,6,8.3c-6.5-6-14.6-7.2-19.7-13.2c0.7,1.9,1.4,3.7,2.6,7c-7.7-6.3-7.2-17.9-18.3-19.1c2.4,3.6,5.4,6.8,6.3,11.2
			c-1.4-2.6-4.9-1.6-6-3.7c-2-3.7-4.5-7-7-10.4c-2.7-3.5-4.7-3.8-6.9,0.1c-1.8,3.1-3,6.5-4.7,9.6c-2.2,4.3-3.8,9-7.1,12.7
			c0.9-4,2.8-7.5,4.8-11c2.6-4.7,2-9.3-0.5-13.7c-1.2-2.1-1.9-4.3-2-6.7c-1-14.6-2.3-29.2-2-44c0.1-6.7,0.1-13.5-0.7-20.3
			c-1.2-9.6-5.1-18.5-5.6-28.3c-0.2-3.9-2.8-6.7-7.5-6.7c-15.7-0.3-26.1-8-30.3-23.1c-3.1-11.1-9.9-18.8-19.6-24.6
			c-8.2-4.9-16.1-10.2-23.8-15.8c-7.6-5.4-16.8-6.5-24.3-11.9c-3.7-2.7-6.2-6.5-9.9-9.1c-8-5.5-14.7-12.5-20.6-20.3
			c-3.3-4.4-6.1-9.5-11.5-11.8c-8-3.3-15-8.1-22.5-12.4c-9.4-5.4-16.8-12.4-20.8-22.6c-4.1-10.7-8.1-21.4-12-32.1
			c-0.3-0.7-1.1-1.9,0.6-2.8c1.8,4.1,3.7,8.1,5.2,12.2c3.2,8.9,8.1,16.8,12.8,24.8c3.6,6.2,8.3,10.9,14.6,14.9
			c5.4,3.4,10.1,7.7,16.5,9.1c0.9,0.2,1.8,1.5,2.7,0.5c1-1,0.2-2.1-0.4-3.2c-1.5-2.8-4-5.8-3.9-8.6c0.1-6.2-1.7-12.2-0.6-18.7
			c1.3-8.4,0.2-17.2,1.5-25.7c0.7-4.5-0.2-9.7,3.6-13.8c1.4,1.8,0.9,3.4,1.1,4.8c0.8,6.7-1.9,13.2-0.8,19.8
			c1.1,6.9,1.7,13.8,2.1,20.7c0.7,11.5,4.4,22,10.8,31.6c4.5,6.8,11.1,11.8,16.1,18.2c4.2,5.4,9,9.9,14.8,13.7
			c1.9,1.2,4.1,1.3,5.9,2.7c7.2,5.9,15.8,9.3,24.4,12.1c10.3,3.3,19.9,7.3,28,14.7c6,5.5,13.2,10.2,16.6,17.5
			c5.7,12.1,14.9,19.5,26.5,25c3.1,1.5,3.5,0.4,3.8-2.2c0.3-2.3-0.8-4.5-0.5-6.9c2.1-16.3-0.5-31.9-7.5-46.8
			c-8.4-17.8-16.6-35.5-20.4-55c-2.3-12.3-1.7-24.5-2.4-36.8c-0.6-9.9,1.3-19.5,2.4-29.2c1-9.1,1.2-18.4,3.7-27.4
			c1.5-5.3,3-10.7,2.5-16.6c-0.7-8.9-3.8-17-7-25c-1.4-3.5-3.7-6.7-6.9-9.2c-3.7-2.9-7.4-6.3-9.9-10.2c-10-15.6-19.3-31.5-20.4-50.7
			c-0.1-1.5-0.5-3-1.1-4.4c-1.9-4,0.8-9.4-3.8-12.6c-0.3-0.2,0.4-1.5,0.4-2.4c0.1-3.2,2.8-5.8,2.5-9.5c9.5,31.5,20.3,62.4,44.5,87.2
			c-2-7.6,0.9-14.1,1.1-20.8c0.2-6.8,1.5-13.8,0.9-20.3c-1.2-11.9,3-22.9,3.5-34.4c0.3-7.7,4.8-14.8,4.3-22.8c-0.1-1.1,0.9-2-1-2.7
			c-8.3-3.1-17-1.7-25.1-0.9c-7.8,0.7-15.9,2.2-23.8,3.6c-15,2.6-30.2,4.4-45,8.2c-29.1,7.4-57.6,16.4-84.2,30.8
			c-29.3,15.9-57.9,32.6-83.6,54.1c-13.3,11.2-25.7,23.2-37.5,35.9c-14,15.2-27,31.3-38.8,48.4c-7.9,11.4-15.8,22.7-22.5,34.9
			c-3.7,6.9-6.9,14.1-11,20.6c-4.5,7.2-7.4,15.2-10.9,22.7c-4.1,8.7-7.2,18.2-10.1,27.6c-3.9,12.5-8.8,24.7-11.8,37.5
			c-3.3,14.1-5,28.5-7.8,42.6c-2.8,14.4-3.8,28.9-4.5,43.3c-1,18.6-0.8,37.4,0.7,56.2c2.2,25.6,6.6,50.8,11.9,76
			c4.8,22.7,13.3,44,22,65.2c5.7,13.8,12.1,27.3,19.2,40.4c4.2,7.7,9.9,14.5,13.6,22.4c1.7,3.5,3.1,4.2,6.7,3.7
			c5-0.6,10.1-0.7,15.2,0.2c10.6,1.8,20.8,4.8,31,8.4c15.8,5.6,32.5,7.5,49.4,6.3c5.5-0.4,11.5,1.2,16.6-0.3
			c14.8-4.3,18.6-12.3,19.7-27.4c0.3-3.9,1.8-5.3,5-3.2c2.4,1.6,4.7,3.3,5.9,6.5c1.3,3.4,2.7,6.8,4.3,10.1c0.8,1.7,2.9,4.2,3.7,3.6
			c3.1-2.4,6.5-1,9.7-1.6c14.4-3,26.4-10.2,37.2-20.1c-15.2-21-30.7-42.2-46-63.5c-3.2-4.5-6.4-9.2-8.2-14.4
			c-0.7-1.9-1.6-4.2,2.8-5.2c8.2-1.9,16.6-2.7,24.8-4.7c1-0.2,3.1,0.3,2.7-1.4c-0.9-3.8,2.7-3.6,4.1-5.3c2.1-2.5,4.3-1.9,6.6,0
			c1.2,0.9,1.5-0.7,2.2-1.3c4.4-4.5,9.7-7.9,14.3-12.3c4.4-4.2,5.9-6.9,4-12.6c-0.5-1.4-1.9-2.8-1.1-4.7c2,1.4,2.8,3.6,3.4,5.6
			c0.5,1.8,1.6,1.7,2.6,1.2c1-0.4,2.3-1.4,1-2.6c-1.1-1.1-0.9-2.5-1.6-3.6c-2-3.4-1.5,0.9-2.5,0.9c-1.4-2.2-2.8-4.4-4.2-6.7
			c1.1-1.1,1.7,1,2.8,0c-0.5-2.1-1.1-4.2-1.6-6.3c-0.8,6.1-5.1,0.7-6.9,2.5c1.6,1.7,3.1,3.4,4.7,5.2c0.8,0.9,1,2.3-0.4,2.2
			c-3.4-0.3-4.8-4.4-8.4-4.6c2.6-4.4-2.6-4-4.1-6.7c3.6-1.2,7,1.3,10,0.4c0.8-6.5-6.1-4-9.1-8c4.9,1.5,9.1,0.3,12.3,4.5
			c1.4,1.8,5,3.8,7.9,0.3c1.3-1.5,3.1-0.8,3.5,1c0.5,2.2,1.8,3.9,2.8,5.9c0.7,1.4,1.4,3.2-0.8,4.2c-2-1-1.2-4-4-4.7
			c0.4,3.8-0.5,7.5,1.6,11.1c1.5-1.6,0.9-4,3.6-4.8c-2,8-2.7,15.9-2.2,24c0.6-6.9,7.5-11.7,5.9-19.3c0.9,2.5,3.6,4.8,1.5,7.4
			c-2.3,2.9,0.4,6.1-0.3,8.7c-2.4,0.7-0.7-2.7-3.3-1.9c1.4,4.9-2.4,7.8-4.3,11.5l-0.2,0.2c-2.6,0.7-4.5,2.5-6.8,3.8
			c-4,2.4-6.7,7.5-12.4,6.9c-0.7-0.1-1.3,0.4-1.2,1.3c0,1.5,1.3,1.6,2.2,1.4c3-0.7,5.9-1.7,8.9-2.6c0.7,4.3-2.5,4.3-5.5,4.8
			c3.7,1.9,6.1,1.1,9.3-0.8c6.1-3.5,14-3.3,18.6-10.5c2.8-4.3,6.1-10.8,4.5-16.2c-0.8-2.8-1.4-5.7-2.3-9.4c1.5,1.4,1.9,2.3,2,3.4
			c0.4,5.1,5.9,8.9,3.5,14.6c5.3,4.6,1.2,10.2,1.5,15.3c0.1,1.7-1.3,4.3-4.6,2.4c-1.3-0.7-3.5,0.1-6.3,0.3c3.8,2.7,5.2,5.4,4.6,9.3
			c-2.9-1.8-1.7-6.5-6.2-7.4c1.9,2.6-0.6,4.8,0.4,7.1c0.6,1.3,0.7,2.5-1,2.6c-1.4,0.1-1.7-1.1-1.9-2.4c-0.3-2.1,0.6-4.9-2.9-5.9
			c-0.9,2.6-0.2,5-0.1,7.5c0.1,1.1-0.7,3.1,0.8,2.9c4.1-0.7,8.3,4.8,12.3-0.3c0.4-0.5,1.5-0.5,1.7,0.3c1.1,5.2,5.9,2.8,8.8,4.2
			c2.2,1.1,3.4-0.4,2.2-3c-1.2-2.4-3.1-4.7-1.7-8.7c2,3.8,3.8,6.8,5.3,10c1.5,3.4,2.8,3.7,4.4-1.1c0.2,7.4,5.2,5.5,8.6,5.9
			c4.4,0.6,5.4-1.2,3.8-5.4c-1.1-2.9-3.4-5.5-2.9-9c1.7,4.8,6.4,8,7,13.4c0.2,1.9,1.8,2.9,4,3.1c3.3,0.3,6.6,1.2,9.9,1.7
			c6.6,1.1,13.3,2.2,19.9,3.2c0.8,0.1,2.3,0.5,2.3-1.1c0-0.7-0.8-1.4-1.4-2c-1.6-1.5-1.3,0.5-1.8,1c-0.9,0.8-2.3,1.9-2.3-0.1
			c-0.1-3.7-3.7-0.6-4.4-2.6c-4.1,3.5-4.7-1.3-5.4-2.8c-1.6-3.6-2.2-7.6-3.3-11.7c3.2,1.4,2.7,5.2,6,7.8
			c-6.1-16.6-8.7-33.2-19.6-46.3c-1.4,1.5,1.4,2.9-0.5,5.1c-3.7-8.5-5.6-17.5-12.1-24c2.5,2.2,4.6,4.9,7.4,6.6
			c5,2.9,7.9,7.6,11.1,12.1c2.2,3.2,3.1,7.6,7.8,8.5c-1-7.2-7.9-11.8-7.3-20.2c-1.9,2,0.7,3.4-1.1,4.3
			C437.2,637.9,430.8,633.8,425.4,628.4z M355,676.3c6.3-2.7,9.1-5.4,9.3-9.5c-2.2,2.2-3.4,5.1-6.9,5.2c0.7-1.2,1.1-2.6,2-3.3
			c3.2-2.4,4.8-8.4,10.9-4.8c0.9,0.5,2.1-1.7,1.9-2.4c-1.2-3.3,1.2-5.4,2.4-7.8c0.5-0.9,1.2-1.7,0.6-2.4c-1-1-2,0.1-2.5,0.9
			c-1.6,2.5-2.7,5.3-5.2,7.9c0.5-4.5-1.3-2.5-2.5-1.2c-4,4.5-8.3,8.7-13.4,11.9c-0.7,0.5-0.9,1.6-2.3,1.5c-7-0.5-7-0.5-6.2,6.4
			c1.1,0.1,1.3-0.8,1.8-1.4C347.9,674.3,352.8,673.9,355,676.3c-3.3,0.9-6,3.6-9.6,4c-0.4,0-1.1,0.5-1.2,0.8
			c-0.5,1.4-0.7,3.4-2.7,3.1c-1.9-0.3-1.8-2.1-1.8-3.7c0-1.4-0.6-2.4-2.1-2c-5,1.5-10.4,1.1-15.7,3.6c7.7,1.5,15,2.9,22.3,4.2
			c2.5,0.5,5.5,1.1,6.1-2.5C350.9,680.6,353.3,678.7,355,676.3z M677,284.6c2.4-0.5,5,1.1,7.2-0.8c0.3,0.6,0.6,1.6,0.9,1.6
			c5.5,0.5,11.2,1.3,15.6-3.3c2.1-2.2,4.5-3.7,7.6-3.9c-3.7,2.2-7.2,4.6-10.1,8.3c7.8,1.8,9.7-8.1,16.9-7.2c-3.3,3-7.5,4.5-9.9,7.9
			c5.6,3.7,9-1.5,13.6-2.9c-1.3,1.3-2.6,2.7-3.9,4.1c1.8,0.8,3.6,0.9,4.4-0.5c1.6-2.9,4.5-3.8,7.1-5.3c1.7-1,2.7-2.1,2.4-4.4
			c-0.4-2.9-2.4-1.8-3.8-1.8c-3.1-0.1-5.9-0.8-7.1-3.8c-2.1-5.5-6-4-9.9-3.1c0-1.7-0.3-3.4-2.1-4.2c-2.4-1.1-12.7,1.5-14.8,3.3
			c-3.3,2.7-4.2,7.4-7.8,9.5C680.3,279.7,678.5,281.9,677,284.6c0.1-0.8,0.6-2.1,0.3-2.3c-4.8-3.7-0.1-5.7,1.5-8
			c1.8-2.6,4.2-5.8,7.4-5.4c3.9,0.4,4.3-1.5,4.5-4.1c0.3-2.9-0.7-4.7-4-4.9c-3.1-0.2-5.6,0.3-7.5,2.8c-5.6,7-9.8,15.2-18.3,21.1
			c3.8,0,6.4-0.4,8.7,0.1C672,284.3,674.7,282.6,677,284.6z M557.8,346.1c-0.7-5.3-5.1-7.8-8.3-11.2c-0.7-0.8-2.4-1.3-1.2-2.7
			c1.1-1.2,2.1-0.2,3,0.6c0.7,0.6,0.6,2.1,2.2,1.5c1.1-2.1-2.6-2.6-1.5-4.7c3.3,0.2,3.2,3.9,5.5,5.3c4.4,2.7,6.6,7.6,10.6,10.7
			c1.2,0.9,1.4,2.2,0.6,3.1c-0.9,0.9-2.1-0.1-3.2-0.4c-1.3-0.4-1.3-3.1-3.8-1.8c2,5.4,5.3,10,7.9,15c1.8,3.3,3.8,5.7,7.8,6.1
			c1.6,0.2,3.4,3.1,4.6,0.6c1.2-2.4,4.5-4.8,1.4-8.4c-5.7-6.7-8.1-15.9-16.9-20.5c-4.2-2.2-7-7.2-10.4-10.9
			c-2.5-2.7-3.7-1.7-4.1,1.4c-4.4-1.3-6.4,2-9.6,4.7c2.6,0.2,3.8,1.7,5.4,2.7c3.7,2.5,5.3,7.4,9.9,8.8c-3.8,0.1-7.2-1-10.6-3.1
			c0.4,3.5,3.6,5,4.3,8c0.2,0.9,2.2,1.7,0.2,2.8c-1.2,0.7-2,1.2-3.6,0.4c-2.4-1.3-4.3-3.1-6.4-4.8c1.7,5.1,5.3,9.7,9.5,11.4
			c5.6,2.3,11.4,4,16.7,7.2c1.7,1,3.5-0.2,2.5-2C566.8,359,563.2,352,557.8,346.1z M694.7,295.8c-1.2,0.8-2.2,0.3-2.9-0.8
			c-1-1.4-2-1.4-3.2-0.2c-2.1-4.7-5.9-3.1-9.9-2.8c3,5.7,8.9,8.7,10.9,13.9c3.6,9.7,11.3,15.5,18.9,21.1c3.9,2.9,7.1,9.8,14.8,5.1
			c3.4-2,2.3-4.8,4-6.8c3.3,0.4,5.7-2.3,8.5-2.3c-0.6-6.4-5.3-8.7-9.9-11.5c-4.5-2.7-8-7-13.1-8.9c-0.7,1.9,2.1,2.2,0.2,4.5
			c-3.6-5.7-10.3-7.6-14.5-12.7C697.6,293.3,695,292.4,694.7,295.8z M586.1,342.9c0.1-0.3,0.5-0.7,0.4-0.9c-4-8.2-10.3-14.8-16-21.8
			c-1-1.3-2.2-1.3-3.5-0.1c-1.6,1.5-0.2,2.3,0.6,3.4c3.9,5.1,8.3,9.7,13.2,13.9c1.4,1.2,3,2.3,2.8,4.5c-9.1-2.8-11.2-12.8-18.3-17.7
			c0.2,5.2,5.9,7.3,6.9,12c1,4.2,2.7,7.7,6.6,9.9c0.4,0.2,1.8,1.5,0.5,1.6c-3.4,0.2-1.7,1.1-0.7,2.4c2,2.5,4.3,4.9,5.6,7.7
			c2,4.4,5.2,5.7,9.6,6.5c2.8,0.5,3.6-1.6,4.8-2.6c1.8-1.5-0.7-2.4-1.4-3.5c-1-1.5-2.1-3.1-3.2-4.5C591.4,350,590,345.5,586.1,342.9
			z M595.7,317.3c0.8-3.8-1.1-6.2-5-9c1.1,4.2,1.9,7.2,5.1,8.9c0.2,3.5,4.4,4.9,4.6,8.5c-0.9-0.3-1.7-0.6-3-1.1
			c2.5,3.9,4.5,7,7.1,11c-1.7-1-2.6-1.8-3-1.6c-1.1,0.5-0.3,1.3,0.1,2c3.9,6.3,8,12.5,13.2,17.8c3.6,3.6,7.5,7.1,13,8.1
			c1.8,0.3,2.8,0,3.9-1.3c1.3-1.4,0.4-2.2-0.4-3.5c-5.6-8.3-11.7-16.3-15.8-25.4c-1.8-4-7.2-2.4-7.8-6.8c-0.2,0.1-0.6,0.2-0.6,0.4
			c-0.8,3.9-1.9,0.5-2.5,0C601.4,322.8,600.1,318.5,595.7,317.3z M656.9,257.4c-6.8,8.9-8.5,20.9-18,28.6c3.8,1.5,5.6-5.2,8.6-0.4
			c2.4-2.2,5.3-0.8,7.9-0.9c2.9,0,5.1-0.8,4.7-4.3c-0.1-1.1,0.5-2,1.3-2.6c5.9-5,10.1-11.5,14.7-17.7c1.6-2.1-0.3-4.7,0.8-7
			c0.1-0.2-2.9-1.5-4.1-0.8c-5,3-10.9,2.9-16.1,5.3c-0.4-2,0.5-5.8-2.7-5c-5.4,1.3-11.5,2.9-15.5,6.4c-5.8,5.1-10,12.1-13.5,19.1
			c-2.4,4.8-5.1,9.1-9.5,12.3c3.5-6.3,6.4-12.9,10.5-18.8c3.6-5,7.8-9.4,6.7-16.5c-3,1.1-6.5,1.6-8.8,3.5c-3.2,2.6-5.3-0.4-7.8-0.4
			c-0.6,0-1.2,0.5-1.9,0.7c-3.3,0.9-5.7,3-7.8,6.1c-0.7-8.2-0.7-8.2-7.5-8.4c2.7-2.1,6.2-6.1,8.7-1.6c3.1,5.6,5.1,2.4,7.7,0.4
			c1.8-1.4,3.3-4,6-2.5c4.1,2.3,7.4,1,11.1-1.2c1.9-1.1,5.1-1.5,4.4,2.7c-0.5,2.7,1.1,1.9,2.3,1.4c4.5-1.8,8.9-3.9,13.5-5.6
			c2.6-0.9,6.6-2.5,7.8,0.5c1.5,3.8,3.3,2.6,5.6,1.8c2.4-0.8,4.8-1.7,7.1-2.6c4.9-1.9,7.4-0.2,7.1,5c-0.1,2.1,0.8,2.7,2.7,2.6
			c3.2-0.1,6.4-0.2,9.6-0.2c2.6,0,5.2,0.3,2.6,3.9c-0.6,0.9-1.1,1.9-0.2,2.7c1,0.9,1.7-0.4,2.6-0.7c3.6-1.3,7.5-2,10.6,0.2
			c2.6,1.9,4.8,2.5,7.8,2.4c2.2-0.1,5.4-0.2,4.6,4c-0.5,2.6,1.3,3.6,3.7,3.7c1.9,0.1,3.7,0,5.6-0.1c1.7,0,3.2,0.3,2.7,2.5
			c-1.3,5.7,2.9,6.7,6.7,7.1c2.1,0.2,4.1,1.1,4.8,2.1c3.7,5.6,9,5.8,14.8,5.8c2.9,0,5.5-0.8,8.2-1c2.1-0.2,5-1.1,5.6,1.8
			c0.6,2.8-2.5,3.3-4.4,4c-4.4,1.6-8.8,3.2-12.7,5.7c-1,0.7-2.7,1.7-1.8,2.5c5.4,4.5-0.4,3.3-2,4.6c-2.2,1.8-5.3,1.7-7.1,3.7
			c-1.7,1.9-2.5,1.5-4.2-0.1c-6-5.3-12.1-10.4-19.9-13.4c-0.1,3.1,3.6,2.7,4.2,5.7c-4.4-2-7.3-5.4-11.7-6.3
			c6.1,6.4,12.2,13.7,20.7,15.4c5.1,1.1,6.2,0.4,3,4.9c-0.2,0.3,1.1,1.5,1.6,2.3c2.1,3.2,1.3,5-2.4,5.4c-3.9,0.5-7.4,1.3-6.9,6.6
			c0.3,2.5-1.5,1.7-3,1.8c-4.2,0.3-8.4,1-9.2,6.4c-0.5,2.9-2.5,2.2-4.6,2.3c-4,0.1-9.2-1.3-11.6,2.5c-2.2,3.6-4.3,4.4-8.1,3.9
			c-2.5-0.4-5.1-0.1-7.6,0c-1.5,0.1-3.3-0.3-3.6,1.9c-0.6,3.5-2.6,3.1-5.3,2.4c-3.3-0.9-7.6-1.8-9.1,1.9c-2.6,6.3-7,4.4-11.2,3.3
			c-3.2-0.9-5.6-1-8.1,1.5c-1.9,1.9-4.6,2.9-7.3,1.7c-1.9-0.8-3.2-1-4.8,0.4c-4.6,4-9.3,2.3-14.1,0.3c-2-0.8-3.5,0.4-4.8,1.9
			c-1.9,2.1-3.7,2-6.6,1.1c-3.9-1.2-8.8-4.9-12.5,1.2c-1,1.6-2.8,0.7-4.5-0.2c-2.9-1.5-5.7-1.8-7.4,2.2c-1.6,4-4.5,4.5-8,2.1
			c-1.6-1.1-3.5-2.1-5.2-1.2c-5.1,2.8-8.9,1.5-12.1-3c-1-1.4-2.7-2.4-4.5-1.7c-3.4,1.4-5.6-0.4-7.7-2.4c-2.4-2.5-4.5-5.3-6.7-8
			c-3-3.6-6.8-6.3-11.2-6.9c-3-0.5-4,4-6.4,5.7c-5.7,3.9-6.2,8.7-3.8,15.1c4.5,12.1,8,24.5,13,36.4c3.3,7.8,6.3,16,6.3,24.7
			c-0.1,12.7,2.3,25.2,3.4,37.8c0.4,4.7,0.2,9.5,1.1,14.1c2.4,12.5,2.3,25.2,2.5,37.8c0.2,14.5,0,28.9,3.9,43.1
			c1.8,6.8,3.1,13.9,2.9,20.9c-0.1,3.3,0.5,5,2.9,5.6c4.8,1.3,8.7,4.2,12.9,6.4c8.9,4.7,18,8.8,26.9,13.3c3.8,1.9,6.8,2.7,11.4,0.9
			c18.5-7.2,37.3-13.6,56.1-20.2c8.2-2.9,16.7-5.2,24.7-8.6c8.2-3.4,16.1-7.2,25-8.1c-0.7,1.9-2.7,1.9-4.2,2.4
			c-28.9,10.1-57.4,21.2-86.5,30.9c-5.4,1.8-11.1,3.7-16.1,7c9.6,4.5,18.9,8.8,28.4,13.3c0.1-2.4-3.5-2.5-2-4.9
			c1.7,0.7,2.8,2.7,4.2,2.5c2.4-2.5-2.6-1-0.6-2.9c3-2.9,3.2-2.8,7.1,0c1.9,1.4,3.7,2.8,5.7,4.1c0.5,0.4,1.1,0.5,1.7,0.8
			c-0.2-5.6,3.5,1.1,4.2-1.4c-0.7-2-3.6-3.2-2.1-6.6c4.1,7.1,10.9,10.8,16.3,16.1c-2.8-6.7-9.6-10.7-12-17.7
			c1.7,1.3,2.8,3.5,4.5,4.4c8.3,4.3,15.3,10,20.9,17.6c0.5,0.7,1.2,1.4,2.1,0.9c0.8-0.5,0.7-1.6,0.3-2.3c-0.5-0.9-1.2-1.6-2-2.3
			c-4.7-4.2-5.2-11-10.1-15c3.2,1.1,4.4,4.9,8.1,5.5c-0.4-2-3.1-2.5-2.5-4.8c3,1.8,5,4.6,9,6.1c-2.1-5.2-6.8-7.2-8.7-11.7
			c4.2,2.8,8.3,5.7,12.5,8.5c-2.9-2.6,1-6.1-1.6-8.5c2.4,1.3,3.5,3.8,6,4.6c2-1.2-1.3-2.8,0.8-4.2c1.4,2.7,3.6,4.7,6.3,6.1
			c0.7,0.4,1.4,1.2,2.2,0.1c0.8-1-0.3-1.4-0.7-2.1c-1.6-2.6-3.2-5.1-4.9-7.9c3.9,1,5.4,5.2,10.1,5.7c-2-2.9-3.5-5.2-5.1-7.5
			c3.4-0.1,4.6,3.8,7.6,3.1c0-3.4-3.7-4.4-4.1-7.6c1.2,1.4,2.7,2.4,4.4,2.6c1.5,0.2,1.4,3.3,3.5,1.8c2.3-1.6-1.9-2.5-0.5-4.2
			c2.1,0.5,3.7,1.2,5.6-1.7c2.4-3.6,5-7.3,8.9-9.9c5.7-3.7,10.8-8.4,15.7-12.8c8.5-7.6,16.8-16.1,23.6-26.2
			c-12.6,2.8-23.9,8.1-35.7,11.9c-6.9,2.2-13.5,5.2-20.6,6.5c0.4-3.2,3.4-2.9,5.3-3.7c13.6-5.3,27.2-10.4,40.8-15.5
			c5.9-2.2,11.8-4.2,17.7-6.3c1.6-0.6,2.1,0.2,2.4,1.5c0.3,1.6-0.2,3-0.6,4.4c-5,17.7-9.1,35.6-14.1,53.3
			c-3.3,11.9-6.1,23.9-9.4,35.8c-0.7,2.6,0.5,3.3,2.5,2.6c4.3-1.3,8.9-2,12.8-4.6c8.5-5.7,17.9-9.1,27.4-12.5c2.8-1,6.4-1.5,7.4-5.2
			c1.1-3.8,3.9-3.7,6.3-2.1c4.5,3,7.1-0.8,9.5-2.8c1.7-1.4,1.8-5,2.2-7.7c0.2-1-1.3-0.7-2.1-0.7c-4.8,0-9.7-0.5-14.3,2
			c-2.8,1.6-6,2.2-9.2,2.1c-3.1,0-4.3-2.6-2.7-5.2c2.9-4.5,6.8-8.2,10.4-12.2c1.7-1.9,3.6-2.5,5.8-0.7c2.2,1.7,3.9,0.9,5.7-1
			c5.8-5.9,6.7-6,13.7-1.9c2.2,1.3,4.2,2.8,6.3,4.2c6.9,4.6,13.1,9.7,22.1,11.2c13.9,2.3,27.3,2.5,40.8-1.3
			c12.2-3.4,21-10.2,25.5-22.3c2.7-7.2-1.8-20.7-8.4-23.9c-8.5-4.1-21.4-0.2-25.9,7.9c-2,3.7-4.8,6.2-9.1,6.5
			c-3.1,0.2-4.6-0.9-2.9-4.3c1.2-2.4,2.3-4.9,3-7.4c0.4-1.3,1-3.3-0.6-4.1c-1.3-0.7-2.6,0.6-3.5,1.5c-2.1,1.8-3.9,3.7-5.9,5.6
			c-2,2-4.2,3.3-6.9,1.3c-2.4-1.8-2.4-4.1-1.7-6.9c0.9-3.2,3.2-5.5,4.6-8.4c0.9-1.8,2.8-4.3,0.6-5.5c-2.2-1.3-3.1,1.8-4.4,3.3
			c-0.3,0.4-0.4,0.9-0.6,1.4c-2.7,5.1-5.8,9.8-9.9,13.9c-2,2-4.1,2.3-6.4,1.3c-2.5-1-3.1-2.7-2.1-5.3c0.6-1.5,0-3.4,0.2-5.1
			c0.8-5.7,1.8-10.9,7.7-14.4c3.8-2.2,7.6-4.3,11.6-6.1c2.4-1.1,1-2.3,1.1-3.5c0.1-1.4-0.6-2.3-2.1-2.3c-2,0.1-2.2,0.9-1.3,2.7
			c0.5,1-0.4,1.4-1.4,1.2c-3.4-1-7.5-1-9.9-3.1c-4.1-3.6-5.9-1.2-8,1.6c-1.6,2-2.3,4.5-3,6.9c-1.3,4.2-3,8.2-5.7,11.7
			c-1,1.2-2,2.6-3.7,1.7c-3.2-1.8-4,0.1-4.9,2.5c-2,5.2-4.9,9.9-8.2,14.3c-1.1,1.5-2.5,3-4.7,2.4c-2-0.5-2.9-1.9-3.6-3.8
			c-0.5-1.5-0.5-3-0.7-4.5c-0.6-4.5,2.7-7.9,3.1-12.1c0.1-1.1,1.8-2.5-0.8-3c-5.2-1.1-3.8-4.9-2.7-8c1.2-3.1,3.1-6,4.8-8.9
			c0.9-1.7,1.5-2.6-1.1-3.7c-2.5-1.1-3.6-3.2-2.6-6.6c1.5-4.9,5.1-7.1,9.1-9.2c1.5-0.8,4.4-1.6,2-3.5c-2.7-2.2-3.6-3.8-1.4-6.6
			c1.6-2.1,2.4-5.9,4.9-5.9c4.8,0.1,9.2-2.3,14-1.5c2,0.4,3.4,0.5,2.5-2.8c-0.9-3.6,1.9-9.1,4.6-8.2c3.9,1.4,8.2,2.2,11.4,4.9
			c5.6,4.7,9.7,4.3,14.6-1.5c2.2-2.6,4.5-5.7,8.9-3.9c2,0.9,2.6-0.9,3.2-2.3c2-4.8,2-9.4-1.3-13.8c-2.9-3.8-6.7-3.3-10.5-2.1
			c-3.9,1.2-6.7,0-8.3-3.7c-1.2-2.9-1.9-6.1,1.1-8.3c3.2-2.3,6.8-1.3,9.3,1c5.2,4.8,11.6,6.1,18.2,7.2c3.8,0.6,7.6,1.6,9.1,5.9
			c0.5,1.3,0,3.4,2.4,3c2.2-0.4,4.4-1.1,5.1-3.6c0.4-1.6,1-3.5,0.6-4.9c-0.7-2.3-0.5-4.2,1.7-5.2c2.2-1,4.5-1.1,6.7,0.5
			c5.2,3.8,9.4,8.4,10.8,14.7c1.9,8.4,7.6,13.8,14.1,19.1c0.6-8.1-1.2-15.5-2.4-22.9c-3.9-25-10.2-49.5-18.6-73.4
			c-10.1-28.6-23.3-55.7-39-81.7c-14.1-23.3-29.9-45.4-48.3-65.5c-18.3-20-38.1-38.6-59.9-54.9c-12.5-9.3-25.2-18.4-38.6-26.2
			c-13.3-7.8-27-15-41.1-21.5c-8.2-3.7-16.3-8-24.8-11c-15-5.3-30-10.3-45.5-14c-7-1.6-13.8-4.7-20.8-5.4c-11.7-1.1-23-4.4-34.9-5.3
			c-14-1.1-27.9-2.2-41.9-1.9c-2.9,0.1-4.4,1.2-4.8,4.5c-1.2,10.1-1.7,20.3-3.7,30.3c-0.7,3.5-1.9,7.6,0.9,10.7
			c4,4.6,3.9,10.2,3,15.1c-1.7,9.1-8.3,16.3-7,27c1.7,13.7,0.3,27.8-1.3,41.7c-1.2,11.3-2,22.7-2.9,34.1
			c-0.8,11.1-0.4,22.3-0.7,33.5c-0.2,7,0.7,14.2,1,21.3c0.3,6.8,1,13.6,3.1,20c1.2,0.2,1.4-0.4,1.7-1c5.3-7.8,7.3-16.8,10-25.6
			c3.3-10.4,8.6-19.6,15.1-28.3c1-1.4,2.5-3.7,4.6-0.7c0.9,1.3,1.8,0,2.4-0.5c5.7-4.1,9.6-10,15.8-13.8c5.7-3.5,9.9-9.3,14.8-14
			c0.9-0.8,2-2.4,3.4-0.9c1.8,1.9,2.3-0.1,3.5-0.7c4.1-2,6.7-9.6,13.2-3.8c2.3,1.7-0.3,2.9-0.8,3.3c-3.6,2.4-4.6,6.1-5.7,9.8
			c-0.6,2-1.3,4-2.3,5.9c-1.8,3.8-3.5,7.9-3.8,12c-0.2,2.4-0.7,4.1-1.7,6.2c-2.1,4.1-5.8,7.5-5.9,13c3.2-5,9.5-3.6,13.2-7
			c1.5-1.4,4,0.3,4.2-1.7c0.7-6.3,6.5-10.4,7.1-16.7c0.3-3.4,4-3.4,5.9-4.9c1.8-1.4,3.3-1.3,4.7-4.1c1.6-3.3,3.3-6.5,5-9.7
			c0.4,0.2,0.8,0.4,1.3,0.7c-3.9,11.9-11.2,22.2-19.1,32.8c3.8,0.1,5.6-3.2,7.5-2.8c3.4,0.6,5.2-0.8,7-3c0.6,0.6,0.7,1.7,2.2,1.3
			c5.5-1.5,11-2.7,16.6-4c0.6-0.2,1.5-0.4,1.7-0.8c2.7-5.7,7.8-9.8,10.5-15.7C649.2,265.8,651.4,260.3,656.9,257.4z M781.9,638
			c-1,0.2-1.9,0.5-2.7,1.1c-5.7,4.4-12.4,7.3-19.1,8.8c-5.8,1.3-7.3,4.4-8.3,9.1c-0.9,4.1-1.3,8.3-2.6,12.3c-0.5,1.5-2.1,3-0.9,4.4
			c1.4,1.8,3.3,0.4,5.1-0.2c9.5-3.2,18-8.3,26.6-13.2c3.6-2.1,8.3-2.9,11-5.7c5.8-6.2,8.8-14.2,12.6-21.7c0.7-1.5,0.4-3.2-1.6-2.4
			C795.2,632.9,787.7,633.2,781.9,638L781.9,638z M548.8,322.3c4-0.8,6.2-4.1,9.3-6.3c3.8-2.7,1.8-9.2,7.1-11.1
			c0.7,3.8-2.9,6.3-3.2,9.8c9.9-2.9,15.2-10,19.4-18.7c2.9-6,4.2-12.3,6.4-18.4c1.7-4.6,3.9-8.9,5.8-13.4c0.6-1.4,0.8-3.1-0.6-4.2
			c-1.5-1.2-2.6,0.5-3.4,1.2c-4.6,3.7-10.3,6.6-10.7,13.7c-0.1,1.1-1,2.1-1.5,3.1c0.1-1,0.2-2,0.3-3c0.2-2,2.4-4.6-0.2-5.9
			c-2.5-1.2-3.8,1.7-5.5,3.1c-3.7,3-5.7,8.2-9.7,10c-6.2,2.9-10.1,7.8-14.6,12.2c-1.1,1.1-2.6,2.8-4.3,1.9c-2.2-1.1-2.6,0.3-3.5,1.5
			c-4.9,6.3-8.2,13.4-10.5,20.8c-1.4,4.7-3.7,9.4-3.7,14.5c0,1.3,0.2,2.7,1.2,3.1c1,0.4,2-0.7,3-1.4c5.2-3.7,8-9.2,8.7-15.1
			c0.9-6.8,4.3-12.7,5.7-19.2c0.2-1,0.7-1.6,1.6-1.4c1,0.2,1.1,1.1,0.9,2c-0.4,1.8-1.3,3.5-2.1,5.1c-1.8,4,1.6,8.3-1.5,12.2
			c-2.5,3.2-4.4,6.8-5.5,11.2c3.3-1.3,3.7-4.2,5.3-6.2c0.7,0.6-1.6,3.6,1.6,2.1C546.1,324.6,548,324.2,548.8,322.3z M671,295.9
			c-2.7,0.1-3.8-5.4-7.6-2c5.4,5.8,10.7,11.6,16,17.3c-0.4,0.3-0.7,0.6-1.1,1c-5.2-5.6-10.7-11.1-15.6-16.9
			c-2.4-2.8-13.3-3.1-14.7,0.3c-0.5,1.3-1.5,2.9-0.2,5.3c9.3,17,21.1,32,34.8,45.5c0.3,0.3,0.9,0.4,1.3,0.3c3.4-0.6,6.8-0.2,10.2,0
			c3,0.2,4.7-2.6,3-4.7c-7-8.7-15-16.5-23.7-23.6l0.2,0.1c-3.1-6.4-8-11.5-12.2-17.2c2.4-1.2,3.7,0,4.4,1.9c0.7,2,1.8,3.7,3.3,5
			c8.2,7.3,14.2,16.6,21.9,24.4c5.7,5.8,10.9,10.3,19.5,7.1c1.4-0.5,3.5,0.5,4.3-1.7c0.7-2.2-0.8-3.4-2.1-4.7
			c-5.8-5.8-12.8-10.3-17.9-16.8c-4.6-5.9-12.5-7.8-17.2-13.8C675.6,300.3,675.4,296.1,671,295.9c1.9-2.2,3.2-0.6,4.6,0.7
			c2,1.9,3.5,4.4,6.8,5.8c-2-3.5-3.6-6.5-5.4-9.3c-1.9-2.9-4.8-1.1-6.7-0.5C667.9,293.4,670.5,294.8,671,295.9z M469.3,880.5
			c9.3-3.4,16.6-9.9,24.2-15.8c2.2-1.7,2.1-3.9-0.6-5.2c-2.3-1.2-4.8-2.2-7.3-1.3c-7.9,2.7-16.5,3.1-24,7.4
			c-3.4,1.9-4.8,3.9-5.9,7.4c-0.8,2.6,1.1,5.8-1.8,8c-2.2,1.6-2.3,3.7-1.5,6.3c1.3,4.3-6.3,12.1-10.3,10.2c-3.4-1.5-4.5-0.4-6.6,1.6
			c-2.3,2.2-5.5,3.3-8.9,2c-4-1.5-2.8-5-2.7-7.8c0.1-2.5,0.9-5.1-0.2-8.3c-3,3.9-6.4,6.8-3.3,11.5c0.7,1.1,0,1.7-0.6,2
			c-6.6,3.6-10.1,11.1-17.8,13.7c-7.4,2.5-14.5,6.1-22.6,3.1c-1.2-0.4-2.6-0.8-3.9,0.6c2.8,2,7.2,3.6,3.9,8
			c-2.1,2.7-5.3,5.9-8.8,3.3c-5.4-4,0.1-7.9,1.2-12.1c-14.5-1.3-26.4,5.6-38.3,12c3.8,3.5,9.1,5.3,14.1,7.5
			c21.5,9.2,43.7,16.6,66.3,22.6c25.7,6.7,52.1,9.8,78.5,11.8c4,0.3,9.7,2.3,11.6-2.8c1.9-5.1,6.2-6.2,9.6-8.8c2.2-1.8,5-3,6.9-5.1
			c9.1-9.9,19.7-17.5,32.2-22.5c5.4-2.2,11.3-3.3,17-4.9c12.2-3.5,24.4-6.9,36.6-10.5c3-0.9,5.6,3.3,8.7,0.1c-1.6,2-3.1,3.8-5.1,4.8
			c-11.2,5.7-23,10-34.8,14.1c-19.8,6.8-39.6,13.3-54.2,29.5c-1.9,2.1-5,3.1-6.9,5.8c0.8,0.3,1.3,0.6,1.7,0.6
			c22.6,0.6,45.1-1.1,67.4-4.5c16.8-2.5,33.5-5.9,49.7-10.8c2.3-0.7,5.3-0.3,6-3.6c0.6-2.7,2.7-3.9,4.8-5.3
			c3.9-2.6,7.9-5.2,11.5-8.2c3.2-2.7,6.9-3.9,10.6-5.6c6.2-2.7,13-2.2,19.2-4.2c9.3-2.9,18.4-6.5,27.6-9.6c7.3-2.4,15.5-3.2,22-6.9
			c27.2-15.6,52.3-34.2,75.2-55.7c24.5-23.1,46.2-48.6,65-76.6c4.5-6.7,8.7-13.7,13-20.6c-2-0.2-3.2,0.5-4.4,0.9
			c-5.2,1.8-9.3,6.3-14.8,7.2c-8.1,1.3-16,4.1-24.3,4.5c-3,0.1-5.8,1.3-8.3,3.2c-9.2,7-18.8,9.9-29.9,3.7c-3.5-2-8.1-3.5-11.4,1.7
			c1.3,0.5,2.4,1,3.5,1.4c1.9,0.7,4.3,1.2,4.5,3.5c0.1,2.4-2,3.5-4,4.7c-2.9,1.7-6,0.5-8.8,1.3c-1.5,0.4-3.7,0.5-3.3,2.9
			c0.4,2.4,2.3,2.1,3.9,1.5c4.1-1.5,7.2,0.9,10.4,2.6c0.8,0.4,1.1,2.3,2.1,1.8c5.2-2.2,9.9,0.8,14.9,1.4c5.5,0.7,11,0.7,17.1,0
			c-2,3.4-4.6,3.5-6.8,3.7c-9.2,0.7-18.2-1.5-27.4-2.2c-4.7-0.4-6.1,1.2-7.2,4.6c-2.9,9-10.4,12.2-19.3,8.3
			c-6.2-2.7-18.6-2-21.4,1.8c-2.9,3.8-5.9,7.7-6.6,12.7c-1,7.1-9.9,13.4-16.3,13.2c-10.7-0.4-18.8,4.5-27,10.7
			c-8.6,6.4-13.3,16.2-21.4,22.9c-2.1,1.7-3.9,3.8-5.6,5.9c-1.5,1.8-3,6.2-4.6,4.7c-2.6-2.3,1.4-4.7,2.7-7c0.2-0.4,0.7-0.7,1-1.1
			c4-5.7,10.2-9.4,14.4-14.9c10.2-13.4,21.8-23.9,40-23.6c4.8,0.1,13.8-7.3,14.3-11.3c0.6-6,4-10.5,7.5-15c2.2-2.8,5-3.2,8.5-3.4
			c6.6-0.4,12.9,0.3,19.2,2.4c4.9,1.7,10.6-1.4,11.4-5.5c0.5-2.6,1.4-4.9,3-6.9c2.1-2.6,0.9-3.2-1.6-3.2c-1.2,0-2.5-0.1-3.5,0.3
			c-2.7,1-4.6-0.3-5.3-2.4c-0.8-2.2-1.2-4.7,1.7-6.6c3-2,6.3-2.1,9.5-2.4c1.7-0.2,3.7,0.5,4.6-2c-2-1.1-4-2.1-5.8-3.3
			c-1.5-0.9-2.7-2.1-1.5-4.1c2.1-3.5,9.3-5.2,12.9-3.1c7.7,4.7,15.8,5.6,24.1,2c6.3-2.7,12.1-6.4,19.3-7c14.8-1.1,28-6.6,40.2-14.8
			c3-2,4.9-4.5,6.5-7.5c7-12.9,13.3-26.1,18.9-39.7c3.9-9.6,7.4-19.5,11.1-29.2c-2.4,2.5-7.9,2.7-7.7,4.8c0.4,4-2,3.4-3.7,3.7
			c-9.3,1.4-17.9,5.5-27.3,6.6c-15.8,1.9-31.4,5.6-47.5,1.8c-8.5-2-17.1-1.2-24.8,3.7c-13.4,8.6-25.5,18.7-35.1,31.5
			c-5.2,7-10.8,13.8-19,17.8c-10.2,5-21.7,5.3-32.3,8.7c-6.3,2-12,4.5-17.1,9c4.5,3.6,9.6,4.2,14.2,6.1c10.1,4.3,20.1,6.8,29.7-1.4
			c1.1-1,2.6-1.5,4.1-2c5.3-1.6,10.4-4,16.3-3.4c-4.3,2.5-9,4.3-13.5,6.2c-10.2,4.4-19.6,10.9-31.2,11.7
			c-10.4,0.7-20.9,2.3-30.7-3.2c-3.1-1.7-6.6-2.4-10.2-2.6c-12.5-0.8-21.5,5.5-29.5,14c-5.8,6.2-11.3,12.7-18.9,17.1
			c-2.1,1.2-4.3,2.5-6.2,4c-1.2,0.9-2.1,2.1-2,3.4c0.1,1.7,1.9,1.7,3.1,1.9c2.5,0.4,4.8,1.4,7.2,2.1c2.9,0.9,6.6,2.9,9.3,1.2
			c7.1-4.6,15.3-4.6,23.1-6.5c10.7-2.6,21.5-6,32.7-4.1c4.8,0.8,9.4,0.9,14.1,0.5c4.2-0.4,8.5-0.4,12.7-0.6c1.2-0.1,2.8,0,2.9,1.3
			c0.1,1.4-1.5,1.4-2.6,1.7c-16.5,4.1-33.4,5.9-50,8.9c-18.4,3.3-34.7,9.8-48.6,22.7c-8.5,7.9-17.4,15.7-27.4,21.4
			c-13,7.4-26.5,14-40.6,19.1c-5.7,2.1-11.5,4.1-17.4,0.6c-3-1.8-6.1-1.5-9.3-0.9c-15.8,2.9-30.3,9.6-44.9,16
			c-7.1,3.1-14.7,5-23.4,7.8c2.4-3.6,4.9-4.2,7.2-5c4.3-1.5,8.8-2.6,12.8-4.5c14-6.7,28.1-12.8,43.2-16.6c6-1.5,11.7-1.4,17.2,1.4
			c2.3,1.1,4.7,1.5,6.8,0.1c17.2-11,35.7-20,52.5-31.9c12.1-8.6,23.1-18.4,35.3-28.5c-3.8-0.2-6.3-1.6-9-2c-5.6-1-11.5-3.9-16.7,1.6
			c-1.5,1.6-3.8,0.8-5.5-0.3c-1.6-1.1-2.3-2.9-2-4.9c0.2-1.3,0.7-2.6,1.2-3.8c0.3-0.8,1-1.7,0-2.2c-0.6-0.3-1.8-0.2-2.3,0.3
			c-2.4,1.8-4.8,3.7-7,5.8c-7.4,7.1-16.2,12.7-24.7,18c-10.7,6.7-21.3,13.5-32.2,19.9c-10.9,6.4-21.8,12.7-33.6,17.5
			c-12.4,5.1-25.3,8.9-37.3,15.1c-1.2,0.6-2.7,1.1-3.3,2.1c-1,1.5-1,3.8-3.7,2.9c-0.7-0.3-1.8-0.9-1.9-1.4c-0.1-1.9,1.8-2.7,2.9-3.9
			c0.7-0.7,1.6-1.2,2.4-1.6c4.6-2.1,9.2-4,13.8-6.2c1.9-0.9,4.4-1.5,5-4.4c-6.7,2.8-13.8,3.9-19.5,8.2c-3.6,2.7-4.8,1.1-4.8-2.7
			L469.3,880.5z M301.1,767c-1.3,13.3-6.4,24.4-14.5,33.7c-5,5.8-10.7,11.9-20.1,10.3c-3.2-0.5-5.7,1.8-7.9,3.9
			c-4.1,3.9-8,8.1-12.1,12.1c-2.2,2.1-4.7,2.6-7.8,1.9c-7-1.5-14.2-2.3-21.4-2.1c-19.7,0.6-34.2,10.3-46.2,25.3
			c-7.6,9.6-14.7,19.8-26.5,25.3c-3.6,1.7-7.3,4.2-10.1,7.9c5.7,2.1,7.4,5.9,5.2,11.4c-0.3,0.6-0.2,1.3-0.4,2
			c-0.3,1.7-1.9,3.8,0.2,5c2,1.2,2.9-1.3,4-2.3c1.5-1.3,2.8-1.3,4.5-0.6c2.1,0.9,2.1,2.5,1.8,4.2c-0.4,2.3-1.3,4.6-1.4,6.9
			c-0.2,2.9-1.9,6.7,0.8,8.6c2.3,1.6,5.2-0.9,7.6-2.4c1.7-1.1,3.3-1.7,4.8,0.4c2,2.9-0.8,18.5-3.4,20.6c-2.2,1.8-3.3,4.4-1.7,6
			c2.2,2.2,4.3-0.6,5.6-2.2c3.6-4.4,6.9-8.8,7.5-15.1c0.6-6.1,4.8-12.1,4.3-17.9c-0.6-7,0-13.2,2.9-19.5c3.8-8.4,9.2-15.3,16.8-20.4
			c2.5-1.7,4.5-1.1,5.9,1.4c1,1.8,1.4,3.7,1.4,5.8c-0.1,5.4-1.6,10.8-0.7,16.3c2.4-0.2,3.3-2.2,4.9-3c2.3-1.1,4.5-3.3,7-1.6
			c2.6,1.8,1,4.5,0.4,6.9c-2.9,10.2,1.5,19.1,11.4,23c1.3,0.5,3.2,2.5,4.4,0.3c1.1-1.9,0.2-3.6-1.8-5.1c-4.5-3.4-5.3-8.8-4.9-13.7
			c0.6-7.5,5.3-9.5,11.6-5.8c0.2,0.1,0.6-0.2,1.2-0.4c-1.7-2.2-3.3-4.2-4.9-6.3c-3.8-5-3.4-7.8,1-9.4c1.4-0.5,3.8,1,4-1.8
			c0.3-2.8-2.2-2.4-3.8-3.1c-4.7-1.9-7.3-5.9-6-9.2c1.9-4.7,5.1-8.1,10-10c7.1-2.7,14.6-2.5,21.9-2.8c2.6-0.1,5.6,1.4,7.3,3.9
			c2.1,2.9,3.7,6,5.6,9c5.2,8,9.9,16.7,20.2,19.3c8.2,2,16.6,2.3,24.4-0.9c10.4-4.3,20.8-8.6,32.9-9.8c-1.9,2.3-4.2,3.3-6.4,4
			c-10.1,3.3-19.5,8.1-28.8,13c-7,3.7-21,3.6-24.5-0.5c-1.7-1.9-4.2-3-6-4.6c-4.4-4.1-10.2-6.8-13.6-12c-5.5-8.8-16.4-12.3-25.9-8.3
			c-2.7,1.1-2.8,2.2-1,4.4c2.6,3.3,6.4,4.9,9.6,7.5c12.9,10.5,26.5,20.1,40.6,29c0.6,0.4,1.6,1.6,2.5,0.4
			c4.2-5.8,10.8-8.6,16.6-12.1c11.7-7.1,26.1-4.3,38.3-9.6c0.5-0.2,1.5-1.1,2.2,0.5c-8.5,2.9-16.7,6.2-26,7
			c-11.8,1-20.2,9.6-30.1,16c8.9,4.8,17.4,9.3,25.7,14c5.7,3.3,11.8,1.7,16.7-0.2c5.2-2.1,10.4-4.3,15.8-6
			c6.9-2.2,13.4-4.4,21.1-2.8c5.8,1.2,11.9,2.3,18,0.3c5.9-2,11.6-4.1,17.1-7.1c2.3-1.3,2.4-3.5,2.8-5.5c0.1-0.7-2.4-2.7-2.5-2.6
			c-2.8,2.2-6.9,1.5-9.4,3.9c-1.7,1.7-3.3,3.7-5.9,2.2c-2.8-1.6-4.1-3.9-3.4-7.6c0.5-2.6,2.5-4.9,1.5-8.4c-3.6,3.4-6.9,6.4-10.1,9.5
			c-2.4,2.3-4.7,1.6-7.3,0.3c-3-1.4-1.9-3.6-1.4-5.5c0.7-3.1,1.9-6,2.9-9c0.2-0.7,1.6-1.4,0.4-2c-2.9-1.4-6.4-4.2-8.8-3.4
			c-4,1.2-7.8,0.3-11.6,1c-4.6,0.9-6.4-2.4-4.5-6.7c1.1-2.6,2.8-4.8,5.2-6.6c-2-1.5-4.7,0.7-5.7-1.6c-1.2-2.6-2.9-1.8-4.5-1.1
			c-4.3,1.9-8.5,4.1-12.7,6.1c-6.7,3.2-13.2,6.1-21.3,5.4c-14.3-1.3-26.4-6.9-36.9-16c-12.6-11-26.7-15.8-43.3-12.7
			c-9.2,1.7-17.7,5.3-25.5,10.1c-5,3.1-7.9,8.3-14.4,10.6c-6.1,2.2-13,5.5-17.6,11.3c-0.7,0.9-2.5,2.5-4.7,0.5
			c3.9-2.1,5.5-5.7,7.2-9.3c2.6-5.3,6-10.3,10-14.5c19.5-20.4,43.9-25.7,70.8-21.2c15.2,2.5,28,11.1,41.6,17.6
			c7.4,3.5,15,6.2,23.1,5.2c7.1-0.9,13.5-4.7,20.8-5.5c1.3-0.1,4.2-0.7,3.6-2.6c-1.7-5.6,2.5-6.3,5.8-7.5c10.6-4,21.5-6.1,32.8-6.2
			c4.4,0,8.8-1.1,12.2-6.6c-9.1,3.8-17.3,2.7-25.7,2.1c-8-0.6-15.2-1.8-22.1-5.9c-3.7-2.2-7.3-2.5-10.8,1.3
			c-5.1,5.6-12.1,8.8-17.9,13.8c-3.5,3.1-9.1,3.9-13.8,5.3c-2,0.6-5.1,1.4-5.6-1.4c-0.5-2.5,2.6-2.8,4.4-2.9
			c12.8-0.6,21-9.7,29.9-16.9c5.3-4.3,10-6,15.4-2.1c5.4,3.8,11.2,5.9,17.9,5.4c2.9-0.2,5.8,0.8,8.5,0.8c7.8,0.2,16.4,2,22-6.1
			c0.8-1.2,1.7-0.4,2.2,0.6c0.4,0.8-0.6,2.7,1.7,2.3c0.1-0.4,0.4-1,0.2-1.3c-4-6.1-8-12.1-12-18.2c-1.1-1.6-2.4-0.7-3.6-0.1
			c-10.8,5.8-37-0.2-44.5-12.8c-1.2-2-3.1-2.5-5.3-2.1c-1.7,0.4-3.1,1.3-2.9,3.5c0.2,2.5-1.6,2.5-3.4,2.5
			c-8.8,0.3-21.1-8.2-24.1-16.6C307.4,774.7,306,770.2,301.1,767z M943.3,492.9c-1.3-0.1-2.6,2.6-4,0.7c-4.8-6.3-12-10.9-13.4-19.5
			c-0.9-5.2-3.9-9.2-7.7-12.8c-1.2-1.2-2.6-2.8-4.3-2c-1.7,0.8-1.2,2.9-1.2,4.5c0.2,5.6-4.4,9.9-10.1,9.6c-2.3-0.2-3.7-1.1-3.7-3.3
			c0-4.1-2.6-5.3-6-6.1c-7.5-1.8-15.8-1.7-21.5-8.2c-1.4-1.6-2.8,0.1-4,0.7c-1.4,0.7-1.5,2.1-1.1,3.6c1.1,4.2,4.2,2.4,6.5,1.9
			c4.7-1.1,8.6-0.1,11.5,3.9c4.1,5.5,4.3,11.4,1.5,17.6c-0.9,2-2.8,3.7-0.6,6.3c1,1.2-0.6,2.5-2.1,2.7c-2.1,0.3-0.9-1-0.8-1.9
			c0.3-2.5-1.8-3.6-3.4-4.6c-1.5-1-2.7,0.8-3.9,1.5c-1.1,0.7-1.8,2-2.8,2.9c-5.5,5.7-10.8,5.8-17,0.7c-1.7-1.4-3.8-2.5-6-3.5
			c-4.6-1.9-4.9,0.5-4.8,3.8c0.1,6.3-0.5,6.7-6.8,6.3c-3.5-0.2-7-0.1-10.4,0.4c-2.7,0.3-4.4,2.3-5,5c-0.5,2.2,0.4,3.4,2.5,4.2
			c2.1,0.8,2.1,2.7,0.7,4.1c-1.5,1.5-2.7,3.2-5.2,3.9c-3,0.9-5.7,3-6.9,6.2c-0.7,1.9-1.4,4.1,2.1,4.1c4.1,0,3.9,2,2.2,4.9
			c-2.3,3.9-4.3,8-6.3,12c-0.8,1.6-1.2,3.4,1.6,3.6c3.4,0.3,3.3,2.1,2.8,5c-0.8,4.6-4.4,8.4-3.9,13.4c0.2,1.5-0.1,3.5,1.3,4.1
			c1.6,0.7,2.5-1.1,3.5-2.2c3.3-3.6,4.5-8.2,6.4-12.5c1.4-3.3,3.8-7,6.8-6.7c4.7,0.5,5.1-2.5,6.2-5c1-2.3,1.6-4.8,2.4-7.2
			c2.2-6.3,7.3-8.7,13.7-7.7c2.9,0.5,6,2.4,8.9,1c4.3-1.9,6.3,0.4,8,3.6c0.8,1.5,1.4,3.2,3.7,2.4c4.5-1.7,8.6-0.5,12.5,1.8
			c2.3,1.3,4.2,1.4,6.9,0c3.1-1.6,6.4-3.8,10.4-3.5c1.5,0.1,2.9,0.6,2.7,2.2c-0.1,1.3-1.3,1.7-2.7,1.4c-2.5-0.4-4.5,0.5-6.6,1.9
			c-4.8,3.2-9.8,4.3-14.8,0.2c-1.9-1.6-4.7-2.1-6.7-1.5c-6.5,1.9-13.1,3.8-19,7.5c-4,2.6-6.2,6-6.8,10.5c-0.4,2.5-0.1,5.1-0.2,7.6
			c0,0.8-0.3,1.8,0.5,2.3c1.2,0.7,1.9-0.2,2.6-0.9c2.9-3.1,5.6-6.3,7.5-10.2c1.5-3,3.2-6,5.3-8.6c1.7-2.1,4.2-2.7,6.8-1.3
			c2.6,1.4,1.3,3.4,1,5.3c-0.6,4.4-3.8,7.5-5.4,11.3c-0.6,1.5-1.8,3.4,0,4.5c1.5,0.9,3.1,0,4.5-1.4c2.5-2.5,4.6-5.5,7.9-7
			c4.1-1.8,5.8-0.7,6.3,3.7c0.4,3.8-1.4,7.2-2,11.4c2.7-1.3,3.6-3.4,4.7-5.2c5.7-8.9,21.2-13.4,30.7-8.5c7.7,4.1,15.3,8.4,18.9,17.3
			c3.6,8.8,4,18,1.8,26.8c-1.3,5-3.1,10.1-6,15.7c4.2-2.2,6.3-5.1,6.9-8.5c3.1-15.9,4.5-32.1,5-48.3
			C946.2,538.3,946.7,515.6,943.3,492.9z M517.8,844.8c3.8-4.3,7.7-7.4,12.4-8c8-1,15.2-4.1,22.4-7.3c2.6-1.2,4.6-2.9,6.8-4.7
			c7.2-6,15.2-11,23.4-15.5c1.8-1,4.9-1.5,6.2,0.2c1.5,1.7,0.9,4.5-0.4,6.7c-0.4,0.7-1,1.4-1.5,2c-2,2.9-2.3,5.8-0.3,9
			c5-3.6,9.9-7,14.7-10.6c3.6-2.7,7-5.7,10.6-8.5c1.8-1.4,4-2.1,6.1-0.7c2.3,1.5,2,3.6,1,5.9c-0.5,1.1-0.8,2.2-1.1,3.4
			c-0.2,1.1-0.5,2.4,0.8,3.2c1.1,0.6,2-0.2,2.7-0.8c2.4-1.9,4.5-4.2,7.1-5.7c3.5-2,4.7-6.4,9-7.6c3.8-1,18.6-16.4,20.8-20.9
			c-18,9.6-35.9,5.1-53.3,0.9c-15.3-3.7-30-3.2-44.7,1.3c-8.6,2.6-15.8,8.2-23.6,12.4c-2.3,1.2-4.8,2.2-5.6,5.2
			c1.9,0.5,3.5,1,5.1,1.3c12.8,2.4,23.3-4.4,33.6-10c7-3.8,14.9-5.4,21.3-10.1c0.4-0.3,1.5-0.2,1.8,0.1c0.9,0.8,0,1.6-0.6,2
			c-4.3,2.6-8.4,5.8-13.1,7.5c-6,2.3-11.5,5.4-16.7,9c-12,8.2-23.2,17.5-38.3,20.1c-5.2,0.9-10.3,0.7-14.3-1.3
			c-7.2-3.5-15.1-3.3-22.3-6.1c-1.4-0.5-3.2,0-4.9,0.6c-12.1,4.2-23.7,9.4-33.9,17.4c-1.4,1.1-2.7,2.4-4.8,2.6
			c-8.2,0.7-17,10.4-16.9,18.4c0,5.2-1.7,6.2-6.5,3.7c-0.8-0.4-1.2-1.7-2.4-1.4c-0.9,7.5-1.9,7.9-8.1,3.2c-2.7-2.1-3,1-3.4,1.9
			c-2.2,5.7-6.6,4.9-10.9,3.8c-6.6-1.8-10.4,0.4-11.6,7.4c-0.5,2.9-1.5,5.5-3.6,7.7c-1.9,2-2.9,4.5-3.7,7.1
			c-0.5,2.1-2.3,4.5-0.1,5.9c2.1,1.3,3.8-1.3,5.6-2.5c0.4-0.3,0.7-0.7,1.1-1.1c2.2-1.9,4.3-3.9,6.6-5.5c1.7-1.2,4-2.6,6-1
			c2.2,1.7,0.4,3.6-0.4,5.4c-1,2.3-2.5,4.4-2.3,7.1c0.2,2.9,1,3.9,3.7,1.9c3.4-2.6,8.3-2,11.2-5.8c0.6-0.8,2.6-0.7,3.5,0.7
			c3,5.1,3.7,0.3,3.8-1.2c0.2-4.5,3.3-7.7,4.9-11.5c0.8-1.9,2.4-2.7,4.5-1.3c1.5,1.1,2.5,1.2,3.5-0.8c1.7-3.3,3.9-6.3,5.8-9.5
			c8.1-13.6,18.6-24.7,33.3-31.2c10.5-4.6,21.7-6.2,32.9-6.6C511.7,832.2,516.2,835.8,517.8,844.8z M30.6,910.9
			c2.1-0.1,2.3-1,2.7-1.7c0.7-1.3,1.3-2.5,3-2.1c1.9,0.4,1.3,1.9,1.5,3.2c0.4,2.5,1.7,4,4.3,5c5.2,2.1,7.1-1.6,8.9-4.8
			c2.9-5.1,6.4-9.5,12-11.8c2.3-1,4.8-2.1,7.1-0.5c2.6,1.8,0.2,4,0.1,6c-0.1,0.8-0.5,1.6-0.7,2.4c-0.5,2.3-0.4,4.5,2,5.7
			c2.5,1.3,3.9-0.8,5-2.2c1.5-2.1,2.3-2.5,4.8-0.9c2.5,1.6,5.5,1.4,5.5-2.9c0-2.4,1.3-4,2.7-5.8c3.1-3.8,6.7-7.1,7.2-12.8
			c0.3-3.5,1.8-7.9,7.6-7.7c3.2,0.1,5.7-2.7,6.9-5.8c2.3-6.1,7.2-9.6,12.2-13.1c4.4-3.1,9.2-5.5,13.5-8.8c9.4-7.2,21-8.7,32.1-11.5
			c0.3-0.1,0.8,0,0.9,0.2c2.1,3.1,4.8,0.9,5.9-0.3c10.8-10.9,24.3-16.2,38.9-18.8c-4.2-3.5-9.1-4.7-14.2-4.9c-2.1-0.1-4-0.6-5.9-1.1
			c-12.9-3.4-25.9-3.5-39-1.5c-7,1-13.2,4.4-20.5,5c-5.6,0.5-11.5,3.1-16.4,6c-4.7,2.8-9.6,5.7-13.8,9.1c-6.5,5.5-13.9,11-13.2,21.2
			c0.2,2.7-1.3,4-3.9,5.1c-2.4,1.1-5.4-0.6-7,1.2c-4.9,5.5-11.9,4.9-17.7,5.6c-16.3,2-29.3,9.6-40.9,20.4c-1.7,1.6-2,2.7,1,3.8
			c4.7,1.7,8.6,0,12.8-1.3c2.4-0.8,6.1-2.1,7-0.3c1.3,2.6-2.6,3.6-4.3,5.2C34.4,899.7,30.7,904.2,30.6,910.9z M286,796.8
			c-4,0.2-6.9,2.1-10.4,2.1c-9.7,0.1-19.3-0.2-29,0c-12.9,0.2-25.5-3.2-37.4-7.7c-10.7-4.1-21.5-6.8-32.7-7.6
			c-18-1.3-35.6,2-52.7,7.8c-6.2,2.1-12.7,3.2-18.5,6.6c-7,4.1-12.2,9.9-17.4,16c-7.6,8.7-15.9,16.8-21,27.3c-1.7,3.6-4.2,7-4.8,11
			c-0.3,1.6-0.3,3.7,1.5,4.5c1.5,0.7,2.3-1,3.3-1.8c1.5-1.1,2.9-2.3,4.3-3.6c0.9-0.7,1.4-2,2.9-1.1c1.8,1.1,0.6,2.3,0.2,3.5
			c-0.3,1-0.8,1.9-1.2,2.8c-0.9,2.2-2.4,4.6,0.8,6c2.8,1.2,3.9-1.2,4.7-3.2c0.9-2.3,2-3.3,4.6-1.8c3.4,1.9,5.5,0.6,5.5-3.2
			c-0.1-3.3,1-6.1,2.3-9.1c1.7-4.1,4.8-6.8,8-9c5.7-4,9.5-10.4,16.6-12.6c10.8-3.3,21.3-7.4,32.3-10c8.3-1.9,16.7-3.3,25.4-2.9
			c8.5,0.4,16.6,2.7,24.9,4c10.3,1.6,19.9,4.9,29.9,7.2c8.9,2.1,18,3.8,24.3-5.8c1.1-1.7,2.8-3,4.4-4.3c3.9-3.2,8.4-5.5,13.4-4.7
			c2.5,0.4,4.2,0,6-1.2C279.9,803.8,282.8,800.5,286,796.8z M685.1,754.2c6.3,2.6,11.5,4.5,16.5,6.9c2.9,1.4,4.9,1.1,7.7-0.6
			c7.2-4.5,13.6-10.3,22.1-12.5c5.3-1.4,11.2-2.6,15.5-5.7c8.5-6.1,17.5-11.4,25.6-18c4.3-3.5,5.5-8.9,9-12.7
			c9.8-10.9,20.6-20.3,35.4-24c5.3-1.4,10.4-4,16.2-2.1c1.8,0.6,3-0.5,4.3-1.9c7.5-7.7,16.2-13.3,26.2-17.5
			c11.4-4.8,23.5-6.8,36-9.7c-7.2-2.2-13.9-3.3-20.6-2.4c-8.6,1.2-17.3,0.5-25.9,0.4c-11.7-0.1-23.5-1.8-34.9-4.7
			c-3.9-1-5.9,0.3-7.9,3.3c-4.9,7.4-9.8,14.9-15.2,22c-4.1,5.3-8.3,10.5-14.3,14c-10.6,6.3-21.4,11.6-33.3,15
			c-4,1.1-7.7,4.6-8.4,7.5c-1.9,7.8-5,15.3-5.8,23.4c-0.3,3.1-0.9,7-4.5,7.6c-7.9,1.5-15.6,3.7-23,6.5
			C699.4,751.4,692.6,752,685.1,754.2z M69.1,899.5c-4.1,1.9-8.5,1.6-8.2,5.3c0.2,2.6-0.5,4.4-1.5,6.4c-1.9,3.7-2.6,7.6-3.2,11.6
			c-1.2,7.3,0.9,14.1,2.4,21c0.9,4.2,3.4,4.8,7.7,2.4c5-2.8,6.7-2,7.1,3.5c0.1,0.8-0.1,1.8,0.2,2.5c0.8,1.7,0.7,4.3,2.4,4.8
			c1.8,0.6,3.2-1.3,4.4-2.8c1.9-2.4,3.7-2.2,4.9,0.6c0.6,1.3,0.7,3.4,2.8,2.4c2.2-1.1,5.1-1.7,6.2-4.2c2.1-4.9,5.1-6.4,9.7-3.1
			c2,1.4,3.6,0.3,5-0.9c1.6-1.3,0.9-2.9,0.1-4.6c-2.3-4.9-4.8-9.5-8.9-13.3c-2.2-2-3.5-4.8-0.5-6.9c2.3-1.6,5.4-4.2,7.8,0.6
			c1.2,2.3,3.6,3.4,6.4,3.5c4.6,0.2,5.4-0.6,3.5-4.8c-1.6-3.7-3.8-7.1-5.7-10.7c-2.2-4.2-2.2-8.1,0.9-12.3
			c8.6-11.4,19.7-20.4,30.8-28.8c6.9-5.3,12.2-11.9,18.9-17.1c3.8-2.9,6.9-6.5,9.6-10.7c-5.4,0.4-10.1,2.3-14.9,3.7
			c-3.1,0.9-6.4-1.2-9.4,0.8c-5.6,3.6-11.3,7.1-16.8,10.8c-7,4.7-14.4,9.2-17.8,17.6c-1.6,4-4.7,6.5-9.3,6.5c-1.7,0-2.9,1.3-3.1,2.9
			c-0.7,7.4-6.2,12.1-9.5,18.1c-2.9,5.4-5.1,10-12.4,8.5c-0.8-0.2-2,1.6-3.1,2.3c-2.1,1.4-3.7,2-6-0.5
			C65.7,910.2,65.5,905.8,69.1,899.5z M797.6,610.8c3.2,0.9,5.9,0.1,7.6-1c4.9-3.2,10.4-2.6,15.6-3.5c3.5-0.7,7.6,1.5,6.6,4.2
			c-2,5.8,1.8,3.5,3.9,3.8c6,0.9,13.3,0,15.9,7.1c1.1,3,2.5,2.9,4.6,3c7.4,0.3,14.8-1.3,22.1,0.2c4.2,0.9,9.4-1.5,12.6,2.9
			c2.1,2.9,4.5,2.5,7.1,1.6c2.4-0.8,4.6-2.2,7-2.8c4.7-1.3,9.8-2.2,12.9,2.6c3.3,5.1,7.2,7.8,12.9,6.8c1.1,3.8-3.5,2-3.9,4.9
			c2.4,0,3.9,2.7,6.6,1.6c0.8-0.3,1.8-0.4,2,0.7c0.2,1.2-0.7,1.7-1.8,1.9c-3.1,0.7-6-0.5-8.9-1c-12.5-2-25-3.5-37.3-6
			c-10.6-2.2-21-4.7-31.9-4.4c-4.9,0.2-9.7-1.9-13.8-4.4c-4-2.5-5.1-0.8-6.6,2.3c-2.3,4.8-6,5.7-10.7,3.2c-2.7-1.4-4-3.8-5.2-6.5
			c-1-2.1-2.6-5.3-5.4-4.1c-2.1,0.9-3.4,3.8-2.2,6.6c0.8,2,0.6,3.2-1,4.8c-1.7,1.7-2.5,4.4-3.5,6.6c-2.9,6.3-6.4,12.5-11.2,17.2
			c-8.5,8.5-17.2,17-26.5,24.8c-4.5,3.8-9.6,7-13.6,11.4c14.8-5.1,27.1-13.7,37.1-25.7c6.7-8,13.5-16.1,21.8-22.6
			c1.9-1.5,3.9-2.1,6.5-1.3c9,2.9,18.3,4.2,27.7,5c16.7,1.4,33.5-0.3,50.2-0.3c10.6,0,21.6,0.7,32.3-2.1c4.3-1.1,6.4-2,7.1-6.3
			c1.2-7.5,4-14.7,4.3-22.5c-3.4,0.6-6,2.2-9.1,2.8c-6.7,1.3-13-0.9-19.5-1.3c-14.1-0.9-28.3-1.5-41.9-6c-7.2-2.3-14.6-4.2-21.4-7.5
			c-6.1-3-11.5-7.6-17.2-11.5c-3.4-2.4-6.3-2.3-9.3,1.1c-1.7,1.9-3.6,4.4-6.9,3.1c-3.7-1.5-6.4-0.4-8.8,2.6
			C802.5,605.5,800.1,607.9,797.6,610.8z M544.4,783.4c0.5-0.6,1-1.2,1.4-1.9c5.1-8.1,10.1-10.3,19.6-8.6c1,0.2,1.6-0.2,2.4-0.5
			c8.8-3.6,16.9-2.4,24.2,3.9c1.9,1.6,4.4,2.3,6.8,3.2c11.2,3.9,22.6,5.3,34.3,3c10-2,20.2-2.8,29.9-7c12.9-5.6,26.4-7.6,40.3-3.4
			c5.2,1.6,10.5,1.4,17.3,1.2c-11.6-5.2-21.8-10.5-32.4-14.4c-5.4-2-11-4-17.1-4.2c-12.3-0.3-23.2,3.1-33.2,10.2
			c-6.6,4.6-14.1,7.2-22.2,7.3c-11.8,0.2-22.1-5.5-32.5-9.7c-9.3-3.8-17.7-4.8-26.3,0.6c-3.9,2.4-6.8,1.9-10-1.4
			c-5.1-5.3-9.8-4.9-14.2,1.1c-2,2.7-3.5,5.8-5.4,8.9c2.7-0.1,3.7-1.9,5.3-2.8c1.5-0.9,3.1-2.9,4.9-1.3c2.1,1.8-0.3,3.3-1.1,4.7
			c-2.8,5.4-6.4,10.5-7.6,17.5c2.9-3.5,5.4-6.1,7.5-9.1c1.2-1.7,1.9-4.1,4.3-3.4C543.2,778.2,544.1,780.6,544.4,783.4z M403.9,862
			c1.7-3.3,3.3-5.5,4.1-8c0.6-1.8,1-3.6,3.1-2.9c1.7,0.6,1.1,2.7,0.8,4c-0.8,2.9-0.7,5.1,2.6,6.4c1.5-2.5,0.6-5,0.8-7.5
			c0.1-2.2,1.3-3.6,3.2-4c2.6-0.5,1.3,2.1,2,3.2c0.9,1.6,0.8,4,4,4.9c0-2.4-0.3-4.6,0.1-6.6c0.5-3,0.4-7.3,3.2-8.4
			c3.2-1.2,5.1-3.7,7.7-5.4c1.9-1.2,3.4-3.6,6.1-3c3,0.7,4.8-0.9,6.5-2.8c1.7-1.9,3.7-3.3,6.1-4.4c6.9-3.3,13.6-7.4,20.7-10.2
			c5.5-2.2,11.3-3.9,17.7-2.2c7.6,2,15.2,4.5,22.8,5.8c12.8,2.1,24.1-3.3,34-11.6c-8.1,2.1-15.9-0.2-23.8-1.3
			c-2.9-0.4-6.1-1.5-7.6-3.5c-4.9-6-11.2-7.2-18.1-6.6c-17.2,1.5-33.2,6.8-47.6,16.5c-6.9,4.6-13.8,9.1-22.3,10.2
			c-5,0.7-9.2,3-13.3,5.8C405.6,837.9,400.7,849.2,403.9,862z M354.4,861.8c3,1,5.2-1,7.7-0.9c1.4,0.1,2.9,0,3.3,1.7
			c0.4,1.7-1,1.9-2.2,2.7c-2.5,1.6-5.7,2.4-7.3,5.3c-0.9,1.6-2.9,3-1.9,4.9c1,1.9,3.4,0.9,5.1,0.9c5.4,0.1,10.8-2.5,16.1,1.7
			c3.8,3,5.5-0.4,6.3-4.1c1.6-8.2,5.8-11,13.7-9.9c1.6,0.2,3.3,0,5,0c-2.1-14.4-0.5-20.1,8.6-31.8c0.7-0.9,1.9-1.5,0.7-3
			c-1.2-1.4-2.4-2.5-4.3-2c-2.2,0.6-3.8,1.9-5.3,3.6c-3.5,4.1-8.4,6-13.5,6.1c-8.1,0.2-16.1,0.6-23.9,2.6c-4.6,1.2-9.5,2.1-12.6,6.6
			c4,1.7,7.5,2.4,10.9-0.4c0.6-0.5,1.5-0.9,2.3-1c2.8-0.5,5.3,0.8,6.5,3.1c1.4,2.8-2,2.2-3.2,3.2
			C362.5,854.6,356.9,856.2,354.4,861.8z M930.4,656.5c-29.5,7.4-58.5,13.6-84.4,28.9c0.9,2.2,1.7,1.9,2.3,2
			c12.8,1.5,25.2-1.4,37.7-3.2c12.3-1.8,25.1-2.9,34.8-12.4c0.3-0.3,1.1-0.6,1.4-0.4c5,3.8,4.1-1.5,4.9-3.4
			C928.3,664.6,929.1,661,930.4,656.5z M878.2,613.6c4.6,2,8.3,2.4,12.1,2.7c8.9,0.6,17.8,0.8,26.7,2.1c9,1.3,15.5-1.5,16.6-10.5
			c0.1-0.6,0.3-1.3,0.7-1.9c5.7-8.6,3.3-17.6,1.3-26.4c-1.4-6.3-4.4-9.9-8-11.1c4.1,5.9,2.7,12.2,0.6,18.3
			c-5.4,15.6-18.2,21.5-32.8,25.4C890.1,613.5,884.7,612.2,878.2,613.6z M321.9,788c2.1,2.8,5.9,4.8,9,4.7c1.1,0,2.2,0.1,3-1.2
			c3.9-6.2,8.1-6.6,12.8-1.3c1.6,1.8,3.3,2.8,5.7,2.5c9.1-1,18.5,1.4,27.6-2.3c2.1-0.9,3.1-0.1,1.4-2.6c-3.6-5.6-7.6-11-11.8-16.2
			c-4-5-7.1-5.4-11.4-0.9C348.4,781.3,334.9,784,321.9,788z M621.6,311.7c-0.4,2.8,0.7,4,1.4,5.2c7.5,13.4,17.5,25,26,37.7
			c0.8,1.3,2.2,1.8,3.6,1.3c1.9-0.6,3.5,0,5.3,0.6c2,0.7,4.6,1.6,6-0.4c1.1-1.7,0-3.7-1.3-5.5c-5.3-7.4-11-14.5-16.3-21.9
			c-3.7-5.2-6.5-11-12.1-15.2c-3.7-2.8-9.3-4.2-10.8-9.5c-0.9-3.2-2.8-3.9-5.6-3.1c-2.4,0.7-4.7,1.6-7.5,2.5
			c3.3,3.8,6.2,7.2,9.7,11.2c0.1-4.6-2.6-7.4-2.6-11.1c5.4,7.2,10.8,14.4,16.1,21.6c-0.3,0.2-0.6,0.4-0.9,0.6
			C629.1,321.3,625.6,316.8,621.6,311.7z M580,832c-1.8-0.5-2.2-0.8-2.4-0.7c-12.7,5.9-25.3,11.9-38,17.8
			c-6.2,2.9-12.6,5.6-20.4,2.8c4-3.2,7.5-5.8,9.2-10.6c-4.5,0.7-6.6,3.9-8.6,6.5c-4.6,5.8-9,11.8-14.5,16.9
			c-2.3,2.1-5.3,3.7-6.7,6.8c-0.5,1.1-1.3,2.2-0.4,3.2c0.8,1,1.8,0.1,2.7-0.3c4.9-1.8,9.9-3.4,14.7-5.4c16.6-6.9,31.6-16.5,46.7-26
			C567.9,839.5,573.6,836.1,580,832z M617,332.1c4.6,8.4,9.7,16.2,15.5,23.7c3.3,4.3,7.8,3.7,12,3.1c2.4-0.3,4.8-2.2,2.3-5.5
			c-9.5-12.5-18.8-25.1-28.5-37.4c-3.1-4-5.6-8.6-10.4-11.5c2.8,4.7,0.6,10.4,3.5,14.8c3.1,4.6,7.8,8.1,9.6,13.6
			C619.2,334.1,618.9,331.5,617,332.1z M445.5,872.5c2,0.2,1.7,2.8,3.3,2.4c1.7-0.5,0.9-2.3,1.1-3.5c0.7-4.4,1.7-8.5,4.2-12.5
			c2.1-3.2,5.7-6.3,5.3-11.8c-2,2-3.5,3.6-5,5c-6.8,6.4-14.2,12.3-18.1,21.5c-1.5,3.6-3.1,7.5-6.1,10.4c-3.4,3.2-3.7,7.4-4,11.6
			c-0.2,3.1,1.4,3.9,4.2,3c3.8-1.2,5.8-4.2,7.4-7.6c0.4-0.9,0.7-2.6,2.4-2c1.1,0.4,1.3,1.4,1.3,2.5c0.1,4.4,2.2,3.2,4.4,1.5
			c2.2-1.7,4-3.5,2.9-6.8c-0.8-2.4-0.2-4.9,1.4-7.2c0.9-1.2,2.2-2.7,1-4.5c-1.1,2.6-3.7,2.4-5.5,2C444.2,876,444.7,874,445.5,872.5z
			 M651.4,325.3c-4.9-4.2-8-10.2-13.9-13.6c6.1,10.2,12.5,20,20,29.2c1.5,1.8,3.3,3.5,4.3,5.6c1.7,3.7,3,7,7.8,3.7
			c0.7-0.5,2.1-0.4,3-0.1c2.2,0.8,4.7,1.1,5.8-1.1c0.9-1.9-1.2-3.4-2.6-4.9c-12.3-13.1-24-26.8-33.4-42.2c-2-3.3-3.2-8-8.7-4.5
			c-0.4,0.3-1.4-0.9-2.3,0.5c2.5,4,5.7,7.5,10,10c-1-2-2.7-3.5-2.9-5.9C643.7,309.3,651.1,315.3,651.4,325.3z M618.2,359.7
			c-1.1-1.3-1.8-2.7-3-3.7c-6.1-5.1-10.4-11.4-14-18.4c-1.3-2.5-3.1-4.3-5-6.3c-1.1-1.1-2.8-1.9-3.4-0.7c-1.7,3.6-2,0.3-2.5-0.4
			c-3.4-4.8-7.6-9-10.5-14.3c-0.5-0.9-1-2.4-2.6-1.3c-1.3,1-1,2,0,3c0.6,0.6,1.3,1.2,1.6,2c2.9,6.3,11.9,10.1,8,19.4
			c-0.3,0.6,0.7,1.8,1.2,2.7c2.6,3.8,5.4,7.3,7.8,11.2c3.6,5.8,8.5,9.2,15.4,10C614.6,363.4,616,361.2,618.2,359.7z M783.6,661.5
			c-11.7,5.8-22.7,13-35.5,16c-0.4,0.1-1,0.5-1.1,0.9c-1.7,6.2-4.3,12.3-4.2,20C757.6,686.4,772.3,675.8,783.6,661.5z M921.1,639.3
			c-5-1.6-8.2-3.8-10.2-7.6c-1.6-3-4.6-2.7-7.4-2.6c-3.3,0.1-6,2.1-8.9,3.3c-3.8,1.6-7.2,1.8-10.1-1.5c-1.7-2-3.8-2.5-6.3-2.5
			c-2.7-0.1-5.4-0.7-8-1c-7.5-0.9-15,1.3-22.7,1.1C872.3,627.9,895.2,639.4,921.1,639.3z M525.8,432.3c-0.1-1.7-0.3-3.5-0.4-5.2
			c-0.2-8.5-2.4-16.2-6.9-23.7c-9.1-15-16.5-30.8-18.7-48.6c-0.5-4.1-1.9-8-3.2-13.1c-1.7,4-0.1,6.6,0.4,9.1
			c2.2,11.5,4.4,23.1,9.4,33.9c4.3,9.4,8.6,18.8,12.6,28.3C521.6,419.2,523.9,425.6,525.8,432.3z M842.3,627.1
			c0.8-1.2,0.1-2.6,0.8-3.9c1.5-2.7-0.6-4.3-2.7-4.8c-8-1.9-15.3-0.4-21.7,4.8c-1.3,1.1-1.6,2-1,3.9c0.9,3.1,2.9,4.4,5.5,5.3
			c1.7,0.6,2.7-0.7,3.9-1.8c2.2-2.2,0.9-6.5,4.9-7.4c3.9-0.9,5.7,3.2,9,3.5C841.4,626.6,841.8,626.9,842.3,627.1z M840.8,686
			c8.5-7.3,18.7-11.3,29-15.1c10.3-3.7,20.9-6.7,31.3-10C879.2,664.7,856.8,667.6,840.8,686z M229.4,868.5c4.2-5,9.6-7.6,15.9-8.2
			c6-0.5,12.4-2.7,17.3,3.2c0.4,0.5,1.2,0.7,1.7-0.1c0.3-0.4,0.5-0.9-0.1-1.2c-3.8-2.4-6.5-6.7-11-7.5
			C241.9,852.5,233.7,857.4,229.4,868.5z M510.2,379.9c-4.8-17.9-6.8-36.4-10.5-54.6C496.8,344.8,504.2,362.2,510.2,379.9z
			 M488.1,206.4c-7.7-12-14.4-24.5-21.4-36.9C469.8,184.1,477.6,196,488.1,206.4z M648.1,948.4c5.1-0.1,28.4-8.6,32-11.8
			C670.7,935.1,653.2,943.4,648.1,948.4z M535.7,492.4c0,2.9-0.1,4.4,0,6c0.7,13.3,2.3,26.5,1.1,39.9c-0.1,1.6-1.4,3.9,2,4.8
			c1.8,0.5,0.3,3.8,1.4,5.5c2.3-5.4-1.8-10-1.6-15.3c0.3-10.4,0.1-20.7,0.1-31.1C538.7,499.2,538.1,496.3,535.7,492.4z M749.2,306.2
			c-4.3-3.5-8.2-4.2-13.2-4.2c-4.7,0-8.2-6.1-14.1-5.6c6.2,1.9,10.1,7,15,10.5C741.4,310.2,744.9,308.2,749.2,306.2z M494.4,453.5
			c0.7-0.5,1.5-1.1,2.2-1.6c-5.2-2.6-3.9-8.2-6.8-11.9c-3.5-4.4-7.7-8.1-12-11.6c-4.7-3.8-8.8-8.6-15.2-9.8
			C474.9,428.6,488.1,437.7,494.4,453.5z M488.2,450.8c0.5,13.3,10.7,24.3,24,25.7C497.5,474,495.1,460.4,488.2,450.8z M381.7,681.6
			c-3.9,0.5-6.3,3-9.6,3.2c-2.5,0.2-2.1,2.8-2.5,4.4c-0.4,1.9,1.7,1.7,2.8,2.1c1.5,0.6,3.2,1,4.9,1.2c2.2,0.3,4.9,1.3,3.6-3.1
			C380.2,687.1,380.4,684.4,381.7,681.6z M542.2,580.7c-0.4-11.7-2.4-23.1-5-34.5C536.4,558.1,538.6,569.5,542.2,580.7z
			 M439.1,409.4c5.6,6.1,13.5,8.2,20.9,11.4c-2.7-2.2-2.9-7.4-7-7.3C447.8,413.5,443.8,410.9,439.1,409.4z M558.7,930.8
			c-12,2.6-15.9,5.6-17.4,12.9c1.6-0.6,3.5-0.5,3.6-2.9c0.2-5.3,5.8-4.5,8.4-7.3c0.2-0.2,1.1,0,1.4,0.2c0.6,0.5,0.2,1.1-0.1,1.7
			c-0.5,0.9-2,1.4-1.1,3.6C556.9,937.2,556.4,932.9,558.7,930.8z M536,452.6c1,10.2-0.3,20.7,3.5,31.6
			C540.3,472.9,537.2,462.9,536,452.6z M507.2,157.7c-5.9,7.9-2.1,16-3.3,23.4c1.4-4.8,2.5-9.6,3.2-14.4
			C507.5,164.1,507.2,161.4,507.2,157.7z M517.9,379.7c-1.2-8.3-4.5-16-8.2-23.4C511.5,364.4,513.8,372.3,517.9,379.7z M507.4,139.1
			c2.4-7.9,5.2-15.6,5-24.1C510.9,123.1,506.5,130.5,507.4,139.1z M634.4,307.6c-1.4-1.7-2.7-3.2-3.9-4.8c-0.6-0.8-2.4-1.2-1.3-2.7
			c0.4-0.6,1.8-1.1,0.6-1.7c-2-1-3.6,1.1-5.6,1.4c-1,0.2-0.4,1.1,0.1,1.5C627.2,303.9,628.5,309,634.4,307.6z M567,335.9
			c-2.6-9.4-5.4-12-9.7-10C560.6,329.2,563.8,332.5,567,335.9z M495.1,316.1c-0.7,6.6-0.1,12.2,1.5,17.7
			C497.8,319.9,497.8,319.9,495.1,316.1z M511.6,133.5c-1.5,7.4-4.5,14.6-2,22.4C508.6,148.3,512.7,141.1,511.6,133.5z M721.5,289.4
			c2.2,1.1,2.2,1.1,12-4.5c-1.7-0.5-3.2-3.4-4.5-1.2C727.1,286.7,723.9,287.4,721.5,289.4z M529.8,439.6c-0.1,5.5-1.2,11.1,2.1,16.2
			C531.5,450.4,532.3,444.8,529.8,439.6z M520.1,354c2.3-2.8,3.8-4.5,5.2-6.3c0.7-0.9,1.6-1.8,0-2.8c-1.3-0.9-2.1-0.8-3.3,0.3
			C519.8,347.3,520.3,350,520.1,354z M462.8,156.8c-0.6-5.9-2.2-11.4-5.2-16.5C459,145.9,459.1,151.9,462.8,156.8z M375.7,919.9
			c-1.7,0.3-4.2,0-4.3,3.2c0,1.4,0.5,2.4,2,2.1c2.2-0.4,4.1-1.7,4.8-3.8C378.5,920.4,377.6,919.1,375.7,919.9z M592.7,327.7
			c-3.7-4.9-7.4-9.8-11.1-14.8c-0.4,0.3-0.7,0.6-1.1,0.9C584.2,318.8,587.1,324.3,592.7,327.7z M491.2,846.3c4.1-1.6,6-4.6,8.2-7.2
			c0.4-0.5,0.5-1.3-0.3-1.7c-0.4-0.2-1.2-0.2-1.2,0C496.4,840.7,491.4,841.1,491.2,846.3z M744.6,292.5c-3.6-5.1-4.4-5.2-9.6-1.1
			C738.1,292.7,741.2,293.2,744.6,292.5z M499.7,287.9c-0.5,5.9-4.7,11.6-1.1,17.7C499,299.6,499.4,293.8,499.7,287.9z M441.8,629.7
			c-3.3-3.2-3.3-8.6-8.4-11.5C435.8,622.9,436.9,627.6,441.8,629.7z M500.5,284.9c2.4-4.2,1.1-8.7,1.3-14.4
			C499.7,276.1,499.5,280.4,500.5,284.9z M514.9,382.7c0.1-5.3-2.5-9.9-4.5-14.7C510.5,373.2,512.1,378,514.9,382.7z M566.4,825.2
			c-6.3,1.3-5.4,6.7-7.6,10C562.3,832.9,563.9,829.1,566.4,825.2z M708,777.5c3,0.8,5.8,0.6,8.6,1.8c2,0.8,4.2-0.1,7.6-1.8
			C718.7,777.5,713.4,777.5,708,777.5z M606.4,314.2c1.4-3-0.6-4.9-0.4-7.1c0.1-1.3-0.3-2.6-2-1.7c-1,0.5-2.8,1-1.4,2.9
			C603.8,310.1,604.9,311.9,606.4,314.2z M503.7,196.9c-1.4,4.3-2.5,8.9,0,14.6C503.7,205.8,503.7,201.4,503.7,196.9z M664,290.3
			c-5.5-1.8-10.7,0-16.6,1.1C653.5,292.5,658.7,290.4,664,290.3z M539.4,42.1c2.5-1.3,4.2-3.3,6.7-4.4c1-0.4,2.3-1.6,1.5-2.7
			c-1-1.3-2.5-0.4-3.3,0.7C542.5,37.7,541,39.9,539.4,42.1z M532,847.1c1.8-2,3.2-3.6,4.6-5.2c0.5-0.6,1.3-1.4,0.6-2.1
			c-0.8-0.8-2.7-0.4-2.8,0C533.7,842.1,530.2,843.3,532,847.1z M511.3,838.9c-2.2,2.4-4.6,3.9-5.7,6.8c0,0.1,0.8,0.8,1.1,0.7
			c3-0.9,4.3-3.2,5.2-6C512,840.3,511.9,840.2,511.3,838.9z M556.9,936.3c6.4,0.1,6.2-4.2,8.7-8C561,930.2,561.2,934.5,556.9,936.3z
			 M545.2,571.2c-1.7,3.7,1.5,7.3-0.2,10.9c-0.3,0.6,0.8,1.4,1.8,1.3c1.3-0.1,1-1.2,0.9-1.9C546.9,578,546.9,574.5,545.2,571.2z
			 M478.8,848c2.5-3.4,6.1-5.7,8.1-9.3C483.4,841.2,479.7,843.5,478.8,848z M741.2,298.5c1.5,3.6,6.8,0.4,8.2,4.4
			c0.1,0.3,1.2-0.2,1.5-0.9c0.3-0.7,0.3-1.7-0.4-1.7C747.2,300.1,744.9,295.7,741.2,298.5z M537.3,491.4c0-3.4,1.4-7.2-2.2-10.9
			C533.8,485.1,536.4,488.1,537.3,491.4z M579.8,925c-3.4,0.8-3.4,0.8-6.8,6.1C576.8,930.9,578.5,928.3,579.8,925z M704.5,295.3
			c1.9,2.5,3.8,3.7,6.1,4.2c0.2-0.8,0.7-1.6,0.5-2.3C710.1,294.1,707.6,294.9,704.5,295.3z"/>
		<path d="M42.7,825.9c-1.4-4.9,3.2-5,5.9-5.4c3-0.5,3.4,2.6,3.4,5c0,3.2-3.8,7-6.4,6.7C43.2,832,42.5,830.4,42.7,825.9z
			 M47.4,829.3c1.6-0.3,2.5-2.1,2.7-4.2c0.1-1.1-0.5-2-1.8-1.8c-2.2,0.3-3.8,1.2-3.6,3.8C44.9,828.4,45,829.5,47.4,829.3z"/>
		<path d="M29.9,853.9c1.7,0.3,4,0.4,3.5,3.1c-0.5,2.7-2.5,4.5-5.2,4.8c-2.4,0.2-2.6-1.8-2.4-3.5C26.1,856,26.1,853.2,29.9,853.9z"
			/>
		<path d="M136.7,944.9c-0.4,2.8-0.9,6.5-5.3,6.6c-3.2,0.1-4.4-2.7-4.5-5.6c-0.1-3.6,3.6-6.9,7.3-6.6
			C137.5,939.6,136.5,942.2,136.7,944.9z M132,948.5c1.6-1.2,2.6-2.9,2.6-5c0-0.8,0-1.9-1.3-1.6c-2.1,0.4-3.1,2-3.3,3.9
			C130,946.9,130.4,948.1,132,948.5z"/>
		<path d="M141.7,971.8c-1.5-0.5-3.2-1.1-2.8-3.3c0.5-2.7,2.3-4,4.9-4.3c1.8-0.2,3,0.7,2.9,2.6C146.5,969.8,144.6,971.2,141.7,971.8
			z"/>
		<path d="M126.8,957.4c1.2,0.4,2.8,0.6,2.8,2.6c0.1,2.7-1.2,4.5-3.8,5c-1.8,0.3-2.9-1.1-2.7-2.7
			C123.3,960.1,123.9,957.8,126.8,957.4z"/>
		<path d="M245.3,934.9c1.4-0.7,0.9-3.6,3.5-3.2c2.1,0.3,3.3,1.5,3.2,3.7c-0.1,1.9-1,3.1-3.1,3.2C246.4,938.7,246,936.7,245.3,934.9
			z"/>
		<path d="M210.7,930c-0.5,1.6-1,3.4-3,3.5c-2.2,0.1-2.5-1.8-2.5-3.6c-0.1-1.8,0.2-3.5,2.5-3.5C209.8,926.5,210.2,928.3,210.7,930z"
			/>
		<path d="M223.7,975c4.4-7,0.1-6.2-3.6-6.1c1.9-3.8,4.9-3.6,6.8-1.8C229.4,969.4,227.8,971.9,223.7,975z"/>
		<path d="M694.7,295.8c9,7.3,17.8,14.9,26,23c2.2,2.2,6.7,2.3,6.7,6.7c-6.7-5.5-12.6-13.2-20.3-16c-8.5-3.1-12.1-10.2-18.5-14.8
			c1.2-1.1,2.2-1.2,3.2,0.2C692.6,296.1,693.5,296.6,694.7,295.8z"/>
		<path d="M396.7,539.8c6.1,2.8,8.4,6.8,8.1,14.1c3.8-1.5,7.9-2.3,11-4.6c3.9-2.9,8-2,12.1-2.7c8.7-1.6,14.1,4.9,20.9,8.1
			c3,1.4,0.6,5.6,3,7.6c-0.8,0.7-1.4,0.5-1.5,0c-0.5-7.2-7.8-7.8-11.8-11.1c-3.5-2.8-9.6-3.1-14.6-2.2c-5.1,0.9-10.2,2.3-14.8,5.6
			c7.8-1.2,15.8-7,22.3,1.8c-0.6,0.2-1.3,1.4-0.9,1.9c0.4,0.4,0.7,0.9,0.2,1.1c-2.9,1.1-5.1-0.8-7.3-2c-1.2-0.7-1.6-1.9,0.5-2.2
			c0.6-0.1,1.5-0.4,0.8-1.3c-0.4-0.5-1.1-0.9-1.7-0.9c-2.2-0.2-4.2,0.9-6.3,1.4c-3.3,0.8-6.4,4.6-10.3,1.1c-0.3-0.3-1.6,0.3-2.3,0.8
			c-5.1,3.7-10.8,6.9-15,11.4c-2,2.1-3.6,4.6-6.3,5.9c-1.4,0.7-2.6,1.1-4.2,0.3c-8.4-3.8-17.1-1.5-25.7-1.2
			c-8.7,0.3-14.7,6.6-22.2,9.5c-1.8,0.7-2.6,2.5-3.6,4c-1.3-1.2-2.9,5-4.3-0.2c-0.3-1-4.4-1.1-4.5,0.8c-0.3,4-4.1,4.1-5.5,4.1
			c-2.5,0.1-4.8,1.9-4.6,2.6c0.7,2.3,0.8,5.5,4.2,6.2c1.9,0.4,3.8,0.9,1.7,3.3c0,0,0.2-0.2,0.2-0.2c-2.9-0.2-5.6-3.1-9-0.2
			c-1.3,1.1-3.9-0.2-5.2-1.9c-2.6-3.4,0.1-6.1,1.2-8.9c0.6-1.6,1.8-2.4,3.6-1.5c3.2,1.5,3.2-0.6,3.4-2.9c0.7-7.2,1.3-14.4,4.5-21.1
			c0.3-0.7,0.3-1.8,2.3-1.9c-4.6,8-4.2,16.4-3.4,25c2.8-5.8,4-12.4,9.6-16.5c-1.5,2.9-3.2,5.7-4.6,8.6c-1.1,2.3-0.4,3.7,2.4,2.9
			c2.8-0.8,5.6-0.7,7.3-4.5c1.5-3.3,6.9-3.8,9.5-7.1c0.5-0.6,1.9-1,1.9-1.4c-0.5-6.4,3.7-10.8,6-16.1c1.5-3.5,4.5-5.8,6.3-9.1
			c-1.5,5.4-6.4,9.6-6,16.3c1.2-2.3,2.2-4,3.1-5.8c1.6,0.9-0.1,2.8,1.3,3.8c1.8-3,3.5-6,7.5-7.8c-0.5,2.7-1.7,4.2-2.9,5.7
			c-1.3,1.7-2.8,3.5,0.1,5.2c1.6,1,0,1.6-0.5,2.2c-1,1.3-2.2,2.5-3,4c5.8-3.1,9.2-8.5,13.1-13.5c2.3,2,1.8,3.5-0.6,5.2
			c-2.6,1.8-3.1,3.1,1,4.1c4.6,1.1,8.9,0.3,13.3-0.5c0.3-0.1,0.9-0.3,0.9-0.4c-0.6-5.5,4.5-5.1,7.3-7.2c0.4-0.3,0.7-1.1,0.9-1.1
			c5.3,1.9,6.9-3.3,10.1-5.3c2.1-1.3,4-0.5,4.7,2.2c3.9-4.3,2.4-7.7-1.8-10.7c-0.9-0.7-1.9-1.5-1.8-2.9L396.7,539.8z M351.2,564.4
			c-2.5,0.9-6.1-0.4-4.5,4c0.3,0.7-0.6,1.6-1.5,1.7c-0.7,0.1-1.5-0.3-1.4-1c0.3-1.3,0.5-2.7-1.3-1.8c-1.5,0.8-1.3,2.9-1.4,4.4
			c-0.1,0.9,0.8,1.5,2.2,1.1C347.3,571.6,348.6,568.1,351.2,564.4z"/>
		<path d="M392,591.4c1.4-6.7,3.4-7.7,8.1-4.4c1.4,1,2.2,0,3.3-0.3c2.3-0.6,4.5-1.4,6.7-2c1-0.3,2.4-0.2,2.4,1.1
			c0,1.2,1.4,2.6-0.2,3.7c-1.5,1.1-4.6,1-4,3.6c0.5,2.2,3.6,0.9,5.6,2.4c-2.1,1.5-3.6,3.6-7.1,4.3c1.6-2.7,2.2-4.8-1.6-4.2
			c-0.9,0.1-1.7-0.6-2-1.4c-0.5-1.2,0.5-2,1.3-2.4c2.2-1.1,4.2-2.5,5.5-4.7c-4.1,1-8.3,1.7-10.8,5.4c-0.4,0.6-3.5,2.8,0.9,2.9
			c1.7,0,3.2,3.2,4.8,4.9c-1,0.7-1.9,1.5-2.9,2c-0.5,0.3-1.7,0.4-1.8,0.2c-1.5-2.9-3.3-5-7-4.2c0.6-2.7-2.1-2.9-3.1-4.3
			c-2.1-3-4.9-4.8-7.6-7c3.7,0.2,5.6,3.4,8.4,5c1.6,0.9,3.1,4.4,5.4,2c1.6-1.6,0.5-4.1-0.5-6.1C394,588.6,394.5,591.2,392,591.4z"/>
		<path d="M335.7,615.1c1,0.6,2.7,1,2.9,1.8c2.4,9.6,12.1,8.1,18.5,12.3c-1.7,1.4-3.4,1.3-5,0.4c-1.7-1-2.9-3-5.3-1.5
			c-2.7,1.7,0.9,3.7-0.7,5.8c-1-6.9-7-5.3-11.1-7.8c0.1,4.6,2.1,8.5,1.3,13.8c-1.9-5.9-2.8-11.1-4.4-16.2c-1.4-4.5-3.7-8.6-5.5-12.9
			c-0.3-0.8-1.5-1.9,0.2-2.4c1-0.3,1.3,0.8,1.6,1.5c1.4,3.4,2.9,6.6,4,10.1c1.5,4.8,5.6,3.9,8.9,4.8c-0.3-4.2-4.9-6-5.4-10
			L335.7,615.1z"/>
		<path d="M396.8,539.7c-4.3-2.9-7.1-8.1-13.6-7.4c-4.1,0.4-4.4,5.6-8.6,5.4c0.4-1.9,2.8-2.8,4.4-5.6c-6.8,1.4-11.9,4-17.4,7.7
			c3.1,1.6,5.4,0.6,8.3-0.6c-3.9,5.3-8.7,0.5-12.1,3.2c-0.9-1.7,0.4-2.1,1.1-2.6c9.9-7.6,20.5-11.9,33-7.1c3.4,1.3,5.2,3.5,4.9,7.2
			C396.7,539.8,396.8,539.7,396.8,539.7z"/>
		<path d="M316.8,616.7c2-1.3,3.6,0.1,5.5,1c-1.5-4.5-1.5-9.6-6.4-12.1c-1.2-0.6-1.7-1.5-1.6-2.8c0,0-0.2,0.2-0.2,0.2
			c5.1,0.3,7,4.4,8,8.2c1.4,5.1,2.5,10.1,9,12.3c-5.8-0.9-5.1,2.6-4.6,5.3c0.7,4.2,1.2,8.3,0.3,12.6c-0.6-4.3-1.7-8.7-1.8-13
			C324.8,622.5,321.6,619.1,316.8,616.7L316.8,616.7z"/>
		<path d="M391.1,634.6c2-1.2,0.2-2.5,1.3-3.8c1.3,3.1,3.2,5.7,1.8,9.4c-2.7-1.3-3-4.1-5.4-5.7c0,3.2,2.8,5,2.2,8.5
			c-4.9-6.4-6.6-13.5-8.9-20.5C384,627.4,390,629.2,391.1,634.6z"/>
		<path d="M399.8,615c-5.2,2.8-6.7-2.7-10.2-3.9c-0.8,2.3,2,3.4,2.2,6c-5.8-3.3-6.1-9.9-10.5-13.3
			C387.2,607.8,394.2,609.7,399.8,615z"/>
		<path d="M427.9,649.3c6.2,9,10.4,19.2,17.4,27.7C436.5,669.6,432.3,659.4,427.9,649.3z"/>
		<path d="M343.9,602.8c-3.2,0.4-5.8-1-5.9-4.5c-0.1-2.6,2.4-3.4,4.8-3.5c2.9-0.1,4.5,1.7,4.7,4.3
			C347.7,601.1,347.1,603.3,343.9,602.8z"/>
		<path d="M347.6,592.3c3.2-1.5,7.1,1.3,9.7-2.5c0-0.1,1.1,0.3,1.1,0.6c0.9,4.2,4.9,2.9,7.6,4.1c-2.8,2.9-4.6,4.1-8.1,0.3
			C355.8,592.7,351.1,593,347.6,592.3z"/>
		<path d="M444.3,591.3c4.2-6.5,3.6-12.7-2.8-19.1c3.7,0.7,3.7,3.6,5.5,4.2c1.7-1.5-0.1-3.8,1.6-5.1c1.8,0.4,0.9,1.8,1.1,2.8
			c0.8,5.2-2.1,9.7-2.5,14.7C447.2,589.9,446.5,591.9,444.3,591.3C444.3,591.2,444.3,591.3,444.3,591.3z"/>
		<path d="M271.5,772c1.2,0,2.1,1.1,1.8,2.9c-0.6,3.4-3.4,4.4-6.1,5.3c-1.2,0.4-2.9-1.3-2.6-2.4C265.5,774.7,267.3,772.3,271.5,772z
			"/>
		<path d="M381.4,593.3c4.6,1.1,7.3,4,10,6.9c0.6,0.7,1.8,1.5,0.7,2.4c-0.6,0.5-1.7,1-2.8,0.2C386,600.4,382.9,597.9,381.4,593.3z"
			/>
		<path d="M408.3,630.1c4.4,6.1,8.6,12.4,13.2,18.4C415,643.9,411.4,637.2,408.3,630.1z"/>
		<path d="M319.3,753.6c0,2.9-0.7,5.1-3.5,5.1c-2.1,0-2.7-2.1-2.3-3.7c0.4-1.7-0.1-4.4,2.9-4.4C318.7,750.6,319.9,751.7,319.3,753.6
			z"/>
		<path d="M405.3,653.5c-4.7-5.2-4-12.1-5.7-18.3C405,640.3,402.4,647.7,405.3,653.5z"/>
		<path d="M401.5,614.9c4.4,4.4,10.5,5.7,13.9,10.8c0.4,0.7,0.7,1.2,0,1.7c-0.3,0.3-0.8,0.9-1.2,0.2c-2.9-5.4-10-5.9-13-11.1
			C401.1,616.4,401.3,616,401.5,614.9z"/>
		<path d="M351.5,582.1c5.4-2.5,8.6-9.4,15.6-4.2C361.2,576.2,358.1,583.2,351.5,582.1z"/>
		<path d="M417.2,656.4c2.2,6.1,6.9,10.8,9.2,16.9C422.4,668.2,417.6,663.5,417.2,656.4z"/>
		<path d="M423,565c0.1,2.4,2.6,1.8,3.2,3.6c-2,0.2-3.6-0.6-5-1.6c-1.3-1-1-2.4-0.4-3.6c0.6-1.2,1.6-0.9,2.5-0.3
			c2.3,1.4,5.6-0.7,7.8,2.6C428.3,566.8,425.6,565.9,423,565z"/>
		<path d="M435.2,572c2.5,1.7,3.8,4,6.1,5.1c-5.6,0.3-10.7-0.2-14-6c2.7-0.3,3.3,2,4.8,3C434.6,575.8,435.7,575.9,435.2,572z"/>
		<path d="M316.8,616.7c-3.4-3.4-7.1-6.7-9.5-11.4C313.9,606.6,315.9,611.2,316.8,616.7C316.8,616.7,316.8,616.7,316.8,616.7z"/>
		<path d="M379.6,664.9c4.4-0.4,5.4-5.7,9.6-6.4c-6,4.6-8.8,12.5-16.3,15.5c2-3.1,6.9-4,6.5-8.9
			C379.4,665.2,379.6,664.9,379.6,664.9z"/>
		<path d="M426.6,644c-5.5-3.4-9.6-7.9-11.3-14.4C419.1,634.4,422.9,639.2,426.6,644z"/>
		<path d="M364.4,602.4c8.9-3.3,8.9-3.3,9.7,2.1C370.8,603.8,367.6,603.1,364.4,602.4z"/>
		<path d="M530.6,611c-2.5,7.1-6,13.6-10.3,19.8C522.4,623.5,526.3,617.1,530.6,611z"/>
		<path d="M406.8,642.4c-3.2-4.3-2.9-9.8-6.1-14.3C407.9,631.1,404.9,637.7,406.8,642.4z"/>
		<path d="M384.8,618.9c-1.2-5.5-8.4-5.3-10-10.5C378.7,611.3,384.2,612.7,384.8,618.9z"/>
		<path d="M419.9,683.2c2.2,4.1,2.4,9.1,5.4,12.9C422,694.6,419.8,689.5,419.9,683.2z"/>
		<path d="M355.2,559.5c3.3-3.3,2.4-9.1,7.7-12.8C361.3,552.7,358.5,556.2,355.2,559.5z"/>
		<path d="M453.4,562.5c1,5.3,4.7,9.2,0.5,14.4C454.9,571.9,452.3,568,453.4,562.5z"/>
		<path d="M439.1,696c-3.5-2.8-5.4-6.3-4.7-10.9C436,688.8,437.5,692.4,439.1,696z"/>
		<path d="M412.7,671.8c-3.8-2.5-4.6-6.3-4.4-10.6C409.7,664.7,411.2,668.3,412.7,671.8z"/>
		<path d="M399.8,618.3c3.9,2,5.6,6.1,7.5,9.9c-2.8-3-5.7-6-8.5-8.9C399.1,618.9,399.4,618.6,399.8,618.3z"/>
		<path d="M335.8,615c-2.3-2.1-5.5-3.7-4.7-7.8c6.2-0.3,2.6,5.5,4.5,7.9C335.7,615.1,335.8,615,335.8,615z"/>
		<path d="M446.9,679.8c2.3,1.9,1.2,4.7,2.8,6.7c0.4,0.5,0.3,1.7-0.9,1.9c-1.3,0.2-1.9-0.4-1.9-1.7
			C446.9,684.4,446.9,682.1,446.9,679.8z"/>
		<path d="M435.1,561.3c4.1,0.8,6.4,2.8,8,5.7C440.3,565.8,436.9,565.6,435.1,561.3z"/>
		<path d="M793.4,618.2c2.3,0,4.7,0.8,6.5-1.4c0.6-0.7,1.6-0.2,2,0.6c0.5,1-0.2,1.7-1,1.7c-2.8,0.3-4.6,2.1-5.8,4.3
			c-1.2,2.2-2.7,3.7-5.1,2.5c-2.1-1-3.2-3.2-2.9-5.4c0.4-3.1,3.1-2.3,5.2-2.3C792.7,618.2,793,618.2,793.4,618.2z"/>
		<path d="M897.8,586c0.3-1.7-0.1-4.8,3.3-4.3c1.9,0.2,5,0.4,4.6,3.9c-0.3,3-1.9,5.2-4.9,5.4C897.9,591.2,897.7,588.9,897.8,586z"/>
		<path d="M815.2,475.6c1.3-1.1-0.1-4.6,3.4-4.1c1.9,0.3,4,0.8,3.6,3.7c-0.4,2.5-1.6,4-4.1,4.1C815.8,479.4,815.3,477.8,815.2,475.6
			z"/>
		<path d="M858.9,586.9c-0.7,2.3-2.1,3.8-4.9,3.7c-1.9-0.1-3.4-0.7-3.1-2.9c0.4-2.7,2.4-3.8,4.9-4.1
			C858,583.4,858.8,584.6,858.9,586.9z"/>
		<path d="M780.1,604.7c-1.9,0.2-1.7-1.2-1.8-2.3c-0.2-2.1,0.9-3.9,2.7-4.1c1.4-0.1,2,1.9,2.2,3.4
			C783.6,604.1,781.5,604,780.1,604.7z"/>
		<path d="M764.6,633.4c2.3,1.4,0.7,3.5,1.9,5c2.5-0.2,2.2-3.4,4.6-4.4c-1.2,3.1-1.2,7.4-5.5,6.3
			C762.6,639.5,764.2,636.1,764.6,633.4z"/>
		<path d="M832.4,812.8c-1.9,2.6-5.4,2.7-7.5,4.7c0.4,1.3,2.3,0,2.7,1.8c-12.5,5.2-23.5,13.7-36.5,17.9c-7.9,2.5-15.4,7.4-24.4,5.4
			c-2.4-0.5-4.4,1.2-5.5,2.9c-7.8,11.3-17.7,20.4-28.3,29.1c-5.2,4.2-10.6,7.9-16.2,11.4c-1.5,0.9-3.2,2.2-5.7,0.8
			c6.3-5.1,14.5-7.3,18.8-14.5c-4.9,1.8-9.3,4.4-13.5,7.5c-1.2,0.9-1.7,3.6-3.7,1.5c-1.8-2,0.4-3.1,1.7-4.4
			c7.8-8.3,18.1-13.3,27.3-19.6c6.3-4.4,11.3-11.3,13.4-19.4c1.1-4.3,4.8-7.2,7.1-10.8c0.8-1.1,3.8-2.9,5.9-0.1
			c3.6,4.7,8.5,4.1,13.4,2.8c4-1.1,7.9-2.6,11.4-5c4.8-3.3,10.5-4.1,16.1-5.5c6.7-1.7,12.7-5.3,19.5-6.6
			C829.8,812.4,830.9,811.6,832.4,812.8z M778.4,838c-4.2,0.5-8.4-1.5-13.7,0.5C770.1,840.2,774.3,840.9,778.4,838z"/>
		<path d="M521.1,921.7c-4.1-2.7-8.5-0.6-12.8-1.3c-16.1-2.7-32-1.5-47.9,3.2c-17.6,5.2-34.1,12.2-48.9,23.1c-1.1,0.8-2.1,1.4-3,0.1
			c-1.1-1.6,0.9-1.7,1.4-2.6c4.8-8.1,14.3-11,20.1-18c1.8-2.2,5.5-2.9,8.5-4.1c10.2-4.3,20.1-9.4,30.6-13c5-1.7,10.1-1,14.7,0.7
			c8.1,3,16.7,4,25,6.1c2.9,0.7,6.1-0.2,9.1,0c2.3,0.2,5.5-2.2,6.9,1.9c0.4,1.1,1.4-0.1,1.9-0.6c2.2-1.9,3.8-4.2,5.5-6.6
			c5.2-7.5,12.2-11.2,21.6-10c4.1,0.5,8.3,0,12.5,0c14.1,0.1,28.1,2,42.2,1.3c4-0.2,7.9-1,12-1.2c-4,1.5-8.1,3.3-12.3,3
			c-7.9-0.4-15.9,0.1-23.7,0c-11.8-0.1-23.8-1.2-35.7,0.1c-6.5,0.7-11.7,4.2-15.2,9.8c-4.5,7.3-12.3,11.3-17.3,18
			c-0.8,1.1-1.7,0.8-2.5-0.2c-1-1.3-0.5-2.1,0.8-2.8C517.5,927,519.8,924.8,521.1,921.7z"/>
		<path d="M864.5,723.2c-10.1,7.7-21.9,8.7-33.8,10.3c-10.5,1.4-21.2,3-29,11.4c-1.4,1.5-2.4,3.4-4.6,3.8c-0.7,0.1-1.3,1.4-2.1,0.3
			c-0.5-0.8-0.2-1.5,0.4-2.2c9.5-10.3,21.7-15,35.3-16.3c11.2-1.1,22.1-2.8,30.9-10.4c4-3.4,6.7-8.2,11.7-10.8
			c7.6-4,15.5-7.1,23.7-9.3c1.3-0.4,3.1-0.5,3.4,1.2c0.3,1.3-1.4,1.8-2.5,2.1c-4.8,1.5-9.3,3.8-14,5.4c-8.3,2.8-10.4,10.2-14,16.7
			c-2.9,5.3-6.1,10-10.5,14.6c-9.4,9.7-21,14-33.2,17.3c-7.5,2.1-15.6,2-23.3,3.6c-10.9,2.2-22.5,3.6-29.8,13.7
			c-3.2,4.5-5.9,9.4-8.8,14.1c-0.6,0.9-0.9,2.6-2.4,1.8c-1.9-1-0.5-2.4,0.1-3.4c3.2-5.7,6.7-11.3,9.7-17.1c1.9-3.8,5.5-5.5,8.7-7.5
			c8-4.9,16.3-8.7,26.3-8.9c16.8-0.5,32.1-6.3,45.5-17C857.2,732.9,861.5,728.8,864.5,723.2z M852.4,742c-5.6,1.1-9.2,5.8-14.7,7.2
			c-5.1,1.3-9.9,3.4-14.9,5.1C833.9,752.8,844.1,749.4,852.4,742z M793.9,760c4.4-0.8,8.8-1.7,13.1-2.5
			C802.4,757,797.6,756.5,793.9,760z"/>
		<path d="M738.1,889.2c7.6-15,16.9-27.7,32.8-34.3c13-5.4,25.6-11.6,38.4-17.3c1.3-0.6,1.6-2.3,3.3-2.1c0.9,0.1,2.1-0.1,2.5,1.3
			c0.2,0.8,0.6,1.2-0.5,1.9c-7.5,4.2-12.4,11.3-18.7,16.8c-7,6-14.4,11.1-22.6,14.9c-10.4,4.8-20.4,10-29.8,16.5
			C741.8,887.9,739.9,888.4,738.1,889.2z M794.2,847.9c-3.2,3.9-7.5,7.1-9.6,12.9C790.8,858.1,791.3,852.1,794.2,847.9z
			 M788.5,850.3c-4.9,1.9-8.8,2.7-12.1,5.1c-0.6,0.4-2.5,0.2-1.6,1.8c0.8,1.4,1.6,0.4,2.3-0.4c0.9-1.1,2.7-1.2,3.3-1.9
			C782.5,852.7,786.4,854.7,788.5,850.3z M761.5,872.3c6.8-0.9,5.6-6.4,7.3-9.9C766.6,865.5,764.3,868.5,761.5,872.3z M804.6,842.6
			c-5.8,0.8-5.5,5.6-8.1,7.8C799.3,848.5,802.2,846.6,804.6,842.6z"/>
		<path d="M619.2,890.2c-0.6-9.1,5.4-12.1,11.3-14.8c10.8-5.1,22.6-7.3,34-10.7c6.8-2,10.8-7.3,16.3-10.7c1.2-0.8,2.1-3.5,4-1.1
			c1.7,2.2-1.1,2.4-2,3c-3.5,2.4-5.4,6.3-8.5,9c-9.2,8.2-20.2,12.7-31.8,16.4C634.7,883.8,626,883.8,619.2,890.2z"/>
		<path d="M696.2,909.2c-3.5,3-7.5,4.4-11.8,4.2c-9.8-0.6-19.7-0.8-29.5-0.2c-6.7,0.5-12.6,4.5-17.9,8.4
			c-8.6,6.3-16.6,13.2-26.4,17.7c-5.3,2.5-11.1,2.8-16.5,4.8c-8.3,3.1-16.1,6.5-21,14.5c-0.4,0.6-1,1.4-2.4,0.9
			c0-3.1,2.1-5.4,4.1-7.4c6.7-7,15.6-10.1,24.5-12.2c10.2-2.4,18.9-7.1,27.1-13.4c10.3-8,20.5-16.7,34.8-16.3
			c5.7,0.2,11.3,0.7,16.9,0.9C684.2,911.2,690.3,911.4,696.2,909.2z"/>
		<path d="M418.2,915.6c-0.7,2.7-2.8,4-5.4,4.4c-2.4,0.4-3.4-0.9-3.7-3c-0.3-2.6,0.9-4.7,3.4-4.6
			C414.5,912.4,417.4,912.4,418.2,915.6z"/>
		<path d="M744.4,799.9c0.4,1.9-1.9,2.9-0.6,4.7c1.9-0.4,3.6-1.5,3.8-3.4c0.3-2.6-2.9-1.6-4.1-3.4c2.4-1.4,4.7-1.2,6,1.1
			c1.1,2,0.6,4.1-1.4,5.9c-2.1,1.8-4.3,2.8-6.9,1.8c-0.6-0.2-1.1-1.7-1-2.6C740.6,801.8,741.5,800,744.4,799.9z"/>
		<path d="M469.5,880.3c-0.5,0-1.1-0.1-1.5,0.2c-1.9,1-3.8,1.6-5.4-0.4c-1-1.3-1-3.3,0.1-4.2c1.6-1.3,3.8-2.4,6-1.3
			c2.2,1.2,1.1,3.1,0.6,4.8c-0.1,0.3,0.1,0.7,0.1,1C469.3,880.5,469.5,880.3,469.5,880.3z"/>
		<path d="M733,821.6c-0.2,2.4-1.3,4.1-3.5,4.5c-2,0.3-3.1-1.6-3.3-3.2c-0.4-3.2,2.7-2.9,4.4-3.6C732.4,818.6,732.5,820.6,733,821.6
			z"/>
		<path d="M766.6,795.8c2.6-0.9,5.4-2.4,6.3,0.9c0.8,2.8-2.5,3.7-4.4,4.8c-1.3,0.8-3,0.1-3.1-1.4c-0.1-2.4,1.2-1.6,2.4-0.7
			c0.1,0.1,1.4-0.6,1.5-1.1C769.9,796,767.2,797.3,766.6,795.8z"/>
		<path d="M569.9,661.1c1.5,8.9,9.3,16,7.9,25.7C575,678.2,572.1,669.7,569.9,661.1z"/>
		<path d="M520.2,782.6c-2.5,1-3.3,4.3-6.1,4.6c-1.8,0.2-2.2-1.9-2-3.4c0.4-2.7,1.9-4.3,4.8-4.2
			C518.6,779.5,519.4,780.8,520.2,782.6z"/>
		<path d="M511.1,761.8c-3.3,0.2-3.9-1.1-4-2.8c0-2.1,1.2-3.6,3.2-3.9c2.2-0.3,2.7,1.4,2.8,3.3C513.2,760.8,512,761.8,511.1,761.8z"
			/>
		<path d="M588.4,715.3c4.7,1.8,3.4,6.6,5.8,9.2c0.6,0.7-0.4,1.2-0.8,1.4c-0.7,0.4-2.1,0.5-2.1-0.3
			C591.2,722.1,588,719.4,588.4,715.3z"/>
		<path d="M493.2,789.8c-1-0.2-2.6-0.3-2.4-2.2c0.3-3.2,5-0.7,5.5-3.9c0.7,0.8,2.8,0.8,2.3,2.3C497.8,788.3,495.8,789.4,493.2,789.8
			z"/>
		<path d="M500.9,669.8c-0.8-2.7,3.2-5.5,0-8.2c-0.1,0,0.5-1.1,0.6-1c4.1,1.1,4.2-3.4,6.6-4.7C506.2,660.8,504,665.5,500.9,669.8z"
			/>
		<path d="M584.8,703.1c0.4,0.4,0.9,0.6,1,1c0.3,0.8,0.5,1.6,0.5,2.4c0.1,2,3.2,3.4,1.1,5.7c-0.1,0.2-1,0.1-1.1-0.1
			c-1.2-2.5-2.5-5-2.6-7.9C583.8,703.9,584.4,703.6,584.8,703.1z"/>
		<path d="M548.6,596.3c-3.7-0.6-4.1-3-3.7-5.7c0.1-0.7,0.8-1.4,1.4-1.1C548.9,591,548.9,593.4,548.6,596.3z"/>
		<path d="M552.4,603.3c0.3,1.8,0.5,3.6,0.9,5.4c0.2,1,0.5,2.1-0.9,2.4c-1.3,0.3-1.6-0.9-1.9-1.8
			C549.9,606.8,548.5,604.3,552.4,603.3z"/>
		<path d="M357.8,894.5c2.1,0.1,4.9,0.7,4.4,4.1c-0.4,2.8-2.4,5-5.4,5c-3.7,0.1-4.2-3.3-4.5-5.7C352,894.8,354.8,894.5,357.8,894.5z
			"/>
		<path d="M943.8,558.8c-0.6-0.2-1.4-0.3-1.8-0.7c-3.5-4.1-8.4-6.5-12.3-10c-3.5-3.1-6.2-7-11.4-7.4c-1.2-0.1-2.6-0.7-1.9-2.3
			c0.5-1.3,1.8-0.3,2.7-0.2c4.6,0.3,8.6,1.6,10.9,6.1c0.9,1.9,2.8,2.5,4.5,3C939.8,549.1,941.5,554.1,943.8,558.8z"/>
		<path d="M901,517.6c-1.7-0.2-3.5-0.5-3.4-2.7c0.1-2,1.1-5.1,3-4.1c1.9,1.1,5.5-2,5.8,2.2C906.4,514.4,902.6,517.5,901,517.6z"/>
		<path d="M860.3,508.3c-1.7,2-4.9,3.3-3.8,5.5c1.6,3.1,5.5,2.1,8.5,3c-3.4,2-6.9,0.2-10.2-0.2c-1.4-0.2-1.1-2.3-0.8-3.6
			C854.6,510.5,857.1,508.7,860.3,508.3z"/>
		<path d="M937.6,525.5c1.6-0.1,2.1,0.7,1.8,1.5c-0.9,2.6-2.8,4.5-5.4,5.3c-1.3,0.4-2.3-0.8-2.3-2.1
			C931.8,526,936.2,527.4,937.6,525.5z"/>
		<path d="M883.2,508.9c-2.5-1-5.1-1.8-3.3-4.7c1.6-2.6,4.4-3.3,7.4-2.2c0.9,0.4,1.3,1.1,0.9,2c-0.3,0.6-0.7,0.5-1.5,0.3
			C882.5,503,881.9,503.8,883.2,508.9z"/>
		<path d="M918.3,495.2c-3-4-2.8-7.7,0-9.1c1.5-0.8,2.8-0.3,3.4,1.1c0.8,1.8-1.1,1-1.7,1.3C917.8,489.7,917.8,489.7,918.3,495.2z"/>
		<path d="M408,882.7c-3.6-2.6-2.6-5.2-0.2-7.8c0.7-0.7,1.5-0.6,2.3-0.1c0.6,0.4,1.1,1.3,0.4,1.6C407.8,877.9,409.3,880.9,408,882.7
			z"/>
		<path d="M138.6,827c-1.4,7.6-1.1,8,5.2,7c-2.2,2.5-4.9,3.9-7,1.8C134.3,833.1,135.3,829.9,138.6,827z"/>
		<path d="M858.4,643.7c-1.7-0.2-3.4-0.8-3.2-2.6c0.3-2.2,2.5-2.4,4.3-2.9c1.7-0.5,2.4,0.6,2.3,1.7
			C861.7,641.9,860.5,643.3,858.4,643.7z"/>
		<path d="M549.4,768.5c-2.5,1.4,1.9,4.9-1.9,5.7c-0.9,0.2-2.4,0.2-2.4-1.1C544.9,770.3,547.2,769.4,549.4,768.5z"/>
		<path d="M665.7,310.7c-2.1,1-3.1-0.6-4.1-1.9c-3-4.2-7.1-7.6-9.7-13.5C657.7,300.3,660.3,306.8,665.7,310.7L665.7,310.7z"/>
		<path d="M665.7,310.7c2.3,3,4.6,6,7.9,7.9c0,0-0.1-0.1-0.1-0.1c-1,1.1,1.1,2-0.1,3.7C671.6,317.6,665.8,316.2,665.7,310.7
			C665.7,310.7,665.7,310.7,665.7,310.7z"/>
		<path d="M390.4,849.5c-1.1,3.5-7.9,3.3-5.8,8.8c-0.5,0.2-1.1,0.5-1.6,0.4c-1.5-0.3-2.1-1.5-1.9-2.9
			C381.6,852.9,387,849.3,390.4,849.5z"/>
		<path d="M548.9,322.4c-0.9-0.5-3.5,1.4-2.3-2c0.6-1.6,2-3.2,1-5.2c0.2-2.8-0.2-5.8,2.6-7.6c1.3,0.8-0.6,2.3,0.8,3.1
			c3.2-3.9,2.2-11.2,9.5-11.7C555.9,306.4,552,314.2,548.9,322.4z"/>
		<path d="M574.6,286.6c-1.2,7.2-4.1,13.5-9.6,18.5c3.4-4.4,5.4-9.6,7.3-14.8C572.9,288.9,573.3,287.5,574.6,286.6z"/>
		<path d="M591.9,293.9c3.7-6.7,6.6-13.9,10.8-21.6C601,281.3,596.9,287.9,591.9,293.9z"/>
		<path d="M612,286.9c2.3-5.7,5.3-10.8,9.9-14.9C618.6,277,615.3,282,612,286.9z"/>
		<path d="M781.9,638.1c0.2,0.4,0.3,1.1,0.6,1.2c1.9,0.7,3.9,1.5,2.4,3.8c-1.1,1.6-3.6,0.8-4.7,0c-2.2-1.5,0-2.7,1.1-3.8
			C781.6,639,781.7,638.5,781.9,638.1C781.9,638,781.9,638.1,781.9,638.1z"/>
		<path d="M629.1,311.4c3.2,4,6.4,8,9.6,12C634,320.7,631.6,316,629.1,311.4z"/>
		<path d="M688.7,281.6c5.7-5.3,13.2-7.7,19.3-12.4c-4.6,6.3-9.5,12.1-17.4,14.6C687.8,284.8,688.9,282.8,688.7,281.6z"/>
	</g>
</g>
</svg>
