<svg id="Layer_1" data-name="Layer 1" xmlns="http://www.w3.org/2000/svg" viewBox="0 0 890.3 984.65"><title>amaze</title><path d="M57.53,625.09c1,12-4.84,22-5.41,33.47-.59,11.67,3.33,20.71,11.47,27.58,17.17,14.47,32,31.33,48.88,46.07,5,4.38,7.54,8,2.87,13.95-1.79,2.26-3.28,5-.36,7.4,2.51,2,5.49,1.24,7.76-.63,10.57-8.67,12,3.62,17.1,7.4,6.81,5.09,1.74,8.65-1.88,12.33-2,2-4.43,4.13-2.89,7.24,1.74,3.51,5.07,2,7.42,1,11.15-4.53,8.65,6,11.16,10.34,3.18,5.46,2.81,10.78-4.7,13a35.64,35.64,0,0,0-5.66,1.94c-2.21,1.08-4.29,2.69-4,5.47.44,3.93,4,4.14,6.45,3.53,10-2.47,11.06,4,12.44,11.1,1.64,8.45-1.7,12.94-9.82,14.68a20.58,20.58,0,0,0-6.62,2.63c-3.2,2-5.59,5-4.23,9.07,1.59,4.78,5.85,3,9.23,3.12a11.78,11.78,0,0,0,3.49-.77c3.93-1.19,8-6.77,11.7-2.6,4.49,5.11,4.14,12.69,5.2,19.33.39,2.43-2.65,2.26-4.39,3.06a70.66,70.66,0,0,0-11.64,6.08c-3.45,2.42-5.64,6-2.88,10.38,3,4.72,6.67,2.43,10.51.84,5-2.09,8.08-6.24,11.6-10.18,3.69,2.54,3.83,7.18,6.23,10,5.23,6.08,2.82,9.81-2.53,13.43a2.87,2.87,0,0,0-.9.79c-2.87,4.53-14.29,6.23-6.57,14.18,6.43,6.61,12.19,2,16.27-4.84,1.55-2.58,3.69-6.11,7.53-3.15,3.27,2.52,5.83,5.61,2.21,10.08a67.33,67.33,0,0,0-6,9c-1.9,3.34-2.69,7.48.34,10,3.27,2.73,6.81.59,9.39-2.35,1.85-2.1,3.45-4.43,5.32-6.51s3.38-6.22,7.47-3.75c3.32,2,2.88,5.27,2,8.58a48.37,48.37,0,0,0-1.65,9.44c-.18,3.7-2.43,8.62,3.12,10.23,5.84,1.69,9.38-2.28,10.93-7,2-6.11,3.34-11.49,11.88-9.78S243,948,242.65,954a17.63,17.63,0,0,0,0,2.41c.42,5.06-.67,11.21,6.41,12.52,8.43,1.56,5.57-7,9-11.08,5.9,2,8.14,8.12,12.37,11.81,4.39,3.83,8.4,5.36,12.48,1.24s1.19-8.21-2.07-11.5c-11.53-11.63-22.77-23.26-31.56-37.45-10.66-17.23-19.92-34.59-21.34-55.16-2-28.42-4.6-57.05,1.28-85.12,9-43,23.1-84.59,38.2-125.8.67-1.84,1.33-4.09,2.75-5.19,14.52-11.32,5.63-24.59,3.08-37.17-1-4.92-5.13-7.18-10.11-6.46A39.38,39.38,0,0,0,252.89,610c-21.39,9.46-36.66,4.35-48.62-16.11C195.35,578.58,189,562.2,183,545.7c-5.89-16.33,2.63-31.36,6.63-46.49,5.82-22,20.1-40,39.58-49.42,20.67-10,44-16.71,68-6.7,8.23,3.43,7.29,6.89,2.37,11.91-12.47,12.71-21.74,27.45-29.79,43.33C257.36,522.77,258.91,547.64,265,573c1.07,4.43,2.61,9.39,8.34,8.24,7.23-1.44,4.54-7.7,3.75-11.85-8.46-44.22,4.37-80.7,34-114.84,19.77-22.82,43.39-30.75,70.51-35.43,16.92-2.92,33.47-7.69,51-7.55,8.73.07,10.94-5.24,6.13-13-8.29-13.46-18.94-24.71-31.22-34.53-2.42-1.94-5.9-2.83-7.16-8.41,14.22,5.4,26.69,11.29,37,21.25,4.73,4.59,8.7,13.78,15.72,10.52s1.05-12-.42-17c-5.55-18.87-14.41-36.34-29.6-49.74-2.08-1.84-4.56-3.33-5.37-6.88,5.82-2.36,8.68,2.33,11.79,5.23a130.67,130.67,0,0,1,36.14,58.61c2.93,9.69,7.87,12.81,17.75,9.34,14.67-5.16,21.89,7.23,30.12,15,6.56,6.2.56,13.2-3,19.46-6.9,12.23-5.78,16,7.45,19.79,14,4,26.77,10.31,39,18,1.73,1.08,5.43,1.66,3.52,4.91-1.43,2.44-3.79,3.64-7.09,1.64-12.86-7.79-28.09-8.65-41.84-13.93-2.59-1-5.92-2.1-7.55,1-2.15,4.11,1.53,6,4.42,6.95,12.14,4,20.13,12,24,24.32A112.45,112.45,0,0,0,505,467.11c-8.86-3.74-16.09-3.28-20.21,5.71-15.47,33.73-32.61,66.92-38.64,104.12-2.13,13.19,16.41,34.69,30.22,35.15,14.48.49,27.44-3.62,38.77-13.3a609.73,609.73,0,0,0,96.39-103.71c3.32-4.54,8.58-9.52,3.47-14.64-5.77-5.78-11.06-1-16.62,3.08-21.15,15.68-37.74,36-55.79,54.69-17.63,18.3-37.84,33.5-57.09,49.85-4.5,3.83-9.47,9.71-16.78,4.84-6.74-4.5-5.5-10.82-5.29-18,.72-24.29,20.69-33.11,35.5-45.54,18.34-15.39,40.61-25.63,57.94-42.58,3.42-3.34,7.62-5.89,11.07-9.21,24.94-24,16.36-27.24-2.11-48.67a8,8,0,0,0-6.49-2.64c-5.14.13-11.67,3.17-15.11-.8-5.64-6.52-9.57-14.58-13.87-22.2-1.79-3.17.59-6.15,1.91-9,32.3-70.56,64.41-141.17,102.3-209.08,21.41-38.38,39.49-78.61,59.13-118,3.7-7.42,7.68-14.71,12.23-23.38,9.89,14.33,13.27,29.89,21.1,43,12.55,21,29,39,46.64,56.18a704,704,0,0,0,87.83,72.81c5.23,3.68,11,6.57,16.44,10,4,2.49,11.42,1.84,11.89,6.58.55,5.57-6.49,7.43-10.82,9.94Q810.56,282,741.82,321.28c-5.44,3.1-7.87,6-5.62,12.25,7.9,22,11.34,44.76,12.45,68a62.26,62.26,0,0,1-5,26.91c-12.11,28.6-30.21,51.93-61.7,61.42-1.15.34-2.38,1.44-3.34,1.22-22.64-5.26-30.38,13.58-41.34,26.21-23.92,27.54-41.54,59.84-65.59,87.47-13.88,15.94-29,30.92-40.62,49-3.81,5.94-11.74,8.94-18.62,10.32C493,667.9,474.59,677,454,675.07c-4.45-.42-9.86.51-9.92,6.17-.05,5.18,5.15,5.31,9.15,5.5,13.21.62,26.47,1.69,39.48-1.73,6.19-1.63,9,.06,11.3,6.57a414,414,0,0,1,16.83,59.82c1.58,7.89-3.48,7.55-7.37,9.28-26.33,11.71-52.9,23-74.1,43.4-2.75,2.66-8.22,5.58-5.54,9.46,3.35,4.85,7.85,0,11.35-2,16.34-9.32,32.3-19.34,48.88-28.22,25.07-13.42,51-24.43,80.32-24.22,6.66,0,11.93,2,15.2,7.69,12.84,22.46,22.62,46.29,21.68,72.46-1.06,29.38-10.2,55.56-35.81,73.88-16.75,12-30.15,28.84-52.27,32.47-6.46,1.06-12.78.32-19.11,1-2.83.32-7.19-1.34-7.51,3.59-.28,4.17,3.79,5,6.58,5.88,14.74,4.39,30.26,2.72,45.24,5.4,15.88,2.85,31.92,2.31,47.94,2.54a84.11,84.11,0,0,1,17.78,2.3c5.3,1.24,7.42,5.41,7.52,10.9.1,5.2-.69,10.06-6,11.91-9.39,3.27-18.67,7-29,7-39.29-.23-78.48-.91-117.84,1.75-46.47,3.14-93-.12-138.51-11.86-9.75-2.52-19.53-2.19-29.7-1.65-36.66,1.93-73.75,6.3-108.49-11.59-26.27-13.53-50.72-28.46-64.5-56.56-5.51-11.23-7.77-22.76-8.72-34.61-1.79-22.39,0-44.58,3.45-66.91,4-25.77,1.5-50-24-66.63C80.7,736.51,65.68,721.17,51.6,705.25,38.82,690.79,34.38,673.42,37,654.84,38.71,642.07,49.78,634.46,57.53,625.09ZM721.39,384c.51-7.86-3.45-19.36-6.13-31-1.65-7.17-5.57-10.27-13.08-5.85-33.11,19.47-66.73,38.09-98.46,59.85-6.63,4.54-7.35,9.75-4.07,16.51,3,6.25,7.32,9.65,14.37,6.89,8.48-3.33,11.51.08,12.48,8.42,1.63,14,4.86,15.48,16.16,6.93,8.36-6.32,13.29-5.67,16.4,4.76,2.69,9,9.49,11.2,18,9.78,9.39-1.57,17.57-5.36,23.62-13C714.31,430,721.59,410.49,721.39,384ZM355.23,692.19c21.15,2.94,37.84-12.43,53.5-27.91,19.32-19.12,20.4-55.09,3.51-75.52-4.09-5-8.05-15.21-16.52-8.57-7.66,6,1.9,11.32,4.82,15.89,17.6,27.51,10.21,58.79-18.2,74.52-36.1,20-72.24,3.78-81.14-36.35-6.57-29.63-.22-56.31,18.24-80.26q8.43-10.95,16.62-22.07c1.76-2.4,2.51-5.47-.07-7.53-.84-.67-4.15.37-5.24,1.6-15.41,17.32-33.82,33.36-40.84,55.76-8.8,28.08-8.44,56.8,9.35,82.67C311.8,682.66,328.18,693.84,355.23,692.19Zm281-431.79c4.1-.62,6-3.69,8.15-6.64,28.48-39.86,50.27-83.71,74.91-125.86,2.65-4.54,1.47-8.8-3.1-11.31-6.06-3.32-8.61,1.37-11.07,5.66q-33.43,58.32-66.82,116.68a100.24,100.24,0,0,0-6.61,14.12C630.2,257,631.12,260.26,636.26,260.4ZM348.94,569.83c-3.68,32,15.69,53.26,34.69,74.61,4,4.45,9.77,7.47,14.77,2.64,5.94-5.76-1-9.1-4.38-12.35-11.26-11-20.93-22.81-27-37.7s-6.21-30.33-7.5-45.77c-.31-3.71-.19-7.84-4.94-8.15s-5.52,3.81-5.61,7.52C348.82,557,348.94,563.43,348.94,569.83ZM619.66,295.07c-.19-3.51.65-7.31-3.45-8.44s-6.79,1.5-8.8,4.75q-13.95,22.47-27.85,45c-2.45,4-6.83,8.49-.7,12.27,4.82,3,9.11.12,12.35-4.15,10.45-13.75,18.6-28.92,26.94-44C619.09,298.8,619.23,296.67,619.66,295.07ZM388,978.94a5.17,5.17,0,0,0-2.95-5.18c-17.32-8.23-34.63-16.48-52.09-24.41-3.08-1.4-6.43-.21-8,3.33-1.65,3.7.47,6,3.21,8.08,15.38,11.51,33.44,16.87,51.48,22.2C383.2,984,386.91,983.26,388,978.94Zm-73-28.61c0-2.92-1.61-4.6-3.39-6.31-10.08-9.75-21-18.66-29.9-29.57-2-2.48-4.93-5.51-8.11-3.43-3.81,2.48-2,6.58-.1,9.66,8.21,13.17,20.87,22,32.14,32.17C308.85,955.75,313.19,955.57,315,950.33Zm95.31-444.52c-8.09,1.23-14.07,5.8-14,13.68,0,6.77,5.27,11.93,12.94,10.94,7.32-.95,14.8-4,14.89-12.61C424.19,509.85,417.59,506.83,410.29,505.81ZM306.66,856.06c-1.62-9.59-3.32-19.76-5-29.92-.6-3.56-1-7.85-6-7.11-4.45.66-5,5-4.77,8.46.69,10.7,1.72,21.42,5.8,31.47,1.36,3.34,1.5,9.36,6.82,8.09C308.64,865.83,305.1,860.18,306.66,856.06ZM281.79,751.51c.49,3.16-2.06,8,3,8.91,4.62.78,5.63-4.09,6.34-7.31q4-18,7.06-36.28c.5-3-.27-6.86-4.43-7.22-3.41-.29-4.28,2.74-5.22,5.49C284.55,726.88,283.23,739.16,281.79,751.51Zm-8.51,116.16c2.56,12.23,6.78,23.71,15.18,33.27,1.67,1.91,3.85,3.3,6.32,2.12,3.2-1.53,3-4.7,1.82-7.25q-7.34-15.67-15.21-31.1a4.56,4.56,0,0,0-6.17-2.09C272.88,863.58,273,865.62,273.28,867.67Zm360-381.39c2.8-.26,17.81-22.15,16.78-24.65a7.13,7.13,0,0,0-2.19-2.8c-2.42-1.83-5.41-2.41-7.83-.63-6.52,4.83-12.16,10.55-12.71,19.27-.19,3.13.57,6.45,3.66,8.38A6.18,6.18,0,0,0,633.24,486.28ZM309.1,763.53c.64-3.63,1.07-7.87-3.46-8.72-4.89-.92-5.61,3.92-6.22,7.1-1.4,7.39-2.13,14.92-3,22.4-.4,3.62-.58,7.59,4.29,8.35s6.32-3.24,6.76-6.65C308.44,778.57,308.61,771,309.1,763.53ZM287.34,661.22c-.95-2.1,0-4.61-2.83-5.1-2.25-.4-3.73,1-5,2.6-5.4,6.74-6.58,15.15-8.89,23.09-.67,2.27-.51,5.07,2.08,6.23,3.34,1.51,5.55-1.06,6.5-3.5C282.23,676.81,284.71,668.88,287.34,661.22Zm-16,72.95c-.24-2.81.77-5.95-2.15-6.77-3.51-1-5.14,2.28-5.74,4.76-2.08,8.55-3.75,17.21-5.32,25.87-.4,2.17-.91,5.24,2.47,5.68,2.84.37,4.38-2,5-4.34C267.65,750.85,269.49,742.26,271.32,734.17ZM244.84,871.78a38.44,38.44,0,0,0,5.35,19.38c1.64,2.88,4.07,3.83,7,2.5s2.37-3.9,1.67-6.2c-1.73-5.72-3.63-11.38-5.48-17.06-1-3.16-.34-8.44-5.48-7.55C243.27,863.66,244.6,868.34,244.84,871.78Zm368-426.68c-.56-4.59-2.79-7.17-6.42-6.17-8.26,2.27-12.12,8.61-12.57,16.8-.17,3.09,1.45,7.47,5.48,5.64C606.4,458.14,609.88,451.28,612.82,445.1Zm-106.23-33c-2-5.35-6.92-8.24-11.38-11.38-3.1-2.19-6.15-8.68-10.39-3.56-3.34,4-.19,9,3.68,12.4,3.23,2.86,5.85,6.73,10.43,7.55C502.62,417.75,506.3,417.61,506.59,412.09ZM323.36,915.33c-4.46.19-8,2.33-6.84,5.57,2.42,7,8.32,11.33,15.12,13.8,2.56.93,4.74-1.78,4.29-4.28C334.58,922.83,329.17,918.49,323.36,915.33Zm-76.5-101.48c.64,6.79,1,12.76,1.84,18.67.35,2.59.68,6.23,4.47,5.87,3.46-.34,3.84-3.33,3.56-6.38-.56-5.93-.84-11.88-1.5-17.79-.33-3-.08-7.26-4.59-7S247,811.61,246.86,813.85Z" transform="translate(-36.25 -14.37)"/><path d="M730.37,14.37A74.3,74.3,0,0,1,759,22.77c33.13,17.87,64.78,37.65,92.51,63.71,18,17,37.26,32.63,53.15,51.85,5,6,7.81,11.54,8.76,19.91,1.37,12,6.75,23.62,11.1,35.14,3,8,3.45,15.21-4,20.36-8.4,5.84-15.28,14.49-28.64,7.8a332.51,332.51,0,0,1-81.17-56.62c-21.09-20.14-43.74-39-61.46-62.47-14.75-19.52-25.52-41.54-37.09-63C707.28,30.33,718,14.43,730.37,14.37ZM891.56,157.55c.75-4.11-1-7.32-3.11-10.26-7.78-11.15-16.06-21.89-24.85-32.34-18.92-22.49-46.05-34.2-67.74-53.11-12.24-10.67-27.33-18.08-41.11-27-4.67-3-9.6-4.87-14.46-1.09-4.64,3.62-3,8.82-1.75,13.38C741.07,56,744,64.48,750.29,71.77c42.49,48.86,88.15,94,144.64,126.9,4.2,2.44,8.5,4.51,13.6,3.92,3.61-.42,5.31-2.5,3.75-5.69-2.26-4.62-4.23-11.17-8.1-12.88C891.44,178.39,892.22,167.91,891.56,157.55Z" transform="translate(-36.25 -14.37)"/></svg>