<svg xmlns="http://www.w3.org/2000/svg" xmlns:xlink="http://www.w3.org/1999/xlink" version="1.1" x="0px" y="0px" viewBox="0 0 100 100" enable-background="new 0 0 100 100" xml:space="preserve"><g><path d="M50,16.72C31.649,16.72,16.721,31.649,16.721,50c0,18.352,14.929,33.28,33.279,33.28S83.279,68.351,83.279,50   C83.279,31.649,68.351,16.72,50,16.72z M50,80.59C33.132,80.59,19.41,66.868,19.41,50c0-16.867,13.722-30.59,30.59-30.59   c16.867,0,30.59,13.723,30.59,30.59C80.59,66.868,66.867,80.59,50,80.59z"/><path d="M36.699,24.8c-1.955,1.034-3.792,2.299-5.459,3.759c-0.455,0.398-0.5,1.088-0.103,1.542   c0.216,0.247,0.519,0.373,0.823,0.373c0.255,0,0.512-0.089,0.719-0.271c1.541-1.35,3.237-2.517,5.042-3.472   c0.534-0.282,0.737-0.942,0.455-1.477C37.894,24.722,37.232,24.519,36.699,24.8z"/><path d="M30.308,30.922c-0.449-0.402-1.141-0.364-1.542,0.085C24.087,36.234,21.511,42.979,21.511,50   c0,5.476,1.558,10.793,4.503,15.378c0.209,0.325,0.561,0.502,0.92,0.502c0.202,0,0.406-0.056,0.589-0.173   c0.508-0.326,0.654-1.002,0.33-1.509c-2.72-4.233-4.158-9.142-4.158-14.198c0-6.482,2.378-12.709,6.697-17.535   C30.796,32.015,30.757,31.324,30.308,30.922z"/></g></svg>
