<svg xmlns:rdf="http://www.w3.org/1999/02/22-rdf-syntax-ns#" xmlns="http://www.w3.org/2000/svg" xmlns:cc="http://creativecommons.org/ns#" xmlns:dc="http://purl.org/dc/elements/1.1/" version="1.1" x="0px" y="0px" viewBox="0 0 100 125"><g transform="translate(0,-952.36218)"><path style="baseline-shift:baseline;block-progression:tb;color:#000000;direction:ltr;text-indent:0;enable-background:accumulate;text-transform:none;" fill="#000" d="m41.188,956.41c-8.9573,0-16.219,7.0422-16.219,15.75s7.2615,15.781,16.219,15.781c8.9573,0,16.219-7.0735,16.219-15.781,0-8.7078-7.2614-15.75-16.219-15.75zm0,1.9375c7.861,0,14.219,6.1705,14.219,13.812,0,7.6421-6.3577,13.844-14.219,13.844-7.8611,0-14.219-6.2017-14.219-13.844,0-7.642,6.3577-13.812,14.219-13.812zm0,2.9688c-6.135,0-11.156,4.8386-11.156,10.844a1.0001,1.0001,0,1,0,2,0c0-4.8922,4.0711-8.8437,9.1563-8.8437a1.0001,1.0001,0,1,0,0,-2zm21.406,28.031c-7.3668,0-13.344,5.8142-13.344,12.969,0,7.1545,5.9769,12.969,13.344,12.969,7.3668,0,13.344-5.8142,13.344-12.969,0-7.1546-5.977-12.969-13.344-12.969zm0,1.9688c6.2701,0,11.344,4.9106,11.344,11,0,6.0893-5.0737,11-11.344,11-6.27,0-11.312-4.9107-11.312-11,0-6.0894,5.0425-11,11.312-11zm0,2c-5.0732,0-9.2187,4.0294-9.2187,9a1.0001,1.0001,0,1,0,2,0c0-3.8566,3.1943-7,7.2187-7a1.0001,1.0001,0,1,0,0,-2zm-28.875,10.875c-5.3265,0-9.6562,4.2019-9.6562,9.375,0,5.173,4.3297,9.4062,9.6562,9.4062,5.3266,0,9.6875-4.2332,9.6875-9.4062,0-5.1731-4.3609-9.375-9.6875-9.375zm0,2c4.2297,0,7.6563,3.2671,7.6563,7.375,0,4.1078-3.4266,7.4375-7.6563,7.4375s-7.6562-3.3297-7.6562-7.4375c0-4.1079,3.4265-7.375,7.6562-7.375zm0,0.7812c-3.712,0-6.7812,2.9439-6.7812,6.5938a1.0001,1.0001,0,1,0,2,0c0-2.5359,2.1179-4.5938,4.7812-4.5938a1.0001,1.0001,0,1,0,0,-2zm20.25,22.562c-5.3265,0-9.625,4.202-9.625,9.375,0,5.1731,4.2985,9.4063,9.625,9.4063,5.3266,0,9.6875-4.2332,9.6875-9.4063,0-5.173-4.3609-9.375-9.6875-9.375zm0,2c4.2297,0,7.6563,3.2672,7.6563,7.375,0,4.1079-3.4266,7.4375-7.6563,7.4375s-7.6562-3.3296-7.6562-7.4375c0-4.1078,3.4265-7.375,7.6562-7.375zm0,0.7813c-3.712,0-6.75,2.9437-6.75,6.5937a1.0001,1.0001,0,1,0,2,0c0-2.5359,2.0867-4.5937,4.75-4.5937a1.0001,1.0001,0,1,0,0,-2z"/></g></svg>
