<svg id="Layer_1" data-name="Layer 1" xmlns="http://www.w3.org/2000/svg" viewBox="0 0 956.54 639.79"><title>escapade</title><path d="M17.25,407.64c2.88-5.88,9.1-7.28,14-10.41,1.79-1.14,3.37-1.39,3.34,1.66,0,3.6,2.48,4.21,5.41,4.52,10,1,18.11,6.54,26.57,11.26-8.28-1.91-15-8.47-24.59-8.45a61.07,61.07,0,0,1,3.77,7c.6,1.54,1.39,3.72-.63,4.85s-4,.23-5.25-1.45c-1.88-2.49-3.48-5.2-5.79-8.72-.39,3.64-.5,6.33-1,8.93-.29,1.42-.32,3.8-2.43,3.53-1.5-.19-1.18-2.29-1.48-3.66-.91-4.16.12-7.94,2.86-12.78-5.49,3-9.48,6.35-14.79,5.87Z" transform="translate(-17.25 -49.6)"/><path d="M357.92,392c1.89-6.81,1.52-7-6.6-5-.6-1.53,2.52-2.66.68-4.08-1.35-1-3.13-.36-4.6.34-2.25,1.08-3.94,2.41-5.31-1.52-1.12-3.19-3.37.55-5.27.36-.53-1.95,1.6-3.62.5-6.08l-10,8.39c-.67-2.48,3-3.17,1.68-6.6-3.67,4.49-8.64,6.56-12.78,9.86a1.19,1.19,0,0,0-.09,1.88,1.58,1.58,0,0,0,1.38.06c2-1,3.88-4,5.83.33.41.9,2.23-.55,3.14-1.33,1.87-1.6,3.61-3.34,6.42-6-1.29,7,1.47,9.89,6.85,10.65a16.83,16.83,0,0,1,7.53,2.7c1.3.91,4,1.07,2.27,4.16-.9,1.63,1.56,2.55,2.71,3.51,5.87,4.92,11.69,9.84,15.34,17.82-3.7-4-6.76-7.33-9.93-10.59-.91-.94-2.07-2.7-3.48-1.42s.15,2.58,1.1,3.59c4.54,4.84,9.09,9.67,11.84,15.85.65,1.46,1.81,2.72,1.22,5.14-2.47-3.54-4.8-6.69-6.89-10-.67-1.06-1.23-1.89-2.41-1.24-1,.55-.4,1.58-.16,2.4,1.65,5.71,2.34,11.59,3.33,17.43,1.12,6.67,6,11.33,9.79,16.47,2.95,4.05,4,8.72,6.08,13,.79,1.68.25,4.36-1.57,5s-2.39-1.76-3-3.19c-1-2.28-1.83-4.62-3.19-8.08-1.71,5-.39,8.83.11,12.8-4.12-1-3.13-4.82-4.42-7.54-2.55,1.41-1.89,3.76-2.25,5.7-.21,1.2-.12,2.73-1.83,2.81a5.51,5.51,0,0,1-4.31-1.86c-.9-1-.59-2,0-3.37,4.23-10.14,1.44-15-6.76-20.09-2-1.24-3.29-2.2-3.89-4.49-1.26-4.84-2.21-9.72-3-14.66-2.06-12.89-6.78-24.44-17.46-32.77-.93-.72-1.74-1.93-3.74-1.07,1.12,3,4.28,4,6.06,6.23,10.65,13.41,14.73,29,14.23,45.64-.31,10.47,1.25,20.77,1.2,31.17-.05,8.49-1.62,16.75-3.29,25-.62,3.1-3,5.4-6.43,7.63.49-4.77,4.09-7.51,4.15-12-4.53,2.43-4.75,8.95-11.17,9.66,2.06-4.28,3.79-7.9,5.87-12.23-5.41,1.35-5.56,8.91-11.7,8.62.38-1.32.39-2.34.9-2.95,5-6,5.14-12.51,2.25-19.51a5.49,5.49,0,0,1,.77-5.16c4.11-5.71,1.06-11.87.09-17.35-1.07-6-2.43-7.23-.63-14.17-2.88,0-3.15,3.17-5.84,4.27.66-5.28,1.27-10.23,1.91-15.39-2.45.82-2.52,3.74-5,5.06a74.36,74.36,0,0,1,2.26-15.05c-4.76.85-5.07,5.7-8.84,7.8,1.1-4.07,2.16-7.62,3-11.23.33-1.46,1.06-3.4-.75-4.35s-2.51.93-3.42,1.89c-2,2.06-3.79,4.25-6.25,7.06.81-4.21,1.33-7.72.78-11.31-.4-2.64-1.61-3.84-4.22-3.78-5.35.13-10.58-1.55-15.92-.65,0-.74-.12-1.14,0-1.42.7-1.49,3.57-2.83,1.77-4.38-2.09-1.8-3.56,1.08-4.36,2.46-2.75,4.7-6.13,4.49-9.93,1.76-1.44-1-2.32-.33-3.28.41-2.95,2.25-6.29,1.09-9.36.83-4.29-.38,1.05-3.59-1.16-4.84-7.57,2.85-14.2,7.19-20.78,12.14s-14.08,9.41-23.43,7.4c10.59-2.56,19-8.69,27.11-16.81-7.76-.4-14.18,3.31-21.05,4.43-7.28,1.17-14.41.85-21.28-2.32a43,43,0,0,0,24.32-2.71,11.26,11.26,0,0,0,2.46-1c1.45-1.11,4.49-1.42,3.73-3.76-.61-1.85-3.28-.77-4.88-.58-3.37.41-6.7,1.17-10.62.63,2.77-2.16,6.43-1.47,9-4.31-7.9.16-15.55,3.3-22.71-1.59,13.08,3.67,25.75-3.72,38.86-.88.5,1.6-2.3,1.72-1.65,3.66,4.52.38,6.68-3.4,9.65-5.72.57-.45.43-1.85,0-1.67-2.63,1.21-1-4-3.7-2.35-11,6.84-22.7.05-34.07,1.81,6.44-1.49,12.14-4.63,18.26-6.63,1.39-.46,3.88-.63,3.19-2.61-.75-2.14-2.9-.53-4.2-.05-9.59,3.56-19.13,7.18-29.94,4.84,11.2-2.43,21.49-6.3,30.38-14.86-6.32-1.15-11.45,1.82-16.83,1.48s-11,1.3-16.49-3.14c11.91,3,21.5.43,29.93-6.92-6.61-1.49-12.86,1.11-19.86,1.28,10.51-4.07,20.7-7.45,28.57-15.16.93-.91,2.81-1.59,1.67-3.39-.92-1.44-2.23-1.89-4.16-1.42-8.48,2.1-16.69.48-24.8-2.3,8.28,1.68,16.5,0,24.72-.18,5.07-.13,6.24-1.34,7.52-6.66.51-2.09,4-.94,4.05-3.84-5.6-1.21-11.37,3-18.13-.82,12.49,1.18,19.73-6.88,28.73-11.85-3.57-1.75-7,1.72-10.91-.92,9.36-4.42,16.25-11.52,25-15.84.92-.45,2.43-.52,2-1.92s-1.77-1-3.14-.87a97.3,97.3,0,0,1-14,.37c4.08-1.62,8.09-3.18,11.07-6.46,1.08-1.2,2.32-2.5,1.28-4.27s-2.5-.3-3.77-.08c-5.88,1-11.31,4.31-17.64,3.33,8.15-1.33,14.75-6.44,22.58-9.2,1.36,2.41-.57,6.12,4,7.64-1.57-6.23-1.29-12.38-6.87-16.69,9.31-2,9.62-2.34,8.48-9.24,1.81-1.33,7.44,1.64,5.15-4.39a47,47,0,0,1-2.87-8.4c1.11,1.78,2.23,3.54,3.3,5.33.9,1.51,1.48,3.59,3.88,2.76s2.76-2.83,2.45-5.23c-.83-6.43-.25-8.44,3.74-13.15-2.17,6-.56,10.53,2.23,14.51,8.67-1.4,7.6-9.62,10.57-15,1.44-2.6,3.13-4,7.1-5.38-3.89,4.22-6.53,7.7-6.68,12.29-.11,3.46,1,5.56,4.78,3.23a20.91,20.91,0,0,1,9.58-2.88c-2.42,2.56-6.32,5.08-3.74,8,2.73,3.11,5.77-2.17,9.27-1.62-3,2.59-2.68,5.7-1.27,8.79,3.53,7.69,7,15.29,5.2,24.22-.63,3.13,1.87,5.58,4,7.81-.5.38-.73.68-1,.73-1.81.3-5.08-.92-5.09,1.21,0,3.17,3.84,3.1,6,2.94,6-.47,6.14,2.51,5.78,7.19-.3,4.1-1.47,4.79-5.39,4.13-2.77-.46-5.65-2.61-9.15-.47,4.14,3.67,8.65,3.93,13.5,2.95-3.58,6.31-7.07,8-13.62,6.5a20.61,20.61,0,0,0-2.62-.6c-1.33-.09-3.18-.92-3.68,1-.55,2.1,1.4,2.86,2.9,3.13a192.71,192.71,0,0,1,22.51,5c10.14,3.06,20.07,6.59,29.44,11.57,3.79,2,7.45,3.93,11.95,4.46,3.57.41,6.27,4.21,10.54,3.72.58-.07,2.74,2.11,2.07,3.27-2.07,3.56-1.9,7.12-1.1,10.87.35,1.61-.75,2.23-2.08,2.58-1.15.29-2.63,1.45-3.3-.18-.9-2.18-3.63-1.53-4.1-2.25-3.09-4.81-11.07-2.53-12.76-9.08-.33-1.28-1.66-1.87-2.91-2.18C344,354,328.73,342.76,312.53,333.36c-1.75-1-4.33-3.75-5.47-1.77-1.49,2.58,2.41,3.24,4.1,4.34,6.91,4.47,15,7.4,20.91,13.1,15.53,14.87,35.1,23.47,52.95,34.68,5.51,3.47,12.59,7.08,20.1,2.59,5.56-3.32,6-7.26.64-11.13a25.19,25.19,0,0,0-9.21-4.2c-4.38-1-6-3.4-4.74-8.06,6.86,3.4,14.24,5.52,20.88,9.38,5.83,3.38,7.44,7,5.35,13.24-.53,1.59-1.08,3.17-.43,4.69,3.76,8.79,5.43,18.21,8.26,27.28,1.52,4.89,5,7.12,9.09,9.2,3.3,1.69,6.57,3.52,4.67,8.22a4.07,4.07,0,0,1-.91-.12c-16.08-5.74-15.86-21.63-21.22-34.05-.06-.16,0-.36-.09-.53-3.35-10.51-4.24-10.83-13.35-4.89-.71.46-1.51.8-2.58,1.36-.56-2.19-1-4-1.57-6.14-2,1.2-1.8,2.73-1.61,4.31.8,6.6-.32,7.66-6.34,6.29a2.82,2.82,0,0,0-1.93.65c-1.75,1.3-2.79,6.2-5.66,1a.93.93,0,0,0-.49.15c-7.22,5.55-7.07-2.62-8.72-5.35-1.86-3.09-3.48-4.45-7.08-5.26C364.88,391.58,362.11,389.26,357.92,392Zm-41.54-25.28c-4.35-.61-7.73.46-9.61,4a27.76,27.76,0,0,1-5.38,6.55c-.94.93-2.74,1.48-2.23,3.21.23.78,1.38,1.88,2,1.82a4.2,4.2,0,0,0,3.41-3.07c.83-2.59,2.26-4.51,5.66-6.87-1.58,3.49-2.57,5.71-3.58,7.91-.38.84-.78,1.79.13,2.4s1.78-.14,2.16-.91C311.46,376.82,313.9,371.79,316.38,366.75Zm-32.83-69c-.45,2.9,1,5.29,4.41,6.37,1.12.36,2.65.71,3.36-.65.53-1-.28-1.93-1-2.84-3.33-4.43-3-5.18,2.75-7.14,1.3-.45,2.4-1.07,2.24-2.55s-1.37-1.88-2.71-2.12C288.09,288,283.74,292,283.55,297.76ZM325.44,373c-6.58,1.56-9.58,6.17-11.58,11.8C320.86,383.74,324.3,379.54,325.44,373Zm-82.89-13.32c-6.66.5-10,5.08-13.47,10.25C235.85,369,238.1,362.82,242.55,359.67ZM315,293.1c-.08-1.74-.39-3-2.07-2.78-2.28.31-4,1.43-4.18,4-.13,1.56.66,2.42,2.15,2.27C313.19,296.34,314.93,295.35,315,293.1Zm-87.81,89.43c6.32-.38,11.27-4.13,11.82-8.46Zm3.73,13.78c5.09-1.93,8.8-3.14,11-8.28C237.44,390,233.57,390.93,230.94,396.31Zm26.52-74.75c3.41-.55,5.36-2.36,7.52-3.73.72-.46,1.58-1.23,1-2.14-.69-1.11-1.81-.82-2.77-.2C261,316.89,258.47,317.9,257.46,321.56Zm-4.64,80.77a15.62,15.62,0,0,0-8.34,7.6C247.83,408.06,251.26,406.29,252.82,402.33Zm-15.68-46.81c1.89,1,3-.31,4-1,1.73-1.27,5.49-2.74,4.22-4.45-1.88-2.54-3.6,1.27-5.44,2.21C238.76,352.85,237.39,353.54,237.14,355.52ZM293,380.34c5.06-1.68,6.78-4.76,8.32-8C297.79,373.6,295.49,376.1,293,380.34Z" transform="translate(-17.25 -49.6)"/><path d="M806.53,496.41c6.77,8.89,4.42,14.78-3.73,21.6-14,11.7-21.59,28-25.32,45.64-6.86,32.41,1.27,61.47,22.53,86.48,13.35,15.72,31.58,22.94,51.76,25.6,26,3.43,49.27-3.66,70-19.19,17.63-13.2,28.51-30.6,31.88-52.72,4.62-30.26-.71-57.45-21.4-81.14-9.79-11.22-21.06-20-34.64-25.48-11.9-4.79-24.78-5.66-37.5-5-9.6.53-19.21,2-28.12,6.2-.48.22-1.22.74-1.44.58-3.76-2.8-2.78-7.23-3.72-11-.4-1.62-1-2.91,1.46-3.62,16.67-4.75,33.54-7.62,51-6.31,16.26,1.23,30.52,7.66,43.6,16.87,17.09,12,31.67,26.48,40.8,45.6,6.3,13.19,7.48,27.58,8.07,41.86.36,8.53,1,17.26-1,25.75a99.58,99.58,0,0,1-26.23,48c-13.35,13.59-29.13,23.17-48,27.88-18,4.49-36.18,6-54.19,2.5C829.75,684,818.39,677.23,807,671.3c-26.32-13.65-37-37.68-43.19-64.66-4.2-18.3-3.7-36.85.2-55S778.72,518.79,793,506.9C797.44,503.25,802.07,499.87,806.53,496.41Z" transform="translate(-17.25 -49.6)"/><path d="M86.92,463.82c-7-1.32-13.83.41-20.57-.37-1.68-.2-2.09,1.19-2.16,2.49a33.2,33.2,0,0,0,0,5.37c.27,2.64-1.56,2.93-3.35,3.17-2.32.31-2.66-1.22-2.58-3.05.24-6.1.49-12.19.71-18.29.05-1.44.37-2.48,2.15-2.19s3.61.35,3.66,2.95c.05,2.33-.92,5.52,3.31,5.25,3.87-.24,4.57-2.74,4.25-6-.14-1.42.05-2.88,0-4.31-.18-2.54.26-4.06,3.48-3.74,5.73.59,4.17-4.08,4.62-7.09s1-6.27-3.72-6.75c-2.52-.26-5.49,0-5.72-4.07-.17-3,.21-4.5,3.76-4.79,19.11-1.55,38.22-2.8,57.42-1.9,2.17.1,6.26,1.65,6.42-1.29.16-3.16-4-1.48-6.23-2.09a35.71,35.71,0,0,0-5.84-.93c-3.86-.39-6.55-2-7.79-6a28.1,28.1,0,0,0-10.59-14.49c-2.87-2.09-2.79-4.11-.59-6.08,6-5.4,8.89-11.87,8.22-20.05-.25-3,1-5.48,4.89-5.52,1.14,0,3.38.29,3.2-1.82-.14-1.66-2-1-3.09-1.11-1.44-.19-3.44.92-4-1.47-.26-1.19-.56-2.74.55-3.53a7.83,7.83,0,0,1,5.71-1c.83.11.92.9,1.09,1.62a88.44,88.44,0,0,1,2.88,20c0,3.62.84,6.9,3.26,9.4,7.29,7.51,8.11,17.26,9.72,26.76.45,2.7.18,7.39,2.59,7.18,3.64-.31,1.68-4.55,1.67-7.16s1.1-4.78,3.33-5.71c5.31-2.21,6.14-6.31,5.67-11.32-.22-2.23-.82-4.85,3.12-4.63,3.14.16,6.12-.32,6.33,4.33.26,5.63.79,11.14,5.56,15.44a8.7,8.7,0,0,1,3,7.81c-.63,3.23.66,4.14,3.6,4.28,4.84.22,9.66.7,14.49,1.08,2.28.18,4.68-.16,4.21,3.64-.37,3.08-.33,5.68-4.57,5.64-2.11,0-5.46-1.32-6.19,1.37a40.78,40.78,0,0,0-1.07,12.24c.11,2.46,2.84.42,3.92,1.12,1.65,1.07,6-1.7,4.93,2.39-.72,2.89,3,9-4.72,8.45-14.66-1-29.37-1.34-44-2.43-21.16-1.58-42.33-1.92-63.52-1.57-1.21,0-3.08-.29-3,1.33,0,2,2.07,1.53,3.39,1.51,11.11-.1,22.23-.38,33.35-.39,20.67,0,41.2,2.63,61.82,3.36,7.44.26,15,2.29,22.36-.48,3.21-1.2,6-4,10-2.91-1.71,4.49-6.18,5.7-9.62,7.88-1.75,1.1-2.53,1.91-2.73,3.89-.56,5.35-1.43,10.66-2,16-1.21,10.75-4.26,20.53-12.42,28.38-12.31,11.84-17.26,27.76-22.94,43.2-.62,1.68-1.16,3.39-1.88,5-.93,2.1.53,3.53,1.55,4.79,1.14,1.42,2.5.18,3.79-.5,10.8-5.69,19.92-13.79,29.78-20.8C206.77,533.21,223.07,520,239,506.49c9.41-8,18.44-16.45,27.51-24.83,4.46-4.12,9.75-7.3,13.66-12,3.41,5.87,3.43,5.9-1.2,9.86-16.9,14.43-32.71,30.15-50.73,43.23C208,537.44,187.45,551.83,167,566.38c-2.18,1.56-4.3,3.23-6.35,5a1.8,1.8,0,0,0-.66,2.37,1.26,1.26,0,0,0,1.89.29c5.85-4.67,12.21-1.58,18.16-.8q33.84,4.42,67.76,8.31c12.46,1.43,24.83,3.68,37.19,5.85,7.46,1.31,7.49,1.51,9.43-5.52,3.4-12.32,15.48-22.09,28.1-24.42,13.47-2.48,24.21,1.32,30.83,12.92,9,15.83,7.38,34.16-9.35,45.62-8.14,5.58-18.09,6.49-28,4-1.67-.41-3-1.15-1.56-2.77,1-1.11.63-4.14,4-2.72,18.48,7.73,35.19-3.82,36.42-24.69.55-9.31-1.05-17.76-8.83-23.52-13.64-10.08-36.75-6.88-44.32,12.12-3.05,7.68-3,15,1.76,22a32.89,32.89,0,0,1,2.19,4.31c1,2-.5,3.09-1.73,4-1.71,1.28-1.95-.8-2.7-1.54s-1.56-1.47-1.52-2.16c.4-6.43-4.31-5.34-8.11-5.73-29.54-3.06-58.84-7.83-88.11-12.72-11-1.83-22-2.52-33-4-6.72-.93-12.81.13-18.6,4.64-6.84,5.32-14.51,3.51-19.65-3.39-3-4-2.83-10.89,1.14-15.33,2.33-2.59,2.71-5.09,2.53-8.27-1-18.22-11.14-31.24-24-42.78-7.59-6.82-15.19-13.56-21.83-21.44C81.66,485.78,82.38,475.29,86.92,463.82Zm17.23-2.33c-3.24,0-6.47.07-9.7,0a5.58,5.58,0,0,0-5.9,4.53C87.37,475.94,86,486,95,493.86c7.44,6.47,14.37,13.54,21.3,20.57,11.71,11.89,22,24.94,24.45,42,.91,6.39,4.9,5.43,8.41,6.37,4,1.07,3.76-2.89,5.06-4.92a9.16,9.16,0,0,0,1.1-3c3.91-18.33,13.19-33.82,25.18-47.93a20.21,20.21,0,0,0,4.41-7.24,170.64,170.64,0,0,0,6.44-28.7c.34-2.8-.36-3.68-3-4.42-6-1.68-12.17-.35-18.21-1.13C148.26,462.57,126.15,463,104.15,461.49Zm-2.83-37.44c-7.9,0-15.79-.08-23.69.07-1.68,0-3.87.46-3.87,2.87,0,2.73,2.35,2.17,4,2.34,8.75.93,17.54.74,26.33.88,19,.32,38-.26,57,1.2,8.49.65,17,1.9,25.64,1.17,2.63-.22,3.48-1.52,3.8-3.57.44-2.78-1.79-2.6-3.5-2.75-9.26-.77-18.52-2-27.8-2.14C139.91,423.74,120.62,422.34,101.32,424.05Zm12.47,8.25c-5.93-.33-11.81,1-17.66.93-5.51-.05-7,1.55-6.85,7,.12,4.37,2.11,5.7,5.6,6.1,4.42.5,8.86.67,13.28,1.12,6.64.67,13.18-.85,19.85-.62,13.7.46,27.42.1,41.13.15,1.35,0,2.62.15,2.91-1.5.47-2.63.81-5.29,1.17-7.95.1-.71,0-1.49-.83-1.71-1.18-.3-1.64.67-1.78,1.48a24.46,24.46,0,0,0-.32,4.28c0,1.79-.62,2.67-2.57,2.32a58,58,0,0,0-18.18,0c-2.84.37-5-.17-4.81-3.82.12-1.84,1-4.46-2.1-4.4-2.83.05-2.51,2.78-2.34,4.57.32,3.5-1.21,4.1-4.34,4.13s-3.81-1.68-4.6-4.05c-2.28-6.78-4.13-8-11.1-8Zm-1,20.6c8.4.39,16.8.64,25.18,1.2,13.57.89,27.13,2,40.69,3a46,46,0,0,0,5.38.08c2.73-.12,3.66-2.18,3.84-4.38.26-3.13-2.38-1.94-3.86-2.06-5.88-.48-11.77-1-17.67-1.11-24.51-.5-49-.47-73.51-2.1-4.1-.28-8.18-.74-12.28-1-2.62-.17-4.95.82-4.88,3.7s2.86,2.8,4.94,2.69C91.39,452.3,102.11,452.91,112.83,452.9Zm44.53-31.32c1-.7,4.26,1.55,4-1.57-.15-2.25.37-6.26-4.15-6.07-2.89.12-5.8,1.07-6,4.12C151,421.74,154.1,421.87,157.36,421.58Zm-.46,10.67c-1.57.57-4.73-1.4-4.75,2.17,0,3.31,2.6,4.41,5.58,4.51,2.52.08,3.82-.7,4-3.69C161.87,431,159,432.59,156.9,432.25ZM88.08,438c-.28-1.75-.11-4.41-2.73-4.26-2.91.17-2.23,3.11-2.49,5.07s-.22,3.94,2.38,3.79S87.79,440,88.08,438Zm89.48,7.21a8.64,8.64,0,0,0,.83-8.14c-.07-.21-1.65-.28-1.82,0-1.47,2.44-1.07,5,0,7.42C176.67,444.59,176.88,444.66,177.56,445.17Z" transform="translate(-17.25 -49.6)"/><path d="M585.19,334.51c-2.24,5.6,1.31,10.65,1.19,15.69-.35,15.44,7.5,28.21,12.2,42,1,3.09,2.45,6,2.1,9.31-.55,5.11,2.41,8.34,5.75,11.45a4,4,0,0,0,5.42.42c4.15-3,8.76-2.56,13.44-2.41,4.84.15,9.68,0,14.52-.09,1.25,0,2.71-.24,2.63-1.95-.07-1.51-1.46-1.2-2.47-1.37-5.67-1-6.64-4.85-6.12-10.41.5-5.37,4.35-9.75,3.42-15.22-.31-1.81.5-2.78,1.84-4,3.21-3,8.25-3.32,10.54-7.59.42-.78,1.62-.3,2.42.25s2,1.77,2.66,1.55c6.27-2.2,10.28,3.91,15.7,4.15,6.85.31,4.45,5.38,5,8.88.17,1.07-.79,2.31.16,3.49,2-.6,2.21-2.72,3.4-4s3-2.91,4.46-1.24c1.21,1.39,2.54,4.24,0,5.64-4.08,2.24-2.12,5.74-1.8,8.4.38,3.17,3.89,2.63,6.22,2.59,6.37-.13,12.57.19,18.12,3.81.15.1.36.3.46.26,5.78-2.62,9.59,2.72,14.5,3.76,5.9,1.24,8.64,6.62,10.4,11.95,1.19,3.61,2.07,7.23,5,9.92a4.06,4.06,0,0,1,1.17,3.95c-4.13,21.06-5.37,42.5-8.42,63.7a21.71,21.71,0,0,0-.11,3.23c.11,9.44-4.75,13.54-14.3,11.37-4.2-1-8-1.89-12.52-1.05-5.91,1.1-13-9.54-10.15-15.34,2.06-4.14,2-9,5.16-12.72,1.27-1.47,1-3.42-.13-5a9.79,9.79,0,0,1-1.65-5.92c-.14-15.19-5.34-29.46-8.85-44-1.55-6.41-8.57-8.45-14.23-10.25a91.49,91.49,0,0,0-34.39-3.87c-5.68.39-11.47.86-17.15-.6a8.55,8.55,0,0,0-8,2.09c-2.6,2.29-4.78,1.62-7.05-.27-3.77-3.14-7.24-6.4-7.61-11.8-.66-9.82-6.06-18.18-8.66-27.44-2.31-8.22-5.18-16.11-6-24.83C582.82,345.18,580.81,339.84,585.19,334.51ZM662,376a33,33,0,0,0,.3,5c.35,1.62-.93,3.59,1,4.83.21.14,1-.21,1.22-.53.89-1.74,1.62-3.7.84-5.55C664.76,378.41,664.8,376.42,662,376Zm-26.21,23.32c3.77,2.79,7.4,4.06,11-1.06Z" transform="translate(-17.25 -49.6)"/><path d="M589.29,284.24c2.54,2.72,5.16,4.44,6.21,6.85,3.58,8.15,10.59,11.74,18.39,12.63,6.52.75,13.25,1.07,19.77,1.88,11.19,1.38,22.93-.41,33.54,4.64,10.31,4.9,18.71,12.46,26.09,21,9.71,11.23,19.22,22.65,28.36,34.34,6.3,8.07,10.66,17.33,14,27.05.88,2.59,1.6,5.24-1.25,6.57s-6.67,2-9-.51c-2.69-2.86-3.55-4.28-3.87,1-.18,3.09-2.42,2.92-4.61,1.54-3.25-2.05-4.48-5.43-5.84-8.74-.38-.94-.57-2.18-2.31-2-1.55,2.84,1.42,5.27.85,8.43-5,.38-8.23-2.36-9-6.8-2.08-11.51-10.35-17.76-18.4-24.93-7.06-6.29-16.16-8.57-23.32-14.65-5.1-4.32-13.08-2.3-19.75-3-11.49-1.27-23.34-1.1-33.62-7.12-7.21-4.22-14.27-8.7-21.82-12.31-1.52-.72-1.06-1.63-.59-2.57,2.14-4.32.9-9.25,1.93-13.39,1.94-7.76-.91-16.09,3.42-23.42C589.22,289.25,588.92,287.17,589.29,284.24Z" transform="translate(-17.25 -49.6)"/><path d="M754.77,329.18c15,3.05,27.63,11.66,41.61,17.09,7,2.73,13.8,5.75,20.06,10.09,11.69,8.12,11.19,23.75-1.63,30.41-5.83,3-7.22,7-6.63,13.05,2.17,22.31,3.66,44.79,9.25,66.53,5.28,20.55,8.44,41.78,18.17,61.09,7,13.94,14.1,27.82,23.3,40.5,2.25,3.11,4.59,5.5,8.94,6,3.68.46,7.22,3,7.27,7.31s-5.39,9.38-9.13,9.44c-2.5,0-5.16-1-5.17-3.59,0-6.07-4.19-9.17-7.64-13.22a151.78,151.78,0,0,1-21.46-32.71c-5.33-11.14-10.93-22.12-15.76-33.51-5.46-12.87-5.78-26.86-10.17-39.9-1.19-3.53-1.45-7.36-2.58-10.92-1.36-4.3-3.3-4.51-6.19-1-11.49,13.79-21.26,28.88-32.44,42.89C747.6,520,733,543,715.83,564.13c-1.83,2.26-2.46,2.25-4.13,0-5.05-6.82-5.4-7.38,0-14.15,27-33.79,51.43-69.47,78.6-103.1a10.14,10.14,0,0,1,1.77-2c9.42-6.82,7.49-16.52,6.63-25.94-.23-2.46-.37-3.93-3.83-2.24-17.29,8.5-34.59,16.95-51,27.11-1.19.74-2.42,1.39-3.53,2-2.59-7.44,3.89-9.59,7.63-12.74a53.36,53.36,0,0,1,15.2-8.55c10.36-4,20.52-8.56,30.88-12.58,5.5-2.14,4.19-7.16,4.87-11,1.42-8,.3-8.56-7.71-7.11a275.36,275.36,0,0,1-46.5,3.92c-1.4,0-3.83,1.28-3.93-2-.09-2.82,2.13-2.71,3.68-2.81,17.07-1,33.63-5.26,50.45-7.79a26.77,26.77,0,0,0,15.52-7.86c6.34-6.42,6.15-11.14-.86-17.07-5.52-4.67-11.88-8-18.42-10.93-11.67-5.21-22.61-12.51-36-13-1.56-.05-1.67-.94-1.38-2.15.4-1.74.77-3.48,1.15-5.22Z" transform="translate(-17.25 -49.6)"/><path d="M90.38,501.69C74.92,513.27,65.32,529,57.85,546.3c-5.67,13.16-9.62,26.83-8.35,41.16,1.89,21.35,9.48,40.85,23.36,57.34,8,9.51,18.82,15.52,30.75,19,21.54,6.19,43.1,8.61,65,.6,20.28-7.44,38.55-17.12,50.39-36.28,5.54-9,10.89-25.28,9.42-33.49-1.54,4.92-4.26,4.11-7.74,3.32-11.82-2.65-23.28-6.49-34.84-10.2,6.67,1.11,13.32,2.29,20,3.34,11,1.71,21.95,3.5,33,4.9,3.81.48,4.31,1.9,3.39,5.21a131.9,131.9,0,0,1-19.3,41.1c-15.32,21.68-37.33,33.74-62.57,39.4-15.17,3.41-30.67.33-45.88-2.58-23.46-4.49-42.47-16.46-58.47-33.82-4.73-5.13-7.22-11.33-10.11-17.52C39.14,613.48,36.6,598.5,36,583c-1.07-27.8,9.51-51.39,26.51-72.45,5.23-6.48,11-12.74,18.3-17.21,2-1.25,3.22-1.61,4.54,1A66.89,66.89,0,0,0,90.38,501.69Z" transform="translate(-17.25 -49.6)"/><path d="M535.7,112.5c-.24,3.48,2.06,5.68,4.3,7.47,2.61,2.09,2.39,4.15,1.19,6.57a27.16,27.16,0,0,1-5.71,7.1c-3,2.94-5.24-.31-7.74-1-8.93-2.59-12.66-1.15-16.63,6.69-.71,1.4-1.77,2.8-.69,4.5s2.7,1.11,4.32.95c2.25-.23,4.54-.06,7.57-.06-5.25,6.84-2.95,15.1-6.81,22-2.12,3.79-3.4,3.75-6.05,2-2.07-1.39-3.75-3.34-5.73-4.88-6.07-4.74-11.37-2.62-12.68,5.18-.72,4.24-1.13,8.53-1.47,12.82-.7,8.73-3,11.11-11.55,11-3.29,0-5.37,1-6.95,3.91-1.37,2.49-3.3,4.67-4.83,7.09-1.7,2.7-3.51,5.22-2.09,8.95,1.16,3-1.82,5.57-2.42,8.49-1.62,7.86-6.14,12.42-14.37,13.35-4.52.51-6.26,3.93-7.27,8.14-1.54,6.5-1.76,6.45,5.22,6.26,5.31-.13,8.53,3.3,7.45,8.52-.92,4.44-1.5,8.71-.64,13.26s-1.82,8.34-4.62,11.57c-2.13,2.46-5.12.46-7.56.05-6-1-6.46-.79-6.51,5,0,2.31-.68,4.6-.91,6.91-.59,6,1.23,8.2,7.24,8.86,2.31.26,4.61.63,6.9,1a2.77,2.77,0,0,1,2.68,2.29c.88,8,3.42,16.12-1.45,23.86a7.66,7.66,0,0,1-5.85,4c-6.7,1-8.16,2.69-8.36,9.46-.19,6.28-.21,12.58-.14,18.86,0,4.43,1.39,7.44,6.87,5.83,2.81-.82,6,.37,6.78,2.87,2.6,8.67,7.19,16.84,7.19,26.21,0,3.21-.43,6.15-4.43,6.84a2.61,2.61,0,0,0-2.28,2.61c-.09,1.56,1.09,2.24,2.23,2.7a21.46,21.46,0,0,0,8.41,1.49c8.8-.07,17.6-.17,26.4.1a6.65,6.65,0,0,0,4.75-1.85,21.72,21.72,0,0,1,9.56-4.69c3.72-.71,6.47.11,9.82,3.24,6.73,6.3,7.61,13.29,7,21.59-.16,2.23,2.71,4.54,3.59,7,2.92,8.23,8.68,11.88,17.28,12.33,2.88.16,5.42,2.35,5.65,6.11.33,5.51,0,10.89-3.49,15.36-2.41,3.07-2.24,5.54-.27,8.75,2.55,4.15,4.25,8.76,3.64,13.8A12.23,12.23,0,0,0,546.47,504a16.61,16.61,0,0,1,5.34,10.21c.79,5.12,1.19,10.34,5.27,14.31a4.72,4.72,0,0,1,.92,3.54c-1.88,14.57,4.16,27.56,8.72,40.62a184.06,184.06,0,0,1,9.11,39.67,17.35,17.35,0,0,1,.17,5.15c-1-7.21-2.88-14.2-4.39-21.27-1.84-8.56-3.85-17-8.44-24.74-2-3.39-1.73-7.63-2.71-11.41-3.05-11.74-5.9-23.55-9.7-35-1.75-5.29-5.3-10.06-8.46-14.78A20.27,20.27,0,0,1,539.14,497a38.9,38.9,0,0,0-2.86-17.25,475.69,475.69,0,0,0-23.36-50.6c-6.45-12.12-17.44-15.61-30-16.1-7-.27-13.92-.7-20.9-.19-7.32.55-13,5.69-13.32,13.25a287.77,287.77,0,0,0,1.64,47.32A29,29,0,0,0,457,488.5c5.75,7,8,15.23,8.82,24.15-.59-.09-.81-.06-.94-.16-1.88-1.46-2-6-4.57-4.93-2.88,1.25.1,4.73.08,8.39-4-5-1.87-11-4.88-15.35-2.78,1.52-1,4.1-2,6.25-3.65-6.73-3.42-14.1-4.54-21.1-1.78-11.11-2.7-22.37-4.72-33.42-2-10.84-.5-21.46.69-32.11a32.94,32.94,0,0,0-2.14-16.66c-6.69-16.8-12-33.91-11.52-52.51.57-21.89,0-43.8-.66-65.71-.73-23.17,5.88-44.82,16.8-65.15a15.68,15.68,0,0,1,4.34-5.43c11.38-8,18.47-19.5,25.11-31.14,5.86-10.24,14.4-18.24,21.06-27.76,3.79-5.41,7.66-10.76,11.22-16.31a78.16,78.16,0,0,1,17.47-19.5C529.63,117.68,531.51,114,535.7,112.5Z" transform="translate(-17.25 -49.6)"/><path d="M704.63,153.34c2.77.44,3.73,4.06,6.57,2.54,2.32-1.24,5.31-2.15,5.93-5,.72-3.35-2.79-3-4.52-4.28-1.93-1.4-4.59-2.44-3.82-5.84,2.12-1,3.48,1.51,5.78,1.16a7.68,7.68,0,0,0-3.24-6.46C701,127,691.3,118,689,103.77c-.28-1.69-1.46-3.24-2.19-4.87-1.4-3.16-2-6.1,1.71-8.27,1.8-1,2.51-3,3.2-4.86s2.77-3.5,1.31-5.37c-1.15-1.48-3.63-1.19-5-.39-1.93,1.08-5.13.65-5.44,4.2-.12,1.3,1.16,3.69-1.26,3.91-1.43.14-3.66-.15-3.1-3,.23-1.21-1.53-.63-2.06-.59-4.65.38-7.12-2.52-6.56-6.25.66-4.44-1.33-8.35-1-12.65s-2.34-7.62-6.94-10.26c4.75-1.45,8.7-2.31,12.52-3.39,3.35-.95,3.49,3.24,2.59,4.22-7.19,7.85-1.63,16.8-3.21,25.09,2.72.2,2.73-1.19,2.79-2.73A45,45,0,0,1,681,60c.24-.47.34-1,.57-1.5.66-1.42-2-4,1.69-4.43a3.09,3.09,0,0,1,3.46,1.85c1.06,2,1.9,3.92-.06,5.86-3.33,3.31-4.1,7.86-5.76,12a5.08,5.08,0,0,0,.78,5.56c1.64,1.88,2.87-.34,4.3-.56,3.14-.49,6.23-1.26,9.36-1.85,2.41-.47,2.31,1.11,1.84,2.59-1.4,4.46-3.14,8.79-6.56,12.16-2.62,2.59-2.63,5.19-1.5,8.71,4,12.31,10.53,22.81,20.69,30.77,6.2,4.86,8.77,11.64,11.22,18.52,1.33,3.72-1.63,6.06-4.39,7.76-6.75,4.16-13.19,3.35-19.11-2.07-3-2.78-6.24-5.42-8.47-8.95-1.61-2.54-4.38-3-6.88-3.84-6.61-2.21-13.27-4.23-19.71-7-11.14-4.74-19-13.36-26.34-22.39-3.3-4.08-6.85-4.57-11.25-4.13-16.88,1.7-31.9,8.23-46.65,16.42-27.92,15.51-41.13,40.71-48.8,70.06-3.08,11.78-6.58,23.46-7.57,35.65-.25,3.06-1.12,3-3.64,1.91-3.48-1.49-6.54-3.68-11.07-3-12.13,1.83-17,10.67-19.78,24.25-3,14.64-3,29.62-4.25,44.46-.72,8.56-1.38,17.12-3.95,25.43-1.62,5.21.78,9.4,4.46,12.94,1.79,1.72,3.7,3.31,6.06,5.41-3.13.36-5.05,1.91-7.18,3.09-1.23.67-2.75,1.25-4,.05s-.27-2.54.34-3.42c2.14-3.12,1.45-5.92.21-9.24-1.84-4.9-1.69-10-.27-15.23,2.76-10.11,1.72-20.67,3.35-30.94.62-3.88.79-7.84,1.09-11.76.25-3.24-.87-4.92-4.4-3.57a6.15,6.15,0,0,1-1.05.24c-3,.64-6.89,2.73-8.65,1.56-2.57-1.72.74-5.16,1-8,.32-3.31-.83-6.39-1-9.62s1.05-4.95,4.33-4.46c4.14.62,7.59-1.92,11.51-2.21,1.65-.12,1.83-1.44,2.21-2.63,3.22-10.23,9.69-17.05,20.59-18.61,4.56-.66,5.35-3.06,4.17-6.68-1-3.1-1-5.29,2.21-7.24,11.77-7.23,16.52-18.42,13.8-32.12a24.28,24.28,0,0,1-.37-6.95c.32-3.46,2.55-6.27,5.64-6.22,4.46.07,5.14-2.5,6.32-5.62a44.84,44.84,0,0,1,7.85-12.77c4.91-5.83,8.88-12.09,10.22-19.7,1.76-10,10.23-14.68,16.73-20.78,3.06-2.87,4.81-1.58,4.91,2.89,0,1.08-.07,2.15-.13,3.23-.18,3.47.52,5,4.61,3.37,11.54-4.73,23.36-8.8,34.16-15.22,2.92-1.74,6-2.48,8.44,1.19.65,1,2.13,2.26,3,2.09,6.28-1.32,8.5,4,11.06,7.39,9.85,13.17,23.06,20.81,38.68,24.42,7.83,1.8,12.54,7.15,17.52,12.53,1.57,1.7,3.31,3.24,5,4.78.95.85,2.17,1.77,3.37.91C706.66,156.16,704.9,154.87,704.63,153.34Z" transform="translate(-17.25 -49.6)"/><path d="M512.8,592.89c-14.63,0-29.16.34-43.66-.09s-28.71-.2-43,.72c-20.27,1.32-40.5,1.27-60.77.8-1.83,0-3.35-.23-2.83-2.59s0-5,3.92-5.14c8.42-.3,16.82-1.07,25.23-1.73,35.83-2.79,71.72-2.72,107.61-2.31a9.81,9.81,0,0,0,1.08,0c3.71-.43,8.41-2,10.86,0C513.2,584.23,512.37,589.2,512.8,592.89Z" transform="translate(-17.25 -49.6)"/><path d="M754.93,329c-3.74-1.2-3.65,1.93-4.2,3.94-1.77,6.39-1.73,6.48-7.85,3.43a9.12,9.12,0,0,0-7.71-.26c-7.21,2.57-14.58,4.68-21.77,7.3-3.17,1.15-5,0-7-2.2-4.47-5.12-9.11-10.09-13.52-15.26a77.64,77.64,0,0,0-15.3-13.61,4.35,4.35,0,0,1,4.7.13c9.41,5,19.73,2.22,29.56,3.22,6.7.68,13.72-1.6,20.64.36,2.75.78,3.42-2.06,4.82-3.51,2.43-2.52,4.76-4.38,6.43.56,1.15,3.43,3.06,4,6.12,2.21a16.24,16.24,0,0,1,4.52-1.56c2.32-.56,2.72.15,2,2.52-1.27,4.16-3.49,8.31-1.63,12.9Z" transform="translate(-17.25 -49.6)"/><path d="M656.84,286.93c2.65,2.83,5.13,5.83,8,8.44,7.15,6.53,15.59,6.16,24.25,4.12a22.59,22.59,0,0,0,3.12-.78c1.61-.65,4.51,0,4-3-.42-2.63-2.33-3.76-5.12-3.58s-5.75.06-8.62,0c-1.21,0-2.59.29-3.26-1.23,11.23-1.72,11.23-1.72,13.42-6.09.88,5.65,7.1,10.76,14.46,11.67,5.44.68,10.7-.38,15.86-2.05,3.16-1,3.59-2.7,1.3-5.07-1.75-1.81-3.48-3.62-3.81-6.28,1.2-1,2.42-.26,3.62-.14,3.09.31,3.74-1.61,2.38-3.6-7.82-11.41-5.43-24.68-7.62-37.16-2.81-16-10.61-30-27-36.7-2.68-1.1-5.28-4.4-7.86-3.15s-.47,5.38-1.53,8A122.81,122.81,0,0,1,676,224.5c-2.91,5.08-8.33,5.87-13.32,2.61-9.77-6.4-9.53-7-2.42-15.78,6.27-7.81,14.8-10.07,23.79-11.88,2.57-.51,4.29,1.56,6.46,2.28,24.33,8,32.56,33.75,31.05,51.66-.74,8.83,2.91,16.4,6.21,24.12,1.26,3,2.79,5.81,3.89,8.82,1.88,5.2-.38,9.09-5.83,10.3-3.49.77-7.1,2.29-10.49,1.92-11.53-1.27-22.29,1.79-33.15,4.68-.69.19-1.63.2-2,.67-4.49,5.4-7.76.87-11-1.52C663.9,298.43,659.18,293.81,656.84,286.93Z" transform="translate(-17.25 -49.6)"/><path d="M85.19,417.23c-3,.32-6,.56-9.07,1-2.44.34-3.14-.62-3-3a21.41,21.41,0,0,1,2-8.33c3.09-6.52,2.19-12.82-.41-19.19-2.37-5.79-4.43-11.71-6.9-17.46-1.39-3.23-1.5-4.94,2.6-6.19,7.47-2.28,7.38-2.61,10.55,5,1.93,4.62,4.07,9.18,5.69,13.91,1.71,5,5.18,8,9.82,10,6.17,2.6,12,5.73,16.18,11.14,1.55,2,2.77,3.66-1.21,4.87a85.05,85.05,0,0,0-13.79,5.88C93.82,416.7,89.81,418.73,85.19,417.23Z" transform="translate(-17.25 -49.6)"/><path d="M559.61,475.76c1.8,3.69,3,6.27,4.3,8.76,3.08,5.73,4.34,11.62,2.36,18.05-4.28,13.94-1.92,27.84,1.26,41.47,7,30.14,14.36,60.25,29.27,87.77,1.49,2.75,1.16,4.18-1.74,5.13-5.13,1.68-10.21,3.43-15.73,1.73a7.94,7.94,0,0,0-5.55.12c2.51,5.75,7.65,4.07,11.64,4.14a24.66,24.66,0,0,0,12.72-3.82,7.26,7.26,0,0,1,6.75-.39c2.05,1-.26,3.1-.09,4.79s-1.15,2.35-2.82,2.41c-8.43.32-16.85.65-25.27,1.08-2.74.14-4.15-.8-3.8-3.66.44-3.51-.18-7,.19-10.59.79-7.58,2.73-12,11.65-11.83,6.4.11,2.34-3.68,1.43-6.65-3-9.86-6.88-19.43-9.71-29.38-4.24-14.91-9.24-29.62-12.58-44.76-1.61-7.26-2.55-14.77-1.25-22.4,1.27-7.47-1.26-11.85-7.75-15.19-6.16-3.16-6.66-11.22-.84-16C557.2,484,560.93,481.92,559.61,475.76Z" transform="translate(-17.25 -49.6)"/><path d="M271.3,434.9c5.16-.32,7.75,1,10.13,6,14.48,30.75,23.09,63.62,35.23,95.2,1.67,4.34,3.26,8.72,4.62,13.16.45,1.47,3.22,4-.33,4.61-2.57.46-6.33,2.47-7.71-2.67-2.39-9-5.27-17.77-8-26.63a660.24,660.24,0,0,0-30.74-80.94C273.27,440.91,272.41,438,271.3,434.9Z" transform="translate(-17.25 -49.6)"/><path d="M646.85,428.43c4.24-1.79,6.43-2.16,8.35,3.85,9.08,28.42,17,57.17,25.71,85.7,3.43,11.29,7,22.51,11.26,33.52-9.32,1.13-9.35,1.14-12-9-8.08-30.7-15.83-61.49-25.48-91.76C652.31,443.36,650.45,435.73,646.85,428.43Z" transform="translate(-17.25 -49.6)"/><path d="M568.33,523.72a62.63,62.63,0,0,0-.05-6.93c-.38-3.23,1.1-4.59,4-5.91,27-12.5,53.87-25.19,80.78-37.83,1.63-.77,3.63-2.87,4.4.61.51,2.34,3.65,5.12-.93,7.13-8.83,3.88-17.69,7.74-26.27,12.13C610,503.26,589,512.06,568.33,523.72Z" transform="translate(-17.25 -49.6)"/><path d="M271,638.94c10.92,4.43,15.61-2.1,20.86-9.79,6.93-10.17,15.29-19.36,23.12-28.9,2.46-3,4.27-5.78,2.88-10.07-1.75-5.4,3.35-6.16,6.46-7.41,3.51-1.41,7.81-.52,9.4,2.94s-.66,6.88-4.42,7.95c-6,1.7-7,7.57-10.22,11.49-8.22,10.15-15.55,21-23.55,31.34-2.37,3.07-.89,3.65,1.61,3.93a17,17,0,0,0,5.9-.31c3.63-.88,4.9.71,5.15,4,.3,4-2.64,2.59-4.43,2.64-10.22.29-20.46.36-30.68.71-1.9.07-2.47-.48-1.83-2C272,643.58,271,641.74,271,638.94Z" transform="translate(-17.25 -49.6)"/><path d="M720.88,518.43c-2.4.24-4,.72-5.52.48-3.27-.51-4.23,1.48-4.57,3.94-2,14.54-5.78,28.67-10.15,42.63A30,30,0,0,0,699.8,579c.82,6-1.55,10.49-5.58,11.46-4.44,1.06-10.8-3.22-12.35-8.26-.58-1.9-.55-4,1.33-4.7,11.84-4.32,11.15-15.83,14.31-25,2.56-7.4,3.81-15.25,6-22.78,1.34-4.54-.14-6.11-4.51-5.65-3.15.33-5.19-.54-5.54-4.08-.28-2.9.21-4.06,3.68-4.83C705.35,513.36,712.51,516.59,720.88,518.43Z" transform="translate(-17.25 -49.6)"/><path d="M620.75,581.09c11.64,0,23.3.27,34.94-.1,6.23-.2,4.55,4.83,5,7.45.76,4.16-3,2-4.83,2-22.24.26-44.47.43-66.71.66a7.18,7.18,0,0,1-7.21-8c.32-2.56,2.16-1.29,3.29-1.29,11.83-.08,23.66,0,35.49,0Z" transform="translate(-17.25 -49.6)"/><path d="M782.24,261.68c-6.71,11.05-10.7,24-22,31.83-.2-1.41,1.9-2.5.7-3.94-.8-1-1.73-.07-2.21.56q-5.33,7.08-10.51,14.26c-.61.83-1.43,2-.2,2.78s1.94-.29,2.64-1.15c2.68-3.34,4.46-7.37,7.81-10.19-1.41,5.95-6.92,9.44-8.46,15.42-5.88-5-5.73-4.87-1.92-10.43s9-10.74,10-18.09c.23-1.68,1.82-2.53,3-3.59a79.09,79.09,0,0,0,17.2-21.84c.68-1.23,2.25-2.73.25-4.22a3.74,3.74,0,0,0-4.54-.14c-5.23,3.63-10.51,3.73-16.14,1-3.41-1.67-5.67,2.2-10.07,2.53A28.69,28.69,0,0,1,763,248.7c5-1,10.83-4.12,15.74,1,.67.72,1.7.33,2.22-.6a1.69,1.69,0,0,0-.59-2.35c-4.18-2.95-7.72-7-12.77-8.51-7.27-2.21-12.9-6.6-18.67-13.43,12.59,3.34,25.14,3.63,30.62,17.06.58,1.43,1.94,2.55,3,3.78,6.29,7.43,6.28,8.22-.43,16.16-1.1-1.93,1.94-3.54.23-5.81-5.29,6.34-9.21,13.59-14.74,19.61-2,2.19-6.48,5-3.27,7.69,2.3,1.92,4.34-3,6.19-5.21C774.84,273,776.94,266.19,782.24,261.68Z" transform="translate(-17.25 -49.6)"/><path d="M287.26,432.45c-4.23-.71-8.79-1.43-13.33-2.24-8.64-1.55-16.23,3.53-24.6,3.9-2.12.1-4.27.71-6.33.07-2.54-.8-5.37-1.66-6.15-4.61s2.44-3.55,3.88-5.1c4.82-5.15,9.58-7.42,17.54-4.54,7.67,2.76,16.65,1,25.05.37a27.17,27.17,0,0,1,4.8-.46c3,.31,7.33-1.2,7.36,4.33C295.52,430,293.1,432.58,287.26,432.45Z" transform="translate(-17.25 -49.6)"/><path d="M486.1,431.17c3-.58,3.19,1.45,3.72,2.82,5.07,13,9.86,26.17,15.15,39.11,8.95,21.91,16.92,44.18,25.16,66.35,2.31,6.22,4.3,12.56,6.27,18.91.39,1.26,2.22,3.29-.07,4-2,.63-2.1-1.8-2.68-3.2-10.26-24.55-19.54-49.49-29.16-74.3-6.4-16.49-12.64-33.06-20.27-49C482.84,433,482.62,430.94,486.1,431.17Z" transform="translate(-17.25 -49.6)"/><path d="M432.56,578.48c28.83-11.31,55.27-27.43,84.09-38.29,1.81-.68,3.61-3.16,5.3.9,1.6,3.82-1.07,3.67-2.89,4.52-20.89,9.76-41.86,19.36-62.66,29.31C448.71,578.6,440.64,578.24,432.56,578.48Z" transform="translate(-17.25 -49.6)"/><path d="M840.14,562.52c2.75,2.79,2.29,5.18,1.32,8.66-3.49,12.46.13,27.17,15.11,34,12.21,5.58,23.48,4.18,33.92-4.76,8.88-7.6,11.88-26.47.22-36.83-9.4-8.34-19.78-12.65-32.34-7.76-1.5.58-2.82,1-3.44-1-.74-2.29,1.34-2.18,2.51-2.56,8.91-2.89,17.43-1.25,25.41,3a47.78,47.78,0,0,1,14.55,12.56c2.7,3.35,2.7,7.44,2.74,11.18.12,9.89-1.52,19.56-10.56,25.58-11.88,7.91-23.83,10.26-37.66,2.83-12.32-6.62-16.41-16.48-17-29.1A23.27,23.27,0,0,1,840.14,562.52Z" transform="translate(-17.25 -49.6)"/><path d="M525,322.93a100.06,100.06,0,0,0,23.36,22c3.27,2.15,6.83,3.87,10.18,5.9,3,1.81,6.26,4.3,5.06,7.94-1.41,4.27-3.95,8.35-8.43,10.55a1.44,1.44,0,0,1-2.19-.75c-4.46-12.3-16-18.46-24.17-27.54C523.67,335.34,522.36,330.1,525,322.93Z" transform="translate(-17.25 -49.6)"/><path d="M218,536l2.65-1.89c8.89-6.27,9-6.31,12.8,3.72a135.68,135.68,0,0,1,7.9,34.92c.38,3.76-.82,3.9-4.47,3.86-7.09-.09-7.71-3.74-8.37-9.51A74.51,74.51,0,0,0,218,536Z" transform="translate(-17.25 -49.6)"/><path d="M507.29,301.72c-.5-2.21.54-5.38-3.54-4.5-.78.17-2.26-1.16-2.84-2.14-1.5-2.53,1.26-15.75,3.44-17.94a3.21,3.21,0,0,1,4.32-.6c4,2.16,5.92.25,6.88-3.6.69-2.76,1.34-5.58,3.22-7.85s1.32-4.22-.89-5.93a24.83,24.83,0,0,1-3.24-2.81c-4.91-5.38-3.7-9.92,3.54-11.14,5.14-.87,3-2.65,1.29-4.67-5-5.93-10.92-7-18.21-3.33-1.53.76-3,1.68-4.78,2.7,3.51-6.07,11.17-8.68,16.91-6,3.85,1.82,7.52,3.56,10.33,7.29,4.89,6.5,2.78,13,0,18.71a256.48,256.48,0,0,0-15.58,40.29A8.49,8.49,0,0,1,507.29,301.72Z" transform="translate(-17.25 -49.6)"/><path d="M593.18,282.4c-2.83-.06-2.64-1.2-2.11-2.23,6.09-11.76,7.36-25.59,16.78-36.08,4.9-5.45,7.37-13,11.75-19.13a43.53,43.53,0,0,1,21.94-16.38c6.24-2.14,12.37-4.61,18.65-6.66,3.66-1.19,5.78-2.89,5.3-7.18a10.85,10.85,0,0,1,3.3-8.76c3.32-3.51,7.75-2.9,9.94,1.46.47.95.58,2.07,1,3,1.72,3.91,3.36,7.71-3.73,6.79a3,3,0,0,0-1.55.37c-12.75,5.93-26.37,9.79-38.87,16.29-11.85,6.17-17.82,17.17-23.08,28.66a66.37,66.37,0,0,1-6.85,12.08c-3.2,4.32-5.65,9-6.37,14.56-.52,4-1.74,8.06-4.68,11.24A16.52,16.52,0,0,0,593.18,282.4Z" transform="translate(-17.25 -49.6)"/><path d="M705.73,563c8.88,10.75,10,24.66,2.34,33.44-9.53,10.91-25,10.9-35.41,2.95s-12.27-25.23-4-34.79c5.15-6,12.05-9.51,20.37-9.06,1.1.06,2.85-.61,3,1.27a2.48,2.48,0,0,1-2.6,2.79c-4.1.2-7.48,2.19-10.86,4.29-7.06,4.37-11.2,12.68-9.85,20.57,1.51,8.82,6.77,14.45,15.29,16.92s16.25,1.39,21.77-6c6.56-8.74,4.19-18,.08-26.9C704.59,565.86,704.38,566,705.73,563Z" transform="translate(-17.25 -49.6)"/><path d="M646.78,440.84c-7.72-.41-14.55-1.8-21.28-5.31C616,430.58,606,426.7,596,422.65a13.14,13.14,0,0,1-7.87-7.39c-3.7-8.53-8-16.81-11.86-25.27-1-2.15-1.81-2.87-4.41-2.27-3.08.72-6.42.28-9.63.57-2.26.21-3-1.55-3.29-2.85-.5-2,1.67-1.19,2.63-1.58,2.82-1.12,5.78-1.91,8.56-3.12,4.7-2.05,5-5.39,1-8.54-2.11-1.65-4.25-3.27-6.3-5a2.05,2.05,0,0,1-.23-2.91c1-1.46,1.77-.41,2.61.16,3.12,2.08,6.42,3.94,9.3,6.31s4.64,5.33,2.49,9.41c-3.72,7.07,1.75,12.63,3.75,18.59s5.33,11.3,8.14,16.89a4.86,4.86,0,0,0,2.39,2.75q19.1,8,38.13,16.1a22.8,22.8,0,0,0,11,2.14C645.3,436.38,646.27,437.77,646.78,440.84Z" transform="translate(-17.25 -49.6)"/><path d="M556.55,448c22.82-1.37,45.66-2.47,68.45-4.24,7.32-.57,14.42-1.46,21.43,1.34,1,.39,2.19.27,2.31,1.93-9.41,2-19,1.81-28.53,2.36-18.94,1.08-37.89,2-56.67,4.66C558.1,454.86,556.48,453,556.55,448Z" transform="translate(-17.25 -49.6)"/><path d="M570.57,503.27a25.26,25.26,0,0,0-3.09-21.52c-3.88-6.23-5.11-13.61-7.65-20.43-1-2.56-.62-3.82,2.89-4.11,4.8-.4,7.67.09,9.11,5.55,1.3,4.92,4.25,9.4,6.38,14.12C583.24,488,581,495.86,570.57,503.27Z" transform="translate(-17.25 -49.6)"/><path d="M555.65,463.67c-1-1.91-2.26-3.71-2.8-5.73-1.59-5.94-5.12-9.56-10.88-12s-6.34-8.49-2.45-13.46c3-3.81,1.38-10.73-3.23-12.85a35.17,35.17,0,0,0-3.75-1.94c-5.24-1.66-5.75-5-4-9.67,3.71-10.14,3.63-10.17,1.32-19.21C533.63,393.83,552.63,447.91,555.65,463.67Z" transform="translate(-17.25 -49.6)"/><path d="M574,82.12c1.17-3.12.34-6.15,2.9-8.36,2.37.76,1.87,3.78,3.87,4.81,1.48-.47.76-1.77,1-2.7.27-1.21-1.14-3.08,1.16-3.49,1.8-.32,2.31,1.15,3,2.46.57,1,.65,3.24,2.83,2.23,1.58-.73,1.71-2.24,1.32-3.71-.42-1.65-1-3.24-1.65-5.15,4.41-.54,3.7,4,6.19,5.47,1.87-1.85.09-4.42,1.28-6.64.67,3.29,1.3,6.35,1.93,9.41l1.2,0c-.1-2.07-.14-4.14-.33-6.2s.05-3.72,2.42-3.95c3.06-.29,1.52,2.18,1.7,3.38a20.51,20.51,0,0,0,2.33,6.78c1.49-3.43.87-5.93.95-8.28.07-1.77,1-2.9,2.36-3.09,2.43-.33.73,1.74,1.21,2.55,1.15,1.94,2.65,3.68,3.81,5.62,1.34,2.25,1.39,4-2,4.27-13.22.88-25.24,6.25-37.63,10.2-2.92.92-4.69,1.61-4.4-2.53a7.29,7.29,0,0,0-1-3c-.89-2-.85-4.13,1.37-4.91s2.81,1.49,3.48,3.1C573.5,80.92,573.72,81.52,574,82.12Z" transform="translate(-17.25 -49.6)"/><path d="M112.08,578.87c.34-12.74,7.63-20.5,17.29-26.69.76-.48,1.85-1.49,2.71,0,1.06,1.83-.73,2-1.63,2.6q-17.86,12.35-13.07,31.32c3.45,13.72,20.72,22.17,33.66,16.2,6.71-3.09,13-7,15.65-14.59.31-.84.49-2.42,2.08-1.77,2.12.87.46,2.13,0,3-9.5,20.83-28.73,23.64-45.37,13.16C115,596.79,112.5,588.05,112.08,578.87Z" transform="translate(-17.25 -49.6)"/><path d="M379.23,463c19.9-1.53,39.52-1.31,58.75-5.34,1.78-.37,3-.05,2.82,1.9s2.24,4.89-1.82,5.55a108.68,108.68,0,0,1-11.15,1.67c-13.77.83-27.57,1.29-41.34,2.23C381.78,469.28,379.32,467.88,379.23,463Z" transform="translate(-17.25 -49.6)"/><path d="M41.37,378.46a72.1,72.1,0,0,0,2.68-7.31c.42-1.66,1-2.81,2.77-2.4a3.12,3.12,0,0,1,2.5,3.64,13.07,13.07,0,0,1-3,7.34c-2.25,2.53-3.7,4.17,1.43,4.6,2.8.24,5.29,2.1,7.39,4.14a3,3,0,0,1,.82,2.95c-.33,1.44-1.65,1.14-2.63,1.16-2.9.07-5.67-.31-8-2.35-.93-.8-1.73-2.68-3.52-1.28-1.48,1.16-.14,2.24.15,3.35s1,2.33.67,3c-.75,1.43-.15,4.06-2.63,4.09-2.15,0-2.33-1.89-2.39-3.54-.13-3.54-1.93-4.19-5-3.08a10.42,10.42,0,0,1-3.64.71c-1.52,0-4,1.36-4-1.77,0-2.3.28-4.79,3.28-5.4s7.12.61,8.12-2.71c.89-2.94-3.73-3.65-5.14-6-.83-1.37-1.58-2.79-2.3-4.21a3,3,0,0,1,.95-3.84c1.75-1.46,2.49.57,3.38,1.43a50.47,50.47,0,0,1,3.46,4.09A10.06,10.06,0,0,0,41.37,378.46Z" transform="translate(-17.25 -49.6)"/><path d="M504.83,425.32c-11.22-.58-21.77,1.87-32.4,4.36-5.94,1.4-10.58-3-14-12.75C474.48,418.07,490.92,413.54,504.83,425.32Z" transform="translate(-17.25 -49.6)"/><path d="M523.08,611.35c-56.42.15-112.71.48-169.31,1.43,1-2.78,3.08-2.4,4.88-2.36,43.22.85,86.43-2.13,129.67-.55,8.74.32,17.53-.84,26.31-1.24C517.64,608.49,521,607.29,523.08,611.35Z" transform="translate(-17.25 -49.6)"/><path d="M532.12,380.78c-4.56-3.25-6.79-8.07-9.84-12.31-7.95-11-18.11-19.92-29.06-27.57-9.7-6.77-11.71-14.35-9.07-25.46,3-12.7,2.78-25.95,3.52-39,.52-9.14,1.54-18.34,4.4-27.66,1.5,2.61-.27,4.31-.4,6.24-.29,4.34.77,7.5,5.6,8.1,2.69.33,3.41,1.76,2.45,4.07-.81,1.94-1.45,4.39-4.54,2.4-3.79-2.43-5.37-.84-6,3.22-.74,4.64-1.75,9,1.86,13.19,1.84,2.14,2.53,5.89.24,8-5.62,5.11-3.54,12-4.91,18-.82,3.64-.12,7.7-1.31,11.17-1.71,5-.06,8.11,3.72,11.06,3.52,2.75,6.83,5.79,10.09,8.85,2.44,2.3,5.05,3.9,8.52,4,1.56,0,3.78.16,3.89,2.15.44,8.49,8.87,11.4,12.2,17.9C525.92,371.9,529.21,376.24,532.12,380.78Z" transform="translate(-17.25 -49.6)"/><path d="M551.84,606.92c-5.8,6.53-19.13,6.8-25.54.64a31.18,31.18,0,0,1-9.58-20.4c-.79-9,6.43-18,15.51-19.65,13.44-2.5,20.87.2,27,10.25,2.64,4.35,3.19,9.42,3.4,14.43.07,1.51-.18,3.79-2,3.83-2.28.05-1.73-2.23-1.75-3.75a28.57,28.57,0,0,0-5-16.07c-5-7.48-18.73-8.42-25.58-3-8.37,6.57-10.76,17.06-5.67,25.72C528.67,609.36,542.85,612.75,551.84,606.92Z" transform="translate(-17.25 -49.6)"/><path d="M572,618.56c-6.82-5.93-14.3-12.09-21.32-18.73-3-2.81-5.34-5.2-10-4.79s-7.76-3.19-8.57-7.39c-.75-3.9,1.76-6.71,5.78-7.87s7.41.63,7.46,5.05,2.38,6.42,5.25,8.65c5.8,4.5,11.69,8.88,16.77,14.26C570.93,611.5,573.26,615.41,572,618.56Z" transform="translate(-17.25 -49.6)"/><path d="M361.37,535.87c-2.3,0-3.92.13-5.51,0s-4.19,1-3.9-2c.24-2.45,0-5.63,4.15-5.56,8.8.16,17.61.21,26.41.21,2,0,3.08.16,2.32,2.61a26.33,26.33,0,0,0-.5,5.1c-4.46-2.22-9.09.31-13.71-1-2.15-.6-3.75,1.86-5.1,3.49-4.46,5.4-8.79,10.9-13.18,16.35a24,24,0,0,1-2.47,2.83c-1.75,1.57-3.52.55-4.83-.56-1.89-1.6.32-2.4,1.11-3.25C351.34,548.44,357.69,543.82,361.37,535.87Z" transform="translate(-17.25 -49.6)"/><path d="M220.32,516l-8.18,6.31c-5.43-6.37-10.84-12.46-18.15-16.55-2.74-1.53-2.22-12.17.56-13.44,1.13-.52,1.92.61,2.77,1.17,7.06,4.73,13.43,10.19,18.4,17.18C217,512.37,218.5,513.88,220.32,516Z" transform="translate(-17.25 -49.6)"/><path d="M686.41,634.11c1.28.36,4.91-3.38,5.51,1.28.69,5.33-4,3.12-6.49,3.45-7.42,1-14.89,1.58-22.32,2.49-2,.24-3.18,0-3.1-2.29,0-1.64-.91-3.8,2-4,.18,0,.36-.11.53-.08,10.92,1.72,14.13-5.41,16.38-14,.9-3.42,2.77-6.59,3.85-10,.92-2.86,2.75-3.69,5.17-2.63,2.61,1.15.49,3,0,4.37-1.86,5.21-4,10.31-5.88,15.52C681,631.34,681.18,634,686.41,634.11Z" transform="translate(-17.25 -49.6)"/><path d="M309.84,600.41c-4.66-3.22-6.25-8.22-6.22-13.43.05-8.36,8.34-18,17-20.8,10.34-3.33,20.84-1.12,26.4,6.38,6.17,8.34,4.95,17.81,1.72,26.75-2.93,8.09-9.1,13.07-18,14.21-3.45.44-6.2-1.25-9.1-2.49-.64-.27-2.38-.61-1.28-2.21.64-.93,1.28-1.8,2.59-1.23a17.78,17.78,0,0,0,6.15,1.74c9.84.56,17.1-5.52,19.17-16.4,1.41-7.43,1.71-14.85-5.54-19.79-7.55-5.15-15.68-8.08-24.69-3.7-8.18,4-12,11-12.82,19.74C304.84,593.73,308.58,596.48,309.84,600.41Z" transform="translate(-17.25 -49.6)"/><path d="M646.13,59.93c1.63,2.55,2.46,3.89,3.34,5.21a5.51,5.51,0,0,0,1.31,1.68c3.71,2.45,3.73,2.43,3.07,7.58,1.19.55,1.41-.43,1.85-1.13A20.68,20.68,0,0,1,657,71.62c2,2.22-.14,3.8-.44,5.51-.5,2.8-.52,2.44,2.13,3.63a3.21,3.21,0,0,1,1.5,4.78c-2.39,4-15.41,5-16.23.95A125.62,125.62,0,0,0,640.59,73c-2.44-7.48,1.91-14.42,1.07-21.72-.2-1.77,1.8-2,2.71-1.2,5.09,4.5,10.9,8.28,14.45,14.45-3.62-2.77-7.26-5.5-10.84-8.32-1.73-1.36-3-1.73-4.11.73-3.27,6.94-.14,23.67,5.52,29,.68.64,1.34,1.3,2.29.69a2.12,2.12,0,0,0,.55-2.88c-1-2.11-2.21-4.1-3.07-6.25-.39-1-3.61-3.86,1.35-2.64,1.36.34.64-1.29.11-1.74C647,70,646.82,65.67,646.13,59.93Z" transform="translate(-17.25 -49.6)"/><path d="M516.06,526.8c3.23,7.55,3.24,7.57-3.62,10.86-5.77,2.76-11.61,5.4-17.33,8.26-2.35,1.17-3.69.74-4.44-1.74-.31-1-.73-2-1-3-2.78-11.77-2.73-11.81,8.51-9.34C503.43,533,504.47,532.68,516.06,526.8Z" transform="translate(-17.25 -49.6)"/><path d="M482.17,208c4.54,1.17,9.45,2.19,14.17,3.75,2.56.84,3.14,3.22.93,5-4.74,3.87-9.59,7.63-15.23,10.17-3,1.36-5.91.1-8-1.41-1.72-1.23-.17-3.93.27-6,.69-3.34,3-6.06,3.27-9.58C477.79,207.27,480.19,208.17,482.17,208Z" transform="translate(-17.25 -49.6)"/><path d="M502.2,353.36c10.28,9.13,19.37,19.29,26.38,32-4.68-1.68-7.83-.39-10.24,3.34-1,1.52-2,3.62-4.58,2.93s-2.41-3.26-3.06-5.21c-.81-2.38.11-4.75.79-6.83,2.74-8.32-.27-15-5.39-21.18C504.75,356.79,503.5,355.05,502.2,353.36Z" transform="translate(-17.25 -49.6)"/><path d="M485.91,362.54c2.59.64,5.32.95,7.73,2,3.23,1.42,6.33,2.89,4,7.88-1.36,2.91-.81,6.66.34,10,.39,1.12.81,2.68-.63,3.32a3.38,3.38,0,0,1-3.94-.77c-4.42-4.54-7.79-10.05-13.79-13.15-2.38-1.23.74-3.63,1.28-5.49C481.59,364,482.84,362,485.91,362.54Z" transform="translate(-17.25 -49.6)"/><path d="M547.4,378.56c2.25.95,3.17,3.25,4.77,4.84,2.48,2.48,6.4,5.63,5.61,8.37-1,3.32-6.19,1.82-9.42,2.92-.33.11-.72,0-1.06.12-2.76.71-7,2.9-8,1.9-2.72-2.78-4.08-6.89-6-10.47-.55-1-.87-2.24.79-2.27,4.54-.09,8-2.62,11.76-4.7C546.34,379,546.84,378.82,547.4,378.56Z" transform="translate(-17.25 -49.6)"/><path d="M325,602.12c.73-2,2.52-2.22,4.24-2.73,7.22-2.11,11.11-8.76,9.35-15.83-.83-3.36-9.18-7.15-13.74-6.24-9.45,1.87-13.06,7.55-10.59,16.78.26.95.59,1.78-.39,2.27-1.75.85-2.16-.8-2.68-1.78-4.93-9.26,4.46-22.73,15.66-21.4,11,1.3,19.21,7.17,14.6,20.45C339.4,599.53,332.43,603.22,325,602.12Z" transform="translate(-17.25 -49.6)"/><path d="M474.63,405.68c-4.09,1.09-5.45-1.94-6.24-5.52s-2-7.12,3-8.82a10.17,10.17,0,0,0,4.14-3.25c3.59-4.13,5.19-3.77,7.13,1.47a35.24,35.24,0,0,1,1.45,5.13C486.11,404.39,485.18,405.52,474.63,405.68Z" transform="translate(-17.25 -49.6)"/><path d="M671.34,422.5c-4.38,0-7.63.34-10.78-.07-6.35-.81-12.27-.43-18.2,2.54-6.54,3.28-13.6,1.54-17.37-3.4-.65-.84-1.53-1.64-1.08-2.84.55-1.47,1.8-.71,2.78-.74,7.18-.21,14.36-.29,21.53-.64C655.94,417,663.15,418.72,671.34,422.5Z" transform="translate(-17.25 -49.6)"/><path d="M590.75,607.49c24.16-.45,48.26-.94,72.36-1.3,4.83-.07,9.66.36,14.49.51.72,0,1.45-.12,1.58.85a1.3,1.3,0,0,1-1.15,1.53,23.33,23.33,0,0,1-3.74.22c-26.17-.27-52.34.27-78.5.81C593.9,610.15,591.26,611.23,590.75,607.49Z" transform="translate(-17.25 -49.6)"/><path d="M568.12,683.73c-35.3-3-70.84,1.27-107.19-4.38C497.58,679.4,533,678,568.12,683.73Z" transform="translate(-17.25 -49.6)"/><path d="M492.21,159.22c.2-4.05-3.43-8.57.87-12,1.48-1.17,2.09-1.48,1.36-3.32-.66-1.65-2.42-3.69-.18-5.28s2.58,2.11,4.73,1.83c.5-3.76-4.05-7.59.12-11.4,3.3,1.09-.72,5.64,3.23,6.93-1.26-3.58,0-6.86.47-10.22,2.74-.08.93,3.36,3.51,3.78-.46-3-.9-5.81-1.37-8.82,5.91,5.83,6.17,9.28,2.31,15.89-4.58,7.83-11.16,14.3-15,22.58Z" transform="translate(-17.25 -49.6)"/><path d="M135.48,612.18c-.95,4.31-1.95,8.31-2.72,12.36-2.41,12.65-4.81,25.31-7,38-.27,1.6-.72,1.7-1.85,1.55-2-.26-3.39-1-2.9-3.48,1.41-7,2.55-14.06,4.18-21,1.91-8.16,4.22-16.23,6.4-24.33a15.19,15.19,0,0,1,1.36-3.46,2.29,2.29,0,0,1,1.66-1C135.56,610.85,135.47,611.78,135.48,612.18Z" transform="translate(-17.25 -49.6)"/><path d="M570,92.22c20.08-6.89,39.76-15.07,61.58-10.9-9.84.54-19.75-.08-29.53,2.48a12.94,12.94,0,0,0-6.28,3.51c-2.91,2.9-6,5.64-8.67,8.75-2.39,2.8-4.9,2.56-6.77.23C577.6,92.83,574.89,90.35,570,92.22Z" transform="translate(-17.25 -49.6)"/><path d="M240.84,497.91c-1.93,3.55-3.72,3.67-6.81.79-10-9.38-20.43-18.38-30.58-27.63-.87-.79-3.71-1.23-1.75-3.43,1.72-1.92,3.15-1.59,5.21.34,9.92,9.26,20.09,18.25,30.21,27.29A39,39,0,0,0,240.84,497.91Z" transform="translate(-17.25 -49.6)"/><path d="M520.47,663.93c36.93,1.39,73.95.24,110.84,3.21C594.34,666.86,557.33,667.81,520.47,663.93Z" transform="translate(-17.25 -49.6)"/><path d="M440.73,570c-6.12,4.11-75.43,6.23-83.27,1.78C386.06,570.85,413.44,572.73,440.73,570Z" transform="translate(-17.25 -49.6)"/><path d="M166.13,601.68c4.91,4.29,9.89,8.49,14.69,12.89,7.94,7.26,15.74,14.66,23.63,22,1,.89,2,1.55.7,3s-2.18,1.53-3.54.12C189.62,627.18,175.76,616.52,166.13,601.68Z" transform="translate(-17.25 -49.6)"/><path d="M462,456.31c7.79-1.61,15.66-.42,23.49-.69,2.18-.07,4.23-.13,4.45,2.42.26,3-2.54,1.94-3.92,2.09-9.77,1-19.58,1.83-29.37,2.74-1.91.18-3.57.41-3.69-2.38-.11-2.4.57-3.75,3.16-3.8C458.11,456.65,460.07,456.44,462,456.31Z" transform="translate(-17.25 -49.6)"/><path d="M541.94,408.19c7.06,11.08,14,22,21,32.94,1.29,2,.92,2.74-1.38,3.06-4.17.6-6.93.39-8.53-4.87-2.95-9.66-7.17-18.93-10.92-28.34C541.79,410.14,541.3,409.41,541.94,408.19Z" transform="translate(-17.25 -49.6)"/><path d="M323,473.14c-6.88,0-13.76.12-20.64,0-3.89-.09-4.31-3.46-4.49-6.2-.22-3.36,2.83-2,4.32-2A51,51,0,0,0,316,463.41c4.2-1.06,4.48.31,3.12,3.48C317.34,471,317.26,473.72,323,473.14Z" transform="translate(-17.25 -49.6)"/><path d="M691.12,462.52A3.84,3.84,0,0,1,689,466a113.21,113.21,0,0,1-13.82,6.87c-2.43,1-3.93.38-4.22-2.1-.25-2.21-3.22-5,1.13-6.59s8.93-3.47,13.35-5.31C688.56,457.55,691.08,459.13,691.12,462.52Z" transform="translate(-17.25 -49.6)"/><path d="M171.94,552c.49-6,5.34-9,8.54-13.06,5.79-7.28,12.2-14.06,18.43-21,.86-1,1.73-3.39,3.58-1,.8,1,3.08,1.59,1,3.71C193.16,531.19,182.31,541.25,171.94,552Z" transform="translate(-17.25 -49.6)"/><path d="M538,110.94c8.24-7.51,17.44-13.64,28.47-17.42,1.31,8.54-5.85,11.19-9.91,15.76-1,1.09-2,.22-2.8-.47-4.39-3.82-8.52-3.56-12.63.5A11.9,11.9,0,0,1,538,110.94Z" transform="translate(-17.25 -49.6)"/><path d="M663.83,563.76c-1.46.77-83.15,2-86.51,1.31C582.47,562.88,655.55,561.77,663.83,563.76Z" transform="translate(-17.25 -49.6)"/><path d="M888.52,666.4a2.35,2.35,0,0,1-1.76,2.93c-1.65.36-1.31-1.29-1.46-2.2-2.63-16.77-7.52-33.06-10.79-49.7-.23-1.15-1.23-2.47.36-3.3,1.44-.76,1.85.4,2.1,1.49Q882.76,641,888.52,666.4Z" transform="translate(-17.25 -49.6)"/><path d="M898.62,596.36c4,1.4,6.89,2.08,9.46,3.33,9.67,4.7,19.25,9.6,28.87,14.4,1.92,1,3.95,1.71,5.83,2.73,1,.53,2.75-1.6,2.86.68.07,1.51-.8,3.06-1.25,4.59a23.22,23.22,0,0,0-2.76-1.93c-11-5.55-22-11-33-16.59C905.35,602,901.77,600.79,898.62,596.36Z" transform="translate(-17.25 -49.6)"/><path d="M61.83,546.14c.64.36,1.27.71,1.88,1.07a272.48,272.48,0,0,0,43.36,21.08c1.4.54,2.39.87,1.75,2.46-.8,2-2,.61-3,.17Q84,561.31,62.29,551.59c-1.23-.56-3.66-.69-2.26-3.17C60.5,547.6,60.3,546.13,61.83,546.14Z" transform="translate(-17.25 -49.6)"/><path d="M452.71,341.9c-1,3.94.47,8.09-1.55,12-.84,1.6-.77,3.58-3.3,2.9-2.08-.56-4.68-.12-5.2-3.43-.46-3-.11-6-1.24-8.93-.67-1.74,6.52-5.71,9.74-5.6C453.78,338.89,452.33,340.82,452.71,341.9Z" transform="translate(-17.25 -49.6)"/><path d="M112.83,563.33c-9.89-6.89-18.91-13.14-27.88-19.45-5.12-3.61-10.15-7.34-15.28-10.94-.92-.64-2.07-1-1.09-2.31.73-1,1.39-1,2.6-.22,13.67,9.18,26.82,19.07,39.93,29C111.89,560,112.91,560.56,112.83,563.33Z" transform="translate(-17.25 -49.6)"/><path d="M507.09,327.74c12.67,16.55,26.87,30.49,36.47,47.94-6.39-9.64-14.37-18-21.65-26.9-2.16-2.64-4.23-5.18-7.9-6.07s-7.09-2.31-5.8-7.57C508.67,333.25,507.63,331,507.09,327.74Z" transform="translate(-17.25 -49.6)"/><path d="M696.66,268.71c-2.84,0-5.06-.45-6-2.73s1.49-2.93,2.8-3.9c3.75-2.78,6.55-6,6.73-11,.06-1.78.59-4.33,3.45-3.65a3.39,3.39,0,0,1,2.52,4.63c-1.39,4-2.49,8.13-3.48,12.3A5.61,5.61,0,0,1,696.66,268.71Z" transform="translate(-17.25 -49.6)"/><path d="M660.84,437c1.48,2.14,3.61,2,5.78,1.85,5-.33,10-.36,14.93-1,3.39-.47,3.47,1.77,3.83,3.72.56,3-2.07,2.45-3.57,2.58a116.38,116.38,0,0,0-15.9,2c-1.34.3-2.32.22-2.72-1.56C662.61,442,661.64,439.53,660.84,437Z" transform="translate(-17.25 -49.6)"/><path d="M471.46,300.86c-1.61,4.16.18,8.41-1.33,12.37-.46,1.2-.74,2.6-2.24,2.59s-1.34-1.62-1.42-2.45C466,308,464.24,303,463,297.79c-.75-3.16,0-6.83,3.38-7.29,3-.41,4.85,2.24,4.31,5.86C470.48,297.84,471.2,299.47,471.46,300.86Z" transform="translate(-17.25 -49.6)"/><path d="M512.45,188.61c-.43,2-1,4.47-1.46,6.91-1.42,6.75-1.35,6.43-8,5.07-4.89-1-5.23-2.68-2.53-6.47a58.73,58.73,0,0,1,6.7-8.36,3.94,3.94,0,0,1,3.9-1.24C513,185.08,512.32,186.81,512.45,188.61Z" transform="translate(-17.25 -49.6)"/><path d="M525.89,159c1.31-4.36,2-7.61,3.24-10.66,3.14-7.76,6.45-9.25,14.47-7a2.1,2.1,0,0,1,1.75,1.68c.18.91-.45,1.26-1.15,1.49-5.3,1.73-7.3,7.08-11.24,10.33A25.55,25.55,0,0,1,525.89,159Z" transform="translate(-17.25 -49.6)"/><path d="M480.88,450.81a42,42,0,0,1-20.9-6.87c-2.25-1.49-4.64-2.58-7-3.89a2.32,2.32,0,0,1-1.11-3.19c.95-2.21,2.19-.29,2.91.16,8.06,5,16.89,7.67,26.11,9.38,2,.36,5.2.09,4.78,3C485.33,452,482.25,450,480.88,450.81Z" transform="translate(-17.25 -49.6)"/><path d="M548.15,86.44c3,.51,2.9,3.7,5.32,5,2.27-1.76,2.55-4,1.06-6.75,3-.56,2.6,2.79,4.66,3.26,1.7-2.55-.27-4.69-.77-6.9-.24-1.06-.95-2,.26-2.8a2.09,2.09,0,0,1,3.22.7c2,2.94,4,5.9,5.86,8.9,1.12,1.78-.58,2.2-1.6,2.52-4.63,1.45-9.33,2.64-13.31,5.62-.71.53-1.52.91-2-.43C550,92.57,547.9,89.94,548.15,86.44Z" transform="translate(-17.25 -49.6)"/><path d="M95.3,507.9a141.59,141.59,0,0,1,30.43,36.8c.52.9,2.35,1.93.6,3-1.37.87-2.16-.59-2.9-1.6Q109.38,527,95.3,507.9Z" transform="translate(-17.25 -49.6)"/><path d="M522.67,271c1.35,17.11.17,34-2.13,50.76-.49,3.54-1,7.08-1.61,10.61-.17,1,.62,3-1.58,2.48-1.26-.29-1.56-1.34-1.26-2.95a250.82,250.82,0,0,0,4-26.5c.77-9.84,1.63-19.64,1-29.52C520.91,274.25,520.29,272.19,522.67,271Z" transform="translate(-17.25 -49.6)"/><path d="M530.68,111c.3-4.57-2.33-7.9-3.38-12.18,3.78,1.16,3,5.55,6.51,7-.83-3.85-1.56-7.21-2.22-10.28,2-2.29,4.54,5.47,6.15-.78,0-.23-.08,4.26,2.44,1.53,2.37-2.56,1.33,1.88,2.86,1.17,1.06-.49,2.45,1.38,3.42.21.55-.66.21-2,.33-3.08s-1.41-1.73-.61-2.88c3,4.09,3.29,6.88-2.35,9.49C539.14,103.39,535.33,107.44,530.68,111Z" transform="translate(-17.25 -49.6)"/><path d="M888.39,608.44c1.45,0,1.71,1.29,2.22,2.1A491.41,491.41,0,0,0,918.8,650.9c1,1.23,1.47,2,0,3s-1.66-.4-2.26-1.18c-10.11-13.16-18.79-27.31-28.3-40.89C887.47,610.66,886.27,609.43,888.39,608.44Z" transform="translate(-17.25 -49.6)"/><path d="M779.7,578.49c7.8-1.32,15.39.08,23,.85,9.07.92,18.1,2.12,27.15,3.19,1.19.14,2.86-.17,2.49,1.79-.3,1.57-1.63.77-2.61.68l-48.33-4.85C780.7,580.08,779.94,580.06,779.7,578.49Z" transform="translate(-17.25 -49.6)"/><path d="M548.8,529.76c.51,1.93-.9,2.8-2.33,3.6-2.79,1.56-5.55,3.19-8.43,4.55-1.22.57-3.18,3.2-4-.15-.56-2.37-4.28-5.28.53-7.45,2.76-1.24,5.42-2.7,8.06-4.16C547,523.77,548.59,524.68,548.8,529.76Z" transform="translate(-17.25 -49.6)"/><path d="M834.58,593.14c-3.75,3.86-8.87,4-13.54,4.76-12.16,1.92-24.41,3.28-36.63,4.86-1.12.15-2.61,1.22-3-.8s1.42-1.81,2.53-2c12.41-1.56,24.82-3.13,37.26-4.51C825.73,595,830.32,595.17,834.58,593.14Z" transform="translate(-17.25 -49.6)"/><path d="M833,569.29c-.28.35-.6,1.08-.9,1.07a3.45,3.45,0,0,1-1.84-.7c-8.46-6.62-17.76-12-26.68-17.9-3.57-2.37-7.26-4.56-10.76-7-.91-.65-3.34-.82-2.22-2.72s2.12.33,3,.77c9,4.46,17,10.38,25.34,15.93,3.86,2.58,7.74,5.13,11.58,7.75A4.86,4.86,0,0,1,833,569.29Z" transform="translate(-17.25 -49.6)"/><path d="M825.64,663.82c8.05-16.81,15.89-33.69,25.34-49.76.68-1.15,1.1-3.91,3.19-2.44,1.78,1.24-.74,2.26-1.29,3.32-8.12,15.73-16.36,31.4-24.53,47.1C827.82,663.07,828.07,664.77,825.64,663.82Z" transform="translate(-17.25 -49.6)"/><path d="M839.56,602.42c-15.42,10.32-30.55,21.1-47.73,28.43C806.48,619.27,823.67,611.9,839.56,602.42Z" transform="translate(-17.25 -49.6)"/><path d="M116.75,550.7c-8.41-7.29-16.37-15-25.1-21.87-3.51-2.77-7.05-5.51-10.52-8.34-1.57-1.28-4.11-2.48-1.53-5s3,.81,4,1.71A448.32,448.32,0,0,1,116.75,550.7Z" transform="translate(-17.25 -49.6)"/><path d="M151.64,610.26c3.38,13.45,6.62,26.37,9.87,39.28.79,3.13,1.57,6.26,2.43,9.36.41,1.48.08,2.54-1.42,2.91s-1.59-.85-1.83-1.92c-3.58-16-7.13-32-9.78-48.2C150.87,611.46,151.16,611.17,151.64,610.26Z" transform="translate(-17.25 -49.6)"/><path d="M117.24,602.65c-14.13,13-28.4,25.83-44.42,37.24C74.29,635.1,106.56,608,117.24,602.65Z" transform="translate(-17.25 -49.6)"/><path d="M461.89,376.26c-1.87-5.15-4.48-10.17-5.37-15.48-.63-3.76,3.51-3.55,6.34-3.72,3-.18,3.62,1.69,3.41,4.11A40.67,40.67,0,0,1,461.89,376.26Z" transform="translate(-17.25 -49.6)"/><path d="M183.79,569.59q14.76-3.24,29.51-6.51A72.59,72.59,0,0,0,221,561c1.28-.44,2.11-1.09,2.52.88.28,1.29.88,2.59-.92,3C209.84,567.53,197.1,570.51,183.79,569.59Z" transform="translate(-17.25 -49.6)"/><path d="M469.15,332.77a110.08,110.08,0,0,1-3.07,11.13c-.62,1.65-2.31,3.38-4.71,2.26-2.09-1-1.78-2.63-1.35-4.56.73-3.3,1.11-6.68,1.56-10,.34-2.5,1.42-4,4.19-3.71C468.75,328.13,468.73,330.44,469.15,332.77Z" transform="translate(-17.25 -49.6)"/><path d="M543.75,518.86c.08,1.52-.94,2-1.83,2.57-2,1.15-4.1,2.08-6,3.34-5.65,3.72-6.38,3.39-7.67-3.38-.18-.95-.53-1.87.4-2.28,3.75-1.66,7.46-3.68,11.41-4.55C542.29,514.06,542.56,517.46,543.75,518.86Z" transform="translate(-17.25 -49.6)"/><path d="M113.86,597.71c-9.89,4.29-19.62,8.4-29.27,12.72-6.85,3.06-13.59,6.37-20.35,9.62-1.33.64-2.81,1.63-3.47-.45s1.57-1.44,2.48-1.92c15.18-8.11,31.92-12.62,47.27-20.38C111.4,596.85,112.4,596,113.86,597.71Z" transform="translate(-17.25 -49.6)"/><path d="M160.57,607.43q9.3,17.45,18.59,34.9A59.61,59.61,0,0,1,183,650c.39,1.08,3.3,2.21.62,3.77s-2.39-1.27-2.94-2.32c-3-5.7-6.17-11.35-8.59-17.29-3.68-9-8.76-17.39-12.95-26.16Z" transform="translate(-17.25 -49.6)"/><path d="M108.29,577.8c-5.74-.36-11.47-.74-17.2-1.08-11.62-.69-23.23-1.34-34.85-2.09-1.05-.07-3,.91-3.06-.93-.12-2,2-1.84,3.25-1.74,17.29,1.31,34.58,2.71,51.87,4.09Z" transform="translate(-17.25 -49.6)"/><path d="M512.58,129.07c-1.37-4.18-4.52-7.64-4.25-12.6,3.3,1.26,2.31,4.89,4.4,6.64,1.26-1.28.65-2.7.23-3.89-.66-1.84-1-2,1.61-2.36s.69-3.61.77-5.58c0-1.18-2-2.9.61-3.32,1.55-.25,2.13,1.31,2.85,2.67C523.18,118.92,518.51,124.07,512.58,129.07Z" transform="translate(-17.25 -49.6)"/><path d="M506.31,251.85c-1.07,2.13,1.42,6.19-3,7.13-2.51.53-6.32-5-6.31-8.78,0-3.13,4-8.94,5.91-8.12C507,243.89,505.69,248.11,506.31,251.85Z" transform="translate(-17.25 -49.6)"/><path d="M56.22,669.11c-6.75,1.67-12.79,3.19-18.12-1.84-1.13-1.07-2.73-2.34-2-4.08s2.61-.31,3.85-.64C46.86,660.75,51.19,664.79,56.22,669.11Z" transform="translate(-17.25 -49.6)"/><path d="M233.29,667.3c2.53,1,6.78.69,9.76,3.78,1.2,1.25,2.18,2.79,1.43,4.31s-2.7,1.13-3.85.59c-3.36-1.55-7.22-.15-10.44-2-1.85-1.08-3.18-2.47-2.27-4.79C228.67,667.26,230.08,666.34,233.29,667.3Z" transform="translate(-17.25 -49.6)"/><path d="M867.76,546.52c-.49-6.12-1.18-12.24-1.41-18.37-.38-10.18-.69-20.35-2.65-30.38-.21-1.07-.4-1.52.89-1.58,1.59-.07,2.13.58,2.21,2.17.33,6.25,1.08,12.49,1.16,18.74.12,9.8.77,19.56,1.52,29.33Z" transform="translate(-17.25 -49.6)"/><path d="M908.66,507.31c1.83,1.08.93,2,.43,2.92q-11.42,20-22.88,40.06c-.41.71-.85,1.84-1.91,1.24s-1.09-1.59-.31-2.71C893.17,535.59,899.55,520.69,908.66,507.31Z" transform="translate(-17.25 -49.6)"/><path d="M659.43,104.08c13.05-1.47,17.5,1.35,20.91,14.36-2.43-5.13-5.27-6.45-9.47-5.27-2.41.68-4.55.25-4.54-3.32C666.35,105.56,661.24,106.7,659.43,104.08Z" transform="translate(-17.25 -49.6)"/><path d="M867,615.07c-2.42,13.68-2.28,27.67-5.63,41.2-1.07,4.32-1.25,8.85-1.8,13.29-.14,1.07-.09,2.37-1.67,2.06s-.49-1.42-.39-2.12q3.13-21.75,6.37-43.48C864.39,622.26,864.9,618.44,867,615.07Z" transform="translate(-17.25 -49.6)"/><path d="M690.68,677.11c-3.49-1.52-7.8-.37-11.72-1.77-1.48-.53-4.3,0-3.44-2.83.65-2.14,2.07-4.38,5.06-3.74,4.16.9,7.86,3.26,12.22,3.66,1.11.1,3,1.33,2.45,3S692.78,677.2,690.68,677.11Z" transform="translate(-17.25 -49.6)"/><path d="M178,598.53q19.11,11.67,38.23,23.34c1,.62,1.91,1.09.83,2.37s-1.82.52-2.75-.11c-7-4.68-14-9.32-21-14q-8-5.31-15.9-10.65Z" transform="translate(-17.25 -49.6)"/><path d="M599.09,99.48c2.23-1.85,3.79-3,5.23-4.37,2.15-2,4.54-2.88,7.33-1.77s2.34,4.14,2.64,6c.39,2.44-3.32,3-4.84,4.83-.73.9-2.13-.12-2.71-1C605.13,100.93,602.52,100.8,599.09,99.48Z" transform="translate(-17.25 -49.6)"/><path d="M903,570.82c14.38-5.45,29.39-8.46,44.46-11.19C933.19,565.62,917.7,566.71,903,570.82Z" transform="translate(-17.25 -49.6)"/><path d="M512.22,456.09c-2.31,0-4.62-.09-6.93,0-1.88.09-3.22-.59-3.5-2.43-.39-2.52,1.87-1.42,2.95-1.84,3.93-1.49,8.08-.83,12.14-1.11,3.08-.21,4.66,1.78,4.54,4-.13,2.4-2.85,1-4.4,1.26a33.39,33.39,0,0,1-4.8.05Z" transform="translate(-17.25 -49.6)"/><path d="M950.24,583.81c-15.47,1.52-30.75-1.32-46.12-2C919.54,581.38,935,581.09,950.24,583.81Z" transform="translate(-17.25 -49.6)"/><path d="M447,669.9a22.2,22.2,0,0,1,2.63.45c2.14.63,4.68,1.92,4.18,4.08s-3.12,3.24-5.69,2.38a23.91,23.91,0,0,0-9.46-1c-1.42.1-2.58-.08-2.75-1.66s.79-2.13,2.24-2.39C441.13,671.23,444.06,670.54,447,669.9Z" transform="translate(-17.25 -49.6)"/><path d="M185,511.86c-5,12.91-14.64,22.32-19.89,34.31C167.46,532.49,176.22,522.55,185,511.86Z" transform="translate(-17.25 -49.6)"/><path d="M934.57,533.14c-12.53,9.28-25,18.47-37.37,27.72-.83.62-1.35,1.13-2.1.14-1.19-1.58.17-2.42,1.16-3a90.71,90.71,0,0,0,10.82-6.93q11.71-8.49,23.6-16.74C931.72,533.65,932.64,532.08,934.57,533.14Z" transform="translate(-17.25 -49.6)"/><path d="M461.64,248.76a10.5,10.5,0,0,1-2.15-7.13c.05-4.67,5.87-8.41,10.09-6.33,2.79,1.38.66,3.44-.22,4.21C466.4,242.11,464.29,245.37,461.64,248.76Z" transform="translate(-17.25 -49.6)"/><path d="M502.31,558.79c4.55-4.68,7.18-4.74,10.76-.79,1.79,2,3.87,3.71,5.53,5.78,1,1.22,4.13,1.88,1.78,4.45s-3.29-.19-4.51-1.35c-2.44-2.34-4.78-4.79-7.13-7.22C506.91,557.76,505.08,556,502.31,558.79Z" transform="translate(-17.25 -49.6)"/><path d="M101.86,590.8c-15.32,4.82-30.31,10.59-46.6,10.75Z" transform="translate(-17.25 -49.6)"/><path d="M622.08,75.06V67.83c3.89.4,4,.38,4.37,3.15a7.13,7.13,0,0,0,3.64,5.89c-4.4,0-7.89-.19-11.34.08-2.14.16-1.84-1.16-1.91-2.28-.14-2.32-.32-4.66-1.53-6.68-.7-1.17-.86-1.92.48-2.49,1.1-.47,1.61.32,2,1.12C619.11,69.15,620.38,71.7,622.08,75.06Z" transform="translate(-17.25 -49.6)"/><path d="M549.7,463.51c1.53,5.28,5.69,10.31.41,15.67-2.57,2.6-3.51,1.81-4.49-1.31C543.83,472.16,547.82,468.16,549.7,463.51Z" transform="translate(-17.25 -49.6)"/><path d="M530.3,438c-3.78-1.59-7.31-8.11-6.61-11.49.31-1.52,1.23-1.84,2.56-2.08,2.64-.49,4.31,1.22,6.07,2.57a2,2,0,0,1,.27,3.19A8.59,8.59,0,0,0,530.3,438Z" transform="translate(-17.25 -49.6)"/><path d="M514.53,572c-13.63,1.75-27.22-1.65-41.59-.18C476.74,569,507.49,569.16,514.53,572Z" transform="translate(-17.25 -49.6)"/><path d="M680.63,682.88c-4,3-8.17,2.9-12.61,2-2-.41-4.46-.68-4.19-3,.29-2.5,2.6-3.86,5.26-3.25A44,44,0,0,1,680.63,682.88Z" transform="translate(-17.25 -49.6)"/><path d="M405.29,683.3c4.39-4.52,13.81-4.7,17-.93,1.45,1.72-.12,3.3-1.26,3C416.07,683.92,410.77,685.17,405.29,683.3Z" transform="translate(-17.25 -49.6)"/><path d="M351,471.27c-4.16,1-4.32-1.9-4.44-5-.09-2.28.25-3.9,3.14-3.63,3.49.33,6.11,1.09,6.21,5.54C356,472.27,353.39,471.08,351,471.27Z" transform="translate(-17.25 -49.6)"/><path d="M343.46,675,297,678.3C312.41,675.7,327.87,674.07,343.46,675Z" transform="translate(-17.25 -49.6)"/><path d="M495.06,311.7c0-3.5,2.5-6,4.39-8.75a2.08,2.08,0,0,1,2.89-.53,2.17,2.17,0,0,1,.8,3.24,34,34,0,0,0-3.3,7.27c-.53,1.52-.9,4.21-2.89,3.91C494.46,316.47,495.25,313.77,495.06,311.7Z" transform="translate(-17.25 -49.6)"/><path d="M492.22,159.2c-3.8,2.15-4.77,6.89-8.38,9.24-2.43-4.21-.77-8.4-.22-13,2.07.91,5.16,4.76,4.86-2.52,1,3.15,1.91,5.06,3.73,6.27Z" transform="translate(-17.25 -49.6)"/><path d="M629.35,677.92c-13.15,2.6-26.25,1.64-39.31-1C603.11,678.39,616.21,677.73,629.35,677.92Z" transform="translate(-17.25 -49.6)"/><path d="M447.83,293.08c3.77-2,5-5.75,7.17-9,2.07,4.95,2.07,4.95.8,14.47C452.77,297.3,451.09,294.24,447.83,293.08Z" transform="translate(-17.25 -49.6)"/><path d="M199.86,548.61c4.36-3,8.71-6.08,13.08-9.08,1.27-.86,2.63-2.32,3.68.36.72,1.82,1.91,3.48-1.15,4.39-5.21,1.56-10.36,3.31-15.53,5Z" transform="translate(-17.25 -49.6)"/><path d="M144.47,620.79q-1.16,21.84-2.32,43.66l-1.16-.06,2.25-43.53Z" transform="translate(-17.25 -49.6)"/><path d="M189.21,385.8c9.57,2.08,16.87-2.52,25-4.06C208.83,388.35,197.14,390.58,189.21,385.8Z" transform="translate(-17.25 -49.6)"/><path d="M627.05,93c2.63-.83,4.82-1.65,7.07-2.17,1.35-.31,3.08-.66,4,.76a4.14,4.14,0,0,1-.4,4.58c-1,1.41-2.18,2.41-4.08,1.83A10.7,10.7,0,0,1,627.05,93Z" transform="translate(-17.25 -49.6)"/><path d="M556.1,116.65c-3.75,4.94-3.72,10.22-6.22,14.69-1.31-4.68-.18-9.65-2.84-13.89a1.48,1.48,0,0,1,.81-2.19c1.64-.85,3.25-1.68,4.65.42-.9,1.68-2.78-.07-3.7,1.2C551.49,119.66,551.49,119.66,556.1,116.65Z" transform="translate(-17.25 -49.6)"/><path d="M523.14,118.9c-3.18-5.44,1.38-9.21.56-13.37-.09-.45,1.39-1.48,2.13-.6,1.36,1.63,3.17,2.92,3,5.66C528.59,114.37,524.89,115.05,523.14,118.9Z" transform="translate(-17.25 -49.6)"/><path d="M943.32,680.31c5.14-5,8.93-5.64,13.34-2.78.69.44,1.92.33,1.54,1.59-.28,1-1.3,1-2.12,1.28C951.85,682.08,947.83,679.91,943.32,680.31Z" transform="translate(-17.25 -49.6)"/><path d="M50.91,395.73c7,1,17.79,10.51,19.17,16.33C63.53,406.84,58.8,400.6,50.91,395.73Z" transform="translate(-17.25 -49.6)"/><path d="M374.26,403.23c-3,0-5.8,0-8.59,0a1.94,1.94,0,0,1-2.09-2c-.14-1.24.35-1.83,1.52-2.4C369.26,396.82,371.49,397.71,374.26,403.23Z" transform="translate(-17.25 -49.6)"/><path d="M514,264c-1.23,1.77-1.25,4.44-2.35,6.55-1.32,2.55-3.73-1.35-5.67.21-.86.69-1.08,0-1.26-.8-.5-2.2,1.55-1.84,2.48-2.64,1.61-1.38,3.07-2.95,4.65-4.38.43-.39.42-1.55,1.45-1C514,262.25,514.41,262.79,514,264Z" transform="translate(-17.25 -49.6)"/><path d="M713.51,672.27c-.89,2-3.44,1.68-2.79,3.66s2.29,1.07,3.62.93c1.86-.21,3.77-1,5.84.64a8.19,8.19,0,0,1-8.55,2.57c-2.77-.63-2.24-3.62-2.63-5.32C708.48,672.51,711.27,672.92,713.51,672.27Z" transform="translate(-17.25 -49.6)"/><path d="M650,113.67c-.27,1.51-1.16,2.74-2.43,2.58a6.37,6.37,0,0,1-5.86-5.92c-.12-.84-.29-2.61,1.38-2.14C646.11,109.05,648.26,111.22,650,113.67Z" transform="translate(-17.25 -49.6)"/><path d="M628.87,69.4c4.24,1,7.75,1.29,7.81,5.89,0,1.18,1.81,2.86-.71,3.22-1.46.21-3.75.08-3.86-1.81C632,74.08,630.07,72.41,628.87,69.4Z" transform="translate(-17.25 -49.6)"/><path d="M200.6,356.69c5.36-.23,10.51-3.12,16.35-1.27C211.55,359.17,206.07,358.15,200.6,356.69Z" transform="translate(-17.25 -49.6)"/><path d="M427.51,667.89c-4.3,2.26-8.72.81-13,1-.83,0-1.45-1.13-1.13-2.06a2.48,2.48,0,0,1,3-1.53C420.11,666.07,423.81,667,427.51,667.89Z" transform="translate(-17.25 -49.6)"/><path d="M661.1,68c1.91,3.87,4.83,7.41,5.27,11.9.11,1.07,1.12,2.67-.86,3-1.67.33-2.49-.49-2.68-2.34C662.39,76.41,661.69,72.22,661.1,68Z" transform="translate(-17.25 -49.6)"/><path d="M484.08,536.15c-1.9-2.21-6.63-2.72-5.22-6.32s5.14-2.69,5.21,1C484.11,532.58,484.08,534.36,484.08,536.15Z" transform="translate(-17.25 -49.6)"/><path d="M496.53,179.89c1.1-9.57,1.1-9.57,8.33-5.64A36.8,36.8,0,0,1,496.53,179.89Z" transform="translate(-17.25 -49.6)"/><path d="M221.5,317.32c5.47,2.82,11.41,3.13,17.58,3.27C235.19,324.45,230.52,323.56,221.5,317.32Z" transform="translate(-17.25 -49.6)"/><path d="M71.77,358.48a5.77,5.77,0,0,1-4.68,2.65c-1.8.13-2.59-1.4-2.54-2.79.11-2.67,2.55-3.51,4.51-3.72S70.61,357,71.77,358.48Z" transform="translate(-17.25 -49.6)"/><path d="M494,332.85c-1.83-3-5.85-3.41-4.78-7.08.43-1.47,2.54-1.39,3.82-.78C496.41,326.59,495.4,329.22,494,332.85Z" transform="translate(-17.25 -49.6)"/><path d="M473.88,285.68c-1.48-1.9-5.54-1-4.82-4.43.55-2.63,3.3-2.31,4.8-1.61C477,281.12,474,283.48,473.88,285.68Z" transform="translate(-17.25 -49.6)"/><path d="M893.27,583c-4.82,2.92-9.2-.43-13.82-.66C884.15,580.68,888.68,582.55,893.27,583Z" transform="translate(-17.25 -49.6)"/><path d="M642,672.7c2.3,1.19,4.43,1.61,6.83.54a1.64,1.64,0,0,1,2.27.77c.53,1.4-.7,1.75-1.61,2.25C645.21,678.59,644,675,642,672.7Z" transform="translate(-17.25 -49.6)"/><path d="M213,676.28c1.41,2.41,5.32.82,6.65,3.62.44.92-1.16,2.17-2.06,1.54-2-1.41-5.8.58-6.33-3.34C211.13,677.21,211.47,676.35,213,676.28Z" transform="translate(-17.25 -49.6)"/><path d="M963.87,688c3.58-2.81,6.76-2.12,9.92-.7C968.92,689.94,968.92,689.94,963.87,688Z" transform="translate(-17.25 -49.6)"/><path d="M695.23,390.19c-8.37-.46-9.5-1.48-9.27-9.73C687.58,386.48,691.15,388.52,695.23,390.19Z" transform="translate(-17.25 -49.6)"/><path d="M863.72,558.64c-1.65,3.28.64,5.91-.51,9.48l-4.88-7.77Z" transform="translate(-17.25 -49.6)"/><path d="M168.55,554.91c-2.13,2.47-3.59,3.87-6.16,1.6-1.44-1.28-1.74-2.72-.47-3.5C164.67,551.31,165.79,554.89,168.55,554.91Z" transform="translate(-17.25 -49.6)"/><path d="M648,100.46c-.34,1.47-.68,3-2.54,2.89-1.1-.06-2.83,0-2-2.08.57-1.43.44-3.66,2.28-3.88S647.51,99.22,648,100.46Z" transform="translate(-17.25 -49.6)"/><path d="M662,94.57c3.71-2.77,7-2,10.25,0Z" transform="translate(-17.25 -49.6)"/><path d="M878,587.29l12.74,5.19A21.61,21.61,0,0,1,878,587.29Z" transform="translate(-17.25 -49.6)"/><path d="M134,477.8c17.49-.06,32.29,4.05,47,8.48,4.23,1.27,1.65,3.78,1.4,6-.57,5.06-2.34,5.74-7.43,3.86-22.5-8.32-45.23-9.54-67.66.42-3.48,1.54-4.51-.71-6.16-2.33-7.26-7.13-7.25-7.18,2.12-10.34C113.84,480.29,124.53,477.37,134,477.8Z" transform="translate(-17.25 -49.6)"/><path d="M151.36,542.93c-1.82-.34-2-1.5-1.92-2.84q1.4-21.42.71-42.88c0-1.2-1.27-3.49,1.83-3.32,2.46.14,2.22,1.73,2.22,3.36C154.17,512.45,154.76,527.68,151.36,542.93Z" transform="translate(-17.25 -49.6)"/><path d="M131.36,492.89C135,509.61,138,526.45,142.72,544c-5.35-2.67-4.51-7.21-5.3-10.56-2.88-12.32-5.18-24.77-7.65-37.19a15.71,15.71,0,0,1,0-3.07Z" transform="translate(-17.25 -49.6)"/><path d="M166.08,496.5c1.19.7,3.6.4,3.27,2.59-1.18,8-.64,16.36-6.21,24.61C164.2,513.89,165.12,505.42,166.08,496.5Z" transform="translate(-17.25 -49.6)"/><path d="M146.49,547a10.34,10.34,0,0,1,2.64.43c1.25.58,3.8-.52,3.59,1.87-.19,2.18-2.15,1.73-3.79,1.35a8.63,8.63,0,0,0-2.58.07c-1.48.14-3.55,1.14-3.72-1.34C142.44,546.62,145.05,547.54,146.49,547Z" transform="translate(-17.25 -49.6)"/><path d="M102.07,445.13c6.84-3.05,13.79-5.14,20.39-8.19,1.11-.52,2.44-.95,3.13.71.89,2.11,2.32,4.21,2.41,6.36.07,1.7-2.3,1.07-3.59,1.09C117,445.17,109.52,445.13,102.07,445.13Z" transform="translate(-17.25 -49.6)"/></svg>