<svg id="Layer_1" data-name="Layer 1" xmlns="http://www.w3.org/2000/svg" viewBox="0 0 943.69 300.87"><title>fish5</title><path d="M133.26,213.91c1.59-8.17-5.5-9.08-10.14-10.8-5.06-1.87-9.47-4.86-9.21-9.53.32-5.48,6.3-6.3,11.08-6.65,7-.52,11.44-9.19,20.39-5.33,3,1.28,2-4.07.06-6-11.22-11.23-21.28-23.66-34.58-32.73-5.12-3.49-11.18-6.41-12.45-13.56l-.22.25c10.76,3.71,18.55,11.78,27,18.75C139.32,160,153,172.17,167,184c2.67,2.25,6.54,5.21,9.48,2.17s-1.17-5.36-3.38-7.4c-5.85-5.39-11.94-10.53-17.56-16.14-22.85-22.76-51.25-38.71-74.45-61.06-5-4.84-11.13-9-18.89-10.3,1.21,8.46,9.72,10.26,12.07,16.75l.23-.24c-7.74-.5-12.81-7.12-20.75-8.27,13.18,17,29.5,30.88,47.34,46.87-12.19-2.86-21.42,1.25-31,2.29-5.54.6-10.29.28-12.73-6-2.18-5.6-3.05-10.62,2.07-15.28,2.1-1.91,6.29-3.55,3.93-7.51s-5.62-.39-8.51-.17c-9.29.72-18.17-.13-26.45-5.28-5.37-3.34-3.91-8-4.1-12.69-.21-5.15,3.12-5.35,6.91-6,3-.54,6.45-1.68,8.69-3.69,21.13-18.92,42.63-9,63.69-.6,38.73,15.44,71.39,39.81,99.83,70.05,5.17,5.5,10.85,2.36,15.36-.09,45-24.5,93.66-34.77,144.12-38.65,6.7-.52,13.34-1.73,20.08-2.62-.23,17.53,5.58,35.15,39,41.58-1.58,8.85-7.44,5.81-12.58,4.51-12.75-3.22-24.94-4.4-36,5.42-7.7,6.85-11.29,14.42-9.82,24.94,2.29,16.29,6.52,31,26.44,38.9-10.67,1.34-16.91,5.67-23,10.19-3.31,2.47-5.46,6-4.93,10.36.65,5.19,5,4.95,8.9,6,7.57,2.1,14.35,6.09,23,2.41,5.26-2.25,9.56-7.31,8.65-10.08-5.12-15.72,9.53-32.53-5-48.38-8.45-9.24,2-25.22,15.11-26.32,3-.25,4.09,1.16,5,3.74,4.38,12,12.91,19.7,27.48,23.94-12.91,2-23,6.1-30.31,13.21s-10,17.7-10.21,28.37c-.31,14.57,18.67,30.48,32.83,27.1,8.29-2,6.81-7.45,3.82-12.95-7-12.88-5.18-20.44,6.63-29.13,4.5-3.3,11.67-4.38,10.7-12.65,4,2.3,3.25,6,4.47,8.83,5.41,12.57,11.56,24,27.16,26.55,13.47,2.24,26.62,7,40.46,6.09,5.83-.39,11.88-2,16.52-6.16,2.32-2.1,5.18-4.52,3.69-8.13a8.73,8.73,0,0,0-8.52-5.54,22.94,22.94,0,0,0-7.07,1.18c-15.68,5.36-29.94-1.29-44.12-5.89-7.84-2.54-10.46-9.88-9.42-18.61,1-8.41,5.78-11.43,13.27-12.78,4.18-.76,10.46,2.41,11.92-4.67,1-4.62,3.44-10.16.7-14s-8.19-.89-12.36-.32c-15.65,2.13-28.14,8.68-33.93,25.59,4.65-10.77,0-17.49-7-24.53s-3.63-14,3.84-18.82c7.28-4.7,15.73-10.17,12.53-19.36-3.26-9.35-13.85-6.84-22-7.08-4-.12-7.78,1.26-11.65,2.16-4.39,1-6.66,9.11-11.09,5.26-5.44-4.73-11.61-9.66-13.09-17.87-2.36-13-2.56-13-17.9-14.5A1046.13,1046.13,0,0,1,508,103.31c35.38-2.84,70.72-7.4,106.32-3.57,2.6.28,4.88-.08,5.93-2.76,1.3-3.32.31-6.22-2.06-8.78-9.45-10.2-18.71-20.59-28.39-30.56-5.41-5.57-8.92-11.71-6.54-19.32,2.43-7.76,10.25-6.55,16.23-7.65s11.95.67,17.35,3.36c31,15.48,62.31,30.51,89.76,52.15,3.12,2.46,7,4.32,9.37,7.35,14.84,18.8,35.42,26.32,57.61,32.94Q835.84,145,897,167.43c23.17,8.5,43.76,22.82,64.11,36.84,9.19,6.33,8.43,13.45,1.54,21.41-18.26,21.11-43.33,30.15-67.79,40.8C870.65,277,846.25,286.7,821,294.15c-10.56,3.11-20.21,7.93-26.23,17.61-11.24,18.1-29.92,18.07-47.66,19.4-8.61.65-3.85-5.16-2.5-8.81,2.06-5.55,12.64-8.72,7.2-15.61-4.39-5.57-12.64-1.24-19.26-.86C695,308,657.35,309.16,620,306.12c-51.62-4.2-102.85-12.25-154-20.69-22-3.64-43.93-7.6-65.88-11.46-10.53-1.85-20.52-1.87-29.29,5.78-13.24,11.56-28.1,10.8-43.44,5-4.39-1.66-8.77-3.37-13.58-5.21,4.29-5.09,8.31-9.43,11.78-14.18,1.36-1.87,1.39-5-.86-6.45-1.7-1.11-3.84,0-5.25,1.68-3.33,3.94-7.77,7.4-9.73,11.94-2.84,6.59-6.44,3.26-9.37,1.54-4.77-2.8-.72-5.16,1.17-7.38.76-.9,2-1.45,2.66-2.39,2.67-3.66,8.86-6.12,6.58-11.6-2-4.85-7.78-2.72-11.94-3.28-21.81-2.92-43-7.94-63.47-16.32-35.78-14.65-36-14.19-63.64,14.06-17.29,17.69-34.7,35.65-56.23,48.15-17.24,10-35.85,16.26-54.2.93a14.77,14.77,0,0,0-5.42-2.44c-7.72-2.2-13.93-6.64-11.42-15.15,2.38-8.05,8.84-12.73,18.27-12.45,5.05.16,12.17,4.69,14.57.44,2.93-5.18-6.3-5.4-8.26-9.23-2.29-4.46,0-8.42,3.91-10.9,4.77-3,9.73-5,15.8-2.77a8.75,8.75,0,0,0,10.62-3.47c1.94-2.93-.08-5.49-1.94-7.44C92.82,228,90.58,223.2,95.3,217c5.28-6.91,12.35-6.88,19.42-4.87,5.71,1.63,11,4.9,17.25,3.38-2.68,6.73-7.27,12.17-12.08,17.4-14.15,15.4-29.72,29.52-42.57,46.11-3.84,5-9.94,9.25-7.4,17.86,1.93-1.17,3.47-1.74,4.53-2.79,24.06-24.09,45.87-50.34,70.8-73.61,3-2.78,6.31-6,7.05-10.78.37-2.4,1.33-4.58-1-6.49s-4.67-1.1-6.53.42C140.82,206.9,137.09,210.47,133.26,213.91Zm641.66,83.15c18-.19,34.68-7.75,52-13.46,7.16-2.36,7.54-5,5.77-10.93a149,149,0,0,1-5.29-59.21c1.78-16.2,2-33.72,10.32-47.25,6.42-10.39,2.84-10.93-4.7-14.15-17.23-7.35-36.15-9.71-53-18.31-5.41-2.76-10.28-.38-13.86,3.84-6.7,7.9-13.1,15.93-15.58,26.5a470.49,470.49,0,0,0-8.83,51.78c-3.21,26.7,5.4,50.29,18.36,72.73C763,293.58,766.59,299.22,774.92,297.06ZM706.17,251a63,63,0,0,1-17,5.62c-14.16,2.54-19.86,14-23.88,25.61-2,5.86.19,14.35,7.64,15.22,22.06,2.59,44.32,6.12,66.5,2.24,8.24-1.44,13.15-7.33,8.66-16.79a132.07,132.07,0,0,1-5.67-13.12C734,245.59,726,221,734.1,195.34c5.45-17.33,7.23-35.73,15.69-52.18,4.26-8.3,2.93-14.7-7.07-18.67-7.71-3.06-15-7.18-23-9.78C692,105.69,682,109.81,669,136c-6.79,13.75-2.36,27.2,11.06,34.41,10.49,5.64,22.19,7.38,35.45,10.72-6.18,3.52-10.78,2.25-15.31,1.7-16.28-2-30,5.09-37.2,20-9.72,20.16.4,47.61,25.18,45.09A31.49,31.49,0,0,1,706.17,251Zm208.71-20.87c3.07-1.85,4.58-3.28,6.34-3.73,11.4-2.89,22.85-5.56,34.28-8.33,2.3-.56,5.48-1.12,5.66-3.46.14-1.86-1.76-4.72-3.54-5.74-28.25-16.19-55.2-34.52-87-44.18-17.56-5.33-20-5.87-29.3,14.15-13.59,29.18-10,59-3.65,89,1.55,7.3,5.54,7.33,11.13,5.38,30.68-10.65,61.73-20.35,90.41-36,1.54-.84,3.06-1.55,2.62-3.26-.68-2.59-3-3.2-5.47-3.78C929.72,228.65,923.46,234.88,914.88,230.13ZM556.13,210c0,16.81-.22,32.67.12,48.52.13,5.76-2,7.45-7.48,8-9.9,1-19.65,3.42-29.72,2.7-3.38-.24-6.53.51-7.76,4.14a8.48,8.48,0,0,0,1.92,8.91c6,6.21,34.49,3.4,39.57-4,2.31-3.34,4-3.61,5.61.16.91,2.16,1,4.65,1.83,6.87,2.09,5.85,6.62,9.82,12.52,8.74,6.93-1.25,5.44-7.78,5-12.83-.66-7.94-2.61-15.89-2.3-23.77,1.92-48.71-5.69-98.24,12-145.69,1.23-3.31,1.68-7.42-3.26-8.75-4.14-1.12-8.16-.62-10.51,3.43a25.84,25.84,0,0,0-2.83,7.84c-3.78,18.7-7.25,37.47-11.23,56.13-.61,2.82-.06,9.67-4.82,7.5-12.36-5.66-25.13-1.46-37.5-3.5,0-4.93,1-8.12,7.37-7a136.8,136.8,0,0,0,22.58,2.06c5.17,0,9.12-3.12,9.88-8.67.43-3.18-.15-6.25-3.5-8.18-9.49-5.46-32-.34-37.72,8.72-.71,1.12-.09,2.76-2.6,3-8.38.75-20.09-7.59-21.55-15.83-1.9-10.66,4.32-19.42,15.14-21.39,5.44-1,11-1.85,15.69-5,3.65-2.44,5.73-6.34,4.31-10.28s-5.53-4-9.26-2.9c-7.66,2.22-15.79,3.5-22.82,7-12,6-17.81,17.56-18.85,30.12-1,12.27,3.62,22.59,15,30.5,8.07,5.61,18,6.44,25.54,14.41,7,7.43,30.91,1.58,39.3-6.49v18.72c-4.15-1.63-4.48-7.41-8.89-6.48-10.63,2.24-21.42,1.64-32.12,2.53-5.46.46-5.55,6.46-6.12,10.4-.61,4.18,2.92,5.58,7,6.42C529.39,218.94,542.17,215,556.13,210ZM604,105.55c-7.4-.45-9.16.77-11.29,8.64-11.52,42.56-18.54,85.71-12,129.8,2.18,14.61,2.71,29.37,5.35,43.88,1.21,6.66,5.67,9.46,12.1,8.41,6.62-1.09,6-6,5.37-11.11a538.58,538.58,0,0,1,4.72-169.83C609.37,109.51,608.41,105.89,604,105.55ZM239.8,202.66c-3.84.57-5.32.87-6.81,1-4.24.39-9.26-.54-10.17,5.66s4.5,6.95,8.29,8.25c9,3.08,18.37,5.15,27.32,8.37,7.65,2.75,10.39-.84,11.19-7.36,2.13-17.37,4.4-34.74,5.86-52.17.82-9.74-4.64-14-14.31-11.8-6.56,1.51-12.91,4-19.26,6.37-17.75,6.47-17.72,6.51-4,19.88.47.46.47,1.42.8,2.46-3.73,3.28-11.86.68-12.63,6.41C225.12,196.78,233.35,197.67,239.8,202.66Zm368.53-24C607.68,199,616.78,210,638.6,214.9c5.22,1.17,11.87,3.84,15.22-1.6,3.18-5.19-.92-10.51-4.54-15-14.82-18.33-13.47-28.27,5.41-41.6,4-2.85,9.08-4.79,5.28-12.06-3.35-6.4-6.75-10.72-14.44-9.15C616.27,141.45,612,148.31,608.33,178.62ZM331.77,237.24c.46,3.16.9,7.09,1.64,11,.89,4.65,1.42,10.63,7.71,10.18,6.56-.48,9.18-5.62,8.82-12-.62-10.82.73-21.5,2.64-32.07,4.57-25.33,9.3-50.67,17.33-75.19,1.49-4.57,7.94-9,1.79-13.27-5.5-3.83-11.61.17-16.27,3.68-2.62,2-4.39,5.67-5.52,8.94C338.91,170.18,335.27,203.27,331.77,237.24ZM83.31,91.85a17.81,17.81,0,0,0,6.59,10.71c23,19,45.94,38.15,69.57,56.36,9.63,7.42,20.92,12.72,31.61,18.7,3.36,1.87,7.85,4.36,10.74.06,2.56-3.83-2.08-6.38-4.16-8.61a180.44,180.44,0,0,0-17.41-16.33c-26.14-21.5-55.6-38.15-83.68-56.8C92.73,93.39,89,89.82,83.31,91.85Zm523-42.34c22.37,9.69,36.24,29.61,55.27,43.18,1.92,1.37,2.88,6.25,6.15,2.72,2.64-2.83-1.05-4.67-2.73-6.71-7.76-9.44-16.77-17.57-26-25.77a112.82,112.82,0,0,1,18.92,10.92c13.26,9.48,27.4,17.77,39.3,29.09,1.67,1.59,3.8,3.6,6.16,1.31s.41-4.35-1.13-6.15a44.12,44.12,0,0,0-4.93-5.2C676.33,75.1,654,59.3,629,47.51a141.79,141.79,0,0,0-16.72-6.18c-4.4-1.43-8.42-1.36-11.5,3.28-2.86,4.32-.31,6.92,1.45,10.6C608,67.34,618.78,75.46,626,86.38c2.38,3.59,6.7,7.88,10.88,4.68,5.4-4.13-.66-8-3.07-10.64C624.43,70.33,616.65,58.82,606.31,49.51ZM196.75,201.91c-7.78.64-12.16,5.94-16.41,11.18-9.77,12.07-21,22.53-32.7,32.76-16.11,14.13-31.34,29.27-47,44-1.87,1.75-3.29,3.8-1.54,6.14,1.53,2.05,3.78.76,5.35-.19,5.78-3.46,11.63-6.87,17.07-10.81,25.51-18.51,45.93-42.84,70.78-62.13a34.23,34.23,0,0,0,9.68-12C204.9,205,201.53,203,196.75,201.91ZM615.51,248c0,16.76,20.93,35.76,38.39,34.84,3-.15,6-1.15,7-3.72,1.24-3.22-2.36-4.57-4.23-6.46-17.32-17.6-17.43-19-2.32-38.21,3.31-4.22,5.43-8.75-1-11.43C639.36,217.26,615.54,233.24,615.51,248Zm20.18-142.63c-3.28,0-8.46.13-13.62,0-8.77-.29-10.55,5-8.11,11.6,2.66,7.19,7.33,13.57,16.12,13.94,13.79.57,26.8-2.44,38.44-10.15,2.92-1.93,6.4-4,5.05-8.46-1.09-3.53-4.3-4.18-7.56-4.76C656.6,105.83,647.17,104.53,635.69,105.38ZM316.62,234c.39,5.54.26,8.4.87,11.09.65,2.91.62,7.21,5.05,6.84s3.4-4.58,3.72-7.57c.55-5.14.58-10.38,1.63-15.41,6.11-29.14,9.32-58.87,18-87.48.95-3.11,2.5-6.75-1.34-8.37-4.63-1.95-5.67,2.82-7.54,5.57a14,14,0,0,0-1.3,3.34C325,172.69,322.1,204.93,316.62,234Zm-141.7-25.09c-.61-1-1.13-2.58-2.23-3.41-2.46-1.86-4.34.24-6.38,1.39-9,5.07-14.48,13.57-21,21.17-19,22-43.25,38.94-60.64,62.51-1.93,2.6-7.3,5.35-4.12,8.56,3.92,4,6.86-1.48,9.47-4,23.06-22,46.13-43.94,68.89-66.23C164.81,223.12,171.21,217.46,174.92,208.88Zm304.42,49.94c-10.89-.1-20,1.29-24.94,11.67-1.62,3.42-3.13,8.53.46,9.32,8.07,1.78,16.82,7.31,24.85,1,6.19-4.86,11.67-8.87,20-5.29a5.71,5.71,0,0,0,7.88-3.4c1.48-4.47-1.54-6.83-5.11-7.9C494.61,261.85,487.07,257.71,479.34,258.82ZM462.13,142.35c3.73-.29,9.78,1.5,9.83-3.6.07-6.44,6.36-12.86,1-19.1-5.19-6-26.39-8.5-35.18-4.88-3.23,1.33-4,3.33-3.31,6.53,1.89,8.91,14.64,19.47,25.28,20.8C460.53,142.2,461.32,142.25,462.13,142.35ZM296.86,199.81c-4.61-.31-7.77-.45-10.91-.75-5.15-.5-8.25,1.91-9.73,6.68-1.85,6,2.57,7.18,6.64,9,7,3.17,14.35,3.67,21.88,4.18,8.91.6,7.8-6.63,8.81-11.15,1.39-6.14-3.09-8.15-8.68-8C301.71,199.88,298.55,199.81,296.86,199.81Zm-8.43,33.65c-2.39,2.38-8-1.56-8.08,4.56-.05,4,3.6,4.68,6.86,5.2,3.53.56,7,1.51,10.58,1.72,3.72.21,10.91,1.38,9.92-2.66-1.56-6.39,4.91-11.95.44-17.55-1.09-1.36-3.37-2.06-5.23-2.46a57.24,57.24,0,0,0-10.62-1.52c-5.46-.13-13.51-5.37-15.64,2.2S284.85,229.57,288.43,233.46Zm238.22,4c5.52-.45,11.93,1.1,17.87-2.34,3.56-2.06,5.08-4.74,4.52-8.75-.51-3.63-2.37-6-6.16-5.82-9,.53-18.12.94-27.06,2.24-5.34.78-8,5.24-7.52,10.5.55,6.26,5.91,3.58,9.34,4.09C520.35,237.76,523.18,237.44,526.65,237.44ZM313.86,152.88c-6.39,1.42-14.46,3.33-22.59,4.94a5.42,5.42,0,0,0-4.73,4.5,3.68,3.68,0,0,0,2.55,4.67c8.75,1.8,16.78,7.13,26.36,5,7.72-1.69,8.3-7.22,8.45-13.51C324.05,152,319.44,153.35,313.86,152.88Zm-12.28,24v-.08c-3.95,0-8-.47-11.83.14a7.85,7.85,0,0,0-7,7c-.32,2.49,0,4.88,3,5.57,7.62,1.78,14.72,5.4,22.94,5.11,8.74-.31,9-7.61,9.63-12.52.79-6-5.25-5.36-9.6-5.27C306.32,176.88,304,176.84,301.58,176.84ZM641,285.66c-3.32.52-9.16,1.47-15,2.37-3.47.53-6.25,2-6,5.94.22,4.45,3.42,4.25,6.89,4.25,6.72,0,13.44.5,20.16.9,5,.31,11.78,2.45,12.48-4.73.62-6.28-5.91-7.45-11.1-8.3C646.81,285.84,645.2,285.89,641,285.66ZM298.48,146.72c8.17-1,16.51-1.71,24.77-3,3.46-.55,7.67-2,7.15-6.49-.57-4.83-4.78-4.47-8.41-3.88-8.25,1.33-16.48,2.78-24.72,4.19-4,.68-9,1.65-8.1,6.67S295.24,145.55,298.48,146.72Zm242.74-12.34v.2c-3.59,0-7.19-.2-10.75,0s-7.64.48-7.72,5.49,4.46,5.17,7.65,5.8a53.16,53.16,0,0,0,11.91.56c6.28-.21,15.55.23,15.22-7.33-.31-7.26-9.67-3.76-15.12-4.77A6.76,6.76,0,0,0,541.22,134.38Zm2-17a65,65,0,0,0-8.73.55c-3.53.63-7.3,1.92-7.42,6.29-.18,5.93,4.68,3.84,7.76,4.11a134,134,0,0,0,16.5.78c4.29-.17,9.49-1.13,9.24-6.77-.2-4.65-5.08-3.94-8.42-4.37C549.38,117.62,546.61,117.59,543.18,117.38Zm6.87-12.59c-4.29,3.72-14.07-4.8-14.82,4.6-.53,6.63,9.09,5.87,14.5,5.6,5.85-.3,16.23,4.81,16.48-4.68C566.45,101.35,556,107.5,550.05,104.79ZM788.76,304.2c.51-1.68.23-3.42-1.33-4.07a5.74,5.74,0,0,0-6.57,1.23c-5.3,5.69-7.65,12.76-8.77,20.28a2.25,2.25,0,0,0,2.73,2.79c8.71-1.12,8.28-9.49,11.6-14.86A37.26,37.26,0,0,0,788.76,304.2ZM362.87,268.59c.1-5.56-3.73-6.1-6.33-4.55-6.5,3.89-10.86,10.09-14.22,16.81-1,1.91.71,4.79,2.67,3.65C352.09,280.38,358.47,275.2,362.87,268.59Zm392.34,48.88c.24,3.11-1,6.26,2.36,7.7,1.83.78,11.67-12.9,11.85-16.21.16-3-1.46-4.48-4.13-4.49C756,304.43,758.13,313.1,755.21,317.47ZM342.87,266.56c.26-1.8-.65-3.52-2.14-3.66a13.19,13.19,0,0,0-10.42,4c-2.75,2.66-6,5.25-6.06,9.58,0,.64,1.36,1.65,2.26,1.9C329,279.05,342.65,269.08,342.87,266.56Z" transform="translate(-24.17 -30.33)"/><path d="M129.88,171.6c-10.46-3-19.45,2-28.38,1.47-7-.4-13-1.64-14.42-9.37-1.46-8,6.38-7.38,10.51-10.41,6.78-5,11.07-2.32,15.89,2.93C118.54,161.73,124.38,166.5,129.88,171.6Z" transform="translate(-24.17 -30.33)"/><path d="M98.41,129.33c-11.94-2.78-16.59-13.67-23.94-21.56l-.23.24c9.59,5.4,18.65,11.4,24,21.57Z" transform="translate(-24.17 -30.33)"/><path d="M766.56,176.16c5.49-7,10.32-8.28,16.88-6.1,8.95,3,18.21,5,27.33,7.41,3.07.82,5,2.48,3.87,6-.89,2.68-3,3.61-5.62,3C795.35,183.17,781.71,179.83,766.56,176.16Z" transform="translate(-24.17 -30.33)"/><path d="M767.17,231.28a3.64,3.64,0,0,1-3.72-3.72c-.2-2.77,2.18-3.86,4.67-4.35,11.58-2.28,23.14-4.62,34.74-6.82,2.52-.48,4.91.07,4.87,3.37-.05,4.12-2.11,6.59-6.37,7.12C790.79,228.2,780.22,229.6,767.17,231.28Z" transform="translate(-24.17 -30.33)"/><path d="M787.9,196.73c5.53,0,11.07-.09,16.6,0,2.28,0,5.27-.12,5.32,3.12.07,4.43-3.34,4.69-6.68,4.51A136.89,136.89,0,0,0,770.19,207c-3.25.61-6.67,2.1-7-2.88-.24-3.72,1.13-7.22,5.73-7.36C775.25,196.6,781.58,196.74,787.9,196.73Z" transform="translate(-24.17 -30.33)"/><path d="M816.23,168.82c-14-3.62-25.57-6.49-37-9.69-1.88-.52-5.14-1.3-3.67-4.78a4.59,4.59,0,0,1,5.81-2.91c11.48,3.16,23,6.33,34.38,9.71,2.27.67,4.51,2.36,3.83,5.2C818.74,169.74,816.1,168.78,816.23,168.82Z" transform="translate(-24.17 -30.33)"/><path d="M807.36,243.21c-.5,2.75-2.49,4-5,4.43-10.54,1.79-21.11,3.42-31.66,5.2-2.54.43-4-.89-4.22-3-.14-1.24.87-3.57,1.8-3.83,11.82-3.36,23.82-5.85,36.17-6C806.25,240.08,807.23,241.4,807.36,243.21Z" transform="translate(-24.17 -30.33)"/><path d="M810.52,265.12q-14.88,5.61-29.75,11.23c-2.73,1-5.13,2-6.75-1.9-1.4-3.37-.45-5.26,2.5-6.72,10.76-5.34,22.35-4.07,33.52-6.07Z" transform="translate(-24.17 -30.33)"/><path d="M713.21,129.31a59.65,59.65,0,0,1,7.34,1c12.73,3,13.13,4.07,6.84,15.34-1.35,2.42-1.87,5.36-3.47,7.55-3.18,4.35-1.13,14.32-11.69,11.06-9.72-3-18.56-15.58-16.86-24.5S702.9,128.31,713.21,129.31Z" transform="translate(-24.17 -30.33)"/><path d="M711.9,203.21a74.8,74.8,0,0,0-2,25c.21,2-.06,4.62-2.63,4.27-8.21-1.1-17-2.19-22.08-9.48-3.5-5-3.3-11,1.42-16.35,6-6.76,11.81-13,22.11-10C712.72,197.78,711.43,200.86,711.9,203.21Z" transform="translate(-24.17 -30.33)"/><path d="M709.57,290.28c-4.92-3-12,3.89-13.68-4.5-1.39-7,9.53-16.71,17.5-17.42,11.63-1,12.92,9.22,12.54,14.93C725.18,294.23,714.32,286.25,709.57,290.28Z" transform="translate(-24.17 -30.33)"/><path d="M870.74,177.75c12.71.27,21.88,8.85,21.68,21.21-.12,6.79-3.63,12.73-10.5,14.35s-15,2.12-20-4c-3.33-4.07,1.63-9.15,2.45-13.83.78-4.45,5.79-5.93,10.62-5.29,2.47.33,6.32,2.65,6.68-1.64.38-4.54-4.13-3.88-7.11-3.91-8.78-.09-16.68,1.48-19.14,11.79a32.46,32.46,0,0,1-1.07,3.1c-.15-1.18-.36-2.35-.42-3.53C853.41,185.18,860.46,177.54,870.74,177.75Z" transform="translate(-24.17 -30.33)"/></svg>