<svg id="Layer_1" data-name="Layer 1" xmlns="http://www.w3.org/2000/svg" viewBox="0 0 947.42 550.44"><title>fishe4</title><path d="M567.07,22c3.18.68,6.34,1.71,9.56,2,4.2.32,8.37.6,9.75,5.36,1.29,4.46-1.24,7.86-4.55,10.38-20.1,15.27-38,32.9-56.26,50.28-7.22,6.89-11.58,15-15.45,23.55-3.39,7.52-7.83,10.84-16.2,8.18-16.69-5.3-33.91-8.48-53.76-12,30.52-26.23,60.18-49.32,99-62.46-19.7,24.22-50.87,34-61.8,63.31,13.62-16.34,30.09-29.41,46.79-42.37C539.17,56.52,555.32,46.65,571.64,37c3-1.78,7.37-3.55,5.64-8.08-1.46-3.83-5.71-2.68-8.8-2.29a318.68,318.68,0,0,0-140,52.6L398.74,98.56a56,56,0,0,0-19.62,14.7c8.92,1.54,17.3,2.86,25.64,4.44,6,1.15,9.86,2.91,7,11-3.14,8.89-3.5,18.57-3.26,28.18.16,6.47,1.22,12.11,5.54,17.23,6.62,7.87,6.48,14.64-.51,23.67-19.17,24.76-14.52,41.27,2.62,67.8,3.82,5.91,3.81,8.56-.65,13.73-8.68,10.07-18.64,19.25-20.22,34.2-1.89,18,5.63,31.38,17.71,42.77,6.74,6.36,5.61,10.6.39,17.12-8.1,10.11-17.29,20.17-15.7,34.83.28,2.54-.26,5.69,1,7.5,10,13.95,4.85,24-4.84,36.54-10.08,13-11.67,30-2.78,45.36,5.87,10.15,5.25,17.13-4.67,24.37-10.48,7.64-11.81,20.57-14.7,32.2-1.44,5.77,2.79,6.45,7.24,6.73,17.85,1.12,35.71,2.07,53.51,3.75,7.5.71,8.17-3,7-8.36-3.78-17.87,3.77-30.93,17.31-41.46,5.33-4.14,1.6-7.36-.69-10.93-7.07-11.06-14.29-22-11.74-36.29,2-11.24,4.32-22.24,15.88-27.92,4.68-2.3,2.9-5.29,1-8-2.87-4.22-6-8.25-9.2-12.25-8.65-10.91-5.59-22.05.32-32.44,4.3-7.55,10.11-14.32,15.74-21,4-4.81,5.05-8.94,1.4-14.6s-6.43-12.27-9.46-18.51c-10-20.53-5.78-39.24,8.66-55.66,4.51-5.13,4.23-7.92.66-12.89-4-5.6-6.94-12-10.23-18.12-10.76-20-3.53-48,16.13-60.22,5.54-3.44,3.23-5.44,1-9.31-7.25-12.61-16.13-24.58-18.44-39.45-2.42-15.5,2.06-20,16.51-14.37,17.51,6.77,36.56,5.2,54.05,13a644.16,644.16,0,0,1,118.18,68.45c42.62,31.18,81.84,66.36,118.65,104.09,17.84,18.27,38.83,15.64,60.34,13.78C851.24,320,875.71,312,900.52,306c14.36-3.49,28.64-5.81,43.37-5.16,7.13.31,16-1.14,19,7.15,3.31,9.28-.57,18-7.61,24.81-2.06,2-4.84,3.25-7.32,4.79-16.21,10-16.33,12,.34,22.12a59.17,59.17,0,0,1,17.5,16.21c7,9.72,5.51,18.22-4.66,24.76-5.05,3.25-10.87,4.23-16.26,6.43-2.37,1-5.07,2.05-5,5.13,0,2.43,2.38,3.06,4.25,4.3,10.43,6.9,19.8,14.92,25.47,26.52,5.07,10.35,1.83,18.43-9.12,22.4-15.69,5.7-31.48,3.65-47.51,1.57-31.23-4-60.44-16.71-92.1-19.54-42.2-3.78-78.52,8.2-110.84,34.49-12.5,10.17-25.64,18.83-40.79,25-25,10.23-47.43,25.9-71.85,37.32-32.43,15.18-67.55,20.3-103,24.69-76.5,9.49-151-1.09-222.26-27-73.38-26.69-136.93-70.22-189.27-129.35-19.92-22.49-38-46.16-55.4-70.55-5.91-8.29-1.94-14.47,2.49-19.67,17.7-20.8,33.57-43,52.55-62.88,41.49-43.4,90-76.12,144-101.67,26.08-12.34,51.93-25.75,79.81-32.69,25.95-6.46,46.26-21.9,68.42-34.7,32.9-19,66-37.72,101.4-51.72,22.87-9,47-13.44,71.64-14.54,5-.22,10.3,1.16,14.86-2.22ZM296.48,483.14c13.09,3.29,23.06,14.37,37.27,14.93a2,2,0,0,1,1.84,3.09c-4.61,8.36-5.41,19.13-15.5,24.61-1.81-4.87-5-8.37-8.89-11.67a283.88,283.88,0,0,0-29.86-22.25c-3.28-2.13-7-6.33-10.33-1.87-4.08,5.42,1.77,7.44,5.27,9.66,12,7.62,25,14.28,32,27.5,4.17,7.94,9.88,11,18.77,8.71-1.25,5-4.25,9.37.93,12.66,5.62,3.57,11.53,6.43,18.52,5.38a3.43,3.43,0,0,0,2.83-2.89c3.73-14,10-27.47,5.51-42.64-2.46-8.26-1.38-16.07,3.14-24.1,8-14.28,13.49-29.8,17.79-45.67s1.54-19.13-14.73-18c-2.08.15-4.42,2-6.13-.18-2.09-2.6.36-4.85,1.48-6.93,1.88-3.51,4.27-6.75,6.36-10.16,9.78-16,15.63-32.86,12.66-51.94-2.13-13.69-4.48-27.34-9.14-40.45-6.48-18.3-6.87-36.22,2.26-53.92,2.66-5.15,4.14-10.89,6.47-16.23,10.17-23.32,13.33-47,7.75-72.37-4.05-18.4-14.26-31.55-27.86-43.14-6.18-5.26-12.63-.87-17.13,1.56-4.94,2.68.48,7.51,2.46,11.08,7.22,13.07,15.09,25.81,21.6,39.23,4,8.32,8.7,16.82,7.07,27-2.85,17.75-5.76,35.48-14.8,51.35C341.88,277,342.26,300,351.2,321c8.53,20.09,6.87,39,3.75,58.9-2.53,16.15-12.06,29.75-22,40.73-7.28,8.05-23,3.35-35.07,3.58-1.09,0-2.19,0-3.29,0-2.41,0-4.19-.5-4.4-3.49-.78-11.15-6.81-20.64-10.26-30.94-5.4-16.08-2.47-30,7.52-43.06,7.1-9.29,14.71-18.25,21.08-28,9.3-14.23,13.34-29.33,7.87-46.71a242.23,242.23,0,0,0-18.7-43c-12.18-22.46-17.93-44.38-2.15-67.81,5.89-8.73,9.7-18.86,14.45-28.35C301.36,144,294.8,156.12,287.72,168c-7.61,12.71-9.45,25.67-4.38,39.81,5.81,16.18,13.8,31.33,22,46.26,14.26,25.94,10.58,49.5-6.93,72-2,2.6-4.39,4.91-6.44,7.48-14.37,18-27.45,36-17.71,61.53,4.49,11.75,11.19,23.82,6.1,37.49-2,5.41-4.18,10.9-5.09,16.54-2.09,13-6.27,24.81-14.1,35.5C255,493.1,247.5,501,244.69,511.75c10.57-4.66,16.58-13.66,22.3-22.67,11.5-18.1,11.32-18.22,29.89-5.54-4.32.68-7.61-1.91-11.27-3.43-2.63-1.1-6.43-3-7.95-.21-2.12,3.88,2.21,5.83,4.95,7A153.61,153.61,0,0,1,318.1,508c2.46,1.94,6.48,4.56,8.6,2,3.36-4.08-1.86-5.89-4.15-8.39C315.17,493.56,302.87,492.52,296.48,483.14ZM216.05,216.82c.84-5.73-2.64-16.46-2.79-27.43-.11-7.75-4.51-8.19-10.34-5.56-20,9-39.88,18.29-58.2,30.33C103,241.57,70.82,278.66,41.43,318.4c-2,2.74-3.83,5.57-2.06,9s5.15,2,7.91,2.25c4,.36,7.93.15,11.79,1.88,12.65,5.68,25.32,11.27,39.67,11.18,2.09,0,5.87-.33,6.18,3s-2.35,5.23-5.32,6.14c-9.32,2.86-18.52,3.66-27.61-1.16-5.77-3.05-11-7.41-17.8-8.21-4.18-.49-9.36-3.17-11.93,1.64-2.17,4.06,3.21,5.83,5.23,8.62,1.71,2.37,3.75,4.53,5.27,7,30.15,49.07,74.76,83.38,119.8,117.21,7.74,5.82,12,3.89,14.55-5.47,8-28.84,10.67-58.59,15.78-87.93C212.2,330.09,212,276,216.05,216.82ZM886.84,406.65c9.32-1.47,18.66-2.85,28-4.45,12.57-2.16,25.24-3.95,37.63-6.9,10.91-2.59,15.58-11.36,9.77-17.94-10.26-11.63-21.82-21.75-38.93-21.39-7.68.17-15.36.1-23,.09-7.21,0-14.52,1.39-21.91-1.13,28.36-3.75,51.61-17.57,73.5-34.23,2.28-1.73,5-3.9,3.92-7.22s-4.81-2.85-7.51-3.18c-12.47-1.51-24.87-.26-37.17,1.73-14.76,2.38-29.87,3.75-43.87,9-13.21,5-30.71-1.58-39.86,14.82-1.19,2.13-5.46.94-8.41.68-18.6-1.64-37.2-4.35-55.8-4.34-17.39,0-28.59-16.18-26.28-30.65,1.25-7.75-1.41-12.68-6.68-17.19-9.16-7.85-18.24-15.78-27.61-23.38-5.2-4.22-8.71-14-15.86-11.53-7.5,2.56-7.32,12.48-8.29,19.85-3.24,24.65-3.86,49.47-3.9,74.3-.07,40.64,1.58,81.22,7,121.51,3.54,26.27,4.87,26.57,26.83,11.83,3-2,5.93-4.28,9-6.34,5.37-3.65,9.56-10,16.13-10.75,10.33-1.25,10.42-6.38,8-14.33-1.55-5.07-4.32-11-.3-15.75,4.71-5.59,3.92-9.64-.06-15.33-4.61-6.6-4.51-15.12-1-21.89s10.44-8.85,18.57-8.44c15.34.79,30.76.81,46.13.48,6.93-.15,9,2.34,8.53,8.92-.52,7.29-.44,14.65,1.32,21.85s-1.15,9.08-8.18,7.87a232.82,232.82,0,0,0-43.73-3.2c-3.69.06-8.16-1.35-10.79,3.47,4,3.75,8.93,2.54,13.45,2.67,15,.45,29.9.61,44.89,2,9.59.91,14,9.15,21.85,11.14,24.37,6.17,48.9,11.69,73.4,17.31,16.69,3.83,33.34,4.18,49.65-1.87,5.21-1.93,11.76-4.61,6.88-11.52s-9.92-14.26-17.21-19.69C927.27,410.53,907.05,409,886.84,406.65ZM637.32,204.29c-6,2-8.79,5.91-9.35,11.49-1.58,16-3.62,32-4.54,48-2.68,46.73-3.21,93.52-3.76,140.32a816.16,816.16,0,0,0,6.16,108.28c1.16,9.53,4.77,10.22,12,5.5A111.63,111.63,0,0,1,654,508.71c20.13-8.79,20.75-8.71,18.37-29.75-4.71-41.57-5-83.3-4.47-125,.44-37.82-3.26-76.1,8.81-113.08,1.15-3.53-.62-6.17-3.49-8.47-9.12-7.3-18-14.86-27.12-22.19C643.3,208,640.15,206.19,637.32,204.29Zm-351-63.84c-11.77,2.12-20.46,4.75-23.15,16.77-2,8.78-8.75,12.93-17.43,11-9.82-2.23-11.54,2.07-10.66,10.27.58,5.46.56,11,1,16.44a686,686,0,0,1,1.46,91c-1.63,32.17-6.28,64-10.06,95.94-3.9,33-7.93,66.08-17.68,98.07-5.21,17.11-5,17.07,9,27.08,5.44,3.89,8.87,3.32,12.69-2,8.56-11.83,17.65-23.27,26.22-35.12,16.89-23.35,20.2-47.16,5.64-72.6-14.4-25.13-4.9-47.79,14.11-61.81,16.57-12.21,22.31-29,25.59-47.6a34.74,34.74,0,0,0-4.69-24.31c-5.4-8.91-11.83-17.12-18.24-25.37-11.82-15.21-18.52-31.63-12.5-51.81C272.26,171,279.22,156.81,286.36,140.45Zm296.07,227c-.84-5.38-.88-11.07-2.73-16.08-2-5.4-5.45-11-11.73-12-6.54-1.1-7.54,5.89-8.71,9.52C552.87,368.63,540.42,383,523.17,394c-4.27,2.71-5.82,6.79,1.52,9,7.1,2.11,13.84,5.61,16.95,12.78,3,6.94,7,6.39,13.05,4.26C571.6,414,580.9,387.07,582.43,367.47Zm31.4,30.06c.72-5.1-2.4-12.85-8-19.47s-13.81-6.11-15.68,1.12c-4,15.57-13.31,27.21-24.13,38.28-4.51,4.62-5.05,9.85,1.81,13.3,6.62,3.32,10.69,8.82,13.16,15.44,3.5,9.38,8,8.27,14.53,2.69C610.39,436.23,612.3,419,613.83,397.53Zm-35.56,64.55c-.36-10.63-5.54-22.2-19.32-29-7.57-3.73-11.87-3.21-11.44,6.61.55,12.39-3,22.82-13.82,30.31-5.53,3.83-5.44,9.19-.79,14.1s7.66,10.38,7.84,17.46,4.73,7,10,5C564.2,501.27,578.16,480.75,578.27,462.08Zm28.42,40.29c1.77-9.63-2.2-18-6.29-26.13-3.41-6.76-12.21-7.95-13.71-2.25-4.28,16.2-15.1,26-28.64,34.16-4,2.39-4.91,6.28.55,9.17,9.88,5.23,15.45,13,14.12,24.73-.31,2.79.66,4.69,4.39,4.56,12.18-.41,24.57-9.58,26.78-21.58C605.26,517.58,608,510.18,606.69,502.37ZM509.88,380.5c-.69,4.72-2.6,8.53,1.22,10.41,4.14,2,7.71-.41,10.69-3.37,4.13-4.11,8.53-8,12.27-12.47q26.82-31.93-1.94-59.37c-3.84-3.67-6.51-2.83-8.7.79-6.76,11.18-13.43,22.44-19.61,33.95-1.94,3.61,0,7.71,1.23,11.62C507.07,368.59,510.39,374.9,509.88,380.5Zm105.43-58.76c-.87-6.33-.8-12.78-2.77-18.53-2.71-7.9-7.33-17.33-15-18.63-6.67-1.11-6.73,9.76-9.72,15.26-3.14,5.77-5.39,12-9.89,17-1.93,2.12-4,5.29-6.36,5.66-13.11,2-6.18,9.69-2.31,12.26,9.75,6.46,17.46,14.13,22.87,24.43,1.13,2.16,4,4.36,6.08,1C605.68,348.15,613.74,336.31,615.31,321.74ZM538.8,442.23c.79-15.61-5.16-27.56-19-35.29-3.8-2.11-7.75-3.11-11.15,0-6.88,6.35-12.62,15.13-11.17,23.63,1.9,11.17,8.18,21.59,10.28,33.12a5.48,5.48,0,0,0,2.74,3.14c7.24,3.77,20.26-1.15,24.78-8C538.78,453.49,539,448.06,538.8,442.23Zm-5,58.17c-.64-4.11-.69-8.64-2.11-12.7-2.21-6.36-7.57-9.75-14-10.69-3.79-.55-8.7-1.4-10.59,3.36-7.14,18-19,35-9.69,56.29,3.3,7.55,7.3,7.54,12.32,4.34C524.41,531.67,532.79,518.25,533.82,500.4Zm44.23-213.32c1.76-6.24-2-11.95-5.39-17.31-5.3-8.48-14.72-7.64-18.27,1.56-4.13,10.72-9.35,20.44-18.77,27.46-3.54,2.65-5.73,5.79-2.07,10,4.74,5.49,9.68,10.83,14.17,16.52,3.41,4.34,6.67,3.55,10,.45C568.82,315.51,578.84,304.6,578.05,287.08Zm-32.26-23.57c-1.91-7.9-1.54-17.64-6-26.17-2.81-5.38-7.28-10.8-13.18-11.57-6.19-.81-6.7,6.63-9.18,10.78-2.79,4.67-5.06,9.63-7.52,14.49-2.36,4.65-2.17,9.26,1,13.36a60.47,60.47,0,0,1,11.94,27.72c1.09,6.44,5.49,7.33,9,2.89C538.83,286.21,544.92,276.66,545.79,263.51Zm-235,133.27a60.66,60.66,0,0,0,6.46-1.17c10.1-3,23.08-20.39,23.38-31.22.26-9.1-8.79-19.49-16.25-18.68-16.29,1.78-30.12,17.56-29.88,34.07C294.64,389.19,301.63,396.48,310.79,396.78ZM610.57,245.3c.52-9.9-10.19-26.15-19.63-29.36-5.51-1.87-8.44.5-8.12,6.42.46,8.38-2.55,15.5-7.34,22.24-3,4.19-12.62,3.76-9.84,10.9,1.89,4.88,7.9,8.18,12.14,12.11,1.85,1.71,4.06,3.07,5.75,4.91,3.09,3.38,6.79,3.42,9.72.84C601.78,265.83,609.53,257.6,610.57,245.3ZM521,201.6c-.26,14.06-.25,14.08,6.13,12.31,13.24-3.65,23.13-17.8,22-31.44-.74-8.88-18.18-26.85-27.13-27.8a6.7,6.7,0,0,0-4,.89c-6,3.85-8.86,20.21-4.47,26.1C518.14,187.92,522.11,194.33,521,201.6ZM504,560.93c8.61-.93,17.6-.44,24.05-7.87,9.43,6.57,15.43-3,23.11-4.77,9.41-2.13,13-8.23,11.52-16.73-1.07-6.38-4.41-12.47-12.09-13.5-8.47-1.13-13,3-16.64,10.75-5.47,11.58-11.29,24.1-28.09,21.63a8.3,8.3,0,0,0-3.19.69c-3.83,1.11-8.88,1.84-7.86,7.14S501,559.8,504,560.93Zm71.64-340c-1.27-6.78-2.54-13.73-9.7-17.19-3.76-1.82-7.9-2.72-11,1.2-4.47,5.71-10.52,8.7-17.07,11.27-5.33,2.1-6.36,6.27-2.17,10.22,5.91,5.55,10.53,12,15.36,18.42,2.53,3.35,5.51,5.77,10.08,2.17C569.68,240.34,574.2,231.6,575.67,221Zm-239-24c0-9.08-8.92-17.05-18.75-16.74-8.39.26-19.18,11.41-19,19.59.23,8.47,10.82,18.94,19.23,19C327.69,218.88,336.64,208.3,336.63,196.93Zm263.31-11.31c.55-7.74-17.48-19.74-24.61-16.27-1.1.54-2.44,2-2.46,3.12-.1,6.95-3.56,12.51-6.91,18.17-1.41,2.4-2,5.57.85,6.62,5.27,1.92,7.44,6.81,11,10.25,4,3.86,7,3.56,11.48,1C598.47,203.29,597.3,193.66,599.94,185.62ZM463.28,475.35c-.08,7.09-.52,14.42,9.68,14.76,7.57.25,13.24-7.3,13.39-17.79.13-9-5.54-16.7-12.18-14.69C466.34,460,462.38,466.64,463.28,475.35Zm22.9-180.51c-7.58,2.75-11.81,8.4-12.62,16.87-.74,7.63-.34,14.66,8.09,18.1a5.91,5.91,0,0,0,3.22.32c6.62-1.35,13.57-25,8.76-30.13C491.69,297.94,489.91,295.41,486.18,294.84Zm-16.7,104.27c.59,7.6,1.64,16.24,11.07,15.79,8.52-.42,9.33-9.15,9.56-16,.24-7.26-3.16-14.07-10.8-13.9S468.9,391.66,469.48,399.11Zm8.87-175.83c.45,7.6,2.55,16.47,10.06,17.39,8.14,1,9.74-8.31,10.69-15,1.13-8-2.86-15.9-10.23-16.75C481.24,208,479.73,216.7,478.35,223.28ZM289.41,525.82a27.54,27.54,0,0,0-4.83,1c-3.95,1.53-9.11,2.22-9.65,7.5-.66,6.36,5,5.81,9,7,3.45,1.07,6.71,2.79,10.19,3.72s8,4.81,10.84.54c2.43-3.65.35-8.42-1.46-12.46C300.82,527.28,295.45,526.44,289.41,525.82Zm169.33,16.92c.6,6,.4,14.39,8.33,15,8.71.66,10.48-7.37,10.53-14.7s-3.66-13.45-11-13.67C458.74,529.11,459,536.42,458.74,542.74Zm36-398.26c.22-9.4-6-16.1-13.92-15.67-6.57.36-5.23,6-5.57,9.89-.72,8.32,2.39,14.33,11.61,15C494.25,154.17,494.28,148.48,494.74,144.48ZM801.4,400c-20.09-3-40-2.9-59.62,3.46C761.73,403.75,781.81,406.55,801.4,400ZM554.86,182.12c5.32-2.31,5-7.47,7-11.13,2.37-4.18,4.81-8.59-1.49-11.84-4.18-2.15-8.59-5.64-13-1.76-4.65,4.1-1.41,8.57.94,12.78,1.59,2.85,2.68,6,4.15,8.9A19.29,19.29,0,0,0,554.86,182.12Zm-19.49-29.85c2.13-1.08,7,1.31,6.36-3.14-.69-4.67-6-5.85-10.31-6.71-2.68-.53-5.63-.09-5.8,3.2C525.26,152.59,531.69,150.06,535.37,152.27Z" transform="translate(-24.49 -21.98)"/><path d="M679.61,554.22c-17.49-4.54-36-1.19-54-4.49-4-.75-8.94-1.1-9.88-5.4s4.26-5.58,7.14-7.14c17.57-9.53,35.42-18.55,53.05-28,3.7-2,6-.58,8.81,1.56,11.78,9.1,22.89,19.14,36.66,25.47,7.79,3.58,1.23,6.57-1.35,7.84C707.5,550.24,693.9,552.67,679.61,554.22Zm6.66-8.59c4.07,0,6.28.19,8.44,0,2.61-.3,6.83,1.11,6.77-3.17,0-3.1-3.9-2.45-6.27-2.93-14.23-2.88-28.47-5.69-42.7-8.58-2.12-.44-4.59-1.55-5.68,1.09-1.2,2.9,1.53,3.66,3.5,4.26C662.77,540.05,674.62,546.24,686.27,545.63ZM698.11,533a64.5,64.5,0,0,0-21.33-16.47,4.15,4.15,0,0,0-3.84.73c-1.4,1.58-.45,3.49.95,4.7C680.68,527.79,688.21,532.26,698.11,533Z" transform="translate(-24.49 -21.98)"/><path d="M398.74,98.56l29.74-19.38c15.67-1.93,28-11.7,41.78-18a330.29,330.29,0,0,1,62.41-21.34c-35.19,15.56-64.94,39.38-94.24,63.3-12.39,10.12-24.57,8.86-37.84,8.29-3.22-.14-6.41-1.22-9.78-1.9C390.62,103.57,397.66,103.21,398.74,98.56Z" transform="translate(-24.49 -21.98)"/><path d="M155.79,329.15c-18.57.38-34.84-13.45-35.26-30-.52-20.51,15.81-37.41,36.76-38,18.7-.57,35.54,14.9,35.43,32.54C192.6,313.13,176.37,328.72,155.79,329.15Zm26.34-33.85c-.12-11.69-4-18.91-13.67-22.63-11.69-4.49-23.34-2.91-29.6,4-1,1.12-2.3,2.15-1.53,3.58a4.7,4.7,0,0,0,5.61,2.44C158.41,277.29,170.43,283.67,182.13,295.3Zm-24.52,15.12c-.94-3.87-2-7.57-6.89-7-4.54.54-5.79,4-5.82,7.88,0,4.45,2.8,6.95,6.85,6.79C156.29,317.93,157.21,314.05,157.61,310.42Z" transform="translate(-24.49 -21.98)"/><path d="M774.35,360.54q16.47,0,32.92,0c4.05,0,8.79-.57,7.92,5.79-.64,4.64,1.21,11.35-6.64,11.58-21.2.61-42.36-1.9-63.59-.72-4.5.25-10.53-11.63-9-15.8,1.23-3.25,3.54-1.41,5.46-1.41h32.89Z" transform="translate(-24.49 -21.98)"/><path d="M776.38,353.77c-11.22,0-20.72.28-30.19-.15-3.33-.15-9.22,2.92-9.56-3.27S740,337.69,746.42,338c23.31.94,46.56,3.11,69.83,4.86,2.7.21,5.58.9,4.21,4.53-1.48,3.91-2.38,9-8.64,7.74C799.5,352.55,787,354.51,776.38,353.77Z" transform="translate(-24.49 -21.98)"/><path d="M928,377.5c-12.08,6.39-22,12.94-35.62,10.4-11.37-2.13-23.28-.88-34.69-3.6-3.82-.91-9.52-1.31-10-5.24-.55-4.35,5.23-6.1,8.73-6.79C880.12,367.55,903.7,366.44,928,377.5Z" transform="translate(-24.49 -21.98)"/><path d="M852.07,420.58c26.44,1.16,51.64.81,73.55,15.35C906.7,448.5,876.74,442.71,852.07,420.58Z" transform="translate(-24.49 -21.98)"/><path d="M917,325c-18.57,10.27-36.26,17.95-56.8,15.48-2.59-.31-5.71,0-6.45-2.73-1-3.55,2.88-3.58,4.95-4.55,14.13-6.64,28.26-13.34,44.56-12.25C907.62,321.23,911.84,321.7,917,325Z" transform="translate(-24.49 -21.98)"/><path d="M701.18,295.89c-1.86-8.08,3.08-12.88,10.69-13.79,6.93-.82,9.36,5.38,11.08,11.08a28.83,28.83,0,0,1,1.63,6.32c.45,6.63,3.26,14.73-6.82,16.66-7.54,1.45-15.35-5.63-16.54-14.09A47.68,47.68,0,0,1,701.18,295.89Z" transform="translate(-24.49 -21.98)"/><path d="M722.63,402.24c.73,8.87-6.36,10.27-12.91,10.24-8.09,0-11.25-6-10.92-13.44.37-8.18,2.6-16.32,10.25-20.14C713.59,376.63,722.7,392.1,722.63,402.24Z" transform="translate(-24.49 -21.98)"/><path d="M698.83,346.55c-.78-9.27-.16-16.84,9.43-16.62,8.48.19,12.7,6.22,12.46,14.82-.22,7.94-2.21,16.86-10.81,17.34C699.28,362.69,698.25,353.33,698.83,346.55Z" transform="translate(-24.49 -21.98)"/><path d="M708.57,426.47c8.88,0,17,10.31,16.25,19.31-.59,6.84-4.46,13.88-11.77,13.41-11.31-.73-9.3-10.82-9.6-18.48C703.22,434.79,702.54,428.34,708.57,426.47Z" transform="translate(-24.49 -21.98)"/><path d="M305.83,475c8.16,2.26,16.26,4.8,24.51,6.64,3.54.79,9.17,3.1,10.28-2.22,1-4.6-5.95-2.66-7.94-5.92,1.48-1.55,3.62-.38,5.52-.56s3.95.28,4.4-2.1c.56-3-2-3.36-4-4-10.7-3.36-21.79-5.56-33.61-11.21,11.82-1.66,21.23,3.12,31,3.42,5.24.17,14.37,4.05,15.21-2.38.81-6.25-8.88-5.42-14.2-6.43-8.12-1.54-16.45-2-24.67-3.88,12.4,0,24.8.08,37.19-.06,2.69,0,6.74.68,6.69-3.59s-4.08-3.17-6.77-3.62c-17.08-2.9-34.31-1.37-51.47-1.84-3.2-.08-7.15,1.93-10.87-3.25,15.75,0,30.24-.54,44.67.21,8.66.45,16.51-2.73,24.84-3.31,10.66-.75,13.06,1.36,9.67,11.47-4.28,12.72-9.34,25.3-17.18,36.46-3.34,4.75-5.4,11.86-9.87,14-4.87,2.26-9-5.4-14.35-7.29-6.74-2.38-13.11-5.83-19.64-8.81C305.42,476.13,305.63,475.57,305.83,475Z" transform="translate(-24.49 -21.98)"/><path d="M281.34,288.23c0,10.69-10.18,21.62-20.45,22-5.73.21-15.87-11.43-16.74-19.31a35.53,35.53,0,0,1,0-4.38c.23-17.33,5.23-24.89,16.37-24.83S281.35,274.1,281.34,288.23Z" transform="translate(-24.49 -21.98)"/><path d="M226,440c-.13-13.09,9.18-22.3,22.66-21.82,7,.24,10.78,4.47,11.13,11,.59,11.18-4.82,20.65-12.08,28.08s-18.4,1.06-21.16-11.45A47.23,47.23,0,0,1,226,440Z" transform="translate(-24.49 -21.98)"/></svg>