<svg id="Layer_1" data-name="Layer 1" xmlns="http://www.w3.org/2000/svg" viewBox="0 0 966.29 338.44"><title>fish-1</title><path d="M17.7,304.58C21.34,296,25,288.5,30.78,281.76c13.88-16.3,22.89-35.73,33-54.42,7.09-13.13,16.18-24.55,31.68-27,7.35-1.17,5.26-6,5.86-9.37,1.08-6.11-3.48-3-6.45-3.48-25.25-3.78-52.45-36.7-56.7-69.17C36,101.82,25.9,87.86,25.28,71.91c44,6.13,81.08,28.37,113.57,58.94,14.59,13.74,30.75,10.27,47.36,7.15,52.23-9.81,104-22.23,156.87-28.45,44.18-5.2,88.62-7.7,133.1-6.19,11.27.39,22.3,5.67,33.62,7.68C559.91,120,610.55,117,661,116.78c56.65-.23,111.78,8.47,164.55,28.63,49.39,18.86,97,41.55,134.34,80.91.66.7,1.5,1.24,2.15,2,4.46,5,11.94,10,9.5,16.69-2.74,7.47-11.75,10.23-19.48,10.4-23.33.53-46.52,10.73-70.12,1.11-2.85-1.16-8.27-2.63-10.16,2.32s1.86,7.79,5.77,10.21c10.58,6.57,21.58,10.61,34.32,7.55,23.79-5.71,48.82-4.84,72.1-13.95-18,20.67-39.18,34.13-66.58,39.81-41.72,8.65-70.09-11.86-96.75-38.53-12.62-12.63-22.45-26.27-28-44.29-5.74-18.55-6-36.45-4.55-55,1.58-20.45,1.3-19.09-18.36-26.34-17.4-6.42-35.65-8.11-53.15-13.29-39.09-11.58-78.69-4.34-118.08-3.12-37.83,1.16-75.32.58-112.4-8.52-38.32-9.41-76.34-4.33-114.69,2.25-55.66,9.54-111.61,17.37-166.25,32-12.51,3.35-25.68,2.63-37.91,7.88-14.19,6.1-16.82,12.74-11.2,26.81,2.39,6,6.71,11.35,6.75,18.64,0,4.61,6,4.26,9.41,4.71a123.8,123.8,0,0,1,34.44,10c-2.88,3.94-5.35,1.33-7.74.69-14.36-3.84-26.5-1.12-36.3,11C133,263.81,93.85,285.5,49.5,298.54,39.43,301.49,28.81,302.52,17.7,304.58Zm881-87.66c.65-12-12.79-24.41-27.5-25.39-15.21-1-24.25,7.84-25.15,24.67-.55,10.24,19.14,36.2,28,37C881.71,253.83,898.05,229.77,898.74,216.92ZM121.58,227.73c-8.48-.07-13.11,4.73-17.7,8.33-5.11,4-11.55,5.86-15.32,2.6-9.25-8-9.53.28-12.48,5.16-1.59,2.64-5.18,4.46-5.89,7.17-1.14,4.4-4.92,10.14,1.53,13.47,6.17,3.19,14.68,3.86,16.6-3.32,3.4-12.74,14.48-15.74,22.74-22.4C114.62,235.87,119.8,234.72,121.58,227.73Zm15.84-31.22c-19.21,2.4-32.65,8.56-45.06,17.37-2.6,1.85-6.81,4.11-3.36,7.71,2.32,2.4,6,3.84,10,0s9.6-9,13.88-8.46C125.46,214.69,128.21,205.06,137.42,196.51Zm-8.31-27.08,1.35-4.5c-11.88-4.5-23.74-9.1-35.71-13.37-1.36-.48-4,.43-5,1.6-1.32,1.65-.22,4,1.75,4.62C104.08,161.58,115.49,169.58,129.11,169.43Zm701.73,75.14c2-.13,3.39-.74,4.07-3,1.84-6.15-6.84-19-13.11-19.32-2.15-.12-3.58.25-4.42,2.36C815.63,229,826.07,244.58,830.84,244.57Z" transform="translate(-17.7 -21.65)"/><path d="M587.27,82.7l17.83,20.78c-12.55,4.56-18.21-2.78-25.3-10.68-5.93-6.61-9.25-17.4-21.86-18.26.79,12.54,12.35,18,17.08,28.22-11.67,4.67-18.63,2.25-23.21-10-2.45-6.57-2.74-14.38-8.38-19.71-1.73-1.64-3.17-4-6-2.83s-2.46,3.89-1.87,6.22a66.16,66.16,0,0,0,2.71,8.24c7.34,18.36,7.39,17.67-11.79,16.85-8.35-.36-9.16-3.29-8.83-10.28,1.11-23.86.43-47.46-18.33-69.57,26.32,8.48,48.32,19.07,70.23,29.93,20.53,10.17,41.45,19.7,58.95,34.88,4.75,4.13,14.6,9.3,10.18,14.83-5.11,6.4-15.94,6.15-23.66,0-5.63-4.51-10.59-9.86-15.71-15C596.27,83.24,593.68,79.36,587.27,82.7Z" transform="translate(-17.7 -21.65)"/><path d="M632.59,311.06c-59.85.13-118-12-176.06-24.59-35.82-7.77-72.1-14.47-106.89-25.63-32.81-10.52-67-14.61-99.61-25.07-4.16-1.34-12.06-.63-8.86-7.18,3-6.23,5.35,3.12,7.41,2.93,45.37-4.15,84.29,20.22,126.84,28.57S460.73,276.16,503,286.28c20.67,5,42.09,11.26,63.07,11.17,20.59-.09,41.25.2,61.86.3,16.89.09,33.78,1.26,50.64,2.25,2.76.16,8-2,7.53,3.62-.34,4.28-4.42,6.33-8.54,6.49-12.08.49-24.17.67-36.26.94C638.4,311.12,635.49,311.06,632.59,311.06Z" transform="translate(-17.7 -21.65)"/><path d="M668,352.36c20.46-15.9,30.83-37.69,38.94-60.92,6.26-17.92,23-20.84,37.89-25.11,7.12-2.05,14.86-2.32,21.94-5.49,2.34-1,6.21-2.74,7.92.21,1.53,2.65,2.49,6.88,1.47,9.57-12.18,32-36.58,52.23-67,64.9C695.51,341.16,683,349.44,668,352.36Zm89.21-70.43c-11.4,2.14-14.28,12.4-21.49,17.81-1.62,1.22-4.48,4.57-1.72,7.33a4.73,4.73,0,0,0,7.42-1C746.19,298.13,755.48,293.17,757.17,281.93Z" transform="translate(-17.7 -21.65)"/><path d="M572.5,141c9.35-4.54,14.88-3,21,5.44,13.72,18.68,28.48,36.58,41.75,55.67,6.48,9.33,6.89,16.39-.24,25.24-16.38,20.32-38.2,34-58.55,49.55-5.89,4.48-12.77,3.59-19.47,1.59,1.13-10.06,10.4-13.29,16.17-19.29,11.07-11.5,22-23.4,34.47-33.21,10.63-8.36,9.29-15.63,4.1-26C601.17,178.79,586.71,160.24,572.5,141Z" transform="translate(-17.7 -21.65)"/><path d="M449.6,123.92c12.32-4,17.41.79,22.64,8.53,14,20.67,28,41.51,45.87,59.15,8.55,8.41,5.73,15.42-1.69,22.09-16.86,15.14-33.68,30.34-50.94,45-7.68,6.53-15.92,3-25.06-1.1,20.42-13.19,37.36-29,55.1-43.75,7.94-6.62,9.21-12.16,1.92-21.63C480.75,170.62,466,147.54,449.6,123.92Z" transform="translate(-17.7 -21.65)"/><path d="M442.37,360.09c7.64-20.24,15.72-37.17,18.6-55.8.93-6,6.18-5.41,10.36-4.42,18.56,4.39,37.05,9.09,56.1,13.8C506,341.83,476.39,351.8,442.37,360.09Z" transform="translate(-17.7 -21.65)"/><path d="M669.15,137.28c19.78-4.34,24.68-2.15,33.71,14,9.67,17.27,19.35,34.54,29.18,51.73,3.89,6.81,4.84,11.86-1.62,18.91-17.47,19-32.11,40.57-52.21,57.35-3.87,3.23-7.57,6.39-10.63,2.88-3.25-3.74,2.25-6.7,4.95-8.82,14.41-11.35,24.18-27.2,38.14-38.91,9.65-8.09,9.65-17.26,3.45-27C699.39,184.15,684.43,161.06,669.15,137.28Z" transform="translate(-17.7 -21.65)"/><path d="M286.14,262.3c-6.73,16.37-13.61,6.82-19.66,2.57-3.4-2.38-2.39-7.28-1.44-10.9,1.43-5.5,5.45-2.09,8.21-1.43,16.34,3.87,32.65,7.88,48.9,12.14,2.31.6,7.65-.63,6.45,3.35a350.41,350.41,0,0,1-12.89,34.87c-1.2,2.83-4.9.51-5.89-1.21-5-8.62-12.81-14.17-20.37-20C283.42,277,289.32,270.81,286.14,262.3Z" transform="translate(-17.7 -21.65)"/><path d="M260.45,149c10.2-5.44,17.33-5.8,24.21,5.27,6.54,10.52,17,18.2,27.1,25.68,4.92,3.67,6.65,6.74.89,11-11.13,8.29-23.4,14.9-33.58,24.69-4.32,4.16-12.27.89-15.64-2.77-3.9-4.24,2.6-6.92,5.58-9.47,3.28-2.81,7.32-4.76,10.45-7.7,6.86-6.43,16.7-11.82,2.43-22C273.39,167.6,267.7,157.59,260.45,149Z" transform="translate(-17.7 -21.65)"/><path d="M533,189.74c19.45,3.09,35.35,2.51,51.13,1.78,12.11-.56,15.64,8.38,19.91,15.89,3.37,5.91-3.77,6-6.57,6-15.39-.24-30.86-.44-46.14-2.16C540.07,210,541.76,197.47,533,189.74Z" transform="translate(-17.7 -21.65)"/><path d="M487.77,200.26c-21.08,3.21-39.8.08-58.49.47-6.2.12-6.87-4.61-7.82-8.22-1.3-5,3.41-7.21,7-7.31,14.81-.45,29.58.62,44.47-.41C479.48,184.33,481.94,193.6,487.77,200.26Z" transform="translate(-17.7 -21.65)"/><path d="M852.51,304.43c-27.18,2.81-53.51,10.09-81.5,3.64,3.49-6.77,9.49-7.33,13.84-7.59,15.91-1,31.65-2.19,47.06-6.77C841.46,290.88,842.89,306,852.51,304.43Z" transform="translate(-17.7 -21.65)"/><path d="M647.5,200.71c15.27,0,29.21.55,43.07-.22,7.59-.42,10,4.23,13,9.18,1.86,3.08,1.25,6.54-1.76,7.23-12.83,3-26,1.07-38.84.3C655,216.72,651.53,208.05,647.5,200.71Z" transform="translate(-17.7 -21.65)"/><path d="M348.85,237.6c15.44-18.64,37-29.18,50-48.62,1.57-2.33,4.05-4.85,7.14-2.24,2.75,2.32,4.52,6.31,1.75,8.95-16,15.23-30.35,32.32-49.16,44.38C355.45,242.11,352.2,239.84,348.85,237.6Z" transform="translate(-17.7 -21.65)"/><path d="M207.61,155.76c8.69.25,37.15,20.43,36.8,25.52-.59,8.49-9.4,11.3-14.29,16.89-3,3.48-7.26,5-11.78,2.67-6.93-3.6-.83-8.05.46-10.71C228.16,170.77,227.49,167.4,207.61,155.76Z" transform="translate(-17.7 -21.65)"/><path d="M745.09,203.24c11.74,6.08,32.68-9.57,36.15,15.88C755.22,225,755.22,225,745.09,203.24Z" transform="translate(-17.7 -21.65)"/><path d="M379.07,191.13c-16.09-2.88-34.61,8.64-49.76-8.84C351.63,178.36,373.2,181.78,379.07,191.13Z" transform="translate(-17.7 -21.65)"/><path d="M347.62,135.29c13.67-.62,44.34,31.41,46.39,48.14C376,168.7,366.35,148.67,347.62,135.29Z" transform="translate(-17.7 -21.65)"/><path d="M877.57,227.92c-7,2.86-10.28-.65-10.53-6.84-.38-8.91,6.74-12.84,13.58-13.81,5.31-.75,9.25,4.35,9.16,10.51C889.66,225.85,886.47,230.52,877.57,227.92Z" transform="translate(-17.7 -21.65)"/></svg>