<svg id="Layer_1" data-name="Layer 1" xmlns="http://www.w3.org/2000/svg" viewBox="0 0 297.11 143.56"><title>fishe3</title><path d="M346.23,276.12c2.51-3.23,5.77-3.9,9.29-4.64,8.62-1.81,10.53-7.21,4.51-13.65A177,177,0,0,0,324.56,229c-20.78-13.07-43.08-20.76-66.75-25.48a89.26,89.26,0,0,0-36.14.46c-5.53,1.16-4.8,4.76-3.86,7.92a100.38,100.38,0,0,1,4.41,36.9c-.83,11.11.84,11.69,15,11.3,3.93-.11,9.1-2.1,11.24,2.74,1.77,4,1.92,8.76-1.19,12.78-3.31,4.29-7,6.33-11.89,2.27-2-1.64-3.68-3.8-5.91-4.87-3.65-1.75-6.5-8.12-11.4-3.78-3.79,3.36-9.49,6-9,12.64.49,6.06,4.66,9.08,9.82,10.47,7.38,2,14.06,6.4,22.07,6.26,7.34-.13,14.68,0,24,0-7.27,3.5-13.69,3.79-18.48,2.67-12.48-2.92-18.73,4.74-25.15,12.29-3.4,4-5.25,4.26-8.53.18-14.8-18.42-35.92-28.26-55.37-40.39-6.23-3.88-11.43-8.91-16.83-15.81,5.14.36,7.76,3.1,10.07,5.15,7.55,6.69,16.33,11.29,25.08,15.94,19.77,10.52,32.39,3.33,36.43-19.09,2.53-14-1.06-27.19-3-40.63-.87-6.07-4.19-8.69-11.49-7.74-22.34,2.89-40.47,14.67-59.07,25.75-5.13,3.06-3.86,8.16-4.28,13.07-9.25-8.74-9-8.54.76-14.94,20.46-13.45,42-24.41,65.52-31.43a96.14,96.14,0,0,1,14-3.4c7.61-1.1,14.48-3.48,20.67-9,14.38-12.8,31.33-19.28,51-17.93,7.06.48,8.78,2.15,4.34,8.21-3.2,4.38-6,9-9.75,13-5.34,5.85-3.46,8.94,3.89,12,22.68,9.39,46.69,16.41,64.26,35.36,4.29,4.62,10.05,4.55,15.79,1,11.2-7,23.42-11.83,35.92-16,6.56-2.18,15.74-4.35,19,.48,3.93,5.79-2.83,12.73-7.16,18.08-3.41,4.23-7.65,7.78-11.18,11.92-2.69,3.15-4.32,7.36.29,9.82,8.29,4.42,11.72,12.14,15.65,19.82,1.85,3.61,4.82,6.64,7.35,10-22.26,17.74-38.63-2.13-56.81-9.37C360.45,284.66,355.07,277.35,346.23,276.12Zm26.44.69a13.38,13.38,0,0,0-1,2.29c-.47,1.91.93,2.83,2.2,3.79,9.21,6.95,20.53,9.74,30.42,15.37a3.45,3.45,0,0,0,3.27-.91c1-2.14-.54-3.58-2.31-4.46-8.22-4.1-16.49-8.11-24.74-12.16C378.28,279.62,376,278.49,372.67,276.81Zm1-10.5c6.17-2.27,12.13-4.5,18.12-6.65,2.42-.87,4-2.23,3-5-1.27-3.64-4.06-2.59-6.32-1.5-5.71,2.78-11.26,5.9-16.94,8.75-1.52.76-1.88,2.08-1.21,3S372.47,265.87,373.64,266.31Zm13.28,5.37c-1.11.1-3.94-1.15-4.79,1.68s2.07,3.34,4,4.28,3.9,2.13,5.92,3c3.67,1.63,9.13,5.39,11.08,1.72,2.5-4.71-4.35-5.42-7.44-7.46C393.32,273.38,391,271.56,386.92,271.68Zm-3.73-19.61c6.71-1.62,11.77-6.87,18-9.92,1.26-.62,3.36-1.27,2.31-3.37s-3.09-2.19-4.93-1.24c-5.64,2.92-11.19,6-16.79,9-1.56.82-2.58,1.9-1.92,3.75C380.36,251.63,381.51,252.12,383.19,252.07Z" transform="translate(-127.65 -173.09)"/><path d="M315.51,304.49c-6.28.34-10.13-1.48-11.37-8.59-1.32-7.61,4.27-7.19,8.28-8.64,4.47-1.61,9.54-1.95,13.6-4.2,9.55-5.29,13.2,2.7,18,7.49,2.15,2.14.67,4.71-2.24,6C333.34,300.2,324.76,303.49,315.51,304.49Z" transform="translate(-127.65 -173.09)"/><path d="M188.78,230.55c6.92,5.87,4.69,11.16-.1,15.09s-9.63.79-13.49-2.61c-4.94-4.36-5.12-9,1.22-14.46-.59,9.16,7.11,7.72,11.39,9.45C190.22,239,187.49,233.5,188.78,230.55Z" transform="translate(-127.65 -173.09)"/><path d="M166.42,252c-9.42,5.14-16.66-1.21-24.44-5.06Z" transform="translate(-127.65 -173.09)"/></svg>