<svg id="Layer_1" data-name="Layer 1" xmlns="http://www.w3.org/2000/svg" viewBox="0 0 939.83 448.98"><title>fish-main</title><path d="M520.5,72.05c-4.15,11.53-8,22.19-11.81,32.83-2.34,6.48-5.47,12.79-6.93,19.46-2.2,10,.49,12.32,10.58,12.24,13-.11,24.93,5.18,37.25,8.41,7.43,1.95,14.66,4.72,21.94,7.26,10.39,3.62,13.7,2.66,18.4-7.37a212.09,212.09,0,0,1,16.68-29.09c6-8.82,8.11-9.65,17.62-5.19C641,118.46,656,129.25,670.6,140.43c22.2,17,45.54,32.68,66.42,51.42,9.09,8.17,18.76,15.81,25.19,26.67,2.86,4.84,3.2,7.67-1.82,11.07-3.12,2.11-7.35,3.93-7.95,8.49-.32,2.44-1.65,5.7,1.36,7.12,2.85,1.34,5.18-.7,6.6-3.14,2-3.44,3.84-7,5.51-10.58,2.21-4.75,3.94-3.53,6.38,0,4.9,7,3.9,13.21-1.66,19.17-1.63,1.75-3.67,3.28-4.78,5.32-1.34,2.44-1.42,6.65,1.67,6.59,11.72-.22,17.42,9.72,26.23,14.26,2.71,1.39,6,5.8,7.76-1.62.92-3.84,6.47-4.27,9.37-7,14.74-14,32.57-23.95,48.08-36.75,13.29-11,27.7-19.79,42.32-28.43,13.89-8.2,29.35-13,44.63-17.91,6-1.93,10.89.21,13.46,6.7,3.8,9.61,9.9,18.25,11.12,28.95,1,8.26-2.49,16.19-.63,24.57,1.43,6.42,1.48,13.28,1.73,19.81a36.68,36.68,0,0,1-10.7,27.31c-5.89,6-12.44,11.48-20.61,14.72-7.49,3-9.36,8.18-5.36,15.54a154.08,154.08,0,0,0,26.46,35.8c4.37,4.36,6.55,9.27,8,15.15,4.52,17.73-.31,33.77-6.81,50.05-2.8,7-3,14.66-9.31,20.45-3.11,2.87-5,3-8.82,2.49C926.58,444.27,914,432,899.33,423.51c-21.35-12.45-37.06-31.2-54.59-47.9-12.53-11.94-25.39-23.54-36.3-37.16-6-7.47-21-8.57-29.72-3.2-9.48,5.87-18.78,12-28.27,17.88-3.65,2.26-2.77,4.72-.89,7.34,2.64,3.68,5.44,7.25,8.18,10.86,4.41,5.82,3.72,10.66-2.45,14.86-17.39,11.84-35.19,23-53.14,34-8.38,5.13-16.56,10.62-24.58,16.3-10.49,7.45-21,6.54-29.81-2.94-4.74-5.05-9.63-10-14.4-15-2.34-2.46-4.94-3.1-7.87-1.24-21.85,13.82-46.47,21.25-70.38,30.23C536.2,454.68,517,461.11,497.68,467c-27.28,8.39-55.31,12.77-83.75,15.42-15.08,1.4-30,4.14-45.26,3.86-27.49-.5-54.92-1.6-82.14-5.64-20.3-3-40.83-5.29-60.7-10.2a288.52,288.52,0,0,1-77.34-31.87c-22.08-13-41.88-29-61.2-45.8C70.72,378.38,55.24,363.08,41.44,346c-1.47-1.82-3.76-2.95-5.53-4.57-2.81-2.57-5.79-5.32-3-9.55,2.57-3.93,6.34-3.31,10-1.88,10.68,4.17,21.39,8.26,32,12.68,15.49,6.48,31.18,12.47,46.08,20.36,8.3,4.4,17.58,6.06,26.91,7a16.91,16.91,0,0,0,5.46-.6c2.2-.52,5.36-.3,5.27-3.67-.07-2.61-2.77-2.82-4.7-3.6-8.42-3.42-17.67-3.54-26.14-7.24-8.26-3.62-16.7-6.93-24.49-11.41-19.85-11.43-40.88-19.4-63.47-23.09-4.19-.69-4.59-2.27-3.31-6C38.41,309,42.72,306,47.17,303,91.06,274,132,241,172.39,207.38c31.33-26.11,65.86-46.81,104.64-60.06,6-2,11.54-5.41,18-6.48,2.79-.46,4.51-2.71,3.2-5.29-4.9-9.61-.82-18.84,2.89-26.74C307.29,95.6,312.63,82,319.3,69c5.06-9.86,12-18.27,19.29-26.41,5.84-6.5,10.29-6.81,17.29-1.52a36.18,36.18,0,0,1,3.69,3.07c15.31,15.23,32.88,16.45,50.37,3.46,1.93-1.43,3.78-3,5.78-4.31,4.53-3,7.78-3,10.7,2.75,8,15.57,20.65,21.86,37.58,19.32,5.44-.82,10.49-2.64,12.48-8.49a5.51,5.51,0,0,1,5.37-4c3.68-.13,2.78,3.4,3.31,5.38C490.92,79.33,501.82,80.29,520.5,72.05ZM402,132.94c-18.72-.57-38.36,2.7-57.53,6.88a230.27,230.27,0,0,0-93.89,43.87c-1.71,1.34-3.2,2.69-5.6,2.56-5.63-.32-9.68,2.78-10.52,7.81-1,5.7,4.65,7.23,8.67,9,18,7.74,30.3,22,42.53,36.41,15.59,18.3,13.71,41.81,17.72,63.31,3,16.14,1.17,32.75-3.38,49-8.67,31.06-22.29,58.7-48.8,78.61-4.88,3.67-9.19,8.14-13.54,12.46-3.48,3.46-4.57,6.37,1.7,8.6,8,2.82,15.2,9.11,24.42,3.43,1.05-.65,3.06.35,4.64.46,10.72.73,20.73,5.87,31.24,6.39,27,1.33,53.84,7.5,81.21,3.69,18.69-2.6,37.85-2.88,56.32-5.77,24-3.75,47.63-10.48,71.27-16.47,38.92-9.84,76.37-23.9,112.85-40.8,55.41-25.65,109.39-53.69,159.42-88.91,9.08-6.4,9.4-19,.79-25.42-4.9-3.68-9.74-7.47-14.47-11.37-39.08-32.23-81-59.83-128.19-78.87-14.58-5.88-29.91-9.62-44.41-15.83-22.78-9.77-46.64-16.63-70.11-24.47-13.62-4.55-27.89-7.16-41.8-10.89C456.5,139.63,430.49,132.57,402,132.94ZM154,276.88c-1,14.81,6.07,27.13,14.76,38.21,18.22,23.25,59.35,14,73.2-6.29,20.15-29.52,3.16-67.79-32.38-72.61-16.16-2.19-29.21,3.11-41.24,13C159.69,256.31,152.51,264.14,154,276.88ZM938.47,223c-2.83-3-6.31-2.95-9.82-1.27-5.74,2.76-11.17,6.22-17,8.61a237,237,0,0,0-66.26,40.32c-4.61,4-11.21,5.34-14.38,11.11-1.32,2.41-5,4.82-2.56,7.51,2.24,2.43,5.69-.05,7.7-1.75a207.68,207.68,0,0,1,24.73-17.79c12.49-7.73,24.36-16.42,37.61-23,11.59-5.73,22.93-12,34.31-18.1C935,227.49,937.84,226.69,938.47,223ZM926.58,420.12c3.19-.56,4.84-1.95,2.67-5.39-3.08-4.91-7.69-8.08-12.61-10.82a206.87,206.87,0,0,1-46.19-35.21c-10.13-10.18-19.75-20.89-29.79-31.17-1.84-1.88-4.38-5.62-7.19-3.12s.39,5.46,2.22,7.49c22.14,24.52,43.92,49.46,72.14,67.41C913.87,413.15,919.49,417.8,926.58,420.12ZM943.24,247.7c-4.56.41-8.69,2.29-13,3.77C902.69,261,878.21,276,855.57,294.15c-3.37,2.7-10.54,5.48-7.93,9.21,2.79,4,8.39-1,12-3.77,13.23-10.2,27.87-18,42.86-25.06,13.54-6.39,25.88-15.19,40.26-19.89a9.09,9.09,0,0,0,2.6-1.84c1.14-.94,3.22-1.54,2.22-3.57C946.73,247.59,944.83,247.83,943.24,247.7ZM856.4,333.78c-3.43-.26-4.07,1.74-3,4a24.12,24.12,0,0,0,4.39,5.55c15.9,16.82,35.37,28.88,54.62,41.28A100.6,100.6,0,0,0,929.58,393c2,.8,5.12,2.32,6.56-.24,1.31-2.36-1.16-4.67-2.93-5.94-6.27-4.5-12.65-8.89-19.29-12.81-17.83-10.52-36.43-19.92-50-36.33C862,335.37,859.15,334.32,856.4,333.78ZM287.74,348c.14-6-.44-7.64-2.3-7.49-3.24.26-3.06,3.35-3.94,5.38-8.18,18.92-15.36,38.44-32.48,51.76a9.71,9.71,0,0,0-2.54,3.05c-1.34,2.59-5.21,5.27-1.56,8.2,2.91,2.35,6.17.51,8.46-2.06,6.74-7.56,13.82-14.88,19.95-22.92C281.71,372.91,286.08,360.11,287.74,348Zm659.7-73.83c-3-2.4-5-2.16-6.67-1.54-12.62,4.77-25.54,8.91-37.37,15.51-5.5,3.06-11.35,5.95-14.74,11.79-.8,1.37-2.39,2.91-1.13,4.2.86.88,3,.91,4.49.67a17.64,17.64,0,0,0,5.16-1.93c9.76-5,19.61-9.91,29.17-15.3C933.34,283.61,939.93,279,947.44,274.15ZM347.76,64.83c-2.91-.62-3.76.44-4.45,1.58-8.73,14.43-12.05,30.69-15.37,46.88a10.08,10.08,0,0,0,2.77,9.66c2.78,2.51,5.33,2.76,6.2-1.7C340.55,102.55,344.11,83.84,347.76,64.83ZM455.3,112.27c-.32,3.86-.06,7.61,2.43,10.71,1.77,2.2,4.4,3.12,5.45-.33q6.15-20.1,11.57-40.41c.56-2,1.06-5.29-1.94-6.25-2.79-.89-4.19,1.79-5.61,3.64C459.84,89.28,457.44,100.73,455.3,112.27Zm472,246.84c-.86-1.42-1.54-3.76-3.11-4.92-11.75-8.73-23.64-17.26-35.58-25.74-1.68-1.19-4.2-2.42-5.85-.52-2,2.32.11,4.51,1.6,6.29,10.3,12.26,24.12,19.95,37.36,28.36C924.11,364.09,927,363.75,927.31,359.11ZM399.45,102.38c-.1,6.28-.61,11.74,4,12.34s6.13-5.52,6.35-8.77c.74-11,7.34-20.27,8.39-31.08.25-2.51,2.11-5.66-.72-7.14s-4.84,1.46-6.42,3.5C403.42,81.05,403,93.42,399.45,102.38Zm245.76,39.21c-1.42.93-3.5,1.77-4.83,3.28A106.5,106.5,0,0,0,631,156.66c-3.35,5-7.26,9.91-7.08,16.5,0,1.94.35,3.88,2.38,4.63,1.74.63,3.27-.55,4.12-1.8a196.76,196.76,0,0,0,17.16-30.15C648.43,143.84,648.38,142.24,645.21,141.59ZM380.46,82.17c-.34-2.41.57-4.33-1.56-5a4.3,4.3,0,0,0-5.42,2.24c-3.24,6.63-8,12.6-9.64,19.88-.82,3.52-1.52,7.35.21,10.95s4.53,5.39,6.71.86A138.87,138.87,0,0,0,380.46,82.17ZM601,162.57c.4,1.63-.29,4.16,2.09,5.28,1.75.83,3.11-.27,4-1.69,5.6-8.68,11.2-17.36,16.7-26.1.86-1.37,1.17-3.23-.37-4.36s-3.13-.13-4.31.94a92.62,92.62,0,0,0-14.79,16.71C602.49,156.05,601,158.85,601,162.57ZM434.33,108c.1,1.32.17,2.64.28,4,.26,3.07,1.21,6.19,4.51,6.63,3.81.5,3.48-3.2,4-5.6,1.54-6.63,3.14-13.26,4.29-20,.33-2,1.5-5.14-1.6-6.16-3.26-1.09-6,.92-7.13,3.65C436.37,96,434.07,101.72,434.33,108Zm229.08,49.7a35.36,35.36,0,0,0-12.6,10.6c-3.19,4.19-5,9.5-2.31,14.83,1.8,3.57,4.73,2.41,6.2-.09,4.14-7,7.82-14.35,11.64-21.57C667.52,159.22,666.79,157.94,663.41,157.68ZM480.87,115a18.74,18.74,0,0,0-.65,4.15c.25,2.93.8,6.35,4.15,6.86s3.81-3.23,4.66-5.44c1.69-4.35,2.39-9,4.55-13.27,1-2,1.48-4.7-1-6.44-2-1.45-4.08-.57-5.92.57C481.53,104.66,480.7,109.78,480.87,115ZM694.13,415.24c3.47-.8,4.88-2.54,2.81-6.17-3.49-6.16-9-10.35-14.38-14.53-2.34-1.82-5.23-1.61-5.54,2.48C676.63,402,689.27,415.53,694.13,415.24Zm-27-227.35c.39,2.72-.63,5.35,2.27,6.06,2.22.54,3.25-1.38,4.23-2.94,3.19-5.07,6.36-10.16,9.43-15.31a3,3,0,0,0-.05-3.69,2.74,2.74,0,0,0-3.64-.1C673.36,176,668.67,181.15,667.17,187.89Zm51.85,209c0-2.63-9.31-12.9-11.95-13.29-2.79-.41-3.58,1.55-2.84,3.35,1.67,4.14,3.44,8.39,6.76,11.53,1.81,1.72,4.41,1.73,6.78,1A2.08,2.08,0,0,0,719,396.89Zm18.71-13.21c-.09-2.71-9.66-11.54-12-11.46s-3.19,1.83-3.33,3.74c-.3,4.05,7.05,10.62,11.56,10.45C736,386.34,737.67,385.73,737.73,383.68ZM673,429.59c2.9-.41,3.44-2.56,2.28-4.59a21.73,21.73,0,0,0-5.23-5.92c-3.16-2.54-6.59-9.41-8.85-7.31-3.9,3.61,3.18,7,4.32,11.08C666.48,426.19,669.35,428.55,673,429.59ZM690.93,202c2.78.13,11-12,9.73-14.38-1-1.8-2.78-1.7-4.15-.91-5,2.92-6.11,8.28-7.55,13.3C688.65,201.09,689.75,201.82,690.93,202Zm26.38-4.32c-4.29.6-5.86,3.71-7.45,6.76a9.35,9.35,0,0,0-.5,8.32c.14.33.88.55,1.35.57,2.74.09,9.45-11.88,8-14.4C718.42,198.32,717.69,198,717.31,197.65Zm35.44,26.53c.47-2.88-1.34-3.17-2.86-2.76-3.89,1.05-7.47,2.75-7.76,7.54-.16,2.71,1,5.1,4,4.59C751.35,232.64,750.45,227,752.75,224.18Zm-15.44-10.9c-5.69.51-7.6,3.48-7.92,7.8-.08,1.18,0,3.27,1.61,2.91,3.89-.87,3.92-5,5.56-7.74A13,13,0,0,0,737.31,213.28Z" transform="translate(-31.79 -37.36)"/><path d="M381.43,378.58a29.47,29.47,0,0,1,9.53,1.67c9.16,3.27,18.58,4.07,28.28,3.5,8.84-.52,9.64,1.34,9.22,10-.73,14.87-1.58,30,6.27,43.62,4.31,7.5-2.06,7.5-5.82,8.2-11.08,2.09-21.41-1.8-32-4.62-14.31-3.82-20.61-16.73-30.32-25.63-5.47-5-10.17-11.31-15-17.23-5.2-6.41-2-10.12,2.6-12.7A48.74,48.74,0,0,1,381.43,378.58Zm-5.35,12.69c-3.73.08-7-.83-8.4,2.81-.6,1.58.16,2.79,1.86,3.8,12.64,7.55,25.8,13.41,40.88,13.61,2.64,0,5.73.57,6.46-2.83.67-3.07-2.34-3.89-4.42-4.79-7.52-3.25-15.79-4.12-23.33-7.56C384.69,394.29,380.88,390,376.08,391.27Zm42.87,46c.08,0,2.3.25,2.92-2.66s-.44-4.24-3.38-5.16a90.24,90.24,0,0,1-13.8-6.07c-8.57-4.39-16.34-10-24.45-15-1.36-.84-3-1.7-4.41-.56s-.34,2.38.46,3.43C386.59,424.92,399.58,434.38,419,437.31Zm-9.22-41.51c3.11.35,6.78-.43,10.36-1.51,1.7-.51,3.71-1.27,3.41-3.74a4,4,0,0,0-3.62-3.73c-10.84-1.21-21.69-2.36-32.56-3.31-2.29-.2-5,0-5.47,3.31s2.54,3.88,4.54,4.57A73.69,73.69,0,0,0,409.73,395.8Z" transform="translate(-31.79 -37.36)"/><path d="M497.71,252.87A84,84,0,0,1,509,237.37c13.16-14.07,9.51-35.65-6.79-46.08-3.62-2.31-10.47-3.8-8.76-8.58,1.29-3.58,8.38-1.9,12.41-1.12,13.85,2.69,25.74,8.94,31.18,23,4.83,12.55,1.53,25-5.87,34.74-6.75,8.93-18.69,11.69-29.27,15.27C500.83,255,499.14,253.52,497.71,252.87Z" transform="translate(-31.79 -37.36)"/><path d="M442.58,322.57c15.8-11.75,27.74-25.66,21-46.44C457.25,256.4,440.82,248.79,420,246c18.46-5.8,41.06,1,51.61,14.31,3.61,4.57,7.54,8.85,10.16,14.22,6.35,13,4,29.23-6.15,39.52A11.21,11.21,0,0,1,471,317.1c-8.92,2.52-17.91,4.78-26.88,7.12Z" transform="translate(-31.79 -37.36)"/><path d="M305,172.65c14.2-6.93,29-13.09,45-6.58a35,35,0,0,1,14.88,53.39c-4,5.44-11.43,7.66-15.1,13.82a2.23,2.23,0,0,1-1.95,0c-.5-.85-1.09-2.13-.77-2.87a79.1,79.1,0,0,1,5.26-10.69c10-15.76,7.29-34.82-14.33-40.83-8.27-2.3-15.76-7.55-25-3-1.93.94-5.1-.68-7.7-1.12Z" transform="translate(-31.79 -37.36)"/><path d="M382.06,332.58c.21-9.68-3.4-15.67-10.55-19.74-2-1.12-4.93-2.36-3.68-5.31,1-2.41,3.78-.87,5.76-1.14,10.66-1.46,28.17,15.37,28.32,25.83s-11.53,25.79-23,28.28c-4,.87-9.67,4.25-12,.73-2.65-4,3.84-6.56,6.23-9.45C378.25,345.59,382.46,339.49,382.06,332.58Z" transform="translate(-31.79 -37.36)"/><path d="M543.77,372.1c.57-3.68.82-8,2-12.05,5.37-19.24-4.28-26.75-22-34.44-2.29-1-6.27-.42-6.58-3.11-.41-3.68,3.84-3.87,6.4-4.65,11.18-3.42,26.54,2.46,33.73,12.74,8.2,11.71,6.26,21-1.25,35.09-1.83,3.46-5,6.23-7.63,9.23-1,1.14-2.1,2.9-3.91,2S543.57,374.14,543.77,372.1Z" transform="translate(-31.79 -37.36)"/><path d="M367.91,233.7c9.74-5.7,18.89-10.15,27.58-1.38,8.86,9,16.57,18.91,14.8,32.81-.89,7-13.27,19.07-20.66,20.25-1.24.2-3.05.25-3.76-.46-1.57-1.59.38-2.84,1.23-4,5.66-7.48,8.56-14.91,5.62-25C389,243.3,380.22,237.56,367.91,233.7Z" transform="translate(-31.79 -37.36)"/><path d="M618.92,212.6c19.31-5,42,17.29,40.35,37-.4,4.76-3.29,7.89-7.18,9.78-5.71,2.78-11.7,5-17.58,7.4-1.19.48-2.6,1.41-3.56,0a3,3,0,0,1,.18-2.86c7-7.09,10.46-14.9,7.58-25.18-2.67-9.5-9-16-16-22.09A53.28,53.28,0,0,1,618.92,212.6Z" transform="translate(-31.79 -37.36)"/><path d="M598.43,273.55c0,12.63-6.74,19.52-19.33,20.92-5.55.61-6.27-2.66-4-5.27,12.38-14.49,3.87-26.11-4.5-37.83-1.61-2.25-5.32-3.9-3.29-7.11s5.53-1.7,8.68-.82C590.15,247.4,598.41,258.35,598.43,273.55Z" transform="translate(-31.79 -37.36)"/><path d="M721.33,295.22c-3.57,7-7.31,15.12-11.93,22.76-1.59,2.61-5.41,3.17-8.71,1.19s-2.27-4.48-1-6.87c8.2-15.38,5.88-29.14-6.11-41.54a63.84,63.84,0,0,1-4.69-5.43c-.94-1.22-2.46-2.57-1.64-4.21,1-2,3.25-1.48,5-1.25C703.69,261.37,721.78,282.63,721.33,295.22Z" transform="translate(-31.79 -37.36)"/><path d="M425.47,154a58,58,0,0,1,11.58,1.26c21.88,5.53,21.41,24.3,14.82,37-2,3.82-3.48,8.57-8.08,10.63-1.55.69-2.73,3.18-4.78,1.4-1.81-1.57-.42-3.25.19-5,2.72-8,5.67-15.78.67-24.46-5.85-10.15-14.42-13.66-25.35-13.11-2.82.14-6,.6-6.4-2.82s3.15-2.62,5.21-3.43C417.47,153.72,421.76,154.25,425.47,154Z" transform="translate(-31.79 -37.36)"/><path d="M164.43,277.76c-.65-19.15,13.35-26.68,25.21-26.65,19.58,0,29.32,9.92,29.41,23.51.1,14.4-14.44,30.81-26.38,30.69C179.41,305.17,164.39,290.53,164.43,277.76Zm18.91.14c5.57-.18,9-2.13,9.14-7.92.06-3.64-1.61-5.42-5.26-5.18-5.4.35-10.34,2.27-10.94,8.11C175.82,277.43,180.45,277.4,183.34,277.9Z" transform="translate(-31.79 -37.36)"/></svg>