<svg id="Layer_1" data-name="Layer 1" xmlns="http://www.w3.org/2000/svg" viewBox="0 0 661.89 958.46"><title>geko</title><path d="M153.38,440.32c6.41-8.84,8.89-9.45,19.51-3.39,4.19,2.38,8.34,4.39,13.1,5,5.89.78,11.89.79,17.61,2.7,1.86.62,3.28-.61,4.42-1.85,1.4-1.52-.13-2.78-.6-4.15-3.45-10-11.34-16-19.73-21.43l-.77-.51c-10.55-7.54-7.77-12.44,1.09-20.14,6-5.19,18.66-.31,21.07,7.27,1.24,3.92,1.87,8.05,3.24,11.93,5.13,14.61,12.86,27.49,26,36.3,6.27,4.19,13.49,6.53,20.69,8.42,13.05,3.43,22.16,10.6,27.1,23.57,3.47,9.11,8.57,17.56,14,25.77,6.41,9.68,16.48,9.25,24.6,4.85,7-3.78,12.16-9.72,17.83-15.1,2-1.87,1.47-4.25,2.15-6.34,13.84-42.11,36.66-79.22,64.34-113.35,14.76-18.21,31.74-34.52,49.31-50.14,18-16,36.71-31.2,52.67-49.32,9-10.19,17.76-20.56,24.87-32.29,2.87-4.74,6.81-8.94,10.26-13.39,7.92-10.25,12.45-21.93,16-34.18,4.19-14.5,7.09-29.39,6.43-44.33-1.21-26.94-12.43-49.59-36.23-63.25a288.61,288.61,0,0,0-52.25-23.71,152,152,0,0,0-47.84-8,64.38,64.38,0,0,0-31,8.21c-11.89,6.44-22.74,14.18-31.07,25.16-14,18.4-19.1,38.35-11.82,60.85,4.74,14.66,13.91,26,25.81,35.36,3.6,2.83,7.15,5.74,11,8.86-2.74,1.17-5.2,2.31-7.91.23-10.53-8.09-22.11-14.71-32.4-23.15-2.6-2.13-3.66-6-5.53-7.56a31.19,31.19,0,0,1-6.92-9.12c-6.12-11-6.94-23.08-6.84-35.42.12-14.29,7.05-25.35,15.78-35.65C366,71.9,383.84,59.46,404.54,50.63s42.08-9.9,63.8-8.88c17.7.84,34.23,7.18,50.74,13.15,5.28,1.91,10.61,3.71,15.76,5.93,18.28,7.89,36.89,15.34,50.12,31.31,15,18.11,28.65,36.89,32.23,61.08,1.63,11,.3,21.72-2.21,32.35-5.11,21.68-17.09,40.09-28.66,58.62-9.08,14.55-20.44,27.44-32,40-16.75,18.09-33.79,35.93-48.79,55.5-17.32,22.59-35.72,44.41-51.5,68.14-7.54,11.33-12.63,24.12-17.38,36.89a262.72,262.72,0,0,0-13,47.77c-1.33,7.88-2.31,15.78-2.87,23.71-1.42,20.4-.66,40.82,1.21,61.13,2.14,23.18,9.52,45.05,19.08,66.19,8.75,19.36,17.58,38.68,28.27,57.09,5.48,9.44,12.29,17.89,19.27,26.21,15.58,18.55,31.12,37.12,49.66,52.92Q562,800,585.45,820.61c8.27,7.27,16.77,14.33,23.15,23.53a50.53,50.53,0,0,1,4.68,8.37c.69,1.57,1,4.38,3.12,4,2.68-.56,1.34-3.42,1.13-5.08a158.8,158.8,0,0,0-3.6-17.59c4.56,3.74,9.08,7.53,13.7,11.2,1.07.85,2.06,3.24,3.55,1.89s-.36-2.93-1.23-4.34c-2.29-3.73-5.2-7-8.05-10.51,8.18,3.25,16.51,2.55,26,2.58-6.79-6.08-15-6.15-21.59-9.92.69-1.42,1.82-.74,2.79-.57,5.89,1,11.54-.57,17.25-1.5,1.08-.18,2.38-.3,2.13-1.72s-1.58-1.17-2.65-1.23c-4.74-.27-9.48-.58-14.23-.85a21.16,21.16,0,0,1-7-1.57c1.85-1.64,3.74-1.17,5.36-1,5.15.38,10-1.48,15-1.9,1-.08,1.86-.45,1.92-1.57s-1.14-1.33-1.92-1.6c-3.59-1.23-7.31-.68-11-.47a36.44,36.44,0,0,1-14.88-1.79c-13.7-4.94-26.76-10.82-38.8-19.32-18.7-13.21-35.81-28.36-52.81-43.47-16.66-14.82-30.71-32.35-42.78-51.37-8.84-13.94-19-27.09-26.19-42-10.34-21.34-19.35-43.3-22.1-67-3.07-26.47-4.59-53-.57-79.71,4.28-28.44,11.6-55.82,24.31-81.62,8.6-17.44,19.66-33.43,30.09-49.81,13.36-21,29.29-40,43.81-60.06,7.31-10.12,16.6-18.83,25.23-28a304,304,0,0,0,49.11-68.84c6.25-12,11.36-24.4,13.43-37.76,3-19.66.91-38.64-8.45-56.61a198.68,198.68,0,0,0-29-41c-5.34-5.94-12.3-10.34-19.13-14.56C555.06,61.43,543.64,57.61,532.59,53c-10.39-4.37-21.4-7-31.49-12-2.52-1.26-5.62-2-5.37-6.07a3.79,3.79,0,0,0-3.15-3.53c-2.18-.25-4.73.84-5.06,2.44-.82,4-3.09,1.81-5,1.77.76-1.28,3.13-.75,3.1-2.9,0-1.23-.85-1-1.55-1.11-2.15-.35-4.36.31-5.09,2.12-.9,2.22-1.84,2.36-3.78,1.6,3-3.27,3.68-8.7,1-9.44-1.75-.49-5.44-.58-7,1.37-2,2.42-1.49,5.3,1.88,7.83-3.54-.58-6.31-1.6-9.34-1.57-1.74,0-3.12,0-4.51.94-1.9-4.26-5.29-.13-7.75-1.39-2.26-1.16-4.47-.26-6.45.7-5.93,2.87-12.53,2-18.73,3.66-15.75,4.15-30.9,9.15-44.47,18.74-8.83,6.24-18.21,11.7-25.54,19.75-7.15,7.84-14.48,15.67-18.9,25.51-6.32,14-6.54,28.62-4,43.6,2.27,13.5,9.1,24.63,17.56,34.72,4.7,5.61,11.46,9.37,17.89,13,5.4,3,10.7,6.31,16.86,8.52-2.21,1.83-4.19,1.53-6.14,1.06-14.46-3.43-28-8.92-39.59-18.42-12.12-10-16.52-23.95-18.53-38.79-2-14.54.68-28.62,5.74-42.24,9.4-25.28,26.42-44.82,47.06-61.52,7.44-6,16.57-8.21,25.5-10.95,16.05-4.92,32.53-6.38,49.18-7.53a175.76,175.76,0,0,1,56.75,5.3C525,33.63,546.18,39.76,566,49.8c8.36,4.25,15.81,9.83,23.08,15.67,2.48,2,4.74,4.22,7.64,5.69,7.3,3.67,11.49,10.5,16.17,16.67,12.68,16.72,19.21,35.86,22.6,56.48,2.23,13.53,1.11,26.71-.05,40.17-2.06,23.89-8.77,46.42-16.63,68.91-8.69,24.89-21.19,47.81-33.87,70.7-13.49,24.36-26.44,49-39.06,73.83-11.6,22.82-21.47,46.39-32,69.66-1.63,3.58-1.07,6.46.73,9.5,3.32,5.6,8,10,12.49,14.63,6.8,7.07,13.39,14.35,20.32,21.29,4.91,4.94,8.95,4.24,12.47-1.78,3.72-6.33,7.33-12.72,11-19.09,3.87-6.76,9.73-10.11,17.45-9.36,7.33.72,13.77-.62,19.88-5,7-5,11.16-14.23,9.92-22.73-.89-6.05-1.06-12.2-2.85-18.11-.59-1.94.36-3.65,1.26-5.18a66.21,66.21,0,0,0,4.06-8.18c2.08-4.95,12.43-6.67,17-3.05,7.67,6.1,7.9,11.16.78,18.07-1.32,1.29-2.77,2.43-4.09,3.72a8,8,0,0,0-2.5,7.95,85.67,85.67,0,0,0,4.23,11.13c1.29,3,3.22,3.2,5.69,1,6.44-5.6,9.87-13.18,13.61-20.52,2.82-5.54,7.41-9.24,12.2-12.82a4.88,4.88,0,0,1,4-.53c7,1.34,12.8,10.07,11.44,17.09-.84,4.3-4.09,6.46-7.81,7.65a37.81,37.81,0,0,0-18.14,11.85,55.14,55.14,0,0,0-6,9.22c-1.35,2.45-.18,4.25,2.44,4.72,10.54,1.87,20.64,1,30.07-4.67,5.2-3.09,9.07-2.22,14.42,2.73,3.17,2.92,4.69,9.85,3.08,13.58a6.39,6.39,0,0,1-4.06,3.47c-5.51,1.95-11.23,2.51-16.76.66a54.65,54.65,0,0,0-28-2.08c-3.76.71-5.12,2.61-3.88,6.11,3,8.43,6.6,16.5,13.34,22.74a21.71,21.71,0,0,1,4,4.38c3.08,5.15,3.64,11.14-3.47,14.59-10.72,5.19-21.4-1.93-22-10.88-.58-8.48-2.67-16.54-8.65-23.18-2.41-2.66-5-4.69-8.55-4.69-3.87,0-7.61-.77-11.41-1.17-11.15-1.16-19.78,3.25-25.12,13a258.27,258.27,0,0,0-12.81,25.89,36.3,36.3,0,0,1-3.31,6c-4.76,7.25-8.12,8.16-16,4.6-15.43-6.92-27.81-18.33-41.3-28.09-2.48-1.8-4.7-4-7.24-5.67-4-2.71-5.56-2.21-6.62,2.54-1.84,8.21-3.15,16.53-5,24.74-3.31,14.86.4,29.26,3,43.62A321.75,321.75,0,0,0,530.28,682c5.69,10.62,13.25,20.15,20.48,29.81,2.1,2.82,4.23,5.61,6.37,8.4s4.25,6,7.92,5.34c3-.56,3.49-4.34,4.55-7a534.11,534.11,0,0,0,19.5-58.15c1.75-6.32,3.28-12.69,4.75-19.09,1.71-7.45,6.34-12.67,14.06-14.84,14.69-4.15,29.43-5.85,44.8-4,12.08,1.49,24.06,4.39,36.38,3.94,11.52-.42,11.63-.86,15.3-10.54a68.33,68.33,0,0,1,2.54-6.41c5-10.06,3.93-20.13,0-30.15-4.44-11.44,1.67-20.6,13.87-21.19,4.53-.21,6.65,2.36,7.92,5.57,2.47,6.25,3.23,12.46-.53,18.94-5.28,9.08-5.92,19.86-9.67,29.57-1.11,2.85,1.1,3.05,3.51,2.73,14.83-2,26-9.33,33.24-22.44.89-1.61,1.88-3.16,2.9-4.69,4.9-7.4,12.9-8.52,19.63-2.84,3.75,3.17,6,7.38,7.82,11.76,1.73,4.2-1.38,9.61-6.31,11.89S769.22,611.85,764,613c-8.88,1.92-16.68,6.75-24.77,10.71-1.41.69-3.32.84-4.43,2.8,6.47,3,13.43,3.28,20.17,4.53,8.36,1.56,16.67,1.27,25.1.29,5.51-.63,10.68.8,13.53,6.52.94,1.9,2.33,3.58,3.46,5.4a12.28,12.28,0,0,1-3.25,16.3c-7.85,5.66-20.82,3.15-26-5.13-2.54-4.09-5.55-6.28-10.83-6.1-9.6.34-19.3.92-28.76-1.77-1.5-.43-3.13-.74-4.06,1s.7,2.64,1.48,3.51c9.5,10.69,19.29,21,33.77,25a3.19,3.19,0,0,1,.44.13c5.37,2.09,10.08,5,10.41,11.44.29,5.74-4.94,13.63-10.16,15.25-6.5,2-12.73,1.28-17.91-3.72a23.62,23.62,0,0,1-6.19-10.6c-3.93-14.08-14-23.42-24.24-32.74-7.43-6.76-17.13-7.17-26.07-8.76-17.37-3.09-34.79-1.63-51.86,3-6.25,1.69-10.61,5.58-13.64,11.38a181.08,181.08,0,0,0-11.12,27.08c-4.23,12.73-8.7,25.38-13,38.09-2.4,7.07-3.53,14.13-.81,21.52,1.43,3.87,3.21,7.18,6.61,9.62,3,2.14,5.8,4.5,8.65,6.82,9.87,8,21.25,9.24,33.27,7.23,7.12-1.2,14.33-1.13,21.47-1.81a93,93,0,0,1,33.94,3.14A64.17,64.17,0,0,1,730,792.28c1.23,1.36,2.47,2.72,3.62,4.14.59.73,1,1.57.12,2.45s-1.62.29-2.35-.3c-4.42-3.63-10-5.11-14.83-8.07-.94-.58-2.41-1.14-3.37.08a1.86,1.86,0,0,0,.54,2.49c6.65,4.85,6.82,12.61,7.74,19.42,1.9,14,7.61,25.49,18.1,35.07,8,7.35,17.67,10,27.78,11.83,3.88.72,7.83,1.39,11.75,0,.72-.25,1.76-.15,2.17-.62,4.65-5.38,5.77-.58,7.47,2.53,8.36,15.3,16.48,30.71,22.38,47.17,5.19,14.49,6.23,29.12-.73,43.2-3.72,7.53-9.63,12.77-19,14-17.18,2.19-34.4,4.12-51.67,4.67a120.43,120.43,0,0,1-33.27-3.29c-2.86-.72-3.66-2.29-3-4.95a35.48,35.48,0,0,0-4.94-27.69c-6.83-10.75-16.88-16.93-30.47-18.34-17-1.76-31.69,5.72-47.38,9.2-3.27.72-6.26,2.52-9.71,2.52-1.22,0-2.24.36-2.23,1.68s1,1.63,2.15,1.92a88.3,88.3,0,0,1,17.62,6.21c2.7,1.32,2.16,3,1.87,4.85-.44,2.72-2.21,1.17-3.53.87-18.62-4.12-33.66-14.35-46.38-28.07-6.94-7.48-9-17.45-11.51-27.07-1.54-6-3.22-12.07-4.66-18.15-2.35-9.93-10.44-15-17.44-21.07a7.81,7.81,0,0,0-.75-.53c-5.48-3.64-10.64-9.41-16.54-10.31-6.08-.92-13-.2-19.51-.09-10.89.18-21.79.07-32.69.22-6,.08-11.94.31-17.63,2.41-3.94,1.46-6.65,5.89-5.58,9.85,3.3,12.26,4.4,25,7.75,37.22a49.81,49.81,0,0,0,8,16.92c4.65,6.21,11.53,9,19.13,9.11,10.39.16,15.24,3.48,18.23,13.49,2.34,7.81-2.39,14.5-10.47,14.83-9,.37-14-3-17.75-11.47-3.25-7.32-10.74-10.13-16.54-14.73-1.83-1.45-3.88-1.44-6.09-1.34-2,.09-2.72.84-2.68,2.77.25,14.44,2.15,28.07,15,37.64,5.81,4.33,4.38,18-1.71,22.22-2.67,1.86-4.54,4.8-8.76,3.18-5.66-2.17-11.22-4-13.77-10.32-1.94-4.8.12-8.95,2.3-12.62,2.88-4.83,2.47-9.16.39-13.9C444,936.39,441,929.22,438,922c-1.39-3.32-3.23-3.7-5.83-1.23a155.18,155.18,0,0,0-18.43,21.07,8.37,8.37,0,0,0-1.36,5.2c-.1,5,.28,10.11-1.12,15.07-1.64,5.78-9.21,10.1-14.84,8.11-4.59-1.61-9.73-3.22-10.68-8.82-1.21-7.21.05-14.27,7.23-17.83,7.77-3.86,13-10.51,19.55-15.71,1.92-1.52,3.66-3.28,5.64-4.71s2.59-3.73,3-5.93c.25-1.27.27-2.57-2.18-2.06a66,66,0,0,0-13.74,4.85c-8.82,4-16.64,9.66-24.76,14.83-3.51,2.23-12.9,1.54-15.48-1.08-3-3-3.51-13.47-.86-17,2.13-2.85,5.19-3.41,8.26-2.58,8.75,2.36,16.79.76,24.7-3.3,11.14-5.73,22.46-11.11,33.65-16.74,8-4,10-10.36,7.61-19.93-3.78-14.92-9.72-29.19-12.75-44.32-1.62-8-1.34-9.44,6.69-11.16a284.3,284.3,0,0,1,38.39-5.21c3.73-.28,7.57-1.32,11.47-1.34.86,0,1.57-.9,1.8-1.88.28-1.16-.51-1.7-1.33-2.12a20.26,20.26,0,0,0-4.58-2.09c-7-1.53-12.13-6.08-17.69-10-11.72-8.3-23.92-15.92-35.27-24.76a91.25,91.25,0,0,1-16.65-17.58c-12.67-16.9-24.74-34.16-34.7-52.9a324.31,324.31,0,0,1-33.09-97.52,210,210,0,0,1-2.31-56.77c.18-1.82,1-4.12-1.61-5.19s-3.05,1.41-4.18,2.59c-6.74,7.07-15.16,11.28-24.23,14.39-1.66.57-2.74.07-4-1.16-9.8-9.43-18-19.82-22.8-32.83-6.59-17.89-16.55-33.41-33.3-43.64-3.2-2-6.61-6-10.11-3.87a15.85,15.85,0,0,0-7.61,13,42.79,42.79,0,0,0,.79,11c1.23,5.36-1,9.56-4.39,12.74-3.78,3.57-9,2.93-13.44,1-4.29-1.82-6.11-6-6.5-10.32-.41-4.52-.28-9.19,4.72-11.9,4.11-2.23,7.42-11.18,6.18-15.69-.84-3.08-3.43-2.87-5.16-2-7.47,3.79-15.49,6.85-21.14,13.43-3.58,4.16-3.76,9.94-6.56,14.58-3.11,5.17-9,6.82-14.13,3.69-3.58-2.17-6.78-4.36-8.67-8.39-4.59-9.77-.48-15.15,8.69-17,12.26-2.44,21.59-8.75,28.7-18.78a2.72,2.72,0,0,0,.46-3c-.73-1.51-2.08-1.27-3.48-1.5-9.95-1.64-19.84-.37-29.77,0-8,.32-9.62-1.22-12.41-8.76-.21-.58-.27-1.17-1-1.36Zm228.93,22c-.65-2.31.3-5-2.67-5.51-1.84-.32-1.45-1.57-1-2.82.53-1.45-.36-2.36-1.45-3-1.64-.95-2.28.61-2.75,1.55-1.66,3.26-3,6.7-4.67,9.94-11.49,22.1-16.68,46-19.81,70.42-.83,6.52-1.29,13.49,1.27,20,.92,2.33,2.17,4.41,5.16,4.53s3.79-2.05,4.58-4.25c2.76-7.72,6.68-15,9-23,.86,4.87,3,9.36,2.7,14.36-.1,1.56-.71,3.71,1.43,4.39a5.16,5.16,0,0,0,5.43-1.65c1.57-1.64,3.11-3.36,5.67-3.6.72,4.78,1.23,9.5,2.18,14.13a34.08,34.08,0,0,0,10.77,19.28c4.23,3.72,7.75,2.56,9.65-2.77,5.19-14.49,5.05-29.45,3.25-44.4-1.44-12-3.17-24-2.46-36.11.32-5.48.88-11,.77-16.46-.11-5.19-3-6.69-7.72-4.43-2.16,1-4.21,2.28-6.61,3.6-.26-3.31.87-5.8,2-8.26q5.44-11.6,11-23.15c.66-1.37,1.36-2.65.63-4.29-1.64-3.69-5.81-4-8.81-.39C394,447.54,388.38,454.74,382.31,462.33ZM406.24,686.8c1.14,1.27,1.85,2,2.49,2.77,3.54,4.22,6.06,9.19,9.93,13.19,2.73,2.83,5.07,2.24,7.34-.34a31.29,31.29,0,0,0,2.56-3.81c2.91-4.44,5.17-5.21,10-2.74,2.74,1.41,5.52,1.51,8.44,1.63,3.16.12,4-1.15,4.35-4.27,1.17-9.62-4.34-15.89-10.38-21.82-3.45-3.4-6.61-6.92-7.93-11.56-2-7.09-6.41-12.35-11.8-17.06-3.82-3.34-7.32-6.94-7.49-12.6,0-1.31-.32-3.15-2.25-3.65-2.16-.55-2.28,1.29-3.17,2.47-3,4-6.89,4.55-11.38,2.68-3.79-1.58-7.42-3-6.81-8.33a57.27,57.27,0,0,0-.08-8.28,2.33,2.33,0,0,0-1.84-2.33c-.75-.21-2-.26-2,.48-.56,5.3-6,4.9-8.75,7.62-1.74,1.72-3.12,1.09-5-.5-4.05-3.46-5.55-8.28-7.87-12.69-.67-1.27-1.55-3.21-3.36-2.43-2,.85-.72,2.7-.27,4,1.95,5.61,4.66,11.1,4.41,17.19a52.44,52.44,0,0,0,5.87,26.91c1.2,2.3.1,4.64-1.22,6.46-4.62,6.38-3.33,12.14,1,18.07,3.67,5,7.9,9.88,8.93,16.3,1.19,7.37,6.4,12.36,10.22,18.17,1.8,2.74,4.67,3.31,7,.95,3.07-3.09,6.29-6.23,6.84-11S405.39,692.63,406.24,686.8Zm77.54-71.7c4.14,5.82,7.52,11.47,12.5,15.82.93.82,1.78,2.54,3.38,1.41,1.39-1,3.14-1.67,3-4.1-.19-3.37-.15-6.7-1.4-9.94-1.93-5-3.79-9.94-5.26-15.08-4.33-15.17-3.22-30.94-5.36-46.36-1.16-8.41-2.18-16.75-6.29-24.31-.79-1.45-1-4-3.49-3.65s-3.67,2.11-4,4.74c-2,15.24-4.52,30.39-7.75,45.5-2.33-.46-3.31-2.46-4.47-4.2a33.61,33.61,0,0,0-8.48-8.95,5.24,5.24,0,0,0-5.68-.26c-1.92,1-1.27,2.8-.92,4.49.52,2.54.49,5.27,1.4,7.64,3.5,9.15,1,17-4.73,24.26-1.18,1.49-1,3-.45,4.76,3.45,10.06,8.05,19.48,14.78,27.81,3.65,4.53,7,9.3,8.5,15.06.49,1.92.72,3.91,3.28,3.3,2.36-.56,1.87-2.78,1.35-4.19-1.53-4.19.25-8.2.27-12.28,0-1.79,1.46-2.19,2.74-2.62s2.25.34,3,1.51c.9,1.45,1.28,4.44,3.42,3.47,2.41-1.1-.52-3.39-.18-5.25.12-.67-.43-1.43-.6-2.17C481,626.09,480.16,620.71,483.78,615.1Zm36.9-190.74c2.68.21,5.38-1.79,7.57-4.84A100.19,100.19,0,0,0,543,390.7c3.45-11,5.87-22.41,11.27-32.77.71-1.36,1.8-3.34.46-4.18-1.86-1.16-2.67,1.31-3.67,2.43a12.12,12.12,0,0,1-3.31,3c-3.29,1.79-6.58,1.13-8-2.18-.83-2-1.39-4-2.08-6-.58-1.69.71-4.29-2.35-4.75-2.61-.39-4.31.93-5.83,2.88-4.53,5.84-10.21,10.41-15.92,15.07-3.6,2.94-8.11,3.44-11.61,6.25-6.3,5.06-9.69,12.1-13.58,18.85-2.58,4.47-4.69,9.59-9.4,12.13-3.12,1.69-2.66,3.74-2.17,6.09.62,2.93,3,2.71,5.13,2.24,1.33-.29,2.62-1.19,3.86,0,5.17,4.77,10.23,2.47,15-.5,3.46-2.17,5.7-1.74,7.22,1.93,1.16,2.82,3,5.29,4,8.2C513.15,422.5,515.76,424.4,520.68,424.36Zm16.81,383.47c-.43-2-.64-5.49-1.91-8.52-4.16-10-8.2-18.8-23.44-17.32a14.6,14.6,0,0,1-11.35-4.14c-5-4.56-9.5-9.54-11.9-16.08a150.7,150.7,0,0,0-5.82-14.84c-3.2-6.48-9.34-8.28-14.82-4.8a44.55,44.55,0,0,0-5.08,3.94c-4.69,4-6.28,4.23-11.09.51-5.27-4.06-10.34-8.38-15.51-12.56-.78-.63-1.54-2-2.67-1.1-.94.71-.54,2-.08,3,1.15,2.53,1.26,5.23,1.62,8,.62,4.62.12,9.9,3.13,13.64,8.4,10.49,18.13,19.66,31.28,23.84a36.69,36.69,0,0,1,11.94,6.37c8.48,6.78,17.36,13,25.22,20.61,5.63,5.42,13.45,6.06,20.41,8.54C529.94,817.76,537.46,811.75,537.49,807.83ZM490.4,456.26c-2.68-3.63-1.4-7.38-2.3-10.78s-2.24-6.62-5.43-7.21c-3.39-.62-4.89,2.94-6.58,5.51-2.77,4.19-4.72,9-8.61,12.35a38.44,38.44,0,0,0-8.54,10.7c-3.3,6-5.78,12.45-11.55,16.83a11.09,11.09,0,0,0-3.89,6.65,103.84,103.84,0,0,0-2,27.81,5.84,5.84,0,0,0,3.42,5c1.84.82,2.71-1.55,3.83-2.67a24.73,24.73,0,0,0,2.72-3.67c2.48-3.66,4.77-7.47,7.42-11,4.52-6,8.27-6.26,13.38-1.12,1.19,1.2,2.3,2.47,3.52,3.63,4.39,4.18,9.49,3,11-3,1-3.83,3.13-6.74,5.14-9.93,4-6.46,7.83-13.06,12.13-19.37,6-8.79,6.12-18.95,5.78-29.11,0-1.59.93-3.61-1.19-4.46a5,5,0,0,0-5.88,1.3C498.86,448,493.87,451.08,490.4,456.26Zm8.3,202.5a35.89,35.89,0,0,0,1.77,7.86c3.3,9.52,6.64,19,6.63,29.32,0,3.88,1.79,7.35,3.95,10.59,2.86,4.3,6.79,7.45,10.91,10.37,8.68,6.15,15.85,13.39,19,24,2,6.62,7.45,10.22,12.92,13.69a3.44,3.44,0,0,0,3.44.26c4.64-1.85,6.39-5.44,5.86-10.66-1.09-10.85-6.75-19-15-25.27-8-6.09-13.77-13.87-18.37-22.54-5.43-10.25-10.15-20.87-15.54-31.14-2.49-4.75-4.68-9.94-10.91-11.59C499.58,652.64,498.46,653.74,498.7,658.76ZM475.86,359.65c0-4.64-.79-5.31-5.38-4.72-1.86.24-4.45,1.66-5.42-.25-1.11-2.16.9-4.27,2.45-6a15.55,15.55,0,0,1,2-1.87c3.37-2.65,3.73-5.43.56-9.65-2-2.73-4.29-.19-6.38.55a7.05,7.05,0,0,0-1.16.73c-8.26,4.75-12.68,13.06-18.62,20-4.45,5.19-8.3,11.11-14.52,14.45-7,3.75-13,14.5-12.11,22.33.29,2.63,1.47,3.65,4,2.24s5.28-2.55,7.46-4.38c2.4-2,3.2-1.21,4.14,1.18a17.62,17.62,0,0,0,4.09,6.54c2.58,2.46,4.56,2.74,6.31-.92a80.43,80.43,0,0,1,4.91-8.79c3.64-5.67,7.42-10.93,14.73-12.79C468.9,376.77,475.82,365.92,475.86,359.65Zm86.38-29.9a3.69,3.69,0,0,0,1.3-.24c10.73-4.85,21.48-9.65,24.84-22.64,1.56-6.06,5.12-11,9.27-15.56,3.15-3.45,3.42-7.78.54-12.61-2.2-3.67-5.82-3.45-9.38-2.95a10.24,10.24,0,0,0-6.23,3.58c-3.44,3.83-6.46,8.07-11,10.82s-6.67,7-8.44,11.62c-1.51,4-3,8-6,11.21-4.2,4.37-3,12.94,2,16.26A4.74,4.74,0,0,0,562.24,329.75ZM763.16,886.57c.07-8.91-6.87-14-13.23-11-12.74,6-20.57,17.16-28.31,28.13-2.41,3.42-3.64,8.91-1.45,12.71,4.37,7.57,11.62,8,18.29,2a157.87,157.87,0,0,0,16.2-16.93C758.62,896.74,763,891.93,763.16,886.57ZM646.7,866.63c-9.7.9-19.54,1.9-29,5.3-9.63,3.46-14,9.31-14.19,19.5,0,3.06,0,6.22,3.16,8.06s6,.79,9-.78c5.57-2.94,9.3-7.78,13.42-12.27,9-9.84,19-17.32,33.54-13.59,1,.25,2,.21,2.32-.75s-.84-1.42-1.65-1.71C658,868.42,652.64,866.72,646.7,866.63ZM605.58,166.19a30.54,30.54,0,0,0,0-4.59,5,5,0,0,0-3.19-3.66,1.64,1.64,0,0,0-2.27,1c-1.31,3.1-4.12,3.24-6.83,3.69-3.76.62-7.56,1-11.18,2.43-5,2-6,3.66-5.53,8.94.81,9.46,7.92,14.87,13.69,20.9a5.47,5.47,0,0,0,9.34-1.65C603.08,184.55,604.75,175.45,605.58,166.19ZM491.25,322.38l.63.7c.26-.37.48-1,.78-1.07,12-1.53,21.17-8.76,30.79-15,5.6-3.65,7.67-10.07,11.1-15.4.41-.65,1-1.67.32-2.54-.89-1.08-2-.22-3-.14-2.7.22-4.41,2.45-6.84,3.61-1.12-3.08,1.67-5.51.63-8.26-.38-1-.14-3.07-2-1.78-3.27,2.24-6.79,4.42-9.29,7.4-2.88,3.43-6.61,5.93-9.4,9.22-5.38,6.34-16.44,9.5-12.83,21.33C492.31,320.93,491.57,321.72,491.25,322.38ZM674.61,825.24c.67,6.43,2,12.94,5.39,18.92.57,1,1.15,2.13,2.28,1.87,1.8-.4.92-1.92.8-3-1-9.16.75-17.61,6.41-25.07,1.3-1.7,2.26-3.67,3.64-5.29,5.31-6.26,5.27-13.36,3.41-20.75-1.18-4.66-3-5.49-7.54-3.89-5.66,2-9,6-10.8,11.58C675.51,807.83,675.65,816.45,674.61,825.24Zm-15.88,63.54a15,15,0,0,0-7.8,1.82c-9.09,4.75-17.25,10.95-25.67,16.76a13.2,13.2,0,0,0-2.85,3,1.71,1.71,0,0,0,0,2.47,2.1,2.1,0,0,0,2.48.33c6.61-2.84,13.85-3.07,20.76-4.76,10.24-2.5,20.89-2.65,31.36-3.8,1.64-.18,3.63,0,4.21-1.93.66-2.17-1.53-2.18-2.74-2.93s-2.46-1.84-3.77-2.61C669.18,893.86,663.69,890.59,658.73,888.78Zm63-34.39c-.81-1.21-2.18-2.48-2.57-4-3.75-14.76-8.63-29.28-9.43-44.67-.09-1.74,1.2-4.69-1.71-4.89-2.37-.16-2.26,2.82-3,4.56a8.45,8.45,0,0,0-.15,1.36c-2,10-2.16,20.38-5.15,30.24a2.4,2.4,0,0,0,.43,2.56,113.47,113.47,0,0,0,19.21,16.33C720.56,856.68,721.8,856.63,721.76,854.39Zm-124-154.24c-3.77-4.25-3-10.69-6.45-15.44-1-1.4-2.4-2.73-4.23-2.08-1.63.57-1.74,2.41-1.73,3.91a18.3,18.3,0,0,1-1.44,7.15c-4.34,10.58-5.48,22.16-10.23,32.61-.42.92-1.19,2.22-.24,2.94,1.34,1,2.17-.46,2.94-1.32a17.86,17.86,0,0,0,2.48-3.29,23.78,23.78,0,0,1,10.61-10.11C594.57,711.86,596,706,597.74,700.15ZM536.4,74.21c.11,14.46,5,19.73,18.27,20.21a2.92,2.92,0,0,0,3-1.61c1.73-3.76-.74-10.51-4.66-12.09a6.5,6.5,0,0,1-4.51-5.25,24.17,24.17,0,0,0-2-5.54c-1.46-3.21-4.91-4.75-7.48-4.06-2.06.55-3.76,4-2.71,7.18A2.52,2.52,0,0,1,536.4,74.21ZM473.12,818c-2.65-.22-4.9.26-6.18,2.09-1.81,2.6-7.16,3.77-4.55,8.29,2.51,4.35,6.21,1,9.34.35,2.73-.59,5.27-3,8.2-1.49,5.72,2.86,12.15.23,17.9,2.58a1.85,1.85,0,0,0,2.35-.94,1.72,1.72,0,0,0-.69-2.38c-2-1.48-3.05-3.62-4.45-5.56-2.88-4-8.19-5.12-13-3.85C479,817.9,476,819.07,473.12,818Zm87.4-559c4.45.08,10.1-5.1,10.12-9a13.57,13.57,0,0,1,1.6-6.1c1.33-2.67,3.77-5.44,3.63-8.06-.21-4-4.17-5.75-7.76-6.6-3-.69-5.75-.08-7,3.45a23.13,23.13,0,0,0-1.32,12.16,14.77,14.77,0,0,1-1.39,9.75C556.71,257.93,557.77,259.16,560.52,259.05Zm53.76,393.76a7.49,7.49,0,0,0-.47-5c-.39-.92-1.1-2.17-2.41-1.41-3.54,2.06-7.72,4-9.09,7.94-3.21,9.33-1.47,18.95-.47,28.46.09.77.25,1.5,1.24,1.65a1.72,1.72,0,0,0,2.09-1.33c.29-1,.26-2.11.55-3.13,1.27-4.48.31-9.82,3.38-13.47A20.93,20.93,0,0,0,614.28,652.81Zm-304.85-125c0-1.78-1.94-3.14-4.12-4.44-4-2.36-8.82-1.65-12.94-3.73-1.71-.87-3.07,0-2.41,2.65a84.81,84.81,0,0,0,10.47,24c.77,1.25,1.76,2.17,3.4,1.51s1.73-1.92,1.21-3.41c-.3-.86-.36-1.81-.74-2.63-1.76-3.79-1.2-6.78,2.77-8.75C308.73,532.17,309.49,530.74,309.43,527.79ZM750.29,934c-.12,1.42-.17,3.11,1.53,3.31s2.5-1.34,3-2.88a37,37,0,0,1,14.84-19.11,38.75,38.75,0,0,1,13.66-6.08c1.55-.34,4-.38,3.58-2.56-.36-2-2.63-2.51-4.57-2.35-1.66.14-3.28.7-4.94,1A32,32,0,0,0,750.29,934ZM514.62,495.8a1.53,1.53,0,0,0-1.38,2.07c1.27,4.11-.7,7.47-2.43,10.88-1,1.89-1.15,3.31,1.1,4.54a19.27,19.27,0,0,1,3.75,3.33c2.85,2.77,5.63,5.63,8.52,8.37,1.64,1.55,3.4,1.21,4.88-.29s2.87-3.38,1.14-5.22c-5.9-6.25-8.66-14.34-13-21.52A4.05,4.05,0,0,0,514.62,495.8Zm73.56,370.05c2.58-7.75,1.92-15-2.25-21.77-1.84-3-3.66-6-5.57-9-2.62-4.07-7.48-6.32-9.81-4.64-2.53,1.83-2,5.37,1.61,10.15C578.18,848.56,586.4,855.05,588.18,865.85Zm45.89-72.76c3.85,0,7.21-1.08,10.57-2.11.77-.24,1.86-.71,1.44-1.94-.31-.94-1.24-.71-2-.67-7.54.43-14.43-2.12-21.39-4.46-4.91-1.66-9.63-3.89-14.89-4.47a3.66,3.66,0,0,0-4.26,2.4c-1,2.07.21,3.16,1.6,4.19a14.15,14.15,0,0,0,2.77,1.55C616.36,791.29,625.4,792,634.07,793.09Zm-17.4-560c-4.45-2.72-7.66-2.88-8.25-.24-1.41,6.41-6.07,10.46-10,15-2.82,3.23-2,5.71,1,8,3.25,2.51,4.71-.58,6.25-2.36,1.26-1.46,1.68-3.73,4.12-3.8,4.74-.13,6.08-4,8.06-7.19,1.37-2.2-.71-3.31-1.6-4.77-.52-.87-1.18-1.48-2.09-.38-.56.69-1.19,1.75-1.89.28a1.87,1.87,0,0,1,.57-2.47C613.94,234.58,615.44,234.57,616.67,233.12Zm-331.8,269c-1.73-2.45-1.25-4.86-.82-7.4.84-5,0-9.9-3.65-13.6-3-3-5.25-7.32-10.27-7.65-1.27-.08-3.41-.05-1.88,2.07,3.15,4.36,3.73,9.62,5.56,14.42C275.9,495.42,279.24,499.66,284.87,502.1Zm459.24,456c1.83,0,2.29.06,2.74,0,2.13-.37,5.3.4,5.58-2.61.25-2.64-2.76-2.83-4.71-3.45-6.54-2.09-13.31-1.72-20-1.16-2.7.22-7.53,0-7.47,3.31.07,4,4.9,3.91,8.08,4.1C734.05,958.59,739.79,959.67,744.11,958.08Zm49.58-55.34c2.63.36,2.66-.91,2.4-3.27-.67-6-5.55-10.13-6.77-15.86-.84-4-3.52-6.33-7.23-7.54-1.17-.38-2.47-1.87-3.73-.38s-.5,2.86.25,4.26q5.34,10.11,10.65,20.23C790.19,902,791.39,903.16,793.69,902.74Zm-149.4-271.8a29,29,0,0,0-12,1.71c-1.41.52-2.6,1.09-2.72,2.66a3.37,3.37,0,0,0,2.55,3.42,18,18,0,0,0,8.48,1.19c6.61-.81,13.05-3,19.83-2.64.8,0,2.33.8,2.34-1.15a1.64,1.64,0,0,0-1.66-1.78C655.3,633.8,650.25,629.32,644.29,630.94Zm73.38,241.35c-4.5,2.36-9.85,4.89-12.57,10.69-.77,1.62-2,4.06-.22,4.95,2.13,1.06,4.09,4.47,7.33,1.79,3.88-3.19,7.92-6.27,10.59-10.58C724.92,875.72,722.68,872.29,717.67,872.29ZM451.3,888.8a4.94,4.94,0,0,1-.38,5.35,9,9,0,0,0-1.54,4.22c-.08,1.31,1.38,3.41,2.43,2,2.09-2.81,5.08-6.62,4-9.65-2.13-6-2.94-11.73-1.3-17.86A3.37,3.37,0,0,0,452.6,869a5.28,5.28,0,0,0-5.65.57c-1.45,1-.78,2.55-.22,3.75a11.16,11.16,0,0,1-.24,10.11,8.13,8.13,0,0,0-.46,4c.15,1.59-.14,3.72,1.92,4.27S449.29,889.29,451.3,888.8ZM445.92,825c-2.14,0-13.78,7.62-14.14,9a2.69,2.69,0,0,0,0,1.35c1,3.8,1.88,7.67,3.21,11.37a15.8,15.8,0,0,0,3.37,4.83,2.63,2.63,0,0,0,3.35.59c1.3-.8,1-2.08.53-3.27a77.23,77.23,0,0,0-2.81-7.68c-1.09-2.28-.61-3.67,1.4-5,3-2,4.71-5.09,6.14-8.28C447.63,826.42,447.21,825.22,445.92,825ZM556.4,525.75c-2.88.28-5.49,1-4.94,4.28,1,6,5.88,9.28,10.09,12.93.26.22,1.12.26,1.21.1,2-3.52,4-7.07,5.91-10.65.11-.22-.28-.95-.61-1.13C564.19,529.25,560.85,526.07,556.4,525.75Zm16.47-14.62c-.55,1.41.18,2.37,1.24,3.09,1.56,1.06,2.07-.58,2.89-1.28,3.83-3.29,6.21-8.35,11.81-9.51,1-.2,1.28-1.28,1.15-2.26-.53-3.74-3.45-5.35-6.48-6.27-2.57-.78-5.44,0-6.49,2.82C575.37,502.1,574.23,506.65,572.87,511.13ZM549.63,261.66a10.24,10.24,0,0,0-1.58-5.41,5.29,5.29,0,0,0-5-2.78c-2.13.17-1.84,2.17-2.06,3.56-.46,2.76-2.86,2.71-4.7,3.35-.54.19,1.19-2.77-.9-1.37-1.16.77-1.36,3.22-.81,5,.36,1.13.32,3,2.54,2.32,1.89-.61,2.26,1.22,3,2.16a5,5,0,0,0,3.25,2.19C547.2,271.25,549.72,268.16,549.63,261.66ZM469.53,53.32c-.14-4-3.83-6-10.23-6.18-1.93-.07-2.38,3.09-4.62,1.8-.54,1.34,2.85,2.4.12,4.24-.7.47,6.76,6.12,9.16,5.82C467.44,58.55,469.4,56.51,469.53,53.32ZM324.65,540.76c3.57,0,6.78-.55,8.52-4.17s-.75-6-2.57-8.54c-1.25-1.74-2.12-5-4.86-3.73-2.42,1.15-.94,4-.55,6.15.47,2.59.72,5.25-1.39,7.15-.8.73-3,0-2.18,2.3C322.22,541.52,323.56,541,324.65,540.76ZM578,100.3a3,3,0,0,0-3.25,1.79,4.74,4.74,0,0,0,.3,5.17c2.72,3.68,6.71,5.61,10.63,7.64,1.34.69,1.86-.47,2.53-1.26s1.52-2,.33-2.72c-2-1.24-2.22-3.59-3.52-5.09C583.18,103.76,581.91,100.78,578,100.3ZM689.4,871.43c3.14,0,7.79-4.79,7.36-7.93-.36-2.59-1.92-4.56-4.79-4.65-3.79-.12-8,3.74-7.74,7.43C684.41,869.24,686,871.45,689.4,871.43ZM558.61,53.17c-2.74-.42-5.34.43-5.9,3-.74,3.37,3.09-1,3.42,1.53,0,.19.47.43.74.48a29.56,29.56,0,0,1,12.68,5.87c1,.78,2.71,1.59,4-.18s-.13-2.57-.89-3.56C569.14,55.72,564,54.25,558.61,53.17Zm-97.2,659.75c-3.85-.09-5.59.79-5.65,2.86-.08,3.58,4.33,8.32,7.75,8.38,2.9,0,4.68-1.14,4.87-4.21C468.59,716.34,465.29,713,461.41,712.92Zm127.94-567.6c-.23,1.4-.24,3.22,2,3.88a1.62,1.62,0,0,0,2.32-1.38c.84-4.2,1.43-8.33-.25-12.52a6.17,6.17,0,0,0-4.83-4.23c-1.16-.18-2.14.68-2.64,2-.85,2.34-1,4.35,1.1,6.19C588.68,140.72,590.1,142.36,589.35,145.32ZM508.5,64.38c-.07,3.61,2.14,5.75,5.49,5.82,2.27,0,7.87-3.7,7.79-5.22-.11-2.26-4.9-5.11-8.66-5.4C509,59.26,509.12,62.33,508.5,64.38Zm96.62,31c-1.11.14-2.6.47-1.32,2.39.68,1,.49,2,.6,3,.35,3,5.76,7.48,8.73,7.1,2.31-.29,2.92-1.86,2.56-4C615,99.76,609.8,95.42,605.12,95.35Zm27.09,60.8a17,17,0,0,0,0-2.73c-.4-1.69.1-4.5-2-4.55-2.48-.06-2.12,2.77-2.53,4.66a26.7,26.7,0,0,0,.73,14.9c.41,1.11-.76,3.24,1.47,3.2s2.57-1.85,2.53-3.68C632.28,163.72,630.76,159.5,632.21,156.15ZM375.8,53.33c5.08.55,5.5-2.87,6-5.88.38-2.3-.41-4.32-3.18-4.49-3.74-.24-8.84,3.42-8.4,6.53S373.42,53.51,375.8,53.33Zm-134.21,410c-2.2-.62-2.69,1.2-3.23,2.76-.71,2-.05,3.71,1.95,4.43a60.42,60.42,0,0,0,8.72,2.55c1.86.37,3.45-.47,2.69-2.86C250.54,466.46,245.89,463.33,241.59,463.33ZM487,668.43c.2-4-2.79-6.15-5.51-7.68-1.75-1-3.32,1.61-4.14,3.39-1.17,2.54-.13,4.76,1.74,6.49,1.51,1.39,3,3.12,5.54,2.23C486.84,672.09,486.94,670.29,487,668.43ZM416.93,55.08a5.23,5.23,0,0,0-4.31-4.2c-3-.56-7.08,2.3-6.8,4.75s1.42,5.14,4.29,5.85C412.31,62,416.75,57.91,416.93,55.08Zm-7.08,545c2.38.07,4-1.34,4.12-3.19.17-2.78-3.15-8.12-5.16-8.28s-5.37,3.41-5,5.93C404.41,598,407.55,598.93,409.85,600.1Zm-43.68-32.53c-.46,3.54,1,6.09,4.81,6.06,3.13,0,4.21-2.68,4.31-5.44s-1.42-5.07-4.23-5C368.79,563.25,365.39,563.31,366.17,567.57Zm69.15,340.89c3.85,0,7.36-3.22,7.15-6.27-.18-2.53-2-3.22-4.2-3.23a7.12,7.12,0,0,0-6.61,6.39C431.54,908.29,434,908,435.32,908.46ZM427,418.52c-.35-2.31-.64-5.14-3.43-4.43-2.34.6-6.3-.62-6.77,3.46-.34,2.91,3.05,5.33,6.54,5.42S426.43,420.4,427,418.52Zm196.06,47.73h-.16c0,1.81-.12,3.62,0,5.41.1,1.19.46,2.55,2.27,1.78,2.82-1.19,5.35-6.84,4.07-9.72-.83-1.87-1.91-4.32-4.3-4.1-3,.27-1.45,3.11-1.89,4.82A7.29,7.29,0,0,0,623.09,466.25ZM510,40.87c4,0,4.42-.28,4.75-3,.43-3.54-2.66-2.07-4-2.45-1.86-.53-3.83-.87-5.68-1.56a2.46,2.46,0,0,0-3.44,1.29,2.8,2.8,0,0,0,1,3.62C504.81,40.33,507.36,40.73,510,40.87Zm-58,501.3c-.06-3.13-1.52-5.61-4.51-5.94-3.48-.38-3.91,2.54-4,5.3-.13,3,1.3,4.71,4.19,4.72C450.07,546.25,452,545,452,542.17Zm9.23-20.1c-.22,2.43,1,3.92,3.33,3.88,3.15-.05,4.59-2.23,4.73-5.12.11-2.36-1.18-4.66-3.49-4.62C462.44,516.26,461.43,519.07,461.18,522.07Zm156.47-34.45c-.19-2.19-.49-5-3.13-4.7-3.21.34-4.59,3.57-5,6.38-.38,2.41,2.24,3.3,4.1,3.36C616.77,492.76,617.45,490.26,617.65,487.62Zm12.82-293.11c-.56-1.66,0-4.93-2.82-4.64-3.58.35-3.79,4.22-4.62,7a2.79,2.79,0,0,0,2.89,3.69C629.22,200.34,630.29,197.76,630.47,194.51Zm3.39,291.05c-1.8-.08-2.2,1.18-2.28,2.64-.17,3.06,2.45,5.48,5.84,5.5,2.37,0,3.19-1.36,3.17-3.48C640.53,485.58,636.27,487,633.86,485.56ZM780.8,951.44c-1.85-.34-3.67.55-5.53,1.16-.8.25-1.93.49-1.94,1.59s1,1.74,2,2.1c2.57.88,5.1-.19,7.65-.15,1.65,0,3.76.25,3.9-2s-2.08-2.19-3.65-2.53A16.33,16.33,0,0,0,780.8,951.44ZM218,455.17c1,2.5.57,6.16,4.52,5.85,1.83-.14,3.83-.94,3.72-3.69-.15-3.7-2.81-4.45-5.57-4.89C218.7,452.12,218,453.52,218,455.17ZM685.49,634.38c.31,3.19.86,5,3.56,4.84,1.92-.14,4.06-.86,3.73-3s-1-5-3.81-4.84C687.16,631.44,685.27,632.86,685.49,634.38ZM803.65,927.85c.17,2.32-.35,5.35,3,5.67,2,.19,1.77-2.08,1.68-3.55-.16-2.29.48-5.38-2.64-5.88C803.12,923.69,803.92,926.31,803.65,927.85ZM345.86,117.33c-.28,3.56-.6,7.11-.83,10.67,0,.69-1.2,1.92.52,2,1.09.07,3,.42,3-1.21C348.49,124.92,348.54,120.92,345.86,117.33Zm370.76,527c-1.12-2-2.44-3.85-5-4.1-2-.18-2.33,1.48-2.27,2.78a3.64,3.64,0,0,0,3.77,3.79A3.13,3.13,0,0,0,716.62,644.31Zm-365.4-541a4.24,4.24,0,0,0,3.38-4c.1-1.35-1.15-1.65-2.61-1.57-2.71.16-3,2.09-3.39,4C348.33,103.2,349.34,103.51,351.22,103.35Z" transform="translate(-153.38 -22.36)"/><path d="M698.51,951.06c.36,11.41.21,10.94-9.24,14-15,4.88-28.54,2.58-41.15-6.55A36.87,36.87,0,0,1,637,945.34c-1.6-3.1,1.27-11.77,4.55-14.25,9.37-7.07,19.61-8.22,30.59-4.62a79.76,79.76,0,0,1,18.68,9.26C696.85,939.65,699.55,945.37,698.51,951.06Zm-44.82-1.3c1.46-1.54,5,.12,6.09-2.84.54-1.48-5-6.23-6.81-6-2.27.35-4.21,1.38-3.91,4.08C649.33,947.46,649.7,950.11,653.69,949.76Z" transform="translate(-153.38 -22.36)"/><path d="M737.75,800c3.58,3.2,7.47,3.35,11.15,4,11.35,2,21.13,6.7,28.59,15.68,7.22,8.69,10.44,18.43,7.88,29.77-.53,2.34-1.89,2.76-3.85,3.68C772,857.54,764,854.71,756,849.27c-9.2-6.26-18.19-12.54-20.9-24.35-1.36-5.94.27-11.54,1.62-17.18A37.88,37.88,0,0,0,737.75,800Zm13.13,19.74c2.94.91,3.71-1.23,3.78-3.49.07-2.69-1.33-4.92-4.2-5-2.37-.07-5.12.25-5,3.82S747.4,819.89,750.88,819.71Z" transform="translate(-153.38 -22.36)"/><path d="M400.29,533.4c.72,5.1-3.59,4.91-6.31,5.42s-4.94-1.64-5.68-4.32c-.59-2.14,5.09-8.29,7.36-7.84C399.1,527.36,400.35,530.13,400.29,533.4Z" transform="translate(-153.38 -22.36)"/><path d="M380.05,504.9c-5.06.31-3.73-3.67-3.78-6.1-.06-3.37,1.31-6.28,5.42-6.47,1.66-.08,5.56,5.63,4.89,7.82C385.67,503.17,383.72,505.45,380.05,504.9Z" transform="translate(-153.38 -22.36)"/><path d="M409.3,662.22c.51-1.57.18-4.25,3.15-4.36,3.17-.13,7.07,4.1,7,7.31-.08,3.9-3.65,3.59-5.94,4.51C411.89,670.33,409.23,665.68,409.3,662.22Z" transform="translate(-153.38 -22.36)"/><path d="M475.44,602.73a11.58,11.58,0,0,1-6.16,5.29c-2.14.76-4.19-.21-5.24-2.48a23.43,23.43,0,0,1-1.76-4.19c-.63-2.62.66-4.81,2.42-6.5s3.32.2,4.82,1C472.2,597.4,474.73,599.08,475.44,602.73Z" transform="translate(-153.38 -22.36)"/><path d="M467.43,476.09c1.69-2.3.19-7,4.8-6.6,3.08.28,5.84,2.26,5.94,5.85.09,3-4.15,7.74-6.17,7.3C468.54,481.87,468.16,478.88,467.43,476.09Z" transform="translate(-153.38 -22.36)"/></svg>