<svg id="Layer_1" data-name="Layer 1" xmlns="http://www.w3.org/2000/svg" xmlns:xlink="http://www.w3.org/1999/xlink" viewBox="0 0 988.61 997.85"><defs><radialGradient id="radial-gradient" cx="467.4" cy="589.6" r="350.43" gradientUnits="userSpaceOnUse"><stop offset="0.31" stop-color="#2463d3"/><stop offset="0.35" stop-color="#235fcc"/><stop offset="0.42" stop-color="#1f52ba"/><stop offset="0.5" stop-color="#183e9c"/><stop offset="0.59" stop-color="#0f2272"/><stop offset="0.65" stop-color="#090f55"/><stop offset="0.89" stop-color="#020851"/></radialGradient><linearGradient id="linear-gradient" x1="182.87" y1="590.43" x2="751.94" y2="590.43" gradientUnits="userSpaceOnUse"><stop offset="0" stop-color="#f0f0f0"/><stop offset="1"/></linearGradient><linearGradient id="linear-gradient-2" x1="538.56" y1="0.02" x2="538.56" y2="284.84" gradientUnits="userSpaceOnUse"><stop offset="0.31" stop-color="#aa4b00"/><stop offset="0.33" stop-color="#a34903"/><stop offset="0.34" stop-color="#91420d"/><stop offset="0.36" stop-color="#73361d"/><stop offset="0.39" stop-color="#492733"/><stop offset="0.41" stop-color="#131350"/><stop offset="0.41" stop-color="#090f55"/><stop offset="1" stop-color="#020851"/></linearGradient></defs><title>gf-gradient</title><path d="M663.57,537.54c-5.83-5.78-11.63-11.57-17.5-17.31-.88-.87-2-2.56-3.28-1.49-1.66,1.39,0,2.77,1,3.86a263.4,263.4,0,0,0,20.76,22.28c1.5,1.38,3.14,3.84,5.26,1.94s-2.1-2.63-1.65-4.69c2-1.91,3,3.79,4.74.9,1.2-2-.8-4-1.83-5.7-3.19-5.42-6.53-10.75-9.86-16.19,1.76-.89,3.91,2.52,5.48-.51.87-1.67-1.07-2.4-1.1-3-1-14.93-12.85-24.26-18.5-36.73-2.84-6.27-5.53-12.64-11.91-16.36a7.15,7.15,0,0,1-1.86-2.16c-.16-.23,0-.69,0-1.61a239.39,239.39,0,0,1,24.4,16.8A18.19,18.19,0,0,0,661,480a4.07,4.07,0,0,0,4.83-.63c1.81-1.8.14-3.2-1-4.38-4.3-4.62-8.55-9.27-12.46-14.26-8.47-10.81-17.32-21.32-24.57-33-.38-.63-1-1.14-.25-2.37,4.74,4.53,10.67,7.18,15.88,10.91,1.14.81,3.5,1.78,1.44,4s-1.67,4.53.52,5.86c2.39,1.44,5.92,2.39,8,.53,1.78-1.6,2.65-4.52,1.12-7.74-2.83-6-6.64-11.22-10.53-16.76,2.92-.67,4.55,1.35,6.57,2.16,11.07,4.43,22,9.16,32.32,15.21,14.21,8.36,26,19.16,34.4,33.57,3,5.07,7.48,9.16,10.15,14.55a201.5,201.5,0,0,1,20.72,72.93c.94,10.87,2.5,21.7,3.2,32.59,1,14.91-3.68,29.16-5.94,43.7-1.64,10.56-3.1,21.16-4.73,31.73-2.08,13.39-8.52,25.35-12.7,38-3.39,10.31-5.59,21-11.1,30.59a128.47,128.47,0,0,1-38.28,41.3c-10.25,7.18-19,15.75-24.7,27.35-4.61,9.44-10.26,18.35-15.41,27.52a16.1,16.1,0,0,1-5.27,5.21c-10.2,7-21.26,12.11-33.53,14.17-11.67,2-13.34,3.76-13.26,15.64.12,17.64.82,35.16,6.09,52.24a111.7,111.7,0,0,0,14.77,31.23c3,4.26,8.28,6.59,13.23,8.81,8.17,3.65,16.31,7.3,24.88,10,4.55,1.43,7.74,6.59,13.56,4.42-.22,2.8-2.08,2.44-3.4,2.71C639.37,981,623.62,981.26,609,972c-1.69-1.07-4.1-2.73-5.62-.42-1.68,2.55.81,4,2.67,5.46,4.35,3.29,8.66,6.65,13.6,10.46-14.41.91-27.63.29-38.88-9a10.58,10.58,0,0,1-2.8-2.74c-2.44-4.55-5-5.13-9.51-2.36-8.38,5.19-16.38,11.07-26,14.06a26.19,26.19,0,0,0-12.84,8.23c1.78-5.84,5.65-10.21,9.51-14.31,10.27-10.92,19.1-22.93,27.73-35.11,6.09-8.59,6.77-18.48,6.54-28.58-.11-4.7-1.7-9.49.74-14.08a1.82,1.82,0,0,0,0-1.64c-7.08-8.71-7.28-20.1-11.71-29.82-1.1-2.43-1.29-6.91-4.89-5.89-5,1.41-.65,5.35-.81,8.8-5.53-4-11-1-16.33-.46-3.64.34-7.5,1.27-10.83.2-11-3.53-19.83,1.91-29.32,5.69a15.2,15.2,0,0,1-2-9.62c.67-8.38,1.48-16.76,2.18-25.14.1-1.25.81-3.12-.76-3.54-2.1-.55-2.24,1.46-2.52,3-2.67,14.08-5.83,27.93-3.69,42.65,1.1,7.52-.39,15.55-.19,23.41.52,20.13,10.72,34,26.71,44.76a32,32,0,0,1,9.82,10.15,25.09,25.09,0,0,0,4.85,5.63c.92.85,3.22,1.19,1.64,3.39-1.32,1.84-2.51.8-3.92.12-10.52-5.07-21-10.16-31.62-15-3.6-1.66-8.19-4.71-11-3.64-3.66,1.39-.16,6.47-.26,9.93-.24,7.92-.34,16,2.87,23.69.58,1.39,1,3.61-.94,4.58-1.72.85-3-.29-3.53-1.91-2.38-8-8.77-13.79-12.1-21.26-2.5-5.6-5.22-11.06-9.3-15.69-.95-1.07-1.69-2.92-3.52-2.59-2.25.41-1.44,2.33-1.34,3.73s-.6,2-1.47,2.87a145.06,145.06,0,0,1-26.54,21c-2.93,1.76-6,3.39-7.64,6.69a2.11,2.11,0,0,1-2.74,1.18l-.15-.07c-1.33-.66-.79-2.34-.24-3,4.58-5.83,6.74-13.34,12.3-18.41A111.31,111.31,0,0,0,468,914.83c1-3.6,4.43-3.82,6.6-6.47-9.22-2.48-3.53-9-3.82-13.66-.48-7.69,8.27-5,12.13-9.3-5.1-2.07-8.81.29-12.86,2.66-2.79-15.25-7.66-29.7-12-44.3a23.91,23.91,0,0,0-1.31-3.79c-.46-1-.68-2.39-2.13-2.36a2.17,2.17,0,0,0-2.15,2.19v.07c-.07,2.07-1.12,3-3,3.54a5,5,0,0,0-3.94,4.43,2.89,2.89,0,0,0,2.1,3.09c2.41.78,4.38,0,6-3.46,4.13,12.18,7.62,23.21,9.8,34.63.49,2.57.18,3.29-3,3.45-8.07.42-15.26,4.69-23.15,6.36-12.7,2.68-25.12,7.09-38.43,4.7-1.84-.33-3.32.66-4.68,1.79-4.11,3.43-8.39,6.69-12.32,10.32C365.05,924.16,345.06,934,324,942c-16.87,6.41-34.17,10.71-52.36,10.82-2,0-4.05,1.22-6.12,1.41-4.38.39-8.51,1.81-13.25-.39-3-1.39-7.22-1.5-11.2-.6-7.77,1.75-25.49-8.1-27.78-15.41-1.61-5.15-.85-10.79-.08-16,1.8-12.09,4.82-24,6.74-36.06,1.52-9.59,1.39-19.4,3.32-29v-.57c7.87-19.57-1.42-36.91-8.3-53.89-8.78-21.68-8.81-43.54-6.24-66,.94-8.17,1.78-16.34,3.63-24.38,1.49-6.49-2.16-9.49-8.6-7.15-3.94,1.42-7.65,3.48-11.55,5-5.51,2.15-7.59.92-8.09-4.75-1.7-19.1-.2-38.2.25-57.29.37-16,1.55-32,2.09-48,.57-17,1.14-34.08,4-50.85,2.28-13.38,8.12-25.67,14.06-38,9-18.64,23.7-32.68,36-48.67,18.08-23.43,40.86-41.35,65.56-56.83,23.15-14.51,47-28,74.36-33.45,18.88-3.76,37.21-11.07,57-8.81a211.12,211.12,0,0,0,31,1.08c1.7-.06,3.86.17,5-.75,8-6.36,17.41-11.24,22.8-20.59,1.76-3,3.25-5.91,2.12-9.59-.37-1.22.13-2.87-1.54-3.31S494.5,331,493.7,332a35.27,35.27,0,0,1-13.19,10c1.69-4.93,3.82-9.72,7.51-13.31,10.65-10.36,13-23.36,12.65-37.33,0-1.71-.56-3.77.18-5.08,9.42-16.61,6.78-33.94,3.39-51.35-1.69-8.69-1.31-17.49-1.42-26.27,0-3,2.51-4.68,3.93-6.8,3.72-5.56,8-10.72,12.13-16,2-2.5,4.62-3.23,7-1.15,9.08,7.8,19.56,14.2,25.72,25,2.1,3.72,3.17,7.73,4.41,11.76,3.73,12.21,8.37,24,16.35,34.25,4,5.15,4.31,12,7.37,17.82,3.89,7.35,6.11,15.6,8.76,23.56,3,9,8.07,16.87,13,24.83,2.21,3.58,6,5.33,9.59,7.05a14.41,14.41,0,0,1,7.93,8.34,2.92,2.92,0,0,1-.61.31c-2,.43-5.13-1.19-5.66.93-.65,2.62,2.63,3,4.65,3.92,1.66.77,4,1.72,2.68,4.17s-3.06.43-4.45-.16a15.53,15.53,0,0,1-3.8-2.55c-1.49-1.25-3-2-4.53-.31-1.87,2.08-.15,3.55,1.31,4.77,7.22,6,15.22,10.86,23.19,15.76,1,.6,2.23.94,2.88,1.77,1,1.24,3.51,2.19,2.39,4-1.23,2-3.18.11-4.58-.44-7.8-3.11-15.66-6.14-23.23-9.76-7.06-3.37-11.36-10.13-17.07-15.12-9.84-8.6-7.35-22.23-15.06-31.63-1.86,1.22-.93,3.31-.74,5.23,1,9.23,4.11,17.88,7.33,26.45,5.23,14,10.88,27.74,16.26,41.63a26.76,26.76,0,0,0,5.82,9.13c1,1,2.34,1.54,3.59.47s.62-2.11-.12-3.05c-9.43-12.08-11.74-27.18-17.75-41.12,7.24,4.56,9.76,12.3,14.73,18.1,1,1.12,1.48,3.62,3.86,2.42s-.27-3,.3-5.45c13.35,16.72,29.73,29.17,45.41,44.68-8.11-1-13.6-4.36-19.36-6.79-3.34-1.42-6.48-3.34-9.89-4.52-2.26-.78-2.73-2.46-3.43-4.19-1.64-4.07-3.31-8.14-4.79-12.27-.82-2.28-1.92-4.06-4.53-4.82-1,3.63,1,6.15,2.11,8.93s3.6,5,.75,8.31c-1.47,1.7.9,2.52,2.11,3.21,11.79,6.63,23.36,13.72,36.52,17.48,5.33,1.53,7.1,7,11.11,10.18l-23.8-10.41c-1.16-.51-2.33-1.95-3.58-.84s-.58,3,0,4.3c1.85,3.87,3.93,7.64,5.6,11.79-10.07-8.12-23.38-12.13-30.11-24.42a26.32,26.32,0,0,0-3.29-4c-.77-.91-1.76-1.9-2.91-1.25-1.33.75-.56,2,0,3,1.15,2,2.2,4,3.47,5.94,13.19,19.65,25.85,39.68,41.36,57.8-5.37-4.39-11.92-6.63-17.33-10.63-3.71-2.75-10.33-4.53-5.68-11.61.2-.3-.45-1.34-.91-1.86q-8.18-9.26-16.43-18.42c-.81-.9-1.7-2.6-3.21-1.43-1.86,1.43-.31,2.85.71,3.81,5.59,5.18,8.94,11.93,12.73,18.31,2.18,3.67,6.07,7,3,12.47-.88,1.59.92,5.19,2.27,7.39,3.42,5.52,5.17,12.56,12.45,14.89a.73.73,0,0,1,.39.4C646,492.8,655.83,500,660.6,510.62c.21.46.29,1,.83,2.87-11.91-14.52-22.15-28.66-34.72-41-.5.87-.91,1.26-.84,1.5,3.25,11,9.58,19.77,17.09,28.43C651.85,512.55,658.29,524.66,663.57,537.54ZM205.94,597.88c-.21.71-.37,1.43-.63,2.12-.77,2.14-.87,4.31,1.44,5.37,2.56,1.17,4.67-.65,6.74-1.87,1.65-1,1.4-2.55.76-4a4.63,4.63,0,0,0-5.53-2.83,12.88,12.88,0,0,0-3,1.42,59.41,59.41,0,0,0,.18-6.26c-.18-2.43-1.22-4.72-4-4.69-2.6,0-2.84,2.68-3.65,4.53-.88,2,.54,4,0,6.12-.75,3.27,1.43,3.43,3.79,2.36A42.13,42.13,0,0,0,205.94,597.88Zm22.92,55.43c-.29,3.18-.43,6,3.92,6.83,3.5.71,4.69,2.71.8,5.09a30.24,30.24,0,0,0-3.22,2.4c-2.23,1.84-1.42,3.89.11,5.47,1.74,1.81,3,.15,4.2-1.15,2.78-3.15,5.74-6.16,8.22-9.52,1.22-1.66,4.25-3.75,2.27-5.76s-3.67,1.45-5.6,2.24a4.87,4.87,0,0,1-1,.17c.18-2.83,1.23-6.15-1.64-7.86-3.12-1.85-5.8.31-8.22,2.29.58-3.17-4.21-4.61-2.64-8.21.51.32,1,.58,1.41.87,3.63,2.45,6.62.39,8.27-2.27,1.19-1.92,2.73-5.44.33-7.45-2.7-2.24-5.85-2.4-8.9.67-5,5-10.4,9.58-15.62,14.36-1.37,1.25-3.36,2.38-2.09,4.7,1.63,3,3.58.46,5.75-.11-4.06,3.26-1.65,7.92-3.36,11.5a1.86,1.86,0,0,0,1.14,2.35,2.18,2.18,0,0,0,2.59-.65c1.51-1.7,3-3.46,4.36-5.26,2.81-3.71,4.88-8,8.92-10.73ZM510.55,503.88c-3.19,1.66-3.76,3.88-4.63,5.88-5.46,12.65-9.29,25.86-13.49,39-2.31,7.24-2.75,15.73-8,21.25-5,5.27-10.81,9.94-15.3,16,3.27-18.26,14.94-33,18.39-50.82-4.69,3.68-6.09,9.19-8.69,14-3.69,6.76-8.81,12.83-8.44,21.47.12,2.61-1.16,7.76-5.45,7.29-4.91-.54-7.17,2.38-6.65,5.45.55,3.23,4.8,5.43,5.19,9.47,0,.53,1,1.31,1.66,1.36,1.75.14,2.6-1.41,3.58-2.51,4.38-4.93,8.69-9.92,13-14.88-2.94,7.37-6.35,14.52-9.81,21.64-1.12,2.29-2.55,4.81,0,6.71,3,2.25,4.36-1.08,6-2.63,8.15-7.86,16.82-15.17,24.57-24.94,1.68,19.53-9.39,37.44-1.32,55.65,16.81-11.91,19.74-32.34,31-48.53a19.81,19.81,0,0,1,.32,2.54c-.63,9-1.32,18-.64,27,.17,2.23.22,5.09,2.85,5.69,2.21.51,2.93-2.09,3.86-3.66,3.89-6.57,7.62-13.24,11.53-19.81,4.51-7.59,8.43-15.57,14.94-23.7,1,12.11,1.79,22.75,2.67,33.39.15,1.74-.65,4.39,2.34,4.27,2.58-.11,1.81-2.55,1.82-4.09a177.41,177.41,0,0,0-2.22-26.44c-.53-3.64.43-9.36-3.14-10.12s-6.24,4.16-8.48,7.5c-7.17,10.67-13,22.21-21.68,33.86,2-16.12-2.34-31.3,5.14-45.66C532.33,579,522,591.3,515.05,606.24c1.88-10.54-.47-20.89,1.22-31.08.27-1.58,1.35-4-.84-4.4s-1.83,2.25-2.15,3.82c-2.8,13.71-3.78,27.66-5.48,41.51-.36,2.92-1.45,5-4.95,6.29.23-3.83.42-7.19.65-10.55.55-8,3.47-15.74,2.84-23.88-.72-9.34-.41-18.35,6.95-25.49.63-.61,1.4-1.57.48-2.47-1.09-1.07-2.2-.42-2.94.51-2.47,3.17-5.81,5.49-8.13,8.87-5.06,7.41-17.17,19.23-21.19,21.24C492.76,562.68,501.86,533.88,510.55,503.88ZM544,216.8a12,12,0,0,0-2-9.85A72,72,0,0,0,529.29,193c-3.19-2.76-7.2-2.73-10.75.79-7.54,7.46-8.83,16.49-5.85,25.91a156.35,156.35,0,0,0,16.25,35.14c2.09,3.38,3.12,2.85,5-.16,2.28-3.6,1-7.73,2.61-11.5,3.87-8.66,8.66-17.13,7.43-26.47ZM434.42,487.4c-5.81,10.45-16.22,15.28-25.78,21.06-5.73,3.47-11.59,6.7-16.67,11.12-1.2,1-2.47,2.22-1.34,3.87,1.25,1.83,3,1.33,4.54.27.94-.64,1.71-1.53,2.64-2.2,7.66-5.5,15.46-10.78,24.21-14.8.27,2.21-3.22,3.21-1.29,4.81,2.18,1.81,3.22-1.09,4.38-2.24a143.76,143.76,0,0,0,18.55-22.55c3.56-5.35,9-8.89,14-12.9,6.29-5,9-13.92,12.76-21.42a2.2,2.2,0,0,0-.22-2.08c-1.15-.81-2.11.07-2.88.91a45.1,45.1,0,0,0-7.71,12.63c-3,6.82-10,9.85-15.35,12.42-9,4.28-17.93,8.23-25.91,14.22-2.69,2-5.39,4-9.65,3.1,1.52-1.78,2.7-3.26,4-4.65,12.88-14.17,25.66-28.44,39.7-41.5,1.16-1.09,3.38-2.61,2.07-4.16-1.56-1.84-3,.51-4.07,1.57-16.75,16-34.08,31.34-48,50-.6.8-1.1,1.57-2.23,1.44-3.49-.39-4.81,2.75-7,4.41a3.39,3.39,0,0,0-1,4.69,2.94,2.94,0,0,0,.31.41c1.36,1.73,3.12,1.18,4.61.16,6.28-4.29,13.48-6.44,20.53-9C423.74,494.88,428.8,490.72,434.42,487.4Zm-9,84.15c1.62-3.78,3.29-7.54,4.86-11.34,8.87-21.52,21.08-41.51,29.17-63.39a28.88,28.88,0,0,1,5.18-8.83c5-5.83,8.66-12.56,12.46-19.18.78-1.35,2.65-3.29.65-4.43-1.79-1-3,1.26-3.71,2.74-6.12,13-16.46,23.31-21.58,37.39-5.68,15.61-14.93,30-21.73,45.35-.64,1.45-1.23,3.85-3.43,3-4.64-1.85-7.15-.06-7.81,4.35-.86,5.87,4.47,1.42,6.16,3.11-1.6,3.94-3.12,7.63-4.58,11.35-1.13,2.89-1.92,6.07-6.13,3-1.26-.92-3.55-.66-3.85,1-.69,4,.52,7.88,1.71,11.61.46,1.47,2.55,1.48,4.09.92a2.91,2.91,0,0,0,1.18-1.18c1.91-2.81.87-7.08,2.46-9s6.52.07,9-3.07a4,4,0,0,1,.43-.39l20.37-17.66c1.07-.93,2.76-1.56,1.89-4.41C442.05,557.19,435,565.62,425.42,571.55Zm226.66,21.09c-5.09-11.15-10.9-21.86-16.83-32.54-4.54-8.17-10.72-15.31-14.18-24.17-4.87-12.45-8.11-25.49-13.86-37.6-1.46-3.06-2.24-6.66-6.22-8.86a12.35,12.35,0,0,0,0,2.85c3.83,11.81,7.35,23.74,11.71,35.35,2.19,5.82,3.49,12.24,8.1,17s8,10.69,10.88,16.76c6,12.58,12,25.16,18.12,37.65.88,1.79,2,4.46,5.18,2.71,2.5-1.4,4.24-2.94,3.31-6.3-1.28-4.58-2.17-9.27-3.4-14.64,2.58,1.65,4.68,2,6.15-.56.86-1.5-.06-2.64-1-3.57-2.49-2.52-4.13.17-5.6,1.35-3.11-5.37-3.2-11.45-6.5-16.52-.38,10.58,2.75,20.67,4.17,31.09Zm-140-195.84c-4.12,1.75-4.33,5.32-5.57,8.13-5.68,12.88-8.24,27-15.2,39.35-9.09,16.16-11.7,35.22-23,50.52C464.45,500,462.89,506.94,460,513c-4.48,9.42-7.11,19.77-14.86,27.54-3.2,3.21-5,7.66-6.46,12-.38,1.18-.86,2.88.79,3.5s2.14-1,2.67-2.2c1.49-3.5,2.17-7.63,5.36-10,3.92-2.87,6-6.84,8.14-10.9,5.8-10.82,8.51-22.88,13.8-33.89.57-1.18,1.52-3.37,1.81-3.29,5.69,1.54,5-3.69,6.29-6.2,2.2-4.43,3.66-9.23,5.32-13.91C490,455.67,498.84,436.45,507,417a68.82,68.82,0,0,0,5.06-20.15Zm-63.16,183c10.34-21.62,17.16-44.45,25.58-66.76-5.21,7.89-14.8,13.28-13.47,24.68a8.19,8.19,0,0,1-.85,3.86c-4.87,11.63-9.82,23.22-14.72,34.84-.82,2-1.45,3.06-4.13,2-3.77-1.52-6.37,1-6,4.43a12.63,12.63,0,0,0,5.5,9.06c2.36,1.59,4.15,1.29,5.88-1,7.17-9.43,14.45-18.78,21.58-28.25.86-1.14,2.34-2.59.64-5-7.41,7-13.51,14.72-20,22.16Zm22.71-181.92c-11.49,7.51-20.38,16.32-31.45,22.12a16.83,16.83,0,0,0-4.36,3.66,4.12,4.12,0,0,0-.34,5.3c1.54,1.8,2.87-.47,4.23-1.24,9.15-5.21,16.26-13.22,25.43-18.42a101,101,0,0,0,22.34-17.62c1.15-1.18,3.85-2.21,2.19-4.54-1.44-2-2.81,1.15-4.56.54,3.87-5.59,7.9-11.07,7.71-18.48-7.09,9.26-14,18.38-24.19,24.54C465.59,395.61,467.36,397.55,471.63,397.88ZM621.42,609.77c-3.46-4.91-4.7-9.73-6.86-14.1q-3.4-6.92-6.93-13.77c-4.3-8.34-5.54-9.71-8.78-10,2.07,4.24,4.27,8.46,6.19,12.81,1.51,3.41,4.4,7.6-3.07,7.72-1.07,0-2.18,1.45-3.17,2.34s-2,2-1.22,3.48,2.31,1.56,4,1.44c3.39-.24,4.64-3.35,7-5.43,2.37,4.51,4.94,8.24.4,12.63-1.72,1.67-1.75,6.53,1.09,5.43,7.15-2.75,6.68,3,8.69,6.08,1.2,1.85,1.84,5,4.6,4.1,2.57-.79,3-3.58,2.86-6.29-.93-14.32-1.62-28.66-2.8-43-.26-3.1.11-6.63-2.43-9.45C619.86,578.78,622.3,593.68,621.42,609.77ZM296.77,900.82c0,3.35-1.62,4.69-2.67,6.07-3.7,4.85-7.7,9.48-11.75,14-1,1.11-3,1.87-1.75,3.54,1.53,2.07,3.2.29,4.34-.78,5.69-5.38,11.67-10.54,16.75-16.46,5.41-6.28,7.13-7.13,14.12-2.62,2.58,1.65,3.21.88,3.69-1.69,1.12-6-3.16-10.15-8.95-7-7.46,4.06-13.54,2.21-20-.89-1.67-.8-2.86-.89-4,.43a246.28,246.28,0,0,1-24.45,23.46c-.8.69-1.31,1.52-.77,2.48a1.88,1.88,0,0,0,2.51.83,2.21,2.21,0,0,0,.49-.36c2.39-1.86,5.1-3.23,7.14-5.67,4.6-5.49,9.09-11.13,15-16C288.86,908.11,292.69,903.76,296.77,900.82Zm262-473.42c-1.77,3.19-.84,5.78-.31,8.22,2.57,11.74,5.14,23.47,7.59,35.24,4.18,20.14,8.79,40.14,9.71,60.79.14,3.19,1.28,6.35,2.07,9.49.32,1.29.9,2.87,2.59,2.31,1.3-.43.72-2,.62-3-.7-7.79-.71-15.74-2.36-23.32-2.38-11-1.34-22.34-4.68-33.27-4.73-15.47-9.14-31.09-11.42-47.21A17.82,17.82,0,0,0,558.72,427.4Zm104.7,136.88c-9-10.52-17.77-21.1-28.62-30.41-1.37,3.56.9,4.79,2.07,6.3,2.34,3,5.09,5.72,7.49,8.7,9,11.16,17.91,22.41,27,33.52,1,1.29,2.18,4,4.45,2.39,2-1.41.41-3.63-.27-5.26C669.46,565,661.24,551.63,652,538.9c-.6-.82-1.13-2.13-3.1-1.36C652.21,547.26,659.15,555,663.42,564.28ZM529.55,399.72c-2,2.36-1.47,4.46-1.5,6.43-.18,13,.06,26-.67,38.88s-2.58,25.85-3.66,38.85c-.53,6.28-.52,12.61-.53,18.91,0,1.33-.07,3.61,1.89,3.7s1.8-2,2-3.48a882.77,882.77,0,0,0,4.48-90.52A34.91,34.91,0,0,0,529.55,399.72Zm38,156.79c-1.53-17-.44-33.12-2.91-49.17-2-12.63-6.13-24.83-6.89-37.72-.55-9.35-2-18.65-3-28-.17-1.53-.22-3.48-2.36-3.12-1.85.3-1.15,2.18-1,3.37,1.54,13.88,2.21,28,5,41.59,3.45,16.9,7.38,33.58,6.51,51-.27,5.5.74,11.06,1.19,16.6.1,1.91.16,3.82,3.43,5.45ZM488.88,425.37c-.43,1-.91,2.06-1.31,3.13-3.34,9.12-6.73,18.24-9.95,27.41-.5,1.44-1.68,3.7.49,4.55s2.76-1.56,3.29-3c2.67-7.35,5.16-14.75,7.76-22.12,1.52-4.29,4.15-8.37,3.64-13.09-.44-4.07.9-7.33,2.86-10.67,5-8.55,9.86-17.18,14.69-25.83.86-1.52,3.14-3.53,1-4.91-1.81-1.14-2.57,1.67-3.45,3-4.48,6.65-9,13.28-13.23,20.08C487.71,415,487.77,415.09,488.88,425.37Zm53.54,66.37c-5.08,30.69-12.94,60.8-20.52,91,2.87-.79,2.79-2.85,3.35-4.55.83-2.54.84-6.62,2.47-7.39,6.08-2.9,5.34-8.67,6-13.26,2.55-18,7.09-35.76,8.51-54C542.53,499.69,544.77,496,542.42,491.74Zm99.74,41.74a3.83,3.83,0,0,0-.52-1.75c-4.91-5.75-7.16-13-10.85-19.41-6-10.45-15.44-18.46-20.84-29.35-.8-1.6-1-5.17-3.82-3.6-2.37,1.31,0,3.73.67,5.59a11.65,11.65,0,0,0,1.63,3c7.64,10.52,14,21.81,20.74,32.91,2.84,4.69,4.25,10.34,8.8,14,.85.69,1.49,1.92,2.85,1.4,1-.39,1.32-1.33,1.35-2.79ZM356.32,711.18c4-.34,6.63-1.65,8.46-4.86,2.1-3.69-2.08-3.72-2.87-5.66-1.9-4.65-6.19-5.45-10.31-6.15s-6.92,1.57-9,4.9c-1.89,3.07.1,5.24,1.48,7.82C347.16,713,353.2,708.09,356.32,711.18ZM244.16,893.4c3.61-5.19,4.88-11.11,11.31-12.8a11.06,11.06,0,0,0,4.79-3c1.66-1.69,2.54-4.14,1-6.23s-3.34,0-5,.56c-6.93,2.59-8.94,9.84-13.67,14.53-3.72,3.69-9,6.91-6.53,13.75.22.6-.75,1.65-1.21,2.47-.73,1.28-3.64,2.38-1.34,4,1.6,1.09,3.51-.56,4.49-2.45a47.83,47.83,0,0,1,2.5-4.48c.9-1.37,1.5-4.11,3.82-1,.69.92,2.18,0,2.38-.65.91-3.1,4.35-5.23,3.74-9C247.12,888.74,247.73,892.67,244.16,893.4ZM540.34,416.07l-2.51.09c0,6-.2,12,0,18,.45,11.25,1.45,22.39-1.79,33.59-2.11,7.25-2.32,15.06-3.33,22.63-.16,1.22-.74,2.95,1,3.37s2.26-1.07,2.49-2.47c.64-3.75,1.39-7.5,1.82-11.28,1.55-13.58,5.67-26.89,4-40.83C541.2,431.49,540.91,423.76,540.34,416.07ZM380.73,724.15c-3.8-.35-6.22,1.91-8.4,4.35-2.82,3.15-3.33,6,1.61,7.69,3,1,4.9,3.48,7,5.71,1.46,1.55,3.22,3.06,5.38,1,3.11-3,6.3-6.53,4.71-11S385.51,724.88,380.73,724.15Zm190.13-283c-2.06,1.09-1.11,3-.65,4.39,3.16,10,6.29,20,9.76,29.84,2.13,6.1,4.39,12.22,8.4,17.43.88,1.15,2.06,2.95,3.65,1.89,1.39-.93.69-2.67,0-4.16-2-4.33-3.94-8.67-5.68-13.1-4.3-11-8.45-22-12.73-33-.5-1.28-.41-3.23-2.75-3.29ZM272.22,628.8c4.47.44,7-1.57,7.16-6,.19-6.41-3.75-13.28-7.47-13.46-5.11-.25-9.84,2.65-10,6.14C261.67,621.12,267.55,628.75,272.22,628.8ZM561.49,351.06c-1.36,1.58-.87,2.8-.49,4.06a105.31,105.31,0,0,1,4.56,22.32c.42,6.47,1.15,12.92,1.79,19.37a69.55,69.55,0,0,0,3.35,15.61c.52,1.53,1.56,2.77,3.44,2.12,1.39-.48,1.21-1.73,1-2.89-3.52-17.3-5.18-34.95-9.71-52.06C564.62,356.65,564.42,353.31,561.49,351.06ZM287,576.53c-3.71,0-6.72,2.19-9.33,4.66-1.67,1.58-3.75,3.9-2.29,6.58,2.35,4.3,7.15,5.33,11.24,6,3.56.61,6.62-2.5,8.83-5.49.78-1.06.62-3.7.06-3.67-4.57.22-3.29-3.72-4.34-5.83C290.23,577,289.24,576,287,576.53Zm-37.24,226c.94-3.24-.76-5.32-4.19-6.42-3.23-1-13.73,4.8-14.15,8.15-.34,2.66-.31,5.33,2.64,7a10.43,10.43,0,0,0,15.7-8.69ZM421.17,661.25c0-6.27-5.72-11.61-11.51-11.46a6,6,0,0,0-6.29,5.69c0,.13,0,.27,0,.4-.25,4.29,7.26,12.91,10.57,12.14A9.2,9.2,0,0,0,421.17,661.25ZM329.1,613.88c0,4.51,3.61,9.82,6.95,10.11,4.1.35,9-5.37,9.14-10.73.15-5-3.27-7.92-9.13-7.86C331.31,605.48,329.16,608.1,329.1,613.88Zm70.51-83.1c.5-.1,1.44-.24,2.36-.49,13.85-3.7,26.86-9.79,40.38-14.41a12.11,12.11,0,0,0,3.73-2.6c.78-.69,2.11-1.46,1.3-2.79s-2-.82-3.09-.39c-1.42.56-2.8,1.21-4.2,1.84-13.39,6.07-27,11.5-41.73,13.33-1.75.22-3.7.77-3.26,3.05.38,2,2.19,2.5,4.51,2.49Zm-8.3,279c.21-4.27-.41-8.49-5.32-9.35-4.74-.84-9.33,3.38-9.47,7.72-.16,4.62,4.64,11.89,7.79,11.8,5-.07,6.92-3,7-10.15Zm-91.17,2.35c-5.88,0-6.51,5.53-9,9-2,2.83-1.87,5,2.19,7.51,4.7,2.86,7.15-.32,10.27-1.64,2.2-.92,5.13-2.57,3.84-5.86-1.39-3.67-1.38-8.75-7.3-9Zm39.22,23.15c-.63-3.16-.92-6.34-3.93-8-2-1.13-3.85-.21-5.11,1.29a33.81,33.81,0,0,1-9,7.72,3.2,3.2,0,0,0-1.47,4.27,3.16,3.16,0,0,0,.89,1.1,9.12,9.12,0,0,0,10.51,2.06c3.88-1.7,7.63-3.6,8.11-8.42Zm34.06-201.14c-.11,4.11,3.93,9.47,7.32,9.7,4.1.28,9.37-4.13,9.53-8,.19-4.79-4.12-8.92-9.61-9.23C376.42,626.42,373.56,629.4,373.42,634.14Zm-135,104.6c.78-3.11-1.23-4.61-3.87-5.8-2.09-1-4.46-1.43-5.56.8-1.47,3-3.79,5.12-5.8,7.6-1.39,1.72-2.55,3.95-1,6.28s3.75,3,6.44,2.76C235.58,749.64,238.22,746.58,238.42,738.74Zm34.5,26.84c0,6.73,2,11,5.05,11,5,0,9.5-5.4,9.53-11.28a7.81,7.81,0,0,0-7.34-8.24h-.43c-2.93-.17-6.88,4.76-6.85,8.53ZM557.25,379.65c1.06-9.2-2.8-17.51-4.69-26.17-.21-.93-.28-2-1.56-1.94s-1.52,1.11-1.5,2.06c.29,11.89-2.7,24.16,4.16,35.29.54.88,1,1.65,2.1,1.47s1.43-1.22,1.46-2.15C557.29,385.36,557.25,382.5,557.25,379.65Zm-33.83,90.16c-3.78,1.13-3.94,3.59-4.38,5.68-1.12,5.41-2,10.86-3.09,16.28-1.84,9.17-3.74,18.32-5.64,27.48-.41,2-.56,4.54,1.41,5,2.55.57,2.33-2.36,2.75-4,1.12-4.43,2.26-8.87,3-13.36C519.48,494.77,521.33,482.63,523.42,469.81ZM234.25,765.88c-6.36.21-11.53,4.92-10.79,10.19.45,3.21,1.09,7,6,6.77,5.73-.31,10.06-5.88,10-12.47C239.42,766.27,237.34,765.47,234.25,765.88ZM580.77,513.27c0,1.81-.08,2.72,0,3.61,1.09,9.5,4.1,18.59,6,27.94a42.09,42.09,0,0,0,1.58,5.5c.36,1.08,1,2.38,2.29,2.17,1.7-.28,1.74-1.8,1.48-3.18-.39-2.06-.89-4.1-1.32-6.16-.22-1.06-.88-2.47.65-2.88,3.62-1,1.94-3.49,1.85-5.56-.28-6.1-6.22-9.16-7.87-14.64C584.75,517.93,584.11,515.28,580.77,513.27Zm-266.35,242c.15,4,4.58,8.78,7.85,8.54,2.14-.15,9.84-10.41,9.07-12.88a8,8,0,0,0-7.33-5.85C320.82,744.88,314.3,752.21,314.42,755.27Zm138.45-98.8c-.22-1.64-.66-2.81-.48-3.88,1.08-6.49-3.35-8.16-8.15-9.39-4-1-8.63,2.83-7.62,6.53.95,3.49,2.63,6.89,5.67,9a9.19,9.19,0,0,0,8.09,1.18A3.39,3.39,0,0,0,452.87,656.47ZM362.32,801.42c-.09-5.49-4.67-11.72-8.72-11.86-3.55-.12-6.32,3.93-5.82,9.83.32,3.74.49,8.51,6.05,8.76C359,808.38,362.42,805.51,362.32,801.42Zm18-125.42c-.13-5.2-3.68-10.26-7.28-10.36-3.91-.1-6.64,4.22-6.57,10.42.06,5.32,3.2,9.23,7.39,9.21,3.31,0,6.56-4.63,6.41-9.27Zm-31.4-20.91c4.43.16,8.19-1.72,8.49-4.24.41-3.49-5.23-10-8.89-9.55s-9-2-10.6,3C336.42,649,343.05,654.88,348.92,655.09ZM249.73,773.57c.21,2.64-1.17,5.89,2.18,7.6,3.76,1.93,5.36-1.08,7.38-3.33,1.65-1.85,4.1-13.3,3-15.53-.83-1.69-2.06-2.84-4.06-1.61C253.42,763.66,248.78,766.75,249.73,773.57ZM593.29,409.79c-1.14,3.82,1.69,5.64,2.86,8q9.06,18.19,18.38,36.26c.73,1.41,1.46,3.82,3.57,2.84s.23-2.74-.25-4a181.35,181.35,0,0,0-17.19-34.17C598.66,415.63,596.89,412.22,593.29,409.79ZM391.54,600.08c4.72.21,7.71-2.25,9.43-5.79,1.8-3.71.79-7.74-1.8-10.72-2.42-2.78-6.34-3.31-8.32.1A33.86,33.86,0,0,0,387,596a3.61,3.61,0,0,0,2.92,4.2A3.5,3.5,0,0,0,391.54,600.08Zm-83,18.59c-.72-2.61-.89-5.43-3.19-7.57-3.4-3.16-6.08-2.93-7.9,1.21a53,53,0,0,0-2.9,8.57c-1.06,4.32,3.26,9.52,6.61,8a12.18,12.18,0,0,0,7.37-10.21ZM325,682.75c5.61-.2,13.46-6.15,12.18-9.15s-4.17-6.24-7.7-6.57c-5-.47-11,5.43-10.66,9.68s3.16,5.69,6.17,6Zm-7.65,21.13c-.46,5.4,4.41,7.86,6.58,11.69.74,1.3,4.72,1.26,4.79-.62.17-5.09,2.61-10.07,1-15.21-.85-2.68-2.55-5.24-5.48-5.07a6.47,6.47,0,0,0-5.85,4.81C317.94,701,317.67,702.44,317.33,703.88Zm24.27,65.4a22.32,22.32,0,0,0,.34,4.16c.76,2.56,3,3.82,5.17,4.81a3,3,0,0,0,4-1.35c1.69-4.11,4.42-8,3.43-12.85a7.37,7.37,0,0,0-6-6.12c-3.06-.61-4,2.25-5,4.49-1.06,2.46-2.26,4.86-1.94,6.89Zm100.08-74.6c3.26,0,6.12-1.16,5.72-4.75a17.28,17.28,0,0,0-3.31-8.38c-1.95-2.52-5.16-4.28-8.63-3.1-1.78.61-4.36.71-4.8,3.45-.93,5.92,5,12.81,11,12.81ZM302,705.88c.26-4.67-1.28-9-5.36-11.1-2.83-1.45-4.24,2.59-6.06,4.26-3.12,2.87-2.62,6.86-.53,9.92s5.5,5.51,9.8,4.47C304.77,712.24,301.57,708.5,302,705.88Zm26.59-130c-4.34-.09-9.4,3.76-8.31,6.34,1.93,4.56,12.22,9.09,17.16,7.64a3.54,3.54,0,0,0,2.91-3.67C340.24,582.68,332.35,575.88,328.63,575.88Zm188.79-12.82c0,.84-.35,3,1.25,3.36,2.2.55,2.51-1.81,3.06-3.35a18.18,18.18,0,0,0,.77-3.34q2.64-16.92,5.25-33.84c.2-1.28.9-3-.79-3.48-2.32-.68-2.12,1.62-2.52,2.89C520.63,537.39,519.19,549.88,517.42,563.06Zm7-133.26c-2.94,1.66-3.59,3.92-4.34,6.3-3.7,11.8-6.06,24-10.61,35.57-.64,1.62-2.47,4-.31,5,2.59,1.17,3.28-1.94,4.1-3.68a104.1,104.1,0,0,0,8.12-27.34c.78-5.07,3.67-9.77,3-15.85ZM364.82,569c.41-4.91-3.24-7.07-6.45-8.73-2.79-1.44-6.76-1.57-9.11,1-2.63,2.89.14,6.31,1.1,9.08,1.57,4.52,6,4.89,10.16,4.15C363.42,574,365.32,572.22,364.82,569Zm223.12-7.92c-3.61,2.28-4,5-4.62,7.46s-.75,4.93-1.46,7.29c-2.55,8.56-3.54,17.56-7.08,25.85-.77,1.79-.65,3.68,1.14,4.48,2,.9,2.36-1.13,2.92-2.51,5.37-13.32,7.58-27.31,9.1-42.57ZM258.13,644.43a6.06,6.06,0,0,0-5.66-6.43h-.19c-5.55-.11-10.51,3.42-10.27,7.79.18,3.28,0,7.47,4.8,7.93S258,648.58,258.13,644.43Zm41.05,86.71c-.06,5.61,2.33,10.6,5,10.42,3.47-.24,7.73-6.66,7.75-11.58,0-4.34-2-8.43-6.09-8s-7,4.19-6.66,9.16ZM451.49,429.46c-1-2.54-2.37-2.59-3.52-1.84-2.87,1.88-5.64,3.9-8.35,6-9.1,7-16.45,15.82-24.68,23.73-1.32,1.27-3,3.57-1.3,5,2,1.75,3.15-1.09,4.28-2.33A243.76,243.76,0,0,1,448,432C449.19,431.11,450.42,430.24,451.49,429.46Zm130.93.42c-1.88,4,.89,6.83,2,10.06,3.6,10.94,8.91,21.13,13.88,31.47.64,1.34,1.29,3.16,3.24,2.46,2.15-.77,1.11-2.37.55-3.82C596.73,456.15,589.35,443.21,582.42,429.88Zm-208.49,410c.26-3.94-3-4.41-3.71-6.42-1.09-2.93-1.54-5.26-5.7-2.94-2.22,1.23-5.73-.17-7.66,2.74a4.86,4.86,0,0,0-1,4.29c1.25,4,11.46,8,15,5.73C372.53,842.28,373.81,840.88,373.93,839.88Zm10.83-67.44c-.09-4-1.91-5.61-6.22-5.55s-9.21,5-8.87,9.57a6.6,6.6,0,0,0,6.67,6.52c4.55.21,8.53-5.1,8.42-10.51Zm27.63-6.9c.2-3.39-.38-6.32-3.37-8.1s-5.1-.47-7.77,1.11c-7.88,4.65-8,4.44-.46,9.26a12.75,12.75,0,0,1,2.13,1.89c1.94,1.92,4.25,2.64,6.76,1.54s2.35-3.64,2.74-5.67Zm-98-293.29c-4.17,0-6,1.58-6,5.19.05,4.14,5.76,9.78,10,9.54a6.72,6.72,0,0,0,6.55-6.13C325.58,476.88,319.71,472.31,314.42,472.25ZM460.22,633.8c-.28,4.43,1.46,7.38,4.62,7.5,3.73.14,8-4,8.19-8,.27-4.42-3.68-8.87-8.17-9.27-9.81-.87-3.28,6.21-4.61,9.77Zm-123,163c0-3.88-3-8-5.82-8-2.63,0-8.35,5.4-7.72,7.93.83,3.35-1.16,8.55,4,9.49C332.33,807.05,337.27,801.62,337.22,796.8ZM269.6,548.21c-3.16,1.64-8,.33-7.76,6.08.24,5.51,2.54,8.32,7.25,8.23,4.16-.09,9.66-4.82,9.4-8.38C278.07,548.22,272.29,550.59,269.6,548.21Zm315-188.69c-2.61,3.69-.08,6.68.16,9.72,1,12,6.52,22.17,13.26,31.82.78,1.12,1.44,2.71,3,1.94,1.94-1,.79-2.58.1-3.91a36.73,36.73,0,0,0-2-3.5C594,388.07,591,379.73,588.87,371c-.93-3.76-.56-8.07-4.29-11.43ZM415.47,544.19c.52-3.28-1.43-5-3.87-6.31-4.36-2.34-7.66.15-10.76,2.71-3.6,3-3.23,6.39.9,8.46,2.9,1.46,6.43-.44,8.48-.08C415.58,549.88,415,547,415.47,544.19ZM426,728.11c1-4.5-2.28-7.11-6.05-9.26-1.61-.92-3.5-1.61-5.41-.5-2.12,1.23-1.69,3.32-1.41,5.1a45.69,45.69,0,0,0,1.89,7.11c1.24,3.7,4.41,5.86,7.8,5.34S425.8,731.58,426,728.11Zm-116.4-78.49c0,6.72.77,7.92,4.59,7.94,4.76,0,8.78-3.25,8.7-7.1-.1-4.79-3.92-9.06-8.59-8.84C308.51,641.88,310.33,646.88,309.58,649.62Zm92,34.24A14.19,14.19,0,0,0,406,694.68c1.79,1.85,4.18,2.66,6.73.88,2.4-1.67,3.06-3.44,1.44-6.22-1.22-2.1-1.63-4.65-2.49-7-1.1-3-2.87-4.85-6.43-4s-3.78,3.26-3.63,5.54Zm89.36-183.25c-3.26,2.49-4,5.72-5.17,8.57a284.08,284.08,0,0,0-10.86,31.87c-.44,1.56-1.76,3.69.19,4.41s2.72-1.8,3.24-3.27c3.38-9.67,6.74-19.35,9.8-29.12,1.18-3.8,3.45-7.46,2.79-12.46Zm-17.43-90.1c-3.44.36-4.76.92-5.94,1.95C458.9,420,452.88,429.91,444.84,438a2.8,2.8,0,0,0-.17,4l.17.17c1.14.87,2.59-.27,3.49-1.25,4-4.34,8.06-8.64,11.82-13.19,4.27-5.22,8.27-10.69,13.35-17.21Zm47.39.26c-2,.85-2.62,2.4-3.06,4.08-3.57,13.72-9.13,26.69-14.94,39.56-.51,1.15-1.86,2.68-.39,3.58,2,1.2,2.53-1,3.15-2.22,5.57-11.08,10.67-22.38,14-34.35.89-3.29,2.62-6.71,1.23-10.65ZM413.35,794.47c-4.58,0-8.47,2.55-8.35,5.07.15,3.19,6.61,9.83,9.56,9.82,3.13,0,6.68-4.52,6.15-8.46C420.12,796.6,417.76,793.88,413.35,794.47ZM404.93,617c.49,3.29-.88,7.7,4.47,8.41,2.79.37,9-5.25,9.18-8.07.19-3.9-3.54-8-7.42-7.8-4.56.23-7.13,2.44-6.23,7.46Zm-28.67-7.7c-1.36-3.31-2.95-7-7.15-7.75-2.93-.55-7.39,5.5-7.2,9.15.12,2.37,5.71,8,7.72,7.38,4.08-1.16,6.07-4.31,6.63-8.78ZM271.65,829.88c-.25-1.1.66-3.3-.89-3.87-4.28-1.58-8.29.16-11.75,2.48a8,8,0,0,0-3.5,8.46c.11.58.91,1.17,1.53,1.49C262.2,841.12,271.51,835.88,271.65,829.88Zm18.51-183.82c-2.85.49-5.78,1.66-5.74,5.87.05,4.5,6.17,10.46,10.36,9.84,3.3-.5,3.91-3.47,4-6.15.07-4.58-4.36-9.74-8.62-9.55ZM545.33,377.32h-1.79a7.72,7.72,0,0,0-.66,2.49c1.21,13.54,2.5,27.07,3.75,40.61.11,1.21.33,2.38,1.86,2.34s1.56-1.36,1.68-2.48c.64-6.18-.87-12.21-1.44-18.28C548,393.73,546.5,385.54,545.33,377.32ZM295.55,678c-1.22-3-.95-7.57-4.85-8.72-4.73-1.38-8.9,1.69-9,5.49-.14,4.44,5,10.93,9.11,10.86C295.57,685.53,294.11,681,295.55,678Zm-61.79,41.77c3,.08,5.91.27,5.65-4.18-.23-4-5.82-9.73-9.49-9.8-5.12-.11-5,4-5.38,7.08C224,716.88,228.1,719.69,233.76,719.75Zm167.68-6c0-2.49-7.83-7.74-11-7.29-5.1.73-6.17,3.17-3.24,7.41a40.73,40.73,0,0,0,3,4.17c1.66,1.89,2.82,5.22,6.24,3.65,3.09-1.47,4.34-4.55,5-8ZM348.1,724.16c-2.24.94-6.45-1.1-6.35,4.09.09,4.08,5.46,9.78,9.47,10,5.31.27,5.22-4.36,5.22-7.12,0-4.65-3.52-6.85-8.34-7Zm132-224c2-.09,2.59-1.5,3.5-2.76,6.1-8.41,10.22-17.9,14.86-27.1.5-1,1.33-2.38.08-3.09-1.79-1-2.11,1-2.75,2-3.58,5.43-7,11-10.64,16.35-2.26,3.34-4.73,6.54-6.07,10.38-.52,1.46-1.25,3.33,1,4.18ZM257.92,590.21c.44-3-1.64-5.3-2.55-8-.55-1.63-1.43-3.07-3.64-3s-3.43,1.21-4.47,3c-2,3.47-.32,6.74.56,9.95.75,2.73,2,6.13,5.61,5.2C256.51,596.6,258.34,593.88,257.92,590.21Zm346.41-130c0,.91-.39,1.8-.09,2.32q10.18,18,20.43,35.79c.54.94,1.34,2.21,2.66,1.63,1.86-.81.76-2.19.26-3.36-4.67-10.93-10.88-21-17.61-30.73-1.42-2.05-2.35-4.85-5.65-5.63ZM252,523.51c.05,4.56,3.39,9.29,6.42,9.47,2.82.17,8.48-5.36,7.65-8.13-1.25-4.16-4.44-6.43-9-6.6-4.13-.13-5.63,1.82-5.07,5.28ZM471.84,808.39c4-.47,7.36-1.88,8.37-5.89.59-2.35-6-6.92-9.53-6.91-4.08,0-7,2.34-6.7,6.17C464.29,806,467.74,808,471.84,808.39Zm-28.42-24.23c-.3-3.53-.69-7.1-5.28-7.49-3.53-.31-8,4.44-7.8,8.32s1.27,7.33,6,7.52C439.79,792.65,443.42,788.18,443.42,784.16Zm30.34-2.58c2.23-.76,6.57-1.13,6.28-5.42a7.35,7.35,0,0,0-8-6.67c-3.56.19-7.89,1.17-8.86,5.77-.62,3,4.65,6.37,10.54,6.32ZM426.9,593.14c-1.66.17-4.76,6.94-4.46,9.74.39,3.57,4.86,7.3,8.62,6.79,3.36-.45,4.74-3,4.71-6.13C435.75,600.67,428.88,593,426.9,593.14ZM458,716.47c.06-4.08-2.16-7.48-5.51-8.53-3.82-1.2-8,.5-10.71,3.7-2.23,2.66-.75,4.54,2.41,5.15,2.75.52,5.7.23,7.87,2.69,1,1.18,2.24,2.95,4.25,1.58C457.85,720,458.15,718.27,458,716.47Zm22.27-291.59c-1.72-1.31-2.46-1-3-.42-9.74,10.81-16.42,23.78-25,35.41-.61.82-1.28,2.28.13,3s2.44-.54,3.25-1.61C464.57,449.63,470.69,436.17,480.26,424.88ZM260.87,686.55c.62,2.77.22,6.73,4.51,7.25,3.12.38,8.43-7,8.49-11.22.05-4-2.95-4.58-5.87-4.7C264.52,677.73,260.92,682.18,260.87,686.55Zm209.81,38.68c-3.52,0-8,2.91-7.94,5.18s6.86,9.06,9.12,8.68a7.63,7.63,0,0,0,6.28-6.44C478.66,730,473.53,725.23,470.68,725.23Zm-163.1,60c-.15-3.61-1.42-7.5-6-7.79-4-.25-5.55,3.81-5.4,6.8.17,3.65-.35,8.52,4.49,10.15,2.34.82,6.82-5.11,6.91-9.12Zm182,44.4c-9.28,2-17.38,3.73-25.42,5.65-1.7.41-3.16,1.88-2.3,3.9a3.4,3.4,0,0,0,4.29,1.86c4-1,8.09-2.08,12.1-3.22,4.17-1.13,8.45-2.25,11.37-8.15ZM550.5,491.18h-.38c0,1.71-.12,3.44,0,5.14.49,5.68.93,11.36,1.75,17,.2,1.39,1,3.77,3.25,3.18s.84-2.53.74-3.92c-.41-5.5-.81-11-1.29-16.51-.42-4.74-.93-9.47-1.44-14.2-.12-1.1-.19-2.58-1.67-2.5s-1.44,1.57-1.41,2.68c.15,3.09.37,6.13.49,9.17ZM590,427.29c-1.28,1.79-1.05,2.7-.5,3.53q9.33,14.12,18.73,28.2c.78,1.17,1.87,3.14,3.51,1.65,1.38-1.25.64-3.29-.26-4.8-6-10.15-14-18.87-21.44-28.54Zm-69-89.05c.17-1.27.6-3.06-1.19-3.24s-1.83,1.61-2,2.91c-1.24,11-6.44,21.25-6,32.55,0,1.32-1.75,3.31.76,3.67,1.67.24,2.56-1.86,2.68-3.24,1-11,5-21.53,5.78-32.61ZM272.19,749.58c4.54,0,8.9-3.75,8.53-7.35-.3-3-1.17-6.15-5.14-6.42-3.07-.21-8.41,4.82-8.47,8C267,747.59,269.31,749.22,272.19,749.58Zm-2.77-27.44c7.19.1,8.72-2.34,8.63-11.61,0-2.32-1-3.57-3.42-3.48-3.24.12-9.74,7.49-9.58,11S267.8,722.1,269.42,722.14ZM613,567.28c-3.15-9.47-5.87-19.36-10.09-28.72-.35-.79-1.11-1.74-2.21-1.27-1.35.59-1.08,1.81-.75,2.94,2.08,7.1,4.1,14.22,6.29,21.29a57.07,57.07,0,0,0,3,7.34,1.94,1.94,0,0,0,2.41,1.31,1.8,1.8,0,0,0,.38-.16C613.07,569.49,613.1,568.52,613,567.28ZM440.71,818.53c5-.12,10.15-3.1,8.87-4.8-1.86-2.49-2.56-6.75-6.9-6.73-3.66,0-9,4.74-8.79,7.73C434.22,819.39,437.65,818.68,440.71,818.53ZM342,550.29c-3.16,0-9.7,7.47-9.06,10.58a4.09,4.09,0,0,0,4.4,3.55c4.87,0,9-4.34,9.11-9.74C346.58,551.46,345.08,550.18,342,550.29ZM240.72,614.34a5.86,5.86,0,0,0-5.71-6c-3.41-.13-7.1,5.56-7.42,11.46-.13,2.31.93,3.65,3.29,3.6C234.65,623.37,240.72,617.68,240.72,614.34ZM320.79,500c-3.57,0-9.58,7.12-8.46,9.85,1.06,2.56,3.2,4.23,6.36,3.62a8.57,8.57,0,0,0,7.05-9c-.21-3.64-2.65-4.21-4.95-4.47Zm210-127.24-1.37-.48c-.43.31-1.06.52-1.26.94q-6.6,14.24-13.1,28.5a2.19,2.19,0,0,0,.71,3c1.38.84,2.07-.52,2.68-1.34,6.82-9.14,9-20.12,12.3-30.62ZM399.19,831.46c-2.48.26-5.68,1.59-5.39,4.74.47,5.14,4.95,6.69,9.44,7.25,2.76.35,4.78-1,5.13-4C408.81,835.65,404.72,831.88,399.19,831.46ZM266.94,795.31c-.06,4.8,3.36,10.34,6.34,10.46,2.3.08,7.23-4.9,7.2-7.28,0-1-9.27-7.31-10.8-7.38C266.18,791,267.16,793.6,266.94,795.31ZM503,782a9.35,9.35,0,0,0-6.29-5.72c-2.47-.58-7.71,5-7.84,8-.19,4.4,3.58,4.54,6.26,5.13C498.42,790.1,502.83,785.88,503,782ZM619.13,589.76a1.84,1.84,0,0,0-.16-.61c-6.42-9-11-19.07-15.56-29.07-.4-.87-1-1.84-2.13-1.39-1.85.77-1,2.26-.49,3.39,3.59,8.38,6.63,17,11.68,24.69a18.08,18.08,0,0,0,4.3,4.51C618.32,592.45,619.17,591.47,619.13,589.76ZM480,658.24c-.09,5,1.23,7.56,3.71,7.72,3.71.23,8.69-3.71,8.51-7.05-.22-4-2.77-6.49-6.56-6.58S479.78,654.64,480,658.24ZM377.42,507c0-4.12-4.07-7-8.45-6.16-3.09.61-5.28,2.48-5.56,5.7-.31,3.56,2.09,4,4.93,3.6a2.07,2.07,0,0,1,1.59.44c1.34,1.41,2,4.13,4.8,2.65C377.34,511.88,377.07,509.11,377.42,507ZM307.5,450c.83-6.79-4.09-6.18-8.22-6.49-2.74-.2-5.62-.38-5.73,3.64-.08,2.81,6.45,7.87,10,7.85s3.87-2.5,4-5Zm-10.82,53.21c-1.11-2.86-3.6-4-6.07-5-3.52-1.42-6.8-1.09-9.13,2.31-1.07,1.57-1.21,4.18.39,4.54,3.73.83,6.87,5.58,11.21,2.23,1.39-1.08,3.5-1.86,3.61-4.11ZM588.07,769.45c.1-3.73-2.55-5.93-6-4.31a51.14,51.14,0,0,0-9,6.08c-1.41,1.08-2.3,2.76-.93,4.52s2.87,1.44,4.65.68a92.47,92.47,0,0,1,9.09-3.48C587.91,772.33,588.13,771.08,588.07,769.45Zm-367.9-244c-3.59.85-8.88-.46-9.13,5.34-.16,3.62,2.86,6,6.46,5.83,3.85-.22,6.95-2.13,6.94-6.78,0-2.86-.52-5.14-4.27-4.43Zm142.51,12.23c.18-5.09-6.26-10.14-10.93-8.91-2.59.68-3.7,2.06-1.59,4.48,1.62,1.86,3.65,3.4,4.22,6,.47,2.15,1.54,4.61,3.87,4.13,2.77-.59,3.92-3.38,4.43-5.74Zm144.74,14.66c-.15,1.92-.67,3.33.84,3.72,1.89.47,2.08-1.27,2.47-2.46,3.33-10.14,4.57-20.86,8.69-30.78.38-.92.68-2-.58-2.33-1.49-.39-1.81,1-2.29,2C511.83,532.21,510.42,542.94,507.42,552.34ZM334.9,533.71c-.18-3.79-5.53-9.36-8.61-9.6-1.57-.12-2.94.56-2.75,2.07a39.64,39.64,0,0,0,2.14,9.74c.69,1.7,1.88,4.81,4.91,3.31C333,538.07,334.94,536.16,334.9,533.71ZM226.59,624.26c.33-1.41.19-2.12-.75-2.33a2.61,2.61,0,0,0-2.59.8c-5.39,5.66-10.91,11.2-15.44,17.61-.67.95-1.12,2.22,0,3.07s2.08.4,3-.53c2.84-2.83,6-5.38,8.55-8.43C222.16,631.12,224.42,627.36,226.59,624.26ZM449,751.79c.42-4.25-1.53-7-5.39-7.34-2.63-.22-5.95.31-6.28,4.3-.23,2.86,5,9.09,7.7,8.78C448.42,757.15,448.9,754.44,449,751.79ZM245.17,510.2c-.21-3,0-5.74-3.76-5.61-3.41.13-7.44,4.7-7.71,8.71-.25,3.76,2.9,4.81,5.19,4.62C243.42,517.56,244.42,513.51,245.17,510.2ZM431.23,398c0-3.13-5.07-7.57-8.46-7.39-3.55.18-5.09,2.59-5,5.73.26,5.93,5.74,4.45,9.06,5.57C429.56,402.82,430.61,400.1,431.23,398Zm-88.31,91.49c2.59-.22,5.69.25,5.74-3.76,0-2.63-5.4-9.34-7.61-9.25a4.65,4.65,0,0,0-4.8,4.48v.17C336,484.55,340.11,489.49,342.92,489.49Zm25.37-8.36c.17-4.9-2.52-7.13-6.59-7.32-2.26-.11-5.57,2-4.26,4,1.9,3-.39,9,5.77,9C367,486.74,368.8,484.66,368.29,481.13ZM222.68,590.88c1.62-1.43,5.1-1,5.65-4.32.4-2.44-7.91-8.09-11.4-7.91-2.06.11-2.44,1.45-2.38,3.14C214.63,584.69,219.83,590.81,222.68,590.88Zm121.11-88.2c-2.15.41-4.47,1.62-3.66,4,1.31,3.83,4.15,7.27,8.3,7.69,1.85.18,6.86-.21,5.49-4.39s-5.4-6.67-10.13-7.34Zm40.63,57.77c.45-5-.85-7.31-4-8.32-1.87-.6-4-2.36-5.73-.17-1.41,1.81-1,3.93.69,5.66a4.65,4.65,0,0,1,1.14,4.23,2.9,2.9,0,0,0,2.19,3.46h0c1.93.65,3.26-.4,4.46-1.75A5,5,0,0,0,384.42,560.45ZM629,644.65c-4.6.1-9.76,3.48-9.61,6.43.14,2.58,1.87,4.16,4.17,3.1,3.52-1.63,9.56,1.39,10.44-5.15.44-3.53-1.87-4.62-5-4.38ZM241.68,747.58a3.64,3.64,0,0,0,0,1.47c.57,2.17,1.9,4.29,4.2,3.84,3.13-.61,7.29.13,8.78-4,1.36-3.74-2.54-2.15-3.76-3.31a8.1,8.1,0,0,1-1.44-1.76,4.25,4.25,0,0,0-5.32-2.15C241.53,742.44,241.55,744.63,241.68,747.58Zm5.42-21c3.06.22,9.45-8.62,8.24-11.44a2.46,2.46,0,0,0-1.05-1.24c-3.78-1.6-6.16.78-8.22,3.28-1.8,2.19-4.82,4.35-1.81,7.78a3.54,3.54,0,0,0,2.84,1.64ZM481.26,676l-5.56,1c-1,.19-2.48-.19-2.65,1.42-.15,1.33.88,2.09,1.93,2.54,3.66,1.54,7.29,3.19,11.06,4.38,1.5.48,3.67.23,4.24-1.86.45-1.63.54-3.81-1.1-4.67-2.29-1.16-4.45-3-7.92-2.79ZM300.52,481.2c-1.66-3.21-4.09-5.34-8.19-5.56-3.54-.2-4.84,1.69-5,4.71-.36,6.13,5.39,4.2,8.26,5.59C298.14,487.18,299.58,484.06,300.52,481.2Zm224.9-123.32,2.23-.15q.75-15.08,1.51-30.15l-2.07-.08C525.61,337.55,522,347.53,525.42,357.88ZM272.36,896.07q-9.24,9.67-18.45,19.38a1.82,1.82,0,0,0-.29,2.56,1.66,1.66,0,0,0,.51.44c1.36.86,2.62.16,3.57-.88,3.87-4.23,7.84-8.37,11.47-12.8C271,902.54,274.29,901.11,272.36,896.07ZM384,537.65c.57-4.53-1.45-7-3.52-9.06s-4.59-1.44-6.52.61-1.37,3.74.62,5.33c1.18,1,2.57,1.87,2.73,3.5.27,2.68,1.68,3.63,4.22,3.27C384.52,540.88,384,538.55,384,537.65Zm-51.17-94.18c-2.62-.23-6.08.4-5.56,4,.66,4.64,5.4,4.57,9,5.21a3.84,3.84,0,0,0,4.64-2.85,3.79,3.79,0,0,0,.06-1.5c-.43-4.18-4.07-4.84-8.19-4.86Zm30.73,447.66c-4.13.19-7.3-3.11-11.11-2.3-2.39.52-4.34,1.56-4.81,4.21a2.9,2.9,0,0,0,2.16,3.47l.11,0c2.9.75,5.95.61,8.93,1.14,1.92.34,1.77-3.41,3.38-4.79A9.9,9.9,0,0,0,363.51,891.13ZM240.42,548.71c0,4.2,1.6,8.4,5.17,9.55,2.48.8,4.28-3.28,4.66-6.18s-4.25-8.56-6.64-8.4C240.42,543.88,240.42,546.36,240.42,548.71Zm106.3-121.58c3.54-.41,6.18-.59,8.76-1.06a3.59,3.59,0,0,0,2.95-4.13l0-.15c-.85-3.94-4.75-2.89-7.4-3.43-3.37-.69-5.88,1.2-6.93,4.47a3.09,3.09,0,0,0,1.64,4.06l.29.11C346.51,427.2,347.1,427.19,346.72,427.13Zm190.92-75.86h-.23a22.67,22.67,0,0,0,.24-2.85c0-1.21.66-3-1.34-3.14-1.28-.09-1.88,1.33-2,2.41q-1.53,11-2.82,22.06a2.74,2.74,0,0,0,2,3.1c1.9.29,1.79-1.58,1.94-2.81C536.21,363.78,536.92,357.52,537.64,351.27ZM337.83,902c-.61-1.79-1.77-2.35-3.06-1.23q-8.86,7.72-17.54,15.69c-1,1-2.53,2.36-.93,3.88s2.83-.12,3.87-1.1q8-7.47,15.83-15A26.27,26.27,0,0,0,337.83,902ZM276.18,478.14c-.49-2.95-2.27-5.29-6.4-4.62-2.75.44-6.65.41-6.09,4.34.42,3,3,6.16,6.38,6C272.55,483.76,276.61,483.51,276.18,478.14ZM443.26,623.36c-.19-3.5-1.23-6.15-5-6-4.93.23-4.73,4.44-5,7.68s2.38,5,5.19,4.71C442.07,629.44,443.11,626.38,443.26,623.36Zm194.39,56.91c-3.61.48-8.19.49-8.79,5.27-.48,3.78,3.28,4,6.17,4.25,4.85.48,6.34-3.21,7.14-6.62.75-3.18-2.37-2.61-4.52-2.9Zm-91.3-144.06c-.63,11.48-1.37,23,3.81,33.88.26-11.45-2.86-22.55-3.81-33.88ZM248.84,704.43c2.56-.2,5.27-.61,6.17-3.31,1.18-3.5-1.46-6-3.12-8.74-.71-1.16-1.83-2.09-3.36-1.53s-1.64,1.92-1.65,3.31c0,1.76,1.45,3.73-.92,5.13a2.47,2.47,0,0,0-1.08,3.31l.08.14C245.74,704.46,247.28,704.45,248.84,704.43Zm107-254c-3.75,0-5.12,1.62-4.77,4.33.57,4.39,4.13,5.75,7.71,5.93,3,.14,5.57-3.44,4.88-5.08-1.37-3.19-5-4.82-7.86-5.21Zm156.3,295.45c-5.72.32-10.75,8.49-9.24,12.88.62,1.81,1.92,2,3,1.06a26.28,26.28,0,0,0,7.68-9.65C514.42,748.39,514.07,745.88,512.14,745.88ZM314,850.62c-.85.06-1.62.08-2.37.19-3.33.48-6.3,2-5.9,5.66.46,4.23,3.81,2.48,6.31,2.07a8.16,8.16,0,0,1,2.26-.11c3.4.4,5.18-1.49,5.18-4.49C319.5,850.33,316.35,850.88,314,850.62ZM663.71,624c-.39-.67-.61-1.65-1.15-1.89-3.06-1.38-5.95-.26-8.75,1-2.34,1-4.33,2.45-4.58,5.29a3.28,3.28,0,0,0,1.54,2.89c2,1.54,3.76.14,5.18-.85C658.64,628.54,662.42,627.82,663.71,624ZM400.6,409.51c2.72.7,5.22-1.77,5.17-4.44-.09-4.28-4.85-4.19-7.78-5a4.35,4.35,0,0,0-5.56,4.22C392.22,409.25,396.33,408.88,400.6,409.51ZM315.55,561.77c-1.51-4.68-5-6.27-9.12-6.85-2.56-.37-4.67.26-4.57,3.45.17,4.85,4.14,5.48,7.55,6.08A6.07,6.07,0,0,0,315.55,561.77Zm276.7,243a20,20,0,0,0-3.28.33c-2.86.79-4,3.25-5.12,5.68-.54,1.19.21,2.26,1.1,3,2.54,2,4.06-.17,5.86-1.44.73-.51,1.87-.41,2.67-.86,1.81-1,5.21-.54,4.8-3.78-.43-3.45-3.63-2.55-6-2.94ZM206.57,573.61c-4.39-.39-9.64,2.72-9.7,5.7,0,2.43,1.64,3.23,3.75,3.38,3.7.25,11.12-3.45,10.89-5.63C211.21,574.12,208.42,574.22,206.57,573.61ZM502.7,354c-8.11,2.08-14.4,7.2-21,11.71a1.59,1.59,0,0,0-.5,2.19,1.28,1.28,0,0,0,.23.29,2.26,2.26,0,0,0,2.08.22C490.72,364.79,498,361.2,502.7,354ZM602.8,695.88a8.26,8.26,0,0,0-6.62,3.46,2.73,2.73,0,0,0,.44,3.64c1.93,2,4.17,1.1,6.38.56,1.46-.36,3-.65,4.44-.92s3.67.33,3.79-2.28c.1-2.21-1.62-2.86-3.24-3.36A45,45,0,0,0,602.8,695.88Zm-212.22-212c5.21-.06,7.5-2.57,7.33-7.55-.09-2.77-2.08-3.09-4-2.76-3.74.66-6.75,2.49-7.28,6.69-.37,3.12,1.54,3.9,3.95,3.56Zm-45.91,366c-4.06.27-6.73,1.08-8.82,3.26-1.32,1.38-2.86,2.9-1.79,5,1.19,2.29,3.36,1.34,5,.69a39.73,39.73,0,0,0,6.54-3.31c1.14-.72,3.24-1.15,2.58-3.17A3.44,3.44,0,0,0,344.67,849.88ZM721.29,505.63c-.08-2.14-1.34-3.45-3.59-3.23-3.73.36-7.26,1.28-7.68,5.93-.22,2.52.65,4.62,3.45,5C715.79,513.61,721.18,508.25,721.29,505.63ZM593.91,945.68c-4.47.61-9.07,1-13.42,2.55-1.48.55-3.08,1.62-2.59,3.3.59,2,2.47,2,4.31,1.4a60.91,60.91,0,0,1,13.88-3.44c1.53-.15,4.21.58,4.29-1.64.09-2.4-2.67-1.26-4.12-1.81A11.72,11.72,0,0,0,593.91,945.68ZM348.09,400.44c3-.56,6.37-1,9.67-1.88a3.79,3.79,0,0,0,3.08-3.67c-.18-2.38-2.35-2-4-2.06a24,24,0,0,0-10.44,2.5c-1.45.64-2.75,1.7-2.12,3.53C344.8,400.38,346.36,400.26,348.09,400.44Zm45.53,468.05c-.66.1-2.18.29-3.67.59-2.73.54-4.88,2-4.38,5,.57,3.43,3.42,2.19,5.58,2,1.33-.13,2.62-.57,4-.71,2.72-.29,5.33-1.29,5-4.3S396.77,868.5,393.62,868.49ZM718.49,698c-2.61.83-6.54,1-6.74,4.18-.24,3.9,3.71,3.36,6.45,3.57,1.52.11,3,.07,4.57.13a3,3,0,0,0,3.22-1.84c.71-1.74-.4-2.87-1.56-3.91C722.77,698.65,720.56,698.73,718.49,698ZM421.19,377c-.88,5.7,4.5,4.3,7.3,5.34s4-1.87,4-4.1c0-3.68-2.63-5.33-6-5.44-2.51-.13-5.58-.27-5.3,4.16Zm-32.77,48.74c1.58.05,3-2.34,2.71-4.73-.62-4.45-5.09-3.84-8.11-4.5-2.44-.53-4.46,1.35-4.3,4.06C379,425.77,383.26,425.17,388.42,425.76ZM211.9,552.82c-2.58.68-7-.16-7,4.78,0,3.85,3.44,3.17,6,3.28,3.65.15,6.79-1.22,7.07-4.92C218.23,552.56,214.92,552.88,211.9,552.82ZM371,448.61c4,.38,7-1.55,6.78-4.39-.29-3.76-4.41-4.12-7.59-4.38-3-.26-5.46,1-5.34,4.42C365,448.66,368.79,448.11,371,448.61ZM667.86,670.42c2.9-1.06,7.93-.12,8.65-5.38.4-2.94-3.14-3.77-4.92-3.41-3.47.69-8,1-8.73,5.72C662.42,670,664.9,670.55,667.86,670.42Zm-54.59-46.54c-.92-2.47-1.46-3.71-2.89-4.15-2.79-.87-5.4-.41-7.1,2.14s-3.46,5.58-1.57,9c.49.87,1.56,1.74,2.33,1.12C607.22,629.38,610.21,626.58,613.27,623.88Zm82.53-13.79c-.23-1.65-1-3-3.13-3.11-3.14-.15-9,4-9,6.65a3.9,3.9,0,0,0,3.46,4.31l.18,0c2.3.28,8.39-5.35,8.49-7.88Zm-98.49-93.57c-2.14.7-2.44,1.66-2,2.56q5.49,11.64,11.16,23.2c.47,1,1.31,2.13,2.66,1.17,1-.72.4-1.72,0-2.57q-5.52-11.32-11-22.65a11.6,11.6,0,0,1-.82-1.72ZM630,712.88a8,8,0,0,0-1.88.26c-3,1.31-7.84,1.65-6.79,6.05s5,1.35,7.76,1.09c.57-.06,1.12-.26,1.69-.3,2.5-.16,5-.84,4.49-3.87C634.84,713.39,632.05,713.33,630,712.88ZM514.22,667.37c4.17-.27,7.07-2.36,7.82-6.61.41-2.28-.66-4.14-3.43-4.08-2.34.05-9,6.15-8.81,8.12C510,667.61,512.42,666.88,514.22,667.37Zm35.1,78.72c2,.06,9-7.94,8.72-10-.2-1.74-1.56-2.06-2.87-2.28a5.79,5.79,0,0,0-5.94,2.68c-1.69,2.4-2.74,5-2.09,8a2.2,2.2,0,0,0,2.18,1.6ZM265.53,858.8c4.11.31,7.57.84,7.66-2.89.09-3.54-3.39-5.09-6.39-5.39-2.83-.28-6.36.85-6.55,4.2C260,859.09,264,858.66,265.53,858.8Zm357.84-81c0,1.33-.13,2.82,1.16,3.64,1.69,1,2.91-.14,4-1.27a7.64,7.64,0,0,1,4.31-2.67c1.64-.26,3.23-.82,3.11-2.68-.13-2.15-1.86-3.28-3.81-3.78a7.15,7.15,0,0,0-8.55,5.4,7.45,7.45,0,0,0-.17,1.33ZM574.3,626.45a9.56,9.56,0,0,0-7.66,4c-.75,1.08-.27,2.23.61,3.09,2.68,2.58,5.34.55,8-.11a5.54,5.54,0,0,1,.57-.07c2.31-.27,4.77-.28,4.35-3.79C579.78,626.24,577.36,626.51,574.3,626.45ZM504.52,486.08c-6.12,8.64-7.49,18.94-11.06,28.46C500.11,506.16,502.17,496,504.52,486.08ZM457.27,607.93c-.08-4.11-1.45-7-5.78-7.22-2.22-.14-3.61.95-3.78,3.25-.25,3.36,3.64,9.32,6,9.19C457.36,613,456.8,609.94,457.27,607.93ZM301.33,873.67c-3.25.2-7,.55-7.32,5-.17,2.74,2.39,3.34,5,3.34,4.13,0,7.49-1.77,8-5.69C307.32,873.22,303.71,874.13,301.33,873.67ZM666.66,495.21c-.34,2.7.66,5.37,2.73,5.18,4.41-.4,5.56-4.82,6.78-8.16,1.08-2.92-1.94-3.81-4.2-4C666.64,487.93,668,492.88,666.66,495.21Zm-75.16,229c0-1.92-2.11-4.16-3.92-4.15-2.56,0-7.78,4.68-7.44,6.92.28,1.94,1.38,3.6,3.57,3.83,2,.18,7.79-4.88,7.79-6.63ZM297.13,435.44c2-.37,5.4,1.26,5.57-3.22s-3-4.61-6.16-4.8c-3-.18-5.69.75-5.85,4C290.5,435.54,293.82,435.5,297.13,435.44ZM477.42,699c-2.43.06-3.3,1.44-3.24,3.72.07,2.83,4.64,8.1,7,8s3.28-1.66,3.3-3.83C484.42,703.58,480.15,698.88,477.42,699Zm58.81-24.09c-.12-1.76-1.62-3.41-2.71-3.15-4.21,1-6.7,4.5-9.26,7.67a2,2,0,0,0,0,2.83,2,2,0,0,0,.73.46c.17.08.37.11.54.18C529.19,684.28,536.42,678.88,536.23,674.88ZM314.7,411.23c-2.62.13-5.78.5-6.25,4.47-.32,2.74,1.63,4,4,3.35,3.11-.91,8.19,1.07,8.66-4.28C321.42,410.82,317.86,411.4,314.7,411.23Zm412.44,175a11.53,11.53,0,0,0-.93-1.73c-2.23-3-5-2.32-7.44-.58s-5.5,4-3.35,8a2.87,2.87,0,0,0,1.15,1.19c1.78.81,10.43-4.54,10.57-6.81Zm-146.4,55.1c-2.35,1-7.1.55-6.91,4.57.24,5,4.53,3,7.54,2.43a2.72,2.72,0,0,1,.57,0c2.64,0,5.52-.38,5.21-3.7-.29-3.14-3.45-2.87-6.41-3.27Zm-318.32-144c2.09-.92,6.37,0,6.46-4.12.07-3.06-3.28-5.12-5.81-5.35-2.87-.25-5.06,2.12-5.36,5.49C257.47,496.5,259.23,497.38,262.42,497.37Zm169,27.65c-2.87.6-6.36.76-6.84,5-.33,2.9,1.5,4.65,4,4.08,3-.69,7.31-.39,7.6-5.21C436.34,525.88,434.11,525.24,431.42,525Zm140,223.51c-3.86-.08-8.58,3.46-8.31,6.4.16,1.78,1,3.34,3,3.67s9.23-5.22,9.17-6.92c-.12-2.44-1.79-3.14-3.94-3.15Zm35,11.35c-3.27-.64-5.44,1-7.22,3.45a2.34,2.34,0,0,0,0,3.11c2.12,2.59,4.52.7,6.81.4h.57c3,.07,5.61-1.06,5.31-4.35C611.67,759.42,608.53,760.25,606.42,759.88Zm93.12-202c2.78-1,7.27-.2,7.44-5a4.23,4.23,0,0,0-4.09-4.37,4,4,0,0,0-.91.07c-3.2.43-6.39,1.94-6.78,5.77-.21,2.6,1.71,3.58,4.36,3.53Zm12.57-58.45c-.09-1.35-1.07-1.5-2-1.86a12.45,12.45,0,0,0-7.28-.79c-2.65.54-5.85,1.32-4.91,4.84.85,3.18,3.66,3.44,6.55,2.08,1.88-.89,3.84-1.64,5.76-2.46,1-.36,1.78-.83,1.9-1.78Zm-282,341.9c-2.85.34-5.71.39-8.23,2-1.57,1-2.68,2.24-2,4.19s2.47,2.23,4.22,1.79a57,57,0,0,0,7-2.25c1.7-.68,4-1.44,3.32-3.85C433.84,841.17,431.65,841.59,430.06,841.33Zm298-210.06c-.67-2.58-2.45-4.08-4.59-3.46-2.82.81-7.11.43-7.22,4.87-.06,2.05.85,5.33,3.66,4.71,3.4-.74,6.72-2.51,8.19-6.12Zm-28.78,39c2.55-.06,5.08-.15,4.87-3.44s-2.41-5-5.76-4.9c-2.9.06-6.44.05-6.36,3.91.14,4.57,4.57,3.52,7.29,4.41Zm-218.52,83c1.21,3.3,4.94,2.49,7.54,3.26a3.1,3.1,0,0,0,3.76-3.79c-.64-2.18-.51-5.55-3.34-6.27C486.1,745.88,480.65,750.62,480.76,753.31Zm92-408.41c-3.65,6-4.54,23-1.62,29.12,2.75-10.14,2.1-19.66,1.62-29.14ZM544.08,824.47c.14-1.32-1.62-1.61-3-1.87-2.9-.55-9.18,4.45-9.25,7.24,0,2.08,1.33,3.09,3.13,3.44S543.73,827.48,544.08,824.47ZM687.42,539.82c.16,1.25-.66,2.81,1,3.54,1.23.54,2.11-.42,3-1.12,2.26-1.82,3.71-4.28,5.26-6.66s-.22-3.6-1.54-4.85c-1.58-1.5-2.84-.09-3.81,1A18.14,18.14,0,0,0,687.42,539.82Zm-106.49,143c-4.22.21-9.31,4.33-9.14,7s2.13,2.92,3.65,2.25c3.38-1.51,8.47-1.05,9.06-6.26.29-2.38-1.94-2.93-3.56-3ZM538.65,774c.16,1.38,1.31,2.21,3.1,1.6,3.57-1.23,5.81-4.2,8.18-6.88,1-1.09.33-2.56-.62-3.65s-1.91-1.87-3.45-1.49c-1.85.43-7.38,7.94-7.2,10.41Zm180.54-96.93c2.63-.45,5.68-.69,5.64-4.31,0-2.82-1.43-5.67-4.55-5.53-2.76.12-5.82,1.53-5.54,5.27.2,2.48.84,5.09,4.46,4.56Zm-146.1,32.26a2.4,2.4,0,0,0-1.7-2.22c-3-1.2-9.1,1.36-10.34,4.38a3.52,3.52,0,0,0,1.49,4.75l.21.1c2.18,1.07,4-.51,5.62-1.81,1.89-1.52,4.35-2.54,4.73-5.21ZM284.91,446.23c3.23.22,5-1.42,5-4.31,0-3.48-2.7-4.12-5.63-4.23-3.42-.12-5.74,1.22-5.71,4.8C278.59,447.05,282.65,445.35,284.91,446.23ZM696.49,730c-3.61,0-8.33,3.84-8.25,6.74.06,2,1.07,3.3,3.11,3.44,2.41.16,8.36-5.63,8.31-7.89s-1.57-2.29-3.17-2.29ZM522.31,851.78c2.49.11,8.3-5,8.29-7.23a3.5,3.5,0,0,0-3.07-3.53c-2.1-.4-8.37,4.77-8.38,6.88A4,4,0,0,0,522.31,851.78ZM702.11,631c2.17-1,6.51.48,6.78-3.84.22-3.53-3.38-4.67-6-4.87-3.07-.25-5.38,1.94-5.4,5.32,0,2.49,1.64,3.71,4.62,3.39ZM295.52,532.63a7.1,7.1,0,0,0,5.73-6.49c.31-2.94-3-2.09-4.92-2.14-3.46-.09-6.54.38-6.43,5.12C290,532.55,292.19,532.54,295.52,532.63Zm314.8,207.44c.31,1.7.35,4.54,3,3.19s5-4,7.14-6.27c1.65-1.75.23-3.11-1.33-4a5.51,5.51,0,0,0-5.92,0C610.48,734.5,610.92,737.44,610.32,740.07ZM505,726.37a2.76,2.76,0,0,0-2.43-3,2.64,2.64,0,0,0-.93,0c-4.33.49-6.08,3.58-6.64,7.47a2.93,2.93,0,0,0,2.14,3.56,3.11,3.11,0,0,0,.6.09C499.54,734.73,505,728.4,505,726.37Zm189.8-213.25c-4.26.51-7.66,2.41-8.82,6.78-.54,2.06,1.12,3,3.15,3,3.12,0,9.29-5.21,9-7.76C697.93,513.24,696.63,512.68,694.79,513.12ZM506.13,703c2.72,0,7.38-4.71,7.31-7.19,0-1.9-.74-3.39-2.86-3.6-2.28-.22-8,5.06-8,7.37C502.53,702.08,504.31,702.67,506.13,703Zm95.53,116.23c0-2.07-1.55-1.85-2.83-1.87-4.6-.08-7.48,2.45-9.25,6.44a2,2,0,0,0,.88,2.69l.26.11c2.84,1.29,11.14-4.32,10.94-7.37ZM685.31,720h3.11a3.86,3.86,0,0,0,4.21-3.48,3.75,3.75,0,0,0,0-.82c-.2-3.15-2.77-3-5.18-2.52-1.67.33-3.36.55-5,.81s-3.17.57-3.39,2.43c-.26,2.2,1.51,2.9,3.18,3.3a16,16,0,0,0,3.08.28ZM286.87,844.51c-2.94.3-5,1.7-5.05,4.54-.12,5.2,4.92,2.77,7.34,4.18,2,1.16,4.09-2.07,4-4.26C293,845.27,289.19,845.64,286.87,844.51Zm321.87-195.9c3.85-.5,8.36.14,8.12-4.23-.17-3.16-4.27-3-7.11-3-2.55,0-5.33.44-5.44,3.65C604.21,648.41,606.8,648.81,608.74,648.61Zm52.68,47.13c-2.75.26-5.47,1.35-5.14,3.81.57,4.28,5.27,4.3,8.3,5.78,1.41.69,3.42-1.4,2.88-3.22C666.5,699.06,664.76,696.33,661.42,695.74ZM242.73,865c-6.83,2.76-8.92,9.83-13.58,14.52a2.09,2.09,0,0,0,.1,2c1,1.16,2,.21,2.93-.44C237.73,877.1,240.15,871,242.73,865Zm37.1,22.7c2.76.1,6,.27,6.13-3.37s-3.1-3.74-5.85-3.61-6.66,0-6.8,3.55c-.16,4.07,3.79,3.26,6.52,3.43ZM655.16,760.24c-4,0-8.18,2.77-8.34,5.29-.13,2.26,1.2,3,3.16,3.12,3.92.17,9.51-3.12,9.13-5.49S656.78,760.4,655.16,760.24Zm49.21-118a26.83,26.83,0,0,0-4.2.24c-2.15.45-4.33,1.45-3.71,4.06s2.32,4.4,5.49,3.13c1.06-.42,2.22-.59,3.26-1,2.1-.91,4.77-1.9,4.27-4.58s-3.37-1.67-5.06-1.87ZM425.89,823.42c-.59-3.43-2.18-5.49-5.64-5.58-2.83-.06-5.27,1.31-5.52,3.93s2.14,5.05,4.68,4.39C421.51,825.61,425.12,827,425.89,823.42ZM553.28,648.23c-2.68.17-7.44,5.79-7.29,8.64.1,1.76,1,2.86,2.83,2.89s8-7.29,7.79-9.26S554.88,648.28,553.28,648.23ZM689.53,491.76c2.57-1.16,5.5-2.44,5.7-6,.14-2.53-1.53-4-4.08-3.42-3,.65-6.25,1.72-6.12,5.6C685.1,490.1,686.66,491.74,689.53,491.76ZM326.78,429c0,4.17,2.46,5,5,5a5,5,0,0,0,4.9-4.71,4.68,4.68,0,0,0-4.7-4.66h-.15C329.21,424.77,326.9,426.48,326.78,429ZM470,378.52c2.89-.53,6.33-.09,8.42-3.34a2.08,2.08,0,0,0-.23-2.93l-.17-.13c-3.38-2.23-6.48-1.05-9.51,1-1.49,1-4.25,1-3.7,3.54s3.32.84,5.19,1.86Zm-5.5,445.9c2.22.13,4.73-.85,4.6-4.29a4,4,0,0,0-3.84-4.15,3.88,3.88,0,0,0-.76,0c-2.76.38-6.39,1-6.63,4.37S460.77,824.37,464.5,824.42ZM405.21,567.73c2.86.17,4.93-.49,4.79-3.23-.17-3.53-2.6-5.55-5.9-5.82-2.36-.18-4.82,1.17-4.78,3.86C399.42,566.36,402.58,567.21,405.21,567.73ZM622.5,669.07c0-3.06-4.57-7.63-7.53-7.39-2.23.18-4.42,1.18-4.11,3.74.71,5.89,6.86,3.11,9.85,5.66C621.67,671.88,622.54,670.37,622.5,669.07ZM639,702.65c-.64-2.14-1.39-4.71-4.14-4.62-3.21.11-6,1.73-6.39,5.35-.25,2.45,1.32,4.23,3.89,3.66S638.32,706.67,639,702.65Zm15.88-50.14c2.66-1.27,6.57-1,6.79-5.5.13-2.53-1.4-3.54-3.59-3.16-3.16.54-6.82,1.14-7.54,4.87C650.1,651.05,652.6,652,654.88,652.51Zm-401,249.76a1.43,1.43,0,0,0-.92-1.8h0c-1-.48-1.81.15-2.53.78-4,3.46-5.8,9-10.75,11.58-.34.18-.44,1.55-.13,2a2.49,2.49,0,0,0,2,.64c2.51-.26,12-10.59,12.33-13.2ZM518,730c-.25,2.68.52,5.22,2.75,5.19,3.42,0,5.23-3.13,5.5-6.13.2-2.31-1.09-5.38-4-5.18C518.66,724.12,518.67,727.71,518,730Zm73.68-60.32c.14-3.46-1.58-4.15-4-4.23-4-.12-6.09,1.82-6.5,5.63-.21,1.95.94,4,2.76,3.46C587,673.66,590.81,673.22,591.69,669.69ZM240.33,823.17c-2.8,0-5.5.82-5.48,4.23,0,3.73,3.56,3.39,5.94,3.91,3.1.67,4.93-1.63,4.94-4.15C245.74,824.31,243.21,823.21,240.33,823.17ZM548,629.09c-2.06.08-4.61.19-4,2.76,1,4.56,5.47,3.92,8.81,4.76,1.6.41,3.14,0,3.1-2.18C555.79,628.88,550.9,630.39,548,629.09Zm-23.69,137.6c-.22-1.74-.72-3.4-3-3.31-4.2.18-6,3-6.59,6.66-.3,1.73.28,4.15,2.47,3.48C520.42,772.52,523.51,770.66,524.32,766.69ZM382.1,466.45c5.08.47,7.29-1.68,7.88-5.23.36-2.12-1.6-3.18-3.38-2.63-3.14,1-7.19,1.5-7.86,5.44C378.2,467.27,381.35,466.34,382.1,466.45ZM547.89,708.08c-.13-3.15-2.07-3.5-4.33-3.49-3.19,0-6.41.38-6.84,4.27a3.38,3.38,0,0,0,2.72,3.92,3.29,3.29,0,0,0,1,0C543.76,712.5,546.7,711.38,547.89,708.08Zm-41.68,147.4c0,2.09-.45,4.6,1.94,4.37,4.17-.4,5.77-3.92,6.9-7.47.7-2.17-.61-3.7-2.49-3.58C508.42,849.06,507.42,852.7,506.21,855.48ZM663.49,749.54c2.63-.49,6.29.72,6.36-3.21,0-2.94-3-3.93-5.4-3.76-3.08.21-6.7,1.94-6.72,4.94C657.72,750.88,661.59,748.94,663.49,749.54Zm-42.07,59.39c3.25.08,8.06-4,7.93-6.57-.1-1.81-1.44-3.23-2.9-2.79-3.46,1.06-6.76,3-8.13,6.48C617.47,808.06,619.9,808.59,621.42,808.93Zm39.51-89.63c-1.14-3.1-3.6-4-6.28-4.07-3.46-.1-5.1,2.27-5.46,5.33-.24,2,1.42,3.56,3.22,2.78,2.74-1.2,6.9.12,8.48-4ZM559.62,785.69c2.54-1.26,6-2,6.36-5.49.28-2.52-1.82-4.23-4.43-4-3,.24-5.51,1.92-5.73,5.15a4,4,0,0,0,3.64,4.33ZM690.86,583.63c-3.33.1-6.05.78-6.09,4.65,0,2.16.4,4.33,3.07,4.74,2,.3,7.19-4.71,7-6.75C694.69,583.54,692.54,583.74,690.86,583.63ZM438.25,869c2.63-2.14,8.34,1.9,9.11-3.85.37-2.77-3.15-2.69-5.38-2.67-3.34,0-6.9.64-7.81,4.29C433.61,869,436.47,868.51,438.25,869ZM721.14,561.29c-.28-1.88-1.48-3.72-3.85-3.66-3.75.09-5,3.15-5.5,6.2-.28,1.87.77,4.2,3.16,3.81A7.06,7.06,0,0,0,721.14,561.29ZM566,828.06c2.53-.66,6.14,0,6.19-4.15,0-3.23-2.51-4-5.1-3.95-2.83.08-5.37,1.37-5.7,4.43S563.49,828,566,828.06ZM692.18,692.41c1.5.28,2.91-1,2.86-3.53-.07-4.09-3.25-4.6-6.31-4.9-2.37-.23-4.17.74-4.09,3.45C684.76,691.58,687.94,691.88,692.18,692.41Zm-284-242c-2.1,1.17-6.09.88-6.45,5.14a3.39,3.39,0,0,0,3.14,3.62h.48c3.34-.2,6.34-1.53,6.64-5.58.14-2.1-1-3.16-3.82-3.21Zm126.9,335.44c-.07-1-1-2-2.94-1.6-3.51.78-6.65,2.26-7.49,6.17-.46,2.16,1,3.08,3,3.2,3.08.15,7.44-3.94,7.42-7.8ZM240.91,486.16c2.45-1,5.66-2.26,6-5s-2.91-3.78-5.31-3.9c-2.86-.15-4.47,1.77-4.57,4.66C237,484.31,238.09,485.88,240.91,486.16ZM733,654.16c2.5.26,5.34-.18,5.3-3.33,0-3.91-3.71-3.63-6.4-3.78-2.13-.12-5-.48-4.73,3.13s2.7,4.12,5.83,3.93ZM449.58,400.88c-2.62.07-5.2.56-5.25,3.81,0,2.44,1.23,4.36,4.15,4.34,3.29,0,5.62-1.75,6-4.84S451.92,401,449.58,400.88Zm10.53-5.59c.78-2.67,5.6-.69,6-4.69a3.48,3.48,0,0,0-2.9-4,3.53,3.53,0,0,0-.92,0c-2.79.39-6.36.88-6.56,4.93C455.65,393.72,457,395,460.11,395.29Zm-54.2,32.22c2.87.22,5.81-.58,5.63-3.37s-3-4.64-6.09-4.74c-2.77-.09-4,1.7-4.11,4.34C401.16,427.23,403.23,427.88,405.91,427.51ZM442.56,393c3.18-.17,5.85-1.7,6.2-5.54.2-2.17-1.69-3.18-3.48-2.59-3.07,1-7.34,1.1-7.81,5.35-.32,2.89,2.59,2.62,5.09,2.78ZM720.42,539.37c-.15-1.52-.73-4-2.58-3.37a10.19,10.19,0,0,0-6.8,7.74c-.42,1.92.89,3.29,2.83,3.55S720.42,542.15,720.42,539.37ZM500.24,381.2a7.13,7.13,0,0,0,1.6-1.3,61.33,61.33,0,0,0,7.51-15.28,1.67,1.67,0,0,0-.71-2.24l-.24-.1c-1.15-.36-1.74.58-2.13,1.4-2.28,4.79-4,9.86-7.14,14.21C498.27,379.06,498.28,380.42,500.24,381.2Zm75.41,467.16c2.55.18,8.35-6.07,7.88-8.67a4,4,0,0,0-1.47-2.23,1.51,1.51,0,0,0-2.1.37,1.72,1.72,0,0,0-.21.43,9.12,9.12,0,0,1-5.88,4.88c-1.2.38-1.49,1.63-1.11,2.84A3.32,3.32,0,0,0,575.65,848.36ZM328.42,889.3c3.26-.33,5.91-1.43,6.1-4.55s-2.58-3.52-4.92-3.18c-2.51.37-5.92.41-5.76,4.12C324,888.32,326.21,889.4,328.42,889.3ZM275.61,639.88c-4-.24-5.76,1.4-5.77,4.67,0,2.39,1,3.89,3.76,4,3.69.21,5.38-2,5.86-5S277.31,640.08,275.61,639.88ZM419.85,469.39c-.56-2-1.08-4.48-3.83-3.94-3.62.7-4.18,4.11-4.64,7.06-.27,1.68.59,3.79,2.82,3.38C417.55,475.28,419.28,472.81,419.85,469.39Zm261.57,40.12c-.12-3.28-1.87-4-4.25-3.9-3.07.13-5.9,1-6,4.55-.09,2.29,1.77,3.8,4.24,3.54C678.28,513.39,681.05,512.66,681.42,509.51ZM530.49,636c-2.69.18-5.58.26-5.69,3.93-.07,2.09,1.48,4.25,3.36,3.57,2.32-.85,6.32.84,6.85-3.09C535.42,637.61,533.63,635.79,530.49,636Zm69.25,101.48c-.16-2.37-.71-4.19-3-3.72-3.54.73-5.49,3.32-6.13,6.77-.37,2,.79,3.93,2.65,3.58,3.65-.69,5.36-3.75,6.48-6.63ZM330.11,409c3.71.65,6.26-1,6.75-4.47.39-2.76-2.29-2.45-4.11-2.42-3.15.06-6.64.49-7.2,4.16C325.09,409.21,328.15,408.79,330.11,409Zm367.46,63.27c1.61-.4,5.47,1,5.69-2.68.23-3.88-3.83-3.57-6.4-4-2.27-.37-4.91.16-4.8,3.31C692.17,471.62,694,472.82,697.57,472.25ZM505.42,644.88c2.47-.18,5.31.92,5.27-2.36,0-3.79-3.32-4.87-6.29-5.37-2.53-.43-3.81,1.52-3.87,3.84C500.42,644.72,503,645.08,505.42,644.88Zm45,200c2.66-1.41,5.86-2.62,6.37-6.19.23-1.66-1.24-3.61-3.09-3.29a8.29,8.29,0,0,0-6.64,6.17c-.45,1.73,1.36,2.84,3.36,3.25ZM223,671.28c2-.07,7.53-7.45,7-9.23a2.59,2.59,0,0,0-1.42-1.55,4.22,4.22,0,0,0-5.27,2.22c-1.21,2.43-2.25,5.1-1.53,7.95C221.84,671,222.69,671.14,223,671.28ZM672.9,734.67c1.14-.07,4,.81,3.78-3-.2-4-3.54-3.37-6-3.82s-4.54.62-4.59,3.11c-.05,3.82,3,3.81,6.81,3.71ZM324.53,453.56c0-2.77-1.54-4.33-3.87-4.06-2.71.3-5.17,1.75-5.29,5s2.82,3.35,4.84,3.69C323.72,458.74,323.66,455.5,324.53,453.56ZM362,866.62c-3.15.69-6.26,1.52-6.44,5.77-.08,1.9.93,3,2.8,2.65,3.56-.66,6.72-2.26,7.44-6.12C366.36,866,363.49,867.39,362,866.62ZM716.81,477.73c-.53-2.17-1.5-3.65-3.61-2.93-2.84,1-6,2-6,5.84,0,2,1.19,3.51,3.16,3.12C713.67,483.08,715.69,480.66,716.81,477.73ZM212.28,629l1.46,1.28c4-4.41,8.44-8.34,11.29-13.76a2.13,2.13,0,0,0-.48-3l0,0c-1.4-1.06-2,.19-2.6,1C218.67,619.35,215.48,624.18,212.28,629ZM656.92,789.34c-1-2.24-2.68-3.32-4.68-2.78-3.41.93-6.25,2.86-6.57,6.75a2,2,0,0,0,2,2,2.11,2.11,0,0,0,.86-.18C651.69,793.8,655,792.48,656.92,789.34Zm-54,1.37c1.45-.31,4.53,1.63,4.6-1.8.08-4.12-3.65-4.22-6.58-4.69-2.4-.39-4.65.8-4.45,3.14.25,3.37,3.21,3.67,6.38,3.35ZM608.53,722c1.82.05,3.53-1.55,3.67-4.37.14-3-2.18-3.67-4.61-3.67a5,5,0,0,0-5.27,4.71.41.41,0,0,0,0,.11c-.15,2.82,2.66,3.07,6.17,3.22Zm126-165.66c2.54-1.45,6-2.62,6.37-6.59.16-1.79-1.62-2.48-3.28-2-3.31.91-6.82,2-7.3,6C730.12,555.47,732.13,556.43,734.53,556.37ZM625.87,756.88c2.33-1.07,6.83,1.21,7.6-3.33.52-3-2.55-3.11-4.92-2.93-3.27.23-7.08.47-7.57,4.39C620.64,757.88,623.75,756.46,625.87,756.88Zm83.85-75.1c-3.12-.32-4.34.84-4.4,3.51-.08,4.07,3.51,3.88,5.62,4.09a4.46,4.46,0,0,0,4.74-4.59c-.4-3.42-4.33-1.91-6-3Zm-6.82,19.6c-2.77.24-4.25,1.74-3.94,4.12.46,3.56,4,3.91,6.48,4.6s2.31-1.92,2.23-3.56c-.14-3.12-2.06-4.66-4.77-5.15ZM535.11,748.75c-.21-3.43-3.06-3-5.05-3.07-2.2-.11-5.07.22-5,3.26.08,2.48,2.2,3.94,4.75,3.9S534.59,751.73,535.11,748.75ZM715.75,528.93c2.52.21,4.31-.18,4.15-2.86-.18-2.85-1.55-4.66-4.66-4.58-2.72.06-5.19.82-5.13,4C710.18,529.62,713.77,528.4,715.75,528.93ZM644.93,619.3c3.08-.81,6.36-1.86,6.86-5.12.37-2.44-2.56-3.12-4.57-3.15-3.07,0-4.74,2-5.06,5C642,617.94,642.87,619.24,644.93,619.3ZM424.7,436.64c-.26-2.82-2.07-3.58-4.7-3.53-2.81.07-4.28,1.67-4.43,4.17-.17,2.86,1.84,3.89,4.43,4C423.05,441.32,424.42,439.65,424.7,436.64ZM376,382.19c-2.13.14-4.78.27-4.68,2.95.12,3.13,2.79,4,5.67,4.35,3.41.44,4.9-1.94,4.82-4.21C381.64,382,378.19,382.76,376,382.19ZM710.18,728.5c1.34-.27,4.26.22,4.37-3,.12-3.6-2.72-3.53-5.29-3.49-2.33,0-5-.08-4.9,3.25C704.42,728.25,706.85,728.66,710.18,728.5ZM639.29,604.78c1.81-1.06,5.21-.72,5.14-4.53a3.14,3.14,0,0,0-3.78-3.29c-2.65.43-6.28.57-6.3,4.35C634.33,603.44,636.42,604.72,639.29,604.78Zm101.25-33.41c-1.69.67-4.38,1.7-4.58,4.79-.12,1.81,1,4.25,3.25,3.93a6.1,6.1,0,0,0,5.35-5.77c.22-2.18-.94-3.16-4-3Zm-235,229.82c.46-2.21,0-3.77-2.38-3.63-3.48.21-5.66,2.29-6,5.7a3.14,3.14,0,0,0,2.7,3.53,3.24,3.24,0,0,0,.88,0c3.12-.38,5.23-2.14,4.71-5.59ZM743.42,605.45c-.21-2.51-1.34-4-3.61-3.71-3,.42-5.45,2-5.8,5.28a2.61,2.61,0,0,0,2.13,3,2.7,2.7,0,0,0,1.06,0C739.9,609.44,742.72,608.53,743.42,605.45ZM552,685a6.43,6.43,0,0,0,4.21-5.68c.15-2.67-1.83-3.55-4.19-3.59-3-.06-4,1.83-4.09,4.41S549.58,684.25,552,685ZM672.24,452.41c-.11-2.73-1.53-4.34-3.89-4.12-3.37.32-3.69,3.46-4.11,6-.34,2.06.81,3.92,3.09,3.9C671.11,458.13,671.15,454.66,672.24,452.41Zm-243-35c.41-2.28-.79-3.54-2.34-3.43-3.1.23-6,1.48-6.68,4.94-.43,2.24,1.37,3.56,3.43,3.56,3.41,0,4.49-2.78,5.55-5ZM388.36,852.6c.11-1.83-.84-3.51-3.15-3.4-2.92.14-5.89,1.09-6.19,4.56a3.4,3.4,0,0,0,3.18,3.59h.48C385.15,857,388.19,856.67,388.36,852.6Zm205.79,82.78c-5.78-1.49-10.18-1.16-14.42.94-1,.52-2,1.34-1.77,2.63a1.66,1.66,0,0,0,1.86,1.41l.29-.07C584.52,939.05,589.42,939.19,594.15,935.38Zm50.67-267.33c2.44.1,4.21-1.17,4.17-4.35,0-2.61-1.85-3.21-3.91-3-2.54.19-5.21.66-5.17,4.06C639.94,667.46,641.9,668.14,644.82,668.05ZM396.07,440.52c-2.44,1-6.52-.4-7.08,3.93-.32,2.42,2,3.22,3.85,3.27,3.44.09,5.72-2.31,6.7-5.12C400.18,440.79,397.66,440.88,396.07,440.52ZM682.07,632c-.63-2.3-2.24-3.3-4.31-2.89-2.7.52-5.4,1.83-5.5,4.87-.07,2.07,2,3.16,4.19,2.78,2.79-.49,5-1.8,5.66-4.76ZM480.71,621.88c2.66-1.3,5-3.17,5.17-6.58.1-2.18-1.58-2.92-3.51-2.68-3.27.41-4.15,3-4.59,5.69C477.48,620.11,478.16,621.73,480.71,621.88Zm188.89-24.2c-2,.34-5.06.72-5.35,4.35a2.74,2.74,0,0,0,2.31,3.11,2.78,2.78,0,0,0,.91,0c2.87-.6,6.29-1.13,6.59-5C674.23,598,672.42,597.37,669.6,597.68Zm15.15,52.52c-.11-2.32.07-4.24-2.2-4-3.64.45-5.52,3-6.43,6.33-.42,1.51.44,3,2,2.51C681.07,654.21,684.65,653.71,684.75,650.2ZM533.66,696.52c-1.18-2.44-2.91-4.23-5.67-4.2a3.55,3.55,0,0,0-3.59,3.51,2.26,2.26,0,0,0,0,.26c0,2.85,2.06,4,4.64,4A4.53,4.53,0,0,0,533.66,696.52ZM636,739.3c2.85-.45,5.46-1.53,6-4.91.36-2.45-1.82-2.8-3.42-2.77-2.84,0-5.26,1.21-5.71,4.41C632.55,738.12,633.83,739.15,636,739.3Zm-82.41,76.78c2.66-1.14,5-2.67,5.34-6,.23-2.24-1-3-3.14-3-3.57.1-5.11,2.41-5.43,5.47C550.18,814.42,551.48,815.76,553.61,816.08Zm160.12-209.2c-2.19.6-4.49,1.63-4.63,4.63-.1,2.11,1,3.94,3.36,3.71,2.89-.27,5.12-2,5.4-5C718.07,607.88,716.29,607,713.73,606.88ZM374.42,399.4c-2.72,1-4.83,2.79-5.09,6-.19,2.32,1.17,3.38,3.49,3.38,4.83,0,3.32-4.24,4.33-6.65C378,400.19,376.24,399.57,374.42,399.4Zm27.8-23.15c-2.59.31-5.21.42-5.2,4,0,2.49,1.52,3.2,3.69,3.41,3.84.39,4.46-2.67,5-5.11.63-2.8-2.22-1.67-3.48-2.3ZM575.22,559c-1.42,4.75-1.06,9.44-.53,14.12.12,1,.28,2.5,1.79,2.53s1.9-1.41,1.83-2.45c-.35-4.84-.39-9.77-3.12-14.2ZM692.34,752.1c-2.22,1.26-5.22,2.35-5.28,6,0,1.72,1,3.11,2.78,2.68a6.37,6.37,0,0,0,5.26-6.44c0-1.61-.59-2.46-2.79-2.24ZM677.42,465.43c-2.23.37-4.18,1.44-4.18,4.26,0,2.4,1.28,4.24,3.8,4,2.79-.28,4.28-2.37,4.41-5.12C681.56,466,679.84,465.36,677.42,465.43Zm4.26,88.67c-2.12.45-4.55,1.48-4.94,4.65a2.69,2.69,0,0,0,2.12,3.16,2.54,2.54,0,0,0,1,0c2.5-.25,4.93-1.24,5.07-4.34.06-1.7,0-3.59-3.25-3.48ZM415.21,857.54a3.71,3.71,0,0,0-4.14-3.1c-2.54.17-4.45,1.36-4.32,4.13.09,1.95,1.08,3.86,3.49,3.55A5.43,5.43,0,0,0,415.21,857.54Zm61.72,79c1.66-1.32,6.1,1.43,6.22-2.1.11-3.22-4.29-2.27-6.67-2.4s-6.72-.58-6.62,2.53c.11,3.56,4.09,1.87,7.07,2Zm95-276c-.57-2.23-1.51-4.15-4.06-4s-4,1.88-4.25,4.44c-.21,2.18.5,3.92,3,3.78a5.54,5.54,0,0,0,5.29-4.22Zm124.63-95.06c-2.65.17-4,1.71-4.29,4.34-.21,2.27.94,3.8,3.11,4,3,.32,3.73-2.2,4.21-4.38S699,565.8,696.56,565.48ZM420.42,874.1c-2.5.75-4.46,2.13-4.86,4.93-.3,2.08.75,3.47,2.84,3.33a4.78,4.78,0,0,0,4.9-4.62A3.23,3.23,0,0,0,420.42,874.1Zm153.29.44c3.16-1.49,8,0,9.6-4.14.58-1.52-2.74-1.22-4.25-1.25-3.15-.07-6.77-.3-8.16,3.39-.58,1.47,1.25,2,2.79,2Zm90.61-193.82c-2.34,1.18-5.44,1.74-5.86,5.2a2.17,2.17,0,0,0,1.67,2.57,2.1,2.1,0,0,0,.66,0c3.06-.16,5.55-1.54,6.32-4.64.39-1.63-1-2.72-2.81-3.17Zm74.5-154.28c-.5-2-1-4-3.51-3.72s-4.42,1.7-4.49,4.33a3.45,3.45,0,0,0,3.18,3.7h.38C736.88,530.68,738.42,529,738.82,526.44ZM562.05,621.22c-.69-1.64-.59-4.37-3-4.13-2.86.29-3.84,3-4,5.5-.16,1.94.77,4.09,3.25,3.73S561.73,623.7,562.05,621.22Zm-84.8,222.55c-5.51-2.37-10.09.77-14.93,2.34a1.53,1.53,0,0,0-1,1.9,1.57,1.57,0,0,0,.22.45c.58,1.11,1.62.86,2.46.39,4.16-2.33,9-2.76,13.29-5.08Zm-22.83-470c.36-2.83-.37-3.94-2.39-3.67-2.65.36-4.73,1.23-4.57,4.6.11,2.36.86,3.39,3.38,3.34C454.65,377.93,454.1,375.05,454.42,373.73ZM249.91,850.78c2-1.28,4.17-2.61,4.55-5.2s-1.56-3.08-3.63-3.13c-2.88-.07-4.09,1.74-4.25,4.22C246.42,848.76,247.7,850.14,249.91,850.78Zm15.93,30.92c-3,2.65-5.12,4.44-7.11,6.41-1.68,1.67-1.48,3.49.46,4.82s3.55.28,4.22-1.39C264.5,888.88,266.17,886.18,265.84,881.7Zm401-109.11c2.38-.24,4.46-1,4.34-3.64s-2.4-3.22-4.57-3.16a3.8,3.8,0,0,0-3.88,3.72c0,.12,0,.24,0,.36,0,2.54,2.33,2.56,4.12,2.72Zm-31.63-193.3c-1.86.86-3.41,2-3.61,4.42s.49,4.4,3,4.67,3.53-2.13,3.82-4.11a4.54,4.54,0,0,0-3.19-5Zm3.59,50.64c-2.53.11-4.31,1.33-4.44,3.63-.17,2.92,2.26,3.61,4.6,3.78s3.3-1.62,3.51-3.58c.29-2.64-1.58-3.48-3.65-3.83ZM483.42,921.66c-4.69-2.42-8.59-1.24-12.45.52-1.18.54-1.84,1.51-1.32,2.73a1.81,1.81,0,0,0,2.44.78l0,0C475.48,924,479.59,924.46,483.42,921.66Zm124.7-499c-2.37-5.35-5-10.49-9.57-14.26,1.32,6,5,10.48,9.55,14.28Zm-32.8,376.09c-.68-1.62-.87-4-3.29-3.76-2.22.23-3.55,2.06-3.83,4.28-.26,2,.84,3.22,2.9,3.28C573.6,802.62,574.72,801,575.32,798.75Zm114.9-340.34c1.8-.91,3.63-2.08,3.52-4.5a3.33,3.33,0,0,0-3.36-3.28c-2.52.08-3.51,2.09-3.47,4.41a3.11,3.11,0,0,0,2.83,3.37Zm-103,465.34c-1.85,1.54-5.94-.77-7.19,3.23a1.46,1.46,0,0,0,.93,1.84,1.48,1.48,0,0,0,1.13-.09c2.7-1.08,6.27-.63,7.93-3.47.73-1.23-1.07-1.54-2.79-1.51Zm-327-303.1c-.5-1.61-.91-3.43-3.12-3.31-1.86.11-3.49,1.34-3.51,3.06a3.41,3.41,0,0,0,3.14,3.66h.33c2,0,2.78-1.56,3.12-3.42Zm40,292.15a17,17,0,0,0-7.54,7.73c-.28.59.49,1.8,1.23,1.54,3.27-1.16,4.5-4.37,6.38-6.91.24-.28,0-1-.07-2.36Zm178.49-53c-3.9-2.78-7.06-.93-10.31.18a1.36,1.36,0,0,0-1,1.62.74.74,0,0,0,0,.14,1.4,1.4,0,0,0,1.74.92l.08,0c3.2-.86,6.33-1.84,9.49-2.75ZM295.94,927.37c4.66,0,6.44-2.12,7.66-5,.38-.89.47-2-.52-2.53a1.66,1.66,0,0,0-2.24.74,1.19,1.19,0,0,0-.11.26C300.12,923.16,298.16,924.46,295.94,927.37Zm283.48-7.49c2.17-1,4.3-2.17,6.8-2.44a1.06,1.06,0,0,0,.87-1.22,1,1,0,0,0-.27-.55c-1.42-1.75-3.23-.84-4.59-.06-1.63.93-4.52.41-4.57,3.37C577.66,919.94,578.64,919.88,579.42,919.88Z" transform="translate(0 -0.02)" style="stroke-miterlimit:10;fill:url(#radial-gradient);stroke:url(#linear-gradient)"/><path d="M891.06,156.47c-2.17,6.24.79,13.06-2.26,19.32-2.53-1.76,1.65-6.07-2.54-6.07-3.39,0-3.84,3.33-3.49,6.14,2.43,19.26.76,38.58.9,57.88.25,31.81,1.28,63.64,7.28,94.94,3.3,17.22,9.31,33.9,13.12,51,6.1,27.43,9.62,55.34,14.28,83,3.76,22.39,7.92,44.72,11.7,67.11,4.45,26.3,6.78,52.8,5.39,79.46-2.35,44.91-4.86,89.83-5.29,134.8-.28,29.3-4.14,58.18-7.74,87.12-.64,5.13-.58,10.3-.94,15.42-.24,3.37.27,9.11,6.9,8a1.81,1.81,0,0,1,1.37.57c2.83,3.13,5,2.93,6.25-1.31,4.9-16.24,11.2-32.23,10-49.7-1.27-18.51,4-35.94,8.78-53.46,3.68-13.43,7.32-26.86,9.72-40.63,2.17-12.41,5.27-24.65,7.89-37a12,12,0,0,1,5.08-7.42c-3.5,13.19-5,26.68-7.77,39.93-5,23.91-10.53,47.7-15.17,71.67-1.84,9.52-1.66,19.41-2.81,29.09-1.61,13.63-3.62,27.21-5.39,40.83a53.49,53.49,0,0,0-.42,8c.17,7.66,1.41,8.24,9.06,7.19,5.13-.7,10.44-.13,17-.13-2.82,2.48-4.68,3.41-7.06,3.39-19.9-.1-39.61-1.44-58.93-6.92-4.09-1.16-9.12-.19-13.44.9a363.11,363.11,0,0,1-36.56,7,50.53,50.53,0,0,1-28.08-3.56c-8.87-4-17.9-6.65-27.88-2.87,7.82-19.57,6.56-40,10.42-59.63,2.39,3.36,3.46,9,3.87,18.16.44,9.75.25,19.52,1.58,29.23.78,5.72,3.75,7.77,9,5.12,4-2,7.28-3.58,11.25.42,3.28,3.3,6,1.07,7.34-2.55a53.26,53.26,0,0,0,3.46-16.2c.57-16.93-1.82-33.64-3.55-50.39-2-19.33-.88-38.7-.8-58a210.8,210.8,0,0,0-6.16-51.07,196.08,196.08,0,0,1-4.19-71.22,4.87,4.87,0,0,1,.47-1.62c.14-.27.58-.4,1-.66,2,12.63,1.67,25.39,3.66,38,2.77,17.59,6.14,35.06,9.17,52.59,3.69,21.28,7.36,42.56,10.76,63.89,2.34,14.71,6.22,29.18,7.14,44.1A230.36,230.36,0,0,1,863,840.54c-.52,4.5-.89,8.31.14,12.84,1.22,5.37,3.3,3.86,5.68,1.8a22.18,22.18,0,0,0,6.36-10.08,146.11,146.11,0,0,0,7.53-46.22,92.35,92.35,0,0,1,.42-10.78c3.39,10.9,1.63,21.82.22,32.75s-2.85,22-4.17,32.94c-.17,1.36-.75,3.3,1.34,3.87s2.57-1.2,3.14-2.59c5.08-12.59,10.85-25,14.9-37.88,1.89-6.06.06-13.13.86-19.81,1.13-9.49,1-19.12,1.74-28.68,1.83-24.6-4.53-48.24-8.12-72.22-5.08-34-9.81-68.15-15-102.19-4.3-28.36-9.19-56.63-13.48-85-3.06-20.23-4.82-40.67-8.52-60.76-4.82-26.14-12.26-51.68-20.91-76.84-3.84-11.14-7.27-22.43-11.06-34.21,3.19,1,3.63,3.42,4.41,5.32,11.16,27.26,22.25,54.59,28.43,83.5,3.75,17.56,6.65,35.31,9.49,53,4.59,28.66,8.07,57.5,13.7,86,6,30.37,11.22,60.86,15.38,91.57,3.14,23.11,5.25,46.38,9.2,69.36a196.25,196.25,0,0,1,1.62,54.33c-1,9.09-.22,18.47-2.1,27.33-1.41,6.71,1,12.76.45,19.13-.13,1.51-.55,3.93,1.95,4.07S909,829,909,827.33c.56-21.32,6.25-41.9,8.94-62.9,1.65-12.87,2.58-25.85,3.49-38.8,2.22-31.74,3.16-63.51,2.45-95.34a769.21,769.21,0,0,0-12.16-118.73c-5.25-29.32-11.6-58.47-15.07-88.06-2.21-18.83-4.18-37.6-9.39-55.91a161,161,0,0,0-8.07-22.65c-5.06-11.11-3.82-23.32-5.53-35-2.19-14.92-2.62-30.11-3.71-45.19-1.25-17.38,2.38-34.3,4.93-51.33,2-13,3.72-26.06,5.64-39.08.43-3,.84-5.82,4.51-7.2,2.3-.86,3.39-3.48,3.3-6.24C888.34,159.16,888.2,157.18,891.06,156.47Z" transform="translate(0 -0.02)"/><path d="M435.16,156.13c7.79,4,11.8-4,17.85-5.28,3-.65,4.07-3,4.24-6,1.11-19.49,11.5-33.62,26.6-44.69,9.1-6.67,9.84-16.89,12-26.38,4-17.5,2.77-35.45,3.64-53.23.35-7.19,1.84-14,7.63-19.18,1.91-1.7,3.31-1.7,5.45-.5a18,18,0,0,1,8.26,9.27c3.46,9.53,8.17,18.5,11.74,27.93,3.16,8.34,6.47,16.7,7.42,25.69,1.88,17.74,12,28.89,27.74,36.26a38.1,38.1,0,0,1,21.17,25c1.46,5.34,3.82,4.45,7.41,2.91,3.38-1.45,5.65-4.26,9.31-7.59a13.88,13.88,0,0,1-4.63,8.2c-2.94,2.75-7.35,7-5,9.53,2.19,2.4,6-2.85,9.12-4.83s5.4-6.23,11.08-4.71c-6.37,4.2-7.2,12-13.22,15.89-1.35.87-1.66,2.59-1.79,4.12a174.8,174.8,0,0,1-3.08,21c-.56,2.69-.46,3.69,3.63,3.91,5.39.29,10.75-1.64,16.31.56,16.35,6.47,22.94,17.47,23.85,33.87.49,8.78-1.6,16.33-8.89,22.38-6,5-6.66,11.31-3.46,18.11,2.26,4.79,2.71,10.37.32,14.34-2.68,4.44-8.84,4.39-13.73,3.66-5.94-.89-11.59-3.07-17.3-5.16a96.7,96.7,0,0,1-16.32-7.33c-5.8-3.41-10.13-7.47-12.69-13.61-2.8-6.72-8.56-12.12-9.08-20.23,5.56.4,10.87.79,16.18,1.15,3,.2,6-.46,7.64-3.09,6.31-10.38,13.82-20.11,17.89-31.75a19.66,19.66,0,0,0,.73-4.51,11.83,11.83,0,0,0-.32-2.44c-4.34,1.27-4.34,4.8-4.38,7.86a12,12,0,0,1-3.92,9.05,47.71,47.71,0,0,0-9.81,15.38c-1.65,3.92-4.22,5.83-8.56,4.2-1.28-.48-2.66-1-3.91-.35-6,3.11-9.66-.35-13.2-4.52-6.91-8.16-13-17.1-21.08-24.17-4.11-3.59-7-8.93-13.74-9.22-5.06-.21-7.92,2-11.18,5.41-9.2,9.72-12.57,22.58-19,33.75-8.44,14.57-8.5,14.72-22.38,6.07-3.47-2.17-6.73-4.67-10.1-7-.43.64-.87,1.09-.79,1.23,4.33,7.72,11.25,12.82,18.91,16.41,5.12,2.41,9.46-1.09,12.55-5.43,2-2.76,3.81-5.6,6.25-9.2.42,18.86,6.69,36.48,2.39,54.72-1.18,5-3.33,9.44-8,10.93-4.51,1.42-8.15-2.14-10.26-5.83-3.1-5.43-8.73-3.66-13.09-5.2-2.75-1-4.37,2.25-5.1,5.06-1.84,7-4.75,8.16-9.92,3-8.93-8.84-15.75-18.84-16.19-32.24-.53-16.45,5.21-30.19,16.83-41.49,3.25-3.17,4-5.65,1.91-9.87a52,52,0,0,1-4.12-31.9c.47-2.8-.31-4-3.26-4.78C444.87,160,439.72,159.71,435.16,156.13Zm22.26,72.25a1.54,1.54,0,0,1,.56-.1.58.58,0,0,1,.33.37c.45,2.26-1.16,5.31,2.44,6.49,1.52-1.77.61-3.72.69-5.52.06-1.34,1.18-3.31-1-3.89s-2,1.79-3,2.77c.07-2.23,2.59-5.57-1-6.33s-2.13,3.81-3.28,5.17c-2.15.35.33-5.07-2.69-2-2.32,2.4-4,6.64-1.33,11.76,1.11-2.69,1.72-4.18,2.33-5.67a6.71,6.71,0,0,1,.52,4c-.65,6.09-1.64,12.17-1.94,18.28-.68,14.21,5.53,19.46,18.51,15.43A21.3,21.3,0,0,1,486.62,271c1.68,1,3.82,3.27,5.64,1.59,2.08-1.92.4-4.52-.44-7.17-1.95.48-2.52,4.14-5.28,1.77-2.09-1.8-6.28-14.84-4.85-17.18a2.94,2.94,0,0,1,.83-.78c3-2.17,1.9-5.37,1.37-7.91-.8-3.76-5.32-3.8-7.68-4.05-2.64-.28-.56,3.07-.45,4.94.31,5.6.36,11.11,4.55,15.7,1.25,1.36.48,4.65-.75,5.27-2.61,1.34-5.84,1.41-8.74,2.28-2.53.77-2-1.43-2.9-2.42-1.42-1.61-2.48-.37-2.83,1-.54,2.19-1.8,3.63-4,3.23-3.49-.64-8.38-9.26-7.37-12.93C456.15,245.88,456.73,237.15,457.42,228.38Zm104.91-66.65-1.28-1.15c5.22-7.11,7.51-16.37,17.25-20.09,5.45-2.08,7.2-7.35,5.16-12.75C579.19,116.4,571.21,108,561.69,101c-5.39-4-9-2.22-10.91,4.33-1,3.48-1.47,7.06-2.88,10.48-3.87,9.35-7.77,18.72-11,28.31-3.08,9.11-4.86,18.4,1,27.42A173.8,173.8,0,0,0,565.13,204a49.28,49.28,0,0,0,6.45,4.77c1.51,1,3.43,1.5,4.67-.23a190.5,190.5,0,0,0,16.92-29.13c.92-1.92.11-4.8-1.63-6.36-2.27-2-2.49,1.17-3.71,1.92-.53.33-1.43.09-2.15,0-6.69-.43-10.64-4-12.83-11.68-1.78-6.18-2.84-6.58-8.28-3.09-.71.54-1.47,1.05-2.23,1.56ZM490,172.26c-5.15-5.47-7.18-2.14-8.93,1.8a18.29,18.29,0,0,0-1,3.31c-2.33,9.69-4,10.55-13.09,6.75-4.26-1.77-6.43-.35-6.64,4.34-.54,11.84,3.88,21.1,13.72,28,3.3,2.32,6.7,3.71,10.07,2.18s3.72-5.58,3.69-9c-.11-12,5.59-20.86,14.92-27.47,8.55-6.07,10.37-14.26,8.64-23.71-2.59-14.16-9.81-26.83-13.38-40.71a16.29,16.29,0,0,0-6.31-8.73c-2.58-1.9-5.31-2.84-8.23-.28-8.29,7.28-14.88,15.64-18.9,26.12-2.76,7.2-3,7.84,4.08,11.39,10.54,5.25,18.63,12.63,21.37,26Zm127.82,58.62c-7.13-11.16-11.52-14.42-18.78-14.24,1.86,4,5.13,7,8.33,9.36,7,5.13,10.25,10.65,9.21,19.93-.5,4.46-3.64,5.61-4.52,5-3.52-2.23-7.64-1.29-11.13-3-2.63-1.3-3.76-8.44-8.52-2.4-.07.07-.93-.57-1.46-.75-1.21-.41-2.38-.29-2.71,1.14s.59,2,1.76,2.53c4,1.71,8,3.62,12.12,5.16,2.52,1,3.85,2.41,3.17,6.06,3.18-2.59,5.85-4.17,8.92-4.32,6-.29,7.31-3.78,6.52-8.92-1.13-7.3.52-13.92,4.31-20.28,3.31-5.56,7.54-10.55,10.11-16.57,1.55-3.64,1.39-6.06-2-9.3-6.6-6.24-14.54-10.42-21.53-16-1.45-1.15-3.18-3.22-4.73-.83-1.29,2,.87,3.82,2.44,4.45,6.87,2.75,11.57,8.68,18.08,11.93,2.81,1.4,3.1,4.71,4.26,7.24.74,1.61-1.39,2.48-2.3,3.63-.67.85-1.52.36-2-.15-2.57-3,1.82-.94,1.79-2.39a2.76,2.76,0,0,0-1.33-2.31c-5.08-3.75-10.33-7.3-13.5-13.05-.54-1-1.5-1.86-2.82-.83.2,1.93,2.76,2.67,2.46,5-2.4,1-3.71-2.82-6.18-1.53-.72,2.35,1.33,3,2.5,4,4.57,4,9.28,7.91,13.83,12,3.78,3.37,3.68,6.89,0,10.89-3.28,3.56-4.92-.5-7.16-1.55a25.25,25.25,0,0,1-3.6-2.56c2.41-1.23,4.86.66,5.68-2s-1.49-3.14-2.9-4.29c-4.6-3.71-9.24-7.37-13.73-11.2-1.33-1.14-2.59-1.8-4.06-.83-1.64,1.07-.8,2.61.23,3.35,5.75,4.16,7.61,11.44,13.26,15.89C614.88,221.43,620.05,224.08,617.86,230.88ZM511,62.26c0-7.46.08-12.83-.06-18.2,0-1.43,1.06-4.06-1.52-4-2.08.07-1.81,2.51-1.87,4.23-.18,5.74-.52,11.49-.56,17.23-.09,11-1,22,.58,33,.94,6.53,3.44,12.79,3.61,19.52a9.38,9.38,0,0,0,3.38,6.48,1.88,1.88,0,0,0,2.58.26c.82-.6,1.52-1.8.77-2.44-3.4-2.91-1.43-6.81-1.74-10.1-.61-6.4-4-12-4.39-18.37C511.24,80,510.16,70.09,511,62.26ZM499,239.79c-2.78-.28-1.51,3.29-3.39,2.64a4,4,0,0,1-2.32-4.26c.11-1.42.05-2.91-1.69-3.1-2-.21-2,1.47-2.58,2.93-2.75,6.43-1.64,13-1.22,19.52.19,3,1.69,5.63,4.75,5.34,3.58-.33,2.06-3.58,2.35-5.93.44-3.58-2.4-7.49,1.26-11.73-.44,4.73,1.3,8.45-.17,12.26-.44,1.15-.76,2.92,1.18,3.09,1.66.14,2.14-1.45,2.27-2.78A77.81,77.81,0,0,0,499,239.79Zm5.82-209.91c-2.67,2.06-1.73,4.11-1.82,5.87-.59,10.86,1.28,21.88-1.19,32.59-2.79,12.11.11,23.87,1.15,35.76.14,1.61.61,3.39,2.57,3,1.78-.36,1-2.26.82-3.4A109.13,109.13,0,0,1,505,81.15c.64-12.57.58-25.18.59-37.78C505.61,39.09,506.31,34.63,504.78,29.88Zm26.15,56c-.44-2.64-.92-5.27-1.3-7.92Q526,52.84,522.35,27.7c-.2-1.35.22-3.69-2.1-3.17-2,.47-1.14,2.5-.82,3.9C521,35,520.68,41.75,521.5,48.36c1.56,12.67,3.75,25.26,5.75,37.87.2,1.25.71,2.86,2.48,2.45C531,88.33,531.21,87,530.93,85.88Zm8-3.89.49-.11q-5-21.69-10.07-43.39c-.18-.78-.56-1.46-1.53-1.3s-1.11,1-1,1.72a68.42,68.42,0,0,0,.71,6.86c2.4,12.77,4.83,25.55,7.39,38.29.33,1.62-.82,4.71,2,4.53,2-.13,2-2.94,2.06-4.88-.06-.62-.08-1.2-.08-1.77Zm64.49,158.08c1.48,0,3.16,2,3.94-.46.58-1.82-1.7-2.22-2.44-3.35-3.49-5.32-8.55-9.19-12.51-14-.94-1.15-2.32-2.84-3.78-1.78-2,1.42-.23,3.12.74,4.41,3.21,4.25,6.85,8.22,9.68,12.7C600.42,239.6,600.42,242.16,603.42,240.07ZM517.52,45.44h.24a6.13,6.13,0,0,0,0-2.26c-.67-1.51,1.22-4.57-1.82-4.42-2.42.13-2.05,3.09-1.89,4.72.55,5.86-.23,11.85,1.56,17.58.43,1.4-.35,4.16,2.3,3.53,2-.48,1.37-2.8,1.2-4.48Q518.32,52.76,517.52,45.44ZM518,67c-1.89,5.63-2,11.5-2.73,17.31-.39,3.3,1,5.83,1.84,8.66.24.85.74,1.9,1.91,1.75s1.36-1.36,1.15-2.2c-2-8.38-.34-17-2.17-25.52ZM457.32,258.21c-.07-.64-.09.14.11.85.33,1.14-.54,3.07,1.41,3.21s1.81-1.86,2-3c.74-3.9,1.26-7.85,1.71-11.8.2-1.8-.26-3.71-2.49-3.68s-1.77,1.83-1.82,3.42C458.16,250.45,457.74,253.63,457.32,258.21Zm15.49-22.73c-4.49-1.21-6.62.49-6.15,5.17a11.55,11.55,0,0,1-.83,4.93c-1.25,3.67-1.5,7.5.28,12.85,3.82-8.26.53-17.12,6.7-23ZM588,145.88c.13-3.08-1.19-3.43-3.24-3.34-3.89.16-5.7,2.15-5.82,5.9-.07,2.59,1.67,4.35,3.77,3.91C586.21,151.63,587.29,148.33,588,145.88Zm-13.38,83.9-1.56.71c.85,2.67,1.75,5.32,2.5,8,.17.6,2,2.22-.45,1.89-1.52-.21-2.41-.23-1.87,1.35a8,8,0,0,0,4,4.69c1.79.85,1.73-1,2-1.91C580.87,238.48,576.88,234.45,574.65,229.78Zm7.33-5.33c-.71.35-1.39.46-1.65.86-.63.94-.09,1.78.56,2.52,2.89,3.31,5.72,6.66,8.69,9.89.82.88,1.86,2.44,3.29,1.41,1.6-1.15.19-2.46-.57-3.39-2.52-3.11-5.14-6.13-7.78-9.13a22.81,22.81,0,0,0-2.54-2.16ZM469.13,163.77c2.18-.33,5-.61,4.77-3.16-.26-3.14-3.24-3.9-6.07-3.94-2.12,0-4,.82-4,3.2C463.84,163.4,466.82,163.24,469.13,163.77ZM516.52,23.31c-.4-2.5-.8-5.5-1.39-8.45-.17-.83-.65-1.88-1.92-1.59a1.35,1.35,0,0,0-1.06,1.56l.06.2c1.41,4,.72,8.24,1.24,12.34A2.25,2.25,0,0,0,514.63,29c1.22.24,1.49-.91,1.63-1.81A34.59,34.59,0,0,0,516.52,23.31ZM511,18.12h-1.85c-1.32,5.77.21,11.89-1.52,17.63-.22.73.5,1.42,1.39,1.37a2,2,0,0,0,2-2.1,1.48,1.48,0,0,0,0-.21c0-5.54,0-11.12,0-16.69Zm12.62,64.61c-1.67,5.83-2,10.52.24,15.2.39.84,1.13,1.79,2.2,1.24a2.13,2.13,0,0,0,.74-1.88C525.72,92.88,526.26,88.12,523.62,82.73Zm-3.2,17.33c-.61,3.39-1.19,6.6,1.17,9.41a1,1,0,0,0,1.82-.29c.63-3.24.67-6.44-1.87-9C521.42,100,521.14,100.1,520.42,100.06Zm80.5,124.15c1.75,3.58,3.37,7.31,9.12,9.27-3.29-4.38-5.29-7.68-9.15-9.27Z" transform="translate(0 -0.02)" style="fill:url(#linear-gradient-2)"/><path d="M109.25,545.08c6,7.32,6.09,15.52,7.32,23.07,3.7,22.8,8.5,45.41,13.81,67.84,5,21.09,5,42.28,5.81,63.61.54,13.73,2.63,27.41,4.3,41.07,2.36,19.42,3.56,38.85,2.53,58.42-1.06,20.45-1.75,40.92-2.4,61.39-.26,8.16.24,16.28-1.41,24.43-.6,3,1.16,6.69,2.56,9.73.82,1.79,3.16.72,4.58,0,2.54-1.38,4.86-2.89,4.27-6.63-1-6-1.42-12.15-2.2-18.21-3.17-24.74,1.8-49.33,1.37-74-.5-28.6-3.12-57-6.54-85.31-2.43-20.18-1.55-40.58-2.88-60.84-2.16-32.94,0-65.92-1.37-98.83-.44-10.26-1.84-20.53-2.36-30.86A338.87,338.87,0,0,1,139,460.39c2.89-22.74,5.55-45.51,8.44-68.25.45-3.56,1.59-7,2.52-11,1.95,2.65,2,5.13,1.93,7.75-.44,29.49-1.07,59-4.63,88.3C141,529,142.86,580.84,146,632.69c2.1,35,4.73,69.92,7.23,104.87,3,42.58,6.86,85.11,8.79,127.76.35,7.86.45,15.69-.79,23.51-.77,4.88-1,9.76,5.72,10.85.52.08,1.05,1,1.31,1.67,1.65,4.09,5,4.8,8.91,4.85,8.28.1,16.22-2,24.19-3.81a57.7,57.7,0,0,1,7.27-1.32c1.42-.14,3.17-1.46,3.23,1.28,0,1.7-.08,3.65-2.31,4.06-2.06.39-4.17.5-6.26.73a238.71,238.71,0,0,1-38,.75c-7.43-.38-13.31-5.47-20-8.22a127.75,127.75,0,0,0-46.17-9.59,35.2,35.2,0,0,0-4.59.23c-3.2.32-8.76,1.83-9.19.91-2-4.22-5.49-7.89-5.81-12.79-1.7-26-5.76-51.8-11.07-77.2-3.17-15.16-5.66-30.58-10.05-45.54-.87-3-1-6.18-2.48-9.14-4.49-8.94-7.66-10.79-18-9.94-1.11.1-2.23,0-4.51,0,4.62-3.19,8.15-6.61,12.77-7.35,6-1,9.9,2.48,12.37,8.74a294.06,294.06,0,0,1,19.09,74.78c2,17.62,7.8,34.43,9,52.15.39,5.85,4,11.35,4.36,17.54.06,1.34.67,3.22,2.75,3.06,2.29-.18,1.62-2.11,1.89-3.52,4.5-23.18,1.81-46.54.69-69.71a287.14,287.14,0,0,0-10.07-63.2c-6-21.63-11.67-43.37-18.7-65.18,2.26.52,2.35,1.92,2.73,3,10,29.84,20,59.68,27.82,90.18,5,19.6,10.38,39.16,14.11,59,1.89,10,4.15,20.19,4.29,30.58,0,2.32-1.32,6.37,3.91,5.71,1.78-.22,1.24,1.49,1,2.51-.42,2-.93,4.08-1.48,6.1-.63,2.31-.21,4.09,2.07,5.3s4.34,1.18,6.19-.85c1.44-1.58,3-3.16,3-5.42-.12-9.84,1.48-19.56,1.5-29.45,0-22.75-1.41-45.55,1.53-68.28,1.66-12.79.11-25.67-.93-38.46-1.84-22.69-3.32-45.48-9-67.62-4.54-17.82-10.67-35.17-20.75-50.7-11.11-17.22-20.17-35.64-31.11-52.95-6.8-10.79-14.25-21.17-21.2-31.86-4.56-7-8.12-14.66-14.29-20.67,2.08-1.34,2.68.32,3.42,1.18,11.3,13.26,22.85,26.33,33.74,39.92,13.42,16.76,23.65,35.67,34,54.35,4.33,7.83,6.33,17.11,10.33,25.39,1.67,3.42,3.42,6.79,5.17,10.16.41.81.78,1.89,2,1.46s1-1.49,1.11-2.41c.41-3-1.39-5.59-1.46-8.4-.4-15-3.69-29.49-6.84-44.11-2.35-10.92-2.82-22.29-4.41-33.44C113.21,558,110.65,552.4,109.25,545.08Z" transform="translate(0 -0.02)"/><path d="M724.18,794.56c7.75,17.51,14.81,34.69,17.46,53.48,6.28-15.41-.24-30.36-1.29-46.37,3.27,1.89,4.55,3.76,4.59,6.66.13,9.49,2.56,18.48,5.91,27.3,2.12,5.58,2.39,11.85,6.43,16.71.91,1.1.75,3.35,2.82,3.11s2.35-2.46,2.59-4a79.18,79.18,0,0,0,1.18-12c.09-22.81,3.51-45.38,5-68.08,1.5-23.48,3.45-46.93,5-70.41,1.78-26.93,3.79-53.85,4.57-80.82.45-15.77-2.94-31.22-5.47-46.69-5.33-32.48-10.47-65-12.29-97.9-.51-9.34-1.6-18.65-2.47-28a33.43,33.43,0,0,0-5.81-15.41c-3.4-5.14-6.37-10.45-7.14-16.83,1.61-1.07,3,1,4.64.68s4,1.06,5.26-1.07c1.07-1.77-.69-2.72-1.55-3.89-.23-.3-.69-.82-.63-.89,6.16-7.51-5.25-10.07-4.12-16.08-.06,0,.38-.14.55,0,2,1.82,3.46,5.72,6.79,3.23,2.58-1.93,1.42-5.31.27-8-2.69-6.22-6.57-11.93-7.71-18.93,1.56,2.47,3.3,4.86,4.64,7.45,1,1.89,1.81,3.62,4.22,2.22,2.16-1.27,2.58-3.16,1.25-5.39-1-1.61-1.83-3.27-2.88-5.17,1.91-.65,3.49,2.09,4.75,0a3,3,0,0,0-.81-3.7c-9-9.07-6.12-21.53-9.3-32.26-.64-2.18.45-4.25,2.58-4.32,2.65-.08,1.62,2.54,1.58,4-.2,7,5.57,12.12,5.58,19a1.39,1.39,0,0,0,1.46,1.31h.14c1.25-.17,1.13-1.28,1.48-2.12,1.39-3.32-1-6.58.33-10.15a105.83,105.83,0,0,1,7.06-15.34c1.55,1.92,3.18,2.41,2,5.94a27.3,27.3,0,0,0-.39,16.84c.78,2.52,1.47,7.08,6.67,5.22.25-.09,2.22,5.26.48,7-7.85,7.87-7,19.3-12.17,28.17-1,1.71-1.88,3.5-.74,5.38a6.26,6.26,0,0,0,2.75,2.73c1.39.48,2.36-.84,3.09-2,1.88-3.11,3.75-6.22,5.67-9.31.55-.89.81-2.46,2.35-1.85,1.26.5,1.14,1.91,1,3-.31,3.11-2,5.75-3.11,8.59-.91,2.35-2.53,5.41,2.63,3.81,3.46-1.07,2.92,1.87,2.52,3.33s-1.83,2.87-3,4.06c-6.67,6.52-10.24,15.13-15.45,22.63-.65.93-1.23,2.09-.22,3.13s2,.27,3.13-.06c3.64-1.08,6.6-3,8.19-6.69,2.81,2.15,1.56,3.81.29,5.63q-5.75,8.22-11.33,16.56c-1,1.48-3.06,3.43-.79,4.92s3.17-1.24,4.39-2.56c1-1.07.85-3,3-3.71.89,4.57,1.06,9.28-.38,13.35-3.77,10.67-3,21.51-2.52,32.41.83,17.81,3.5,35.42,5.52,53.11,1.83,16,3,32,4.83,48,1.17,9.87,2.92,19.67,2.35,29.68-.86,15.43-1.24,30.92-2.64,46.3-.87,9.6-.59,19.14-.62,28.71,0,16.66-3.6,33.1-2.91,49.82.89,21.66-.91,43.2-2.56,64.8-1,13.72-3.43,27.29-3.92,41-.28,7.93.27,8.52,8.23,8.62,2.31,0,5.48-.43,5.43,2.56,0,2.74-3.15,3.35-5.74,3.54-9.76.71-19.41-1.1-29.13-1.46a29.5,29.5,0,0,0-16.94,4.23c-10.71,6.47-22.93,8.59-34.76,11.2-12.35,2.73-24.91,5.14-37.74,5-2.93,0-5.5,0-8.09-1.93a10.13,10.13,0,0,0-9.81-1c-11,4.37-22.56,5.63-34,7.49-.45.07-1-.32-1.63-1.15,9.51-2,17.85-7.73,27.92-7.81,22.08-.17,44.06-1.31,65.45-7.44,14.41-4.12,23.62-16.68,24.73-31.61s2-29.78.17-44.68A5.18,5.18,0,0,1,724.18,794.56Zm22.45,42.62c-1.46,4.85-1.09,9.68-.45,14.48.13,1,.93,2.36,2.26,2.26a1.9,1.9,0,0,0,1.83-2,2.28,2.28,0,0,0-.09-.51C748.55,846.8,750.09,841.51,746.63,837.18ZM730.91,847c0-2.64.06-5.27,0-7.9,0-1.2.28-3-1.77-2.8-1.87.22-1.49,1.93-1.36,3.16.26,2.62.74,5.22,1,7.83.13,1.31-.17,3,1.85,2.55,1.45-.32,1-1.74.28-2.84Z" transform="translate(0 -0.02)"/><path d="M54.07,427.11c1.74.57,2,1.43,2,2.46-.57,11.69,3,23.25,2.12,34.79C56.86,482.29,65.61,497.5,69.6,514c2.58,10.69,7,20.85,9,31.77.93,5.17,3,10.16,4,15.4-7.48-6.49-9.27-15.82-11-24.63-2.48-12.34-5.94-24.18-12.55-34.84-5.76-9.29-14.22-16.48-20.88-25.11C34.61,472,31,467.4,27.07,462.5c6.76-2.11,9.22,3.66,13.53,5.13,1.93.66,3.41,4,5.87,1.46,2-2.08,1.11-4.61,0-7-3.31-7.38-7.35-14-15.15-17.64-6.9-3.23-10.73-9.53-14.39-15.83-1.15-2-.9-3.94-.08-6.32,4,2.85,7.58,5.56,11.34,8,1.75,1.12,4.26,2.17,5.57-.22,1.11-2-.78-3.51-2.19-5.22-5.94-7.21-13.59-13-18-21.48-.72-1.39-1.65-3-.37-4.24s2.87.35,4.11.91c3.71,1.72,6.35,4.83,9.11,7.83,1.1,1.18,2.19,3.26,4.18,1.92,1.76-1.19.46-3,.26-4.63C29.65,394.72,21,391,13.86,386c-.82-.57-1.6-1.2-2.52-.45-1.78,1.45,0,3.14-.2,5.2-4.14-.94-6.61-3.57-6.28-7.36s3.36,0,5.26-1c.23-4-4.21-5.39-5.21-8.75-.51-1.71-2.71-3.24-.67-5a4,4,0,0,1,5.63.57l.09.12c3,4.11,8.19,5.66,11.12,9.78.74,1,1.65,2.45,3.24,1.41,1.4-.93.94-2.25.38-3.58-3.06-7.4-4.39-15.28-6.26-23-.51-2.09-1.7-4.91,1.33-6s2.73,2.25,4,3.62c7.31,7.78,4.84,18,7.21,27,.35,1.32-.45,3.51,1.83,3.6a4.54,4.54,0,0,0,4.07-2.81c1.12-2.39,1.91-4.93,2.94-7.66,3,4.58,2.43,9.4,1.32,14.16A67.75,67.75,0,0,1,38,396.23c-2.82,6.83.5,13.38.54,20.07a1.57,1.57,0,0,0,2.16,1.31c1.76-.55,3.12-1.66,3.06-3.66-.14-4.11,1.69-7.8,2.35-11.73.24-1.42.3-3.06,2.27-3.92.36,5.89.43,11.62,1,17.33.7,7.5-2.92,14.62-3,22.15,0,1.83-1.3,4.34,1.1,5s3-1.83,3.4-3.72C51.62,435,54.8,431.7,54.07,427.11Z" transform="translate(0 -0.02)"/><path d="M110.29,282.22c-1,12.16-2.93,23.25-2.31,34.19.48,8.45-5.12,15-4.33,23.39,1.19,12.63.5,25.43,1.45,38.1.28,3.76-.4,8.2,2.3,11.58,1.7,2.11-.09,4,0,6,.38,11.09,4.28,21.52,5.79,32.42,2.12,15.33,3.7,30.71,5.56,46.07,3.06,25.24,6.73,50.39,13.49,75a34.84,34.84,0,0,1,1.13,12.15c-9.1-14.09-15.61-28.22-16.1-44.77-.17-5.64-2.15-11.22-3.35-16.82-3.61-16.88-4.09-34.11-5.58-51.23-2.2-25.34-4.72-50.66-6.34-76-1.3-20.41-1.78-40.92.7-61.3a31.92,31.92,0,0,1,3.68-11.28c1.52-2.81,2.75-5.82,1.35-9.3C106.59,287.57,108.42,285.39,110.29,282.22Z" transform="translate(0 -0.02)"/><path d="M121.32,849.08c-10.64-30.7-11.42-62.47-12-94.37-.38-20.84-1-41.75-3.64-62.47-1.41-11.32-3.9-22.52-6.13-33.74-.61-3.06-.43-6.06-.51-9.19,6.15,1.18,7.07,6,7.94,10.87,4.34,24.3,5.77,48.84,7.17,73.45,1.51,26.35,1.32,52.65.69,79a9.53,9.53,0,0,0,1.29,5.47C122.06,827.79,119.75,838.74,121.32,849.08Z" transform="translate(0 -0.02)"/><path d="M79.91,892.44c-17.7,5.49-34.93,9.13-52.77,9.26-5.43,0-6.86-2-4.18-6.56,4.4-7.6,4.23-11.25,16.41-8.86,6.71,1.32,9.76-.46,12.91-6.67a27.63,27.63,0,0,0,1.39-3.15c2.78-6.89,5-7.37,10.67-2.57,4,3.39,6.51,8,9.7,12A77.5,77.5,0,0,0,79.91,892.44Z" transform="translate(0 -0.02)"/><path d="M968.15,856.46c7.56-10.88,7.51-23.41,10-35.21,2.09-10.13,3.61-20.38,6.23-30.54.53,9.33,1,18.66,1.6,28,.71,11.8,2.93,23.49,2.6,35.36-.16,5.89-3.1,8.06-8.35,5.51C976.42,857.75,972.63,857.12,968.15,856.46Z" transform="translate(0 -0.02)"/><path d="M753.74,936.93c1.51-1,2.66-1.72,3.69-2.56,6.91-5.58,14.15-7.5,22.7-3.37,3,1.43,6.73,1.15,10.14,1.57a72.1,72.1,0,0,0,8.55.81c3.68,0,5.3,2.58,7.18,5-2.43,1.71-2.46,5.47-5.56,6.6-1.26.46-2.56,1.31-3.79,1.23-11.55-.77-22.73,2.65-34.2,2.78a21.2,21.2,0,0,1-11-2.59c-2.78-1.57-4.24-3.84-3.09-7.15.31-.88.68-1.86,1.84-2,2-.15,1.25,1.18,1.28,2.26.06,2.45,2.2,2.93,3.91,3.59,9.08,3.53,18.44,2.74,27.7,1.18,5.27-.89,10.39-2.6,15.83-2.45,1.21,0,3.12.45,3-1.52-.06-1.6-1.8-1.81-3.13-1.86a46,46,0,0,0-14.2,1.63C774,943.09,763.92,941.61,753.74,936.93Z" transform="translate(0 -0.02)"/><path d="M899,888.88c8.29.49,15.85,3.4,23.86,3.89a6.14,6.14,0,0,1,5.7,4.17c1,3.08-1.34,4.54-3.1,6.17-6.45,6-21.23,8-29,4.21-4.53-2.25-6.94-6.69-5.56-10.75C892,893.47,893,887.4,899,888.88Z" transform="translate(0 -0.02)"/><path d="M307.42,964.69c2.94,1.57,5.41.73,7.91-.69,6.29-3.58,13.34-4.24,20.34-5.09,5.38-.65,7.28,3.37,8.09,7.07.78,3.51-.59,6.08-5.45,7.43-6.08,1.69-11.36,2-17.1-.31a26.49,26.49,0,0,0-7.28-1.32C308.77,971.26,308.53,971.09,307.42,964.69Z" transform="translate(0 -0.02)"/><path d="M729.58,908.65c-5.79-.7-12-1.43-18.24-2.2-2.27-.28-4.23-1.52-4.42-3.74-.16-2,2.23-2.45,3.7-3a76.27,76.27,0,0,1,18.8-4.73c5-.5,8.87.9,11.68,5.33s2.42,5.74-2.55,7.36a12.47,12.47,0,0,1-2.77.68C733.84,908.52,731.93,908.54,729.58,908.65Z" transform="translate(0 -0.02)"/><path d="M66.67,956.88c-2.1.19-3.38-.09-4.49-1-4-3.15-8.55-3.77-13.47-2.76a6.52,6.52,0,0,1-7.29-2.91c-3.18-4.6-3-5.33,2.49-6.57,2.77-.64,5.49-1.55,8.21-2.39,6.34-2,15,.84,18.7,6.14,1.31,1.9,2.55,4.06,1.46,6.37C71.06,956.32,68.42,956.68,66.67,956.88Z" transform="translate(0 -0.02)"/><path d="M106.35,917.28c5.8-2,10.66-4.06,15.69-5.44,4-1.11,10.76,2.76,11.34,6s-4.38,7.7-9.26,8.07c-3.47.27-6.61.32-9.33-2.81C112.89,920.88,109.89,919.63,106.35,917.28Z" transform="translate(0 -0.02)"/><path d="M928.35,886.61c8.15-1.07,15.3-4.14,23.26-5,3.72-.42,8.28-2.8,12.61-3.69a18.73,18.73,0,0,1,11.29.91c1.48.64,3.41,1.84,2.9,3.79-.4,1.5-2.31,1.78-3.9,1.84-6.68.26-13.36.59-20,.77a42.28,42.28,0,0,0-17.24,3.61C933.23,890.68,932.62,890.45,928.35,886.61Z" transform="translate(0 -0.02)"/><path d="M190.64,958.46c-6.27.37-10,3.6-14.36,5.35-3.9,1.57-6.43,0-8.61-2.39a9,9,0,0,1-2-9c.4-1.34,1.41-1.64,2.66-1.65C176.19,950.61,183.27,952.73,190.64,958.46Z" transform="translate(0 -0.02)"/><path d="M805.51,903.93c-6-.14-12.51-3.72-12.55-6.68,0-2.52,7.52-7,11.53-6.92,4.54.15,9.65,4.31,9,7.86C812.73,902.56,809.73,904.59,805.51,903.93Z" transform="translate(0 -0.02)"/><path d="M554.31,898.14c-4.31,4.44-8.08,7.3-14.18,5.53a14,14,0,0,0-10.58,1.21c-5.43,3-11.07,1.3-16.77-.35,6.33-2.16,13.13-1.93,19.61-3C539.42,900.44,546.18,897,554.31,898.14Z" transform="translate(0 -0.02)"/><path d="M399.68,912l37.89-6.23C425.59,909,414.52,917.41,399.68,912Z" transform="translate(0 -0.02)"/><path d="M678.89,904.94c-1.33,3-1.45,7.21-6.19,6.81-3.34-.28-5.77-2.24-5.36-5.94.56-5,5.43-3.55,8.35-4.68C677.51,900.42,678.69,902.88,678.89,904.94Z" transform="translate(0 -0.02)"/><path d="M17.62,901.14c-1,2.73-2.72,1.62-4.1,1.76-1.85.19-5.15-.7-2.54,3.1.76,1.1.16,1.31-.67,1.41-4.39.56-6.46,4.46-9.71,6.67C-1.75,906,2.63,902.59,17.62,901.14Z" transform="translate(0 -0.02)"/><path d="M400.74,929.28a8.1,8.1,0,0,1-6.16,3.28c-2.06.2-4.66.61-4.44-2.6.17-2.52,2.45-3.45,4.6-3.12C396.67,927.14,398.42,928.31,400.74,929.28Z" transform="translate(0 -0.02)"/><path d="M27.12,734.14c-4.44,4.82-8.46,3.71-12.42,2.74a1.8,1.8,0,0,1-1.46-2.07v0c.19-1.33,1.38-1,2.24-1.1C19.06,733.42,22.32,735.45,27.12,734.14Z" transform="translate(0 -0.02)"/><path d="M16.31,363.1c-.5,1.37,1.12,3.94-1.83,3.77-1.62-.09-3.81-1.16-3.28-3.21.48-1.83,1-4.77,3.15-4.92C17.42,358.52,15.67,361.58,16.31,363.1Z" transform="translate(0 -0.02)"/></svg>