<svg id="Layer_1" data-name="Layer 1" xmlns="http://www.w3.org/2000/svg" viewBox="0 0 988.57 995.7"><title>gf</title><path d="M668.15,541.66c-5.83-5.78-11.63-11.57-17.5-17.31-.88-.87-2-2.56-3.28-1.49-1.66,1.39,0,2.77,1,3.86A263.36,263.36,0,0,0,669.13,549c1.5,1.38,3.14,3.84,5.26,1.94s-2.1-2.63-1.65-4.69c2-1.91,3,3.79,4.74.9,1.2-2-.8-4-1.83-5.7-3.19-5.42-6.53-10.75-9.86-16.19,1.76-.89,3.91,2.52,5.48-.51.87-1.67-1.07-2.4-1.1-3-.95-14.93-12.85-24.26-18.5-36.73-2.84-6.27-5.53-12.64-11.91-16.36a7.14,7.14,0,0,1-1.86-2.16c-.16-.23,0-.69.05-1.61a238.53,238.53,0,0,1,24.4,16.8,18.44,18.44,0,0,0,3.19,2.39,4.07,4.07,0,0,0,4.83-.63c1.81-1.8.14-3.2-1-4.38-4.3-4.62-8.55-9.27-12.46-14.26-8.47-10.81-17.32-21.32-24.57-33-.38-.63-1-1.14-.25-2.37,4.74,4.53,10.67,7.18,15.88,10.91,1.14.81,3.5,1.78,1.44,4s-1.67,4.53.52,5.86c2.39,1.44,5.92,2.39,8,.53,1.78-1.6,2.65-4.52,1.12-7.74-2.83-6-6.64-11.22-10.53-16.76,2.92-.67,4.55,1.35,6.57,2.16,11.07,4.43,22,9.16,32.32,15.21,14.21,8.36,26,19.16,34.4,33.57,3,5.07,7.48,9.16,10.15,14.55a201.64,201.64,0,0,1,20.72,72.93c.94,10.87,2.5,21.7,3.2,32.59,1,14.91-3.68,29.16-5.94,43.7-1.64,10.56-3.1,21.16-4.73,31.73-2.08,13.39-8.52,25.35-12.7,38-3.39,10.31-5.59,21-11.1,30.59a128.45,128.45,0,0,1-38.28,41.3c-10.25,7.18-19,15.75-24.7,27.35-4.61,9.44-10.26,18.35-15.41,27.52a16.09,16.09,0,0,1-5.27,5.21c-10.2,7-21.26,12.11-33.53,14.17-11.67,2-13.34,3.76-13.26,15.64.12,17.64.82,35.16,6.09,52.24a111.67,111.67,0,0,0,14.77,31.23c3,4.26,8.28,6.59,13.23,8.81,8.17,3.65,16.31,7.3,24.88,10,4.55,1.43,7.74,6.59,13.56,4.42-.22,2.8-2.08,2.44-3.4,2.71-16.14,3.28-31.89,3.51-46.51-5.73-1.69-1.07-4.1-2.73-5.62-.42-1.68,2.55.81,4.05,2.67,5.46,4.35,3.29,8.66,6.65,13.6,10.46-14.41.91-27.63.29-38.88-9a10.6,10.6,0,0,1-2.8-2.74c-2.44-4.55-5-5.13-9.51-2.36-8.38,5.19-16.38,11.07-26,14.06a26.12,26.12,0,0,0-12.84,8.23c1.78-5.84,5.65-10.21,9.51-14.31,10.27-10.92,19.1-22.93,27.73-35.11,6.09-8.59,6.77-18.48,6.54-28.58-.11-4.7-1.7-9.49.74-14.08a1.85,1.85,0,0,0,0-1.64c-7.08-8.71-7.28-20.1-11.71-29.82-1.1-2.43-1.29-6.91-4.89-5.89-5,1.41-.65,5.35-.81,8.8-5.53-3.95-10.95-1-16.33-.46-3.64.34-7.5,1.27-10.83.2-11-3.53-19.83,1.91-29.32,5.69a15.21,15.21,0,0,1-2-9.62c.67-8.38,1.48-16.76,2.18-25.14.1-1.25.81-3.12-.76-3.54-2.1-.55-2.24,1.46-2.52,3-2.67,14.08-5.83,27.93-3.69,42.65,1.1,7.52-.39,15.55-.19,23.41.52,20.13,10.72,34,26.71,44.76a32.06,32.06,0,0,1,9.82,10.15,25.09,25.09,0,0,0,4.85,5.63c.92.85,3.22,1.19,1.64,3.39-1.32,1.84-2.51.8-3.92.12-10.52-5.07-21-10.16-31.62-15-3.6-1.66-8.19-4.71-11-3.64-3.66,1.39-.16,6.47-.26,9.93-.24,7.92-.34,16,2.87,23.69.58,1.39,1,3.61-.94,4.58-1.72.85-3-.29-3.53-1.91-2.38-8-8.77-13.79-12.1-21.26-2.5-5.6-5.22-11.06-9.3-15.69-.95-1.07-1.69-2.92-3.52-2.59-2.25.41-1.44,2.33-1.34,3.73s-.6,2-1.47,2.87a145.14,145.14,0,0,1-26.54,21c-2.93,1.76-6,3.39-7.64,6.69a2.11,2.11,0,0,1-2.89,1.11c-1.33-.66-.79-2.34-.24-3,4.58-5.83,6.74-13.34,12.3-18.41a111.29,111.29,0,0,0,32.83-52.59c1-3.6,4.43-3.82,6.6-6.47-9.22-2.48-3.53-9-3.82-13.66-.48-7.69,8.27-5,12.13-9.3-5.1-2.07-8.81.29-12.86,2.66-2.79-15.25-7.66-29.7-12-44.3a23.56,23.56,0,0,0-1.31-3.79c-.46-1-.68-2.39-2.13-2.36a2.17,2.17,0,0,0-2.15,2.26c-.07,2.07-1.12,3-3,3.54a5,5,0,0,0-3.94,4.43,2.89,2.89,0,0,0,2.1,3.09c2.41.78,4.38-.05,6-3.46,4.13,12.18,7.62,23.21,9.8,34.63.49,2.57.18,3.29-3,3.45-8.07.42-15.26,4.69-23.15,6.36-12.7,2.68-25.12,7.09-38.43,4.7-1.84-.33-3.32.66-4.68,1.79-4.11,3.43-8.39,6.69-12.32,10.32-16.77,15.44-36.76,25.26-57.78,33.26-16.87,6.41-34.17,10.71-52.36,10.82-2,0-4.05,1.22-6.12,1.41-4.38.39-8.51,1.81-13.25-.39-3-1.39-7.22-1.5-11.2-.6-7.77,1.75-25.49-8.1-27.78-15.41-1.61-5.15-.85-10.79-.08-16,1.8-12.09,4.82-24,6.74-36.06,1.52-9.59,1.39-19.4,3.32-29,0-.19,0-.41,0-.57,7.87-19.57-1.42-36.91-8.3-53.89-8.78-21.68-8.81-43.54-6.24-66,.94-8.17,1.78-16.34,3.63-24.38,1.49-6.49-2.16-9.49-8.6-7.15-3.94,1.42-7.65,3.48-11.55,5-5.51,2.15-7.59.92-8.09-4.75-1.7-19.1-.2-38.2.25-57.29.37-16,1.55-32,2.09-48,.57-17,1.14-34.08,4-50.85,2.28-13.38,8.12-25.67,14.06-38,9-18.64,23.7-32.68,36-48.67,18.08-23.43,40.86-41.35,65.56-56.83,23.15-14.51,47-28,74.36-33.45,18.88-3.76,37.21-11.07,57-8.81a211.22,211.22,0,0,0,31,1.08c1.7-.06,3.86.17,5-.75,8-6.36,17.41-11.24,22.8-20.59,1.76-3,3.25-5.91,2.12-9.59-.37-1.22.13-2.87-1.54-3.31s-2.36,1.07-3.16,2.05a35.29,35.29,0,0,1-13.19,10c1.69-4.93,3.82-9.72,7.51-13.31,10.65-10.36,12.95-23.36,12.65-37.33,0-1.71-.56-3.77.18-5.08,9.42-16.61,6.78-33.94,3.39-51.35-1.69-8.69-1.31-17.49-1.42-26.27,0-3,2.51-4.68,3.93-6.8,3.72-5.56,8-10.72,12.13-16,1.95-2.5,4.62-3.23,7-1.15,9.08,7.8,19.56,14.2,25.72,25,2.1,3.72,3.17,7.73,4.41,11.76,3.73,12.21,8.37,24,16.35,34.25,4,5.15,4.31,12,7.37,17.82,3.89,7.35,6.11,15.6,8.76,23.56,3,9,8.07,16.87,13,24.83,2.21,3.58,6,5.33,9.59,7.05a14.39,14.39,0,0,1,7.93,8.34,3.17,3.17,0,0,1-.61.31c-2,.43-5.13-1.19-5.66.93-.65,2.62,2.63,3,4.65,3.92,1.66.77,4,1.72,2.68,4.17s-3.06.43-4.45-.16a15.63,15.63,0,0,1-3.8-2.55c-1.49-1.25-3-2-4.53-.31-1.87,2.08-.15,3.55,1.31,4.77,7.22,6,15.22,10.86,23.19,15.76,1,.6,2.23.94,2.88,1.77,1,1.24,3.51,2.19,2.39,4-1.23,2-3.18.11-4.58-.44-7.8-3.11-15.66-6.14-23.23-9.76-7.06-3.37-11.36-10.13-17.07-15.12-9.84-8.6-7.35-22.23-15.06-31.63-1.86,1.22-.93,3.31-.74,5.23.95,9.23,4.11,17.88,7.33,26.45,5.23,14,10.88,27.74,16.26,41.63a26.68,26.68,0,0,0,5.82,9.13c1,1,2.34,1.54,3.59.47s.62-2.11-.12-3.05c-9.43-12.08-11.74-27.18-17.75-41.12,7.24,4.56,9.76,12.3,14.73,18.1,1,1.12,1.48,3.62,3.86,2.42s-.27-3,.3-5.45c13.35,16.72,29.73,29.17,45.41,44.68-8.11-1-13.6-4.36-19.36-6.79-3.34-1.42-6.48-3.34-9.89-4.52-2.26-.78-2.73-2.46-3.43-4.19-1.64-4.07-3.31-8.14-4.79-12.27-.82-2.28-1.92-4.06-4.53-4.82-1,3.63,1,6.15,2.11,8.93s3.6,5,.75,8.31c-1.47,1.7.9,2.52,2.11,3.21,11.79,6.63,23.36,13.72,36.52,17.48,5.33,1.53,7.1,7,11.11,10.18L647.19,420.7c-1.16-.51-2.33-1.95-3.58-.84s-.58,3,0,4.3c1.85,3.87,3.93,7.64,5.6,11.79-10.07-8.12-23.38-12.13-30.11-24.42a26.74,26.74,0,0,0-3.29-4c-.77-.91-1.76-1.9-2.91-1.25-1.33.75-.56,2,0,3,1.15,2,2.2,4,3.47,5.94,13.19,19.65,25.85,39.68,41.36,57.8-5.37-4.39-11.92-6.63-17.33-10.63-3.71-2.75-10.33-4.53-5.68-11.61.2-.3-.45-1.34-.91-1.86q-8.18-9.26-16.43-18.42c-.81-.9-1.7-2.6-3.21-1.43-1.86,1.43-.31,2.85.71,3.81,5.59,5.18,8.94,11.93,12.73,18.31,2.18,3.67,6.07,7,3,12.47-.88,1.59.92,5.19,2.27,7.39,3.42,5.52,5.17,12.56,12.45,14.89a.76.76,0,0,1,.39.4c4.86,10.58,14.69,17.75,19.46,28.4.21.46.29,1,.83,2.87-11.91-14.52-22.15-28.66-34.72-41-.5.87-.91,1.26-.84,1.5,3.25,11,9.58,19.77,17.09,28.43C656.43,516.67,662.87,528.78,668.15,541.66ZM210.52,602c-.21.71-.37,1.43-.63,2.12-.77,2.14-.87,4.31,1.44,5.37,2.56,1.17,4.67-.65,6.74-1.87,1.65-1,1.4-2.55.76-4a4.63,4.63,0,0,0-5.53-2.83,13,13,0,0,0-3,1.42,57,57,0,0,0,.18-6.26c-.18-2.43-1.22-4.72-4-4.69-2.6,0-2.84,2.68-3.65,4.53-.88,2,.54,4,0,6.12-.75,3.27,1.43,3.43,3.79,2.36A41.88,41.88,0,0,0,210.52,602Zm22.92,55.43c-.29,3.18-.43,6,3.92,6.83,3.5.71,4.69,2.71.8,5.09a29.9,29.9,0,0,0-3.22,2.4c-2.23,1.84-1.42,3.89.11,5.47,1.74,1.81,3,.15,4.2-1.15,2.78-3.15,5.74-6.16,8.22-9.52,1.22-1.66,4.25-3.75,2.27-5.76s-3.67,1.45-5.6,2.24a5.35,5.35,0,0,1-1,.17c.18-2.83,1.23-6.15-1.64-7.86-3.12-1.85-5.8.31-8.22,2.29.58-3.17-4.21-4.61-2.64-8.21.51.32,1,.58,1.41.87,3.63,2.45,6.62.39,8.27-2.27,1.19-1.92,2.73-5.44.33-7.45-2.7-2.24-5.85-2.4-8.9.67-5,5-10.4,9.58-15.62,14.36-1.37,1.25-3.36,2.38-2.09,4.7,1.63,3,3.58.46,5.75-.11-4.06,3.26-1.65,7.92-3.36,11.5a1.86,1.86,0,0,0,1.14,2.35,2.17,2.17,0,0,0,2.59-.65c1.51-1.7,3-3.46,4.36-5.26C227.33,664.42,229.4,660.11,233.44,657.4ZM515.13,508c-3.19,1.66-3.76,3.88-4.63,5.88-5.46,12.65-9.29,25.86-13.49,38.95-2.31,7.24-2.75,15.73-8,21.25-5,5.27-10.81,9.94-15.3,16,3.27-18.26,14.94-33,18.39-50.82-4.69,3.68-6.09,9.19-8.69,14-3.69,6.76-8.81,12.83-8.44,21.47.12,2.61-1.16,7.76-5.45,7.29-4.91-.54-7.17,2.38-6.65,5.45.55,3.23,4.8,5.43,5.19,9.47.05.53,1.05,1.31,1.66,1.36,1.75.14,2.6-1.41,3.58-2.51,4.38-4.93,8.69-9.92,13-14.88-2.94,7.37-6.35,14.52-9.81,21.64-1.12,2.29-2.55,4.81,0,6.71,3,2.25,4.36-1.08,6-2.63,8.15-7.86,16.82-15.17,24.57-24.94,1.68,19.53-9.39,37.44-1.32,55.65,16.81-11.91,19.74-32.34,31-48.53a20.56,20.56,0,0,1,.32,2.54c-.63,9-1.32,18-.64,27,.17,2.23.22,5.09,2.85,5.69,2.21.51,2.93-2.09,3.86-3.66,3.89-6.57,7.62-13.24,11.53-19.81,4.51-7.59,8.43-15.57,14.94-23.7,1,12.11,1.79,22.75,2.67,33.39.15,1.74-.65,4.39,2.34,4.27,2.58-.11,1.81-2.55,1.82-4.09A177.88,177.88,0,0,0,574.21,584c-.53-3.64.43-9.36-3.14-10.12s-6.24,4.16-8.48,7.5c-7.17,10.67-13,22.21-21.68,33.86,2-16.12-2.34-31.3,5.14-45.66-9.14,13.49-19.49,25.84-26.42,40.78,1.88-10.54-.47-20.89,1.22-31.08.27-1.58,1.35-4-.84-4.4s-1.83,2.25-2.15,3.82c-2.8,13.71-3.78,27.66-5.48,41.51-.36,2.92-1.45,5-4.95,6.29.23-3.83.42-7.19.65-10.55.55-8,3.47-15.74,2.84-23.88-.72-9.34-.41-18.35,6.95-25.49.63-.61,1.4-1.57.48-2.47-1.09-1.07-2.2-.42-2.94.51-2.47,3.17-5.81,5.49-8.13,8.87-5.06,7.41-17.17,19.23-21.19,21.24C497.34,566.8,506.44,538,515.13,508Zm33.43-287.08a12,12,0,0,0-2-9.85,71.86,71.86,0,0,0-12.69-13.91c-3.19-2.76-7.2-2.73-10.75.79-7.54,7.46-8.83,16.49-5.85,25.91A156,156,0,0,0,533.52,259c2.09,3.38,3.12,2.85,5-.16,2.28-3.6,1-7.73,2.61-11.5C545,238.68,549.79,230.21,548.56,220.87ZM439,491.52c-5.81,10.45-16.22,15.28-25.78,21.06-5.73,3.47-11.59,6.7-16.67,11.12-1.2,1-2.47,2.22-1.34,3.87,1.25,1.83,3,1.33,4.54.27.94-.64,1.71-1.53,2.64-2.2,7.66-5.5,15.46-10.78,24.21-14.8.27,2.21-3.22,3.21-1.29,4.81,2.18,1.81,3.22-1.09,4.38-2.24a143.5,143.5,0,0,0,18.55-22.55c3.56-5.35,9-8.89,14.05-12.9,6.29-5,9-13.92,12.76-21.42a2.22,2.22,0,0,0-.22-2.08c-1.15-.81-2.11.07-2.88.91A45,45,0,0,0,464.24,468c-3,6.82-10,9.85-15.35,12.42-9,4.28-17.93,8.23-25.91,14.22-2.69,2-5.39,4-9.65,3.1,1.52-1.78,2.7-3.26,4-4.65,12.88-14.17,25.66-28.44,39.7-41.5,1.16-1.09,3.38-2.61,2.07-4.16-1.56-1.84-3,.51-4.07,1.57-16.75,16-34.08,31.34-48,50-.6.8-1.1,1.57-2.23,1.44-3.49-.39-4.81,2.75-7,4.41a3.39,3.39,0,0,0-.69,5.1c1.36,1.73,3.12,1.18,4.61.16,6.28-4.29,13.48-6.44,20.53-9C428.32,499,433.38,494.84,439,491.52Zm-9,84.15c1.62-3.78,3.29-7.54,4.86-11.34,8.87-21.52,21.08-41.51,29.17-63.39a28.79,28.79,0,0,1,5.18-8.83c5-5.83,8.66-12.56,12.46-19.18.78-1.35,2.65-3.29.65-4.43-1.79-1-3,1.26-3.71,2.74-6.12,13-16.46,23.31-21.58,37.39-5.68,15.61-14.93,30-21.73,45.35-.64,1.45-1.23,3.85-3.43,3-4.64-1.85-7.15-.06-7.81,4.35-.86,5.87,4.47,1.42,6.16,3.11-1.6,3.94-3.12,7.63-4.58,11.35-1.13,2.89-1.92,6.07-6.13,3-1.26-.92-3.55-.66-3.85,1-.69,4,.52,7.88,1.71,11.61.46,1.47,2.55,1.48,4.09.92a2.91,2.91,0,0,0,1.18-1.18c1.91-2.81.87-7.08,2.46-9s6.52.07,9-3.07a3.22,3.22,0,0,1,.43-.39q10.19-8.82,20.37-17.66c1.07-.93,2.76-1.56,1.89-4.41C446.63,561.31,439.56,569.74,430,575.67Zm226.66,21.09c-5.09-11.15-10.9-21.86-16.83-32.54-4.54-8.17-10.72-15.31-14.18-24.17-4.87-12.45-8.11-25.49-13.86-37.6-1.46-3.06-2.24-6.66-6.22-8.86a12.13,12.13,0,0,0,0,2.85c3.83,11.81,7.35,23.74,11.71,35.35,2.19,5.82,3.49,12.24,8.1,17s8,10.69,10.88,16.76c6,12.58,12,25.16,18.12,37.65.88,1.79,2,4.46,5.18,2.71,2.5-1.4,4.24-2.94,3.31-6.3-1.28-4.58-2.17-9.27-3.4-14.64,2.58,1.65,4.68,2,6.15-.56.86-1.5-.06-2.64-1-3.57-2.49-2.52-4.13.17-5.6,1.35-3.11-5.37-3.2-11.45-6.5-16.52C652.14,576.25,655.27,586.34,656.69,596.76Zm-140-195.84c-4.12,1.75-4.33,5.32-5.57,8.13-5.68,12.88-8.24,27-15.2,39.35-9.09,16.16-11.7,35.22-23,50.52-3.86,5.23-5.42,12.14-8.28,18.16-4.48,9.42-7.11,19.77-14.86,27.54-3.2,3.21-5,7.66-6.46,12-.38,1.18-.86,2.88.79,3.5s2.14-1,2.67-2.2c1.49-3.5,2.17-7.63,5.36-10,3.92-2.87,6-6.84,8.14-10.9,5.8-10.82,8.51-22.88,13.8-33.89.57-1.18,1.52-3.37,1.81-3.29,5.69,1.54,5-3.69,6.29-6.2,2.2-4.43,3.66-9.23,5.32-13.91,7.1-19.94,15.95-39.16,24.12-58.66A68.74,68.74,0,0,0,516.65,400.92Zm-63.16,183c10.34-21.62,17.16-44.45,25.58-66.76-5.21,7.89-14.8,13.28-13.47,24.68a8.21,8.21,0,0,1-.85,3.86c-4.87,11.63-9.82,23.22-14.72,34.84-.82,2-1.45,3.06-4.13,2-3.77-1.52-6.37,1-6,4.43a12.62,12.62,0,0,0,5.5,9.06c2.36,1.59,4.15,1.29,5.88-1,7.17-9.43,14.45-18.78,21.58-28.25.86-1.14,2.34-2.59.64-5C466.1,568.77,460,576.5,453.49,583.94ZM476.21,402c-11.49,7.51-20.38,16.32-31.45,22.12a16.9,16.9,0,0,0-4.36,3.66,4.12,4.12,0,0,0-.34,5.3c1.54,1.8,2.87-.47,4.23-1.24,9.15-5.21,16.26-13.22,25.43-18.42a101.25,101.25,0,0,0,22.34-17.62c1.15-1.18,3.85-2.21,2.19-4.54-1.44-2-2.81,1.15-4.56.54,3.87-5.59,7.9-11.07,7.71-18.48-7.09,9.26-14,18.38-24.19,24.54C470.17,399.73,471.94,401.67,476.21,402ZM626,613.89c-3.46-4.91-4.7-9.73-6.86-14.1q-3.4-6.91-6.93-13.77c-4.3-8.34-5.54-9.71-8.78-10,2.07,4.24,4.27,8.46,6.19,12.81,1.51,3.41,4.4,7.6-3.07,7.72-1.07,0-2.18,1.45-3.17,2.34s-2,2-1.22,3.48,2.31,1.56,4,1.44c3.39-.24,4.64-3.35,7-5.43,2.37,4.51,4.94,8.24.4,12.63-1.72,1.67-1.75,6.53,1.09,5.43,7.15-2.75,6.68,3,8.69,6.08,1.2,1.85,1.84,5,4.6,4.1,2.57-.79,3-3.58,2.86-6.29-.93-14.32-1.62-28.66-2.8-42.95-.26-3.1.11-6.63-2.43-9.45C624.44,582.9,626.88,597.8,626,613.89ZM301.35,904.94c0,3.35-1.62,4.69-2.67,6.07-3.7,4.85-7.7,9.48-11.75,14-1,1.11-3,1.87-1.75,3.54,1.53,2.07,3.2.29,4.34-.78,5.69-5.38,11.67-10.54,16.75-16.46,5.41-6.28,7.13-7.13,14.12-2.62,2.58,1.65,3.21.88,3.69-1.69,1.12-6-3.16-10.15-8.95-7-7.46,4.06-13.54,2.21-20-.89-1.67-.8-2.86-.89-4,.43A247.7,247.7,0,0,1,266.68,923c-.8.69-1.31,1.52-.77,2.48a1.87,1.87,0,0,0,3,.47c2.39-1.86,5.1-3.23,7.14-5.67,4.6-5.49,9.09-11.13,15-16C293.44,912.23,297.27,907.88,301.35,904.94ZM563.3,431.52c-1.77,3.19-.84,5.78-.31,8.22,2.57,11.74,5.14,23.47,7.59,35.24,4.18,20.14,8.79,40.14,9.71,60.79.14,3.19,1.28,6.35,2.07,9.49.32,1.29.9,2.87,2.59,2.31,1.3-.43.72-2,.62-3-.7-7.79-.71-15.74-2.36-23.32-2.38-11-1.34-22.34-4.68-33.27-4.73-15.47-9.14-31.09-11.42-47.21A17.85,17.85,0,0,0,563.3,431.52ZM668,568.4c-9-10.52-17.77-21.1-28.62-30.41-1.37,3.56.9,4.79,2.07,6.3,2.34,3,5.09,5.72,7.49,8.7,9,11.16,17.91,22.41,27,33.52,1,1.29,2.18,4,4.45,2.39,2-1.41.41-3.63-.27-5.26-6.08-14.55-14.3-27.89-23.54-40.62-.6-.82-1.13-2.13-3.1-1.36C656.79,551.38,663.73,559.11,668,568.4ZM534.13,403.84c-2,2.36-1.47,4.46-1.5,6.43-.18,13,.06,26-.67,38.88S529.38,475,528.3,488c-.53,6.28-.52,12.61-.53,18.91,0,1.33-.07,3.61,1.89,3.7s1.8-2,2-3.48a882.63,882.63,0,0,0,4.48-90.52A35,35,0,0,0,534.13,403.84Zm38,156.79c-1.53-17-.44-33.12-2.91-49.17-2-12.63-6.13-24.83-6.89-37.72-.55-9.35-2-18.65-3-28-.17-1.53-.22-3.48-2.36-3.12-1.85.3-1.15,2.18-1,3.37,1.54,13.88,2.21,28,5,41.59,3.45,16.9,7.38,33.58,6.51,51-.27,5.5.74,11.06,1.19,16.6C568.77,557.09,568.83,559,572.1,560.63ZM493.46,429.49c-.43,1-.91,2.06-1.31,3.13-3.34,9.12-6.73,18.24-9.95,27.41-.5,1.44-1.68,3.7.49,4.55s2.76-1.56,3.29-3c2.67-7.35,5.16-14.75,7.76-22.12,1.52-4.29,4.15-8.37,3.64-13.09-.44-4.07.9-7.33,2.86-10.67,5-8.55,9.86-17.18,14.69-25.83.86-1.52,3.14-3.53,1-4.91-1.81-1.14-2.57,1.67-3.45,3-4.48,6.65-9,13.28-13.23,20.08C492.29,419.07,492.35,419.21,493.46,429.49ZM547,495.86c-5.08,30.69-12.94,60.8-20.52,91,2.87-.79,2.79-2.85,3.35-4.55.83-2.54.84-6.62,2.47-7.39,6.08-2.9,5.34-8.67,6-13.26,2.55-18,7.09-35.76,8.51-54C547.11,503.81,549.35,500.08,547,495.86Zm99.74,41.74a3.86,3.86,0,0,0-.52-1.75c-4.91-5.75-7.16-13-10.85-19.41-6-10.45-15.44-18.46-20.84-29.35-.8-1.6-1-5.17-3.82-3.6-2.37,1.31,0,3.73.67,5.59a11.77,11.77,0,0,0,1.63,3c7.64,10.52,14,21.81,20.74,32.91,2.84,4.69,4.25,10.34,8.8,14,.85.69,1.49,1.92,2.85,1.4C646.41,540,646.72,539.06,646.75,537.6ZM360.9,715.3c4-.34,6.63-1.65,8.46-4.86,2.1-3.69-2.08-3.72-2.87-5.66-1.9-4.65-6.19-5.45-10.31-6.15s-6.92,1.57-9,4.9c-1.89,3.07.1,5.24,1.48,7.82C351.74,717.1,357.78,712.21,360.9,715.3ZM248.74,897.52c3.61-5.19,4.88-11.11,11.31-12.8a11,11,0,0,0,4.79-3c1.66-1.69,2.54-4.14,1-6.23s-3.34-.05-5,.56c-6.93,2.59-8.94,9.84-13.67,14.53-3.72,3.69-9,6.91-6.53,13.75.22.6-.75,1.65-1.21,2.47-.73,1.28-3.64,2.38-1.34,4,1.6,1.09,3.51-.56,4.49-2.45a48.85,48.85,0,0,1,2.5-4.48c.9-1.37,1.5-4.11,3.82-1,.69.92,2.18,0,2.38-.65.91-3.1,4.35-5.23,3.74-9C251.7,892.86,252.31,896.79,248.74,897.52ZM544.92,420.19l-2.51.09c0,6-.2,12,0,18,.45,11.25,1.45,22.39-1.79,33.59-2.11,7.25-2.32,15.06-3.33,22.63-.16,1.22-.74,2.95,1,3.37s2.26-1.07,2.49-2.47c.64-3.75,1.39-7.5,1.82-11.28,1.55-13.58,5.67-26.89,4-40.83C545.78,435.61,545.49,427.88,544.92,420.19ZM385.31,728.27c-3.8-.35-6.22,1.91-8.4,4.35-2.82,3.15-3.33,6,1.61,7.69,3,1,4.9,3.48,7,5.71,1.46,1.55,3.22,3.06,5.38,1,3.11-3,6.3-6.53,4.71-11S390.09,729,385.31,728.27Zm190.13-283c-2.06,1.09-1.11,3-.65,4.39,3.16,10,6.29,20,9.76,29.84,2.13,6.1,4.39,12.22,8.4,17.43.88,1.15,2.06,2.95,3.65,1.89,1.39-.93.69-2.67,0-4.16-2-4.33-3.94-8.67-5.68-13.1-4.3-11-8.45-22-12.73-33C577.69,447.28,577.78,445.33,575.44,445.27ZM276.8,632.92c4.47.44,7-1.57,7.16-6,.19-6.41-3.75-13.28-7.47-13.46-5.11-.25-9.84,2.65-10,6.14C266.25,625.24,272.13,632.87,276.8,632.92ZM566.07,355.18c-1.36,1.58-.87,2.8-.49,4.06,2.17,7.31,4,14.66,4.56,22.32.42,6.47,1.15,12.92,1.79,19.37a69.55,69.55,0,0,0,3.35,15.61c.52,1.53,1.56,2.77,3.44,2.12,1.39-.48,1.21-1.73,1-2.89-3.52-17.3-5.18-34.95-9.71-52.06C569.2,360.77,569,357.43,566.07,355.18ZM291.54,580.65c-3.71,0-6.72,2.19-9.33,4.66-1.67,1.58-3.75,3.9-2.29,6.58,2.35,4.3,7.15,5.33,11.24,6,3.56.61,6.62-2.5,8.83-5.49.78-1.06.62-3.7.06-3.67-4.57.22-3.29-3.72-4.34-5.83C294.81,581.12,293.82,580.14,291.54,580.65Zm-37.24,226c.94-3.24-.76-5.32-4.19-6.42-3.23-1-13.73,4.8-14.15,8.15-.34,2.66-.31,5.33,2.64,7A10.42,10.42,0,0,0,254.3,806.69ZM425.75,665.37c0-6.27-5.72-11.61-11.51-11.46a6,6,0,0,0-6.3,6.09c-.25,4.29,7.26,12.91,10.57,12.14A9.2,9.2,0,0,0,425.75,665.37ZM333.68,618c0,4.51,3.61,9.82,6.95,10.11,4.1.35,9-5.37,9.14-10.73.15-5-3.27-7.92-9.13-7.86C335.89,609.6,333.74,612.22,333.68,618Zm70.51-83.1c.5-.1,1.44-.24,2.36-.49,13.85-3.7,26.86-9.79,40.38-14.41a12.15,12.15,0,0,0,3.73-2.6c.78-.69,2.11-1.46,1.3-2.79s-2-.82-3.09-.39c-1.42.56-2.8,1.21-4.2,1.84-13.39,6.07-27,11.5-41.73,13.33-1.75.22-3.7.77-3.26,3.05C400.06,534.4,401.87,534.94,404.19,534.93Zm-8.3,279c.21-4.27-.41-8.49-5.32-9.35-4.74-.84-9.33,3.38-9.47,7.72-.16,4.62,4.64,11.89,7.79,11.8C393.85,824,395.81,821.11,395.89,813.92Zm-91.17,2.35c-5.88,0-6.51,5.53-9,9-2,2.83-1.87,5,2.19,7.51,4.7,2.86,7.15-.32,10.27-1.64,2.2-.92,5.13-2.57,3.84-5.86C310.63,821.59,310.64,816.51,304.72,816.27Zm39.22,23.15c-.63-3.16-.92-6.34-3.93-8-2-1.13-3.85-.21-5.11,1.29a33.77,33.77,0,0,1-9,7.72,3.19,3.19,0,0,0-.58,5.37,9.12,9.12,0,0,0,10.51,2.06C339.71,846.14,343.46,844.24,343.94,839.42ZM378,638.26c-.11,4.11,3.93,9.47,7.32,9.7,4.1.28,9.37-4.13,9.53-8,.19-4.79-4.12-8.92-9.61-9.23C381,630.54,378.14,633.52,378,638.26ZM243,742.86c.78-3.11-1.23-4.61-3.87-5.8-2.09-.95-4.46-1.43-5.56.8-1.47,3-3.79,5.12-5.8,7.6-1.39,1.72-2.55,3.95-1,6.28s3.75,3,6.44,2.76C240.16,753.76,242.8,750.7,243,742.86Zm34.5,26.84c0,6.73,2,11,5.05,11,5,0,9.5-5.4,9.53-11.28a7.8,7.8,0,0,0-7.77-8.25C281.38,761,277.43,765.93,277.46,769.7ZM561.83,383.77c1.06-9.2-2.8-17.51-4.69-26.17-.21-.93-.28-2-1.56-1.94s-1.52,1.11-1.5,2.06c.29,11.89-2.7,24.16,4.16,35.29.54.88,1,1.65,2.1,1.47s1.43-1.22,1.46-2.15C561.87,389.48,561.83,386.62,561.83,383.77ZM528,473.93c-3.78,1.13-3.94,3.59-4.38,5.68-1.12,5.41-2,10.86-3.09,16.28-1.84,9.17-3.74,18.32-5.64,27.48-.41,2-.56,4.54,1.41,5,2.55.57,2.33-2.36,2.75-4,1.12-4.43,2.26-8.87,3-13.36C524.06,498.89,525.91,486.75,528,473.93ZM238.83,770c-6.36.21-11.53,4.92-10.79,10.19.45,3.21,1.09,7,6,6.77,5.73-.31,10.06-5.88,10-12.47C244,770.39,241.92,769.59,238.83,770ZM585.35,517.39c0,1.81-.08,2.72,0,3.61,1.09,9.5,4.1,18.59,6,27.94a43,43,0,0,0,1.58,5.5c.36,1.08,1,2.38,2.29,2.17,1.7-.28,1.74-1.8,1.48-3.18-.39-2.06-.89-4.1-1.32-6.16-.22-1.06-.88-2.47.65-2.88,3.62-1,1.94-3.49,1.85-5.56-.28-6.1-6.22-9.16-7.87-14.64C589.33,522.05,588.69,519.4,585.35,517.39ZM319,759.39c.15,4,4.58,8.78,7.85,8.54,2.14-.15,9.84-10.41,9.07-12.88a8,8,0,0,0-7.33-5.85C325.4,749,318.88,756.33,319,759.39Zm138.45-98.8c-.22-1.64-.66-2.81-.48-3.88,1.08-6.49-3.35-8.16-8.15-9.39-4-1-8.63,2.83-7.62,6.53.95,3.49,2.63,6.89,5.67,9a9.2,9.2,0,0,0,8.09,1.18A3.39,3.39,0,0,0,457.45,660.59ZM366.9,805.54c-.09-5.49-4.67-11.72-8.72-11.86-3.55-.12-6.32,3.93-5.82,9.83.32,3.74.49,8.51,6.05,8.76C363.62,812.5,367,809.63,366.9,805.54Zm18-125.42c-.13-5.2-3.68-10.26-7.28-10.36-3.91-.1-6.64,4.22-6.57,10.42.06,5.32,3.2,9.23,7.39,9.21C381.75,689.37,385,684.76,384.85,680.12ZM353.5,659.21c4.43.16,8.19-1.72,8.49-4.24.41-3.49-5.23-10-8.89-9.55s-9-2-10.6,3C341,653.07,347.63,659,353.5,659.21ZM254.31,777.69c.21,2.64-1.17,5.89,2.18,7.6,3.76,1.93,5.36-1.08,7.38-3.33,1.65-1.85,4.1-13.3,3-15.53-.83-1.69-2.06-2.84-4.06-1.61C258,767.78,253.36,770.87,254.31,777.69ZM597.87,413.91c-1.14,3.82,1.69,5.64,2.86,8q9.06,18.19,18.38,36.26c.73,1.41,1.46,3.82,3.57,2.84s.23-2.74-.25-4a181.35,181.35,0,0,0-17.19-34.17C603.24,419.75,601.47,416.34,597.87,413.91ZM396.12,604.2c4.72.21,7.71-2.25,9.43-5.79,1.8-3.71.79-7.74-1.8-10.72-2.42-2.78-6.34-3.31-8.32.1a33.89,33.89,0,0,0-3.84,12.28A3.62,3.62,0,0,0,396.12,604.2Zm-83,18.59c-.72-2.61-.89-5.43-3.19-7.57-3.4-3.16-6.08-2.93-7.9,1.21a52.71,52.71,0,0,0-2.9,8.57c-1.06,4.32,3.26,9.52,6.61,8A12.18,12.18,0,0,0,313.11,622.79Zm16.44,64.08c5.61-.2,13.46-6.15,12.18-9.15s-4.17-6.24-7.7-6.57c-5-.47-11,5.43-10.66,9.68S326.54,686.52,329.55,686.87ZM321.91,708c-.46,5.4,4.41,7.86,6.58,11.69.74,1.3,4.72,1.26,4.79-.62.17-5.09,2.61-10.07,1-15.21-.85-2.68-2.55-5.24-5.48-5.07a6.47,6.47,0,0,0-5.85,4.81C322.52,705.07,322.25,706.56,321.91,708Zm24.27,65.4a22.09,22.09,0,0,0,.34,4.16c.76,2.56,3,3.82,5.17,4.81a3,3,0,0,0,4-1.35c1.69-4.11,4.42-8,3.43-12.85a7.36,7.36,0,0,0-6-6.12c-3.06-.61-4,2.25-5,4.49C347.06,769,345.86,771.4,346.18,773.43Zm100.08-74.6c3.26,0,6.12-1.16,5.72-4.75a17.3,17.3,0,0,0-3.31-8.38c-1.95-2.52-5.16-4.28-8.63-3.1-1.78.61-4.36.71-4.8,3.45C434.31,691.94,440.24,698.83,446.26,698.83ZM306.62,710c.26-4.67-1.28-9-5.36-11.1-2.83-1.45-4.24,2.59-6.06,4.26-3.12,2.87-2.62,6.86-.53,9.92s5.5,5.51,9.8,4.47C309.35,716.36,306.15,712.62,306.62,710Zm26.59-130c-4.34-.09-9.4,3.76-8.31,6.34,1.93,4.56,12.22,9.09,17.16,7.64a3.54,3.54,0,0,0,2.91-3.67C344.82,586.8,336.93,580,333.21,580ZM522,567.18c0,.84-.35,3,1.25,3.36,2.2.55,2.51-1.81,3.06-3.35a18,18,0,0,0,.77-3.34q2.64-16.92,5.25-33.84c.2-1.28.9-3-.79-3.48-2.32-.68-2.12,1.62-2.52,2.89C525.21,541.51,523.77,554,522,567.18Zm7-133.26c-2.94,1.66-3.59,3.92-4.34,6.3-3.7,11.8-6.06,24-10.61,35.57-.64,1.62-2.47,4-.31,5,2.59,1.17,3.28-1.94,4.1-3.68a104.22,104.22,0,0,0,8.12-27.34C526.74,444.7,529.63,440,528.92,433.92ZM369.4,573.15c.41-4.91-3.24-7.07-6.45-8.73-2.79-1.44-6.76-1.57-9.11,1-2.63,2.89.14,6.31,1.1,9.08,1.57,4.52,6,4.89,10.16,4.15C368,578.13,369.9,576.34,369.4,573.15Zm223.12-7.92c-3.61,2.28-4,5-4.62,7.46s-.75,4.93-1.46,7.29c-2.55,8.56-3.54,17.56-7.08,25.85-.77,1.79-.65,3.68,1.14,4.48,2,.9,2.36-1.13,2.92-2.51C588.79,594.48,591,580.49,592.52,565.23ZM262.71,648.55a6.06,6.06,0,0,0-5.85-6.44c-5.55-.11-10.51,3.42-10.27,7.79.18,3.28,0,7.47,4.8,7.93S262.55,652.7,262.71,648.55Zm41.05,86.71c-.06,5.61,2.33,10.6,5,10.42,3.47-.24,7.73-6.66,7.75-11.58,0-4.34-2-8.43-6.09-8S303.37,730.29,303.76,735.26ZM456.07,433.58c-1-2.54-2.37-2.59-3.52-1.84-2.87,1.88-5.64,3.9-8.35,6-9.1,7-16.45,15.82-24.68,23.73-1.32,1.27-3,3.57-1.3,5,2,1.75,3.15-1.09,4.28-2.33a244.15,244.15,0,0,1,30.08-28C453.77,435.23,455,434.36,456.07,433.58ZM587,434c-1.88,4,.89,6.83,2,10.06,3.6,10.94,8.91,21.13,13.88,31.47.64,1.34,1.29,3.16,3.24,2.46,2.15-.77,1.11-2.37.55-3.82C601.31,460.27,593.93,447.33,587,434ZM378.51,844c.26-3.94-3-4.41-3.71-6.42-1.09-2.93-1.54-5.26-5.7-2.94-2.22,1.23-5.73-.17-7.66,2.74a4.85,4.85,0,0,0-1,4.29c1.25,4,11.46,7.95,15,5.73C377.11,846.4,378.39,845,378.51,844Zm10.83-67.44c-.09-4-1.91-5.61-6.22-5.55s-9.21,5-8.87,9.57a6.6,6.6,0,0,0,6.67,6.52C385.47,787.31,389.45,782,389.34,776.59Zm27.63-6.9c.2-3.39-.38-6.32-3.37-8.1s-5.1-.47-7.77,1.11c-7.88,4.65-8,4.44-.46,9.26a13.11,13.11,0,0,1,2.13,1.89c1.94,1.92,4.25,2.64,6.76,1.54S416.61,771.72,417,769.69ZM319,476.37c-4.17,0-6,1.58-6,5.19.05,4.14,5.76,9.78,10,9.54a6.72,6.72,0,0,0,6.55-6.13C330.16,481,324.29,476.43,319,476.37Zm145.8,161.55c-.28,4.43,1.46,7.38,4.62,7.5,3.73.14,8-4,8.19-8,.27-4.42-3.68-8.87-8.17-9.27C459.63,627.28,466.16,634.36,464.83,637.92Zm-123,163c0-3.88-3-8-5.82-8-2.63,0-8.35,5.4-7.72,7.93.83,3.35-1.16,8.55,4,9.49C336.91,811.17,341.85,805.74,341.8,800.92ZM274.18,552.33c-3.16,1.64-8,.33-7.76,6.08.24,5.51,2.54,8.32,7.25,8.23,4.16-.09,9.66-4.82,9.4-8.38C282.65,552.34,276.87,554.71,274.18,552.33Zm315-188.69c-2.61,3.69-.08,6.68.16,9.72.95,12,6.52,22.17,13.26,31.82.78,1.12,1.44,2.71,3,1.94,1.94-1,.79-2.58.1-3.91a36.36,36.36,0,0,0-2-3.5c-5.08-7.52-8.12-15.86-10.25-24.64C592.52,371.31,592.89,367,589.16,363.64ZM420.05,548.31c.52-3.28-1.43-5-3.87-6.31-4.36-2.34-7.66.15-10.76,2.71-3.6,3-3.23,6.39.9,8.46,2.9,1.46,6.43-.44,8.48-.08C420.16,554,419.53,551.1,420.05,548.31Zm10.51,183.92c1-4.5-2.28-7.11-6.05-9.26-1.61-.92-3.5-1.61-5.41-.5-2.12,1.23-1.69,3.32-1.41,5.1a45.17,45.17,0,0,0,1.89,7.11c1.24,3.7,4.41,5.86,7.8,5.34S430.38,735.7,430.56,732.23Zm-116.4-78.49c0,6.72.77,7.92,4.59,7.94,4.76,0,8.78-3.25,8.7-7.1-.1-4.79-3.92-9.06-8.59-8.84C313.09,646,314.91,651,314.16,653.74Zm92,34.24a14.21,14.21,0,0,0,4.37,10.82c1.79,1.85,4.18,2.66,6.73.88,2.4-1.67,3.06-3.44,1.44-6.22-1.22-2.1-1.63-4.65-2.49-7-1.1-3-2.87-4.85-6.43-4S406,685.72,406.15,688Zm89.36-183.25c-3.26,2.49-4,5.72-5.17,8.57a283.4,283.4,0,0,0-10.86,31.87c-.44,1.56-1.76,3.69.19,4.41s2.72-1.8,3.24-3.27c3.38-9.67,6.74-19.35,9.8-29.12C493.9,513.39,496.17,509.73,495.51,504.73Zm-17.43-90.1c-3.44.36-4.76.92-5.94,1.95-8.67,7.55-14.69,17.45-22.73,25.57a2.8,2.8,0,0,0,0,4.13c1.14.87,2.59-.27,3.49-1.25,4-4.34,8.06-8.64,11.82-13.19C469,426.62,473,421.15,478.08,414.63Zm47.39.26c-2.05.85-2.62,2.4-3.06,4.08-3.57,13.72-9.13,26.69-14.94,39.56-.51,1.15-1.86,2.68-.39,3.58,2,1.2,2.53-1,3.15-2.22,5.57-11.08,10.67-22.38,14-34.35C525.13,422.25,526.86,418.83,525.47,414.89ZM417.93,798.59c-4.58,0-8.47,2.55-8.35,5.07.15,3.19,6.61,9.83,9.56,9.82,3.13,0,6.68-4.52,6.15-8.46C424.7,800.72,422.34,798,417.93,798.59Zm-8.42-177.51c.49,3.29-.88,7.7,4.47,8.41,2.79.37,9-5.25,9.18-8.07.19-3.9-3.54-8-7.42-7.8C411.18,613.85,408.61,616.06,409.51,621.08Zm-28.67-7.7c-1.36-3.31-2.95-7-7.15-7.75-2.93-.55-7.39,5.5-7.2,9.15.12,2.37,5.71,8,7.72,7.38C378.29,621,380.28,617.85,380.84,613.38ZM276.23,834c-.25-1.1.66-3.3-.89-3.87-4.28-1.58-8.29.16-11.75,2.48a8,8,0,0,0-3.5,8.46c.11.58.91,1.17,1.53,1.49C266.78,845.24,276.09,840,276.23,834Zm18.51-183.82c-2.85.49-5.78,1.66-5.74,5.87.05,4.5,6.17,10.46,10.36,9.84,3.3-.5,3.91-3.47,4-6.15C303.43,655.16,299,650,294.74,650.19ZM549.91,381.44h-1.79a7.81,7.81,0,0,0-.66,2.49c1.21,13.54,2.5,27.07,3.75,40.61.11,1.21.33,2.38,1.86,2.34s1.56-1.36,1.68-2.48c.64-6.18-.87-12.21-1.44-18.28C552.53,397.85,551.08,389.66,549.91,381.44ZM300.13,682.1c-1.22-3-.95-7.57-4.85-8.72-4.73-1.38-8.9,1.69-9,5.49-.14,4.44,5,10.93,9.11,10.86C300.15,689.65,298.69,685.07,300.13,682.1Zm-61.79,41.77c3,.08,5.91.27,5.65-4.18-.23-4-5.82-9.73-9.49-9.8-5.12-.11-5,4-5.38,7.08C228.56,721,232.68,723.81,238.34,723.87Zm167.68-6c0-2.49-7.83-7.74-11-7.29-5.1.73-6.17,3.17-3.24,7.41a41.43,41.43,0,0,0,3,4.17c1.66,1.89,2.82,5.22,6.24,3.65C404.11,724.34,405.36,721.26,406,717.84Zm-53.34,10.41c-2.24.94-6.45-1.1-6.35,4.09.09,4.08,5.46,9.78,9.47,10,5.31.27,5.22-4.36,5.22-7.12C361,730.6,357.5,728.4,352.68,728.25Zm132-224c2-.09,2.59-1.5,3.5-2.76,6.1-8.41,10.22-17.9,14.86-27.1.5-1,1.33-2.38.08-3.09-1.79-1-2.11,1-2.75,2-3.58,5.43-7,11-10.64,16.35-2.26,3.34-4.73,6.54-6.07,10.38C483.14,501.52,482.41,503.39,484.68,504.24ZM262.5,594.33c.44-3-1.64-5.3-2.55-8-.55-1.63-1.43-3.07-3.64-3s-3.43,1.21-4.47,3c-2,3.47-.32,6.74.56,9.95.75,2.73,2,6.13,5.61,5.2C261.09,600.72,262.92,598,262.5,594.33Zm346.41-130c0,.91-.39,1.8-.09,2.32Q619,484.6,629.25,502.44c.54.94,1.34,2.21,2.66,1.63,1.86-.81.76-2.19.26-3.36-4.67-10.93-10.88-21-17.61-30.73C613.14,467.93,612.21,465.13,608.91,464.35Zm-352.35,63.3c.05,4.56,3.39,9.29,6.42,9.47,2.82.17,8.48-5.36,7.65-8.13-1.25-4.16-4.44-6.43-9-6.6C257.5,522.24,256,524.19,256.56,527.65ZM476.42,812.51c4-.47,7.36-1.88,8.37-5.89.59-2.35-6-6.92-9.53-6.91-4.08,0-7,2.34-6.7,6.17C468.87,810.08,472.32,812.16,476.42,812.51ZM448,788.28c-.3-3.53-.69-7.1-5.28-7.49-3.53-.31-8,4.44-7.8,8.32s1.27,7.33,6,7.52C444.37,796.77,448,792.3,448,788.28Zm30.34-2.58c2.23-.76,6.57-1.13,6.28-5.42a7.35,7.35,0,0,0-7.95-6.67c-3.56.19-7.89,1.17-8.86,5.77C467.19,782.4,472.46,785.75,478.35,785.7ZM431.48,597.26c-1.66.17-4.76,6.94-4.46,9.74.39,3.57,4.86,7.3,8.62,6.79,3.36-.45,4.74-3,4.71-6.13C440.33,604.79,433.46,597.07,431.48,597.26Zm31.09,123.33c.06-4.08-2.16-7.48-5.51-8.53-3.82-1.2-8,.5-10.71,3.7-2.23,2.66-.75,4.54,2.41,5.15,2.75.52,5.7.23,7.87,2.69,1,1.18,2.24,2.95,4.25,1.58C462.43,724.11,462.73,722.39,462.57,720.59ZM484.84,429c-1.72-1.31-2.46-1-3-.42-9.74,10.81-16.42,23.78-25,35.41-.61.82-1.28,2.28.13,3s2.44-.54,3.25-1.61C469.15,453.75,475.27,440.29,484.84,429ZM265.45,690.67c.62,2.77.22,6.73,4.51,7.25,3.12.38,8.43-7,8.49-11.22.05-4-2.95-4.58-5.87-4.7C269.1,681.85,265.5,686.3,265.45,690.67Zm209.81,38.68c-3.52,0-8,2.91-7.94,5.18s6.86,9.06,9.12,8.68a7.63,7.63,0,0,0,6.28-6.44C483.24,734.12,478.11,729.35,475.26,729.35Zm-163.1,60c-.15-3.61-1.42-7.5-6-7.79-4-.25-5.55,3.81-5.4,6.8.17,3.65-.35,8.52,4.49,10.15C307.59,799.33,312.07,793.4,312.16,789.39Zm182,44.4c-9.28,2-17.38,3.73-25.42,5.65-1.7.41-3.16,1.88-2.3,3.9a3.4,3.4,0,0,0,4.29,1.86c4-1.05,8.09-2.08,12.1-3.22C487,840.81,491.28,839.69,494.2,833.79Zm60.92-338.45h-.38c0,1.71-.12,3.44,0,5.14.49,5.68.93,11.36,1.75,17,.2,1.39,1,3.77,3.25,3.18s.84-2.53.74-3.92c-.41-5.5-.81-11-1.29-16.51-.42-4.74-.93-9.47-1.44-14.2-.12-1.1-.19-2.58-1.67-2.5s-1.44,1.57-1.41,2.68C554.78,489.26,555,492.3,555.12,495.34Zm39.47-63.89c-1.28,1.79-1.05,2.7-.5,3.53q9.33,14.11,18.73,28.2c.78,1.17,1.87,3.14,3.51,1.65,1.38-1.25.64-3.29-.26-4.8C610,449.84,602,441.12,594.59,431.45Zm-69-89.05c.17-1.27.6-3.06-1.19-3.24s-1.83,1.61-2,2.91c-1.24,11-6.44,21.25-6,32.55,0,1.32-1.75,3.31.76,3.67,1.67.24,2.56-1.86,2.68-3.24C520.77,364,524.78,353.48,525.58,342.4ZM276.77,753.7c4.54,0,8.9-3.75,8.53-7.35-.3-3-1.17-6.15-5.14-6.42-3.07-.21-8.41,4.82-8.47,8C271.62,751.71,273.89,753.34,276.77,753.7ZM274,726.26c7.19.1,8.72-2.34,8.63-11.61,0-2.32-1-3.57-3.42-3.48-3.24.12-9.74,7.49-9.58,11S272.38,726.22,274,726.26ZM617.61,571.4c-3.15-9.47-5.87-19.36-10.09-28.72-.35-.79-1.11-1.74-2.21-1.27-1.35.59-1.08,1.81-.75,2.94,2.08,7.1,4.1,14.22,6.29,21.29a56.29,56.29,0,0,0,3,7.34,1.94,1.94,0,0,0,2.79,1.15C617.65,573.61,617.68,572.64,617.61,571.4ZM445.29,822.65c5-.12,10.15-3.1,8.87-4.8-1.86-2.49-2.56-6.75-6.9-6.73-3.66,0-9,4.74-8.79,7.73C438.8,823.51,442.23,822.8,445.29,822.65ZM346.62,554.41c-3.16,0-9.7,7.47-9.06,10.58a4.09,4.09,0,0,0,4.4,3.55c4.87,0,9-4.34,9.11-9.74C351.16,555.58,349.66,554.3,346.62,554.41ZM245.3,618.46a5.86,5.86,0,0,0-5.71-6c-3.41-.13-7.1,5.56-7.42,11.46-.13,2.31.93,3.65,3.29,3.6C239.23,627.49,245.3,621.8,245.3,618.46Zm80.07-114.38c-3.57,0-9.58,7.12-8.46,9.85,1.06,2.56,3.2,4.23,6.36,3.62a8.57,8.57,0,0,0,7.05-9C330.11,504.91,327.67,504.34,325.37,504.08Zm210-127.24-1.37-.48c-.43.31-1.06.52-1.26.94q-6.6,14.24-13.1,28.5a2.19,2.19,0,0,0,.71,3c1.38.84,2.07-.52,2.68-1.34C529.85,398.32,532,387.34,535.33,376.84ZM403.77,835.58c-2.48.26-5.68,1.59-5.39,4.74.47,5.14,4.95,6.69,9.44,7.25,2.76.35,4.78-1,5.13-4C413.39,839.77,409.3,836,403.77,835.58ZM271.52,799.43c-.06,4.8,3.36,10.34,6.34,10.46,2.3.08,7.23-4.9,7.2-7.28,0-1-9.27-7.31-10.8-7.38C270.76,795.07,271.74,797.72,271.52,799.43Zm236.06-13.31a9.33,9.33,0,0,0-6.29-5.72c-2.47-.58-7.71,5-7.84,8-.19,4.4,3.58,4.54,6.26,5.13C503,794.22,507.41,790,507.58,786.12ZM623.71,593.88a2,2,0,0,0-.16-.61c-6.42-9-11-19.07-15.56-29.07-.4-.87-1-1.84-2.13-1.39-1.85.77-1,2.26-.49,3.39,3.59,8.38,6.63,17,11.68,24.69a18.08,18.08,0,0,0,4.3,4.51C622.9,596.57,623.75,595.59,623.71,593.88ZM484.6,662.36c-.09,4.95,1.23,7.56,3.71,7.72,3.71.23,8.69-3.71,8.51-7.05-.22-4-2.77-6.49-6.56-6.58S484.36,658.76,484.6,662.36ZM382,511.14c0-4.12-4.07-7-8.45-6.16-3.09.61-5.28,2.48-5.56,5.7-.31,3.56,2.09,4,4.93,3.6a2.08,2.08,0,0,1,1.59.44c1.34,1.41,2,4.13,4.8,2.65C381.92,516,381.65,513.23,382,511.14Zm-69.92-57c.83-6.79-4.09-6.18-8.22-6.49-2.74-.2-5.62-.38-5.73,3.64-.08,2.81,6.45,7.87,10,7.85S312,456.64,312.09,454.11Zm-10.82,53.21c-1.11-2.86-3.6-4-6.07-5-3.52-1.42-6.8-1.09-9.13,2.31-1.07,1.57-1.21,4.18.39,4.54,3.73.83,6.87,5.58,11.21,2.23C299.05,510.35,301.16,509.57,301.27,507.32ZM592.65,773.57c.1-3.73-2.55-5.93-5.95-4.31a51,51,0,0,0-9,6.08c-1.41,1.08-2.3,2.76-.93,4.52s2.87,1.44,4.65.68a93.44,93.44,0,0,1,9.09-3.48C592.49,776.45,592.71,775.2,592.65,773.57Zm-367.9-244c-3.59.85-8.88-.46-9.13,5.34-.16,3.62,2.86,6,6.46,5.83,3.85-.22,6.95-2.13,6.94-6.78C229,531.1,228.5,528.82,224.75,529.53Zm142.51,12.23c.18-5.09-6.26-10.14-10.93-8.91-2.59.68-3.7,2.06-1.59,4.48,1.62,1.86,3.65,3.4,4.22,6,.47,2.15,1.54,4.61,3.87,4.13C365.6,546.91,366.75,544.12,367.26,541.76ZM512,556.46c-.15,1.92-.67,3.33.84,3.72,1.89.47,2.08-1.27,2.47-2.46,3.33-10.14,4.57-20.86,8.69-30.78.38-.92.68-2-.58-2.33-1.49-.39-1.81,1-2.29,2C516.41,536.33,515,547.06,512,556.46ZM339.48,537.83c-.18-3.79-5.53-9.36-8.61-9.6-1.57-.12-2.94.56-2.75,2.07a39.75,39.75,0,0,0,2.14,9.74c.69,1.7,1.88,4.81,4.91,3.31C337.54,542.19,339.52,540.28,339.48,537.83ZM231.17,628.38c.33-1.41.19-2.12-.75-2.33a2.61,2.61,0,0,0-2.59.8c-5.39,5.66-10.91,11.2-15.44,17.61-.67.95-1.12,2.22,0,3.07s2.08.4,3-.53c2.84-2.83,6-5.38,8.55-8.43C226.74,635.24,229,631.48,231.17,628.38ZM453.54,755.91c.42-4.25-1.53-7-5.39-7.34-2.63-.22-5.95.31-6.28,4.3-.23,2.86,5,9.09,7.7,8.78C453,761.27,453.48,758.56,453.54,755.91ZM249.75,514.32c-.21-3,0-5.74-3.76-5.61-3.41.13-7.44,4.7-7.71,8.71-.25,3.76,2.9,4.81,5.19,4.62C248,521.68,249,517.63,249.75,514.32Zm186.06-112.2c0-3.13-5.07-7.57-8.46-7.39-3.55.18-5.09,2.59-5,5.73.26,5.93,5.74,4.45,9.06,5.57C434.14,406.94,435.19,404.22,435.81,402.12ZM347.5,493.61c2.59-.22,5.69.25,5.74-3.76,0-2.63-5.4-9.34-7.61-9.25a4.64,4.64,0,0,0-4.8,4.65C340.6,488.67,344.69,493.61,347.5,493.61Zm25.37-8.36c.17-4.9-2.52-7.13-6.59-7.32-2.26-.11-5.57,2-4.26,4,1.9,3-.39,9,5.77,9C371.54,490.86,373.38,488.78,372.87,485.25ZM227.26,595c1.62-1.43,5.1-1,5.65-4.32.4-2.44-7.91-8.09-11.4-7.91-2.06.11-2.44,1.45-2.38,3.14C219.21,588.81,224.41,594.93,227.26,595Zm121.11-88.2c-2.15.41-4.47,1.62-3.66,4,1.31,3.83,4.15,7.27,8.3,7.69,1.85.18,6.86-.21,5.49-4.39S353.1,507.43,348.37,506.76ZM389,564.57c.45-5-.85-7.31-4-8.32-1.87-.6-4-2.36-5.73-.17-1.41,1.81-1,3.93.69,5.66a4.67,4.67,0,0,1,1.14,4.23,2.9,2.9,0,0,0,2.22,3.47c1.93.65,3.26-.4,4.46-1.75A5.09,5.09,0,0,0,389,564.57Zm244.62,84.2c-4.6.1-9.76,3.48-9.61,6.43.14,2.58,1.87,4.16,4.17,3.1,3.52-1.63,9.56,1.39,10.44-5.15C639.06,649.62,636.75,648.53,633.59,648.77ZM246.26,751.7a3.56,3.56,0,0,0,0,1.47c.57,2.17,1.9,4.29,4.2,3.84,3.13-.61,7.29.13,8.78-4,1.36-3.74-2.54-2.15-3.76-3.31a8,8,0,0,1-1.44-1.76,4.25,4.25,0,0,0-5.32-2.15C246.11,746.56,246.13,748.75,246.26,751.7Zm5.42-21c3.06.22,9.45-8.62,8.24-11.44a2.44,2.44,0,0,0-1.05-1.24c-3.78-1.6-6.16.78-8.22,3.28-1.8,2.19-4.82,4.35-1.81,7.78A3.56,3.56,0,0,0,251.68,730.72Zm234.16-50.58-5.56,1c-1,.19-2.48-.19-2.65,1.42-.15,1.33.88,2.09,1.93,2.54,3.66,1.54,7.29,3.19,11.06,4.38,1.5.48,3.67.23,4.24-1.86.45-1.63.54-3.81-1.1-4.67C491.47,681.77,489.31,679.94,485.84,680.14ZM305.1,485.32c-1.66-3.21-4.09-5.34-8.19-5.56-3.54-.2-4.84,1.69-5,4.71-.36,6.13,5.39,4.2,8.26,5.59C302.72,491.3,304.16,488.18,305.1,485.32ZM530,362l2.23-.15q.75-15.07,1.51-30.15l-2.07-.08C530.19,341.67,526.54,351.65,530,362ZM276.94,900.19q-9.24,9.67-18.45,19.38a1.82,1.82,0,0,0,.22,3c1.36.86,2.62.16,3.57-.88,3.87-4.23,7.84-8.37,11.47-12.8C275.56,906.66,278.87,905.23,276.94,900.19ZM388.53,541.77c.57-4.53-1.45-7-3.52-9.06s-4.59-1.44-6.52.61-1.37,3.74.62,5.33c1.18,1,2.57,1.87,2.73,3.5.27,2.68,1.68,3.63,4.22,3.27C389.1,545,388.55,542.67,388.53,541.77Zm-51.17-94.18c-2.62-.23-6.08.4-5.56,4,.66,4.64,5.4,4.57,9.05,5.21a3.85,3.85,0,0,0,4.7-4.35C345.12,448.27,341.48,447.61,337.36,447.59Zm30.73,447.66c-4.13.19-7.3-3.11-11.11-2.3-2.39.52-4.34,1.56-4.81,4.21a2.89,2.89,0,0,0,2.27,3.49c2.9.75,5.95.61,8.93,1.14,1.92.34,1.77-3.41,3.38-4.79A10.13,10.13,0,0,0,368.09,895.25ZM245,552.83c0,4.2,1.6,8.4,5.17,9.55,2.48.8,4.28-3.28,4.66-6.18s-4.25-8.56-6.64-8.4C245,548,245,550.48,245,552.83ZM351.3,431.25c3.54-.41,6.18-.59,8.76-1.06a3.59,3.59,0,0,0,2.92-4.28c-.85-3.94-4.75-2.89-7.4-3.43-3.37-.69-5.88,1.2-6.93,4.47a3.1,3.1,0,0,0,1.93,4.17C351.09,431.32,351.68,431.31,351.3,431.25Zm190.92-75.86-.23,0a22.83,22.83,0,0,0,.24-2.85c0-1.21.66-3-1.34-3.14-1.28-.09-1.88,1.33-2,2.41q-1.53,11-2.82,22.06a2.74,2.74,0,0,0,2,3.1c1.9.29,1.79-1.58,1.94-2.81C540.79,367.9,541.5,361.64,542.22,355.39ZM342.41,906.13c-.61-1.79-1.77-2.35-3.06-1.23q-8.87,7.73-17.54,15.69c-1,1-2.53,2.36-.93,3.88s2.83-.12,3.87-1.1q8-7.47,15.83-15A24.66,24.66,0,0,0,342.41,906.13ZM280.76,482.26c-.49-2.95-2.27-5.29-6.4-4.62-2.75.44-6.65.41-6.09,4.34.42,3,3,6.16,6.38,6C277.13,487.88,281.19,487.63,280.76,482.26ZM447.84,627.48c-.19-3.5-1.23-6.15-5-6-4.93.23-4.73,4.44-5,7.68s2.38,5,5.19,4.71C446.65,633.56,447.69,630.5,447.84,627.48Zm194.39,56.91c-3.61.48-8.19.49-8.79,5.27-.48,3.78,3.28,4,6.17,4.25,4.85.48,6.34-3.21,7.14-6.62C647.5,684.11,644.38,684.68,642.23,684.39Zm-91.3-144.06c-.63,11.48-1.37,23,3.81,33.88C555,562.76,551.88,551.66,550.93,540.33ZM253.42,708.55c2.56-.2,5.27-.61,6.17-3.31,1.18-3.5-1.46-6-3.12-8.74-.71-1.16-1.83-2.09-3.36-1.53s-1.64,1.92-1.65,3.31c0,1.76,1.45,3.73-.92,5.13a2.46,2.46,0,0,0-1,3.45C250.32,708.58,251.86,708.57,253.42,708.55Zm107-254c-3.75,0-5.12,1.62-4.77,4.33.57,4.39,4.13,5.75,7.71,5.93,3,.14,5.57-3.44,4.88-5.08C366.87,456.54,363.26,454.91,360.38,454.52ZM516.72,750c-5.72.32-10.75,8.49-9.24,12.88.62,1.81,1.92,2,3,1.06a26.36,26.36,0,0,0,7.68-9.65C519,752.51,518.65,750,516.72,750ZM318.61,854.74c-.85.06-1.62.08-2.37.19-3.33.48-6.3,2-5.9,5.66.46,4.23,3.81,2.48,6.31,2.07a8.18,8.18,0,0,1,2.26-.11c3.4.4,5.18-1.49,5.18-4.49C324.08,854.45,320.93,855,318.61,854.74ZM668.29,628.15c-.39-.67-.61-1.65-1.15-1.89-3.06-1.38-5.95-.26-8.75,1-2.34,1-4.33,2.45-4.58,5.29a3.27,3.27,0,0,0,1.54,2.89c2,1.54,3.76.14,5.18-.85C663.22,632.66,667,631.94,668.29,628.15ZM405.18,413.63c2.72.7,5.22-1.77,5.17-4.44-.09-4.28-4.85-4.19-7.78-5a4.35,4.35,0,0,0-5.56,4.22C396.8,413.37,400.91,413,405.18,413.63ZM320.13,565.89c-1.51-4.68-5-6.27-9.12-6.85-2.56-.37-4.67.26-4.57,3.45.17,4.85,4.14,5.48,7.55,6.08A6.07,6.07,0,0,0,320.13,565.89Zm276.7,243a19.71,19.71,0,0,0-3.28.33c-2.86.79-4,3.25-5.12,5.68-.54,1.19.21,2.26,1.1,3,2.54,2,4.06-.17,5.86-1.44.73-.51,1.87-.41,2.67-.86,1.81-1,5.21-.54,4.8-3.78C602.43,808.37,599.23,809.27,596.83,808.88ZM211.15,577.73c-4.39-.39-9.64,2.72-9.7,5.7,0,2.43,1.64,3.23,3.75,3.38,3.7.25,11.12-3.45,10.89-5.63C215.79,578.24,213,578.34,211.15,577.73ZM507.28,358.14c-8.11,2.08-14.4,7.2-21,11.71a1.59,1.59,0,0,0-.27,2.48,2.28,2.28,0,0,0,2.08.22C495.3,368.91,502.61,365.32,507.28,358.14ZM607.38,700a8.26,8.26,0,0,0-6.62,3.46,2.73,2.73,0,0,0,.44,3.64c1.93,2,4.17,1.1,6.38.56,1.46-.36,2.95-.65,4.44-.92s3.67.33,3.79-2.28c.1-2.21-1.62-2.86-3.24-3.36S609.25,700.34,607.38,700Zm-212.22-212c5.21-.06,7.5-2.57,7.33-7.55-.09-2.77-2.08-3.09-4-2.76-3.74.66-6.75,2.49-7.28,6.69C390.84,487.5,392.75,488.28,395.16,487.94ZM349.25,854c-4.06.27-6.73,1.08-8.82,3.26-1.32,1.38-2.86,2.9-1.79,5,1.19,2.29,3.36,1.34,5,.69a39.35,39.35,0,0,0,6.54-3.31c1.14-.72,3.24-1.15,2.58-3.17A3.44,3.44,0,0,0,349.25,854ZM725.87,509.75c-.08-2.14-1.34-3.45-3.59-3.23-3.73.36-7.26,1.28-7.68,5.93-.22,2.52.65,4.62,3.45,5C720.37,517.73,725.76,512.37,725.87,509.75ZM598.49,949.8c-4.47.61-9.07,1-13.42,2.55-1.48.55-3.08,1.62-2.59,3.3.59,2,2.47,2,4.31,1.4a60.78,60.78,0,0,1,13.88-3.44c1.53-.15,4.21.58,4.29-1.64.09-2.4-2.67-1.26-4.12-1.81A11.13,11.13,0,0,0,598.49,949.8ZM352.67,404.56c3-.56,6.37-1,9.67-1.88a3.79,3.79,0,0,0,3.08-3.67c-.18-2.38-2.35-2-4-2.06a23.91,23.91,0,0,0-10.44,2.5c-1.45.64-2.75,1.7-2.12,3.53C349.38,404.5,350.94,404.38,352.67,404.56ZM398.2,872.61c-.66.1-2.18.29-3.67.59-2.73.54-4.88,2-4.38,5,.57,3.43,3.42,2.19,5.58,2,1.33-.13,2.62-.57,3.95-.71,2.72-.29,5.33-1.29,5-4.3S401.35,872.62,398.2,872.61ZM723.07,702.14c-2.61.83-6.54,1-6.74,4.18-.24,3.9,3.71,3.36,6.45,3.57,1.52.11,3,.07,4.57.13a3,3,0,0,0,3.22-1.84c.71-1.74-.4-2.87-1.56-3.91C727.35,702.77,725.14,702.85,723.07,702.14Zm-297.3-321c-.88,5.7,4.5,4.3,7.3,5.34s4-1.87,4-4.1c0-3.68-2.63-5.33-6-5.44C428.56,376.81,425.49,376.67,425.77,381.1ZM393,429.88c1.58.05,3-2.34,2.71-4.73-.62-4.45-5.09-3.84-8.11-4.5-2.44-.53-4.46,1.35-4.3,4.06C383.57,429.89,387.84,429.29,393,429.88ZM216.48,556.94c-2.58.68-7-.16-7,4.78,0,3.85,3.44,3.17,6,3.28,3.65.15,6.79-1.22,7.07-4.92C222.81,556.68,219.5,557,216.48,556.94ZM375.6,452.73c4,.38,7-1.55,6.78-4.39-.29-3.76-4.41-4.12-7.59-4.38-3-.26-5.46,1-5.34,4.42C369.6,452.78,373.37,452.23,375.6,452.73ZM672.44,674.54c2.9-1.06,7.93-.12,8.65-5.38.4-2.94-3.14-3.77-4.92-3.41-3.47.69-8,1-8.73,5.72C667,674.15,669.48,674.67,672.44,674.54ZM617.85,628c-.92-2.47-1.46-3.71-2.89-4.15-2.79-.87-5.4-.41-7.1,2.14s-3.46,5.58-1.57,9c.49.87,1.56,1.74,2.33,1.12C611.8,633.5,614.79,630.7,617.85,628Zm82.53-13.79c-.23-1.65-1-3-3.13-3.11-3.14-.15-9,4-9,6.65a3.91,3.91,0,0,0,3.64,4.33C694.19,622.36,700.28,616.73,700.38,614.2Zm-98.49-93.57c-2.14.7-2.44,1.66-2,2.56q5.49,11.64,11.16,23.2c.47,1,1.31,2.13,2.66,1.17,1-.72.4-1.72,0-2.57q-5.52-11.32-11-22.65C602.33,521.65,602,521,601.89,520.63ZM634.57,717a7.81,7.81,0,0,0-1.88.26c-3,1.31-7.84,1.65-6.79,6.05s5,1.35,7.76,1.09c.57-.06,1.12-.26,1.69-.3,2.5-.16,4.95-.84,4.49-3.87C639.42,717.51,636.63,717.45,634.57,717ZM518.8,671.49c4.17-.27,7.07-2.36,7.82-6.61.41-2.28-.66-4.14-3.43-4.08-2.34.05-9,6.15-8.81,8.12C514.61,671.73,517,671,518.8,671.49Zm35.1,78.72c2,.06,9-7.94,8.72-10-.2-1.74-1.56-2.06-2.87-2.28a5.78,5.78,0,0,0-5.94,2.68c-1.69,2.4-2.74,5-2.09,8A2.21,2.21,0,0,0,553.9,750.21ZM270.11,862.92c4.11.31,7.57.84,7.66-2.89.09-3.54-3.39-5.09-6.39-5.39-2.83-.28-6.36.85-6.55,4.2C264.58,863.21,268.53,862.78,270.11,862.92Zm357.84-81c0,1.33-.13,2.82,1.16,3.64,1.69,1.05,2.91-.14,4-1.27a7.66,7.66,0,0,1,4.31-2.67c1.64-.26,3.23-.82,3.11-2.68-.13-2.15-1.86-3.28-3.81-3.78A7.15,7.15,0,0,0,628,781.89ZM578.88,630.57a9.56,9.56,0,0,0-7.66,4c-.75,1.08-.27,2.23.61,3.09,2.68,2.58,5.34.55,8-.11a5.22,5.22,0,0,1,.57-.07c2.31-.27,4.77-.28,4.35-3.79C584.36,630.36,581.94,630.63,578.88,630.57ZM509.1,490.2c-6.12,8.64-7.49,18.94-11.06,28.46C504.69,510.28,506.75,500.15,509.1,490.2ZM461.85,612.05c-.08-4.11-1.45-7-5.78-7.22-2.22-.14-3.61.95-3.78,3.25-.25,3.36,3.64,9.32,6,9.19C461.94,617.07,461.38,614.06,461.85,612.05ZM305.91,877.79c-3.25.2-7,.55-7.32,5-.17,2.74,2.39,3.34,5,3.34,4.13,0,7.49-1.77,8-5.69C311.9,877.34,308.29,878.25,305.91,877.79ZM671.24,499.33c-.34,2.7.66,5.37,2.73,5.18,4.41-.4,5.56-4.82,6.78-8.16,1.08-2.92-1.94-3.81-4.2-4C671.22,492.05,672.61,497,671.24,499.33Zm-75.16,229c0-1.92-2.11-4.16-3.92-4.15-2.56,0-7.78,4.68-7.44,6.92.28,1.94,1.38,3.6,3.57,3.83C590.27,735.11,596.08,730.05,596.08,728.3ZM301.71,439.56c2-.37,5.4,1.26,5.57-3.22s-3-4.61-6.16-4.8c-3-.18-5.69.75-5.85,4C295.08,439.66,298.4,439.62,301.71,439.56ZM482,703.09c-2.43.06-3.3,1.44-3.24,3.72.07,2.83,4.64,8.1,7,8s3.28-1.66,3.3-3.83C489,707.7,484.73,703,482,703.09ZM540.81,679c-.12-1.76-1.62-3.41-2.71-3.15-4.21,1-6.7,4.5-9.26,7.67a2,2,0,0,0,.75,3.29c.17.08.37.11.54.18C533.77,688.4,541,683,540.81,679ZM319.28,415.35c-2.62.13-5.78.5-6.25,4.47-.32,2.74,1.63,4,4,3.35,3.11-.91,8.19,1.07,8.66-4.28C326,414.94,322.44,415.52,319.28,415.35Zm412.44,175a10.82,10.82,0,0,0-.93-1.73c-2.23-3-5-2.32-7.44-.58S717.85,592,720,596a2.81,2.81,0,0,0,1.15,1.19C722.93,598,731.58,592.65,731.72,590.38Zm-146.4,55.1c-2.35,1-7.1.55-6.91,4.57.24,5,4.53,3,7.54,2.43a3.62,3.62,0,0,1,.57,0c2.64,0,5.52-.38,5.21-3.7C591.44,645.61,588.28,645.88,585.32,645.48ZM267,501.49c2.09-.92,6.37,0,6.46-4.12.07-3.06-3.28-5.12-5.81-5.35-2.87-.25-5.06,2.12-5.36,5.49C262.05,500.62,263.81,501.5,267,501.49ZM436,529.14c-2.87.6-6.36.76-6.84,5-.33,2.9,1.5,4.65,4,4.08,3-.69,7.31-.39,7.6-5.21C440.92,530,438.69,529.36,436,529.14Zm140,223.51c-3.86-.08-8.58,3.46-8.31,6.4.16,1.78,1,3.34,3,3.67s9.23-5.22,9.17-6.92C579.74,753.36,578.07,752.66,575.92,752.65ZM611,764c-3.27-.64-5.44,1-7.22,3.45a2.34,2.34,0,0,0,0,3.11c2.12,2.59,4.52.7,6.81.4a3.63,3.63,0,0,1,.57,0c3,.07,5.61-1.06,5.31-4.35C616.25,763.54,613.11,764.37,611,764Zm93.12-202c2.78-1,7.27-.2,7.44-5a4.23,4.23,0,0,0-5-4.3c-3.2.43-6.39,1.94-6.78,5.77C699.57,561.07,701.49,562.05,704.14,562Zm12.57-58.45c-.09-1.35-1.07-1.5-2-1.86a12.41,12.41,0,0,0-7.28-.79c-2.65.54-5.85,1.32-4.91,4.84.85,3.18,3.66,3.44,6.55,2.08,1.88-.89,3.84-1.64,5.76-2.46C715.78,505,716.59,504.53,716.71,503.58ZM434.64,845.45c-2.85.34-5.71.39-8.23,2-1.57,1-2.68,2.24-2,4.19s2.47,2.23,4.22,1.79a56.75,56.75,0,0,0,7-2.25c1.7-.68,4-1.44,3.32-3.85C438.42,845.29,436.23,845.71,434.64,845.45Zm298-210.06c-.67-2.58-2.45-4.08-4.59-3.46-2.82.81-7.11.43-7.22,4.87-.06,2.05.85,5.33,3.66,4.71C727.89,640.77,731.21,639,732.68,635.39Zm-28.78,39c2.55-.06,5.08-.15,4.87-3.44s-2.41-5-5.76-4.9c-2.9.06-6.44.05-6.36,3.91C696.75,674.53,701.18,673.48,703.9,674.37ZM485.34,757.43c1.21,3.3,4.94,2.49,7.54,3.26a3.11,3.11,0,0,0,3.76-3.79c-.64-2.18-.51-5.55-3.34-6.27C490.68,750,485.23,754.74,485.34,757.43Zm92-408.41c-3.65,6-4.54,23-1.62,29.12C578.47,368,577.82,358.48,577.34,349ZM548.66,828.59c.14-1.32-1.62-1.61-3-1.87-2.9-.55-9.18,4.45-9.25,7.24,0,2.08,1.33,3.09,3.13,3.44S548.31,831.6,548.66,828.59ZM692,543.94c.16,1.25-.66,2.81,1,3.54,1.23.54,2.11-.42,3-1.12,2.26-1.82,3.71-4.28,5.26-6.66s-.22-3.6-1.54-4.85c-1.58-1.5-2.84-.09-3.81,1A18.13,18.13,0,0,0,692,543.94Zm-106.49,143c-4.22.21-9.31,4.33-9.14,7,.15,2.54,2.13,2.92,3.65,2.25,3.38-1.51,8.47-1.05,9.06-6.26C589.37,687.55,587.14,687,585.52,686.93Zm-42.28,91.22c.16,1.38,1.31,2.21,3.1,1.6,3.57-1.23,5.81-4.2,8.18-6.88,1-1.09.33-2.56-.62-3.65s-1.91-1.87-3.45-1.49C548.59,768.17,543.06,775.68,543.24,778.15Zm180.54-96.93c2.63-.45,5.68-.69,5.64-4.31,0-2.82-1.43-5.67-4.55-5.53-2.76.12-5.82,1.53-5.54,5.27C719.52,679.14,720.16,681.75,723.78,681.22Zm-146.1,32.26a2.4,2.4,0,0,0-1.7-2.22c-3-1.2-9.1,1.36-10.34,4.38a3.52,3.52,0,0,0,1.7,4.85c2.18,1.07,4-.51,5.62-1.81C574.84,717.17,577.3,716.15,577.68,713.48ZM289.49,450.35c3.23.22,5-1.42,5-4.31,0-3.48-2.7-4.12-5.63-4.23-3.42-.12-5.74,1.22-5.71,4.8C283.17,451.17,287.23,449.47,289.49,450.35Zm411.58,283.8c-3.61,0-8.33,3.84-8.25,6.74.06,2,1.07,3.3,3.11,3.44,2.41.16,8.36-5.63,8.31-7.89S702.67,734.15,701.07,734.15ZM526.89,855.9c2.49.11,8.3-5,8.29-7.23a3.5,3.5,0,0,0-3.07-3.53c-2.1-.4-8.37,4.77-8.38,6.88S525.12,855.37,526.89,855.9Zm179.8-220.74c2.17-1,6.51.48,6.78-3.84.22-3.53-3.38-4.67-6-4.87-3.07-.25-5.38,1.94-5.4,5.32C702.08,634.26,703.71,635.48,706.69,635.16ZM300.1,536.75a7.1,7.1,0,0,0,5.73-6.49c.31-2.94-3-2.09-4.92-2.14-3.46-.09-6.54.38-6.43,5.12C294.55,536.67,296.77,536.66,300.1,536.75ZM614.9,744.19c.31,1.7.35,4.54,3,3.19s5-4,7.14-6.27c1.65-1.75.23-3.11-1.33-4.05a5.51,5.51,0,0,0-5.92,0C615.06,738.62,615.5,741.56,614.9,744.19Zm-105.33-13.7a2.76,2.76,0,0,0-3.36-3c-4.33.49-6.08,3.58-6.64,7.47a2.94,2.94,0,0,0,2.74,3.65C504.12,738.85,509.62,732.52,509.57,730.49Zm189.8-213.25c-4.26.51-7.66,2.41-8.82,6.78-.54,2.06,1.12,3,3.15,3,3.12,0,9.29-5.21,9-7.76C702.51,517.36,701.21,516.8,699.37,517.24ZM510.71,707.11c2.72,0,7.38-4.71,7.31-7.19,0-1.9-.74-3.39-2.86-3.6-2.28-.22-8,5.06-8,7.37C507.11,706.2,508.89,706.79,510.71,707.11Zm95.53,116.23c0-2.07-1.55-1.85-2.83-1.87-4.6-.08-7.48,2.45-9.25,6.44a2,2,0,0,0,1.14,2.8C598.14,832,606.44,826.39,606.24,823.34Zm83.65-99.19H693a3.86,3.86,0,0,0,4.2-4.3c-.2-3.15-2.77-3-5.18-2.52-1.67.33-3.36.55-5,.81s-3.17.57-3.39,2.43c-.26,2.2,1.51,2.9,3.18,3.3A16,16,0,0,0,689.89,724.15ZM291.45,848.63c-2.94.3-5,1.7-5.05,4.54-.12,5.2,4.92,2.77,7.34,4.18,2,1.16,4.09-2.07,4-4.26C297.53,849.39,293.77,849.76,291.45,848.63Zm321.87-195.9c3.85-.5,8.36.14,8.12-4.23-.17-3.16-4.27-3-7.11-3-2.55,0-5.33.44-5.44,3.65C608.79,652.53,611.38,652.93,613.32,652.73ZM666,699.86c-2.75.26-5.47,1.35-5.14,3.81.57,4.28,5.27,4.3,8.3,5.78,1.41.69,3.42-1.4,2.88-3.22C671.08,703.18,669.34,700.45,666,699.86ZM247.31,869.15c-6.83,2.76-8.92,9.83-13.58,14.52a2.1,2.1,0,0,0,.1,2c1,1.16,2,.21,2.93-.44C242.31,881.22,244.73,875.15,247.31,869.15Zm37.1,22.7c2.76.1,6,.27,6.13-3.37s-3.1-3.74-5.85-3.61-6.66,0-6.8,3.55C277.73,892.49,281.68,891.68,284.41,891.85ZM659.74,764.36c-4-.05-8.18,2.77-8.34,5.29-.13,2.26,1.2,3,3.16,3.12,3.92.17,9.51-3.12,9.13-5.49S661.36,764.52,659.74,764.36Zm49.21-118a27.49,27.49,0,0,0-4.2.24c-2.15.45-4.33,1.45-3.71,4.06s2.32,4.4,5.49,3.13c1.06-.42,2.22-.59,3.26-1,2.1-.91,4.77-1.9,4.27-4.58S710.69,646.54,709,646.34ZM430.47,827.54c-.59-3.43-2.18-5.49-5.64-5.58-2.83-.06-5.27,1.31-5.52,3.93s2.14,5.05,4.68,4.39C426.09,829.73,429.7,831.16,430.47,827.54ZM557.86,652.35c-2.68.17-7.44,5.79-7.29,8.64.1,1.76,1,2.86,2.83,2.89s8-7.29,7.79-9.26S559.46,652.4,557.86,652.35ZM694.11,495.88c2.57-1.16,5.5-2.44,5.7-6,.14-2.53-1.53-4-4.08-3.42-3.05.65-6.25,1.72-6.12,5.6C689.68,494.22,691.24,495.86,694.11,495.88ZM331.36,433.09c0,4.17,2.46,5,5,5a5,5,0,0,0,4.9-4.71,4.68,4.68,0,0,0-4.85-4.66C333.79,428.89,331.48,430.6,331.36,433.09Zm143.22-50.45c2.89-.53,6.33-.09,8.42-3.34a2.08,2.08,0,0,0-.4-3.06c-3.38-2.23-6.48-1.05-9.51,1-1.49,1-4.25,1-3.7,3.54S472.71,381.62,474.58,382.64Zm-5.5,445.9c2.22.13,4.73-.85,4.6-4.29a4,4,0,0,0-4.6-4.11c-2.76.38-6.39,1-6.63,4.37S465.35,828.49,469.08,828.54ZM409.79,571.85c2.86.17,4.93-.49,4.79-3.23-.17-3.53-2.6-5.55-5.9-5.82-2.36-.18-4.82,1.17-4.78,3.86C404,570.48,407.16,571.33,409.79,571.85ZM627.08,673.19c0-3.06-4.57-7.63-7.53-7.39-2.23.18-4.42,1.18-4.11,3.74.71,5.89,6.86,3.11,9.85,5.66C626.25,676,627.12,674.49,627.08,673.19Zm16.5,33.58c-.64-2.14-1.39-4.71-4.14-4.62-3.21.11-6,1.73-6.39,5.35-.25,2.45,1.32,4.23,3.89,3.66S642.9,710.79,643.58,706.77Zm15.88-50.14c2.66-1.27,6.57-1,6.79-5.5.13-2.53-1.4-3.54-3.59-3.16-3.16.54-6.82,1.14-7.54,4.87C654.68,655.17,657.18,656.11,659.46,656.63Zm-401,249.76a1.43,1.43,0,0,0-.93-1.8c-1-.48-1.81.15-2.53.78-4,3.46-5.8,9-10.75,11.58-.34.18-.44,1.55-.13,2a2.48,2.48,0,0,0,2,.64C248.63,919.33,258.16,909,258.45,906.39ZM522.59,734.13c-.25,2.68.52,5.22,2.75,5.19,3.42,0,5.23-3.13,5.5-6.13.2-2.31-1.09-5.38-4-5.18C523.24,728.24,523.25,731.83,522.59,734.13Zm73.68-60.32c.14-3.46-1.58-4.15-4-4.23-3.95-.12-6.09,1.82-6.5,5.63-.21,1.95.94,4,2.76,3.46C591.58,677.78,595.39,677.34,596.27,673.81ZM244.91,827.29c-2.8,0-5.5.82-5.48,4.23,0,3.73,3.56,3.39,5.94,3.91,3.1.67,4.93-1.63,4.94-4.15C250.32,828.43,247.79,827.33,244.91,827.29ZM552.59,633.21c-2.06.08-4.61.19-4.05,2.76,1,4.56,5.47,3.92,8.81,4.76,1.6.41,3.14,0,3.1-2.18C560.37,633,555.48,634.51,552.59,633.21ZM528.9,770.81c-.22-1.74-.72-3.4-3-3.31-4.2.18-6,3-6.59,6.66-.3,1.73.28,4.15,2.47,3.48C525,776.64,528.09,774.78,528.9,770.81ZM386.68,470.57c5.08.47,7.29-1.68,7.88-5.23.36-2.12-1.6-3.18-3.38-2.63-3.14,1-7.19,1.5-7.86,5.44C382.78,471.39,385.93,470.46,386.68,470.57ZM552.47,712.2c-.13-3.15-2.07-3.5-4.33-3.49-3.19,0-6.41.38-6.84,4.27a3.37,3.37,0,0,0,3.76,3.94C548.34,716.62,551.28,715.5,552.47,712.2ZM510.79,859.6c0,2.09-.45,4.6,1.94,4.37,4.17-.4,5.77-3.92,6.9-7.47.7-2.17-.61-3.7-2.49-3.58C513,853.18,512,856.82,510.79,859.6ZM668.07,753.66c2.63-.49,6.29.72,6.36-3.21.05-2.94-3-3.93-5.4-3.76-3.08.21-6.7,1.94-6.72,4.94C662.3,755,666.17,753.06,668.07,753.66ZM626,813.05c3.25.08,8.06-4,7.93-6.57-.1-1.81-1.44-3.23-2.9-2.79-3.46,1.06-6.76,3-8.13,6.48C622.05,812.18,624.48,812.71,626,813.05Zm39.51-89.63c-1.14-3.1-3.6-4-6.28-4.07-3.46-.1-5.1,2.27-5.46,5.33-.24,2,1.42,3.56,3.22,2.78C659.73,726.26,663.89,727.58,665.47,723.42ZM564.2,789.81c2.54-1.26,6-2,6.36-5.49.28-2.52-1.82-4.23-4.43-4-3,.24-5.51,1.92-5.73,5.15A4,4,0,0,0,564.2,789.81ZM695.44,587.75c-3.33.1-6.05.78-6.09,4.65,0,2.16.4,4.33,3.07,4.74,2,.3,7.19-4.71,7.05-6.75C699.27,587.66,697.12,587.86,695.44,587.75ZM442.83,873.1c2.63-2.14,8.34,1.9,9.11-3.85.37-2.77-3.15-2.69-5.38-2.67-3.34,0-6.9.64-7.81,4.29C438.19,873.11,441.05,872.63,442.83,873.1ZM725.72,565.41c-.28-1.88-1.48-3.72-3.85-3.66-3.75.09-5,3.15-5.5,6.2-.28,1.87.77,4.2,3.16,3.81A7.07,7.07,0,0,0,725.72,565.41ZM570.58,832.18c2.53-.66,6.14,0,6.19-4.15,0-3.23-2.51-4-5.1-3.95-2.83.08-5.37,1.37-5.7,4.43S568.07,832.09,570.58,832.18ZM696.76,696.53c1.5.28,2.91-1,2.86-3.53-.07-4.09-3.25-4.6-6.31-4.9-2.37-.23-4.17.74-4.09,3.45C689.34,695.7,692.52,696,696.76,696.53Zm-284-242c-2.1,1.17-6.09.88-6.45,5.14a3.39,3.39,0,0,0,3.62,3.62c3.34-.2,6.34-1.53,6.64-5.58C416.71,455.61,415.54,454.55,412.75,454.5Zm126.9,335.44c-.07-1-1-2-2.94-1.6-3.51.78-6.65,2.26-7.49,6.17-.46,2.16,1,3.08,3,3.2C535.31,797.89,539.67,793.8,539.65,789.94ZM245.49,490.28c2.45-1,5.66-2.26,6-5s-2.91-3.78-5.31-3.9c-2.86-.15-4.47,1.77-4.57,4.66C241.56,488.43,242.67,490,245.49,490.28Zm492.07,168c2.5.26,5.34-.18,5.3-3.33-.05-3.91-3.71-3.63-6.4-3.78-2.13-.12-5-.48-4.73,3.13S734.43,658.42,737.56,658.23ZM454.16,405c-2.62.07-5.2.56-5.25,3.81,0,2.44,1.23,4.36,4.15,4.34,3.29,0,5.62-1.75,6-4.84S456.5,405.13,454.16,405Zm10.53-5.59c.78-2.67,5.6-.69,6-4.69a3.48,3.48,0,0,0-3.82-4c-2.79.39-6.36.88-6.56,4.93C460.23,397.84,461.58,399.15,464.69,399.41Zm-54.2,32.22c2.87.22,5.81-.58,5.63-3.37s-3-4.64-6.09-4.74c-2.77-.09-4,1.7-4.11,4.34C405.74,431.35,407.81,432,410.49,431.63Zm36.65-34.47c3.18-.17,5.85-1.7,6.2-5.54.2-2.17-1.69-3.18-3.48-2.59-3.07,1-7.34,1.1-7.81,5.35C441.73,397.27,444.64,397,447.14,397.16ZM725,543.49c-.15-1.52-.73-4-2.58-3.37a10.17,10.17,0,0,0-6.8,7.74c-.42,1.92.89,3.29,2.83,3.55S725,546.27,725,543.49ZM504.82,385.32a7,7,0,0,0,1.6-1.3,61.33,61.33,0,0,0,7.51-15.28,1.66,1.66,0,0,0-.95-2.34c-1.15-.36-1.74.58-2.13,1.4-2.28,4.79-4,9.86-7.14,14.21C502.85,383.18,502.86,384.54,504.82,385.32Zm75.41,467.16c2.55.18,8.35-6.07,7.88-8.67a4,4,0,0,0-1.47-2.23,1.51,1.51,0,0,0-2.31.8,9.1,9.1,0,0,1-5.88,4.88c-1.2.38-1.49,1.63-1.11,2.84A3.31,3.31,0,0,0,580.23,852.48ZM333,893.42c3.26-.33,5.91-1.43,6.1-4.55s-2.58-3.52-4.92-3.18c-2.51.37-5.92.41-5.76,4.12C328.56,892.44,330.79,893.52,333,893.42ZM280.19,644c-4-.24-5.76,1.4-5.77,4.67,0,2.39,1,3.89,3.76,4,3.69.21,5.38-2,5.86-5C284.55,644.6,281.89,644.2,280.19,644ZM424.43,473.51c-.56-2-1.08-4.48-3.83-3.94-3.62.7-4.18,4.11-4.64,7.06-.27,1.68.59,3.79,2.82,3.38C422.13,479.4,423.86,476.93,424.43,473.51ZM686,513.63c-.12-3.28-1.87-4-4.25-3.9-3.07.13-5.9,1-6,4.55-.09,2.29,1.77,3.8,4.24,3.54C682.86,517.51,685.63,516.78,686,513.63ZM535.07,640.1c-2.69.18-5.58.26-5.69,3.93-.07,2.09,1.48,4.25,3.36,3.57,2.32-.85,6.32.84,6.85-3.09C540,641.73,538.21,639.91,535.07,640.1Zm69.25,101.48c-.16-2.37-.71-4.19-3-3.72-3.54.73-5.49,3.32-6.13,6.77-.37,2,.79,3.93,2.65,3.58C601.49,747.52,603.2,744.46,604.32,741.58ZM334.69,413.1c3.71.65,6.26-1,6.75-4.47.39-2.76-2.29-2.45-4.11-2.42-3.15.06-6.64.49-7.2,4.16C329.67,413.33,332.73,412.91,334.69,413.1Zm367.46,63.27c1.61-.4,5.47,1,5.69-2.68.23-3.88-3.83-3.57-6.4-4-2.27-.37-4.91.16-4.8,3.31C696.75,475.74,698.61,476.94,702.15,476.37ZM510,649c2.47-.18,5.31.92,5.27-2.36,0-3.79-3.32-4.87-6.29-5.37-2.53-.43-3.81,1.52-3.87,3.84C505,648.84,507.62,649.2,510,649Zm45,200c2.66-1.41,5.86-2.62,6.37-6.19.23-1.66-1.24-3.61-3.09-3.29a8.28,8.28,0,0,0-6.64,6.17C551.19,847.42,553,848.53,555,848.94ZM227.56,675.4c2-.07,7.53-7.45,7-9.23a2.6,2.6,0,0,0-1.42-1.55,4.22,4.22,0,0,0-5.27,2.22c-1.21,2.43-2.25,5.1-1.53,7.95C226.42,675.12,227.27,675.26,227.56,675.4Zm449.92,63.39c1.14-.07,4,.81,3.78-3-.2-4-3.54-3.37-6-3.82s-4.54.62-4.59,3.11C670.62,738.9,673.67,738.89,677.48,738.79ZM329.11,457.68c0-2.77-1.54-4.33-3.87-4.06-2.71.3-5.17,1.75-5.29,5s2.82,3.35,4.84,3.69C328.3,462.86,328.24,459.62,329.11,457.68Zm37.47,413.06c-3.15.69-6.26,1.52-6.44,5.77-.08,1.9.93,3,2.8,2.65,3.56-.66,6.72-2.26,7.44-6.12C370.94,870.08,368.07,871.51,366.58,870.74ZM721.39,481.85c-.53-2.17-1.5-3.65-3.61-2.93-2.84,1-5.95,2-6,5.84,0,2,1.19,3.51,3.16,3.12C718.25,487.2,720.27,484.78,721.39,481.85ZM216.86,633.12l1.46,1.28c4-4.41,8.44-8.34,11.29-13.76a2.13,2.13,0,0,0-.52-3c-1.4-1.06-2,.19-2.6,1C223.25,623.47,220.06,628.3,216.86,633.12ZM661.5,793.46c-1-2.24-2.68-3.32-4.68-2.78-3.41.93-6.25,2.86-6.57,6.75a2,2,0,0,0,2.82,1.86C656.27,797.92,659.61,796.6,661.5,793.46Zm-54,1.37c1.45-.31,4.53,1.63,4.6-1.8.08-4.12-3.65-4.22-6.58-4.69-2.4-.39-4.65.8-4.45,3.14C601.32,794.85,604.28,795.15,607.45,794.83Zm5.61-68.68c1.82.05,3.53-1.55,3.67-4.37.14-3-2.18-3.67-4.61-3.67a5,5,0,0,0-5.28,4.82C606.74,725.75,609.55,726,613.06,726.15ZM739.11,560.49c2.54-1.45,6-2.62,6.37-6.59.16-1.79-1.62-2.48-3.28-2-3.31.91-6.82,2-7.3,6C734.7,559.59,736.71,560.55,739.11,560.49ZM630.45,761c2.33-1.07,6.83,1.21,7.6-3.33.52-3-2.55-3.11-4.92-2.93-3.27.23-7.08.47-7.57,4.39C625.22,762,628.33,760.58,630.45,761Zm83.85-75.1c-3.12-.32-4.34.84-4.4,3.51-.08,4.07,3.51,3.88,5.62,4.09,2.49.24,5-2.07,4.74-4.59C719.86,685.49,715.93,687,714.3,685.91Zm-6.82,19.6c-2.77.24-4.25,1.74-3.94,4.12.46,3.56,4,3.91,6.48,4.6s2.31-1.92,2.23-3.56C712.11,707.54,710.19,706,707.48,705.51ZM539.69,752.87c-.21-3.43-3.06-3-5.05-3.07-2.2-.11-5.07.22-5,3.26.08,2.48,2.2,3.94,4.75,3.9S539.17,755.85,539.69,752.87ZM720.33,533.05c2.52.21,4.31-.18,4.15-2.86-.18-2.85-1.55-4.66-4.66-4.58-2.72.06-5.19.82-5.13,4C714.76,533.74,718.35,532.52,720.33,533.05Zm-70.82,90.37c3.08-.81,6.36-1.86,6.86-5.12.37-2.44-2.56-3.12-4.57-3.15-3.07,0-4.74,2-5.06,5C646.53,622.06,647.45,623.36,649.51,623.42ZM429.28,440.76c-.26-2.82-2.07-3.58-4.7-3.53-2.81.07-4.28,1.67-4.43,4.17-.17,2.86,1.84,3.89,4.43,4C427.63,445.44,429,443.77,429.28,440.76Zm-48.75-54.45c-2.13.14-4.78.27-4.68,2.95.12,3.13,2.79,4,5.67,4.35,3.41.44,4.9-1.94,4.82-4.21C386.22,386.08,382.77,386.88,380.53,386.31ZM714.76,732.62c1.34-.27,4.26.22,4.37-3,.12-3.6-2.72-3.53-5.29-3.49-2.33,0-5-.08-4.9,3.25C709,732.37,711.43,732.78,714.76,732.62ZM643.87,608.9c1.81-1.06,5.21-.72,5.14-4.53a3.14,3.14,0,0,0-3.78-3.29c-2.65.43-6.28.57-6.3,4.35C638.91,607.56,641,608.84,643.87,608.9Zm101.25-33.41c-1.69.67-4.38,1.7-4.58,4.79-.12,1.81,1,4.25,3.25,3.93a6.1,6.1,0,0,0,5.35-5.77C749.36,576.26,748.2,575.28,745.12,575.49Zm-235,229.82c.46-2.21,0-3.77-2.38-3.63-3.48.21-5.66,2.29-5.95,5.7a3.14,3.14,0,0,0,3.58,3.52C508.49,810.52,510.6,808.76,510.08,805.31ZM748,609.57c-.21-2.51-1.34-4-3.61-3.71-3,.42-5.45,2-5.8,5.28a2.62,2.62,0,0,0,3.19,3C744.48,613.56,747.3,612.65,748,609.57ZM556.56,689.16a6.43,6.43,0,0,0,4.21-5.68c.15-2.67-1.83-3.55-4.19-3.59-3-.06-4.05,1.83-4.09,4.41S554.16,688.37,556.56,689.16ZM676.82,456.53c-.11-2.73-1.53-4.34-3.89-4.12-3.37.32-3.69,3.46-4.11,6-.34,2.06.81,3.92,3.09,3.9C675.69,462.25,675.73,458.78,676.82,456.53Zm-243-35c.41-2.28-.79-3.54-2.34-3.43-3.1.23-6,1.48-6.68,4.94-.43,2.24,1.37,3.56,3.43,3.56C431.64,426.65,432.72,423.82,433.78,421.57ZM392.94,856.72c.11-1.83-.84-3.51-3.15-3.4-2.92.14-5.89,1.09-6.19,4.56a3.39,3.39,0,0,0,3.66,3.58C389.73,861.16,392.77,860.79,392.94,856.72ZM598.73,939.5c-5.78-1.49-10.18-1.16-14.42.94-1,.52-2,1.34-1.77,2.63a1.65,1.65,0,0,0,2.15,1.34C589.1,943.17,594,943.31,598.73,939.5ZM649.4,672.17c2.44.1,4.21-1.17,4.17-4.35,0-2.61-1.85-3.21-3.91-3-2.54.19-5.21.66-5.17,4.06C644.52,671.58,646.48,672.26,649.4,672.17ZM400.65,444.64c-2.44,1-6.52-.4-7.08,3.93-.32,2.42,2,3.22,3.85,3.27,3.44.09,5.72-2.31,6.7-5.12C404.76,444.91,402.24,445,400.65,444.64Zm286,191.48c-.63-2.3-2.24-3.3-4.31-2.89-2.7.52-5.4,1.83-5.5,4.87-.07,2.07,2,3.16,4.19,2.78C683.82,640.39,686,639.08,686.69,636.12ZM485.29,626c2.66-1.3,5-3.17,5.17-6.58.1-2.18-1.58-2.92-3.51-2.68-3.27.41-4.15,3-4.59,5.69C482.06,624.23,482.74,625.85,485.29,626ZM674.18,601.8c-2,.34-5.06.72-5.35,4.35a2.74,2.74,0,0,0,3.22,3.09c2.87-.6,6.29-1.13,6.59-5C678.81,602.13,677,601.49,674.18,601.8Zm15.15,52.52c-.11-2.32.07-4.24-2.2-4-3.64.45-5.52,3-6.43,6.33-.42,1.51.44,3,2,2.51C685.65,658.33,689.23,657.83,689.33,654.32ZM538.24,700.64c-1.18-2.44-2.91-4.23-5.67-4.2a3.55,3.55,0,0,0-3.58,3.77c0,2.85,2.06,4,4.64,4A4.53,4.53,0,0,0,538.24,700.64ZM640.6,743.42c2.85-.45,5.46-1.53,5.95-4.91.36-2.45-1.82-2.8-3.42-2.77-2.84,0-5.26,1.21-5.71,4.41C637.13,742.24,638.41,743.27,640.6,743.42ZM558.19,820.2c2.66-1.14,5-2.67,5.34-6,.23-2.24-1-3-3.14-3-3.57.1-5.11,2.41-5.43,5.47C554.76,818.54,556.06,819.88,558.19,820.2ZM718.31,611c-2.19.6-4.49,1.63-4.63,4.63-.1,2.11,1,3.94,3.36,3.71,2.89-.27,5.12-2,5.4-5C722.65,612,720.87,611.11,718.31,611ZM379,403.52c-2.72,1-4.83,2.79-5.09,6-.19,2.32,1.17,3.38,3.49,3.38,4.83,0,3.32-4.24,4.33-6.65C382.54,404.31,380.82,403.69,379,403.52Zm27.8-23.15c-2.59.31-5.21.42-5.2,4,0,2.49,1.52,3.2,3.69,3.41,3.84.39,4.46-2.67,5-5.11C410.92,379.87,408.07,381,406.81,380.37Zm173,182.75c-1.42,4.75-1.06,9.44-.53,14.12.12,1,.28,2.5,1.79,2.53s1.9-1.41,1.83-2.45C582.54,572.48,582.5,567.55,579.77,563.12Zm117.12,193.1c-2.22,1.26-5.22,2.35-5.28,6,0,1.72,1,3.11,2.78,2.68a6.37,6.37,0,0,0,5.26-6.44C699.73,756.85,699.09,756,696.89,756.22ZM682,469.55c-2.23.37-4.18,1.44-4.18,4.26,0,2.4,1.28,4.24,3.8,4,2.79-.28,4.28-2.37,4.41-5.12C686.14,470.16,684.42,469.48,682,469.55Zm4.26,88.67c-2.12.45-4.55,1.48-4.94,4.65a2.69,2.69,0,0,0,3.11,3.17c2.5-.25,4.93-1.24,5.07-4.34C689.56,560,689.46,558.11,686.25,558.22ZM419.79,861.66a3.71,3.71,0,0,0-4.14-3.1c-2.54.17-4.45,1.36-4.32,4.13.09,1.95,1.08,3.86,3.49,3.55A5.44,5.44,0,0,0,419.79,861.66Zm61.72,79c1.66-1.32,6.1,1.43,6.22-2.1.11-3.22-4.29-2.27-6.67-2.4s-6.72-.58-6.62,2.53C474.55,942.25,478.53,940.56,481.51,940.69Zm95-276c-.57-2.23-1.51-4.15-4.06-4s-4,1.88-4.25,4.44c-.21,2.18.5,3.92,3,3.78A5.55,5.55,0,0,0,576.49,664.66ZM701.14,569.6c-2.65.17-4,1.71-4.29,4.34-.21,2.27.94,3.8,3.11,4,3,.32,3.73-2.2,4.21-4.38S703.59,569.92,701.14,569.6ZM425,878.22c-2.5.75-4.46,2.13-4.86,4.93-.3,2.08.75,3.47,2.84,3.33a4.78,4.78,0,0,0,4.9-4.62C428,879.89,427,878.64,425,878.22Zm153.29.44c3.16-1.49,8,0,9.6-4.14.58-1.52-2.74-1.22-4.25-1.25-3.15-.07-6.77-.3-8.16,3.39C574.9,878.13,576.73,878.66,578.27,878.66Zm90.61-193.82c-2.34,1.18-5.44,1.74-5.86,5.2a2.17,2.17,0,0,0,2.33,2.61c3.06-.16,5.55-1.54,6.32-4.64C672.08,686.38,670.74,685.29,668.88,684.84ZM743.4,530.56c-.5-1.95-1-4-3.51-3.72s-4.42,1.7-4.49,4.33a3.45,3.45,0,0,0,3.56,3.71C741.46,534.8,743,533.13,743.4,530.56ZM566.63,625.34c-.69-1.64-.59-4.37-3-4.13-2.86.29-3.84,3-4,5.5-.16,1.94.77,4.09,3.25,3.73S566.31,627.82,566.63,625.34Zm-84.8,222.55c-5.51-2.37-10.09.77-14.93,2.34a1.53,1.53,0,0,0-.82,2.35c.58,1.11,1.62.86,2.46.39C472.7,850.64,477.53,850.21,481.83,847.89ZM459,377.85c.36-2.83-.37-3.94-2.39-3.67-2.65.36-4.73,1.23-4.57,4.6.11,2.36.86,3.39,3.38,3.34C459.23,382.05,458.68,379.17,459,377.85ZM254.49,854.9c2-1.28,4.17-2.61,4.55-5.2s-1.56-3.08-3.63-3.13c-2.88-.07-4.09,1.74-4.25,4.22C251,852.88,252.28,854.26,254.49,854.9Zm15.93,30.92c-3,2.65-5.12,4.44-7.11,6.41-1.68,1.67-1.48,3.49.46,4.82s3.55.28,4.22-1.39C269.08,893,270.75,890.3,270.42,885.82Zm401-109.11c2.38-.24,4.46-1,4.34-3.64s-2.4-3.22-4.57-3.16a3.8,3.8,0,0,0-3.87,4.08C667.37,776.53,669.65,776.55,671.44,776.71Zm-31.63-193.3c-1.86.86-3.41,2-3.61,4.42s.49,4.4,3,4.67c2.63.28,3.53-2.13,3.82-4.11S642.31,584.37,639.81,583.41Zm3.59,50.64c-2.53.11-4.31,1.33-4.44,3.63-.17,2.92,2.26,3.61,4.6,3.78s3.3-1.62,3.51-3.58C647.34,635.24,645.47,634.4,643.4,634.05ZM488,925.78c-4.69-2.42-8.59-1.24-12.45.52-1.18.54-1.84,1.51-1.32,2.73a1.81,1.81,0,0,0,2.47.76C480.06,928.14,484.17,928.58,488,925.78Zm124.7-499c-2.37-5.35-5-10.49-9.57-14.26C604.45,418.53,608.13,423,612.68,426.8ZM579.9,802.87c-.68-1.62-.87-4-3.29-3.76-2.22.23-3.55,2.06-3.83,4.28-.26,2,.84,3.22,2.9,3.28C578.18,806.74,579.3,805.13,579.9,802.87ZM694.8,462.53c1.8-.91,3.63-2.08,3.52-4.5a3.33,3.33,0,0,0-3.36-3.28c-2.52.08-3.51,2.09-3.47,4.41A3.11,3.11,0,0,0,694.8,462.53Zm-103,465.34c-1.85,1.54-5.94-.77-7.19,3.23a1.46,1.46,0,0,0,2.06,1.75c2.7-1.08,6.27-.63,7.93-3.47C595.33,928.15,593.53,927.84,591.81,927.87Zm-327-303.1c-.5-1.61-.91-3.43-3.12-3.31-1.86.11-3.49,1.34-3.51,3.06a3.41,3.41,0,0,0,3.47,3.67C263.61,628.16,264.42,626.63,264.76,624.77Zm40,292.15a17,17,0,0,0-7.54,7.73c-.28.59.49,1.8,1.23,1.54,3.27-1.16,4.5-4.37,6.38-6.91C305.11,919,304.86,918.27,304.8,916.92Zm178.49-53c-3.9-2.78-7.06-.93-10.31.18a1.36,1.36,0,0,0-1,1.76,1.39,1.39,0,0,0,1.82.89C477,865.89,480.13,864.91,483.29,864ZM300.52,931.49c4.66,0,6.44-2.12,7.66-5,.38-.89.47-2-.52-2.53a1.67,1.67,0,0,0-2.35,1C304.7,927.28,302.74,928.58,300.52,931.49ZM584,924c2.17-1,4.3-2.17,6.8-2.44a1.06,1.06,0,0,0,.6-1.77c-1.42-1.75-3.23-.84-4.59-.06-1.63.93-4.52.41-4.57,3.37C582.24,924.06,583.22,924,584,924Z" transform="translate(-4.58 -4.12)"/><path d="M895.64,160.59c-2.17,6.24.79,13.06-2.26,19.32-2.53-1.76,1.65-6.07-2.54-6.07-3.39,0-3.84,3.33-3.49,6.14,2.43,19.26.76,38.58.9,57.88.25,31.81,1.28,63.64,7.28,94.94,3.3,17.22,9.31,33.9,13.12,51,6.1,27.43,9.62,55.34,14.28,83,3.76,22.39,7.92,44.72,11.7,67.11,4.45,26.3,6.78,52.8,5.39,79.46-2.35,44.91-4.86,89.83-5.29,134.8-.28,29.3-4.14,58.18-7.74,87.12-.64,5.13-.58,10.3-.94,15.42-.24,3.37.27,9.11,6.9,8.05a1.82,1.82,0,0,1,1.37.57c2.83,3.13,5,2.93,6.25-1.31,4.9-16.24,11.2-32.23,10-49.7-1.27-18.51,4-35.94,8.78-53.46,3.68-13.43,7.32-26.86,9.72-40.63,2.17-12.41,5.27-24.65,7.89-37a12.07,12.07,0,0,1,5.08-7.42c-3.5,13.19-5,26.68-7.77,39.93-5,23.91-10.53,47.7-15.17,71.67-1.84,9.52-1.66,19.41-2.81,29.09-1.61,13.63-3.62,27.21-5.39,40.83a53.62,53.62,0,0,0-.42,8c.17,7.66,1.41,8.24,9.06,7.19,5.13-.7,10.44-.13,17-.13-2.82,2.48-4.68,3.41-7.06,3.39-19.9-.1-39.61-1.44-58.93-6.92-4.09-1.16-9.12-.19-13.44.9a363,363,0,0,1-36.56,7,50.56,50.56,0,0,1-28.08-3.56c-8.87-4-17.9-6.65-27.88-2.87,7.82-19.57,6.56-40,10.42-59.63,2.39,3.36,3.46,9.05,3.87,18.16.44,9.75.25,19.52,1.58,29.23.78,5.72,3.75,7.77,9,5.12,4-2,7.28-3.58,11.25.42,3.28,3.3,6,1.07,7.34-2.55a53.22,53.22,0,0,0,3.46-16.2c.57-16.93-1.82-33.64-3.55-50.39-2-19.33-.88-38.7-.8-58A210.6,210.6,0,0,0,841,679.42a196.2,196.2,0,0,1-4.19-71.22,5,5,0,0,1,.47-1.62c.14-.27.58-.4,1-.66,2,12.63,1.67,25.39,3.66,38,2.77,17.59,6.14,35.06,9.17,52.59,3.69,21.28,7.36,42.56,10.76,63.89,2.34,14.71,6.22,29.18,7.14,44.1a230.22,230.22,0,0,1-1.47,40.16c-.52,4.5-.89,8.31.14,12.84,1.22,5.37,3.3,3.86,5.68,1.8a22.15,22.15,0,0,0,6.36-10.08A146.29,146.29,0,0,0,887.25,803a92.43,92.43,0,0,1,.42-10.78c3.39,10.9,1.63,21.82.22,32.75s-2.85,22-4.17,32.94c-.17,1.36-.75,3.3,1.34,3.87s2.57-1.2,3.14-2.59c5.08-12.59,10.85-25,14.9-37.88,1.89-6.06.06-13.13.86-19.81,1.13-9.49,1-19.12,1.74-28.68,1.83-24.6-4.53-48.24-8.12-72.22-5.08-34-9.81-68.15-15-102.19-4.3-28.36-9.19-56.63-13.48-85-3.06-20.23-4.82-40.67-8.52-60.76-4.82-26.14-12.26-51.68-20.91-76.84-3.84-11.14-7.27-22.43-11.06-34.21,3.19,1,3.63,3.42,4.41,5.32,11.16,27.26,22.25,54.59,28.43,83.5,3.75,17.56,6.65,35.31,9.49,53,4.59,28.66,8.07,57.5,13.7,86,6,30.37,11.22,60.86,15.38,91.57,3.14,23.11,5.25,46.38,9.2,69.36a196.31,196.31,0,0,1,1.62,54.33c-1,9.09-.22,18.47-2.1,27.33-1.41,6.71,1,12.76.45,19.13-.13,1.51-.55,3.93,1.95,4.07s2.44-2.07,2.48-3.76c.56-21.32,6.25-41.9,8.94-62.9,1.65-12.87,2.58-25.85,3.49-38.8,2.22-31.74,3.16-63.51,2.45-95.34a769.34,769.34,0,0,0-12.16-118.73c-5.25-29.32-11.6-58.47-15.07-88.06-2.21-18.83-4.18-37.6-9.39-55.91a161.36,161.36,0,0,0-8.07-22.65c-5.06-11.11-3.82-23.32-5.53-35-2.19-14.92-2.62-30.11-3.71-45.19-1.25-17.38,2.38-34.3,4.93-51.33,2-13,3.72-26.06,5.64-39.08.43-3,.84-5.82,4.51-7.2,2.3-.86,3.39-3.48,3.3-6.24C892.92,163.28,892.78,161.3,895.64,160.59Z" transform="translate(-4.58 -4.12)"/><path d="M439.74,160.25c7.79,3.95,11.8-4,17.85-5.28,3-.65,4.07-3,4.24-6,1.11-19.49,11.5-33.62,26.6-44.69,9.1-6.67,9.84-16.89,12-26.38,4-17.5,2.77-35.45,3.64-53.23.35-7.19,1.84-14,7.63-19.18,1.91-1.7,3.31-1.7,5.45-.5a18,18,0,0,1,8.26,9.27c3.46,9.53,8.17,18.5,11.74,27.93,3.16,8.34,6.47,16.7,7.42,25.69,1.88,17.74,12,28.89,27.74,36.26a38.07,38.07,0,0,1,21.17,25c1.46,5.34,3.82,4.45,7.41,2.91,3.38-1.45,5.65-4.26,9.31-7.59a13.93,13.93,0,0,1-4.63,8.2c-2.94,2.75-7.35,7-5,9.53,2.19,2.4,6-2.85,9.12-4.83s5.4-6.23,11.08-4.71c-6.37,4.2-7.2,12-13.22,15.89-1.35.87-1.66,2.59-1.79,4.12a175.25,175.25,0,0,1-3.08,21c-.56,2.69-.46,3.69,3.63,3.91,5.39.29,10.75-1.64,16.31.56,16.35,6.47,22.94,17.47,23.85,33.87.49,8.78-1.6,16.33-8.89,22.38-6,5-6.66,11.31-3.46,18.11,2.26,4.79,2.71,10.37.32,14.34-2.68,4.44-8.84,4.39-13.73,3.66-5.94-.89-11.59-3.07-17.3-5.16A96.61,96.61,0,0,1,587.09,258c-5.8-3.41-10.13-7.47-12.69-13.61-2.8-6.72-8.56-12.12-9.08-20.23,5.56.4,10.87.79,16.18,1.15,3,.2,6-.46,7.64-3.09,6.31-10.38,13.82-20.11,17.89-31.75a19.85,19.85,0,0,0,.73-4.51,11.68,11.68,0,0,0-.32-2.44c-4.34,1.27-4.34,4.8-4.38,7.86a12,12,0,0,1-3.92,9.05,47.86,47.86,0,0,0-9.81,15.38c-1.65,3.92-4.22,5.83-8.56,4.2-1.28-.48-2.66-1-3.91-.35-6,3.11-9.66-.35-13.2-4.52-6.91-8.16-13-17.1-21.08-24.17-4.11-3.59-7-8.93-13.74-9.22-5.06-.21-7.92,2-11.18,5.41-9.2,9.72-12.57,22.58-19,33.75-8.44,14.57-8.5,14.72-22.38,6.07-3.47-2.17-6.73-4.67-10.1-7-.43.64-.87,1.09-.79,1.23,4.33,7.72,11.25,12.82,18.91,16.41,5.12,2.41,9.46-1.09,12.55-5.43,2-2.76,3.81-5.6,6.25-9.2.42,18.86,6.69,36.48,2.39,54.72-1.18,5-3.33,9.44-8,10.93-4.51,1.42-8.15-2.14-10.26-5.83-3.1-5.43-8.73-3.66-13.09-5.2-2.75-1-4.37,2.25-5.1,5.06-1.84,7-4.75,8.16-9.92,3-8.93-8.84-15.75-18.84-16.19-32.24-.53-16.45,5.21-30.19,16.83-41.49,3.25-3.17,4-5.65,1.91-9.87-4.85-10.09-6-20.86-4.12-31.9.47-2.8-.31-4-3.26-4.78C449.45,164.12,444.3,163.83,439.74,160.25ZM462,232.5a1.44,1.44,0,0,1,.56-.1.56.56,0,0,1,.33.37c.45,2.26-1.16,5.31,2.44,6.49,1.52-1.77.61-3.72.69-5.52.06-1.34,1.18-3.31-1-3.89s-2,1.79-3,2.77c.07-2.23,2.59-5.57-1-6.33s-2.13,3.81-3.28,5.17c-2.15.35.33-5.07-2.69-2-2.32,2.4-4,6.64-1.33,11.76,1.11-2.69,1.72-4.18,2.33-5.67a6.76,6.76,0,0,1,.52,4c-.65,6.09-1.64,12.17-1.94,18.28-.68,14.21,5.53,19.46,18.51,15.43a21.28,21.28,0,0,1,18.06,1.88c1.68,1,3.82,3.27,5.64,1.59,2.08-1.92.4-4.52-.44-7.17-1.95.48-2.52,4.14-5.28,1.77-2.09-1.8-6.28-14.84-4.85-17.18a3,3,0,0,1,.83-.78c3-2.17,1.9-5.37,1.37-7.91-.8-3.76-5.32-3.8-7.68-4.05-2.64-.28-.56,3.07-.45,4.94.31,5.6.36,11.11,4.55,15.7,1.25,1.36.48,4.65-.75,5.27-2.61,1.34-5.84,1.41-8.74,2.28-2.53.77-2-1.43-2.9-2.42-1.42-1.61-2.48-.37-2.83,1-.54,2.19-1.8,3.63-4,3.23-3.49-.64-8.38-9.26-7.37-12.93C460.73,250,461.31,241.27,462,232.5Zm104.91-66.65-1.28-1.15c5.22-7.11,7.51-16.37,17.25-20.09,5.45-2.08,7.2-7.35,5.16-12.75-4.27-11.34-12.25-19.78-21.77-26.78-5.39-4-9-2.22-10.91,4.33-1,3.48-1.47,7.06-2.88,10.48-3.87,9.35-7.77,18.72-11,28.31-3.08,9.11-4.86,18.4,1,27.42a173.92,173.92,0,0,0,27.23,32.47,49.52,49.52,0,0,0,6.45,4.77c1.51,1,3.43,1.5,4.67-.23a191,191,0,0,0,16.92-29.13c.92-1.92.11-4.8-1.63-6.36-2.27-2-2.49,1.17-3.71,1.92-.53.33-1.43.09-2.15,0-6.69-.43-10.64-4-12.83-11.68-1.78-6.18-2.84-6.58-8.28-3.09C568.44,164.83,567.68,165.34,566.92,165.85Zm-72.29,10.53c-5.15-5.47-7.18-2.14-8.93,1.8a18.51,18.51,0,0,0-1,3.31c-2.33,9.69-4,10.55-13.09,6.75-4.26-1.77-6.43-.35-6.64,4.34-.54,11.84,3.88,21.1,13.72,28,3.3,2.32,6.7,3.71,10.07,2.18s3.72-5.58,3.69-9c-.11-12,5.59-20.86,14.92-27.47,8.55-6.07,10.37-14.26,8.64-23.71-2.59-14.16-9.81-26.83-13.38-40.71a16.28,16.28,0,0,0-6.31-8.73c-2.58-1.9-5.31-2.84-8.23-.28-8.29,7.28-14.88,15.64-18.9,26.12-2.76,7.2-3,7.84,4.08,11.39C483.8,155.62,491.89,163,494.63,176.38ZM622.44,235c-7.13-11.16-11.52-14.42-18.78-14.24,1.86,4,5.13,7,8.33,9.36,7,5.13,10.25,10.65,9.21,19.93-.5,4.46-3.64,5.61-4.52,5.05-3.52-2.23-7.64-1.29-11.13-3-2.63-1.3-3.76-8.44-8.52-2.4-.07.07-.93-.57-1.46-.75-1.21-.41-2.38-.29-2.71,1.14s.59,2,1.76,2.53c4,1.71,8,3.62,12.12,5.16,2.52,1,3.85,2.41,3.17,6.06,3.18-2.59,5.85-4.17,8.92-4.32,6-.29,7.31-3.78,6.52-8.92-1.13-7.3.52-13.92,4.31-20.28,3.31-5.56,7.54-10.55,10.11-16.57,1.55-3.64,1.39-6.06-2-9.3-6.6-6.24-14.54-10.42-21.53-16-1.45-1.15-3.18-3.22-4.73-.83-1.29,2,.87,3.82,2.44,4.45,6.87,2.75,11.57,8.68,18.08,11.93,2.81,1.4,3.1,4.71,4.26,7.24.74,1.61-1.39,2.48-2.3,3.63-.67.85-1.52.36-2-.15-2.57-3,1.82-.94,1.79-2.39a2.75,2.75,0,0,0-1.33-2.31c-5.08-3.75-10.33-7.3-13.5-13.05-.54-1-1.5-1.86-2.82-.83.2,1.93,2.76,2.67,2.46,5-2.4,1-3.71-2.82-6.18-1.53-.72,2.35,1.33,3,2.5,4,4.57,4,9.28,7.91,13.83,12,3.78,3.37,3.68,6.89,0,10.89-3.28,3.56-4.92-.5-7.16-1.55a25.35,25.35,0,0,1-3.6-2.56c2.41-1.23,4.86.66,5.68-2s-1.49-3.14-2.9-4.29c-4.6-3.71-9.24-7.37-13.73-11.2-1.33-1.14-2.59-1.8-4.06-.83-1.64,1.07-.8,2.61.23,3.35,5.75,4.16,7.61,11.44,13.26,15.89C619.46,225.55,624.63,228.2,622.44,235ZM515.6,66.38c0-7.46.08-12.83-.06-18.2,0-1.43,1.06-4.06-1.52-4-2.08.07-1.81,2.51-1.87,4.23-.18,5.74-.52,11.49-.56,17.23-.09,11-1,22,.58,33,.94,6.53,3.44,12.79,3.61,19.52a9.39,9.39,0,0,0,3.38,6.48,1.88,1.88,0,0,0,2.58.26c.82-.6,1.52-1.8.77-2.44-3.4-2.91-1.43-6.81-1.74-10.1-.61-6.4-4-12-4.39-18.37C515.82,84.09,514.74,74.21,515.6,66.38ZM503.54,243.91c-2.78-.28-1.51,3.29-3.39,2.64a4,4,0,0,1-2.32-4.26c.11-1.42.05-2.91-1.69-3.1-2-.21-2,1.47-2.58,2.93-2.75,6.43-1.64,13-1.22,19.52.19,3,1.69,5.63,4.75,5.34,3.58-.33,2.06-3.58,2.35-5.93.44-3.58-2.4-7.49,1.26-11.73-.44,4.73,1.3,8.45-.17,12.26-.44,1.15-.76,2.92,1.18,3.09,1.66.14,2.14-1.45,2.27-2.78A77.61,77.61,0,0,0,503.54,243.91ZM509.36,34c-2.67,2.06-1.73,4.11-1.82,5.87-.59,10.86,1.28,21.88-1.19,32.59-2.79,12.11.11,23.87,1.15,35.76.14,1.61.61,3.39,2.57,3,1.78-.36,1-2.26.82-3.4a108.89,108.89,0,0,1-1.3-22.55c.64-12.57.58-25.18.59-37.78C510.19,43.21,510.89,38.75,509.36,34ZM535.51,90c-.44-2.64-.92-5.27-1.3-7.92q-3.65-25.12-7.28-50.26c-.2-1.35.22-3.69-2.1-3.17-2,.47-1.14,2.5-.82,3.9,1.52,6.57,1.25,13.32,2.07,19.93,1.56,12.67,3.75,25.26,5.75,37.87.2,1.25.71,2.86,2.48,2.45C535.58,92.45,535.79,91.15,535.51,90Zm8-3.89L544,86q-5-21.69-10.07-43.39c-.18-.78-.56-1.46-1.53-1.3s-1.11,1-1,1.72a68.12,68.12,0,0,0,.71,6.86c2.4,12.77,4.83,25.55,7.39,38.29.33,1.62-.82,4.71,2,4.53,2-.13,2-2.94,2.06-4.88C543.5,87.21,543.48,86.63,543.48,86.06ZM608,244.19c1.48,0,3.16,2,3.94-.46.58-1.82-1.7-2.22-2.44-3.35-3.49-5.32-8.55-9.19-12.51-14-.94-1.15-2.32-2.84-3.78-1.78-2,1.42-.23,3.12.74,4.41,3.21,4.25,6.85,8.22,9.68,12.7C605,243.72,605,246.28,608,244.19ZM522.1,49.56l.24,0a6.08,6.08,0,0,0,0-2.26c-.67-1.51,1.22-4.57-1.82-4.42-2.42.13-2.05,3.09-1.89,4.72.55,5.86-.23,11.85,1.56,17.58.43,1.4-.35,4.16,2.3,3.53,2-.48,1.37-2.8,1.2-4.48Q522.89,56.88,522.1,49.56Zm.48,21.6c-1.89,5.63-2.05,11.5-2.73,17.31-.39,3.3,1,5.83,1.84,8.66.24.85.74,1.9,1.91,1.75s1.36-1.36,1.15-2.2C522.7,88.3,524.41,79.69,522.58,71.16ZM461.9,262.33c-.07-.64-.09.14.11.85.33,1.14-.54,3.07,1.41,3.21s1.81-1.86,2-3c.74-3.9,1.26-7.85,1.71-11.8.2-1.8-.26-3.71-2.49-3.68s-1.77,1.83-1.82,3.42C462.74,254.57,462.32,257.75,461.9,262.33Zm15.49-22.73c-4.49-1.21-6.62.49-6.15,5.17a11.5,11.5,0,0,1-.83,4.93c-1.25,3.67-1.5,7.5.28,12.85C474.51,254.29,471.22,245.43,477.39,239.6ZM592.61,150c.13-3.08-1.19-3.43-3.24-3.34-3.89.16-5.7,2.15-5.82,5.9-.07,2.59,1.67,4.35,3.77,3.91C590.79,155.75,591.87,152.45,592.61,150ZM579.23,233.9l-1.56.71c.85,2.67,1.75,5.32,2.5,8,.17.6,2,2.22-.45,1.89-1.52-.21-2.41-.23-1.87,1.35a8,8,0,0,0,4,4.69c1.79.85,1.73-1,2-1.91C585.45,242.6,581.46,238.57,579.23,233.9Zm7.33-5.33c-.71.35-1.39.46-1.65.86-.63.94-.09,1.78.56,2.52,2.89,3.31,5.72,6.66,8.69,9.89.82.88,1.86,2.44,3.29,1.41,1.6-1.15.19-2.46-.57-3.39-2.52-3.11-5.14-6.13-7.78-9.13A23,23,0,0,0,586.56,228.57ZM473.71,167.89c2.18-.33,5-.61,4.77-3.16-.26-3.14-3.24-3.9-6.07-3.94-2.12,0-4,.82-4,3.2C468.42,167.52,471.4,167.36,473.71,167.89ZM521.1,27.43c-.4-2.5-.8-5.5-1.39-8.45-.17-.83-.65-1.88-1.92-1.59a1.33,1.33,0,0,0-1,1.76c1.41,4,.72,8.24,1.24,12.34a2.26,2.26,0,0,0,1.18,1.64c1.22.24,1.49-.91,1.63-1.81C521.05,30.21,521,29.07,521.1,27.43Zm-5.52-5.19-1.85,0c-1.32,5.77.21,11.89-1.52,17.63-.22.73.5,1.42,1.39,1.37a2.06,2.06,0,0,0,2-2.31C515.61,33.39,515.58,27.81,515.58,22.24ZM528.2,86.85c-1.67,5.83-2,10.52.24,15.2.39.84,1.13,1.79,2.2,1.24a2.14,2.14,0,0,0,.74-1.88C530.3,97,530.84,92.24,528.2,86.85ZM525,104.18c-.61,3.39-1.19,6.6,1.17,9.41a1,1,0,0,0,1.82-.29c.63-3.24.67-6.44-1.87-9C526,104.15,525.72,104.22,525,104.18Zm80.5,124.15c1.75,3.58,3.37,7.31,9.12,9.27C611.33,233.22,609.33,229.92,605.47,228.33Z" transform="translate(-4.58 -4.12)"/><path d="M113.83,549.2c6,7.32,6.09,15.52,7.32,23.07,3.7,22.8,8.5,45.41,13.81,67.84,5,21.09,5,42.28,5.81,63.61.54,13.73,2.63,27.41,4.3,41.07,2.36,19.42,3.56,38.85,2.53,58.42-1.06,20.45-1.75,40.92-2.4,61.39-.26,8.16.24,16.28-1.41,24.43-.6,3,1.16,6.69,2.56,9.73.82,1.79,3.16.72,4.58,0,2.54-1.38,4.86-2.89,4.27-6.63-.95-6-1.42-12.15-2.2-18.21-3.17-24.74,1.8-49.33,1.37-74-.5-28.6-3.12-57-6.54-85.31-2.43-20.18-1.55-40.58-2.88-60.84-2.16-32.94,0-65.92-1.37-98.83-.44-10.26-1.84-20.53-2.36-30.86a338.87,338.87,0,0,1,2.34-59.57c2.89-22.74,5.55-45.51,8.44-68.25.45-3.56,1.59-7,2.52-11,1.95,2.65,2,5.13,1.93,7.75-.44,29.49-1.07,59-4.63,88.3-6.29,51.78-4.38,103.65-1.27,155.5,2.1,35,4.73,69.92,7.23,104.87,3,42.58,6.86,85.11,8.79,127.76.35,7.86.45,15.69-.79,23.51-.77,4.88-1.05,9.76,5.72,10.85.52.08,1.05,1,1.31,1.67,1.65,4.09,5,4.8,8.91,4.85,8.28.1,16.22-2,24.19-3.81a58,58,0,0,1,7.27-1.32c1.42-.14,3.17-1.46,3.23,1.28,0,1.7-.08,3.65-2.31,4.06-2.06.39-4.17.5-6.26.73a239.28,239.28,0,0,1-38,.75c-7.43-.38-13.31-5.47-20-8.22a127.72,127.72,0,0,0-46.17-9.59,35.2,35.2,0,0,0-4.59.23c-3.2.32-8.76,1.83-9.19.91-2-4.22-5.49-7.89-5.81-12.79-1.7-26-5.76-51.8-11.07-77.2-3.17-15.16-5.66-30.58-10.05-45.54-.87-3-1-6.18-2.48-9.14-4.49-8.94-7.66-10.79-18-9.94-1.11.1-2.23,0-4.51,0,4.62-3.19,8.15-6.61,12.77-7.35,6-1,9.9,2.48,12.37,8.74a294,294,0,0,1,19.09,74.78c2,17.62,7.8,34.43,9,52.15.39,5.85,4,11.35,4.36,17.54.06,1.34.67,3.22,2.75,3.06,2.29-.18,1.62-2.11,1.89-3.52,4.5-23.18,1.81-46.54.69-69.71a287.44,287.44,0,0,0-10.07-63.2c-6-21.63-11.67-43.37-18.7-65.18,2.26.52,2.35,1.92,2.73,3,10,29.84,20,59.68,27.82,90.18,5,19.6,10.38,39.16,14.11,59,1.89,10,4.15,20.19,4.29,30.58,0,2.32-1.32,6.37,3.91,5.71,1.78-.22,1.24,1.49,1,2.51-.42,2-.93,4.08-1.48,6.1-.63,2.31-.21,4.09,2.07,5.3s4.34,1.18,6.19-.85c1.44-1.58,3-3.16,3-5.42-.12-9.84,1.48-19.56,1.5-29.45.05-22.75-1.41-45.55,1.53-68.28,1.66-12.79.11-25.67-.93-38.46-1.84-22.69-3.32-45.48-9-67.62-4.54-17.82-10.67-35.17-20.75-50.7C97,612.42,87.94,594,77,576.69c-6.8-10.79-14.25-21.17-21.2-31.86-4.56-7-8.12-14.66-14.29-20.67,2.08-1.34,2.68.32,3.42,1.18,11.3,13.26,22.85,26.33,33.74,39.92,13.42,16.76,23.65,35.67,34,54.35C117,627.44,119,636.72,123,645c1.67,3.42,3.42,6.79,5.17,10.16.41.81.78,1.89,2,1.46s1-1.49,1.11-2.41c.41-3-1.39-5.59-1.46-8.4-.4-15-3.69-29.49-6.84-44.11-2.35-10.92-2.82-22.29-4.41-33.44C117.79,562.1,115.23,556.52,113.83,549.2Z" transform="translate(-4.58 -4.12)"/><path d="M728.76,798.68c7.75,17.51,14.81,34.69,17.46,53.48,6.28-15.41-.24-30.36-1.29-46.37,3.27,1.89,4.55,3.76,4.59,6.66.13,9.49,2.56,18.48,5.91,27.3,2.12,5.58,2.39,11.85,6.43,16.71.91,1.1.75,3.35,2.82,3.11s2.35-2.46,2.59-4a79.31,79.31,0,0,0,1.18-12c.09-22.81,3.51-45.38,4.95-68.08,1.5-23.48,3.45-46.93,5-70.41,1.78-26.93,3.79-53.85,4.57-80.82.45-15.77-2.94-31.22-5.47-46.69-5.33-32.48-10.47-65-12.29-97.9-.51-9.34-1.6-18.65-2.47-28a33.43,33.43,0,0,0-5.81-15.41c-3.4-5.14-6.37-10.45-7.14-16.83,1.61-1.07,3,1,4.64.68s4,1.06,5.26-1.07c1.07-1.77-.69-2.72-1.55-3.89-.23-.3-.69-.82-.63-.89,6.16-7.51-5.25-10.07-4.12-16.08-.06,0,.38-.14.55,0,2,1.82,3.46,5.72,6.79,3.23,2.58-1.93,1.42-5.31.27-8-2.69-6.22-6.57-11.93-7.71-18.93,1.56,2.47,3.3,4.86,4.64,7.45,1,1.89,1.81,3.62,4.22,2.22,2.16-1.27,2.58-3.16,1.25-5.39-1-1.61-1.83-3.27-2.88-5.17,1.91-.65,3.49,2.09,4.75,0a3,3,0,0,0-.81-3.7c-9-9.07-6.12-21.53-9.3-32.26-.64-2.18.45-4.25,2.58-4.32,2.65-.08,1.62,2.54,1.58,4-.2,7,5.57,12.12,5.58,19a1.39,1.39,0,0,0,1.6,1.3c1.25-.17,1.13-1.28,1.48-2.12,1.39-3.32-1-6.58.33-10.15A105.86,105.86,0,0,1,775.37,330c1.55,1.92,3.18,2.41,2,5.94a27.34,27.34,0,0,0-.39,16.84c.78,2.52,1.47,7.08,6.67,5.22.25-.09,2.22,5.26.48,7-7.85,7.87-7,19.3-12.17,28.17-1,1.71-1.88,3.5-.74,5.38a6.24,6.24,0,0,0,2.75,2.73c1.39.48,2.36-.84,3.09-2,1.88-3.11,3.75-6.22,5.67-9.31.55-.89.81-2.46,2.35-1.85,1.26.5,1.14,1.91,1,3-.31,3.11-2,5.75-3.11,8.59-.91,2.35-2.53,5.41,2.63,3.81,3.46-1.07,2.92,1.87,2.52,3.33s-1.83,2.87-3,4.06c-6.67,6.52-10.24,15.13-15.45,22.63-.65.93-1.23,2.09-.22,3.13s2,.27,3.13-.06c3.64-1.08,6.6-3,8.19-6.69,2.81,2.15,1.56,3.81.29,5.63q-5.75,8.22-11.33,16.56c-1,1.48-3.06,3.43-.79,4.92s3.17-1.24,4.39-2.56c1-1.07.85-3,3-3.71.89,4.57,1.06,9.28-.38,13.35-3.77,10.67-3,21.51-2.52,32.41.83,17.81,3.5,35.42,5.52,53.11,1.83,16,3,32,4.83,48,1.17,9.87,2.92,19.67,2.35,29.68-.86,15.43-1.24,30.92-2.64,46.3-.87,9.6-.59,19.14-.62,28.71,0,16.66-3.6,33.1-2.91,49.82.89,21.66-.91,43.2-2.56,64.8-1,13.72-3.43,27.29-3.92,41-.28,7.93.27,8.52,8.23,8.62,2.31,0,5.48-.43,5.43,2.56,0,2.74-3.15,3.35-5.74,3.54-9.76.71-19.41-1.1-29.13-1.46a29.48,29.48,0,0,0-16.94,4.23c-10.71,6.47-22.93,8.59-34.76,11.2-12.35,2.73-24.91,5.14-37.74,5-2.93,0-5.5-.05-8.09-1.93a10.13,10.13,0,0,0-9.81-1c-11,4.37-22.56,5.63-34,7.49-.45.07-1-.32-1.63-1.15,9.51-2,17.85-7.73,27.92-7.81,22.08-.17,44.06-1.31,65.45-7.44,14.41-4.12,23.62-16.68,24.73-31.61s2-29.78.17-44.68A5.19,5.19,0,0,1,728.76,798.68Zm22.45,42.62c-1.46,4.85-1.09,9.68-.45,14.48.13,1,.93,2.36,2.26,2.26a1.9,1.9,0,0,0,1.74-2.48C753.13,850.92,754.67,845.63,751.21,841.3Zm-15.72,9.78c0-2.64.06-5.27,0-7.9-.05-1.2.28-3-1.77-2.8-1.87.22-1.49,1.93-1.36,3.16.26,2.62.74,5.22,1,7.83.13,1.31-.17,3,1.85,2.55C736.66,853.6,736.21,852.18,735.49,851.08Z" transform="translate(-4.58 -4.12)"/><path d="M58.65,431.23c1.74.57,2,1.43,2,2.46-.57,11.69,3,23.25,2.12,34.79-1.33,17.93,7.42,33.14,11.41,49.62,2.58,10.69,7,20.85,9,31.77.93,5.17,3,10.16,4,15.4-7.48-6.49-9.27-15.82-11-24.63-2.48-12.34-5.94-24.18-12.55-34.84-5.76-9.29-14.22-16.48-20.88-25.11-3.56-4.62-7.22-9.17-11.1-14.07,6.76-2.11,9.22,3.66,13.53,5.13,1.93.66,3.41,4,5.87,1.46,2-2.08,1.11-4.61,0-7-3.31-7.38-7.35-14-15.15-17.64-6.9-3.23-10.73-9.53-14.39-15.83-1.15-2-.9-3.94-.08-6.32,4,2.85,7.58,5.56,11.34,8,1.75,1.12,4.26,2.17,5.57-.22,1.11-2-.78-3.51-2.19-5.22-5.94-7.21-13.59-13-18-21.48-.72-1.39-1.65-3-.37-4.24s2.87.35,4.11.91C25.6,405.89,28.24,409,31,412c1.1,1.18,2.19,3.26,4.18,1.92,1.76-1.19.46-3,.26-4.63-1.21-10.45-9.82-14.16-17-19.21-.82-.57-1.6-1.2-2.52-.45-1.78,1.45,0,3.14-.2,5.2-4.14-.94-6.61-3.57-6.28-7.36s3.36.05,5.26-1c.23-4-4.21-5.39-5.21-8.75-.51-1.71-2.71-3.24-.67-5a4,4,0,0,1,5.72.69c3,4.11,8.19,5.66,11.12,9.78.74,1,1.65,2.45,3.24,1.41,1.4-.93.94-2.25.38-3.58-3.06-7.4-4.39-15.28-6.26-23-.51-2.09-1.7-4.91,1.33-6s2.73,2.25,4,3.62c7.31,7.78,4.84,18,7.21,27,.35,1.32-.45,3.51,1.83,3.6a4.54,4.54,0,0,0,4.07-2.81c1.12-2.39,1.91-4.93,2.94-7.66,3,4.58,2.43,9.4,1.32,14.16a67.08,67.08,0,0,1-3.19,10.42c-2.82,6.83.5,13.38.54,20.07a1.58,1.58,0,0,0,2.16,1.31c1.76-.55,3.12-1.66,3.06-3.66-.14-4.11,1.69-7.8,2.35-11.73.24-1.42.3-3.06,2.27-3.92.36,5.89.43,11.62,1,17.33.7,7.5-2.92,14.62-3,22.15,0,1.83-1.3,4.34,1.1,5s3-1.83,3.4-3.72C56.2,439.09,59.38,435.82,58.65,431.23Z" transform="translate(-4.58 -4.12)"/><path d="M114.87,286.34c-1,12.16-2.93,23.25-2.31,34.19.48,8.45-5.12,15-4.33,23.39,1.19,12.63.5,25.43,1.45,38.1.28,3.76-.4,8.2,2.3,11.58,1.7,2.11-.09,4,0,6,.38,11.09,4.28,21.52,5.79,32.42,2.12,15.33,3.7,30.71,5.56,46.07,3.06,25.24,6.73,50.39,13.49,75a34.67,34.67,0,0,1,1.13,12.15c-9.1-14.09-15.61-28.22-16.1-44.77-.17-5.64-2.15-11.22-3.35-16.82-3.61-16.88-4.09-34.11-5.58-51.23-2.2-25.34-4.72-50.66-6.34-76-1.3-20.41-1.78-40.92.7-61.3a31.88,31.88,0,0,1,3.68-11.28c1.52-2.81,2.75-5.82,1.35-9.3C111.17,291.69,113,289.51,114.87,286.34Z" transform="translate(-4.58 -4.12)"/><path d="M125.9,853.2c-10.64-30.7-11.42-62.47-12-94.37-.38-20.84-1-41.75-3.64-62.47-1.41-11.32-3.9-22.52-6.13-33.74-.61-3.06-.43-6.06-.51-9.19,6.15,1.18,7.07,6,7.94,10.87,4.34,24.3,5.77,48.84,7.17,73.45,1.51,26.35,1.32,52.65.69,79a9.53,9.53,0,0,0,1.29,5.47C126.64,831.91,124.33,842.86,125.9,853.2Z" transform="translate(-4.58 -4.12)"/><path d="M84.49,896.56c-17.7,5.49-34.93,9.13-52.77,9.26-5.43,0-6.86-2-4.18-6.56,4.4-7.6,4.23-11.25,16.41-8.86,6.71,1.32,9.76-.46,12.91-6.67.52-1,1-2.09,1.39-3.15,2.78-6.89,5-7.37,10.67-2.57,4,3.39,6.51,8,9.7,12A78.3,78.3,0,0,0,84.49,896.56Z" transform="translate(-4.58 -4.12)"/><path d="M972.73,860.58c7.56-10.88,7.51-23.41,10-35.21,2.09-10.13,3.61-20.38,6.23-30.54.53,9.33,1,18.66,1.6,28,.71,11.8,2.93,23.49,2.6,35.36-.16,5.89-3.1,8.06-8.35,5.51C981,861.87,977.21,861.24,972.73,860.58Z" transform="translate(-4.58 -4.12)"/><path d="M758.32,941.05c1.51-1,2.66-1.72,3.69-2.56,6.91-5.58,14.15-7.5,22.7-3.37,2.95,1.43,6.73,1.15,10.14,1.57a70.44,70.44,0,0,0,8.55.81c3.68,0,5.3,2.58,7.18,5-2.43,1.71-2.46,5.47-5.56,6.6-1.26.46-2.56,1.31-3.79,1.23-11.55-.77-22.73,2.65-34.2,2.78a21.17,21.17,0,0,1-11-2.59c-2.78-1.57-4.24-3.84-3.09-7.15.31-.88.68-1.86,1.84-2,2-.15,1.25,1.18,1.28,2.26.06,2.45,2.2,2.93,3.91,3.59,9.08,3.53,18.44,2.74,27.7,1.18,5.27-.89,10.39-2.6,15.83-2.45,1.21,0,3.12.45,3-1.52-.06-1.6-1.8-1.81-3.13-1.86a45.72,45.72,0,0,0-14.2,1.63C778.62,947.21,768.5,945.73,758.32,941.05Z" transform="translate(-4.58 -4.12)"/><path d="M903.62,893c8.29.49,15.85,3.4,23.86,3.89a6.13,6.13,0,0,1,5.7,4.17c1,3.08-1.34,4.54-3.1,6.17-6.45,6-21.23,8-29,4.21-4.53-2.25-6.94-6.69-5.56-10.75C896.59,897.59,897.58,891.52,903.62,893Z" transform="translate(-4.58 -4.12)"/><path d="M312,968.81c2.94,1.57,5.41.73,7.91-.69,6.29-3.58,13.34-4.24,20.34-5.09,5.38-.65,7.28,3.37,8.09,7.07.78,3.51-.59,6.08-5.45,7.43-6.08,1.69-11.36,2-17.1-.31a26.62,26.62,0,0,0-7.28-1.32C313.35,975.38,313.11,975.21,312,968.81Z" transform="translate(-4.58 -4.12)"/><path d="M734.16,912.77c-5.79-.7-12-1.43-18.24-2.2-2.27-.28-4.23-1.52-4.42-3.74-.16-2,2.23-2.45,3.7-3A76,76,0,0,1,734,899.1c5-.5,8.87.9,11.68,5.33s2.42,5.74-2.55,7.36a12.74,12.74,0,0,1-2.77.68C738.42,912.64,736.51,912.66,734.16,912.77Z" transform="translate(-4.58 -4.12)"/><path d="M71.25,961c-2.1.19-3.38-.09-4.49-.95-4-3.15-8.55-3.77-13.47-2.76A6.53,6.53,0,0,1,46,954.38c-3.18-4.6-3-5.33,2.49-6.57,2.77-.64,5.49-1.55,8.21-2.39,6.34-2,15,.84,18.7,6.14,1.31,1.9,2.55,4.06,1.46,6.37C75.64,960.44,73,960.8,71.25,961Z" transform="translate(-4.58 -4.12)"/><path d="M110.93,921.4c5.8-2,10.66-4.06,15.69-5.44,4-1.11,10.76,2.76,11.34,6,.62,3.37-4.38,7.7-9.26,8.07-3.47.27-6.61.32-9.33-2.81C117.47,925,114.47,923.75,110.93,921.4Z" transform="translate(-4.58 -4.12)"/><path d="M932.93,890.73c8.15-1.07,15.3-4.14,23.26-5,3.72-.42,8.28-2.8,12.61-3.69a18.74,18.74,0,0,1,11.29.91c1.48.64,3.41,1.84,2.9,3.79-.4,1.5-2.31,1.78-3.9,1.84-6.68.26-13.36.59-20.05.77a42.15,42.15,0,0,0-17.24,3.61C937.81,894.8,937.2,894.57,932.93,890.73Z" transform="translate(-4.58 -4.12)"/><path d="M195.22,962.58c-6.27.37-10,3.6-14.36,5.35-3.9,1.57-6.43,0-8.61-2.39a9,9,0,0,1-2-9c.4-1.34,1.41-1.64,2.66-1.65C180.77,954.73,187.85,956.85,195.22,962.58Z" transform="translate(-4.58 -4.12)"/><path d="M810.09,908.05c-6-.14-12.51-3.72-12.55-6.68,0-2.52,7.52-7,11.53-6.92,4.54.15,9.65,4.31,9,7.86C817.31,906.68,814.31,908.71,810.09,908.05Z" transform="translate(-4.58 -4.12)"/><path d="M558.89,902.26c-4.31,4.44-8.08,7.3-14.18,5.53A14,14,0,0,0,534.13,909c-5.43,3-11.07,1.3-16.77-.35,6.33-2.16,13.13-1.93,19.61-3C544,904.56,550.76,901.1,558.89,902.26Z" transform="translate(-4.58 -4.12)"/><path d="M404.26,916.15l37.89-6.23C430.17,913.08,419.1,921.53,404.26,916.15Z" transform="translate(-4.58 -4.12)"/><path d="M683.47,909.06c-1.33,3-1.45,7.21-6.19,6.81-3.34-.28-5.77-2.24-5.36-5.94.56-5,5.43-3.55,8.35-4.68C682.09,904.54,683.27,907,683.47,909.06Z" transform="translate(-4.58 -4.12)"/><path d="M22.2,905.26c-1,2.73-2.72,1.62-4.1,1.76-1.85.19-5.15-.7-2.54,3.1.76,1.1.16,1.31-.67,1.41-4.39.56-6.46,4.46-9.71,6.67C2.83,910.1,7.21,906.71,22.2,905.26Z" transform="translate(-4.58 -4.12)"/><path d="M405.32,933.4a8.1,8.1,0,0,1-6.16,3.28c-2.06.2-4.66.61-4.44-2.6.17-2.52,2.45-3.45,4.6-3.12C401.25,931.26,403,932.43,405.32,933.4Z" transform="translate(-4.58 -4.12)"/><path d="M31.7,738.26c-4.44,4.82-8.46,3.71-12.42,2.74a1.79,1.79,0,0,1-1.45-2.1c.19-1.33,1.38-1,2.24-1.1C23.64,737.54,26.9,739.57,31.7,738.26Z" transform="translate(-4.58 -4.12)"/><path d="M20.89,367.22c-.5,1.37,1.12,3.94-1.83,3.77-1.62-.09-3.81-1.16-3.28-3.21.48-1.83,1-4.77,3.15-4.92C22,362.64,20.25,365.7,20.89,367.22Z" transform="translate(-4.58 -4.12)"/></svg>