<svg id="Layer_1" data-name="Layer 1" xmlns="http://www.w3.org/2000/svg" viewBox="0 0 38 38"><title>mastercard-outline</title><path d="M33.25,8.13A3.75,3.75,0,0,1,37,11.88V26.13a3.75,3.75,0,0,1-3.75,3.75H4.75A3.75,3.75,0,0,1,1,26.13V11.88A3.75,3.75,0,0,1,4.75,8.13h28.5m0-1H4.75A4.75,4.75,0,0,0,0,11.88V26.13a4.75,4.75,0,0,0,4.75,4.75h28.5A4.75,4.75,0,0,0,38,26.13V11.88a4.75,4.75,0,0,0-4.75-4.75Z"/><path d="M18.11,15.08a4.75,4.75,0,1,0,0,7.84,5.91,5.91,0,0,1,0-7.84Z"/><circle cx="22.56" cy="19" r="4.75"/></svg>