<svg xmlns="http://www.w3.org/2000/svg" width="70" height="32" viewBox="0 0 70 32"><path fill="currentColor" d="M69.102 17.219l.399 9.094c-.688.313-3.285 1.688-4.26 1.688h-4.788v-.656c-.546.438-1.549.656-2.467.656H42.933v-2.466c0-.344-.057-.344-.345-.344h-.257v2.81H37.37v-2.924c-.832.402-1.749.402-2.581.402h-.544v2.523h-6.05l-1.434-1.656-1.577 1.656h-9.72V17.221h9.892l1.405 1.663 1.548-1.663h6.652c.775 0 2.037.115 2.581.66v-.66h5.936c.602 0 1.749.115 2.523.66v-.66h8.946v.66c.516-.43 1.433-.66 2.265-.66H62.2v.66c.546-.372 1.32-.66 2.323-.66h4.578zm-34.197 6.652c1.577 0 3.183-.43 3.183-2.581 0-2.093-1.635-2.523-3.069-2.523h-5.878l-2.38 2.523-2.236-2.523h-7.427v7.67h7.312l2.351-2.509 2.266 2.509h3.556v-2.566h2.322zm11.096-.315a1.907 1.907 0 0 0-.946-.66c.516-.172 1.318-.832 1.318-2.036 0-.889-.315-1.377-.917-1.721-.602-.315-1.319-.372-2.266-.372h-4.215v7.67h1.864v-2.796h1.978c.66 0 1.032.058 1.319.344.316.373.316 1.032.316 1.548v.903h1.836v-1.477c0-.688-.058-1.032-.288-1.405zm7.57-3.183v-1.605h-6.136v7.67h6.136v-1.563h-4.33v-1.549h4.244v-1.548h-4.244v-1.405h4.33zm4.674 6.065c1.864 0 2.926-.759 2.926-2.393 0-.774-.23-1.262-.545-1.664-.459-.372-1.119-.602-2.151-.602h-1.004c-.258 0-.487-.057-.717-.115-.201-.086-.373-.258-.373-.545 0-.258.058-.43.287-.602.143-.115.373-.115.717-.115h3.383v-1.634h-3.671c-1.978 0-2.638 1.204-2.638 2.294 0 2.438 2.151 2.322 3.842 2.38.344 0 .544.058.66.173.115.086.23.315.23.544 0 .201-.115.373-.23.488-.173.115-.373.172-.717.172h-3.555v1.62h3.555zm7.197.001c1.864 0 2.924-.76 2.924-2.394 0-.774-.229-1.262-.544-1.664-.459-.372-1.119-.602-2.151-.602h-1.003c-.258 0-.488-.057-.718-.115-.201-.086-.373-.258-.373-.545 0-.258.115-.43.287-.602.144-.115.373-.115.717-.115h3.383v-1.634h-3.671c-1.921 0-2.638 1.204-2.638 2.294 0 2.438 2.151 2.322 3.842 2.38.344 0 .544.058.66.174.115.086.229.315.229.544 0 .201-.114.373-.229.488s-.373.172-.717.172h-3.556v1.62h3.556zm-21.476-5.921c.23.115.373.344.373.659a.924.924 0 0 1-.373.774c-.287.115-.545.115-.889.115l-2.237.058v-1.749h2.237c.344 0 .659 0 .889.143zM36.108 8.646c-.287.172-.544.172-.918.172h-2.265V7.126h2.265c.316 0 .688 0 .918.114.23.144.344.374.344.718 0 .315-.114.602-.344.689zm14.681-1.807l1.262 3.039h-2.523zM30.775 25.792l-2.838-3.183 2.838-3.011v6.193zm4.244-5.419c.66 0 1.09.258 1.09.918s-.43 1.032-1.09 1.032h-2.437v-1.95h2.437zM5.773 9.878l1.291-3.039 1.262 3.039H5.774zm13.132 10.494h4.616l2.036 2.237-2.093 2.265h-4.559v-1.549h4.071v-1.548h-4.071v-1.405zm.172-6.996l-.545 1.377h-3.24l-.546-1.319v1.319H8.524l-.66-1.749H6.287l-.717 1.749H-.002l2.389-5.649L4.624 4h4.789l.659 1.262V4h5.591l1.262 2.724L18.158 4h17.835c.832 0 1.548.143 2.093.602V4h4.903v.602C43.792 4.143 44.853 4 46.057 4h7.082l.66 1.262V4h5.218l.775 1.262V4h5.103v10.753h-5.161l-1.003-1.635v1.635h-6.423l-.717-1.749h-1.577l-.717 1.749h-3.355c-1.318 0-2.294-.316-2.954-.659v.659h-7.971v-2.466c0-.344-.057-.402-.286-.402h-.258v2.867H19.075v-1.377zm24.286-6.967c-.832.831-.975 1.864-1.004 3.011 0 1.377.344 2.266.947 2.925.659.66 1.806.86 2.695.86h2.151l.716-1.692h3.843l.717 1.692h3.727V7.442l3.47 5.763h2.638V5.521h-1.892v5.333l-3.24-5.333h-2.839v7.254l-3.096-7.254h-2.724l-2.638 6.05h-.832c-.487 0-1.003-.115-1.262-.373-.344-.402-.488-1.004-.488-1.836 0-.803.144-1.405.488-1.748.373-.316.774-.431 1.434-.431h1.749V5.52h-1.749c-1.262 0-2.265.286-2.81.889zm-3.784-.889v7.684h1.863V5.52h-1.863zm-8.459 0v7.685h1.806v-2.781h1.979c.66 0 1.09.057 1.376.315.316.401.258 1.061.258 1.491v.975h1.892v-1.519c0-.66-.057-1.004-.344-1.377-.172-.229-.487-.488-.889-.659.516-.23 1.319-.832 1.319-2.036 0-.889-.373-1.377-.976-1.75-.602-.344-1.262-.344-2.208-.344h-4.215zm-7.484.001v7.685h6.165v-1.577H25.5V10.08h4.244V8.503H25.5V7.126h4.301V5.52h-6.165zm-7.512 7.684h1.577l2.695-6.021v6.021h1.864V5.521h-3.011l-2.265 5.219-2.409-5.219h-2.953v7.254L8.468 5.521H5.744l-3.297 7.684h1.978l.688-1.692h3.871l.688 1.692h3.756V7.184z"></path></svg>
