<svg id="Layer_1" data-name="Layer 1" xmlns="http://www.w3.org/2000/svg" viewBox="0 0 38 38"><title>visa-outline</title><path d="M33.25,8.13A3.75,3.75,0,0,1,37,11.88V26.13a3.75,3.75,0,0,1-3.75,3.75H4.75A3.75,3.75,0,0,1,1,26.13V11.88A3.75,3.75,0,0,1,4.75,8.13h28.5m0-1H4.75A4.75,4.75,0,0,0,0,11.88V26.13a4.75,4.75,0,0,0,4.75,4.75h28.5A4.75,4.75,0,0,0,38,26.13V11.88a4.75,4.75,0,0,0-4.75-4.75Z"/><path d="M15.76,15.57l-2.87,6.89H11L9.61,17a.75.75,0,0,0-.42-.61,7.36,7.36,0,0,0-1.75-.59l0-.2h3a.83.83,0,0,1,.82.7l.75,4,1.84-4.69Zm7.33,4.64c0-1.82-2.5-1.92-2.48-2.73,0-.25.24-.51.75-.58a3.32,3.32,0,0,1,1.74.31l.31-1.46a4.72,4.72,0,0,0-1.66-.31c-1.75,0-3,.94-3,2.28,0,1,.88,1.55,1.55,1.88s.92.55.92.86c0,.46-.55.67-1.06.67a3.68,3.68,0,0,1-1.82-.44L18,22.2a5.32,5.32,0,0,0,2,.37c1.86,0,3.07-.92,3.08-2.36m4.62,2.25h1.64l-1.43-6.89H26.41a.81.81,0,0,0-.75.51L23,22.46h1.86l.37-1h2.27Zm-2-2.44.93-2.59L27.2,20Zm-7.44-4.45-1.46,6.89H15.06l1.46-6.89Z"/></svg>