<svg id="Layer_1" data-name="Layer 1" xmlns="http://www.w3.org/2000/svg" viewBox="0 0 38 38"><title>applepay-outline</title><path d="M33.25,8.13A3.75,3.75,0,0,1,37,11.88V26.13a3.75,3.75,0,0,1-3.75,3.75H4.75A3.75,3.75,0,0,1,1,26.13V11.88A3.75,3.75,0,0,1,4.75,8.13h28.5m0-1H4.75A4.75,4.75,0,0,0,0,11.88V26.13a4.75,4.75,0,0,0,4.75,4.75h28.5A4.75,4.75,0,0,0,38,26.13V11.88a4.75,4.75,0,0,0-4.75-4.75Z"/><path id="_Compound_Path_" data-name="&lt;Compound Path&gt;" d="M11.66,15.47a1.42,1.42,0,0,1-1.14.54,1.61,1.61,0,0,1,.41-1.18,1.7,1.7,0,0,1,1.13-.58,1.72,1.72,0,0,1-.4,1.22m.39.62c-.63,0-1.17.36-1.46.36s-.76-.34-1.26-.33a1.86,1.86,0,0,0-1.58,1,4,4,0,0,0,.48,3.84c.32.47.71,1,1.21,1s.67-.31,1.25-.31.75.31,1.26.3.85-.47,1.18-.94a4.12,4.12,0,0,0,.52-1.08,1.7,1.7,0,0,1-1-1.55,1.74,1.74,0,0,1,.83-1.46,1.79,1.79,0,0,0-1.4-.76m3.63-1.31v7h1.09V19.42h1.51a2.24,2.24,0,0,0,2.35-2.32,2.21,2.21,0,0,0-2.32-2.31H15.68Zm1.09.92H18a1.31,1.31,0,0,1,1.49,1.4,1.32,1.32,0,0,1-1.5,1.4H16.78Zm5.87,6.18a1.81,1.81,0,0,0,1.61-.9h0v.85h1V18.33c0-1-.81-1.67-2.07-1.67a1.83,1.83,0,0,0-2.05,1.58h1a1,1,0,0,1,1-.72c.67,0,1,.31,1,.89v.39l-1.36.08c-1.27.08-2,.6-2,1.5A1.55,1.55,0,0,0,22.64,21.89Zm.29-.84c-.58,0-1-.28-1-.71s.36-.7,1-.74l1.22-.08v.4A1.19,1.19,0,0,1,22.94,21.05Zm3.71,2.7c1.07,0,1.57-.41,2-1.64l1.92-5.39H29.46l-1.29,4.16h0l-1.29-4.16H25.71l1.85,5.13-.1.31a.87.87,0,0,1-.92.73l-.32,0v.85A3,3,0,0,0,26.64,23.75Z"/></svg>