<svg id="Layer_1" data-name="Layer 1" xmlns="http://www.w3.org/2000/svg" viewBox="0 0 38 38"><title>paypal-outline</title><path d="M33.25,8.13A3.75,3.75,0,0,1,37,11.88V26.13a3.75,3.75,0,0,1-3.75,3.75H4.75A3.75,3.75,0,0,1,1,26.13V11.88A3.75,3.75,0,0,1,4.75,8.13h28.5m0-1H4.75A4.75,4.75,0,0,0,0,11.88V26.13a4.75,4.75,0,0,0,4.75,4.75h28.5A4.75,4.75,0,0,0,38,26.13V11.88a4.75,4.75,0,0,0-4.75-4.75Z"/><path d="M10.42,16a1.91,1.91,0,0,0-1.5-.53H6.85a.29.29,0,0,0-.28.24L5.73,21a.17.17,0,0,0,.17.2h1A.29.29,0,0,0,7.17,21l.23-1.44a.29.29,0,0,1,.28-.24h.65a2.12,2.12,0,0,0,2.35-2A1.61,1.61,0,0,0,10.42,16ZM9.15,17.39c-.11.75-.68.75-1.23.75H7.62l.22-1.39A.17.17,0,0,1,8,16.59h.14c.37,0,.72,0,.91.21A.7.7,0,0,1,9.15,17.39Zm5.93,0h-1a.17.17,0,0,0-.17.15l0,.28-.07-.1a1.4,1.4,0,0,0-1.17-.42,2.28,2.28,0,0,0-2.21,2,1.89,1.89,0,0,0,.37,1.53,1.54,1.54,0,0,0,1.25.51,1.89,1.89,0,0,0,1.37-.57l0,.28a.17.17,0,0,0,.17.2h.89a.29.29,0,0,0,.28-.24l.53-3.41A.17.17,0,0,0,15.09,17.36ZM13.71,19.3a1.1,1.1,0,0,1-1.12,1,.83.83,0,0,1-.66-.27.85.85,0,0,1-.16-.7,1.11,1.11,0,0,1,1.11-1,.83.83,0,0,1,.66.27A.87.87,0,0,1,13.71,19.3Zm6.64-1.94h-1a.29.29,0,0,0-.24.13l-1.37,2-.58-2a.29.29,0,0,0-.28-.21h-1a.17.17,0,0,0-.16.23l1.09,3.23-1,1.46a.17.17,0,0,0,.14.27h1a.29.29,0,0,0,.24-.12l3.3-4.8A.17.17,0,0,0,20.35,17.36ZM25.14,16a1.91,1.91,0,0,0-1.5-.53H21.57a.29.29,0,0,0-.28.24L20.46,21a.17.17,0,0,0,.17.2h1.06a.2.2,0,0,0,.2-.17l.24-1.51a.29.29,0,0,1,.28-.24h.65a2.12,2.12,0,0,0,2.35-2A1.61,1.61,0,0,0,25.14,16Zm-1.27,1.42c-.11.75-.68.75-1.23.75h-.31l.22-1.39a.17.17,0,0,1,.17-.15h.14c.37,0,.72,0,.91.21A.7.7,0,0,1,23.88,17.39Zm5.93,0h-1a.17.17,0,0,0-.17.15l0,.28-.07-.1a1.4,1.4,0,0,0-1.17-.42,2.28,2.28,0,0,0-2.21,2,1.89,1.89,0,0,0,.37,1.53,1.54,1.54,0,0,0,1.25.51,1.89,1.89,0,0,0,1.37-.57l0,.28a.17.17,0,0,0,.17.2h.89a.29.29,0,0,0,.28-.24L30,17.56A.17.17,0,0,0,29.81,17.36ZM28.43,19.3a1.1,1.1,0,0,1-1.12,1,.83.83,0,0,1-.66-.27.85.85,0,0,1-.16-.7,1.11,1.11,0,0,1,1.11-1,.83.83,0,0,1,.66.27A.86.86,0,0,1,28.43,19.3Zm3.67-3.86h-1a.17.17,0,0,0-.17.15L30.13,21a.17.17,0,0,0,.17.2h.85a.29.29,0,0,0,.28-.24l.84-5.33A.17.17,0,0,0,32.1,15.44Z"/></svg>