<svg id="Layer_1" data-name="Layer 1" xmlns="http://www.w3.org/2000/svg" viewBox="0 0 959.76 959.76"><title>logo-border</title><path d="M15.35,978.74q0-475.22-.21-950.44c0-7.78,1.55-9.33,9.32-9.32q475.23.38,950.44.21l0,946.86c0,12.65,0,12.65-12.66,12.65ZM949.27,499C948.74,250.73,753.45,56,519,44.18,248.46,30.58,44,247.35,39.65,489.14c-4.48,249.44,196,463,453.63,463.79C740.76,953.72,947.6,754.5,949.27,499Z" transform="translate(-15.14 -18.98)"/><path d="M930.05,497.44c-1.52,243.32-195.12,435.67-436,436.26-243.28.6-438.85-197-436-441.56C60.84,251.1,256.85,57,503.15,61.93,740.17,66.68,928.25,257.71,930.05,497.44Zm-636.78-275c0,2.93.86,5.68-.14,7.2-9.3,14.09-10,31.51-18,46-3,5.53-3.37,11.62-4.33,17.48-1.05,6.43,5.76,13.17,11.88,11.62,11.49-2.93,22,.35,32.64,3.46,17.68,5.17,35.57,9.8,52.81,16.18,10.41,3.84,14.82-1,19-8.5,4.45-8.1,8.27-16.57,13.18-24.37,18.54-29.42,17.3-29.42,50.31-9.6,27.82,16.71,54,36.19,80.72,54.7,16.6,11.51,33.13,23.16,49.19,35.41a181.44,181.44,0,0,1,22.29,20.75c16.87,18.07,13.81,18.81,1.78,32.25-2.92,3.27-4.63,7-3.9,11.35.35,2.1,1.17,4.95,2.71,5.82,2.35,1.34,3.84-1.41,5-3.22,2.74-4.28,5.22-8.73,7.93-13,1.71-2.72,1.79-8.12,6.39-6.77,3.93,1.15,6.55,5.2,6.68,9.72.18,5.89-1.12,11.33-5.85,15.55-2.83,2.52-5.77,5.15-6.4,9.27-.77,5,1.83,11.08,5.8,9.64,6.92-2.52,9.33,1.95,13.12,4.73,6.4,4.71,14.57,6.56,20.17,12.58a2.1,2.1,0,0,0,3.34-.17c4.9-6.22,13.11-7.91,18.49-13.3,22.32-22.39,49-39.42,73.38-59.18,23.49-19,50.76-31.9,78.72-43,8.83-3.52,18.32-6.66,27.81-5.73,5.46.54,5.51,8.55,9.12,12.48,9.24,10,12.08,23.85,10.81,35.46-1.79,16.42-1.32,32.57-.67,48.73,1.19,29.82-8.84,51.79-31.47,60.88-13.68,5.5-14.44,10.73-7.14,22.62,10.78,17.55,18.11,38.37,38.22,48.8,2.45,1.27.59,3.28.78,5,2,18.29.57,36.64,1.06,54.95.43,16.48-4.45,31-13.74,44.44-5.61,8.11-12.93,10.15-21.61,6.49s-17.61-7.49-25.68-12.45c-30.9-19-59.67-40.75-85.28-66.64-19.64-19.86-41.26-37.72-60.1-58.4-9.63-10.58-22.66-11.7-33.65-7.2a79.51,79.51,0,0,0-28.5,20.39c-10.57,11.81-10.82,11.59-.67,24,8.44,10.3,8.24,12.9-1.31,22.33s-21.89,15.63-32.64,23.74c-21.84,16.49-46.09,29.49-67.15,47.28C500.17,699,489,701.66,478,696c-11.2-5.78-17.93-16.5-27-24.64-3.41-3.05-5.84-4-9.83-1.61-27.55,16.77-58.05,26.86-87.69,39-33,13.51-67.24,23.24-100.84,34.85-28.86,10-60.1,10.22-90,16.21-2.1.42-5-.86-6.23,1.2-1.75,2.88,1.43,4.56,2.87,6.37a419.14,419.14,0,0,0,69.94,69.36c74.67,58.42,159.71,88.45,254.16,92,36.81,1.38,73.25-2.73,109.07-11.31,94.93-22.75,173.84-71.48,235.6-147.15,52.6-64.45,83.54-138.21,93.68-221a419.07,419.07,0,0,0-9.29-152.76C888.48,299.6,837.21,219.71,758.2,159,657.68,81.75,543.67,54.49,418.84,75.45c-71,11.91-134.68,41.53-191.15,86.24-17.17,13.6-33.82,27.86-49.06,46.21,7.4.54,12.35,3.17,17.54,5.11,10.53,3.94,21.42,1.9,32.15.28,7.23-1.09,10.33-6.58,13.23-12.41.77-1.55,2.14-3.61,4.44-2.21,1.65,1,2.18,2.79,2.42,4.87,2.7,23.73,19.8,29.06,35.26,22.63C286.56,225,289.5,223.9,293.27,222.44ZM107.06,683.52c7.89,18.15,16.59,32.85,25.81,47.26,1.6,2.51,3.2,3.67,6.92,3,25.26-4.4,51.27-3.07,76-12.15,20-7.32,41.3-10,61.93-15.24,36.82-9.31,72.84-21,107.42-36.29,47.56-21,95.16-41.94,140.48-68C562.74,580.73,598.11,557,633.42,533c9-6.08,12.19-15.7,12.72-25.58.37-6.64-7.45-8.75-11.81-12.67-2.36-2.12-5-3.94-7.41-6-26.78-22.74-57.19-40.44-85.24-61.42-22.32-16.69-48.4-26.4-73-38.58-18.17-9-38.88-13.71-58-20.95-31.84-12.07-64.88-20.08-96.64-32.16-19.3-7.35-39.91-10.24-59.85-15.47C209.39,308.46,164.28,299,117.42,305c-5,.64-8.15,2.21-10.1,7-4.55,11.17-9,22.39-14.34,33.21-3.4,6.93-2,12.13,1.91,18.27,5.31,8.37,11.62,16,11.46,27.47-.26,17.74-15,42.16-32,45.57-5.79,1.16-5.07,3.06-5.56,6.32-4.63,31.1-4.55,62.26-2.07,93.57,2.26,28.66,8.54,56.43,15.39,84.24,2.53,10.28,6.79,10.72,14.55,7.13,8.94-4.14,18.17-4.89,28-3.75,16,1.88,32,5,48.31,3.79,10.56-.77,13.75,3,12.72,13.52-1.82,18.57-.48,36.83,7.49,53.94,5,10.72,2.15,17-9.8,18.73-19.65,2.78-37.44-3.34-55.26-10.81C119,699.37,116.89,689.61,107.06,683.52Zm728-273.42c-5.77-2.64-9.61-1.81-14.85.26-8.81,3.48-15.21,10.11-23.28,14.21-28.14,14.3-53.75,32.69-80.29,49.56-5.06,3.21-10.29,6.58-14.25,10.95-3,3.36-8.67,8.61-3.75,13,3.81,3.38,8.88-1.51,12.15-4.79,27.17-27.18,59.11-46.83,94.2-62.17C815.72,426.39,826.62,420.43,835.05,410.1ZM723.13,520.9c37.24-32.66,81.76-50.22,122.56-75.68-5-3.09-8.09-1.08-11.36-.2-13.34,3.57-24.64,11.33-36.86,17.2-24.29,11.67-46.26,26.67-67.79,42.57C725,508.22,722.5,512.24,723.13,520.9Zm-17,36.56c1.71,10.78,9.63,13.86,14.54,19.39,27.53,31,59.13,57.41,93.19,80.94,4.35,3,10.57,8.22,13.88,3.45,2.51-3.62-3.39-9.54-8.35-12.78-8.08-5.29-17-9.18-25-14.33-22.26-14.22-41.82-31.75-59.44-51.51C726.85,573.54,719.17,563.74,706.16,557.46Zm-469.64-323c-1.47-3.32,2.92-8.79-2.9-9.79-5.13-.88-9,3-10.75,7.65-3.88,10-7.67,20.12-10.78,30.4-1.92,6.35-3.86,12.93-3.05,19.74a10.28,10.28,0,0,0,8.36,9.27c5.81,1.16,5.27-4.6,6.25-7.75,2.89-9.39,4.59-19.19,7.9-28.41A80.05,80.05,0,0,0,236.52,234.46ZM737.09,556.1c-3.29,1.22-2.88,4.45-1.72,5.36,8.22,6.42,12.8,16.31,21.72,22.09,18,11.69,36.16,23.31,53.66,35.78,6.11,4.35,11,10.29,18.82,12,2.32.5,5.09,3,6.72-.2,1.51-3,.72-6.1-2.56-8.2-12-7.66-23.55-15.88-36.11-22.65-19.6-10.56-38.63-22-53.6-39C742.19,559.16,739.49,557.85,737.09,556.1ZM464.16,307.49c-10.32,1.87-35.3,33.81-34.4,43.54a8.48,8.48,0,0,0,5.28,7.41c3,1.19,4.61-1.91,5.94-3.82,4.54-6.49,9.57-12.85,12.84-20C457.82,326,464.86,318.19,464.16,307.49ZM846,477.38c-14-1.05-57.84,18.79-67.17,28.56-2,2.11-4.87,4.68-3,7.3,2.37,3.24,5.78.76,8.54-.71,7.83-4.16,15.8-8.1,23.65-12.17C821.11,493.57,833.35,485.12,846,477.38ZM202,246.6c-1.46-3.14.58-7.49-2.77-8.83-3.84-1.53-5.76,2.26-8.14,4.95-8.83,10-7.92,22.49-9.33,34.36-.23,1.88,1.24,4.29,2.55,6,3.87,5,7.93,4.76,9.61-1.45C197.06,270,199.38,258.19,202,246.6Zm234.47,49.77c-19.94,8.3-27.39,24.25-35.3,39.57-1.7,3.31.75,6.92,4.24,8.63,4.46,2.19,5.48-1.95,6.86-4.47C419.83,326.28,429.21,313.47,436.48,296.37ZM159.8,233.21c-10.62,8.61-17.86,18.91-24.21,29.78-2.47,4.22-2.22,9.19.41,13.59,1.45,2.44,3.2,5.21,6.43,4.88,3-.3,5.15-2.62,5.95-5.53C152.27,261.72,156,247.46,159.8,233.21ZM774.12,547c-.8.59-1.85,1-2.15,1.67-.76,1.79.7,2.85,1.74,4,11.93,13.74,26.13,24.9,40.78,35.5,2.49,1.8,5.23,6.22,9,2.78,4-3.64-.66-6.8-1.75-10.11-.73-2.22-2.84-3-4.49-4.36-11.7-9.72-27.15-13.95-37.43-25.73C778.38,549.19,776.13,548.32,774.12,547ZM241,279.78c1.36,4.85,1,12,6.6,12.91,6.12,1,8.69-4.88,9.84-10.7,1.39-7.11,4.2-14,4-21.34-.05-1.69,4.85-1.09,1.49-3.63-1.74-1.32-3.43-2-6-.82C250.3,259.26,240.88,272.67,241,279.78Zm227.8,86.49c.95-.65,2.38-1.11,2.94-2.08,5.92-10.1,13.07-19.58,16.28-31.07,1.37-4.92-1.16-5.73-5.12-4.27-6.15,2.27-20.71,23.25-20.07,29.34C463.18,361.64,464.5,365,468.79,366.27ZM161.45,661.93c-16.63-3.35-31.61-10.85-47-17.19a22.3,22.3,0,0,0-4.66-1c-1.61-.27-3.23-.34-3.91,1.61a3.31,3.31,0,0,0,1.64,4.08c3.06,1.57,7,1.95,9.42,4.13C130,665.47,145.53,664.24,161.45,661.93ZM512.5,342.74c-13,6.45-18.62,16.57-24.16,26.69-1.57,2.87-.6,5.68,1.69,7.76a3.27,3.27,0,0,0,5.07-.45C501.2,366.35,509.52,357,512.5,342.74ZM173,639.44c-15.85-.75-31.59-5.63-47.74-2.61C140.78,643.38,156.35,648.76,173,639.44ZM532.09,659c-.41-1.07-.55-2.58-1.37-3.37-6.09-5.88-12-12-18.63-17.21-3.59-2.79-3.93,1.32-3.8,3.71.4,7.48,11.13,19.42,18.34,21.27C530.79,664.42,531.66,662.34,532.09,659ZM70.85,432.13c7.12-15.45,16.78-28.27,9.6-44.78C76.19,401.36,71.74,415.32,70.85,432.13Zm54.74,243.23c3.42,2.77,7,5.32,10.21,8.36,9.22,8.85,21.42,10.26,32.89,13.48,1.54.44,3.3.34,3.72-1.73.31-1.54-.77-2.19-2.17-2.41C154,690.47,140.62,681.24,125.59,675.36Zm417.32-52.05a2.34,2.34,0,0,0-2.43,2.27c-1.09,6.36,10.8,19.11,16.94,18,1.65-.28,3-1.06,2.78-3.15C560,638.54,544.83,623.34,542.91,623.31Zm1.24-221.67c1-.27,1.8-.23,2.16-.61a40.21,40.21,0,0,0,10.08-17.77c.67-2.53-1.37-3.14-3.51-2.91-5.59.62-13.48,14-11,18.83A11.51,11.51,0,0,0,544.15,401.64Zm21.76,205.24a5.6,5.6,0,0,0-3.31,5.89c.53,3.8,13.24,12.82,17.11,12.34,1.63-.2,3.1-.89,3.47-2.64S568,606.62,565.91,606.88ZM528.67,366.76c-4.13.17-13.85,13.76-12.43,17.65,1.18,3.23,3.51,4.82,6.38,1.65A54.64,54.64,0,0,0,532,370.75C533.6,367,530.37,367.54,528.67,366.76Zm67,42.07c-4.27,1.66-8.26,4.4-8.41,9.81-.08,2.9,1.08,7.72,4.79,6.74,6.47-1.7,6-9.08,8.34-14C601.25,409.46,598.05,409,595.63,408.83Zm-14.69-8.1c-.17-1.91-1.21-3.72-2.77-2.74-4.27,2.65-8.19,5.9-8.19,11.66,0,2.16.1,5.67,2.81,4.76C579,412.3,577.21,404.69,580.94,400.73ZM487.66,663c1.84,10.41,7.55,14.95,16.86,15.76Z" transform="translate(-15.14 -18.98)"/><path d="M168.84,449.36c13.28-4.56,25.39-4.67,39.15-1.41,25.81,6.12,36.52,25.41,46.66,46.09,4,8.13,3.54,15.36-.83,24.69-8.73,18.62-22.43,28.07-41.52,31.78-4.09.79-9.43,5.57-12,1.3s3.41-7.13,7-9.73c16-11.79,24.35-27.38,19-47.15s-18.7-32.6-38.66-38.23C181.62,455,175.19,454.23,168.84,449.36Z" transform="translate(-15.14 -18.98)"/><path d="M273.24,362.71c23.2.1,45,15.32,49.52,36,4.14,18.8-4.24,43.39-24.52,50.56-7.17,2.53-13.25,7.67-20.81,9.37-1.88.43-3.92,3.3-5.82.28-1.14-1.8-.29-3.49.92-5.22,2.74-3.91,4.46-8.86,7.91-11.9,11.21-9.93,15.52-22.39,14.09-36.71-1.07-10.68-7.83-18.56-16-25.11-2.21-1.79-4.95-2.91-7.35-4.48-3.46-2.26-9.6-2.6-8.34-8.66C264.23,360.28,270.26,363.84,273.24,362.71Z" transform="translate(-15.14 -18.98)"/><path d="M146.8,560.67c2.49,26.54-18.93,42.92-40.48,45.77-3,.4-5.87.58-7.63-2.32s1.22-4.63,2.56-6.48a90.89,90.89,0,0,1,7-7.82c14.74-16,13.3-35-3.57-48.7-2.58-2.09-6.68-4-4.71-8.3a8.57,8.57,0,0,1,10.35-5c15.94,3.81,27.45,13.56,35.69,27.38C146.89,556.67,148,558.68,146.8,560.67Z" transform="translate(-15.14 -18.98)"/><path d="M97.75,437c19.32-19.58,43.71-9.41,51.95,10.56,3,7.17,8.21,13.14,8.2,21.73,0,13.89-17.92,35.68-31.43,36.77-3.47.28-6.71-.85-4.32-5.58a24,24,0,0,1,3.48-5.7C142,477,128.24,449.84,109.9,441.81,106.14,440.16,102.28,438.76,97.75,437Z" transform="translate(-15.14 -18.98)"/><path d="M317.64,539.21c15.29,1.6,29.87,7.76,38,23,8.28,15.54-.43,29.64-6.86,43.34-2.1,4.47-6.23,8-9.69,11.78-1.29,1.39-2.6,4.23-5.31,2.26-2.1-1.53-1.92-3.94-1.24-6.15A72.92,72.92,0,0,0,336,594.8c.82-21.67-6.06-32.26-26.21-40.91-4.36-1.88-12.29-2-11.28-8,.94-5.6,8.62-5.26,13.83-6.34A43.3,43.3,0,0,1,317.64,539.21Z" transform="translate(-15.14 -18.98)"/><path d="M428.6,399.66c20.51-1.23,41,10.68,48,29,2.63,6.81,2.32,14.85,2.8,22.36a7.6,7.6,0,0,1-3,5.7c-8,5.22-16.19,10.09-24.45,14.86-1.89,1.1-4.71,1.47-6.12-.58-1.25-1.83.92-3.37,2-4.9a37.29,37.29,0,0,0-7-50.95C431.31,407.32,431.31,407.32,428.6,399.66Z" transform="translate(-15.14 -18.98)"/><path d="M174.53,328.43c18.77-.39,32,7.13,36.75,19.78s-1.62,37.71-11.82,45.89c-2.16,1.73-4.61,4.4-7.6,2.65-3.69-2.15-.8-5.13.11-7.54,4.42-11.63,7.1-22.51-1.68-34.12S170.2,340.47,156.9,341c-2.75.11-6.61,2-7.53-1.51s1.84-6.39,5.44-7.72C161.78,329.15,169.15,329.08,174.53,328.43Z" transform="translate(-15.14 -18.98)"/><path d="M401.94,480.85c-.51,15.82-9,25.69-24.11,28.79a6.61,6.61,0,0,1-6.7-2.24c-2.22-2.32-.22-4.16,1.58-5.49,10.73-8,8.37-18.32,5-28.55-2.77-8.32-8.42-14.87-14.59-21-2.19-2.18-4.84-4.94-3-8.28s5.42-2.44,8.66-2.45C392,441.62,402,465.29,401.94,480.85Z" transform="translate(-15.14 -18.98)"/><path d="M539.43,510c1.24-12.46-5.69-22-13.41-31.12a55.35,55.35,0,0,1-4.85-5.91c-1.78-2.83-7.28-4.46-3.38-9.35,3.75-4.7,9.08-3.13,12-.61,11.06,9.48,25.07,16.35,29.49,32.19,1.55,5.54,2.6,10.76-.7,15.6-5.37,7.88-6.22,18.06-13,25.14-2.56,2.69-5.47,6.23-9.73,3.92-5-2.73-1.86-6.83-.37-10A38,38,0,0,0,539.43,510Z" transform="translate(-15.14 -18.98)"/></svg>