<svg id="Layer_1" data-name="Layer 1" xmlns="http://www.w3.org/2000/svg" viewBox="0 0 959.71 960.81"><title>logo</title><path d="M485.68,986.15c-14-4.13-28.58-2.26-42.88-3.85-73.65-8.17-141.88-31.65-204.14-71.55C126.65,839,54.4,737.88,26.62,608c-31.75-148.38.28-284,94.85-403.15,72.33-91.17,167-148.11,281-170,140.33-27,269,3.37,383.2,89.35C877,193,934.92,284.67,961.81,395.68c12.74,52.6,15.52,106,9.86,159.91C961.18,655.54,923,743.69,857.44,819.31,786,901.68,696.16,953.76,589.05,975.67a479.59,479.59,0,0,1-81.42,9.17c-1.7,0-3.37.86-5.05,1.31ZM273.09,202.94c4.33,8.49-3.2,12.85-5.19,18.83-4.85,14.6-8.44,29.63-15.36,43.56-2.25,4.52-2.81,10.11-3.21,15.28-.55,7.2,6.75,14.35,13.48,12.46,11.94-3.35,23,.21,33.94,3.23,19.86,5.47,39.42,12.06,59.19,17.89,12.42,3.67,16.3,1.94,22-10.06s11.9-23.95,19.6-34.8c14.8-20.86,14.52-18.87,33.56-10.3a149.89,149.89,0,0,1,15.67,8.24c31,18.64,59.25,41.34,89.47,61.14,18.58,12.18,36.52,25.41,54.15,38.93,9.11,7,17.16,15.41,25.26,23.6,14.94,15.11,15,17.71,1.43,33.92-3.61,4.32-5.75,8.88-4.59,14.44.4,1.93,1.52,4.48,3.05,5.22,2.12,1,3.8-1.34,4.87-3.09,3.47-5.67,6.75-11.45,10.1-17.19,1.36-2.33,2-5.95,5.43-5.52,2.8.35,4.51,3,6.13,5.38,2.41,3.49,2.14,7.33,1.6,11.19-.88,6.32-5.07,10.51-9.33,14.8-3.59,3.62-5.83,7.92-3.15,13.24,2.27,4.53,5.27,5.8,10.1,3.35,2.57-1.31,4.41,1.25,6.14,3,7.22,7.43,18.19,9.08,25.44,16.53,2.64,2.71,3.72-.33,5.74-1.55,21.14-12.76,37.63-31.4,57.84-45.45a336.46,336.46,0,0,0,29.92-22.74c31.44-27.57,68-45.55,106.8-59.54,5.56-2,11.53-2.93,17.37-4,2.66-.5,6.64-1.51,7.7,1.48,3.19,9,11.92,14.58,14,24.21,2.56,11.67,5,22.68,3.75,35.38-2.15,21.72.08,43.88.61,65.85,0,1.64,1,3.13.36,5-6.47,19.92-19.27,34.52-38.2,43-8.85,3.94-10,8.92-7.7,17.3,2.48,9.16,9,15.69,13.69,23.36,8.29,13.62,14.94,28.91,30.82,36.2,2.23,1,1.53,3,1.71,5.1,1.67,20.5.53,41,.92,61.52.34,18.1-4.89,34.17-15.3,48.85-6,8.39-13.75,10.93-22.9,7.11-10.29-4.31-20.89-8.56-30.06-14.74-26.56-17.92-54.31-34.18-76.77-57.82-23.1-24.31-50-44.74-72.45-69.86-9.93-11.1-20.79-22-39.21-18.47-15.41,3-25.47,13.16-36.77,21.94-5.16,4-12.12,8.61-13.32,14-1.41,6.37,7.47,10.1,11.41,15.36,8.09,10.79,8.11,13.54-1.83,22.95-11.85,11.22-26.39,18.8-39.3,28.61-22.86,17.38-48.45,30.79-70.41,49.64-8.92,7.66-21,10.83-33.3,5-12.71-6-19.68-18.21-29.9-26.89-4.07-3.45-6.7-5.24-11.59-2.23-30.24,18.6-63.88,29.57-96.47,42.94-36.28,14.9-74,25.51-111,38.33-31.42,10.9-65.48,10.92-98,17.77-2.6.54-6.29-1.38-7.67,1.59-1.61,3.48,2.26,5.55,4.08,7.8,24.17,30,51.25,57,82.22,79.91,107.19,79.24,226.67,110.38,358.85,90.54,94.93-14.24,178.75-53.52,247.87-119.58C940.16,735.86,989.6,590.86,960.79,421.51c-18.89-111-73.07-203.17-159.09-275.6C693,54.34,566.82,19.33,426.5,38.49,336.58,50.76,257,88.33,187.88,147.29,174.2,159,160,170.35,148.26,187.42c8-.92,12.93,2.38,18.29,4.64,17.31,7.28,39.54,1.43,50.16-12.7,1.17-1.56,2.22-4.19,4.75-3.25s3,3.18,3.25,5.93c1.94,22.26,19.79,32.33,37.13,25.08C265.38,205.64,269,204.44,273.09,202.94ZM69.21,709.8c8.53,19.82,18.07,35.66,27.88,51.35,1.79,2.87,3.52,4.93,8.31,4.05C132.79,760.15,161.09,762,188,752c21.9-8.12,45.42-11.07,68.13-16.77C297,725,337,712,375.34,695.07c52.34-23.14,104.69-46.18,154.58-74.86,40.85-23.49,79.74-49.63,118.61-76,9.85-6.68,13.43-17.31,13.88-28.2.3-7.2-8.26-9.61-13.11-13.89-2.88-2.54-6.08-4.71-9-7.18-27.44-23.05-58.41-41.22-86.93-62.69-26.56-20-57.12-32.19-86.3-46.72-20-9.95-42.8-15-63.84-23-35-13.3-71.38-22.13-106.32-35.39-21.26-8.07-43.9-11.36-65.87-17-38.69-9.95-77.56-19.18-117.93-18.73-40.95.47-40.26.76-56.51,38.42-5.86,13.58-5,23.86,3.9,35.07,9.39,11.89,8.87,25.24,5.1,39.58-4.47,17-18.47,25.51-31.09,32.32-8.19,4.42-7,9.4-8.65,14.58-1.34,4.21-.51,9.07-.94,13.62-5.84,61.5.87,121.65,18.63,180.77,2,6.69,4.64,6,9.33,4.3,11.54-4.26,22.95-7.57,35.82-5.75,17.56,2.48,35.18,5.55,53.14,4.23,11.56-.84,14.85,3.33,13.85,15-1.85,21.47-.16,42.44,9.52,62.23,4.29,8.78-.13,16.76-11.15,17.31-29.49,1.48-58-.8-77.46-27.92C75.42,713.57,73.26,712.7,69.21,709.8ZM870.49,409.14c-12.24-6.72-20.86,1.21-27.76,5.86-31,20.89-64.87,37.26-95,59.49-9.47,7-21.16,11.24-27.21,22.33-1.48,2.7-3.71,5.78-1.16,8.73,2.85,3.3,5.94.6,8.44-1a51,51,0,0,0,9.06-7.09c28.14-28.17,61.7-48,97.68-64.32C847.43,427.31,860,420.45,870.49,409.14ZM747,531c41-35.93,90-55.22,135.47-83.67-5.88-2.56-9.2-.94-12.82,0-14.67,4-27.1,12.5-40.55,19-26.74,12.82-50.93,29.29-74.62,46.79C749.37,516.87,746.57,521.27,747,531Zm-18.58,40.21c1.86,11.85,10.57,15.24,16,21.32,30.34,34.1,65,63.24,102.54,89.06,4.8,3.31,11.64,9.05,15.28,3.82,2.78-4-3.7-10.5-9.16-14.06-8.89-5.82-18.69-10.11-27.54-15.77-24.5-15.64-46-34.94-65.4-56.67C751.23,588.87,742.77,578.09,728.46,571.17ZM211.54,215c-1-3.56,2.89-8.7-2.87-10.05-5-1.19-8.06,3.23-11.25,6.38a4.93,4.93,0,0,0-.83,1.89c-4.07,11.49-8.55,22.85-12,34.51-2,6.64-4,13.55-3.15,20.7a11.48,11.48,0,0,0,9.06,10.35c6.41,1.46,5.89-4.83,7-8.33,3.43-11,6-22.25,9.53-33.19C209.39,229.84,211.56,222.56,211.54,215Zm550.74,354.6c-3.3,1.65-3,5.14-1.66,6.12,9.22,6.9,14.09,17.91,24,24.24,19.92,12.77,39.82,25.63,59,39.41,6.72,4.82,12.21,11.21,20.73,13.15,2.56.58,5.62,3.27,7.33-.38,1.57-3.34.64-6.68-3-9-12.32-7.85-24.08-16.73-36.92-23.61-22.6-12.1-44.42-25-61.79-44.28C768,573,765,571.54,762.28,569.56ZM462.42,300.16c-.24-4.88-3.81-6.39-8.28-2.29-13.3,12.17-22.7,27.31-29.6,43.88-1.65,4,1.1,7.69,4.51,9.83,4.56,2.88,6.4-1.91,8.14-4.26a147.4,147.4,0,0,0,13-20.21C454.79,318.15,460.47,309.58,462.42,300.16ZM881.71,480.25c-28,5.82-51.92,19.29-74.52,35.56-2.27,1.64-4.08,4.67-1.65,7.21,2.25,2.36,5.29.74,7.73-.62q32.88-18.33,65.7-36.77C880.41,484.82,882,483.79,881.71,480.25ZM173.52,229.94c-1.1-4.36.64-9.08-2.86-10.53-4.21-1.73-6.33,2.47-8.95,5.43-9.72,11-8.71,24.75-10.27,37.81-.25,2.07,1.37,4.72,2.81,6.57,4.26,5.46,8.72,5.24,10.57-1.6C168.26,254.86,170.82,241.86,173.52,229.94Zm257.33,55.83c-13.24,3.2-37.41,30.65-38.25,42.33-.32,4.49,1.82,7.71,5.6,9.18,4.08,1.58,5.4-2.41,6.78-5C413.08,316.92,423.66,303,430.85,285.77Zm-303.58-71.5c-11.75,9.66-19.74,21-26.7,33-2.68,4.62-2.4,10.14.57,15,1.63,2.66,3.57,5.72,7.14,5.26,3.28-.42,5.6-3,6.47-6.2C119,245.63,123.12,229.94,127.27,214.27Zm732,389.65c-2.89-3.51-3.34-8.26-7.83-11.63-13.62-10.21-30.52-15.55-42.16-28.63-1.12-1.27-2.85-2-4.34-2.94-1.24-.78-2.57-1.26-3.7.14s-.69,2.6.31,3.74c14.81,16.94,32.21,30.89,50.66,43.56C856.15,610.89,858.67,609,859.25,603.92ZM216.51,264c1.07,7,1.49,14.76,7.1,15.88,6.44,1.29,9.81-5,11-11.5,1.45-7.84,4.78-15.36,4.38-23.48-.1-2.13,5.16-1.35,2-4.12-1.72-1.49-3.67-2.52-6.63-1.25C227.3,242.55,216.6,257.44,216.51,264Zm250.43,97.21c1.79-1.45,4-2.4,4.84-4.05,5.11-10.34,12.5-19.48,16.05-30.58.67-2.08,2.54-4.61-.05-6.74-2.95-2.43-5.47-.31-7.48,1.39-8.76,7.44-14.78,16.94-19,27.47C459.19,354,462,358,466.94,361.18ZM129.16,686c-18.77-3.2-35.26-12.42-52.71-18.94a22.45,22.45,0,0,0-4.09-.92c-1.75-.31-3.56-.48-4.39,1.62-.77,1.94.42,3.32,1.63,4.61,2.84,3,7.72,1.87,10.43,4.41C94.31,690.14,111.52,688.55,129.16,686Zm386.2-351c-14.25,7-19.95,17.79-26.11,28.18a7.26,7.26,0,0,0,1.24,9.57c1.73,1.69,4.48,1.55,5.59-.29C503,361.06,512,350.71,515.36,335ZM89.27,658.14c17,7.83,34.2,13.48,52.5,3.83C124.41,658.87,107,656.62,89.27,658.14Zm424.1.89a4.16,4.16,0,0,0-2.47,6c3.81,8.47,6.83,17.74,16.93,21.18,2.67.91,5.72,4.21,8.19.1,2.12-3.54.52-7.37-2.28-9.35-6.31-4.45-11.28-10.21-16.82-15.41A29.7,29.7,0,0,0,513.37,659ZM40.11,380.94c-5.37,18.31-9.4,33.79-10.74,51.77C37.68,416.22,47.5,402.06,40.11,380.94Zm49.48,319.6c5.25,4.53,10.07,9.71,15.84,13.42,9.47,6.08,20.51,8.42,31.36,10.94,1.71.4,3.6.51,4.29-1.63.53-1.65-.54-2.61-2.08-2.85C121.11,717.57,106.27,707.55,89.59,700.54ZM567.9,662.36c-1.87-5.06-6.48-7.9-10.4-11.15-3.21-2.65-6.51-10.12-10-6.51-3.75,3.87,1.06,10.18,4.54,14.47,2.71,3.33,6.68,5.06,10.63,6.46C565.2,666.53,567.61,666.13,567.9,662.36ZM551.12,399.65c4.6-1.7,6.19-6.19,8.09-10s7.78-9.69,3-12.49c-5.67-3.34-9.35,3.81-12.19,8.37a24.48,24.48,0,0,0-2.84,8.79C546.79,396.83,548,399,551.12,399.65Zm42,243.16c-.24-2.24-17-17.74-18.29-17.3-3.27,1.17-5.77,4-3.87,7,4.15,6.58,10.1,11.48,18.06,13C591,645.87,593.11,644.84,593.09,642.81ZM537.43,364.42c-1.07-3.15-4.24-4.13-6.2-2.52-5.37,4.41-9.78,9.86-11.83,16.74a4.41,4.41,0,0,0,1.66,4.68c1.52,1.27,3.33,1.48,4.68.06C530.85,378,534.26,371.55,537.43,364.42Zm74.5,47c.85-3.05-1.31-3.71-3.44-3.67-6.22.11-9.56,4.35-10.94,9.58-.88,3.33,1.22,8.61,4.29,8.39C610,425.17,608.43,416.32,611.93,411.45Zm-21.34-12.67c0-1.76-.84-3.65-2.05-3.15-5.67,2.34-9.53,6.43-9.92,12.9-.14,2.36.1,6.24,3.08,5.23C588.54,411.43,586.56,403.06,590.59,398.78Zm-84.93,306.7c-6.2-9.05-13.24-15.47-17.7-16.14C493.63,701.69,493.63,701.69,505.66,705.48Z" transform="translate(-14.75 -25.33)"/><path d="M137.16,452.17c14.76-4.87,28.06-5.08,43.22-1.47,28.42,6.76,40.14,28,51.29,50.76,4.38,8.93,3.82,16.91-1,27.17-9.6,20.55-24.75,30.83-45.74,34.92-4.48.87-10.36,6.1-13.09,1.32s3.87-7.82,7.74-10.68c17.63-13,26.76-30.19,20.88-51.92s-20.61-35.85-42.62-42C151.19,458.41,144.12,457.54,137.16,452.17Z" transform="translate(-14.75 -25.33)"/><path d="M274.67,412.62c2.31-22.14-10-33.53-26.21-42.46-3.82-2.11-9.42-3.14-7.7-9.31,1.57-5.61,6.81-3.85,10.76-3.91,25.44-.36,49.38,16,54.91,39.05,5,20.79-4.91,48.8-27.32,56.37-7.23,2.44-13.81,6.79-20.95,9.57-2.17.85-5,4.08-7.52,1.15-2.77-3.23.57-5.86,2-8.38a70.66,70.66,0,0,1,11.26-15.15C272.52,431.05,274.94,423.74,274.67,412.62Z" transform="translate(-14.75 -25.33)"/><path d="M112.76,575.08c3.76,28.13-21.41,47.42-44.79,50-3,.33-5.54.48-7.6-2.14-2.67-3.4.67-5.2,2.11-7.12,2.74-3.63,6.07-6.81,9.11-10.21,15-16.77,13.14-38.1-4.45-52.13-3-2.42-8.15-4.46-5.44-9.85a9.05,9.05,0,0,1,10.56-5.12c18,4.05,31,14.78,40,30.62C113.16,570.78,114.43,573,112.76,575.08Z" transform="translate(-14.75 -25.33)"/><path d="M58.93,438.57c21.38-21.42,48.14-10.4,57.27,11.73,3.25,7.88,9,14.5,9,23.91,0,15.23-20,39.41-34.69,40.38-3.79.25-7.37-1.06-4.6-6.24a30,30,0,0,1,3.84-6.28c17.93-19.52,2.84-49.33-17.47-58.21C68.13,442.05,63.88,440.52,58.93,438.57Z" transform="translate(-14.75 -25.33)"/><path d="M300.17,551.08c18.4,1.91,34.48,9.07,43,26,8.34,16.57-.62,32-7.74,46.85-2.07,4.32-5.79,7.94-9.19,11.47-1.94,2-3.66,6.2-7.24,4.26-3.33-1.8-2-5.38-1.08-8.54a82.88,82.88,0,0,0,3.34-20.67c.45-21.68-6.65-33.13-26.74-42.25-2.84-1.28-5.9-2.09-8.78-3.29s-6.59-2.94-6.2-6.32c.35-3.12,3.9-4.44,7.12-5.33A46.05,46.05,0,0,1,300.17,551.08Z" transform="translate(-14.75 -25.33)"/><path d="M423.31,397.72c21.64-2.24,46.68,12.71,53.29,33,2.32,7.09,2.09,15.08,2.45,22.68.11,2.17-1.16,5.38-2.85,6.5-9.06,5.95-18.39,11.49-27.76,16.94-1.76,1-4.56,1.3-6-.36-2.24-2.66.79-4.27,2.11-6.11,12.33-17.15,9-41.77-7.54-55.35C425.74,405.69,425.74,405.69,423.31,397.72Z" transform="translate(-14.75 -25.33)"/><path d="M146.24,319.09c18.52-.26,32.86,8.25,37.88,22.48s-2.52,41.91-13.75,50.28c-2.4,1.79-5.15,4.71-8.39,2.14-3-2.35-.35-5.14.56-7.62,4.69-12.73,8.1-24.66-1.52-37.59s-22-16.26-36.6-15.9c-3.37.09-8.13,2.37-8.93-2.18-.62-3.48,2.73-7.05,6.91-8.22A96,96,0,0,1,146.24,319.09Z" transform="translate(-14.75 -25.33)"/><path d="M393.68,486.5c-.4,17.46-7.92,26.41-25.18,31.5-4.22,1.24-7.11.51-9.06-2.47-2.14-3.26,1.38-5,3.42-6.62,10-7.89,7.55-18.06,4.88-27.93-2.61-9.7-8.7-17.45-15.81-24.41-2.78-2.71-6.19-5.94-4.44-9.87,1.83-4.1,6.45-3.26,10.38-2.84C378.92,446.11,394.19,464.25,393.68,486.5Z" transform="translate(-14.75 -25.33)"/><path d="M568.76,510.65a7.58,7.58,0,0,1-.11,1.53c-4.48,12.42-9.54,24.61-17.12,35.47-2.25,3.23-6,6.86-10.65,4-5.36-3.25-1.64-7.68-.12-11.15,8.88-20.28,4.88-38.21-9.28-54.49-3-3.44-6.07-6.82-9-10.35-1.67-2-4.54-4-1.87-7.19,2.12-2.55,4.42-4.41,8.14-3,12,4.48,21.08,13,29.5,22A40.9,40.9,0,0,1,568.76,510.65Z" transform="translate(-14.75 -25.33)"/></svg>