<svg id="Layer_1" data-name="Layer 1" xmlns="http://www.w3.org/2000/svg" viewBox="0 0 746.19 975.5"><title>mousey</title><path d="M681.55,363.18c.45,1.77-.89,2.82-1.8,3.89-5.15,6.11-8.6,13.24-12.3,20.23-1.07,2-2,4.19-1.56,6.62,4.74.51,6-4.1,9-6l-.08-.08c-1,4.91-4.51,7.89-8.48,10.35-3.28,2-6.15,4.91-10.26,5.4-.39.05-1,.26-1.09.54-2.37,5.52-8.55,5.27-12.6,8.3-6,4.49-11.32,9.39-15,16.06-1.5,2.75,0,5.69-1.12,8.45-.38,1,1.16,1.15,2.09,1.44,3.24,1,6.55.51,9.82.74.68.05,2.92-1.17,2.29,1.47-.44,1.82-1.41,2.09-3,1.33a6.46,6.46,0,0,0-5.22.06c4.64,3.29,10.79,2.54,13.84-1.49a13,13,0,0,1,3.87-3c1-.58,2.87-.48,2.37-2.22s-1.95-.69-3.11-.55c-5.24.63-10.51,1.3-16-1.7,4.67-1.47,8.93.5,13.09-.22,4.58-.78,9.3.74,13.86-1.14,2.28-.95,3.54-4.07,7-2.83,1.2.43,2-4.53.38-5.18-4.06-1.63-4.89-6.19-8.19-8.51a2.59,2.59,0,0,1-.29-3.76c4.49-4.63,8.58-9.7,14.06-13.34-3.09,4.18-6,8.47-10.15,11.75-1.37,1.08-2.36,2.41-1.09,4.22a2.3,2.3,0,0,0,3.57.57,3.17,3.17,0,0,0,.93-1.12c-2.86-3.25.88-3,2.12-4,5.81-4.83,11.68-9.56,16.94-15a96.33,96.33,0,0,1,10.71-9c6.3-4.87,11.86-10.56,17.87-15.74.51-.43,1.1-.78,1.83-1.29.59,1.82-2.37,4.58,1.66,5.15.78.12.79,1.7.16,2.89-1.67,3.17.57,2.18,2.11,1.85a38.31,38.31,0,0,1-9.09,6.92c-10.67,6.37-21.38,12.67-31.93,19.24a30,30,0,0,0-8,7.2c1.73.95,3,.37,4.2-.19,7.24-3.31,14.14-7.24,21.08-11.14,9.16-5.14,16.2-12.74,24.11-19.35,1.61-1.35,1.11-2-.48-2.62l5.16-2.87c-5.47,10.24-14.2,15.8-21.74,22.75,7.43-1.3,14-5.54,21.86-5.17-2,.73-3.43,1.52-3.5,4.14,0,1.65-2.36,2.43-3.88,3.38-4,2.5-8.69,3.93-13.23,8,7.06-.67,13-1.31,18.86-1.76,3.37-.26,6.59-.6,9.12,3,1.27,1.82,2.12,3.19,1.28,5-1.39,3.07.34,3.17,2.72,3.13-18.64,3-37.43,3.82-55.8,7.62-2.38.5-4.94.12-7.41.21-1.66.06-3.39.79-2.92,2.56s2.21.95,3.47.43c-1.82,1.49-2.31,2.92.71,2.88,5.64-.06,11.28-.48,17.77-.79-2.39-1.69-4.21-1.51-5.93-1.59-4.22-.21-8.44-.31-12.65-.45,6-2,12.23-.62,18.2-.09a74.87,74.87,0,0,0,20.91-.9c4.69-.9,7,1.58,9,4.52s.95,5.18-2.48,6.38-3.47,1.22-6.06.83c.27-1.28,1.4-1,2.21-1.32,2.16-.93,5.11-1.18,5-4.53-.09-2.2-4.11-4.82-7-4.6-3.56.28-7.13.55-10.65,1.09-1.84.29-3.62.73-5.52.18,5.94,2.42,12.72,1.55,18.93,5.05-1.78,1.1-3.08.35-4.23.15-12.2-2.15-24.43-3-36.75-1.1a14.12,14.12,0,0,1-7.28-.36c-3.19-1.15-8.48,1.36-9.78,4.3-.77,1.76-2.47,2.06-3.83,2.9-6.69,4.13-14,5.74-21.65,4.07a11.69,11.69,0,0,0-8.5,1.53c-6,3.44-12.51,5.45-18.85,8-7.1,2.83-12.38,8.54-18.36,13.14-15.61,12-29.41,25.94-42.79,40.3-4.85,5.22-9.32,10.8-13.84,16.31a29.57,29.57,0,0,1-4,3.55,5.6,5.6,0,0,1,1.41-2.92c5.59-6.41,11.23-12.77,16.69-19.28,2.26-2.71,5.2-4.95,6.44-8.47-7.55,6.4-13.89,13.92-19.94,21.67-2.45,3.13-5.88,5.37-7.76,9-1,2,0,1.67,1.27,1.29-.27,1.18-.12,2.5-1.07,3.45-1.4-.18-.4-2.5-1.9-2.2-1.15.24-1,1.81-1.6,2.59-2.91,3.94-6.37,7.43-9.24,11.45-8.3,11.65-15.78,23.8-22.94,36.17a216.9,216.9,0,0,0-24.14,63.17c-4,18.47-8.14,37-7.47,56.2.21,6-.77,12.08-1.05,18.09-.55,11.78-3.91,23.32-2.78,35.22.31,3.24-.21,6.61,3.3,8.68,1.53.9,1.8,2.6,1.68,4.38a112.43,112.43,0,0,0-.24,12.59c.18,4-2.61,6.62-5.05,9.4,3.54,1.07,3.51,3,2.52,6.74-1.5,5.6-.12,11.56.34,17.39,1,12.43,4,24.56,4.83,37.06.54,8.54,3,17,4.68,25.44s3.39,16.67,4.84,25.06c.79,4.56,1,7.46-2.22,11.15-3.33,3.85-4.35,9.06-3.43,14.36.2,1.18.38,2.71-1.46,2.82-1.62.09-2-1.23-2.11-2.53-1.29-15.76-5.51-31-8.63-46.4-2.67-13.21-3.44-26.67-4-40.13-.23-5.75-.94-11.49-1.47-17.24a24,24,0,0,1,2.85-14.71,200.63,200.63,0,0,1,1.89,28.18c0,7.78-.84,15.56,0,23.32a100.33,100.33,0,0,0,2,10.07c2.47,11.24,3.49,22.76,6.86,33.83,1.07,3.51.51,7.39,2.48,12,.94-3.6,3-5.47,4.74-7.62,2.19-2.74-.48-5.59-1.58-7.59-4-7.21-4.49-15.23-6.15-22.93-3.95-18.42-5.73-37.14-7-56-.42-6.39-.24-12.83-.82-19.73-3.05,2-4.56,5.64-8.44,5-.2,0-.66.27-.65.39.21,2-.52,3.59-2.63,3.07a9.25,9.25,0,0,1-5.59-4.26c-3.71-5.5-6.86-11.42-11.67-16.21-3-3-6.2-3.74-9.53-1.69s-6,2-8.6-1.81c-1.25,3.63-.52,6.77-.62,9.76-.46,13.43-.57,26.88-1,40.32a38,38,0,0,1-1.74,8.83c-.85,3-2.14,5.84-2.92,8.9-1.09,4.24-4.44,6.88-8.23,8.54-2,.89-2.56,2-1.91,3.69,2.56,6.77.51,13.64.46,20.45,0,2-.35,4.08-.28,6.14a42.3,42.3,0,0,1-4.12,19.11c-2.34,5.13-1.37,6.15,4.32,5.22,2.16-.35,4-.48,4.65,1.88s-.47,3.87-2.62,4.91-4,2.33-6.13,3.38c-.83.41-1.5.77-1.19,1.77.4,1.29,1.48,1,2.4.8,1.3-.35,2.27-1.39,3.74-1.61,2.08-.31,4.3-1.9,4.92,1.84.09.56,1.57.91,2.43,1.32,3.88,1.84,4.12,4.8.79,7.58-1.48,1.23-4.89,1.45-4.24,3.53.57,1.8,3.7.48,5.67.71q16.59,2,33.18,3.81c4.62.51,9.26.89,13.88,1.54a65.85,65.85,0,0,1-18.77-.74c-16.15-2.54-32.35-1-48.52-1.57-6-.2-12.17.23-18.1-.66-3.91-.58-7.51-1-11.44-.2-2.43.49-4.06,2.07-6.29,2.79.59,1.42,1.84,1.13,2.79,1.2,10.42.69,20.88.94,31.25,2.08,12.24,1.35,24.47.56,36.7.9,16.16.44,32.33.94,48.49,1.73-3.17.57-6.42,1.4-9.53.62-4-1-7.28,1.47-11,1.77-12.46,1-24.95,1.19-37.44,1.65-9.89.37-19.71,2.08-29.56,2.3-6.53.15-12.11,4.66-15.52,3.48,19.24,1.09,41.74.65,64.22,1.62-14.93,0-29.86-.19-44.79.06-11.81.2-23.62.93-35.43,1.43a5.79,5.79,0,0,1-.83,0c-1.71-.2-4.55.75-4.83-1-.39-2.53,3.08-.11,4.59-3.08-6,1.74-11.25-1.84-16.75,1.45-3.61,2.16-8,1.64-12.1,1.69-7.22.1-14.45,0-22.06,0,8-2,15.87-1.13,23.54-3L254,960.85l0-1.24c56.53.33,113-.3,169.41-5.07-67.92-2.13-135.85.56-203.8-1,3.84-1.62,7.9-1.21,11.85-1.22,13.73,0,27.48.47,41.2,0,4.32-.14,8.61-1.88,13.19-1.59,7.67.48,15.43-.07,23,1.38,3.37.64,6.36,0,9.92-.84a10.87,10.87,0,0,0-7.74-2.69c-18.81.09-37.61.05-56.58.05.83-4.41,3.27-5.23,6.37-5,11.07.82,22.23.56,33.18,2.84,5.31,1.1,10.7.55,16,.41,1.07,0,2.41-1,1.18-1.54-4-1.9-2.32-5.76-3.5-8.57-1.75-4.2-3.06-8.66-6.66-11.77a38.74,38.74,0,0,1-11-15.4c-.45-1.15-.74-2.36-1.21-3.5-.73-1.77,1.11-4.55-1.36-5.34-1.61-.51-3.7.46-5.57.79-23.8,4.26-44.2-3.77-62.11-18.47-7.39-6.07-14.56-13.12-17.29-23.11a12,12,0,0,1-.62-5.94c.62-3-1.9-5.31-2.09-8.42-.34-5.86-.57-11.73-.79-17.59-.31-8.23-3.93-15.36-6.9-22.75a133.27,133.27,0,0,0-10.66-20.31c-5.48-8.82-10.38-18.29-18.66-25.33A82.52,82.52,0,0,1,149,744.31c-3.83-5.45-7.93-10.65-11.88-16-4.61-6.23-6.43-14-8.25-21.53-1.95-8.13-.19-15.95,1-23.88.3-1.95,1.88-2.94,2.85-4.49a3.09,3.09,0,0,1,1.07,3.65c-4,13.85-.72,26.72,5.73,38.89a66.34,66.34,0,0,0,10.35,13.76c7.45,8,13.41,17.14,20.62,25.27,8.59,9.7,16.35,20,22.39,31.4,5,9.52,8.88,19.69,13,29.67,3.7,8.9,3.75,18.54,6.74,27.48,3.82,11.43,9,22.11,19.81,28.9,12.74,8,26.83,9.9,41.44,9.07,4.38-.25,8.44-2.31,12.23-4.58a2.93,2.93,0,0,0,1.68-2.21c1-11.6,8.48-20.64,12.34-31.11,1.41-3.83,2.57-7.81,4.46-11.4,5.4-10.26,10.08-20.75,12.51-32.16.31-1.48.92-2.69-.43-4.14-1.59-1.7.2-3.32.85-4.83,1.08-2.52,3.58-5.52,2.39-7.61-2.6-4.58.87-7.72,1.5-11.46.67-4,.79-8.08,3.11-11.79,1.45-2.32,1.17-5.09-2.52-5.88a10.2,10.2,0,0,1-2.63-1.1c-1.6-.87-3.24-2.46-4.09.78-.31,1.18-1.59.87-2.44,1.2-9.78,3.85-17.88-.06-25.76-5.45-7.54-5.17-11.05-12.61-11.32-21.31-.26-8.17.31-16.29,3.11-24.3,3.39-9.73,10.44-16.67,16.7-24.21,5.47-6.6,12.18-11.91,20.42-14.72,4.94-1.68,9.95-3,14.58-5.58,2.62-1.46,5.67-.47,8.46.31,2.12.59,3.16.5,5.2-1.46,4.79-4.6,10.17-8.92,16.34-11.68,5.23-2.34,10.45-4.48,14.69-8.5a18.53,18.53,0,0,1,6.78-3.77c1.07-.38,2.72-.4,2.5-2.15-.19-1.47-1.63-1.78-2.78-2.12a11,11,0,0,0-2.87-.26c-6.58-.13-13-1.91-19.61-1.86,8.6-.59,17.24-1.52,25.52,2,1.1.47,1.93,1.15,2.8,0a2.17,2.17,0,0,0-.3-3,15.36,15.36,0,0,0-7-4.89c-2.88-.91-5.86-1.52-8.72-2.46s-5.48.53-8.2.28c7.82-3.8,14.78-.77,21.33,3.18s6.32,4.16,10.56-2.32c2.09-3.19,5.4-4.09,8.54-2.12s2.33,4.5.81,7.14c-2.48,4.3-.5,8.67.57,12.72.56,2.11,4.12,1.34,6.85,1.58-2.07,1.26-4.8-.16-5.73,2.54-.73,2.15.06,4.1.6,6.06a73,73,0,0,1,.7,36.17,34.29,34.29,0,0,1-14.56,21c-2,1.36-3.23,2.39-1.52,4.84.66.95.61,2.38,1,3.56,1.38,4.62,2.69,8.62,7.32,12a48.15,48.15,0,0,1,15.28,19c1.67,3.6,3.49,6.84,7.27,9,2.45,1.41,3.38,4.8,5.52,7,3.35,3.39,10.86,2.48,13.23-1.81.26-.48.32-1.32.68-1.46,5.93-2.25,4-7.47,4.07-11.57.24-13.08-.45-26.19.12-39.25.93-21.56,2.53-43.08,5.24-64.53,2.77-22,7.17-43.62,10.75-65.43,3.1-18.94,5.34-38,8.83-57,4.6-25,11.75-49.25,19.93-73.27,7.78-22.87,17.42-45,26.53-67.32,9.22-22.56,19.56-44.64,29.71-66.8,7.63-16.68,15.4-33.29,23.13-49.93a8.61,8.61,0,0,1,2.14-2.94c-2.88,8.67-7.8,16.49-10.1,25.51,1.19-2,2.51-3.85,3.55-5.89Q574,268.34,582.14,252a71.6,71.6,0,0,1,7.51-11.79c7.36-9.53,13.66-19.93,22.78-28.05.65-.58,2.53-1.3,1.51-2.41-1.33-1.47-2.08.59-2.77,1.29a47,47,0,0,0-3.72,4.67l-1.33-1.28q4.54-5,9.08-10c-5,1.42-7.4,5.79-11.09,9.19-.5-2,.77-2.61,1.65-3.57,2.59-2.82,6.77-5.26,2.52-10-1.29,1.59-.39,5.36-4.61,5.08-.92-.06-2.19,4.34-3.2,6.73-4.28,10.1-9.66,19.62-15.13,29.1-1.16,2-2.17,4.1-3.81,7.2.71-4.61,3.44-7.26,3.57-10.87-6.69,8.68-11.27,18.68-18,27.36,3.61-6.38,7.41-12.66,10.77-19.16,5-9.62,12.48-17.57,17.5-27.14a99.13,99.13,0,0,0,9.29-28c1.47-7.77,1.39-15.78,4-23.4a31.63,31.63,0,0,1,4.9-9.21c-5.22.69-7.76,4.18-10.36,6.7C591.24,176,577.83,186,566.33,198c-2.61,2.73-4.81,5.87-8.36,7.8-1.66.91-3.81,3.18-1.92,5.87.86,1.2.17,1.69-.59,2.33-10.83,9.08-21.89,17.9-31.84,28-.51.51-1.08,1.36-2,.5-.59-.52-1.8-.51-1.66.12,1.24,5.42-4.31,3-6,5.2-1.86,2.42-4.81,4.14-8.38,3.1-.33-.1-.78.18-1.18.29C499,252.6,498,252,499.69,247c2-6,2.83-12.2,3.89-18.38,1.43-8.29,6.87-14.89,10-22.5,5.52-13.49,14-25.1,23.28-36.22a5.61,5.61,0,0,1,2.82-2.27,4.93,4.93,0,0,1-1.55,2.74c-9.8,11.75-18.81,24-24.15,38.55-2.12,5.77-6.44,10.55-8.22,16.56-.9,3-1.74,6.07-1.31,9.31.46,3.45-1.34,6.37-2.42,9.46-.56,1.59-1.21,3.56.13,4.66s2.93-.3,4.35-1.15c6.19-3.73,11.24-8.81,16.59-13.54.92-.81,1.65-1.9,3.07-1.88.12,1.6-2.44,1.9-1.88,3.78,5.11-2.08,21.93-15.7,23.54-22.55l-21,18a13.76,13.76,0,0,1,3.57-5.92c13.46-12.55,25.71-26.39,40.1-37.94q7.88-6.33,15.47-13c2.65-2.32,4.14-5.53,6.87-7.61,6.76-5.15,13.64-10.16,20.44-15.27,4.16-3.13,8.25-6.37,12.42-9.49,3.57-2.66,5.47-1.82,5.94,2.78a119.23,119.23,0,0,1-.19,21.87c-.32,4-.36,8-.51,12A559.78,559.78,0,0,1,622.11,259c-2.69,14.57-5.56,29.1-8.29,43.66a24.72,24.72,0,0,0-.39,4.93c0,1.81-1.91,4.33.07,5.21,1.73.77,3.68-1.52,5-2.94a88.45,88.45,0,0,0,17.38-25.7,342.12,342.12,0,0,0,22.19-72.75c3.31-17.6,3.41-35.51,2.85-53.39a18,18,0,0,0-1-4c-.75-2.74-1.83-4.42-5.38-3.7s-3.95,2.36-3.87,5.39a168.72,168.72,0,0,1-.7,21.9c-.64-8.36-1-16.72,0-25,.33-2.72-.54-5.49.69-8.16.48-1-.6-1.3-1.47-1.36-1.51-.12-3-.24-4.53-.34-4.36-.3-5.5-2.54-3.26-7.28-.73,5,2.93,5.14,5.7,5.77s5.3.61,5.53,4.47c.11,2,2.17,1.78,3.65,1.35,1.23-.36,2.91-.63,1.83-2.71-1.19-2.28.14-4.93-1.86-8.32,3,2.13,5.24,2.29,7.48,1.23.16,1.15-.47,1.47-1,1.87-1.07.81-3.57.77-2.5,2.91.87,1.73,2.85,1.76,4.76,1.35,1-.2,2-1.73,2.88-.57s-.72,1.77-1.3,2.57c-1.22,1.68-.63,3,1.22,2.6,3.77-.83,4.08,1.48,4.42,4.07-4.05,1.3-5.94-1.07-7.15-4.33-.5-1.34-1-2.21-2.61-1.74s-1.56,1.56-1.32,2.91c2.2,12.64,2.07,25.48,1.31,38.12a224.4,224.4,0,0,1-8.27,48.67c-1.89,6.57-3.15,13.5-5.46,19.78-3.26,8.82-6.18,17.84-10.14,26.46-4.31,9.42-8.95,18.55-15.72,26.42a57.59,57.59,0,0,1-7.4,7.08c-1,.81-2.6,1.72-4.18.55-1.42-1-1.07-2.53-.73-3.77,3.56-13,4.49-26.5,7.52-39.62a431.05,431.05,0,0,0,7.31-44.23A184.69,184.69,0,0,0,627,204.09c-3.94,2.57-7.43,4.89-9.9,8.27C613,218,606,220.87,603.05,227.57c-5.69,13-14.6,24.11-21,36.67-1.83,3.6-5.33,6.46-6.17,10.51-1.4,6.71-4.06,12.78-7.1,18.9-3.71,7.5-7.9,14.73-11.76,22.13S549.6,331,545.81,338.59c-5.68,11.33-9,23.73-16,34.47-1.58,2.42-.59,5.55-1.61,8.35-5.13,14.08-11.63,27.56-17.47,41.33-2.94,6.93-8.36,13-8,21.22-6.55,11.05-7.58,24-12.19,35.72s-6.26,24.41-9.17,36.67c-4.17,17.56-6.31,35.43-8.33,53.31-.73,6.46-.92,13.05-2,19.38-.87,5.15-2.73,10.25-3.36,15.55a100.06,100.06,0,0,0-.74,13.79c2.49-1.91,3.32-4.61,3.67-7.31a118.66,118.66,0,0,1,8.4-32c5.1-11.8,11.9-22.56,18.86-33.21,10.39-15.9,21.81-31,35.37-44.46a6.28,6.28,0,0,1,2.46-1.57c-10.39,11.56-20.82,23-29.25,36.18s-18,25.45-22.92,40.84a3.2,3.2,0,0,0,3.55-1.86c3.59-5.84,6.62-12,9.72-18.07,2.33-4.58,5-9.34,10-12.15,3.78-2.14,5.63-6.3,8.36-9.53,12.49-14.84,24-30.44,36.78-45.09a249,249,0,0,1,62.18-51.81c2.92-1.72,5.49-4.1,8.87-5,1.08-.3,1.06-1.17.87-2-1.41-6.25,2.52-10,6.76-13,6.94-5,13.75-10.75,21.52-14,6.56-2.73,8.81-7.17,11.35-12.81a135.75,135.75,0,0,1,15-25.39c.82-1.1,1.19-2.91,3.14-2.82Zm-242,442.67c.57-2.18-2.31-3.73-.34-5s2,1.6,3.09,2.37,2.18.57,2.59-.73c.32-1,.62-1.79,1.78-1.92,1.39-.16,1.82-1.13,1.79-2.33,0-1.36-1-1.76-2.17-2.06-1.64-.42-3.21-1.57-1.67-3.11,2.33-2.35-.42-2.25-1.1-2.44a20.62,20.62,0,0,1-9.15-5.34c-6.73-7-13.31-14.09-17.65-23-3.16-6.49-7.6-12.29-11.47-18.39-4-6.33-9.68-10.47-15.45-14.35-4.58-3.09-5.94-5.95-6.67-11.56-.82-6.34,3.22-7.32,6.07-10.1.88-.85,2.09-1.39,2.9-2.29,12.09-13.43,17.49-28.77,13.11-46.83-.55-2.28-.69-5.26-4.37-2.48-1,.72-2.87,1-3.61-.64s1-1.8,2-2.39c3.06-1.75,3.37-4.93.74-7.26-.49-.44-1.52-1-.76-1.38,3.92-2.27,1.15-5.83,1.83-8.69.53-2.26-1.52-2.67-3-3.26s-2.56.35-3.35,1.63a22.25,22.25,0,0,1-5.75,6.4c-5.86,4.29-11.69,8.62-17.55,12.9-2.17,1.59-2.18,1.53-4.54.47a1.36,1.36,0,0,0-1.1.26c-5.94,4-11.83,8-17.79,11.9-2.4,1.57-3,3.42-1.54,5.91,1,1.75,1.23,3.66-.88,4.5s-1.9-1.57-2.61-2.62c-2.44-3.62-3.79-8.54-9.85-7.52A17,17,0,0,0,325.8,670c-5.84,4.31-10.24,10-14.38,15.78-9.11,12.79-9.1,27.56-8.18,42.29.59,9.26,6.6,16.23,11.76,23.36,2.11,2.92,5.37,4.56,9.43,5.24a110.54,110.54,0,0,1-5.18-15.77,28,28,0,0,1-.2-13.46A54.13,54.13,0,0,1,334,700.07c4.14-4.11,8.33-7.88,14.6-8.21,1.56-.08,3.35-.71,3.51,1.46.12,1.72-1.55,1.86-3,1.93a14.09,14.09,0,0,0-8.4,2.81c-7.5,5.81-12.55,13.36-16.16,21.93-4.73,11.22-3.46,22.31,1.48,33.14,1.17,2.55,3,5,6.2,4.37,2.73-.5,5.51-.9,8.17-1.45,12.2-2.5,19.5-11.76,20.25-24.5,0-.52.1-1.11,1.1-.8-.7,3,.67,5.87-.21,9.07-3.85,14-13.44,21.26-27,24.23-2.67.58-4.52,1.46-5.09,4.69a111.31,111.31,0,0,1-4,15.57c-1.61,4.86-.47,10.22-3.84,14.85-3.13,4.29-1,10.25-3.22,15.1-1.14,2.45-1.56,5.08,1.85,6.29.76.26.77.39.46,1-2,4.14-4,8.3-6,12.47-2-1.13-.89-2.94-2.06-5.35-9.09,14.71-12.48,30.69-18.41,45.67,2.33-2.07,5.52-2.88,6.81-5.87a2.14,2.14,0,0,1,2.86-.88,2.63,2.63,0,0,1,.21,3.43c-2.74,2.87-1,5,.82,7.16,1.11,1.33,1.85,2.92.26,3.81-1.27.72-2.78-.17-3.33-2-.4-1.34-1.14-3.54-2.63-3-2,.74-.21,2.89-.36,4.41,0,.3.41.66.65,1,.79,1.09,0,1.82-.65,2.49-1.07,1.12-1.66-.1-2.34-.6-1-.72-1-2.25-2.56-2.8-1.27,1.57-.69,2.93.25,4.41.68,1.06,1.13,2.46-.15,3.34-1.58,1.09-2.13-.59-2.78-1.49-1-1.41-3.25-3.06-3.82-2.56-1.58,1.37-1.57,3.61-.28,5.55.22.34.37.74.59,1.08.82,1.22.93,2.35-.64,3s-2.26-.49-2.63-1.75a15.69,15.69,0,0,1-.73-3.63c-.07-2-.49-2.79-2.68-1.77-2.4,1.13-5.11,1.68-3.76,5.45a1.91,1.91,0,0,1-1.86,2.62c-1.41,0-1.59-1.14-1.78-2.32-.22-1.33.48-3.32-1.85-3.52s-2.08,1.71-2.49,3.09a2.17,2.17,0,0,1-2.39,1.82c-1.27-.1-1.37-1-1.51-2.07s.75-2.41-.72-2.89c-1.72-.57-1.81,1.26-2.54,2.12-1.3,1.51-2.76,2.14-3.89.05-.61-1.12.37-3-2.2-3-2.14,0-2.83,1-3.35,2.82a2.24,2.24,0,0,1-3.29,1.4,1.72,1.72,0,0,1-.64-3c1.7-1.8,0-1.84-1.05-2.34-2-1-3-.09-3.95,1.63a2,2,0,0,1-2.46,1,1.56,1.56,0,0,1-1-1.66c.46-5.09-2.49-5.24-6.19-4.33-1.34.33-2.43-.23-2.36-1.5.18-3.55-2.17-3.09-4.24-2.8-2.6.36-4.77.93-3.59-3.21.41-1.44-.21-3.67-3-3.4-2.46.23-3.92-.67-2.9-3.66.79-2.31,1.22-4.78-2.83-3.29a2.67,2.67,0,0,1-3-.83c-.61-.69-.22-1.17.23-1.76,2.53-3.35,2.07-4.71-2-5.58-2.11-.46-2.89-1.89-1.2-3,3.39-2.18,1-3.53-.33-5-.52-.57-1.92-1.17-1.65-1.6,1.81-2.86.11-5.62,0-8.39-.2-4,.26-8.31-2.87-12.76-.58,12.93,0,24.77,4.16,36.16a26.44,26.44,0,0,0,4.67,8.66c9.06,10.31,19.66,18.14,32.92,22.41,20.86,6.7,40.71,7.62,58.28-8.27a3.68,3.68,0,0,1,1.41-.83c1.09-.28,2.32-.42,3,.67.82,1.29-.16,2-1.22,2.5-3,1.56-4.26,5.08-7.38,6.48-.78.35-1.07,1.23-.65,1.69,2.93,3.19,2.79,7.9,5.84,11.1,3.86,4,7,8.68,11.29,12.44a33.32,33.32,0,0,1,9,12.05c1.63,3.83,3.47,8,8,10,5.16,2.38,10.46,1.61,15.12.08,9.58-3.15,19.52-.66,29-3,6.85,4.19,10-3.06,14.89-4.86a1.12,1.12,0,0,0,.68-1.66,1.78,1.78,0,0,0-1.37-.58c-1.09,0-2.17.3-3.25.41-6.61.63-13.17.79-19.48-1.83-1.53-.63-3-1.28-1.28-3.17a73.88,73.88,0,0,0,11.69-16.56c5.72-11,8.84-22.86,6.74-35.26-2.35-13.91-11.07-22.53-24.61-26.3-.87-.24-2.16.1-1.84-1.45a2.26,2.26,0,0,1,2.11-1.72c1.12-.14,2.08.49,3.1.9,1.64.64,3.77,1.9,5,1.36,4.38-1.93,6.63,1.07,8.68,3.54,1.71,2.06,2.54,2.24,3.84.05a116.82,116.82,0,0,0,7.74-15.31c2.34-5.72,1.77-11.83,2.91-17.71,1.59-8.2,2.19-16.44.5-24.86a76.06,76.06,0,0,1-1.12-23.24c.14-1.26,0-2.32-1.18-2.76-5.7-2.15-7.27-7.86-10.55-12.09-.69-.89-2.07-2-.6-3.12,1.18-.89,2.32,0,3.11,1.09a25.58,25.58,0,0,0,8.26,7.29,5.39,5.39,0,0,1,1.45,1.7c-2.9,2.8.76,2.95,1.7,3.62,1.76,1.24,3.95,1.33,6.17,1.55,2.81.28,7.54-1.83,7.72,4.18,0,1.16,2.11,2.06,3.62,2.06,1,0,1.79-.14,2.55.73,6,6.88,13.49,12.41,17.65,20.94A27.36,27.36,0,0,0,439.56,805.85Zm83.49-425.64c-.88,3.67-5,4.91-5.93,8s-2.41,5.6-3.54,8.42C507,413.09,500.16,429.42,494,446a441.88,441.88,0,0,0-15.06,47.82c-6.48,26.1-10.85,52.58-14.38,79.25-3.25,24.62-8.6,48.91-11.71,73.58a644.61,644.61,0,0,0-5.32,72c-.17,12.78.43,25.57.72,38.35,0,1.13-.48,3,1.28,2.94,2.13-.06,1.23-2.09,1.24-3.25.13-11.16.24-22.31.2-33.46-.08-21.56,4.48-42.86,3.21-64.52-.55-9.24,3.89-17.85,5.46-26.88,0-.25.49-.44,1.35-1.15-.8,5.45-1.5,10.24-2.19,15,.84.12,1.32-.26,1.45-.77,2.14-8,3.85-16,6.85-23.7.24-.63.42-1.52-.41-1.75a1.47,1.47,0,0,0-1.89,1.14,1.67,1.67,0,0,1-2.15,1.39c-1.49-.38-1.18-1.74-1.05-2.75.66-5.3,1-10.68,2.22-15.87a514.51,514.51,0,0,0,9.15-56c1.65-14.74,5.09-29.24,6-44.05.34-5.27,4.14-8.79,5.55-13.45,2.76-9.18,5.35-18.42,8.48-27.47,6.34-18.33,12-36.92,19.56-54.8,1.46-3.43,1.51-7.17,2.8-11.12,2.06,3,4,2.81,4.61-.17C521,391.05,521.26,385.61,523.05,380.21ZM295.1,732.41c-1.7,1.92-1.78,4.84-4.16,3.54-1.63-.89-.15-2.68-.16-4.06,0-2.35,2.57-4.71.58-6.82-1.68-1.78-1-3-.33-4.7.83-2,3.28-3.42,2.58-6.13-1.16.14-1.39,1-1.69,1.72-.54,1.36-.82,3.41-2.88,2.5-1.89-.84-1.23-2.55-.73-4.26.85-2.89,1.77-5.75,2.61-8.61,1.62-5.47,3-10.93,6.56-15.55.36-.48,1.28-1.26,0-2.21-2.55,2.23-4.09,5.34-6.36,7.79-8.78,9.47-11.77,20.83-11.59,33.36.12,8.43,2.15,16,8.94,21.69,5.64,4.7,11.67,8.35,19.47,6.86,1.08-.21,3.4-.66,2.75-1.58-1.76-2.53-.55-6.27-3.4-8.22-2.41,1.81-.27,4.25-1,6.69-2-2.46-.16-5.64-2.67-7.85-.06,1.21-.11,2-.15,2.81-.05,1.38,1.07,3.35-1,3.85s-2.2-1.28-2.64-2.86c-.33-1.21-1.53-3-3-2.09-2.87,1.8-2.56-.22-2.51-1.8C294.52,742.15,294.81,737.82,295.1,732.41Zm262.41-245a6.89,6.89,0,0,0,6.44-2.17c6.9-6.88,13.43-14.39,21.28-20,11.08-8,21.27-17.3,33.56-23.59,1.81-.92,3.16-2.06,4.88.05.68.83,2.55,1.27,2.16-.39-.47-2,.18-4.55-1.22-5.83s-3,1.33-4.83,1.35c-.36,0-.7.4-1.06.6-20,11.49-38.61,24.74-54.41,41.66C561.94,481.6,559.09,483.86,557.51,487.39Zm164.17-78.71c-11.87.57-23.21,3.81-34.46,7.22-4.13,1.25-8.42,2.39-12.12,4.89-.82.56-1.89.93-1.48,2.06.34.95,1.39.52,2.17.43,3.93-.45,7.85-1.09,11.79-1.35a77.33,77.33,0,0,0,34.55-10.57c.79-.46,2-.58,1.6-1.94C723.41,408.36,722.47,408.57,721.68,408.68ZM622.77,165.29c.14-2.65.41-3.92,2.1-4.73s1.48-2.37.55-3.52c-1.1-1.36-2.41-.25-3.15.56a20.49,20.49,0,0,0-4.58,7.23c-2.19,6.28-3.2,12.85-4.7,19.29-.38,1.62-2.09,3.31-.68,5.43,4-4,3.26-11.07,9.84-13.89l-1.91,7.64c6.76-5.45,8-10.53,5.57-21.1,0-.14-.46-.19-.87-.35C624.4,162.72,623.84,163.6,622.77,165.29Zm97.73,229c-17.62,8.47-35.58,14.53-50.94,25.79,17-5.24,32.74-13,48.42-21C719.36,398.44,720.47,397.44,720.5,394.32Zm-32.66,1.52c6.44-2.34,12.21-5.88,18-9.39a34.38,34.38,0,0,0,8.47-6.92c1-1.22,1.77-2.79.78-4.1-.87-1.14-2.3-.22-3.31.4-1.63,1-3.6,1.22-5.08,2.6C700.46,384.28,694.13,390.05,687.84,395.84Zm-161.7-23.75c2.68-2.22,5.3-4.4,5.56-8.11.18-2.67,1.38-5,2.52-7.34,2.6-5.44,5-11,7.56-16.43.79-1.69,1.19-3.27-.76-5A255.54,255.54,0,0,0,526.14,372.09Zm202.57,37c-4.64,3.61-9.7,5.9-14.86,8-.58.24-1.34.6-1.14,1.46.07.28.61.72.82.67,5.05-1.36,10.42,0,15.42-1.73a4.47,4.47,0,0,0,2.74-3.39c.47-1.95-1.22-1.45-2.36-1.78C727.61,411.79,729.63,410.52,728.71,409.05Zm-165-116.22c-7.33,11.77-14.81,23.48-19.4,36.7C549.74,316.73,559.83,306.44,563.74,292.83ZM435,772.41c-2.3-.13-3.84,0-4.5,1.36s.51,2.51,1.45,3.52a22.5,22.5,0,0,1,2.66,3.12c1,1.53,1.93.86,3.12.41s1.78-1.18,1.09-2.45c-1.66-3.08.85-2.75,2.46-2.85a10.77,10.77,0,0,1,3.21.61c1,.26,1.17-.37,1.23-1.08s-.05-1.81-.74-1.6A12.62,12.62,0,0,1,435,772.41ZM627.55,178.74l-1.09-.18a88,88,0,0,0-4.63,16c-.17.88.17,3.11,1.19,1.83,1.48-1.85,4.24-3,4.44-5.57C627.78,186.84,627.55,182.78,627.55,178.74ZM410.15,783.56c.91-1.3,4.43.42,2.87-2.58-1.19-2.3-3.68-4-5.79-5.71a3.18,3.18,0,0,0-3.5-.38c-1.44.88-1,2.66-.67,3.76C404.1,782,407.55,782,410.15,783.56ZM317.59,945.74l13.55.91C327.11,941.85,326.24,941.78,317.59,945.74Zm2.78,4.89,0,1.11h24.15C336.48,951.39,328.43,949.8,320.37,950.63ZM477.76,594l6.36-13.14c.34-.72.94-1.57-.17-2a1.4,1.4,0,0,0-1.68.9C480.52,584.4,477.89,588.76,477.76,594ZM617.6,189.58c-2.24,4.62-4.66,7.91-5.06,12.17C614.88,198.42,619,196,617.6,189.58ZM629,153.64l1.15-.08c0-1.84,0-3.68,0-5.52a1.28,1.28,0,0,0-1.35-1.25c-.93,0-1,.83-.92,1.49C628.12,150.08,628.56,151.86,629,153.64ZM453.77,773.46c.13-1.09-.59-1.38-1.24-1.28-1.38.22-3.2-.08-3.5,2-.1.72-.31,1.94.87,1.85C451.61,775.88,452.76,774.63,453.77,773.46Z" transform="translate(-127.98 -13)"/><path d="M757.17,287.18c2.05-.91,2.09.74,2.69,2,4.71,9.48,9.53,18.91,17.58,26.17,1.71,1.54,3.21,3.12,5.94,2.68,2.94-.49,3.68-2.59,4.19-4.9,1.59-7.34-.49-14.41-1.71-21.55-1.18-6.84-5-12.68-7.1-19.19-4.26-13.44-8.25-27-12.6-40.37-4.2-12.92-10.09-25.18-15.52-37.61-3.82-8.75-10.93-15.65-14.2-24.46-3.5-9.45-10.91-15.32-17.31-22.15a4.74,4.74,0,0,0-6.64-.26c-2.15,2-4.56,2.58-7,.6-2-1.66-3-.56-4.31,1-2.42,2.79-5.17,4.75-9.12,2.43-1.35-.8-1.92-1.68-1.84-3.74,2.42,2.34,4.72,3.9,7.67,1.78,1.63-1.17,3.08-2.33,2.72-4.65-.11-.73-.63-1.7.53-2.08.9-.29,1.51.35,2.16.88,1.18,1,2.44,1.79,3.63,2.72s2.39.83,3.2-.36c.55-.8.18-2.21,1.87-2.14,2.61.11,5.27-.21,7.82.18,1,.15.39,2.17,1.57,3.24,4.25,3.84,8.14,8.08,12.32,12a33.76,33.76,0,0,1,6.49,8c3.47,6.14,9.52,9.84,14,15,7.65,8.8,15.87,17.12,23.78,25.7,8.49,9.23,16.31,19,24.42,28.6,5.09,6,9.71,12.58,16.37,17.17,2,1.38,3.58,3.35,5.49,4.88,2.63,2.11,5.86,3.33,8.68,1.16,3-2.29,4.67-5.44,3.63-9.79-1.73-7.23-6.12-13.17-8.9-19.88-5.5-13.25-14.47-24.5-21.54-36.86-4.6-8-10.4-15.45-16.11-22.8a188.71,188.71,0,0,0-37.63-36.34c-4.92-3.62-8.9-8.54-13.24-12.94-1-1-1.87-2-3.3-2.33-1.94-.38-3.84-.2-4.51-3.1-.39-1.73-3.08-1.89-5.06-2.12.69-.11,1.48-.49,2-.28,6.05,2.28,11.82-1,17.63-.83,15.53.4,31.09.28,46.16,5.87,10.46,3.88,21.71,5.55,31.82,10.69a143.59,143.59,0,0,1,15.43,9.43c6.87,4.66,15.13,6.17,22.58,9.51,1.5.68,3.11,1.08,4.2,2.45.92,1.16,2.44,1.92,3.57,1.35,1.55-.78.56-2.6.19-3.72-3.86-11.67-10.61-21.09-21.4-27.47-20-11.82-41.93-16.86-64.62-20.12C773.9,99.1,763.88,97.4,753.75,97c-6.8-.23-13.65.79-20.48,1.19-.87,0-1.84.57-2.94-.38,4-4.44,9.31-6.56,14.67-8.63-1.44,1-2.91,1.89-4.31,2.92-.71.52-2,1-1.43,2.13s1.91.91,2.9.37c2.15-1.19,4.3-2.39,6.33-3.77a61.59,61.59,0,0,1,39.7-10.56,55.12,55.12,0,0,1,10,2.08,26.83,26.83,0,0,0,8.94,1.17,5.34,5.34,0,0,1,4.44,1.59c2.68,2.53,3.9,2.06,4.62-1.73.29-1.55.44-3,2-3.83,3.78-1.92,2.17-3.93-.06-5.57a50.19,50.19,0,0,0-26.16-9.79C775.52,62.84,761.37,69,747.3,76c-4.84,2.42-9.88,4.58-14.61,7.11a31.27,31.27,0,0,0-10.35,9.2c-.71,1-1.3,2.64-2.59,1.91-2.9-1.66-3.63.22-4.46,2.23-.36.86-.43,2.11-1.74,1.88-.94-.17-1-1.36-1-2-.23-3-1.37-4.36-4.49-3.14-1.51.59-2.36-.7-3.08-1.54-1.1-1.26.41-1.86,1.13-2.54,1.67-1.59,3.39-3.14,5.39-5,.39,2-3,3.72,0,5.08,2.42,1.08,4.31,5.25,7.67.85,8.79-11.51,23-14,34.81-20.5,3-1.65,6.09-3,10.1-5-9.24-2.44-15.88-9-24.88-10.32-7-1-13.61.57-19.77,3.86-8.57,4.58-17,9.36-25.55,14.06a6.28,6.28,0,0,0-1.68,1.18c-1.53,1.79-5.39,3.17-4.39,5.11,1.24,2.43,4.48,4.13,7.78,4.38,3.52.26,7.31,5,6.42,8.2-.29,1-1.34,1.35-2.25,1.56s-1.9-.06-1.62-1.17c1.62-6.29-4-5.83-7-6.8-2.65-.85-3.84-3.27-6.26-4,1-1.21-2.69-1.25-.06-4.11,8.25-9,20-11.69,29.29-18.43,5.53-4,12.54-4.33,18.1-8.06,4.93,2.43,10.85,1.44,15.58,4.76a53.84,53.84,0,0,0,11.92,6.4c6.25,2.37,12.64,1.62,18.94.64a56.22,56.22,0,0,1,23.65,1.47c3.3.89,6.46,2.12,9.68,3.09,4.59,1.37,6.86,5.36,10.55,7.67,2,1.24,1,8.61-1.22,10.13s-3.48,3.23-3.54,6-1.72,3.58-4.25,2.51a29.22,29.22,0,0,1-4.09-1.89c-13.28-8.24-27.87-5.55-42.12-4.87-5.45.27-9.68,4.18-14.89,7.37,3.77,1.75,7.28,1.39,10.48,1.65a282.19,282.19,0,0,1,73,16.2c17.16,6.21,30.43,17.69,37.07,35.42,1.23,3.28,2.22,6.9-.66,10-1.32,1.43,1.11,2,.63,3.23-3.09-.68-6.22-.27-9.35-.87-7.2-1.39-11.67-6.86-16.75-11.14a58.46,58.46,0,0,0-15.34-9.36,85.49,85.49,0,0,1-10.2-5c-12.87-7.55-27.17-10.71-41.34-14.49-5.68-1.51-11.65-2.48-17-1.61a25.47,25.47,0,0,1-11.41-1.15,21,21,0,0,0-10.7-.6c-1.08.24-2.47.4-2.79,1.47-.36,1.22,1.19,1.66,1.84,2.49,7.75,10,19.29,15.64,28.09,24.42,2.6,2.6,5.56,4.82,7.72,7.93,1.56,2.24,4.15,3,6.85,4,10.55,3.73,20.85,8.15,31.24,12.32,4.41,1.77,7.93,5,11.5,7.86,7.37,5.9,15.58,10.76,22.2,17.6,1.07,1.11,2.15,2.31,3.86,1.51a4.12,4.12,0,0,0,2.42-4c.08-2.28.57-4.55,1-7.45a3.75,3.75,0,0,1,.89,4c-.27.9-.76,2-.45,2.77,2.21,5.22-2.34,7.72-4.52,11-1.31,2-3.12.95-4.14-1-6.07-11.48-16.37-17.55-27.92-22.23-7.61-3.08-15-6.67-22.51-10-1.36-.6-2.69-1.39-4.63-1,.48,2,1.78,3.36,2.83,4.83,14.85,20.74,28.74,42.07,39.78,65.11,1.92,4,4.18,7.92,5.08,12.5s-.18,8.32-3.57,11c-3.75,3-8.28,3.25-12.82,1.67a23.38,23.38,0,0,1-3.32-1.66c-1.54-.83-1.55-.87-.46-2.54.53-.83-.08-1.39-.55-1.71a65.28,65.28,0,0,1-8.85-7.95c-1,1.83,1,2.65.58,4.49-8-8.9-16.1-17.28-23.22-26.55a22.94,22.94,0,0,1-2.11-4.44c1.32,1.47,2.6,3,4.73,3.48-3.35-5.84-8.24-10.31-12.85-15.06.24,3.34,3.68,4.87,4.19,8-2.09-.5-3-2.34-4.15-3.81-6.6-8.26-15.24-14.28-23.73-20.82,2.29,5.57,4.41,11.23,6.92,16.7,3.63,7.94,6.34,16.2,9.18,24.42,5.5,15.91,8.85,32.49,15.75,48a59.6,59.6,0,0,1,4.77,27.77,19.13,19.13,0,0,1-.77,4.44c-1.64,5.45-6.38,6.8-10.74,3.13-6.73-5.66-11.55-12.76-15.5-20.53l-5.37-10.59ZM869,156.61c-5.37-4-10.71-8.15-18.09-9.15A26.76,26.76,0,0,0,869,156.61ZM745.71,177.75l-1,.87,12.67,15,.95-.8C754.19,187.74,751.1,181.77,745.71,177.75Z" transform="translate(-127.98 -13)"/><path d="M617.37,71.37c-12.75-10.31-26.85-15.6-41.28-20.09-7.52-2.34-15.52-4.73-23.16-4.21-12.44.86-25-.41-37.29,1.76-5.67,1-10.86,3.9-16,6.47-5.46,2.71-11.46,2.54-17.12,4.06-8.71,2.33-17.76,3.46-26,7.35a19.41,19.41,0,0,0-4.43,3c-4.07,3.58-3.31,7.42,1.88,9s10.29,2.78,15.49,4c1.93.44,3.74-.63,5.49-1.38,7.56-3.27,15.47-4.14,23.61-3.69.53,0,1.37.29,1.57,0,4.08-5.09,9.87-3.8,15.2-4.08,6.3-.34,12.6-.69,18.9-.71,19.94,0,39.77,1.06,59.25,5.76,2.51.6,4.18,1.74,4.66,5.72-5.87-5.39-12.47-6.82-19-7.23C561.75,76,544.47,73.86,527,77.4c-14.21,2.88-28.74,4.27-42.66,8.52-12.09,3.69-25,3.3-36.94,7.37-5,1.7-10.45,2-15.1,5.11-4.93,3.27-7.26,8.29-5.48,13.79.3.93.4,2.92,2.3,1.73,1.12-.71,1.22.22,1.26.67.46,4.6,2.71,2.45,4.59,1.19,11.79-7.89,24.87-12.33,38.79-14.41,8.27-1.24,16.16-4.19,24.34-5.53,9.83-1.61,19.65-3.3,29.51-4.64,4.31-.58,8.84.59,13.17.09,13.92-1.61,27.51.24,41.2,2.46,5,.81,9.53,3.55,14.72,3.27,1.93-.11,2.32,1.11,2.12,2.67-.14,1.19-.41,2.37.48,3.68-17.06.36-33.44,3.85-49.76,8-.36-2.15,1.12-1.8,2-2,10.71-2.81,21.37-6,32.49-6.47,2.72-.11,2.16-2.29,3.53-3-.64-1.19-1.79-1.37-3-1.67C570,94.31,555,94.36,540,95.28c-8.63.52-17.31.43-25.86,2.09-10.62,2.06-21.41,3-31.9,6.2-5.65,1.73-11.79,2.35-17.51,4.33A166.3,166.3,0,0,0,433,123c-1.16.7-2.38,1.29-4.86,2.63,2.29-2.66,1.71-3.78.13-5.08-7.61-6.28-6.44-18.87,1.8-24.32,6.54-4.34,14.13-4.87,21.32-6.85,4.21-1.16,8.4-2.49,13.2-2.52-1-2.32-2.64-2.86-4.55-3.2a36.18,36.18,0,0,1-9.81-3c-5.24-2.59-5.58-8-1.59-12.51,5.25-5.87,12.6-6.34,19.22-8.44,7.13-2.26,14.71-3,22-4.6,6.88-1.45,13.38-4.74,20-7.24.26-.09.68-.29.67-.43-.31-5.53,5.18-8.81,5.51-14,.37-5.95,3-7.67,8.49-5.51a7.68,7.68,0,0,0,5.55.53,45.72,45.72,0,0,1,24.21-1.25c7.07,1.49,14.39,1.76,21.53,3s13.68,4,20.4,6.34c.75.26,1.44.85,2.33.45-2.46-4.31-4.66-5.68-7.09-4.45a1.71,1.71,0,0,1,1.12-2.31,10,10,0,0,0,5.57-7.34c1.15-5.74,4.7-8.07,10.05-8.26,8.3-.29,16.56-2.58,24.89-.5,2,.49,4.26.62,5.83,1.72,3.55,2.5,6.83,1.17,9.94-.29a24.35,24.35,0,0,1,20-.74,10.27,10.27,0,0,1,6.34,10.4,216.38,216.38,0,0,1-3.26,24c-.65,3.39-2.16,6.62-1.2,10.31.39,1.52-1.37,3-2.5,4.08-1.75,1.65-1.94,3.89-2.83,5.84-1,2.23.85,3.64,2.18,4.82,1.54,1.36,2.82-.13,3.85-1.18,2.29-2.37,4.5-4.83,6.7-7.29,1.18-1.32,2.29-2.7,4.53-2.93C678.77,69.52,671,72.64,668.28,80c-1.37-.67-.79-2.2-1.42-3.23-.89-1.44-2.07-3.75-3.2-3.47-3.88,1-5.85-.69-8-3.52-.7-.91-2.06-1.21-1.19-2.59a2.06,2.06,0,0,1,3.52-.27c2.81,3.78,4.74,1.14,6.48-.83,3.63-4.07,4.28-9.41,5.46-14.44,2-8.56,3.79-17.21,2.63-26.09C671.7,19,667,15.34,660.35,15.82c-1.36.09-2.72.42-4.09.42-10.07.05-9.41.55-8.41,10.87.89,9.29,3,18.41,3,27.84,0,4.68-1.19,9.17-1.61,13.79,0-4.76,0-9.51,0-14.27a6.1,6.1,0,0,0-.06-2.46c-2.63-5.38-1.74-12.22-6-16.73-4.41-4.7-7.05-10.46-10.76-15.55-3.27-4.48-7.4-4.27-11.67-3.86s-8.61,1.56-13,1.64A7.94,7.94,0,0,0,602,20.42c-1.81,2.18-3.66,4,.09,6.87S610,32.16,613.59,35c9.84,7.69,17.24,17.6,24.14,27.88.68,1,2,2.21.48,3.67-.23,0-.65.09-.7,0C633.17,58,624.1,55.07,617,49.93c-5.82-4.22-12.6-7.21-19.17-10.28-10.53-4.91-21.68-7.24-33.29-8.34s-22.85-3.11-34.33-.14a8.05,8.05,0,0,1-5.91-1.1c-2.88-1.58-4.93.05-4.51,3.35.22,1.74-.89,2.79-1.48,4.13-1.81,4.09-.66,6,3.69,5.49,8.48-.94,17-1.48,25.43,0,20.39,3.53,40.38,8.36,58.75,18.38C609.82,63.38,615.93,68.52,617.37,71.37Zm29-36.42c-1.2-3.93,2.69-9.39-3.57-11.73-.16-4.42-3.88-5.1-6.89-6.47-1-.44-2.3-.81-3,.33s.56,1.74,1.2,2.35A67.06,67.06,0,0,1,646.41,35Zm-41.34-.68c-1.85-2.15-3.47-4.05-5.13-5.93-.12-.14-.5-.05-.76-.05C599.45,31.71,600.71,33,605.07,34.27Z" transform="translate(-127.98 -13)"/><path d="M757.28,287.12c-.54-.58-1.16-1.74-1.9-1.16-1.31,1,.73,2.14.13,3.74-3.43-7.28-7.1-14.13-9.92-21.32-2.68-6.83-4.83-14.36-9.14-19.86-7.88-10-10.76-22.34-17.35-32.85-7.5-12-15.58-23.53-23.1-35.46-.5-.79-.93-2-2.11-1.58-1.42.44-1.06,1.83-.91,2.83,1.15,7.62,1.22,15.31,1.44,23,.3,9.91-1.43,19.72-2.22,29.58s-2.24,19.89-3.4,29.84a2.34,2.34,0,0,1-1.71,2.28c.84-6.83,2-13.28,2.39-19.78,1.41-21.36,4.95-42.68,1.85-64.15-1-6.7-2.45-13.32-3.54-20-.43-2.7-1.81-6-6.15-4.49-.49.17-3.19-.27-1.56-2s1.11-3.44,2-6.14c.85,2.81,1.91,4,4.13,4.27,2.45.29,2.58,3.16,3.8,4.79,10.15,13.6,20.36,27.07,28.38,42.26,12.82,24.29,23.45,49.52,34.49,74.59,1.27,2.89,2.87,5.63,4.37,8.42.6,1.12,1.35,2.18-.06,3.25ZM692.12,166.69c.56,3.08.31,6.35,2.63,8.8,5.41,5.74,7.48,14.1,14.56,18.54a4.09,4.09,0,0,1,1.26,1.62c5.29,10.25,10.33,20.64,15.93,30.72,2.49,4.5,3,9.63,5.66,14,.5.84.64,2.54,2.08,2.06s1.27-2,1-3.22a12.46,12.46,0,0,0-1-2.27c-4-9-8.71-17.73-13.14-26.56-6.36-12.66-13-25.13-22.35-35.9C696.58,171.93,695.21,168.71,692.12,166.69Z" transform="translate(-127.98 -13)"/><path d="M421.6,155.79l38.93-16.32c-4,4.31-9.33,6.28-14.46,8.38-17.76,7.27-34.46,16.76-51.88,24.74-3.62,1.66-7.19,3.27-10.15,6-.61.56-1.39,1-2.2.31-1-.86,0-1.58.4-2.08a15.1,15.1,0,0,1,2.83-2.93c15.47-12.24,32.95-20.9,50.78-29.08a248.47,248.47,0,0,1,62.57-19.55c17.16-2.88,32.77-10.36,50.43-14.89-3.62,3.41-7.79,3.59-11.23,5.12-3.69,1.65-7.65,2.68-11.65,4,.91,1.77,2.34.65,3.43,1.89-16.22,2.86-31.79,7.52-47.87,10,4.28,2.9,7.61-.53,11.49-1a311.92,311.92,0,0,0-32.47,20.63c3.89-5.22,9.62-8,14.8-11.45,1.06-.71,3.25-1,2.55-2.62s-2.41,0-3.67.07a22.47,22.47,0,0,0-4,.91c.45-2,2.79-1.93,3.4-3.58C467.89,133,425.32,150.09,421.6,155.79Z" transform="translate(-127.98 -13)"/><path d="M414.2,194.57c-2.59,3.65-5.19,7.29-7.75,11-.95,1.37-2.25,3.37-.86,4.39s4.73.87,5.7-.43c3.72-5,9.67-5.41,14.59-7.79,6.05-2.93,11.84-6.27,17.59-9.68,20.17-12,40.67-23.29,62.69-31.51,13-4.86,25.28-11.22,37.51-17.71,2.26-1.21,5-1.29,7.3-3.23-.69,3.67-3.8,3.12-5.82,4.17-5.49,2.85-10.92,5.8-16.5,8.45-16.48,7.85-31.53,18.44-48.28,25.7-20.44,8.86-39,21-57.87,32.55-4.78,2.92-10.47,3.07-15.81,3.71-3.53.42-4.85-2.79-3.16-6.47C405.92,202.46,410.1,198.58,414.2,194.57Zm86.17-28.73c-.91-.27-1.33-.56-1.62-.46-8.54,2.91-15.74,8.62-24.29,11.52a.83.83,0,0,0-.31,1.35c.43.57,1,.31,1.47.07,2.69-1.33,5.39-2.63,8-4C489,171.45,494.92,169.55,500.37,165.84Z" transform="translate(-127.98 -13)"/><path d="M442.75,971.81c-51.33.29-102.62,3-154,.41-.18-.6.52-.76.88-.8,9.66-1.1,19-4.94,28.93-3.73,10.82,1.32,21.7.45,32.55.87,27.31,1,54.62,1.8,81.94,2.7C436.3,971.36,439.52,971.62,442.75,971.81Z" transform="translate(-127.98 -13)"/><path d="M479.14,169.32a9,9,0,0,1,3.84-3.5c21.23-10.31,43.13-19.09,64.64-28.73a356.09,356.09,0,0,1,56.89-19.7c2.53-.65,2.85-1.8.87-3.52a18,18,0,0,1-4-4.23c1.29.18,3.61-2.45,3.24,1.32,4,.56,4.91,4.92,8,6.56.62.33,1.62-.09,2.43,0s2.3-1.64,2.54.43c.14,1.21-1.49,1.73-2.41,1.75-22.84.37-38.39,14.88-54.55,28.12-5,4.07-9.51,8.69-15,13.74a12.69,12.69,0,0,1,4.21-5.78c11.34-10.35,22-21.54,36-28.52.72-.35,1.73-.8,1.41-1.75-.43-1.26-1.69-.71-2.49-.5a94.39,94.39,0,0,0-14.53,4.52c-15.62,6.88-31.38,13.45-47.16,20-13.65,5.62-26.8,12.44-40.19,18.7C481.8,168.71,480.78,169.93,479.14,169.32Z" transform="translate(-127.98 -13)"/><path d="M673.49,57.26c2.64-5,7.26-8,11.16-11.69,8.24-7.82,18.94-8.91,29.34-9.28a30.28,30.28,0,0,1,15.33,4c2.58,1.45,4.48,3.52,4.35,6.84-.41,0-.81.14-.87,0-6.4-10.41-16.52-7.87-25.94-7.28-3.52.22-6.86,1.87-10.46,2.17a12.87,12.87,0,0,0-9,4.54C683.61,51.32,677.07,52.28,673.49,57.26Z" transform="translate(-127.98 -13)"/><path d="M794.34,135.71c5.07,4.45,11,7.55,17,10.51a249.48,249.48,0,0,1,24.42,14.06c4.63,3,10,4.77,14.32,8.42,4.13,3.48,6.18,8.18,4.63,13.16-1.81-9.62-8.32-13.91-16.07-17.68-6.83-3.32-12.88-8.22-19.43-12.16a65.36,65.36,0,0,0-10-4.64c-4.25-1.66-7.72-4.57-11.61-6.8-1.64-1-4.29-1.91-3.28-4.92Z" transform="translate(-127.98 -13)"/><path d="M680.6,383.81c11.8-8.82,20.21-20.68,29.2-32.93.07,2.8-1.07,4.27-2.28,5.84a45.57,45.57,0,0,0-3,5.17c2.19.31,2.66-1.32,3.68-2,.66-.41,1.26-1.35,2.08-.57s.29,1.62-.19,2.26c-2.28,3-4.65,6-7,9a2,2,0,0,1-2.53.73c-1.65-.78.76-2.24-.76-3.36-3.22,1-5.18,4.05-7,6.63-3.07,4.48-7.76,6.85-11.54,10.36-.34.32-1,.72-1.1-.22,0-.34.29-.74.45-1.11Z" transform="translate(-127.98 -13)"/><path d="M290.33,979.23c33.73-1.74,67.46-.49,101.18-.41C357.77,978.85,324,979.33,290.33,979.23Z" transform="translate(-127.98 -13)"/><path d="M743.93,143.88c-4.07-2.45-8.21-4.8-12.2-7.37-2.16-1.39-3.84-3.66-6.93-2.65-.77.26-1.32-.5-1.32-1.19s.38-1.71.67-1.74c5.72-.47,5.6-5.12,6.59-9,.09-.34.45-.62,1.31-1.75-1.33,9.26,5.81,10.65,10.88,13.85.68.43,1.43.75,2.07,1.22.29.21.38.67,1,1.8-3.83-1.68-7.14-2.64-9.93-4.85a30.68,30.68,0,0,1-3-2.06c-1.76-1.77-2.79-.14-3.6.85-1.17,1.41.12,2.24,1.26,2.8A42.32,42.32,0,0,1,743.93,143.88Z" transform="translate(-127.98 -13)"/><path d="M651.45,259c1.08,10.09,1.76,20.25,3.35,30.26s4.87,19.27,11.61,27.14c-4-3.67-7.4-7.49-9.27-12.74C652,289.18,651.16,274.18,651.45,259Z" transform="translate(-127.98 -13)"/><path d="M645.26,132c-2-5.68-4.34-10-7.92-13.55a2.77,2.77,0,0,1-.46-1.92c.11-2,0-3.68-2.71-3.37-.71.09-1.37-.11-1.35-1.08s.68-1.09,1.34-1.29c2.82-.88,3.7,1.43,5.05,3,1.11,1.32-.05,4.52,3.47,4,.91-.15,0,1-.06,1.54-.25,3,.92,4.72,4.14,4.72,2.89,0,5,1.3,5.88,4.11a2.53,2.53,0,0,1-.49,2.26c-.79.65-1.44-.3-2-.9-.87-1-1.47-2.6-3.18-2S646.06,129.92,645.26,132Z" transform="translate(-127.98 -13)"/><path d="M602.64,80.84c.53-2.17,1.78-3.39,4.07-2.67a21.38,21.38,0,0,0,4.48.43c2.61.28,4.52.13,5.53-3.16.73-2.39,2.78-4.92,5.88-4.7,2.46.17,4.73,4.05,4.67,7-.82.27-1.26-.26-1.71-.8-3.46-4.12-6.67-3.58-8.31,1.67-.63,2-1.28,2.22-3.32,2.95a8.93,8.93,0,0,1-7.94-.65C605.16,80.5,603.89,81.49,602.64,80.84Z" transform="translate(-127.98 -13)"/><path d="M633.61,99.34c0-1.64-.88-2.31-2.37-1.85a3.84,3.84,0,0,0-3,4.57c-1.67.45-2.31-1.89-3.95-.81-2,1.3-3.66.31-5-1.2s-.13-3.09.49-4.52c.36-.82.43-2,1.65-2.19.9.79,0,1.41-.2,2.1-.29,1.21-.68,2.59.59,3.38a3,3,0,0,0,4.09-.66c.85-.94,1.64-1.83,3.05-1.76,3,.15,5-.61,4.83-4.31-.08-1.56,1.58-2,3.06-2a4.72,4.72,0,0,1,4.83,2.85c-1,.93-1.66.42-2.44.15-3.2-1.1-4.45-.23-3.91,3.09.3,1.87.22,2.94-1.89,3.06Z" transform="translate(-127.98 -13)"/><path d="M621.36,88.11c-3.54.55-6.09,1.81-7,5.59-.38,1.6-1.78,2.94-2.48,4.51-.78,1.72-1.74,3.65,1.06,4.68,1,.37,1.64,1.09.8,2.2s-1.63.22-2.47-.14c-2.72-1.16-1.35-5-4.11-6.13,2.32,0,2.78-2.25,4.17-3.37,2-1.66,2.16-2-.21-2.57-2.06-.5-1.76-2-1.88-3.11s1.29-1.61,2.2-2.34C615.16,84.43,618,89.15,621.36,88.11Z" transform="translate(-127.98 -13)"/><path d="M794.33,135.66a1.84,1.84,0,0,1-2.76.81c-7.45-3.61-15.56-5.91-22.23-11a33,33,0,0,1-5.53-5.66,4,4,0,0,1,3.62,1.27c3.71,4.23,8.67,6.47,13.9,8.07,4.75,1.45,8.21,5.33,13,6.62A.56.56,0,0,0,794.33,135.66Z" transform="translate(-127.98 -13)"/><path d="M681.65,363.3c2-5.36,6.12-9.25,9.52-13.64.41-.51,1.16-.67,1.43-.28a3.47,3.47,0,0,1,.2,3.54c-1.4,2.79-3.08,5.45-4.45,8.26s-2.21,6.29-5.42,9.26c1.19-4,3.85-6.63,3.47-10.25-2.4,0-2.66,3-4.86,3Z" transform="translate(-127.98 -13)"/><path d="M690.91,108.77c-.9,2.49-.77,3.8,2.29,3.81,2,0,3.8,1,5.92,1,1.9,0,3,1.88,3.16,3.78s.48,4.11-.91,5.79a1.93,1.93,0,0,1-2.6.5c-1.19-.87-.19-1.68.25-2.46.63-1.12,2.07-2,1.05-3.61s-2.62-1.22-4.06-.81c-1.24.36-2.43.94-2.82-1a1.39,1.39,0,0,0-1.5-1.1c-1.59-.06-3.66.49-4.19-1.6C686.89,110.66,689.89,110.49,690.91,108.77Z" transform="translate(-127.98 -13)"/><path d="M679.62,309.91c3.48-12.48,4.18-25.55,8.12-37.91A127.57,127.57,0,0,1,679.62,309.91Z" transform="translate(-127.98 -13)"/><path d="M633.46,99.2c-.39,2.76-1.56,5.6,3.14,6.18,2.1.27,2.48-.68,3.44-1.77,1.51-1.7,3.35-2.8,5.79-1.88a4,4,0,0,1,2.56,3.85c.06.64.12,1.47-.64,1.77s-1.23-.37-1.47-1c-1.57-4.12-3.57-1.91-5.53-.39-4,3.14-6.36,3.16-9.2.07-2.32-2.53-1.41-5.51,2.06-6.68Z" transform="translate(-127.98 -13)"/><path d="M358.28,988.51H308.6l0-1.1C325.5,986.79,342.36,987.88,358.28,988.51Z" transform="translate(-127.98 -13)"/><path d="M688.44,386.55c7.81-9.27,17.7-16.26,26.61-24.32C706.53,370.71,698.58,379.83,688.44,386.55Z" transform="translate(-127.98 -13)"/><path d="M653.08,101c2.33-4,4.31-4.4,6-1.43,1.4,2.46,3.28,3.36,5.69,4,2.06.52,2.68,2.22,3,4s-.49,2.85-2.18,3.38c-1.08-4.18-4.37-6.07-9.53-5.38.67-1.27,3.11-1.44,1.77-3.74C656.68,99.73,655.23,99.92,653.08,101Z" transform="translate(-127.98 -13)"/><path d="M382.33,164c-4.14,4-8.32,8-12.41,12-1.13,1.12-2.74,2.43-1.83,4.22s2.68.27,4.05.28c.68,0,1.35,0,2.77,0a8.79,8.79,0,0,1-1.5,1c-2.83.87-6.36,2.91-8.33,0-1.8-2.64,1.93-4.37,3.56-6.14,3.34-3.62,7.05-6.92,10.59-10.36.92-.89,1.81-1.77,3.21-.88Z" transform="translate(-127.98 -13)"/><path d="M682.16,158.91c2.83.59,2.21,3,2.77,4.64a91.36,91.36,0,0,1,4.05,15c.22,1.38,1.52,3.59-.33,4-2.24.43-1.14-2.14-1.45-3.33C685.44,172.45,683.84,165.74,682.16,158.91Z" transform="translate(-127.98 -13)"/><path d="M647,88.81c1.36.65,3.44.35,3.92,2.36s-1.4,1.81-2.54,2.36c-1.32.66-1.2,1.93-1,3.22.17,1.09.84,2.88-1,2.78a2.42,2.42,0,0,1-1.95-3.1c.6-2.08,1.84-4-.87-5.68C642.68,90.25,644.93,88.62,647,88.81Z" transform="translate(-127.98 -13)"/><path d="M709.92,105.52c-1.86-1-4.32-4.65-4.94,1-.12,1-1.33,1.8-2.46.55s-2.31-2.35-2.6-4a2.83,2.83,0,0,1,.14-1.53c.1-.23.85-.48,1-.36,2.74,2.27,6.92-3.55,9.09,1.62A3.35,3.35,0,0,1,709.92,105.52Z" transform="translate(-127.98 -13)"/><path d="M674.19,83.08c.19-4.85,4.92-6.53,7.06-10.29-2.06,3.25-.37,5.75.77,8.57.79,2,1.08,4.54-.82,6.53a2.93,2.93,0,0,1-1.28-3.31c.34-1.88.53-3.85-1.78-4.31C676.1,79.86,675,81.38,674.19,83.08Z" transform="translate(-127.98 -13)"/><path d="M635.94,178.42q2.19-15.34,4.4-30.69C641.34,158.38,638.78,168.5,635.94,178.42Z" transform="translate(-127.98 -13)"/><path d="M713.17,121c.49,1.81.68,3.57-.47,5.18-.3.42-.58,1-1.25.77a1,1,0,0,1-.64-1.32c1.34-2.78-1.62-5.44-.17-8.27.36-.68-.24-1.53-1.09-2s-2.28-.46-1.21-1.86a1.91,1.91,0,0,1,3.19-.15C713.63,115.57,713.7,118.25,713.17,121Z" transform="translate(-127.98 -13)"/><path d="M416.71,132.25c-4.23,3.8-8.36,7.72-12.73,11.36-3.14,2.61-5.52,6.12-9.36,7.88a.81.81,0,0,0,.09.1,1.21,1.21,0,0,1,.45-1.43c6.11-5.87,12.13-11.85,19-16.85a3.43,3.43,0,0,1,2.63-1Z" transform="translate(-127.98 -13)"/><path d="M619.34,116h3.3a21.68,21.68,0,0,0-1.49,3.57c-.43,1.94-.13,3.61,2.42,3.7,1.06,0,2.39-.2,2.27,1.51-.11,1.52-1.42,1.42-2.47,1.57-3.44.5-5.25-2-4.36-6.11.31-1.46,1.09-2.83.47-4.38Z" transform="translate(-127.98 -13)"/><path d="M690.39,133.49c.24,1.75-1,2.95-2.26,2.67-2.43-.53-3.22-3.11-3.71-5.11-.33-1.38,1-3.11,3-3.21C688.8,127.77,690.37,130.85,690.39,133.49Z" transform="translate(-127.98 -13)"/><path d="M642.22,76.66c-.5-1.48-2-2.11-2.69-3.38S637.74,70.81,636,71c-1.93.19-2.07,1.34-1.6,2.94.15.52-.4,1-1.06.69s-1.49-.7-1.6-1.68c-.18-1.7,2.63-4.23,4.42-4C640.72,69.63,642.21,71.43,642.22,76.66Z" transform="translate(-127.98 -13)"/><path d="M619.63,126.65c-7.33,5.65-13.59,11-21.38,14.6C601,138.28,615,128.55,619.63,126.65Z" transform="translate(-127.98 -13)"/><path d="M676,113a6.12,6.12,0,0,1,5.15,2.94c1,1.26,1.2,2.78-.08,3.61-1.63,1.07-1.87-.63-2.28-1.75a2.5,2.5,0,0,0-2.82-1.84c-1.21.17-3,1.68-3.31-.26C672.38,113.53,674.77,113.25,676,113Z" transform="translate(-127.98 -13)"/><path d="M642.73,84.18a3,3,0,0,1,1-4.27c2.37-1.39,4.81-.3,7,.91a3.71,3.71,0,0,1,2.16,3.65c-.05.46-.49,1.18-.86,1.25-.76.16-1-.65-1.43-1.18C647.55,80.63,645.53,80.53,642.73,84.18Z" transform="translate(-127.98 -13)"/><path d="M656.79,95.12a9.12,9.12,0,0,1,2.83-7.19,1.93,1.93,0,0,1,2.62.32,5.91,5.91,0,0,1,.89,6.42c-2.23-.15-1-3.45-2.79-3.37S658.78,94,656.79,95.12Z" transform="translate(-127.98 -13)"/><path d="M597.63,65c5.91,0,10.14,3.52,14.61,6.48a1.77,1.77,0,0,1,.44,1.48.72.72,0,0,1-1.25.35C607.43,69.52,602.07,68,597.63,65Z" transform="translate(-127.98 -13)"/><path d="M689.77,93.07c.46-2.52,1.51-3.46,3.73-3.25,2.49.23,2.26,2.33,2.29,3.67,0,2-.66,4.05-1,6.08-.19,1-.52,2.15-1.72,1.67-.93-.38-.86-1.62-.51-2.56a16.91,16.91,0,0,0,1.28-3c.22-1.31.7-3-.38-4C692.11,90.54,691.28,92.69,689.77,93.07Z" transform="translate(-127.98 -13)"/><path d="M611.32,75.54c-6.57-1.3-13.42-.38-19.7-3.13C598.29,73,605,72.87,611.32,75.54Z" transform="translate(-127.98 -13)"/><path d="M676.44,103.42c5.92-1.46,9.13.39,8.94,5.35-2.45-.65-3.8-4.45-7.33-2.27-.93.58-1.57-1.76-1.52-3.16Z" transform="translate(-127.98 -13)"/><path d="M650.61,112.65c1.59.59,3.92.7,3.79,2.65-.19,2.67-3.15,2-4.87,2.64-1.19.49-1.89-.74-1.85-2A3.11,3.11,0,0,1,650.61,112.65Z" transform="translate(-127.98 -13)"/><path d="M718.11,110.08c1.22-1.27-1.1-2.37.3-3.58,1.93,2.14,1.65,5,2.54,7.5-2.91-2.21-6.57-1.94-9.79-3.7C713.67,108,716,110.27,718.11,110.08Z" transform="translate(-127.98 -13)"/><path d="M410.53,640.23c5.62-2.22,10.93-.73,16.17,1.43C421.31,641.33,416,640.17,410.53,640.23Z" transform="translate(-127.98 -13)"/><path d="M627.13,129.11c-.43,5.19-.4,5.2,8.45,6-1.84,2.23-6.48,2.89-8.43.83C625.54,134.22,623.94,132,627.13,129.11Z" transform="translate(-127.98 -13)"/><path d="M682.42,141.76c3.35-2,3,2.79,5.26,3.07.36,0,.11,1.07-.42,1.3-2.41,1.07-4.1-.61-6-1.61-1-.55-1.8-1-1.49-2.44.22-1,.58-1.05,1.35-.68A8.6,8.6,0,0,0,682.42,141.76Z" transform="translate(-127.98 -13)"/><path d="M730.2,140.54l9.61,7.53c.91.71,1.72,1.7.92,2.73-1.16,1.51-2.07-.39-2.5-.82-3-2.89-5.69-6-8.49-9.06Z" transform="translate(-127.98 -13)"/><path d="M598.11,93.76c-1.76-2.05-2.47-4.37-1.44-6.42s4-.69,5.84-2.07c.72-.54,1.39.62,1.12,1.52s-.14,2.26-1.73,2.19C597.71,88.8,597.71,88.81,598.11,93.76Z" transform="translate(-127.98 -13)"/><path d="M382.44,164.1c-.12-.38-.46-1-.32-1.12,3.83-4.2,7.26-8.84,12.59-11.39a.81.81,0,0,1-.09-.1c-3.54,4.72-8,8.53-12.3,12.5Z" transform="translate(-127.98 -13)"/><path d="M665.54,127.56c1.42,1.13,4.55,0,5.08,3.12.14.82-.38,1.92-1.32,1.43-2.08-1.09-5-.51-6.29-2.86C662.58,128.45,663.89,127.42,665.54,127.56Z" transform="translate(-127.98 -13)"/><path d="M675.78,121.58a6.31,6.31,0,0,1,2.16,4.6c.06,2-1.55,2-3,1.92-2.1-.07-1.92-1.56-1.75-3S673.9,122.2,675.78,121.58Z" transform="translate(-127.98 -13)"/><path d="M686.12,95.67c-2.45.45-4-4-6.63-.62-.43.56-1.16-.45-1.27-1.1-.29-1.55.28-2.9,1.94-3C683.18,90.9,685.86,91.61,686.12,95.67Z" transform="translate(-127.98 -13)"/><path d="M638.36,132.41c-.08.6-.58,1-1.6,1-2.73-.07-6.12-3.22-6.39-6.08a4.46,4.46,0,0,1,.36-1.46c.48.19,1.3.3,1.37.59.68,3,2.37,4.49,5.5,4.37C638.17,130.8,638.44,131.42,638.36,132.41Z" transform="translate(-127.98 -13)"/><path d="M676.53,103.34c-1.49.17-2.56-.72-3.68-1.46a4.41,4.41,0,0,0-1.74-.88c-1.15-.21-1.07,2.82-2.46.94-.63-.84.38-1.73,1-2.47a2.68,2.68,0,0,1,3.62-.82c1.86,1,3.27,2.42,3.2,4.77Z" transform="translate(-127.98 -13)"/><path d="M729.46,101.67c4,3.06,4.7,5.91,2.56,8.46-.5.59-.82,1.59-1.87.94a1.55,1.55,0,0,1-.64-2.16C731.23,106.69,730,104.51,729.46,101.67Z" transform="translate(-127.98 -13)"/><path d="M609.18,144.38,622,130.46Q615.9,137.78,609.18,144.38Z" transform="translate(-127.98 -13)"/><path d="M690.3,120.25c1.75,1.66-2.33,2.66-.16,3.77,1.77.91,2.45-1.09,3.45-2.44.81,3.83-2.41,3.72-4.27,4.75a1.51,1.51,0,0,1-2.3-1C686.52,122.64,688.64,121.59,690.3,120.25Z" transform="translate(-127.98 -13)"/><path d="M619.48,115.84a14.13,14.13,0,0,1-2.62-1.08c-1.39-.91-2.8-2.07-2.24-4s2.08-2.35,3.85-2.37c.8,0,1.59-.13,2.43-.2.07,1.26-.81.75-1.25.88-2.36.69-4.18,1.44-1.19,3.85a3.19,3.19,0,0,1,.88,3Z" transform="translate(-127.98 -13)"/><path d="M670.53,138.59c-1.21-.17-1.67-.84-1.44-1.74a4.74,4.74,0,0,1,4.36-3.63,1.6,1.6,0,0,1,1.72,2.13C674.58,137.74,671.86,137.33,670.53,138.59Z" transform="translate(-127.98 -13)"/><path d="M670.62,88.06c0,2,.16,3.16-1.12,3.3-1.54.18-1.19-1.16-1.21-2,0-1.52-.38-2.6-2.19-2.81a1.37,1.37,0,0,1-1-2.16c.55-1,1.59-.84,2.43-.23C669.19,85.38,670.65,86.78,670.62,88.06Z" transform="translate(-127.98 -13)"/><path d="M631.2,111.17c-2.2,1-4.27-.35-5.71,1.81-.87,1.31-1.69-.39-1.77-1.07-.1-.92-1.49-2.16.58-2.91C627,108,628.83,109.33,631.2,111.17Z" transform="translate(-127.98 -13)"/><path d="M652.74,133.4c.3.75,2.11.84,1.43,1.23-2.51,1.4.76,4.93-1.93,5.41-1.76.32-2.52-2-2.39-3.68A3.24,3.24,0,0,1,652.74,133.4Z" transform="translate(-127.98 -13)"/><path d="M719.57,163.75A21.37,21.37,0,0,1,712.42,153l8,10.08Z" transform="translate(-127.98 -13)"/><path d="M741.65,84.94c-4.72,3.44-10.51,4.87-15.78,7.32l15.25-8.36Z" transform="translate(-127.98 -13)"/><path d="M597.08,107.66c-3.84,3.38-8.67,2.92-13.16,3.73A37.47,37.47,0,0,1,597.08,107.66Z" transform="translate(-127.98 -13)"/><path d="M712.65,131.21c.64,4.45-1.94,8.08-5,7.85-.73-.06-1.83,0-1.81-1.16a1.31,1.31,0,0,1,1.31-1.33C710.68,136.86,711.26,134.05,712.65,131.21Z" transform="translate(-127.98 -13)"/><path d="M427.09,653.19l-14.31-3.54C416.6,648.4,422.52,649.87,427.09,653.19Z" transform="translate(-127.98 -13)"/><path d="M654.48,118c-.54,6.51.44,7.51,6.35,6.49-3,2.28-5.31,2.37-7.39.28C651.84,123.17,652.16,121.11,654.48,118Z" transform="translate(-127.98 -13)"/><path d="M655.87,426.37c-4,2.33-8.34,3.62-12.75,5.1C644.68,429,645.74,428.58,655.87,426.37Z" transform="translate(-127.98 -13)"/><path d="M647.38,72.41c1.32-.84,2.15-2.68,3.21-1.49,2,2.23,4.35,4.58,3.07,9C652.32,76.34,651.43,73.15,647.38,72.41Z" transform="translate(-127.98 -13)"/><path d="M696.23,138c-1.58-1.83.23-3.7-1.17-5.33-.86-1,.67-1.42,1.51-1.72,1.08-.38,1.45.33,1.64,1.2C698.68,134.37,698.41,136.36,696.23,138Z" transform="translate(-127.98 -13)"/><path d="M450,160a38.48,38.48,0,0,1-9.72,9C443.21,165.65,445.91,162.07,450,160Z" transform="translate(-127.98 -13)"/><path d="M590.41,85.61c-3.16,1.42-6,2-8.95-.75C584.62,84.63,587.46,84.12,590.41,85.61Z" transform="translate(-127.98 -13)"/><path d="M674.88,387.91c2.32-4.28,5.55-7.77,9.83-11.71-.73,3.74-4.7,4.38-4.11,7.61l.11-.13c-2.7.34-3.48,3.43-5.91,4.15Z" transform="translate(-127.98 -13)"/><path d="M661.09,85.22c-1.82-.48-1.44-2.59-3-2.9-1.3-.26-2.14-1.22-1.3-2.28s2.51-.91,3.57.13C661.76,81.52,662,83.21,661.09,85.22Z" transform="translate(-127.98 -13)"/><path d="M654.67,105.81c.09,3,1.36,3.6,3.15,3.66.36,0,.7.7,1.06,1.07-.42.32-.83.91-1.24.91-1.33,0-3,.55-3.9-.55S653.41,108.32,654.67,105.81Z" transform="translate(-127.98 -13)"/><path d="M675.66,169.9q-1.47-5.6-2.95-11.18l1.09-.29,2.94,11.24Z" transform="translate(-127.98 -13)"/><path d="M695,365c1.29-3.93,4.51-6.57,6.7-9.89C700.77,359.27,697.83,362.1,695,365Z" transform="translate(-127.98 -13)"/><path d="M625,87.48c-.83-6,1-6.88,7.19-4.42-1.53,1.42-3-.71-4.45.08S626.15,85.48,625,87.48Z" transform="translate(-127.98 -13)"/><path d="M614.12,55.61l10.94,7.62C621.85,62.93,617.83,60.24,614.12,55.61Z" transform="translate(-127.98 -13)"/><path d="M416.8,132.34c2.34-3.51,6.56-4.11,9.86-6.12-3.26,2.09-6,5.06-9.94,6Z" transform="translate(-127.98 -13)"/><path d="M662.93,112.92c2.88,1.72,3.25,3.39,2.55,5.36-.13.36-1.05.84-1.2.73C662.37,117.55,664,115.5,662.93,112.92Z" transform="translate(-127.98 -13)"/><path d="M326.66,799.55l.27,4.72,3-1.85a48.46,48.46,0,0,1-3.18,10.05c-.34.84-.56,2.15-1.79,1.63s-.54-1.57-.31-2.54,1.47-2,.83-3.54a6.52,6.52,0,0,0-.88.8c-.76,1-.51,3.57-1.95,3-2-.75,0-2.55.3-3.74.81-3,2.06-5.84,3.13-8.75Z" transform="translate(-127.98 -13)"/><path d="M371.1,663.33a3.51,3.51,0,0,1,2.73,3.55c-.1,2-1.22,3.83-3.56,3.78s-2.44-2-2.38-3.64C368,665.14,368.74,663.55,371.1,663.33Z" transform="translate(-127.98 -13)"/><path d="M304.25,856.73c-.52-2.62,3.71-12.87,6.1-14.77A26.07,26.07,0,0,1,304.25,856.73Z" transform="translate(-127.98 -13)"/><path d="M318.9,835.25c.18,5.26-1.56,8.56-6.4,14.08C312.5,846.54,314.52,842,318.9,835.25Z" transform="translate(-127.98 -13)"/><path d="M327.82,820.05c.3,3.59-.79,6.73-2.16,9.8-.3.68-.67,1.21-1.47,1.11-1-.13-.88-1-.76-1.58A23.66,23.66,0,0,1,327.82,820.05Z" transform="translate(-127.98 -13)"/><path d="M350.91,721.48c-.34,3-.67,6-1,9-.08.73-.42,1.34-1.25,1.32-1.06,0-1.36-.84-1.34-1.69A12.79,12.79,0,0,1,350.91,721.48Z" transform="translate(-127.98 -13)"/><path d="M323.09,917.12c-2.33-3.89-5.73-7.21-4.83-12.2C319.47,909.21,323.15,912.47,323.09,917.12Z" transform="translate(-127.98 -13)"/><path d="M338,794.52c1.07,4.22-1.25,7.28-2.71,10.6a.86.86,0,0,1-1.4.17,1.12,1.12,0,0,1-.19-1C335.05,801,336.51,797.76,338,794.52Z" transform="translate(-127.98 -13)"/><path d="M331.33,781.05c-.58-4.13-.85-8.18,3.13-11.1Q332.89,775.5,331.33,781.05Z" transform="translate(-127.98 -13)"/><path d="M351.69,778.43a10.42,10.42,0,0,1,1.5-10.37Z" transform="translate(-127.98 -13)"/><path d="M343.26,716.09c.72-3.57,4.31-4.36,7-6.54-2.11,2.73-4,5.18-5.88,7.64Z" transform="translate(-127.98 -13)"/><path d="M338.89,777.84c-1-3.26-.13-6.21,1.77-10C341.17,772,339.9,774.88,338.89,777.84Z" transform="translate(-127.98 -13)"/></svg>