<svg id="Layer_1" data-name="Layer 1" xmlns="http://www.w3.org/2000/svg" viewBox="0 0 365.07 277.94"><title>signature</title><path d="M379.94,335.92c-22.81,16.33-43.29,27.74-57.71,47.21-5.91,8-16.05,9-25.59,9.25-5.39.13-9.22-2.52-9.94-8.11-.87-6.63,4-6.72,8.82-8.25,34.41-10.85,59.06-37.44,88.71-56,2.34-1.47,3.47-5.82,4-9,4.9-27.85,19.53-51.38,33.33-75.22,6.94-12,15.23-24.63,31.88-16.23,12.67,6.39,16.25,27.84,8.53,42a102.71,102.71,0,0,1-37.48,39c-25.48,15.09-36.13,39-46.24,64-5.9,14.63-11.17,29.52-18,47.59,42.31-24.67,79.09-49.83,115.11-76.26,20.67-15.17,28.69-39.3,44.29-58,8.61-10.3,16.13-21.48,29.66-29.42,3.84,8.37,2.24,14.16-1.56,21.22-10.13,18.82-23.9,34.66-38.78,49.53-18.3,18.29-29.24,41.19-42.19,63,15.32-8.91,24.52-24.44,39.47-33.62,8.2-5,16.17-8.45,24.41-2.6,8.57,6.09,4.5,14.61,1.74,22.29-4.5,12.52-9.14,25-15.09,41.17,15.51-10.56,26.52-20.31,40.19-26,11.78-4.9,17.58-2.3,19.44,10.94,2.31,16.43,6.93,32.68-1.5,49.39-15.74-6.94-9.91-20.72-11.26-32-.61-5.07,2.27-11.58-4.5-14.29-5.31-2.13-8.71,2.61-12.47,5.24-11,7.71-21.66,16-33,23.22-4,2.58-8.19,9.94-13.74,4.9-5-4.52-2.89-11.67-.25-17.25,5.49-11.61,12.67-22.54,17.06-34.52,3-8.23,12.46-19.76,3.53-25.62-7-4.6-16.58,5.63-23.33,12.39-13.94,14-28,27.87-37,45.76-4.46,8.88-12.45,11.16-22.25,14-3.3-28.17,18.9-44.71,27.54-68.22-9.23-.95-15.12,4.6-20.71,9.41-14,12-29.9,20.93-45.31,30.76-25.54,16.31-51,32.48-67.53,59.73-6.84,11.28-18.45,19.89-28.67,28.82-6.41,5.6-15.24,13.48-22.87,4.13s.58-17.68,7.67-24c7.57-6.74,15.2-14.09,24.13-18.49,28.71-14.16,40.73-40.22,51.05-67.84C368.57,367,373.35,353.82,379.94,335.92Zm21.72-29.81c21-14.32,41.38-28.59,53.9-51.12,4.36-7.85,2.73-15.21-3.14-20.24-6.6-5.65-12.3-.09-17.63,4.48C414.44,256.68,406.21,280.25,401.66,306.11Z" transform="translate(-277.75 -216.8)"/><path d="M631.5,424.33c6.74.41,11.34,4,11.31,11.19s-4.57,10.73-11.7,11.17c-7.74.48-11.52-3.79-11.34-10.78C619.94,429.21,623.66,424.57,631.5,424.33Z" transform="translate(-277.75 -216.8)"/></svg>