<svg id="Layer_1" data-name="Layer 1" xmlns="http://www.w3.org/2000/svg" viewBox="0 0 1346.76 1960.78"><title>sliceofheaven</title><path d="M1005.2,1975.6c-11.18-11.34-18.61-25.48-25.14-39.37-29.57-63-61.7-124.66-91.9-187.3-31.51-65.33-64.67-129.88-95.89-195.34-25.31-53.07-51.73-105.62-77.41-158.5-45.72-94.11-92.14-187.93-142.58-279.75C538.12,1053.17,507.59,989.05,475,926c-11.86-23-22.41-46.6-35.86-68.77-3.1-5.11-6.05-6.26-11.7-6-13.09.61-26.22.25-39.34.16-5.79,0-7-3.83-6.73-8.68.43-7.82-.42-15.7,1.49-23.47,2.08-8.49-1.81-11.63-9.92-9.71-9.06,2.15-17.63.74-26.07-2.57-1.48-.58-3.2-1.09-3.09-4.7,9.94.09,20.12-1,28.35-9.13-3.76-2.38-6.9.64-10,.91s-6,2.07-9.39,3.33c.09-3.67,6.25-4.17,4.1-7.68-2-3.28-5.49-.58-8.12,0-5.77,1.24-11.42,3-17.09,4.66-2.44.71-5.33,2.74-6.87-.55-1.29-2.76,1.95-3.9,3.72-4.93,14.89-8.62,23.57-23,35.15-36.41-10.73,1-17.59,7.91-26,11.09-2.12.8-4.1,1.94-6.2,2.79-1.79.73-4,1.83-4.78-1-.51-1.92,1.52-2.45,3-3.17,8.9-4.33,17.17-9.59,24-16.88.82-.88,1.26-2.12,2.54-4.36-9.54,1.19-15.16,9.89-24.71,9.22,2.28-8,11.2-10.12,13.25-18.43-5.14.67-8,4.41-11.66,6.44a4.57,4.57,0,0,1-3.59.1c-1.8-.83-.42-2.34,0-3.35,2.39-6,7.15-9.88,12.23-13.72,5.69-4.3,13.36-6.79,16.72-16.6-9.61,5.67-16.74,12-28.86,15.24l25.25-29.38c-4.78-3.15-8.26,1.87-13.89,2.4l12.5-19.1c-13.63-.44-20.21,12.23-31.71,13.76v-3.94c11.24-7.63,17.11-20.51,31.11-29-11.18-.09-16.06,7.12-23.19,9.29.34-14.08,12.73-19.46,21.13-29.09-10.22-1.12-15.25,7.37-23.9,8.67,4.35-14.06,14.18-23.68,25-32.83-8.75-4.37-16.32-8.23-25.08-1.68,6.31-13,19.52-18,29.42-29.87-10.73,3-16.05,10.28-23.74,13.3-3.56-8,3.57-11.83,6.79-16.93s8.81-8.82,12.15-16.08c-9.65,1.54-13.42,10.48-20.81,13.5-1.74-3.18,1.12-4.38,2.33-5.9,20.61-25.92,29.53-57.36,39.95-87.65,12.57-36.52,27.66-71.9,43.36-107.06,8.14-18.22,18.18-26.78,39.65-19.73,6.78,2.23,10.26-2.43,13.58-7.1,14.05-19.76,28-39.62,42.23-59.22a277.26,277.26,0,0,1,19.81-24.48c11.91-13,29.71-14.21,44.38-4.1,20.63,14.21,41.14,28.37,58,47,2.66,2.92,4.27,2.79,7.37.95,19.24-11.39,32.87-26.83,37.4-49.24,2.73-13.51,11.74-22.27,22.9-29.39,22.74-14.49,40.35-34.5,58.86-53.63,12.3-12.71,21.32-27.36,29.52-42.72a72.88,72.88,0,0,1,5.66-9.21c13.18-17.72,33.52-27.19,51.71-1s35.36,52.9,55.23,77.89c17.72,22.3,36.52,42.88,61.91,56.86A63.53,63.53,0,0,1,992,284.86c7.7,17,21.46,29.64,31.77,44.75,2.1,3.07,5,2.46,7.6.05,3.13-2.86,6.39-5.57,11.57-10.06-10.86,0-10.55-4.53-7.15-9.06,3.29-4.37,4-9.63,6.51-14.16.47-.84,1.67-1.81,1.49-2.38-4.23-13-4.1-13.67,7.61-25.55a35,35,0,0,0,9.38-15.61c-2.68-3-5,1-8.09-.39,1.84-13.31,8.78-24.9,14.49-36.84,2-4.09,4.36-1.4,5,1.47,2.76,12.65,7.29,24.4,15.92,34.36,1,1.14,2.07,3.51,1.55,4.44-7.42,13.17,1.68,22.25,7.73,32.1a7,7,0,0,1,.42,2.08c-3.35,2.67-4.67-2.94-7.81-2-.21.82-.81,1.79-.58,2.5.77,2.44,4,4.91,2.51,7.11-5.52,7.89,1.81,10.15,5.48,14.32,9.3,10.54,19.25,20.69,26.3,32.92,9.55,16.57,12.49,17.83,29.24,8.22,20.75-11.9,40.89-24.36,57-42.81,17.23-19.74,54.66-17.55,73.47,2.8,14.81,16,26.77,33.84,37.31,53,16.35,29.61,37.06,56.41,57.52,83.32a38,38,0,0,1,2.29,3.2c9.15,15.26,10.07,15.53,25.29,5,5.55-3.85,12-6.69,16.65-14.36-9.61.86-13.75,8.72-23.61,12.8,11-21,23-38.58,26.85-60,9.09,20.85,17.44,41.35,30.9,59.15-3.83,5.17-11.12,1.77-15.52,7.38,10.91,4.15,20,10.14,25.83,21.17-8,1.95-14.86-5.13-23.07-2.44,10.2,18,20.6,34.86,42.46,41.55-5.92,2.63-10-3.24-14.67,0-1.11,4.62,4,6.13,5.55,10.54-7.07-2.51-12-8.52-19.87-9.43,10.33,17.82,31.41,20.59,46.16,35.79l-38.25-6.43c-.33.73-.67,1.46-1,2.19,12.89,8.13,30.23,10,39,25.18-6.68.88-11.52-4.6-16.53-4-10.94,1.38-16.7-5.18-23-11.73-1.52-1.58-3.34-2-5.24-.43-2.25,1.86-.66,3.66.33,5.16,4.32,6.5,10.43,12.23,17.65,13.5,14.19,2.5,19.76,13.46,25.59,23.49,26.51,45.62,52,91.85,78.49,137.47,15.3,26.33,31.19,52.32,44.45,79.76,2.75,5.69,6.85,7.27,11.92,4.2,3.49-2.12,6.25-2,8.83.39s1.28,5.52.73,8.4c-.86,4.48-4.33,4-7.68,4.12-16.77.6-33.55-1.18-50.35,1.28-5.93.88-8.54,3.49-10.87,8.12q-26.7,53.13-53.55,106.18c-30.49,60.56-62.68,120.23-93.82,180.45-29.17,56.41-57.19,113.43-85,170.52-15.81,32.43-34.13,63.53-50,95.91q-43.38,88.67-86.51,177.45c-31.84,65.62-64.05,131.07-95.07,197.06-19.64,41.77-40.75,82.82-61.89,123.78-12.82,24.85-22.7,51.59-40.56,73.79Zm-578.57-1213c-4.08,4.48-7.7,5.15-9.78-1.58-1.55-5-5.85-6.72-9.87-8.76-1.27-.65-2.87-2-4.42-.32-1.32,1.46-.7,3.1-.1,4.59,2.38,5.94,6.69,10.51,11.85,14.65-3.11,2.16-11-2.84-7.48,5.24,2.73,6.21,9.89,8.1,15.83,10,4,1.27,9.68-5.76,11-12-5-1.62-8.63,6.46-14.6,1.88,4-2.82,7.72-5.19,11.1-8,1.91-1.59,4.44-4,2.14-6.6-1.92-2.18-4,.77-6.06,1.26,4-4.55,10.85-7.47,7.64-15.86-.69-1.8,7.12-3.73,3.12-7.24-2.54-2.24-5.33,2.61-8.21,3.88-1.3.57-2.39,1-3.6-.38,3.19-6.43,6.42-12.92,10.26-20.64-9.65,1.14-15.38,6.89-23.27,11.68,6.33-14,16.87-23.67,20.22-37.33.65-2.65,6.21-4.59,3.92-8-2.79-4.12-6.35.17-9.56,1-.85.22-1.74.32-3.52.65,1.67-1.52,2.6-2.4,3.58-3.24,3.66-3.16,9.58-7.28,6.95-11.36-2.78-4.32-7.48,2.7-11.44,2.83-1.82-12.68,12.37-18.33,14.43-30.31-4.36.84-5.36,3.67-7.41,5.23-1.84,1.4-4,3.43-6.11,1.67-2.9-2.42-.16-4.74,1.42-6.45,6.19-6.72,10.08-14.14,9.15-23.61-.14-1.42,1.5-3.25-.09-4.45-2-1.5-3.61.12-5.11,1.39-6.52,5.51-9.54,13.15-12.53,20.63-3.85-.27-5.84-3-8.15-5.33a14.63,14.63,0,0,0,2.76.54c3.08-8,7.59-15.55,8.51-24.33.3-2.82-6.35-.8-3.51-5.67,3.27-5.61,5.57-11.79,8.53-17.6,1.69-3.32,6.61-6.27,3.38-10.19-2.92-3.54-7.34-.79-11,.5-1.55.55-3.12,1-4.66,1.65-6.55,2.56-6.54,2.57-7.95-4,9.69-2.83,19.59-5,28.86-8.69,5.82-2.34,2.5-9.62,4.75-14.19.76-1.56.73-4.34,3.56-3.82,2.29.42,2.94,2.29,2.83,4.48-.53,10.59,3.87,8.13,11.27,5.66,10.71-3.58,21.31-8.71,34-3.57,25.1,10.2,45.78,25.84,61.42,47.36,16.4,22.57,38.6,36.83,64.2,45.16,24.81,8.07,42.08,23.52,55,45,8,13.3,17,25.91,28.77,36,17.89,15.42,36.34,30.22,54.92,44.82,6.14,4.82,13.7,7.73,18.81,14.09,14.48,18,33.3,29.11,55.81,34.59,12.38,3,24.4,7.31,35.2,14.27-11.75-3.09-23.45-6.32-35.24-9.24-16.18-4-31.16-10.41-44.19-20.92-14.57-11.76-28.15-24.64-43.12-36-30-22.73-58-47.4-77-80.79-7.87-13.85-19.22-25.15-34.79-30.83-5.56-2-12.41-9.05-16.67-4.39-4.69,5.14.88,12.82,3.77,19,8.32,17.73,21.87,31.85,33.2,47.51,11.79,16.32,24.74,31.42,41.85,42.53.94.62,3.1,1.39,1.29,3.87-36.33-21.75-59-55.1-79.79-90.47-2.53.14-1.13,5.57-4.86,4.54-3.49-1-4-4-4.1-7.1-.26-5.24-.56-10.48-.8-15.72-.1-2.13-.75-4.22-3-4.33-2.49-.11-2.92,2.19-3.16,4.21l-1.89,15.93c-2-6.89-2.25-13.72-3-20.51-.24-2.3.47-6.26-3.22-6.07-3.07.15-3.06,3.83-3.45,6.31-.55,3.58-.73,7.22-1.07,10.84-3.72-5.94-2.63-12.09-3-18.09-.13-2.29.1-5.24-2.64-5.72-3.12-.55-3.29,2.55-3.77,4.7-.86,3.92-1.58,7.87-2.34,11.74-2.36-.45-2.71-1.7-2.32-3,2-6.77,1.13-13.67.93-20.52-.06-1.94-.92-4.13-3.2-4.24-2.48-.12-3.06,2.19-3.37,4.12-.64,4-1.08,8.07-1.78,13.52-4.81-5.88-2.25-11.36-3.15-16.25-.7-3.8,1.86-10.43-3.67-10.32-4.3.08-1.6,6.68-2.48,10.27-.25,1,.35,2.57-1.79,2.66-3.82-4.26-1-9.45-2-14.07-.86-4.25,1.2-11.08-4.06-11.67-4.87-.54-1.86,7.17-5,10.19-8.72-7.32-2.52-19.63-8.8-27.66-4.13,1.33-3,5.72-6.56,8.59-1.35-5.63-2.3-10.67-3.84-15.53-.64-2-2.27-6.94-4.54-4.17-6.78,8.26-6.27-1.47-6.91-2.9-5.07-11.32-13.74-17.45-25.87-18.43-12.69-1-23.68,4.83-34.72,9.89-2.69,1.23-5.3,4.28-4.67,7.07,2.57,11.51,8.06,22.13,12.31,33,2.87,7.37,11.72,12.43,18.42,19.05-3.49,0-6.1.07-8.69,0s-5.64-2-7.26.85c-1.92,3.43,1.57,5,3.49,7.18,4.75,5.31,11.86,8.16,15.83,14.84a19.15,19.15,0,0,1-14.28-2.42c-1.66-1-4.06-1.74-5.44.1-1.78,2.36.1,4,1.9,5.66,7.52,7.08,14.83,14.38,24.39,20.37-5.67,1.53-9.64.6-13.39-1.92s-7.67-5.12-11.61-7.51c-1.57-1-3.51-2.6-5.21-.44-1.4,1.77-.76,3.82.8,5.28a101.74,101.74,0,0,0,8.21,7.05c9.1,6.78,18.31,13.41,28.88,21.11-6,.25-8.61-2.66-11.87-3.87-3-1.11-6.36-2.19-7.62,1.42s3.19,3.31,5.08,4.6c5.41,3.7,13.25,3,17.84,8.94-3.38,2.33-5.43.14-7.71-1-7-3.46-14-7-21.19-10.26-2.06-.93-4.73-4.5-6.65-1.18-1.82,3.17,1.87,5.4,4.18,6.86a69,69,0,0,0,12.37,6.1c4.65,1.76,7.89,4.7,11.93,10.48-7-3.46-12.12-5.31-17.64-6-1.93-.23-4.1-3.6-5.58,0-1.05,2.59,1.42,4.2,3.41,5.32,4.65,2.62,10.67,3.43,13,10.6-3.41-1-6.13-1.86-8.83-2.72-2.31-.73-4.93-3.88-6.9-.77s.86,5.5,3.56,6.94c5.31,2.85,10.73,5.48,17.62,9-3.61.26-5.52.15-7.28.6-2.19.55-5.79-2.2-6.4,2.16-.48,3.45,2.82,4.19,5.05,5.17,5.43,2.41,11,4.43,17.21,6.86-6.47,1.45-11.52-2.53-17.2-1.9-2.71.3-6.29-2.11-7.65,1.94-1.2,3.59,2,5.19,4.49,6.69,8.42,5,16.88,9.83,27.1,15.77-3.16-.38-4.34-.56-5.54-.67-2.81-.27-6.17-5.35-8.12-.86-1.85,4.28,3.63,5.12,6.41,7.09,3.3,2.33,8.74,2,10.92,8.25-9.95-2.58-18.51-4.56-26.55-8.35-1.91-.9-4.38-3.24-6-.41-1.78,3,1,4.73,3.34,6,2.59,1.4,5.32,2.58,8,3.9,6.38,3.18,14.06,3.13,21.37,8.71-12.49.48-23.5,6.37-33.88-3.78-3.21-3.14-7.65-.6-7.33,5,.57,10.12,1.16,20.24,1.93,30.34.23,3.09.24,5,5.32,3.29,12.49-4.17,25.66-9.86,37.94,1.34,1,.92,3.15.87,4.76.86,11.53,0,23-.27,34.49,1.9,4.21.79,10.83.14,10.16-4.75-1.2-8.68,6.28-18.28-2.53-26a4.14,4.14,0,0,0-2.83-.62c-9.44.87-16.58-5.29-25.55-7.08,2.72-4.22,8.17-3.38,9.37-7.8-2.5-4.18-7.91.55-10.46-3.41,8.42-9.42,22.15-11,32.13-19.94-5.86-2.3-9.36.26-13,1.38-2.64.82-5.22,2.25-6.89-.84-1.5-2.79,1.86-3.61,3-5.34.66-1,1.26-2.09,1.85-3.08-5.25-4.11-8.85,3.2-15.17,1.26,6.42-5.37,11.73-10,17.3-14.36,3.36-2.62,10.89-3.25,8.68-8.45-1.91-4.48-8.15-.87-12.47,0-1,.2-1.27-.3-1-.67,1.75-3.62,7.61-2.54,7.3-7.36-3.59-4.22-7.88,2.46-12.58-1.58,8.23-3,18-2.7,22-12.44-5.63-.77-9.62,4-15.67,1.89,12.83-8.48,20-20.2,23.47-34.62,5.57,14.32,8.57,28.68,18.69,40.62-5.27,1.23-7.87-3.45-12.22-1.09,3.86,8.59,12.37,12.26,18.94,18-3.15-.18-5.77-1.25-8.48-1.89-2.39-.56-4.71,2-3.13,2.91,9.7,5.6,4.62,21.24,17.75,24.4a56.66,56.66,0,0,1-11.69-.59c-1.94-.26-4.19-1.17-5.33,1s1,3.63,2.46,4.71c4.81,3.58,9.78,7,14.8,10.48-4.35,3.42-13.73-1.19-13.35,5.06.35,5.82,8.87,2,13.61,3.19,1.73.45,4.26-.64,4.69,2.17.51,3.26-2.2,3.41-4.36,4.15-1.6.54-4.25-.35-4.31,3.27l7.25,3.34c-4.89,3.47-9.59,2.68-14.14,2.44-16.46-.88-16.46-.92-19,15.17-.16,1-.26,2-.34,2.93-.94,12,3,14.75,14.25,10.4,18.5-7.16,36-18,57.21-15.43,1.91.23,4.49-1.34,6.06-2.81,8.23-7.67,16.66-6.31,25.1-.79a81.44,81.44,0,0,1,12.49,9.61c5.88,5.78,11,6,16.89,0,8.5-8.57,18.24-9.32,28.67-3.45,4.58,2.58,9.42,4.74,13.83,7.56a39.82,39.82,0,0,0,21.48,6.32c30,.3,60,.34,90.06.61,3.46,0,6.68.41,7.74-3.9,3.17-.18,8.51,5.38,9-1.92.54-8.42,1.21-17-.5-25.49-.74-3.69-3.08-7.76-6.06-5.05-5.61,5.08-12,2.06-17.69,4-9.52,3.17-19.15,1.65-29.18,2,1.62-4.19,6.76-2.89,7.45-6.84-4.09-3.75-10.2.78-14.36-2.89,9.83-10.44,25.21,2.59,35.89-9-6.5-1.3-12.41.25-17.46-3.82,5.13-5.16,14.73-3.21,18.5-11.43-8-1.35-13.72,5.48-22.08,3.87,5.56-5.58,12.54-6.42,17.84-10.14,3-2.1,8.86-2.25,7.35-7.5-1.67-5.84-7-4.58-11.67-3.75-8.26,1.46-16.58,2.66-26.86,4.28,7.47-4.9,15.12-3.8,20.89-8.87l-5.56-1.75a40.81,40.81,0,0,1,13.77-4.59c2.53-.31,6.43.38,6.3-3-.16-3.75-4.29-3.47-7.11-3.32-7.47.4-14.93,1.15-23.55,1.86,5-4.2,10.46-4.9,15.27-6.42,12.14-3.83,22.2-9.71,26.91-22.18,1.14-3,3.38-6.95,2.34-9.2-1.4-3-5.9-1.32-9-.94-9.06,1.13-17.47,4.72-26.68,7,19.76-9.88,31.71-27.47,45.32-43.74-11.59,1.66-20.53,9.17-31,13.49,8.76-9.36,17.36-18.72,28.59-25.36-11.44,1.07-21.47,5.39-32.29,11.85,12.3-14.89,23.92-27.89,40.14-36.17l-1.75-2.39-31.06,9.3c8-8.43,17.4-13.23,22.53-22.27,2.18-3.83,11-5.36,8.29-9.29-3.85-5.6-8.1,4-13.69,3.16,1.5-5.13,6-7.62,9.07-11.19,2.18-2.51,7.49-5,4.6-8.44s-8.17-3.6-12.52-.39c-3.45,2.54-6.95,5-12.12,5.36,10.89-14.92,10.9-16.15.28-18.22,2.49-4,5.13-7.78,7.22-11.84.75-1.47,3.13-4.39,1-5.08-10.85-3.55-.62-6.86.1-9.9,1.2-5.12,9.46-6.19,8.58-13-4-.87-5.49,3.53-10.54,3.45,10.2-14.18,13.49-30.51,20.93-45.55,5.84,5,5.93,11.57,7.93,17.28,5.36,15.29,7.21,32.57,24.07,41.25,1.07.55,2,1.7,1.07,3.19-11.89,2-17-10-28.14-14.7,3.54,12.7,11.36,17.9,20.87,19.68,8.88,1.66,14,7.13,21.16,15.09-13.09-4.38-21.7-13-34.41-14.95,7.87,14.24,24.74,14.61,33.9,27.91-8.66-2.38-13.88-8.56-22.62-7.25,6.64,8.07,16,10.31,24.41,16.13-7.81-.08-13.47-4.55-23-3.5,14.09,7.86,25.84,15.13,33.44,28.34l-34.4-12c6.21,10.68,19.52,11.18,25.79,19.61-.85,4.46-6.79,1.18-6.25,5.77.34,2.89,3.47,3.55,5.91,4.53,3.11,1.24,5.44,3.3,6.91,8-5.09-1.9-9.25-3.59-13.51-5-4.1-1.37-8-5.49-13-2.2l29.26,30.57c-6.27-1.54-11-4.85-16.1-7.61-3.3-1.8-6.8-6.46-10.33-4-3.93,2.78,2.46,6.53,1.21,10.86-7.17-1.27-13.83-5.47-21.9-4.08,15.9,10.31,37.06,11.4,49.84,28.06l-31.7-13.62c-.38.76-.77,1.52-1.16,2.28l37.37,25.39c-12.67-2.11-21.56-7.78-32.35-8.14,3.62,9,15.73,6,18.81,14.83-10,.93-17.81-6.2-27.6-4.89,14,9.78,27.45,20.29,43.59,26.74-12.33-.35-24.36-4.2-36.9-1,8.37,1.57,15.41,4.13,19,13.89H902.22c10.13,1.84,17.52,7.57,25.34,13,10.55,7.33,22.66,11.32,35.13,14.81,10.56,3,19.92-1.12,32.18-2.91-22.08,12-43.52,5.76-64.58,7.3,11.15,5.42,23.05,8.74,33.62,16.43-5.54,1.34-10.2-.53-14.72,1.28-16.78,6.74-34.07,6-51.52,3.37-7.11-1.08-11.61,1.83-11.93,9.38-.23,5.56.42,11.2-.24,16.69-.73,6,1.76,7.45,7.16,7.21,20.2-.91,40.72,4.67,60.61-2.94.65-.25,1.66.22,2.43.52,10.81,4.22,36.33-3.14,44.54-12.91-13-6.95-24.16,2-36.13,4.49A122.05,122.05,0,0,1,976,821.56c12.37-8.4,13.87-8.47,26.35.15,3.57,2.47,7.32,5.85,11.5,4.85,10.1-2.42,15.93,3.61,23,9.55-34-5.86-47.57-4.31-54.35,5.52,24.86.15,50.16,2.75,76-1-3.77-6.22-9.52-1.46-13.87-5,3.88,0,7.17-.53,10.21.1,7.52,1.56,9.9-1.15,9.88-8.65a523.08,523.08,0,0,1,3.71-64.75c.3-2.48,1.34-5.75-1.09-7.34-2.94-1.93-5.47.81-8.05,2.18-7.92,4.2-15.91,8.27-23.87,12.39,7.6-8.68,16.43-15.68,25.18-22.77,1.62-1.31,4.88-2.06,3.49-5s-4.11.79-6.1-.51c3-5,10.88-4.74,13.06-11.71-6.78-.62-11.44,3.43-16.71,5.47-1.44.56-4.14,2.19-4.15,1-.11-11-5.92-1.42-8.69-2.45-1-.38-3.3,2.07-3.31-.8,0-6.66-3.55-2.92-5.66-1.91-4.72,2.28-9.28,4.89-13.85,7.47-15.1,8.51-31.8,12.41-48.45,16.91,13.18-5.78,24.55-13.93,35.48-22.84-10.64,1.71-19.19,9.22-32.37,9.18l54.56-38.1c-.48-.74-1-1.47-1.45-2.2-18,4.57-31.28,20.15-50.2,22.88,16.23-15.69,36.7-25.45,53.8-40-12.65,2.08-22.91,9.47-34.14,14.6,8.2-8.81,17.9-15.61,27.33-22.73,1.85-1.4,5.84-2.88,3.79-5.69-2.4-3.3-4.35.87-6.34,2-12.69,7.16-25.31,14.42-38,21.64l-1.64-2.25c24.7-15.69,44.44-36.71,65.37-56.47l-1.38-2.12-36.05,18.06c13.1-15.22,26.93-29.44,46.18-41.64-16.81-.62-24.84,12.29-37.61,13.48,6.59-4.78,13.54-8.93,20.33-13.31,1.82-1.18,4.29-3,2.3-5.53-1.58-2-3.64,0-5.2.82-3.47,1.87-6.72,4.15-10.18,6.05-7.79,4.29-15.4,9-26.1,11.34,9.28-8,18.8-13.22,25.14-24.78-17.4,4.28-29,15.94-43.77,20.36,23.23-18.63,45.28-38.23,63.94-61.77-18.19,9.64-30.19,29.82-55,30.62,12.95-10.25,26.23-17.91,35.73-29.67l-1.58-2.39L976.4,578.3c12.09-15.79,28-22.67,41.33-32.95-7.42-2-12.45,4.91-19.26,3.75,7.25-12.47,23.37-11.69,32.28-22.41-6.51-1.71-10.93,4.27-16.77,2.73,4-4.93,11.62-4.58,15.59-11.3-14.13.92-25.59,8.44-39.7,9.5,9.55-10.33,24.26-10.47,33.94-21.77-13.59,1.37-23.71,9.09-37.4,10.65,21.86-14.05,44.16-23.94,62.75-39.33l-1.53-2.61-24.23,12.25c6.59-12.87,21.87-15.26,28.28-26.12-21.3-5.5-31.67,16.69-50.82,18.16l31.37-24.17c-10.44,2.13-18.48,7.65-26.9,12.92,6.75-11.11,19.35-16.59,27.41-28.47-10.55,2.24-17,11.19-27.56,10.7,8.52-9.2,21.34-9.62,31.71-18.76l-21.45,5.3c10.44-6.69,17.39-16.56,25.74-25.46l-28.88,10.21c9.6-13,20.24-21.16,32.32-31.18-10.9,1.36-16.37,9.2-24.78,9.41-1-3.51,1.24-5.07,3-6.13,13.16-8.05,21.51-21.16,33.11-30.83,1.57-1.31,4.76-3,2.65-5.29-2.61-2.8-3.49,1-5,2.39-6.24,5.76-12.52,11.49-19.5,17.89.2-5.91,4.29-9.37,3.43-14.85l-10.11,5.57c0-5.3,4.4-7.92,1.64-14.44-3.85-9.11-9.93-16.5-14.78-24.57-15.85-26.38-31.5-53.15-56.61-72.59-10.35-8-10-8.44-16.84,2.72-10.09,16.49-15.59,17.72-32.2,7.16,5.18.55,10.35,1.51,15.53,1.56,9.62.09,16-7.59,14.33-16.79-.46-2.58-.67-5.7-4-5.92-4.08-.28-3,3.11-3.47,5.56-1.58,8.94-6.78,12-15.56,8.78A43,43,0,0,1,900,249.33c-9.27-9.37-19.54-17.63-31.36-23.59-11-5.53-14.45-2.52-14.77,9.57-.35,13.61,9.1,27.91-3.61,40.89,8.5-2.71,13.17-7.09,12.45-15.69-.46-5.54-.31-11.13-.26-16.7.06-8.33,3-10.24,10-5.22,12.53,8.9,24.42,18.69,36.57,28.11-12.72-3.83-22.07-12.83-32.07-20.78-2.53-2-4.57-5.43-8.32-3.43-3.29,1.76-1.51,5.27-1.7,8.07-.76,11.24,1,23.17-10.43,31.1-3.3,2.3-1.87,5.62.57,8.53,3.34,4,6.84,8.08,9.3,12.64,10.3,19.12,24.86,33,46.67,37.79,6.12,1.36,10.63,4.21,12,10.15,1,4.31,8.28,9.56,2.37,12.37-4,1.91-6-6-7.65-10.49-.81-2.18-1.16-6-4.77-5.06s-2.2,4.05-1.51,6.58c.38,1.43,1.25,3.06-1,4.2-4.67-2.65-3.76-8-5.58-12-.93-2-1.06-4.91-4.11-4.58-2.47.26-2.21,2.73-2.61,4.64-.45,2.16,1.61,6.08-2.86,5.82-3.47-.2-4.64-3.14-4.94-6.38a54.33,54.33,0,0,0-1.19-7.72,3.44,3.44,0,0,0-3.47-2.94c-2,.1-2.39,1.76-3,3.37-.73,2.1,1.06,6.17-3.32,5.64-3.21-.39-3.23-3.73-3.71-6.27s-.71-5.2-1.3-7.75c-.75-3.29,0-9-4.05-8.74-5.84.41-2.64,6-2.83,9.49,0,.83-.63,1.64-2,5-1.29-10.38-2-18.34-3.37-26.2-.49-2.95,0-7.9-3.81-8.07-4.49-.2-3.2,4.69-3.79,7.66s-.47,6.38-3.9,9.83c-3.61-11.56-.74-23.53-5.43-34.74-3.83,4.75-3.39,10-5.83,14.73-3.61-3.41-4.52-7.2-4.14-11.64.57-6.86,1-13.74,1.22-20.61.07-2.28,1.88-5.86-2.18-6.36-3.55-.43-3.39,3.35-4.51,5.53-1.52,2.95-.23,7.25-4.71,9.29-.63-2.07-1.68-3.9-1.68-5.73,0-9.82.29-19.63.55-29.45.06-2.26,1-5-2.29-5.46-2.73-.36-2.59,2.42-3.07,4.19-1,3.52-1.79,7.07-3.34,13.26-1.77-7.7.05-12.34.59-17,.37-3.14,2.58-7.32-1.92-8.28-4.2-.9-4.82,3.79-5.65,6.77-2.26,8.19-4,16.52-6.25,24.71-4.63,16.69-14,24.46-29.85,25.23-15.69.77-18.82,3.45-22.25,19-2.4,10.89-5.21,21.57-11.26,31.25-4.66,7.46-11.52,7.7-19,7.32-2.71-.13-4.4-6-7.18-2.16-2.28,3.16,1.74,5.93,3.7,8.25,2.29,2.72,5.05,5.46,8.2,7,14.25,6.82,20.61,20.73,31,31.88-12.45-3.36-17.25-15-26.83-20.29-8.06-4.43-15.28-9.54-19.69-17.29-6.53-11.47-17.77-17.37-27.66-24.76-5.56-4.15-12.59-6.42-18.42,1.89-.5-5.35-.82-9.59-1.34-13.81-.24-1.89-.57-4.16-3.23-4.09-2.05.05-2.31,2.12-2.87,3.53-2.6,6.46-4.15,13.08-3,20.15.79,4.83-.18,9-6.2,10.87-1.38-10.33,2.05-20.58-.94-32C635,322,646,340.21,632.42,352c0-11,.27-19.74,2.13-28.45.44-2.07.86-5.07-2.14-5.78s-3.67,2.21-4.23,4.3c-2.27,8.58-2.59,17.42-3.2,26.21-.28,4,.45,8.75-6,9.85-.76-11.31,3.82-22.46.26-36.4-11.11,14.85-2.19,32.94-13.24,45.65-3.09-9.5,1.09-18,.86-26.64-.06-2,1.29-5.23-1.82-5.71-3.63-.56-3.76,2.84-4.17,5.38-1.29,8.09-2.32,16.24-3.86,24.28-.95,5-1.2,10.66-7.88,12.65-.35-8.76,2.65-16.93,3.3-25.37.23-2.95,2.68-7.51-1.71-8.34-3.49-.66-3.25,4.08-4,6.77-3,11.15-5.89,22.32-8.82,33.48-2.63-9.77,2.91-19.05.34-30.47-8.35,10.83-5.22,23.85-12,33.27a67,67,0,0,1,1.94-14.43c.6-2.55,2.27-5.8-1.17-6.61-2.91-.68-3.64,3.07-4.48,5.34-1.36,3.69-2.17,7.57-3.53,11.25s.16,8.76-4.77,11.28c-1.38-3.46.21-6.57.58-9.75.28-2.36.16-5-2.86-5.24-2.44-.16-2.55,2.49-3.27,4.27-1.92,4.72.33,10.68-4.29,14.68-2.64-3.44,1.63-10.64-3.34-10.86-5.68-.24-3.7,7.05-5.3,11a22.45,22.45,0,0,0-.73,2.71c-3.84.16-1.71-9.63-7.51-4.72-2.36,2-2.3,6.81-3.4,10.53-3.07-2-.27-6.31-3.94-7.6-5.21,2.76-3,9.87-7.74,13.18-2-3.19.74-7.43-2.7-9.9l.17.19c.35-2.7,2.8-3.33,4.59-4.64,20.45-14.85,42.52-27.79,58.67-47.8,11.76-14.57,26.83-24.9,42.4-34.87,4.7-3,14.79-1,13.49-8.67-.78-4.53-8.79-8-13.86-11.56-3.72-2.57-7.65-2.33-10,2.1-8,14.85-19.1,14.85-32.72,10.42-8.09-2.64-15.31-2.24-22.21,3.38-7.62,6.21-16,11.49-23.47,17.87-8.22,7-17.36,10.54-28,9.31-8.63-1-10.64,2.49-8.53,10.22s.43,16.41-3.77,21.92c-1.39-6.75,1.89-14.16-2.66-21.33-7,7.24-4,16.85-7.59,26.56-1-3.3-1.34-4.45-1.7-5.59-1-3.12,1.61-9.16-3.11-8.82s-1.3,5.95-1.86,9.18c-1.53,8.68-.25,17.82-3.78,26.18-1.5-6-1.79-11.77-.06-17.56.6-2,.24-4.32-2.05-4.85-2.55-.59-3.19,1.85-3.53,3.67-.8,4.16-1.2,8.4-1.95,12.57-1.62,9,1.45,18.87-4.81,27.48-4-6.2,1.92-14-5.49-21.17-1.76,15.72-3.77,29.83-8,45.79-2.77-8,.55-14.4-4.09-20.13-5.5,9.12-1.66,19.2-4.46,29.19-3.37-3.38-2.46-6.42-2.64-9.16-.15-2.3.07-5.35-2.79-5.51s-2.9,2.94-3.19,5.16c-.93,7.19-1.83,14.38-2.9,22.75-4.19-4.19-1.15-8.92-4.44-12.21-8,8.73-1.61,21-7.17,30.24-4.86-2.7-.33-8.1-4.91-10.91-5.16,7.37-3.17,16-4.53,24.83-2.75-2.42-1.07-6.67-5.05-7.15A15.94,15.94,0,0,0,388.92,499c-.32,2.59-.34,5.22-.49,7.83-10.49-.64-7.08,9.78-11,14.28-4.91-1-4.45-7.38-10.23-8.56-1.6,14.83,13.63,21.91,16,35.48-3.45-2.72-5.93-4.84-8.57-6.72-2.17-1.54-5.11-3.24-6.93-.47-1.47,2.22,1.5,4,3,5.53,5.67,5.73,13.49,9.07,18.54,16.07-5.82,1.64-10.34.07-14.51-3.39a4.42,4.42,0,0,0-6.32.22c-2.33,2.8.93,4,2.58,5.11,5.08,3.57,10.14,7.2,16.38,8.73,4.28,1,7.49,2.57,6.1,8.47-1.63,6.91-5.21,3-8.39,2.31-1.35-.31-2.57-.29-4,1.51,4.85,6.61,15.12,6.57,19.47,14.54-4.29,3.17-10-1.38-14.44,3.16,6.3,3.09,10.73,7,6.1,14.19-2.62,4.06.74,5.12,3,7.56,4.19,4.62,13,4.75,13.15,13.25-3.46-1.31-7.74-6.47-10.15-3.09-3.34,4.69,3.88,6.24,6.27,9.22,2,2.46,5.1,4.11,7.93,5.72,3.13,1.79,2.64,4.09,1.73,6.61-8.86-2.5-16-8.66-24.94-12.92,0,7.81,9.08,10.93,7.22,14.77-3.72,7.68,2.28,8,5.49,10.92,1.58,1.41,6.35,3.41,2.9,5-6.42,2.88-2.07,5.32-.36,6.85,5.88,5.27,8.33,13.63,13.84,18.09,7.52,6.08,1.61,10.32-.55,13.2-3.4,4.53-5.16-2.3-8.06-3.32s-6-5.23-8.47-1.42c-2.27,3.54,2.3,5.35,4.81,7.25.77.59,2.17.71,2.53,1.42,1.07,2.11,7.84-.88,4.53,4.76-2.26,3.86-4.44.18-6.52-.71-2.39-1-4.54-5.42-7.24-1.45-2,2.88.65,5.84,3.09,7.45,6.86,4.5,4.81,15.1,13.16,18.5,1.21.49,0,1.39-.25,2.19C413.24,753.2,419.52,761.68,426.63,762.59ZM594.31,289l.29.23c.56-3.44,3.33-7.29.4-10.29-8.22-8.38-16.23-17.62-28-20.9-16.78-4.67-28,4.51-37.86,16.63-10.18,12.48-18.74,26-26.83,39.81-1.77,3-5.28,5.18-4.69,9.33.85,6,6.57,0,8.86,2.7-1.4,2.33-3.22,1.89-4.74,2.35-2.54.76-7.31-1.29-7.13,2.86s4.91,3.34,8,3.39a15.83,15.83,0,0,0,5.66-1.14,61,61,0,0,0,22.78-15.07c13.66-14.35,29-22.11,49.26-13.13,6.83,3,18.46-2.25,21.7-8.89,1.47-3,2.45-6.58.38-9.39C599.22,283.13,597.41,290.3,594.31,289Zm741.48,128.33.22.22c.91-2.41,5.5-2.41,4.47-5.72s-4.52-2.27-6.82-1.74c-6.19,1.42-10.94-.94-15.29-4.82-15.21-13.59-30.63-26.95-45.5-40.89-10.2-9.56-15.46-8.8-20.43,4.18-6.6,17.25-19.87,19.85-33.33,6.72-9.42-9.18-19-18.16-28.73-27.05-2.3-2.11-5.46-5.52-8.48-2.64-3.75,3.57,1.36,5.68,3.16,7.64,7.8,8.46,16.74,15.95,23.9,24.89,11,13.75,23.51,19.15,40.66,9.84-1.75,11.39,1,22.35-5.45,32.32-2.72-5,.77-10.61-3.13-16-4.5,7.78-3.4,15.63-4.59,24.23-5-7.89.32-15.4-3.7-23.42-5.43,11.76-1.26,24.59-9.59,34.11V418c-7.55,10.39-7.67,20.44-9.1,30.23a93.14,93.14,0,0,1-.68-11.73c0-1.22-.32-2.89-1.94-2.95-1.14,0-3.32.71-3.33,1.13-.14,9.82-11.48,15.8-9,26.64.72,3.21,1.22,7-.64,10.28-3.37,1-2.74-5.32-6.06-3.12-2,1.34-1.78,4.13-1.57,6.42.34,3.71-.67,7.42-4.68,6.95-3.63-.43-3-4.79-2.56-7.52,2.53-15.22,9.34-28.43,19.7-39.87,8.81-9.73,17.64-19.45,26.38-29.24,2.12-2.37,5.56-5.52.18-7.56-13.21-5-21.75-15.59-31.62-24.68-3.48-3.2-7.12-9.27-11.57-7.65-5.93,2.17-2.36,9.19-3.06,14.1-.42,3,1.81,8-2.44,8.35-5.27.38-2.25-4.92-2.78-7.61s.42-5.88.09-8.77c-.48-4.38,3.62-11.51-2.53-12.33-3.88-.52-3.44,7.42-3.88,11.71-.78,7.5.57,15.35-4.83,23.84,0-10.8.09-19.78-.06-28.76,0-2.36,1.49-6.22-2-6.63-3.79-.44-4.38,3.81-4.59,6.44-.66,8.16-.71,16.37-1,24.57-.11,3.57.41,8.61-4.43,8.16-4.27-.39-2.26-5.42-2.22-8.33.11-7,2.44-14.07-1.39-21.23q-4.12,16.67-8.26,33.32c-.86-7.48,1.06-14.65.24-21.95-.27-2.45,1.27-6.07-2.29-6.61-4.12-.62-4.09,3.68-4.79,6.2-1.5,5.38.5,11.33-2.05,16.95-6.9-3.11-3.79-8.79-4.17-13.18-.57-6.51-5.25-7.85-8.57-4.66-5.87,5.64-10.64,2.53-16,.53-2.88-1.08-5.68-2.87-10.29-.72,24.8,24.16,55.77,37.92,82.57,57.51-22.7-5.17-41-19.73-64.81-29.43,8.09,10,17.91,13.36,23.88,22.11l-28.52-7.15c3.6,5.67,9.85,6.4,12.41,11.81-9.37-.2-17.35-6.1-27.75-5,25.61,17.92,45,40.92,68.89,59-5.92,1.35-10.71-4.21-17-.11,10.62,8.56,22.87,12.12,34.19,17.66-9.48,1.19-18.68-2.06-27.28,0,15.21,6.56,29.32,16.91,46.25,22-18.22-7.62-38.73-1.17-56.45-11.64,2.11,14.81,16.49,12.81,24,19.74-6.45-.49-13.4-4.13-18.4-2.35-10.58,3.77-16.29-2.93-23.64-7-5.16-2.87-10.12-7.36-18.42-4.36,29.31,32.77,67,51.83,104.51,72.34-28,2.32-46.39-18-69.94-25.21,15.56,14.23,34.65,22.9,52.48,33.63a79.16,79.16,0,0,1-35.63-10.59c-12.36-7.35-25.6-3-40.52-7.22,8.1,7.86,16.65,10.09,24.68,16.46-12,.12-21.17-7.06-32.15-3,36.36,13.64,71.79,28.8,106,52-24.72-6.68-46.12-15.63-68-22.91l-1.27,2.82,49.53,28.15c-4.15-.2-6.42,0-8.54-.47-9.27-2-18.94-2.32-27.68-6.75-2-1-5.48-2.45-6.47,1.27-.75,2.78,2.13,3.44,4.33,4.31,5.79,2.3,11.6,4.59,17.2,7.28,17.86,8.55,35.63,17.29,53.43,26-22.42,3.94-40.42-9.78-61-12.9,15.25,10.24,32.45,15.8,49.47,22-19.83-3.95-40-5.92-59.37-12.09,10.37,8.85,23.66,11.4,35.46,17.9-6.65,2.32-12.54-2.22-19.7-.22,6.33,6.28,15.35,4.7,22.27,11.4h-26.91c-.22.72-.44,1.45-.65,2.17l25.52,11.75c-9.7,3.66-17.88-3.31-28.58-.18,19.62,10.79,41.61,10,60.12,23.43-22.47-2.47-42.87-4-61.56-15.53-.28,6.11,4.56,7,4.65,10.73-9.35,3.14-16.31-6.2-25-5-1.59,3.47,3.84,3.86,2.45,6.84-10.32,2-19.67-5.09-29.94-3.22,12.66,7.3,26.25,11.88,39.69,16.93-16.68-3.14-34.36-2-49.12-12.24-4.07-2.81-8.6-2.74-13.27-2.76-3.77,0-5.12,1.5-5.49,5.15-2.63,26.5-1.85,53.08-2.25,79.63,0,2.48,0,6.13,4,4.91,5.13-1.54,11,.86,15.5-2.29,14.7-10.29,33.5-13.15,46.83-26,4.52-4.34,9.4-6.44,16.69-3.29,8.53,3.69,18,3.41,25.79-3.6a92.75,92.75,0,0,1,9.52-7c16.45-11.32,24.69-9.17,38.27,9.13a44.46,44.46,0,0,1,3.2,6.08c2.84,5.42,7,7.81,13,5.15,11.5-5.1,20.87,1.23,30.11,6.1,4.56,2.4,7.85,2.27,12.71,1.23,20.14-4.3,40.33-6.67,57.58,9.49-29.77-16.94-58.29-8.65-86.69,2.53a8.47,8.47,0,0,0,5.8,1.74c30.27-.89,60.53,0,90.84-1.21,20.52-.84,41.38-.84,62.08-.8,6,0,10.3-.77,10-8.42-.43-12.45-.39-24.93-.18-37.39.1-5.44-3.21-5.12-7-5.7-12.65-1.9-25.24-4.24-37.86-6.41,11-5.79,24.38,2.6,34.84-8.86-23.07,1.41-45.26,4.14-67.17-4.56l36.93-15.49-.84-2.44c-11.87,2.15-23.71,4.38-35.61,6.37-2.19.37-5.64,3.47-6.63-.63s3.38-2.67,5.51-3.47c8.41-3.15,17.14-5.64,23.71-12.66l-33.26,10.9c10.87-7.3,19.73-17.35,33.1-20.11-14-.48-26.83,5.72-42.54,3.9,4.61-2,7.4-3.66,10.4-4.56,24.22-7.18,45.65-19.5,65.53-34.74,1.1-.85,2.93-1.64,1.41-4.51l-36,13.15c.86-3.09,3.35-4.66,1.85-6.58s-3.64,0-5.21.54c-8.61,3.24-16.11,9.8-26.7,7.92,21.42-14.94,43.32-29,66.83-40.68-9.38-2.47-16.72,4.44-27.42,4.42,8.15-4.78,14.58-8.65,20.18-15.08-15.59,1.74-25,14.75-39.52,18.62.65-16.58,16.89-15.91,26.11-23.66-6.51-2.15-10.71,2.44-15.7,1.14a11.82,11.82,0,0,1,7.42-7.59c1.59-.64,3.86-1.93,3-3.14-4.61-6.77,1.5-4.63,4.23-5.36,6.62-1.75,14.29-1.23,18.84-7.95-3.69-4-7.79,2.45-11.59-1.83,5.33-9.34,18.42-5.43,24.83-14.34-6.79-2-13.68,5.25-20.37-1.51,9.4-5.83,18.73-11.58,24.91-21-16.23,3.88-27.23,18.85-44.8,19.64l26.88-16.57-1.13-2.17c-16.29,5.14-30.11,16.82-47.9,18.43l60.55-34.61c-.36-.75-.71-1.51-1.06-2.27L1412,569.42c3.87-4.12,8.25-6.55,11.78-9.86,3.27-3.07,8.64-4.31,11-12.46-14.07,7-24,17.39-40.29,18.14,3.22-2,4.56-2.78,5.91-3.59,1.9-1.13,5-2.21,3.2-4.85s-4,.13-5.88,1.15c-2.4,1.28-4.49,3.67-7.81,2.58,5.85-8.37,17-9.83,24.09-19.2-13.79,3.45-23.71,12.54-36.39,14.23,4.41-4.95,13-3.43,16.4-11.27-4.54-.82-7.73,3-12.25,1.3,9.57-7.25,18.69-14.13,27.78-21.05,3.36-2.57,8.54-5.66,5.48-10-3.89-5.49-1.25-7.25,2.55-10,1.82-1.32,4.46-2.67,3.87-6.77-8.38,2.61-14.09,10.35-23,10.22,0-3.67,6.42-5.62,4.24-6.89-7-4.09-.55-5.07,1.08-6.59,4.31-4,9-7.61,13.46-11.52,1.46-1.29,2.86-3.15,1.64-5.16-.95-1.56-2.94-1.26-4.55-.89-4.68,1.07-8.91.59-12.73-3l14.06-8.53c-9.33-.3-17.06,4.35-26.11,4.74,4.06,4.5,8.27,7.56,12.1,11,2.78,2.51,2.05,5.32-.78,7.43-1.76,1.32-3.87,3.21-5.36-.47-.89-2.22-.51-6.26-4.28-5.23-3.34.91-2.28,4.94-3.09,7.62-.74,2.46.45,5.47-2.46,8.46,0-5.94.18-10.84-.06-15.72s1.6-10.36-5.16-14.88c-1.22,10.38-2.28,19.44-3.62,30.87-3-13.5,1.67-24.51-.42-35.5-.42-2.21,2.12-6.16-2.15-6.33-4.75-.2-2.93,4.29-3.22,6.77-.57,4.85-.1,9.84-.8,14.67-.82,5.64,1.1,11.85-2.62,17.58-2.38-3-1.79-5.73-1.64-8.25.7-12.11,1.55-24.21,2.37-36.31.17-2.57,1.08-5.76-2.57-6.34-3.47-.55-4.23,2.64-4.74,5.16-.44,2.22-.13,4.57-.3,6.86-.64,8.91-.26,18-4.13,27.7-3.54-4.4-2.44-8.14-1.82-11.91,1.79-11,3.57-22,5-33,.29-2.21,1.75-5.88-2.06-6.51s-3.7,2.9-4.15,5.41c-2.18,12-3.88,24-5.65,36.25-2-16.08,4.29-32.2.29-48.34-6.42,10.8-3.46,24.41-11.61,34.48.74-12.44,2.17-24.72,4-36.94C1341.28,420.45,1340.57,417.79,1335.79,417.36Zm-650,427.78,0,1.43c-1.56.18-3.12.49-4.68.52-33.63.56-67.25,1.18-100.88,1.6-25.07.32-50.15-.15-75.2.76-11.78.43-12.44,2.68-7.5,13.23,14.12,30.17,26,61.41,43.62,89.9,7.28,11.75,11.07,25.17,17.23,37.4,34.44,68.49,69.46,136.69,104.1,205.08,20.28,40,41.85,79.55,59.93,120.57,23.54,53.4,48.74,106,76.4,157.25,28.18,52.24,52.56,106.3,79.74,159,29.71,57.61,56.64,116.63,84.72,175.07,14.89,31,30.56,61.61,41.75,94.21.56,1.62,1,3.37,2.94,3.33,3.07-.06,3.18-2.94,4-4.94,14.77-37.45,33.49-73.07,51.19-109.16q36.32-74,72.87-147.91c20.31-41,41.52-81.61,61-123,17.61-37.32,35.19-74.66,54.25-111.24,42.88-82.23,82.72-165.94,124.42-248.74,20.48-40.67,40.54-81.54,61.28-122.07,17.6-34.38,37.29-67.77,53.5-102.77,13.38-28.91,30.79-55.56,44.19-84.36,1.44-3.1,5.84-5.53,3.43-9.42-2.27-3.68-6.66-1.73-10-1.71-44.2.32-88.4.51-132.58,1.32-42.25.77-84.49.11-126.72.46q-113.8,1-227.61,3.54c-57.91,1.31-115.87,3.09-173.91,1.47-33.14-.93-66.53.06-99.8.89-23.57.6-47.17.12-70.76.12,12.33-2.55,24.67-3.61,37.1-1.91,1.8.25,4.42.53,4.85-2.05.4-2.39-1.81-3.22-3.75-3.68-12.45-3-24.82-7.19-37.55-.62-2.33,1.19-5.27,2.47-8.48.88-9.52-4.7-19.27-2.16-29-.51-2.42.42-4.91.84-4.45,3.91.39,2.61,3,2.09,4.81,2.11C668.74,845.17,677.24,845.14,685.75,845.14Zm323.52,1105.29c-4.81-3.08-6.42-7.32-8.12-11.5-9-22.14-19.68-43.49-30.38-64.83-25.78-51.44-52.85-102.25-77.31-154.35-20.44-43.52-41.68-86.67-62.14-130.18-31.88-67.79-69.52-132.74-99.9-201.3-13.08-29.54-29.11-57.78-43.58-86.72-17.89-35.75-35.34-71.72-53.35-107.41q-47.38-93.83-95.23-187.43C514.15,957.36,488.84,908.1,464,858.64c-3.7-7.35-8.72-7.42-14.46-4.55-6.69,3.35-1.89,7.84,0,11.51,18.82,35.69,38,71.19,56.6,107,17.71,34,34.8,68.33,52.34,102.43,19.94,38.78,40.24,77.38,60.07,116.21,17.75,34.76,34.07,70.27,52.82,104.47q33.57,61.23,64.71,123.67c14.66,29.27,28.33,59.05,42.08,88.76,17.62,38.06,37.1,75.21,55.75,112.76,20,40.16,39.28,80.64,59.1,120.87,25.46,51.68,51.29,103.19,76.68,154.9,9.82,20,18.74,40.46,30.91,59.23,4.66,7.18,8.45,7.37,13.46.44a164.85,164.85,0,0,0,11.52-18.3c28.63-53,54.62-107.44,81.19-161.48,32.08-65.21,63.82-130.58,96.49-195.52,22.52-44.78,43.76-90.19,66.06-135.08q52.26-105.15,105.2-210c25.89-51.55,51.64-103.19,78-154.51,15.87-30.89,33.56-60.87,49-91.94,23.7-47.51,46.72-95.35,74-141,3.15-5.28,1.14-8.28-2.37-10.4-3.7-2.24-8.28-2.47-11,2.53-1.54,2.89-3,5.81-4.65,8.67-24.09,42.53-44.7,86.83-67,130.27-37,72-74.85,143.56-111.79,215.58-57.94,113-112.91,227.38-169.35,341.07-39.64,79.86-76.37,161.13-117.76,240.15-12.6,24.07-22.87,49.3-34.46,73.89C1041.43,1883.65,1022,1915.27,1009.27,1950.43ZM850.59,233.29c-.19-15.84,5.81-19.71,19.52-11.7,9.87,5.77,20,11.29,27.93,20a53.92,53.92,0,0,0,17.27,12.86c4.31,2,7.67,1.58,11-.67,3.54-2.37,1.61-5.9,1.08-9-1.75-10.28-8.91-17.32-15.22-24.82-26-30.92-49.79-63.54-73.69-96-10.85-14.76-25.19-15.94-35.13-.36-10.95,17.18-23.79,33-35.36,49.66-16.93,24.42-39.95,42.43-63.69,59.5C695.6,239,689,246,686.41,256.34c-3.1,12.66-8.44,23.77-18.12,33.08-8.3,8-7.25,10.94,4,14.12,14.86,4.2,29.7,7.95,42.23,17.88,4.89,3.87,15.07-1.39,17.2-8.14a63.41,63.41,0,0,0,1.88-9.62c1.82-12.29,7.58-23,14.54-32.89,5.16-7.33,12.89-10.92,22.24-10.46,14.33.7,22.94-7.23,23-21.29a78.42,78.42,0,0,1,3.77-22.15c2.37-7.94,5.54-18.2,13.74-18.56,8.54-.37,13.75,9.06,16.66,17.31,5,14.17,9.24,28.61,14.47,42.7,1.47,4,1.22,11.77,8.1,10.09,6.23-1.53,3.85-7.94,3.24-12.71C852.42,248.23,851.53,240.76,850.59,233.29Zm676.55,547.63c-4.16,1.85-8.24,1.62-12.48,1.65-17.38.16-34.79-3-52.18.74-5.65,1.22-7.85,3.61-7.68,9.18.23,7.55-.29,15.12.1,22.64.3,5.79-2.31,12.69,2,17.07,3.68,3.7,8.9-2,14-1,9.59,1.78,17.88-1.11,25.24-8,6-5.65,13.79-7.94,22-4.61,4.11,1.66,6.86-.24,10.06-2,4-2.21,8.2-4.05,12.32-6,2.51-1.2,4.84-.91,5.37,2,1.93,10.79,8.4,9.53,16,6.53,7.13-2.8,15.41-4.13,19.32,3.65s9.34,8.92,16.73,8.75a122.22,122.22,0,0,1,16.75,1.05c6.63.75,10.66.48,6.29-7.89-10.63-20.34-21-40.78-32.92-60.44-15.93-26.41-32-52.75-47.76-79.24-15.59-26.18-30.76-52.61-46.43-78.75-5.36-8.93-14.36-12.3-25-12.41l17.49,14c-9-.81-15.53-4.76-23.44-2.23,4.62,4.38,11.78,4,14.93,10.13-5.81,1.49-12.85-2.65-16.13,2.39-3.08,4.74,6.84,4,6.42,9.23-4.73,2.21-10.24-.87-17.86,3.72,15.74,1.59,28.49,4.61,42.12,11.18-15.17.76-28-4.58-41.38-2.34,8.08,5.78,16.28,10.71,26.83,14-7,1.5-13.08-2.32-19,2.77,9.55,5.56,18.79,9.51,29.3,11.41,8.12,1.47,17.74-1.33,24.84,6.42-4.23,2-6.94-1-10.09-1.36-2.1-.28-4.76-2.48-5.78.91-.87,2.93,2.26,3.88,4.19,4.53,4.46,1.51,9.13,2.44,13.72,3.6,0,.54-.05,1.08-.07,1.62h-18.61c3.4,4.93,9.07,4,13,8.52C1500,692.23,1492,692,1485,687c-2.27-1.6-5.07-2.4-7,.32-2.64,3.61,1.52,4.1,3.06,5.78,2,2.14,5.61,2.22,7.09,6.23-8.11-.63-14.51-4.73-21.4-7.29-1.85-.69-4.26-1.34-5.27.7-1.09,2.22,1.2,3.39,2.87,4.41,14.27,8.79,29.59,12.38,46.25,9.06,4.59-.92,9.07-1.74,13,1.47-12.41,7.16-26.42,6.64-40.18,8.33,17.51,4.2,35.86-.51,52.91,6a244.25,244.25,0,0,1-32.49,3.39c-10.94.25-21.35-5.51-33.62-3.91,10,6.44,21.39,6.3,31.42,12.18-11,4.3-21.94-1.65-33.53,2.53,9.28,5.33,19.27,5.23,28,11.79l-29.61,1.65c14,8.29,28.12,7.56,42.35,14.32-9.62.55-16.22-4.62-25.6-.63l33.93,10.62c-10.11,1.05-19.62-3.6-32.41-.45A133.2,133.2,0,0,0,1527.14,780.92ZM1249.63,303.31c-17-.16-28.69,4.41-38.83,14.64a102.39,102.39,0,0,1-17.41,14.47c-7.4,4.72-7.44,10-.6,14.5,11.94,7.81,20.68,19.06,31.72,27.78,10.84,8.56,19.62,5.8,24.33-7.43a70.55,70.55,0,0,1,7.76-14.66c2.63-4,6.78-6.16,10.48-1.48,13.74,17.38,31.56,30.65,47,46.34,4.26,4.33,9,12.65,16,6.34,6.06-5.43-.34-11.81-3.28-17.36a12.5,12.5,0,0,0-1.24-1.52c-13.83-18.41-25.68-38.13-37.45-57.82C1278.51,311.14,1265.52,303,1249.63,303.31ZM1112.82,838.83c10.33,1.45,19.34-1.65,28.55-1.43,33.56.78,67.16-1.47,100.71,1.21,7.24.58,9.34-3.08,6.08-9.6-2.48-5-5.1-9.87-7.41-14.92-7.9-17.23-19.7-25.71-39.62-10.73-9.67,7.28-20.61,11.39-33.27,8.46-3.42-.8-7.44-1.27-10.51,1.15a105.33,105.33,0,0,1-33.73,17.75A18.2,18.2,0,0,0,1112.82,838.83Zm-684.4-39.5C421,793.41,416.75,802.71,411,803c-13.32.65-16.35,7.54-14.2,19,.41,2.22,0,4.58,0,6.88-.38,14.89,2.56,17.09,17.41,13.29,10-2.55,19.39-4,29.09,2.69,7.62,5.23,14.9.19,14.79-9.48-.08-7.49-1.6-15-1.93-22.46-.34-7.82-3.93-8.73-10.15-5.7A41,41,0,0,1,425,811.6c-2-.14-6.49.35-5.4-1.74,1.36-2.6-1.76-8,4.31-8.13C425.53,801.71,428.1,802.75,428.42,799.33ZM372,505.2l3.12,1.22c22.37-33.24,39.24-70,65.1-101,4.48-5.37,3.74-9.71-5-9.41-4.31.15-8.79,2-12.56,1.42-11.2-1.67-13.91,5.68-16.83,13.41-8.55,22.63-17.23,45.21-25.56,67.92C377.13,487.4,374.75,496.36,372,505.2Zm443.71-290c4,1.21,7.3,2.9,7-.77-.34-4-4.2-6.16-7.91-7.95s-5.64-.08-7.12,2.77c-5,9.58-9.11,19.22-10.86,30.23-3.38,21.22-10.94,29.34-28.12,28.88-10.41-.29-16.78,6.24-21.8,14.5-6.08,10-8.52,21.18-11.21,32.33-2.94,12.2-15.07,16.13-25,8.64-9.24-7-19.93-11.15-30.87-14.64-1.59-.5-4.25-1.61-5,1.08s1.89,2.81,3.62,3.56c12,5.26,23.8,10.81,34.41,18.76,9.61,7.2,23.87,2.23,28.95-8.8,4.7-10.2,6-21.34,10-31.71,3.09-8.07,7.77-12.71,17.53-12.4,18.09.56,27.15-6.74,31.9-24.17,2.92-10.7,5.17-21.58,8.33-32.2C810.58,219.73,811.46,214.5,815.71,215.16Zm318.72,148.26c-8.71-10.56-18.81-18.91-28.32-27.8-1.61-1.51-4-2.69-6.28-.77-2.76,2.33-.16,4.3.89,5.93,4.63,7.14,9.62,14,14.28,21.17,1.08,1.65,4.44,3.36,2,5.62s-4.71,0-6.74-1.87c-4-3.57-7.42-8-13.27-9.24-2.26,8.73,3.53,13.22,8.41,17.91,5.74,5.5,6.17,5.23,10.4-1.07.81-1.21,2.64-1.8,4.08-2.53C1124.43,368.41,1129.06,366.11,1134.43,363.42Zm-678.72-1.84a15.59,15.59,0,0,0-8.49-7.22c-6-2.36-11.19-1-15.1,3.63a136.26,136.26,0,0,0-12,16.54c-1.92,3.11-5.5,7.07-2.5,10.6,2.54,3,5.77-1.26,8.82-1.81a42.15,42.15,0,0,0,10.29-2.94C445.27,376.4,449.81,368.44,455.71,361.58ZM622.49,844.06c5.24-.23,10.49-.3,15.71-.73,3.62-.3,9,1.58,9.59-4s-4.51-7.48-9-8.37c-14.58-2.88-27.85,1.28-40.5,8.15-1.73.95-3.62,2.2-2.54,4.52.81,1.72,2.84,1.53,4.35,1C607.46,842.3,615,844,622.49,844.06ZM1153.6,724.38c-14.86,1.71-28.59-4.22-43.66-3.32,9,9.63,36,14.61,45.16,7.7,3.16-2.39,9.23-.53,9-4.49-.3-4.55-6.54-4.23-10-6.28a50,50,0,0,0-9.88-4.33c-7.66-2.51-14.47-7.8-24.82-8C1129.87,715.56,1142.94,717.06,1153.6,724.38ZM657.76,837.3c2.22-.54,4.41-1.43,6.63-1.52,3.27-.15,7.29.58,8-3.57s-3.13-5.8-6.48-7.43a13.36,13.36,0,0,0-10.44-.47c-3.21,1-8,.68-7,6.05C649.25,835.3,653.23,836.79,657.76,837.3Zm621.72-11a14,14,0,0,0-2.86-2.39c-6.43-2.81-13.19-3.82-20-2-2.16.57-5.74,1-5.46,4.53.29,3.72,3.53,6.59,6.43,6.29,6.62-.67,12.88-3.75,19.73-3.92C1277.94,828.73,1278.55,827.38,1279.48,826.27ZM419.13,395.17c7.16-1.11,14.37-2,21.48-3.43,3.63-.72,6.38-3.2,8.19-6.54,1-1.9,3.6-3.85,1.77-6-2.16-2.5-4.15.1-5.71,1.53-3.58,3.27-8.25,3.82-12.56,5.18C427.11,387.57,422.54,390,419.13,395.17Zm-1.75,310.16c-.26-.67-.31-1.46-.74-1.81a64.79,64.79,0,0,0-18.14-11.19,3,3,0,0,0-2.56.8c-1,1.13-.5,2.3.66,3.24,5.07,4.06,10.14,8.17,16.18,10.72C414.4,707.77,416.73,708.09,417.38,705.33ZM391.23,578.69c-4.74-4.38-11.06-5.35-17-7-1.16-.31-2,1.67-1.45,2.95,2.51,6.34,9.26,3.24,13.53,5.81C387.59,581.24,389.46,581.38,391.23,578.69ZM418,793.12c11.35,2.35,14.53,1.43,19.34-5C430.24,786.56,424.91,790.06,418,793.12Z" transform="translate(-321.63 -14.83)" style="fill:#231f20"/><path d="M1312.76,15.38c34-3.9,56.16,28.38,57.25,51,1.85,38.45-27.53,67.25-60.24,67.32-34.94.08-55.81-24.37-58.25-59C1249.41,44.72,1275.22,10,1312.76,15.38Zm50.72,56.29c2.64-32.95-24.72-49.59-52.1-48.77-30.75.91-57.58,23.72-56.27,50.21,1.74,35.06,20.11,56.41,55,56.26C1340.66,129.23,1367.27,104.25,1363.48,71.67Z" transform="translate(-321.63 -14.83)" style="fill:#231f20"/><path d="M1668.38,834.26c-1.68,4.47-5.28,6.29-9.77,6.51-2.61.13-5.88-.08-5.36-3.8.77-5.45,4.91-8.51,9.92-9.05C1666.47,827.57,1667.19,831.57,1668.38,834.26Z" transform="translate(-321.63 -14.83)" style="fill:#231f20"/><path d="M354.1,853c-5.24-.67-9.29-1.65-13.45.86-3.51,2.11-7,.32-9.9-2.17-1.28-1.09-2.3-2.56-1.73-4.27s2-2.39,3.88-2.36c2.31,0,4.73-.53,6.89,0,6.41,1.58,12.11,2.19,17.51-3.29,2.57-2.62,6.84-.94,10.15.9,2.7,1.5,2.14,3.79,1.48,6-1.19,4-4.72,4.08-8,4.29C358.32,853.16,355.68,853,354.1,853Z" transform="translate(-321.63 -14.83)" style="fill:#231f20"/><path d="M987.37,983.17c-4.64-10.15.1-18.82,10.89-19.87,19.28-1.88,38.59-3,58-2,2.74.13,5.71.58,10.41-2.51-28.35-10.19-57.3,3.31-83-9.72,9.29-6,20.77-1.23,33.57-5-15.37-5.12-28.41-4.4-41.64-2.86,8.13-4.11,19.62-1.54,23.36-13.15.18-.55,3.06-.07,4.61-.4,8.71-1.83,18.81.34,25-8.78,1.56-2.29,4.23-1.23,6.43-.57,5.33,1.61,10.77,3,15.91,5.07,7.1,2.91,13.16,4.86,16.08-5.3.62-2.15,4.39-3.41,6.68-5.06-10.31-9-9.8-11,5.21-18.39-3.73-4.17-13.15-1.14-12.58-10.83.34-5.77-5.88-12.94,7.85-13.47-13-2.45-10.3-11.09-8.69-16.67s8.49-2.26,13-2.7c3.84-.37,3.43,2.93,3.48,5.59.26,13.44.62,26.88.88,40.32,0,2.29-.34,4.58-.35,6.87-.11,21.22.7,22.08,21.61,22.07,12.38,0,24.81.63,37.18-2.38-10.31-5.84-21.77-2.33-32.63-4.94,11.94-2.65,24-4.48,36.31-1.83,1.79,14.58,14.92,6.82,22.2,10.76,8.54,4.62,18.74,5.53,28.56,6.5,2.32.23,4.2,1.31,6.55,5.5-54,.19-106.59-.86-159.07,2.33,24.39,1.83,48.53,5.76,73.15,2.56,15.94-2.06,32.3-1,48.46-1.22,2.79-.05,5.36.37,5.09,4.23-.21,3.05,1.62,4.72,4.28,5.88,1.84.8,5.45-1.15,5.36,2.51s-3.5,3.37-6,3.54c-26.61,1.74-53.17,4.79-79.91,3.47-5.44-.27-9.87-7.21-16.41-2.2,1.42,4.15,5,5.39,9,5.54,25.51.93,50.83,7,76.6,1.57,6.45-1.37,13.69.92,21.61,1.62-7,4.74-15.26,2-22.5,7,9.84,2.7,19-.22,27.18,4.16-22.79-1.11-45.17,3-67.75,4.51-2.31.15-4.62.19-6.92.43-1.68.18-3.58.79-3.72,2.61-.2,2.76,2.21,2.79,4.15,2.9a28.11,28.11,0,0,0,6.92,0c19.68-4,39.32,1.08,58.93.16,12.53-.59,21.29,9.84,34.11,9.1-2.93,6.3-8.89,4.2-12.92,6.11-13.47,6.39-27.13,9.89-42.91,8.74-26.61-1.93-53.45-.64-80.2-.61-3.21,0-6.58-.69-12.35,2.56,36.44,4.55,70.54,3.39,106.48,3.49-9,4.3-17.74,3.34-25.59,8,4.77,3.73,10-.18,14.16,3.93h-35.73c9.84,7.39,21.66,3.74,33.35,9-8.13,5.67-16.35,7.7-24.85,11.09,9.88-.1,17.06,4.73,24.2,11.87-23.19-1.4-45.83.66-68.58-1.81-7.76-.84-16-4-24.85,3.81-5.43,4.76-18.34,1-27.89,1.24-4.86.1-9.89-.19-15.65,5.23a133,133,0,0,0,33,.46,255.62,255.62,0,0,1,40.85-1.65c10.06.49,20.13-1.66,30.4-1.68,15.29,0,30.12,3.35,45.25,3.69,7.34.16,7.33,6.46,9.55,10.78,1,1.9-1,2.85-2.76,2.88-19.1.29-38.22.86-57.12-2.76-1.14-.22-2.1-1.42-3.93-2.72l40.9,3.34c-11.85-9-25.79-9.62-38.21-6.74-9,2.09-17.19,1.19-25.78,1.14-5.22,0-10.43,0-17,0a39.33,39.33,0,0,0,17,7.79c23.89,5,48.28,6,72.52,8.11,3.12.27,8.24-1.32,7.52,4.84-.68,5.91-5.06,3.2-8.38,3.33-8,.32-17.29-3.67-23.28,7.13l17.41,1.3c-2.72,3.29-6,3.66-9.08,2.4-13-5.31-26.61-3.07-40-3.16-3,0-7.49.31-7.66,4.49-.19,4.46,4.31,2.84,6.87,3.47,4,1,8.12,1.66,12.11,3.24-12.77,0-25.55.08-38.33-.05-2.89,0-7.27-1.23-7.83,1.65-.9,4.63,4,2.58,6.36,3.22,18.41,4.86,37,2.75,55.47.74,3.73-.41,3.72-.89,3.59,3.67-.09,2.89,2,3.15,4,3.05,4.8-.24,5,2.94,5.4,6.4.58,4.43-3.61,3.63-5.16,5.36-5.79,6.48-14.37,2.33-20.73,7.09l16.78,3.22c-19.36,11.66-41.35-.24-61.94,5.85,16.85,8.68,35,1.33,52.26,4.92-8.63.5-17.29.72-25.89,1.57-8.39.82-16.94,1.39-25.53,6.06,5.07,3.62,9.8,2.3,14.39,2.09,10.2-.46,20.41-.91,30.62-1.11,2.25,0,6-1.36,6,2.84s-2.72,5.13-6.62,5c-14.18-.31-28.39.12-42.55-.59-16.28-.82-32.61-4.13-48.27,3.85,2.86,5.54,7.29.59,10.7.34,21.11-1.56,42,.7,62.91,2.78,11.08,1.1,22.29,1.93,33,5.37,2.1.67,5.26.5,4.64,3.4s-3.55,2.18-5.87,1.58c-8.8-2.27-17.72-.7-26.6-.73-2.86,0-5.7.46-8,2.9,2.24,4.18,6.31,1.82,8.86,4-10.85-1.63-21.85.06-32.66-3.94-9.36-3.46-19.62-1.26-29.47-1.64-1.75-.07-3.65.89-3.08,2.76.36,1.17,2.41,2.47,3.78,2.57,9,.67,18.09,1,27.88,1.54-2.88,5.37-9.84.86-12.1,6.51,6.71,2.29,13.41,4.68,19.73,8.23,3.3,1.86,4.34,1.22,1.25,4.37-2.88,2.94.05,3.82,2.51,3.62,6.9-.58,13.93-.78,20.59-2.42,4.26-1,5.43.09,6,3.61s-1.35,4.73-4.56,4.71-6.74.61-9.88-.09c-21.47-4.81-43.12-1.31-64.67-1.9-6.3-.17-12.57-3.23-18.73-5.33-4-1.35-5.38-5.19-2-7.39,4.27-2.76,6-9.14,12.46-8.7,1.85.12,3.61-1.09,3.57-2.69,0-2.14-2-3-4.15-3.45-4.54-.86-10,0-12.7-6.48,4.47-2,10-1,13.88-5.49-6.38-4.15-13.55-4.61-20.89-6.18,2.07-4.66,8-3.36,11.5-7.25-8.7-4.08-17.79-.47-25.93-3,.53-4.09,3.26-3,5.33-3,12.2-.23,24.39-.35,36.59-.69,2.46-.06,6,.18,6-3.51s-3.33-3.67-5.92-3.54c-9.54.49-19.08,1.07-28.6,1.87-3.71.31-6.64.41-5.58-4.62,1.13-5.39-4.1-7.83-5.84-12.1a31.54,31.54,0,0,1,19.06-6.92c18.37-.87,36.71-2.47,55.05-3.8,2.64-.2,5.19-.67,6.51-4.27-4.67-3.11-10.16-2.11-15.06-2.21-24.54-.49-48.66-6.16-73.27-5.6-2,0-5.11,1.61-5.89-1.53-.66-2.66,2-4.28,4.07-4.77,7.12-1.69,11.69-10.14,20.49-7.49,1.75.52,4.29-.21,4.15-2.86-.09-1.84-2-2.44-3.67-2.66-3.6-.46-7.21-.79-10.8-1.29-2.89-.39-5-1.66-4.82-5,.1-2.54.24-4,3.26-5.89,15.63-9.72,32.52-13.75,50.71-13.6,3.86,0,7.95.4,11.8-4-23.4-3.54-46.18-5.51-68.89-6.83,7.2-5.22,7.2-5.22,3.06-10.55,17.24-3.34,36.11,2,54.83-8.51a180.93,180.93,0,0,0-59.74-5.68c40.55-7.81,81.43,3.6,123-1.38-3-4.57-6.1-4.28-9-4.4-17.8-.73-35.61-1.33-53.4-2.13q-20.23-.92-40.44-2.27c-1.62-.11-5.31,1.94-4.45-2.58.46-2.4.5-4.83,4.35-5.21a205.82,205.82,0,0,0,20.36-3.52,18.56,18.56,0,0,0,10.07-5.1h-41c10.31-7.83,23.23-1.63,33.66-10.79-9.78,0-19.55,0-29.33,0-4.55,0-8.63,0-8.91-6.3-.2-4.43.15-7.13,5.64-8.06,13.19-2.24,26.28-1.42,39.43-.26,5.7.51,11.48,2,17.1-1.49-16.64-4.31-33.41-6.68-50.63-4.91-2.94.3-5.87.72-8.81.89-3.33.18-3.48.07-3.34-4.27.14-4.13-6-1.16-5.7-5.22,3.27-.14,6.55-.45,9.82-.38,12.1.24,24.77-1.54,36.17,1.45,15.28,4,30.34,6.32,45.82,4.7,5.84-.62,13-.07,18.5-6.89-4.86-1.12-8.57-2.14-12.34-2.83-11.91-2.18-23.84-1.42-35.89-1-18.32.62-36.7-.46-55-.88C989.67,976.87,987.14,978.48,987.37,983.17Zm30.38,172.39c23,2.64,46,8,69.1.16C1071.53,1152,1027.77,1151.47,1017.75,1155.56Zm-21.7-148.65c21.92,4.94,44.16,3.39,66.36,3.15C1040.61,1002.5,1018.34,1005.17,996.05,1006.91Zm89.77-73.9c-21.14-1.13-42.24-1.86-63.32.53-1.7.19-3.48.72-3,2.85.44,1.92,2.43,1.84,4,1.83,10.85-.13,21.71-.47,32.56-.43C1066.17,937.83,1076.14,937.21,1085.82,933Zm87.2,71.63c-19.32-.55-38.45-5.2-57.73-1.8C1134.55,1004.85,1153.64,1012,1173,1004.64Zm-167.8,94.92c17.69-1,34.87,1,52.12,1.63,2.22.08,5.42.32,5.53-2.63.09-2.66-2.94-3.21-5.22-3.22q-23.7-.12-47.39.05C1008.4,1095.4,1006.32,1096,1005.22,1099.56Zm72.09-126.14c-16.13-5.94-32.52-4.38-48.92-2.47C1044.63,973.59,1060.84,976.05,1077.31,973.42Zm-51.68,245.66c13.3,5.17,27.4,3.62,41.08,5.46.86.12,2.63-1.31,2.8-2.24.37-1.91-1.4-2.63-3-3A107.72,107.72,0,0,0,1025.63,1219.08Zm38.42-94.32c-13.06-6.54-34.26-5.87-41.28,1C1035.7,1123.48,1048.71,1126.05,1064.05,1124.76Zm53-94.32c-15.51-2.56-30.82-3.23-45.64,2.7C1086.64,1032,1102,1033,1117,1030.44Zm-54.34,195.89c-10.34-2.91-18.06-1.07-25.67-1.26-1.73,0-3.47.67-3.17,2.69a3.55,3.55,0,0,0,2.57,2.31C1044.32,1229.66,1052.53,1231.54,1062.69,1226.33Zm-35-117.76c8.2,4.62,14.52,4.65,20.93,3.77,1.5-.2,3.43-.59,3.61-2.56s-1.49-2.64-3.16-2.84C1042.78,1106.21,1036.49,1105.82,1027.71,1108.57Zm57.42-9.81c-2.76,1-7.83-1.76-8,2.68-.16,3.74,4.75,3.51,7.8,3.26s8.69,1.24,8.57-3.41C1093.4,1097.49,1088,1099.79,1085.13,1098.76Z" transform="translate(-321.63 -14.83)" style="fill:#231f20"/><path d="M846.39,1007.18c21.73,1.05,43.41,2.63,65.22,0-.4,1.94-3.78,1-3.36,3.42.39,2.26,2.29,1.95,3.84,2,5.38.05,10.75,0,18.34,0-8.25,5.41-11.67,12.31-12.82,12.73-5.81,2.12-6.72,6.7-7.19,12.42,8-2.76,10.77,6.66,17.54,8.09-5.57,11.26-16.76,13.55-29.35,15.42,5,3.86,9.4,1.5,12.14,4.51-9.27,11.77,5.9,6.45,7.42,11.52-.63,3.2-4.43,4.19-7.24,6.27-1.79,1.33-4.9,4-4.59,4.55,4,7.7-2.54,4.41-5.09,4.93-2.15.45-4.68-.5-6.68,2.67,5.48,2.85,11.22,1.22,16.68,1.51,2.2.12,5.12-1.18,5.82,1.92.55,2.41-2.38,2.66-3.88,3.65-4,2.61-10.29,4.67-1.68,9.44-6.71,7.08-1.42,13.63.89,20.33.09.24-.1.62-.23.9-5.17,10.66-5.35,13.14-2,25.91,3.2,12.32-1,23.09-7.14,33.47-1.11,1.88-2.45,3.48-4.61,2s-3.09-4.08-.56-5.67c3.71-2.34,3.95-4.89,1.81-8.16-2.78-4.22-.14-3.94,3-3.88a2.86,2.86,0,0,0,3.12-3c-.22-2.24-2.17-2-3.81-1.85-1.3.1-3.1,2.15-3.53-1-.3-2.14.13-4.16,2.39-4.77,8.68-2.33,1.22-10.37,5.22-14.53.8-.83-2.2-3.54-3-3.13-11.35,6.07-12.51-7-19.09-9.48.84-3.49,5.3-1.3,6.1-4.62-2.1-4.1-6.73-.83-9.53-3.06-.11-4.51,5.41-1.35,6.28-4.51-.42-3-3.48-2.57-5.27-3.73-1.6-1-4-1.11-4.32-3.49-.35-3.17,2.72-3.22,4.54-4.34,2-1.24,6.36-.28,5.72-3.89-.57-3.27-2-6.83-6-8.32-3.81-1.42-11.08.93-8.79-8,.36-1.4-4.72-3.63-8.05-4.53-5.54-1.48-6.27-5.78-1.6-8.22,4.47-2.34,6.07-6.6,9.45-9.56,4.86-4.26,14.75-8.73-.67-14.48-4.75-1.77-9.72-6.25-15.89-7.14-2.77-.39-5.37-1.73-5-5,.47-4.15,4.2-2.68,6.27-2.36,13.6,2.09,26.4-2.59,39.54-4.26,1.08-.14,2-1.37,3.82-2.67-7.24-3.37-13.34-5-19.53.4-2.59,2.23-26.1,3.34-28.78,1.76-1.92-1.13-1.4-2.76-.94-4.19,1-3.08,3.08-4.7,6.56-4.93,7.54-.5,15.07-1.27,22.6-2,3.1-.32,6.7.52,9.12-3.5-11-.78-21.67-2.36-32.27-2-8.64.26-11.16-6.94-15.68-11-2.92-2.65.14-7.31,5.33-9.22,16-5.85,29.88-17.48,48.46-16.82-6.63-4.17-13.69-3-20.36-2.6-12,.66-23.51,1.14-30.16-11.67,18.32-3.9,37.55-.45,58.16-6.17-7.34-2.76-12.86-5.15-18-3.68-14.24,4.09-28.16-1-42.19-.22-4.86.26-4.83-4-5.43-5.91-.77-2.4,2.62-2.75,5.09-2.48,4.82.52,9.78,1.71,16.25-3.64-12.69,1.82-20.78-7-31.4-5.54-1.87-12.44,10.19-8.94,16-13.9-6.54-3.91-13.55-1.23-19.74-5.15h34.08c.05-1.14.09-2.27.13-3.41-11.65-2.49-23.72-.85-35.62-1.52,3.1-10.9,10-16.05,23.11-17.34,3.28-.32,6.59-.24,9.89-.36,17.87-.67,18.69-1.61,16.86-19.68-.46-4.57-.88-9.15-1.62-13.67-1.47-9,1.48-14.39,12.14-14.33-1.64,3-10.89,5-1.1,9.53,5.64,2.58,3.78,9.55-2.81,12.93-2.27,1.17-3.75,2.93-3.55,5.36.2,2.59,2.32,4.56,4.73,3.89,4.45-1.24,5.45.39,6.14,4.44,2,12.17,3.54,13.36,16.19,11.59,8-1.12,15-2.64,19.21,7.38,1.56,3.68,7.78,5.7,12.85,6.5,2.12.33,5.09-.79,5.9,2.23.91,3.37-1.27,6.06-3.91,7.22-8.78,3.88-16.94,9.49-27,10.11-2.38.15-6.3-.66-5.86,3.15.36,3.12,4,2.84,6.62,2.64a28.18,28.18,0,0,0,5.81-1.14c10-3,16.79.24,19.75,9.93-24.39-.58-49.48-6.45-74.58-.26,20,3.94,40.59,2.12,60.31,6.49-2.86,3.22-13.84-.53-8.75,10a65.62,65.62,0,0,0-8.3,1.85c-2.3.83-5.65,1.19-5.33,4.77.36,4,3.66,4.31,6.66,4,5.23-.55,10.45-1.35,15.62-2.33,4.4-.85,8.3-.64,11.46,2.71-1.57,4.05-6.27,2.43-8.45,5.82,2.32,3.7,7.67.77,10.42,4.68-7,2-7.38,5.9-3.13,11.11.83,1,3.17,3.09-.37,4.25-1.75.57-3.66,2.51-5-.08-6.16-11.74-17.82-6.1-23.08-3.11-8.15,4.62-15.43,3.23-23,3C868.5,1002.51,857.52,1004.52,846.39,1007.18Zm22.77-83.91c9.72,2,18.47,7.42,29.33,3.75,9.88-3.34,21-2.93,33-8.58C908.49,911.88,889.29,923,869.16,923.27Zm-39.47-10.66c14.24,4.19,28.34,4.2,42.29-.79C857.82,908.54,843.68,905.53,829.69,912.61Zm89,80c-14.91-3-29.73.32-44.58.27a3.15,3.15,0,0,0-3.21,4c.48,2.11,2.54,1.8,4,1.67C889.55,997.32,904.36,997.48,918.67,992.63ZM884,935c-12.49-2.74-24.91.33-37.33.21-.53,0-1.42,1.31-1.53,2.1-.23,1.55.93,2.41,2.35,2.44C859.84,940,872.38,941.49,884,935Zm-.7,111.9c10.21,2.81,20.22,1.58,30.15-1.11C903.2,1042.83,893.18,1043.8,883.27,1046.92Zm-4.52-138.68c9,2.08,17.91,2.63,26.61-.74C896.41,905.49,887.54,905.43,878.75,908.24Zm-12.64,178.91c10.58,5.22,16.74,4.81,23.6-2.11C881.33,1085.36,874,1083.41,866.11,1087.15Z" transform="translate(-321.63 -14.83)" style="fill:#231f20"/><path d="M1408.41,1045c-4.28-5-9.56-10.12,1.74-13.07.3-.08.72-.32.78-.56,2.56-10.92,12.15-12.2,21.41-15-10.57-3.64-20.94-5.83-30.85-10.73,3.79-5.34,11.42-.79,14.56-5.88-7.51-5.49-16.6-5.91-26-7,2.42-7.14,8.88-7.47,13.93-9.74,2-.88,5.16-.54,5.15-3.5,0-2.3-1.91-4.24-4-5.26-3.23-1.55-6.47-3.22-10.25-3.23-2.65,0-6.42,0-6.27-3.21.21-4.39,4.62-2.52,7-2.42,15.86.66,31.55-2,47.36-2.2,3.33,0,6.6-.33,9.56-2.45-1.56-3.89-4.8-2.17-7.45-2.15-16.49.13-33,.37-49.48.41-2.22,0-5.65,1.58-5.92-2.84-.22-3.38,2-4.56,4.76-5.18,10.62-2.35,21.39-3.12,32.25-3.58,9.26-.39,18.48-1.79,27.72-2.75-.06-.91-.12-1.82-.17-2.73H1404.4c5.77-5.33,11.77-2.46,16.61-5.38-5.43-5.27-11.71-1.36-17.18-1.56-1.39-4.27,4.91-2.21,3.82-6.24-8.24-2.61-17-3.12-25.62-3.13-1.54-5.25,6.21-2.19,5.32-6.68-2.31-2.87-6.26.32-8.74-2.11,6.53-12.43,19.18-11.05,30.5-14.05-11.72-3.19-24.49-2.77-34.59-10.73,17.13-8.57,34.9-5.41,52.71-3.24-1.07,2.89-4.15.71-6.8,3.71,11.9,2.22,22.74,3.86,35.45,1.65-6.72-4.57-12.85-3.46-18.66-4,4-12.24,1-24.28,1.87-36.13.18-2.36-1.58-6.11,2.11-6.56,4.81-.6,10-.77,14.59.55,2.76.8,1,5.25,1.16,8.05s-1.77,3.9-4.33,4.29c-2.83.42-6,0-7.89,2.91.59,2.46,2.39,3.28,4.41,3.37,7,.33,8.21,4.22,7.81,10.47-.6,9.45,4.81,12.21,13.65,7.54,7.55-4,27.61,4.64,29.51,12.7.88,3.77-1.4,4.73-4.45,4.51-7.2-.51-14.52-.55-21.55-2-13.63-2.71-34-2.46-51.35,2.1,14.29,5.63,29.23-7.09,40,4.94-21.92-1.55-44.13,1.7-66.54,1.41.06,1.77.12,3.54.19,5.31,32.59-1.77,65.23.32,97.73-7.67l.39,3.73c-5.28,10.49-10.62,20.94-15.81,31.47-1.6,3.28-3.91,4.38-7.56,5.12-7.36,1.49-15.25-.11-22.87,3.86,6.57,5.63,15,1.76,22.21,5.78-4.55,9.17-9.29,18.33-13.62,27.67-1.68,3.62-4.67,3-7.47,3.4l-20.52,3.11c8.47,4.5,16.08.92,21.89,5.76-4.38,8.56-9.14,17.14-13.23,26-3,6.62-9.65,2.26-13.72,5.24-.27,2.2,1.2,2.75,2.93,3,2.37.39,4.89.8,4,4.1-.56,2.2-2.55,2.77-4.64,2.88-2.64.14-5.28.54-7.9.43-5.44-.22-8.7,2.15-9.85,7.42Zm39.82-118.31c11.56.61,23.39,3.24,34.16-3.4C1470.85,922.88,1459.23,921.35,1448.23,926.7Zm6.28,44.14a60.48,60.48,0,0,0-30.49,3C1434.37,974.74,1444.78,977,1454.51,970.84ZM1441,979.68c-9.33-3.47-18.64-3-27.94.13C1422.28,983.19,1431.62,981.84,1441,979.68Zm-.22-55c-9.16-4.19-15.76-2.66-23.43.25C1425,930.17,1431.62,927.21,1440.74,924.64Z" transform="translate(-321.63 -14.83)" style="fill:#231f20"/><path d="M1062.5,1348.37c-17.31,2.76-25.74-12.52-40-16.26,11-12.62,24.25-6.91,36-8.46,2.63-.34,7,1.26,6.87-3-.1-3.08-4.11-2.44-6.66-2.6-10.22-.64-20.35.87-30.91,1.82,2.2-6.11,8.25-2.2,11.65-5.44-1.92-4-5.55-1.93-8.31-2.5-2-.41-5.51,1.38-5.57-2-.07-3.19,2.26-4.66,6.14-4.37,7.54.54,15.15.24,22.73.31,4,.05,7.66-.81,11-4.52-10.88.61-19.14-7.5-29.79-7.44-2.69,0-6.94,1.56-7.84-2.07-1.24-5,5.38-2,6.66-5.2-.87-4.59-6.28-.19-7.82-4,11.55-.47,23-.73,34.32-5.19h-42.77c5.18-5.77,10.94-4.23,14.89-7,2.08-1.48,5.46-2.16,5.25-5.19-.19-2.78-3-3.74-5.5-5-2.61-1.3-8.38-.06-7.39-4.09s1.57-8.58,6.64-12.09c9-6.17,18.35-3.52,27.27-3.92,19.28-.85,38.41,3.69,58,2.77-.33,7.15-7.19,4.46-9.4,7.42-7.82,10.5-20.8,11.2-31.14,16.87-1.7.92-4.09,1.27-3.74,3.82s2.72,2.33,4.64,2.51c7.6.75,15-.33,22.37-2.14,3.28-.81,6.58-2.58,11.23-1.07-2.15,3.26-6.89,1.84-7.8,5.91,2.16.34,4.29.75,6.44,1,3.37.38,6.65.8,7.75,4.78.44,1.59,1,3.82-1.14,4-3.31.29-6.19,2.47-10.21-.09-9.6-6.11-20.45-5.63-31.21-3.74,5.84,3.58,12.32,3.88,19,4.46-1.83,2.36-7.41,1.16-5.84,5.21,2.23,5.76,6.82-.4,11.48,1.54-7.6,8.33-17.47,1.74-25.25,5,1.59,3.12,1.79,7,6,8.85-4.29.8-8.13,1.5-12,2.23-2.12.41-3.91,1.49-3.74,3.81.19,2.69,2.59,2.5,4.51,2.55a32.49,32.49,0,0,0,19.6-5.36c-2.19,13.7-17.19,7.53-22.46,15.7,4.85,3.17,10,.2,15.66,2.57-12.25,5.9-25.26,1.76-38,5.7,6.17,4,11.89,4.76,17.76,5.09,4.64.27,7.49,1.21,5,7.16-4.32,10.51-4.8,22.58-12.68,31.81l-7.2-6.84c.44-2.61,2.26-2.5,3.83-2.55,2.19-.06,4.19-.66,4.3-3s-1.83-3.29-4-3.35c-6.74-.18-7.78-5.56-10.61-10.67C1048.27,1350.5,1055.63,1353.22,1062.5,1348.37Zm-32.16-94.16c17.44,4.62,34.74,7.08,51.84.27C1064.82,1250.34,1047.5,1249.62,1030.34,1254.21Z" transform="translate(-321.63 -14.83)" style="fill:#231f20"/><path d="M1160.38,1567.58c-13.33,3.43-26,2.93-38.28,3.82-61.2,4.42-122.53,5.8-183.87,6.33-23.7.2-47.4-.52-71.11-.57-2.85,0-4.35-.21-4.59-3.26-.32-4.15,2.4-4,5.15-3.72,31.58,3.53,63.29,2.19,94.88,1.38,60.26-1.56,120.48-4.65,180.71-7.06C1148.67,1564.28,1154.34,1562.88,1160.38,1567.58Z" transform="translate(-321.63 -14.83)" style="fill:#231f20"/><path d="M528.76,885.22c11.38,1.49,21.38-4.42,32.14-4.81,1.65-.06,3.47-.42,4-2.25.74-2.53-1.4-3.95-3.11-4.16-8-1-6.08-6.81-6.4-11.8-.29-4.5,1.8-5.44,5.86-5.41s5.26.68,5.36,5.37c.46,20.16.75,20.16,21.76,20.34,5.41,0,10.82,0,16.28.58-7.32,2.67-14.29,6.16-22.35,5.69-2.11-.12-5.24.38-4.57,3.6.54,2.55,3.11,1.76,4.94,1.16,6.38-2.06,13.09.7,19.55-2.06,1.39,3.62-.3,5.77-2.56,6.89-13,6.42-25.68,13.64-40.94,13.52-3.38,0-8.06-2.09-10.18,3.44-.17.46-7.94,4-7.93-3.83,0-4-5.73-2.26-7.49-6.09,1.72-2.72,6.91.63,7.78-4.28-1.39-3.36-5.89-2-10.18-5.07,11.69-1.69,22.75,4.37,34.76-2.76C551.63,891.25,538.94,893.89,528.76,885.22Z" transform="translate(-321.63 -14.83)" style="fill:#231f20"/><path d="M1012.1,1452.88c1.66-7.22,5.73-7,9.71-7.08,60.63-2.06,121.24-1.16,181.85.56a38.78,38.78,0,0,1,5.92.17c3.14.57,8.59-2.82,8.85,2.47.18,3.79-5.33,2.77-8.34,2.89-43.53,1.77-87.07,2-130.62,1.07C1057.21,1452.51,1034.94,1452.88,1012.1,1452.88Z" transform="translate(-321.63 -14.83)" style="fill:#231f20"/><path d="M1194.32,1501c-90.88,7.75-181.57,5.13-272.12,8.62,10.3-2.74,20.45-6.33,31.2-6.45,67.61-.74,135.22-1,202.73-5.51,10.53-.7,21.12-.48,31.68-.57C1190,1497.1,1192.58,1496.39,1194.32,1501Z" transform="translate(-321.63 -14.83)" style="fill:#231f20"/><path d="M560.4,937.73c6.12,2.65,9.17,1.65,12.29.55,4.88-1.73,8.25,1,11.12,4.32,2.43,2.83,2,4.47-2.19,4.81-4.52.37-9,1.29-14.06,2.05.78,5.4,6.74,9.16,3.81,14.6-2.41,4.49-5.33,8.72-8.65,14.09-6.54-12.95-7.65-26.71-16.2-37,3.84-3.21,7.09,1.19,10.56-1.26-.27-4.3-5-3.14-6.86-5.29.93-3.47,5.53-1.5,6.8-4.49-.26-.58-.35-1.38-.79-1.67-3.16-2.11-9.73,1.37-10.1-3.26-.53-6.59,6.52-1,8.88-3.43,7.34-7.69,17.62-.72,25.48-5.36,2.31,4.51,8.86,4.82,10.33,10,1,3.69-1.06,4.76-4.76,5.39C578.22,933.07,570.53,935.3,560.4,937.73Z" transform="translate(-321.63 -14.83)" style="fill:#231f20"/><path d="M742,1331.67c70.26-.18,139.9.67,209.56-1.34-14.61,4.71-29.78,3.52-44.67,4.69-46.38,3.64-92.89,2.67-139.36,2.58-5.92,0-12.06-.36-17.7,1C743.94,1340.05,742.94,1337.38,742,1331.67Z" transform="translate(-321.63 -14.83)" style="fill:#231f20"/><path d="M981.43,1263.94c-40.53,1.24-81,2.64-121.59,3.69-43.5,1.12-86.88,5.44-130.44,5a31.18,31.18,0,0,0-6.79,1.08c-9.93,2.13-9.93,2.15-14.11-8.24,19.12,3.57,38.69,3.5,58.12,2.7,69.47-2.89,138.91-6.63,208.48-5.23,2,0,3.94,0,5.91,0Z" transform="translate(-321.63 -14.83)" style="fill:#231f20"/><path d="M879.84,1147.12c-47.72-3-95.58.45-143.74,1.28,1.23-5.64,5.32-4,8.12-4.18,40.78-2.7,81.62-3.19,122.46-3.58C872.41,1140.58,876.58,1143.36,879.84,1147.12Z" transform="translate(-321.63 -14.83)" style="fill:#231f20"/><path d="M924,1607.71c8.1-.44,16.2-1.12,24.31-1.28q84.62-1.59,169.22-3.06c6.57-.13,13.13-.91,19.7-1.41,2-.16,4.16-.44,4.42,2.36s-2.07,2.78-4,3a21,21,0,0,1-3,.21c-68.63-1.49-137.2,3-205.82,1.61-1.62,0-3.24-.18-4.86-.28Z" transform="translate(-321.63 -14.83)" style="fill:#231f20"/><path d="M1022.46,1662.39c-3.6,6.39-8.16,5.54-12.32,5.66q-49.47,1.47-98.86-1.81c-2.21-.15-5.53.63-5.41-2.54.19-5,3.79-1.58,5.87-1.58q45,.08,90.06.26C1008.32,1662.4,1014.84,1662.39,1022.46,1662.39Z" transform="translate(-321.63 -14.83)" style="fill:#231f20"/><path d="M1158.13,1323c9.83-3.14,19.9-3.41,30-3.35,24.06.15,48.13.08,72.19.1,2,0,4-.16,5.93,0,3.16.26,7.66-.21,7.46,4.23-.17,3.86-4.48,3.07-7.23,3-17.12-.39-34.26-.6-51.35-1.58C1196.18,1324.31,1177.18,1323.38,1158.13,1323Z" transform="translate(-321.63 -14.83)" style="fill:#231f20"/><path d="M1159.7,1250.51c1.71-6.83,7-5.49,11.29-5.5,31.25-.08,62.5,0,94.2,0-.84,4.44-4.25,5.54-8.39,5.54C1224.52,1250.52,1192.23,1250.51,1159.7,1250.51Z" transform="translate(-321.63 -14.83)" style="fill:#231f20"/><path d="M609.54,946.85c35-2.35,70.05-7.17,105-6.38,34.73.78,69.48-.4,104.2,2.08C748.93,943.86,679.11,944.46,609.54,946.85Z" transform="translate(-321.63 -14.83)" style="fill:#231f20"/><path d="M815.38,1178.6c-1.67,4.25-5.4,3.17-8.47,3.16-40.19-.18-80.32,1.81-120.44,3.78-4,.2-7.89.36-11.63,1.89-2.83,1.17-4.52-.52-5.31-2.83-1.39-4.06,2.72-3.32,4.17-3.48a162.11,162.11,0,0,1,18.69-1c38.53.08,77.05,0,115.53-2.53C810.39,1177.38,813.07,1176.73,815.38,1178.6Z" transform="translate(-321.63 -14.83)" style="fill:#231f20"/><path d="M1066.32,1742.58c-40.16,4.08-80.34,9.73-120.72,1.9C985.83,1744.09,1026,1742.48,1066.32,1742.58Z" transform="translate(-321.63 -14.83)" style="fill:#231f20"/><path d="M910.64,872.27c46.51-6.12,93.09-3.55,139.65-3.85l0,3.85Z" transform="translate(-321.63 -14.83)" style="fill:#231f20"/><path d="M988.67,1783.41c21.71,1.51,43.16-2.85,64.81-2.81,2.29,0,5.87-1.87,6.3,1.91.32,2.79-2.44,4-5.44,4.32-23.56,2.28-47.18,2.31-70.8,2.26a3.71,3.71,0,0,1-1.92-.39c-4-2.6-12.84,4.56-12.5-3.66.2-4.93,8.88-.91,13.66-1.82C984.66,1782.86,986.7,1783.32,988.67,1783.41Z" transform="translate(-321.63 -14.83)" style="fill:#231f20"/><path d="M1015.19,1697.39c-30,.92-60.09.45-90.13.39-3.83,0-4.7-4-6.3-7.22l96.35,3.56C1015.13,1695.21,1015.16,1696.3,1015.19,1697.39Z" transform="translate(-321.63 -14.83)" style="fill:#231f20"/><path d="M1386.65,1124.11H1254.89c0-.53,0-1.06-.05-1.59h131.87Z" transform="translate(-321.63 -14.83)" style="fill:#231f20"/><path d="M718.16,1283.91c42.13,0,84-1.8,126.17-5.29-1.19,6.73-6,5.07-9.51,5.25-31.59,1.61-63.19,2.83-94.83,2.46-5.6-.06-11.28-.48-16.54,2C717.65,1291,718.75,1286.55,718.16,1283.91Z" transform="translate(-321.63 -14.83)" style="fill:#231f20"/><path d="M1299.37,877.28c-39.56.42-79,7.31-118.89,5-2.21-.13-6.19,1.77-6.3-2.16-.07-2.89,3.38-3.73,6.17-3.38,38.38,4.75,76.76-2.18,115.14-.07A32.38,32.38,0,0,1,1299.37,877.28Z" transform="translate(-321.63 -14.83)" style="fill:#231f20"/><path d="M922.4,1543.22c18.93-4.55,38-2.39,57-2.82,18.64-.43,37.29-.45,56.79-3.88-2.76,5.08-6.63,5.52-10.41,5.7C991.26,1543.85,956.78,1544.75,922.4,1543.22Z" transform="translate(-321.63 -14.83)" style="fill:#231f20"/><path d="M691,1052c7.6-7.43,67.56-8.37,74.67,0Z" transform="translate(-321.63 -14.83)" style="fill:#231f20"/><path d="M1222.85,858.9h-89.58c-6.25,0-12.5-.15-18.64,1.43-1.47.38-3.49.66-3.84-1.6-.29-1.86,1.23-2.91,2.7-3.59a7.16,7.16,0,0,1,2.91-.32q53.2,0,106.41,0C1222.83,856.17,1222.84,857.54,1222.85,858.9Z" transform="translate(-321.63 -14.83)" style="fill:#231f20"/><path d="M809.65,1448.57h88c.27,2-1.82,3.89-4.56,3.87-27.8-.15-55.66,2.54-83.38-1.29Z" transform="translate(-321.63 -14.83)" style="fill:#231f20"/><path d="M1018,1292.72c-37.29,1.88-74.33,2.67-111.33.43C943.89,1292.34,981.1,1288.57,1018,1292.72Z" transform="translate(-321.63 -14.83)" style="fill:#231f20"/><path d="M1242.44,1399.11a689.08,689.08,0,0,1-88.19-3.22h88.27C1242.49,1397,1242.46,1398,1242.44,1399.11Z" transform="translate(-321.63 -14.83)" style="fill:#231f20"/><path d="M1031.51,1361.67c-28-1.3-54.59-.17-81.24.19-2.41,0-6,1.51-6-2.69,0-3.2,2.79-2.54,5.2-2.52,23.08.27,46.15.3,69.22.58C1022.76,1357.28,1027.32,1356.21,1031.51,1361.67Z" transform="translate(-321.63 -14.83)" style="fill:#231f20"/><path d="M1082.07,1715c-27.69,3.36-55.38,5.93-83.21,1.83C1026.61,1716,1054.32,1714.15,1082.07,1715Z" transform="translate(-321.63 -14.83)" style="fill:#231f20"/><path d="M1340.83,1209.93c-40,5.93-80.28-.84-120.53,0Z" transform="translate(-321.63 -14.83)" style="fill:#231f20"/><path d="M966.62,852.66c18.1,0,36.21.09,54.31,0,6.91-.05,13.81-.79,20.72-.82,2.3,0,6.25-1.45,6.62,2.17.43,4.27-3.81,2.7-5.89,2.67-20.75-.26-41.55,1.79-62.25-1.43-4.46-.69-9-.59-13.56-.86C966.58,853.78,966.6,853.22,966.62,852.66Z" transform="translate(-321.63 -14.83)" style="fill:#231f20"/><path d="M1526.49,849.36c.13,4.08-1.69,5.26-4.21,5.41-11.82.74-23.64,1.3-35.45,2.08-4.25.29-7.91-1.16-7.59-5.4s4.68-2,7.19-2C1499.77,849.27,1513.12,849.36,1526.49,849.36Z" transform="translate(-321.63 -14.83)" style="fill:#231f20"/><path d="M686,855.8c-33.56,1-67.07,4.22-100.68,2.38C618.83,853.16,652.45,855.65,686,855.8Z" transform="translate(-321.63 -14.83)" style="fill:#231f20"/><path d="M657.63,892c1.68-4.54,4.76-5.22,8.06-5.37,16.38-.75,32.77-1.53,49.16-2.07,2.21-.08,6.07-1.7,6.37,2.13.36,4.76-4,3.26-6.55,3.33C695.83,890.54,677,889.83,657.63,892Z" transform="translate(-321.63 -14.83)" style="fill:#231f20"/><path d="M1317.63,856.3h-74.27c24.67-5,49.51-2.43,74.26-3.4C1317.62,854,1317.63,855.17,1317.63,856.3Z" transform="translate(-321.63 -14.83)" style="fill:#231f20"/><path d="M1291,1045.89c-21.66,2.48-43.49,1.08-65.22,3.08C1247.3,1043,1269.11,1043.86,1291,1045.89Z" transform="translate(-321.63 -14.83)" style="fill:#231f20"/><path d="M1162.89,1139.6l90.69,3.24C1223.26,1144.09,1192.94,1145.54,1162.89,1139.6Z" transform="translate(-321.63 -14.83)" style="fill:#231f20"/><path d="M1333.29,1085.71l73.88-5.32.27,2.83c-24.42,4.47-49.4,3.13-74,5.15Z" transform="translate(-321.63 -14.83)" style="fill:#231f20"/><path d="M1085.15,1582.8c18.82-4,38.76-1.68,58.31-4.72,2.66-.41,7.8-2.47,8.19,2.06.37,4.16-4.69,2.48-7.1,2.51C1124.46,1582.91,1104.37,1582.8,1085.15,1582.8Z" transform="translate(-321.63 -14.83)" style="fill:#231f20"/><path d="M603.59,1056.42c4.46-5,47.57-8.35,60.2-4.32C644,1055.45,623.94,1055.31,603.59,1056.42Z" transform="translate(-321.63 -14.83)" style="fill:#231f20"/><path d="M755.36,910.61c19.87-3.62,39.9-1.56,59.87-1.32C795.37,913,775.35,911.43,755.36,910.61Z" transform="translate(-321.63 -14.83)" style="fill:#231f20"/><path d="M749.76,856.62h86.12c-24.93,3.39-55.42,1.91-85.83,2.51C750,858.29,749.85,857.45,749.76,856.62Z" transform="translate(-321.63 -14.83)" style="fill:#231f20"/><path d="M1105,1303.54c4.58-7.25,11.44-6.65,18.34-6.71,24.58-.19,49.16-2.28,73.77-.09C1166.73,1300.06,1135.68,1293.3,1105,1303.54Z" transform="translate(-321.63 -14.83)" style="fill:#231f20"/><path d="M838.47,870.9l-79.21,3.72-.12-1.43c13-1.15,26-2.12,39-3.5C811.61,868.27,825,869.19,838.47,870.9Z" transform="translate(-321.63 -14.83)" style="fill:#231f20"/><path d="M1285.68,1015.94c-23.51,3.78-46.63-.34-69.83-2.74C1239.16,1015.35,1262.51,1014.51,1285.68,1015.94Z" transform="translate(-321.63 -14.83)" style="fill:#231f20"/><path d="M972.18,917.91c6,1.74,10.76,6.21,17.14,6.53-.69,1.19-1.85,2.33-2,3.58-.29,2.94-1.43,3.75-4.36,3.16a73.4,73.4,0,0,0-11.53-1.43c-4-.15-6.44-1.89-6-5.81C965.93,920.4,968.89,918.72,972.18,917.91Z" transform="translate(-321.63 -14.83)" style="fill:#231f20"/><path d="M681.71,870.14c-23.91-.9-47.74,4.18-71.66,1.51C633.92,870.09,657.78,866.75,681.71,870.14Z" transform="translate(-321.63 -14.83)" style="fill:#231f20"/><path d="M678,1198.28c25.64-4,51.55-1,77.27-2.91C729.6,1198.82,703.67,1195.55,678,1198.28Z" transform="translate(-321.63 -14.83)" style="fill:#231f20"/><path d="M1285.79,940c-20.79,1.68-41.59,4.14-62.4,0Z" transform="translate(-321.63 -14.83)" style="fill:#231f20"/><path d="M943,994.82c10.64,0,20.45.16,30.16-1.45,2.41-.4,6-1.27,6,2.71.07,3.63-3.35,2.08-5.32,2.28-6.55.68-13.17.8-19.65,1.83C949.27,1001,946.29,999,943,994.82Z" transform="translate(-321.63 -14.83)" style="fill:#231f20"/><path d="M1223.87,920.18H1290l0,1.92h-66.12Z" transform="translate(-321.63 -14.83)" style="fill:#231f20"/><path d="M1288.7,975.22a149,149,0,0,1-44.32-.72C1259.18,973.22,1274,972.39,1288.7,975.22Z" transform="translate(-321.63 -14.83)" style="fill:#231f20"/><path d="M928.16,1174.81c18.61.21,37.35-5.85,55.66,2.59C965.27,1175.18,946.66,1176.1,928.16,1174.81Z" transform="translate(-321.63 -14.83)" style="fill:#231f20"/><path d="M1331.23,853.17h40.35a89.36,89.36,0,0,1-40.17,3.15Z" transform="translate(-321.63 -14.83)" style="fill:#231f20"/><path d="M1399.8,1097.41h-51.13c0-.79,0-1.58,0-2.37h51.13C1399.79,1095.83,1399.79,1096.62,1399.8,1097.41Z" transform="translate(-321.63 -14.83)" style="fill:#231f20"/><path d="M834.78,1122.6a207.26,207.26,0,0,1-53.6,0Z" transform="translate(-321.63 -14.83)" style="fill:#231f20"/><path d="M986.81,892.4c17-5.83,34-3.26,50.91-2.48Z" transform="translate(-321.63 -14.83)" style="fill:#231f20"/><path d="M1408.41,1045.05l18.66-3.37c-3,6.36-5.55,11.6-8.26,17.24-4.5-4.43-3.92-11.83-10.4-13.92Z" transform="translate(-321.63 -14.83)" style="fill:#231f20"/><path d="M1160.26,876.87c-15.13-2-30.16.37-45.19,1.09C1130.11,874.22,1145.17,871.37,1160.26,876.87Z" transform="translate(-321.63 -14.83)" style="fill:#231f20"/><path d="M969.55,1129.11H926.91l-.09-1.48h42.67Z" transform="translate(-321.63 -14.83)" style="fill:#231f20"/><path d="M695.33,868.44c13.68-5.88,28-5.78,42.54-4.57Z" transform="translate(-321.63 -14.83)" style="fill:#231f20"/><path d="M939.15,1053l37.4-3,.27,2.85-37.42,2.76C939.32,1054.73,939.24,1053.87,939.15,1053Z" transform="translate(-321.63 -14.83)" style="fill:#231f20"/><path d="M1202.36,1081.34h49.84c0,.62,0,1.25,0,1.87h-50.28Z" transform="translate(-321.63 -14.83)" style="fill:#231f20"/><path d="M603.29,924.47c16.9,1.36,33.84,1.67,50.78,2.15A148.71,148.71,0,0,1,603.29,924.47Z" transform="translate(-321.63 -14.83)" style="fill:#231f20"/><path d="M887.89,1193.81c-9.57,1.84-19.1,2.26-28.54-.42C868.92,1191.69,878.45,1191.25,887.89,1193.81Z" transform="translate(-321.63 -14.83)" style="fill:#231f20"/><path d="M541,859.82a37.85,37.85,0,0,1-27.1,0Z" transform="translate(-321.63 -14.83)" style="fill:#231f20"/><path d="M994.13,1830.31c13.87.08,27.74-2.25,42.92-.36C1032.73,1832.81,1003.33,1832.73,994.13,1830.31Z" transform="translate(-321.63 -14.83)" style="fill:#231f20"/><path d="M814.23,1033.57H765.35v-.71h48.88Z" transform="translate(-321.63 -14.83)" style="fill:#231f20"/><path d="M1336,973.14h33.57l0,2.16H1336.1C1336.07,974.58,1336.05,973.86,1336,973.14Z" transform="translate(-321.63 -14.83)" style="fill:#231f20"/><path d="M788.41,1377.46c-8.14.43-16,2.71-24.18,3.37C771.53,1374.46,780.35,1378.42,788.41,1377.46Z" transform="translate(-321.63 -14.83)" style="fill:#231f20"/><path d="M843.66,596.81c-.67,14.39-4.73,27.35-9.61,40.11-.71,1.85-1.57,3.66-4.63,4.4,1.92-7.8,3.87-15.21,5.5-22.69.46-2.13,3.35-5.23-1-6.48-3.34-1-3.62,2.5-4.28,4.29-3.73,10.14-7.17,20.39-10.65,30.61-.72,2.11-1,4.44-4.13,6.36,2.34-9.23,4.44-17.66,6.64-26.07.61-2.33,3.32-5.14-.6-6.5-3.29-1.14-4.61,2.06-5.46,4.44-3.49,9.88-6.72,19.85-10.13,29.75-1.25,3.66-2.72,7.24-6,10.28,2.11-7.76,4.25-15.52,6.34-23.3a41.66,41.66,0,0,0,1.48-6.65c.17-1.79.71-4.23-2.09-4.67-2.45-.38-3.5,1.5-4.1,3.43-2.53,8.13-5.12,16.25-7.41,24.44-2.22,7.94-5.91,14.92-12.92,22.43.45-11.4,5.91-19.33,8-28.17.59-2.55,1.58-5,2.19-7.54.65-2.7.7-5.68-2.65-6.39-3-.64-3.64,2.45-4.33,4.45-4.51,13-10.69,25.31-16.67,37.68-1.41,2.93-2.22,6.32-8.26,6.88A132.89,132.89,0,0,0,774,656c1.13-3.59,4.66-8.27-.15-10.26-5.47-2.27-7.09,3.74-8.23,7.5-3.53,11.74-8,22.86-16.74,31.85-1.14,1.17-1.77,2.81-5.17,1.48,3.44-11.11,13-20,14.2-34.33C744.81,661,741,674.75,732,685.55c-.3-7.25,4.24-11.55,6.54-16.71,1.08-2.43,5-5,1.4-7.55-4-2.89-5.54,1.67-7.57,3.9-5,5.47-7.35,12.95-13.62,18.37-2.91-4.56.7-7.16,1.7-10.18.49-1.49,1.95-2.91.29-4.41-2-1.78-3.73-.47-5.24.77-4.34,3.6-5.86,9.85-11.29,12.81-3-3.59,3.79-9-1.65-10.25-5.82-1.29-6.36,6.25-10.87,9.9-.94-6.66.66-9.86,6.72-12.58,15.94-7.15,33.49-9.26,49.2-17.21,31.29-15.82,64.27-28.62,90.84-52.49C839.84,598.66,841.72,598,843.66,596.81Z" transform="translate(-321.63 -14.83)" style="fill:#231f20"/><path d="M917.43,552.26c.85-9.86,1.59-17.67,2.17-25.49.19-2.61.3-5.87-3.15-6.22s-4.06,2.83-4.42,5.42c-.87,6.15-1.54,12.33-2.28,18.5-9.12-6.35-10.27-12.68-3.12-19.93,26.51-26.88,49.89-56.71,77.87-82.18,7-6.37,14.48-12.42,23.48-16.18-1.66,7.07-12.07,6.41-12,15a60,60,0,0,1-2.79,19.49c0-4.26,0-8.52,0-12.78,0-2-.43-4.32-3-4.2s-2.69,2.4-2.84,4.44c-.58,7.55,1.18,15.26-.82,23.9-4.66-3.94-2.77-8.16-3.36-11.73-.4-2.43.92-6.17-2.57-6.53-4-.4-4,3.72-4.46,6.43-1.34,8.1,1.21,16.38-1.21,25.35-3.53-5.38-2.32-10.64-2.22-15.8,0-3,2.1-7.68-2.55-8.16-4.31-.44-4.15,4.28-4.42,7.42-.95,10.74-1.73,21.49-2.63,33-3.92-2.47-2.67-5.77-2.52-8.67.23-4.24.71-8.47.87-12.71.08-2.27,0-5.26-3-5.32-3.15-.05-2.78,3-3,5.23-.63,7.5-1.12,15-2,22.49-.64,5.72-1,11.7-6.62,16.31-3.89-10.43,5.58-20.43-1.19-32-7.47,16.11-3.81,33-11.24,50.06-1.64-9.79-.58-16.91.1-24,.31-3.17,1.48-7.82-2.22-8.55-4.58-.91-4.05,4.06-4.46,7.07-1.22,9.06-2.52,18.12-3.23,27.22C924.38,543.94,922.46,547.63,917.43,552.26Z" transform="translate(-321.63 -14.83)" style="fill:#231f20"/><path d="M853.36,538.12C790.58,471.79,733.72,401,674.11,330.44c6.21-.72,7.91,2.06,9.67,4.62,20.64,30.13,45.89,56.4,70.87,82.82,33.86,35.81,66.22,72.83,96.23,111.88C852.58,532,855.46,533.82,853.36,538.12Z" transform="translate(-321.63 -14.83)" style="fill:#231f20"/><path d="M681.64,445.08,820.23,599.94l-2,1.73C770.92,551.06,722,501.8,681.64,445.08Z" transform="translate(-321.63 -14.83)" style="fill:#231f20"/><path d="M929.51,485.67C876.25,429.62,827.9,370,798.43,297.29,833.61,365.94,876.61,429.15,929.51,485.67Z" transform="translate(-321.63 -14.83)" style="fill:#231f20"/><path d="M589.88,456.44C638.59,514.73,688.47,571.93,744,624,686.43,573.8,633.7,519.19,589.88,456.44Z" transform="translate(-321.63 -14.83)" style="fill:#231f20"/><path d="M880.13,486.24c-47-51.31-91.58-104.44-123-167C793.12,378.51,836.47,432.48,880.13,486.24Z" transform="translate(-321.63 -14.83)" style="fill:#231f20"/><path d="M910.69,277.66l95.29,136-2.25,1.56C970.45,371,937.09,326.89,908,279.76Z" transform="translate(-321.63 -14.83)" style="fill:#231f20"/><path d="M667.81,477.93c-24.83-26.63-48.56-52.11-72.35-77.54-2.68-2.87-5.57-5.57-8.52-8.19-2.68-2.4-2.67-4.36.59-6,2.46-1.25,4.82-3.71,7.44.11,20.46,29.86,46,55.54,69,83.33C665.57,471.49,668.27,472.76,667.81,477.93Z" transform="translate(-321.63 -14.83)" style="fill:#231f20"/><path d="M622.08,616c-41-38-82.28-75.69-111.78-123.85C546.85,534.09,581.38,577.79,622.08,616Z" transform="translate(-321.63 -14.83)" style="fill:#231f20"/><path d="M471.29,450a210.43,210.43,0,0,1-38.25,63c-10.39,11.77-19.75,24.44-29.88,36.45-1.47,1.74-3.1,6.46-6.3,3.8-3.45-2.87.86-5.09,2.63-7C422,522.4,441.17,496,459.61,468.92,463.78,462.81,467.41,456.33,471.29,450Z" transform="translate(-321.63 -14.83)" style="fill:#231f20"/><path d="M923.09,442.74c-33.24-41.41-63.72-84.8-88.11-132.18C864.06,354.75,892.69,399.24,923.09,442.74Z" transform="translate(-321.63 -14.83)" style="fill:#231f20"/><path d="M459.5,438.2c-18.63,35.05-41.5,67-70.23,94.8C414.37,502.62,438.39,471.46,459.5,438.2Z" transform="translate(-321.63 -14.83)" style="fill:#231f20"/><path d="M815.9,691.63c-24.6,24.25-54.21,40.77-86,53.72C757.68,726.19,789.54,713.39,815.9,691.63Z" transform="translate(-321.63 -14.83)" style="fill:#231f20"/><path d="M518.47,564.89c-17.61-14.42-31.77-31.93-46.34-49-2.32-2.74-4.37-5.71-6.45-8.64-1.13-1.59-4.61-2.87-1.48-5.36,2.87-2.27,4.05,1.06,5.38,2.44,8.45,8.7,15.06,18.82,22.14,28.58C499.91,544.17,509.26,554.5,518.47,564.89Z" transform="translate(-321.63 -14.83)" style="fill:#231f20"/><path d="M757.55,478.61l-57.93-69,2-1.66C721.24,430.7,742.74,451.9,757.55,478.61Z" transform="translate(-321.63 -14.83)" style="fill:#231f20"/><path d="M649.39,597.75c-27.09-24.11-53.32-48.94-77.19-76.13Z" transform="translate(-321.63 -14.83)" style="fill:#231f20"/><path d="M810.38,720.92c.6,11-9,13.21-14.59,17.21-13.56,9.64-28.4,17.49-42.79,26-.6.36-1.75-.19-4.55-.58C769.76,748.81,792.25,738.49,810.38,720.92Z" transform="translate(-321.63 -14.83)" style="fill:#231f20"/><path d="M775.54,693.36C759.37,702.58,743.31,712,727,720.91c-4.13,2.26-9.09,3-14,3.61C733.42,713.2,752.41,699.42,775.54,693.36Z" transform="translate(-321.63 -14.83)" style="fill:#231f20"/><path d="M780.88,514.71l57.46,59.66c-22.68-16.45-39.49-38.62-59.16-58Z" transform="translate(-321.63 -14.83)" style="fill:#231f20"/><path d="M555.83,331.52c-7.51,17.39-22.11,29.24-33.54,43.57C530.83,358.56,544.67,346,555.83,331.52Z" transform="translate(-321.63 -14.83)" style="fill:#231f20"/><path d="M940.14,618c15.1-8.2,26.13-21.79,40.09-31.49C968.71,599.45,956.72,611.77,940.14,618Z" transform="translate(-321.63 -14.83)" style="fill:#231f20"/><path d="M908.14,365.16c8.58,13.19,18.38,25.67,22.44,41.5l-24.75-40.11Z" transform="translate(-321.63 -14.83)" style="fill:#231f20"/><path d="M958.88,452.39c-7.26-12.74-17-24-21.53-38.4l23.93,37Z" transform="translate(-321.63 -14.83)" style="fill:#231f20"/><path d="M964.38,655.43c10.22-9,20-18.67,31-27.1C987,639.56,976.28,648.09,964.38,655.43Z" transform="translate(-321.63 -14.83)" style="fill:#231f20"/><path d="M996.84,653.85c-6.46,11.83-19.63,15.7-30.08,23C976.19,668.62,986.5,661.48,996.84,653.85Z" transform="translate(-321.63 -14.83)" style="fill:#231f20"/><path d="M846.06,629.9c-1.94-9.25,2.89-16.51,3.56-25.7C854.56,610.43,852.56,621.93,846.06,629.9Z" transform="translate(-321.63 -14.83)" style="fill:#231f20"/><path d="M1002.76,361l-21-32.23C991.46,337.85,998.13,348.89,1002.76,361Z" transform="translate(-321.63 -14.83)" style="fill:#231f20"/><path d="M529,418.8l18.42,24.74a71,71,0,0,1-20.74-22.85Z" transform="translate(-321.63 -14.83)" style="fill:#231f20"/><path d="M954.83,564.24c8.08-9,16-18.18,26.27-25.13Z" transform="translate(-321.63 -14.83)" style="fill:#231f20"/><path d="M776,783.48c6.51-8.18,15.09-12.57,24.09-17.66C796.44,773,784.14,781.9,776,783.48Z" transform="translate(-321.63 -14.83)" style="fill:#231f20"/><path d="M509.81,401.8a22.81,22.81,0,0,0-6.14,16.8c-3.86-9.87-8-1.78-12.44-1.2,6.1-5.91,10.85-12.54,18.75-15.41Z" transform="translate(-321.63 -14.83)" style="fill:#231f20"/><path d="M1337.29,707.12c-45.26,38-98,63.79-150.28,88.72,1.44-4.18,13.44-13.42,23-17.09,29.18-11.24,55.93-27,81.87-44.14,14.66-9.7,29-19.86,43.49-29.82Z" transform="translate(-321.63 -14.83)" style="fill:#231f20"/><path d="M1364.74,550.59a874.2,874.2,0,0,1-112.62,90.8C1287.62,608.69,1325.85,579.3,1364.74,550.59Z" transform="translate(-321.63 -14.83)" style="fill:#231f20"/><path d="M1247.86,606c33.26-30.47,67.49-60,99.91-91.49C1330.47,538.52,1272.76,591.71,1247.86,606Z" transform="translate(-321.63 -14.83)" style="fill:#231f20"/><path d="M1335.79,417.36c-5.46,10.56-2.72,22.31-4.75,34.08-3.88-1.12-4.59-3.73-4.37-6.69.12-1.58,1.53-3.2,1.31-4.64-.84-5.27,4.69-13.48-1-15-5-1.36-2.09,8.53-5.59,12.16-.48-.37-1.42-.86-1.36-1.09,2.54-10-2.77-15.21-10.08-21.46-12-10.31-22.22-22.8-32-33.07,11,9.2,23.56,19.4,35.68,30.13,6.67,5.9,13.48,9.16,22.31,5.84Z" transform="translate(-321.63 -14.83)" style="fill:#231f20"/><path d="M1259.11,674.53c32.88-22.89,63.36-49.14,96-73.91C1350.54,611.38,1280.36,666.05,1259.11,674.53Z" transform="translate(-321.63 -14.83)" style="fill:#231f20"/><path d="M1346.29,751.21c-27.76,23.73-62.13,35.31-95.64,48.57C1283.49,785.56,1314.12,767.18,1346.29,751.21Z" transform="translate(-321.63 -14.83)" style="fill:#231f20"/><path d="M1347,668.17c-29.41,28.32-60.68,54-99.11,69.67C1283.22,717.9,1315.39,693.46,1347,668.17Z" transform="translate(-321.63 -14.83)" style="fill:#231f20"/><path d="M1295.69,501.26c-14.52,23.3-77.17,78.73-90.63,79.15C1240.51,558.38,1266.13,527.65,1295.69,501.26Z" transform="translate(-321.63 -14.83)" style="fill:#231f20"/><path d="M1230,499.27q28.69-29.7,57.38-59.41C1271.09,462.41,1251.55,481.83,1230,499.27Z" transform="translate(-321.63 -14.83)" style="fill:#231f20"/><path d="M1098.84,809.83c16-12.22,34.66-18.81,53.55-24.91C1135,794.16,1116.39,800.78,1098.84,809.83Z" transform="translate(-321.63 -14.83)" style="fill:#231f20"/><path d="M1367,777l-37,16.72c11.21-8.06,22.37-16.18,35.93-19.27C1366.31,775.29,1366.67,776.14,1367,777Z" transform="translate(-321.63 -14.83)" style="fill:#231f20"/><path d="M1100.76,783.92c9.43-6.56,18.63-13.72,33.48-13.67Z" transform="translate(-321.63 -14.83)" style="fill:#231f20"/><path d="M1133.52,450.91l20.24-15.07c-4.91,7.26-11.38,12.63-18.68,17Z" transform="translate(-321.63 -14.83)" style="fill:#231f20"/><path d="M722,815.66c-9.24-.87-85.58-63.91-98.26-80.82C657.67,760.27,688,790.06,722,815.66Z" transform="translate(-321.63 -14.83)" style="fill:#231f20"/><path d="M777.5,829.06c-28.82-12-51.25-33-75-52.1C729.3,791.71,750.33,814.91,777.5,829.06Z" transform="translate(-321.63 -14.83)" style="fill:#231f20"/><path d="M530.54,645.47c-18.1-14-37.66-32-50.18-56.34,8.48,9.93,16.12,20.54,25.54,29.8S524.17,638.56,530.54,645.47Z" transform="translate(-321.63 -14.83)" style="fill:#231f20"/><path d="M526.46,671.31c-10.3-10.61-24.32-17.77-33.21-31.39Z" transform="translate(-321.63 -14.83)" style="fill:#231f20"/><path d="M1511.61,792.46q-22.21,9.51-44.44,19c-.38.16-1.08-.42-4.55-1.92L1510.49,790C1510.86,790.79,1511.23,791.62,1511.61,792.46Z" transform="translate(-321.63 -14.83)" style="fill:#231f20"/><path d="M1535.16,774.05l25.4-15.75C1553,765.31,1548.21,776.65,1535.16,774.05Z" transform="translate(-321.63 -14.83)" style="fill:#231f20"/><path d="M594.31,289c-2.11,9.24-7.48,10.93-21.68,6.08a30.72,30.72,0,0,0,22-5.83Z" transform="translate(-321.63 -14.83)" style="fill:#231f20"/><path d="M1308.87,120.36c-28.62.15-45.38-18.14-44.66-48.42.63-27,15.29-43.52,45.72-45.07,29.68-1.52,48.8,20.2,47.78,47.43C1356.73,100.37,1335.81,120.65,1308.87,120.36Z" transform="translate(-321.63 -14.83)" style="fill:#231f20"/></svg>