<svg id="Layer_1" data-name="Layer 1" xmlns="http://www.w3.org/2000/svg" viewBox="0 0 659.42 972.94"><title>smelly-pumba</title><path d="M807.12,918.4c6.41-2.41,7.31-1.82,6.56,4.3-1.57.59-1.7-2.85-3.34-1.38-1.44,1.3-.8,3.16-.46,4.8,1.24.9,1.83-.37,2.61-.76,1.79-.89,2.31-.21,2.27,1.53-.18,7.29.07,14.57.23,21.86.07,2.83,1.56,5.19,1.46,7.9-.07,2,.38,4.1-.86,5.85-1.46,2-.23,3.67.46,5.73a10.33,10.33,0,0,0,3.24-8.19c-.5-23.32,1.59-46.52,3.13-69.75.72-10.83,1.14-21.67,1.89-32.49.94-13.64,2.46-27.25,3-40.91.47-11.69,3.14-23.09,3.46-34.82.21-7.87,2.83-15.65,4.12-23.52.76-4.63,1.09-9.35,1.47-14,.16-2,.28-3.88,1.33-5.56,2.31.17-1.35,4.35,2.46,3.39a3.11,3.11,0,0,1-.49,1c-2.15,1.94-3,3.47.13,5.62,1,.7.69,3.8-1.83,4.29-1.39.26-1.67.87-1.45,2,2.17,10.74-.68,21.37-.72,32.07a126.6,126.6,0,0,1-1.37,14.88c-.18,1.5.75,4.35-2.82,3.31a1.81,1.81,0,0,0-1.86,1.47,1.6,1.6,0,0,0,1.75,1.94c2.17-.2,2.16,1,2.21,2.64.07,2.12.61,4.23.63,6.35,0,3,1.19,6.78-3.78,7.39-.53.07-1.05.93-.64,2.1,4.62-1.69,4.56,1.28,4.44,4.9-2.08-.94-2.42-4.51-5.57-3,5.33,5.1,8.18,10.76,7.51,18.4-1.6,18-2.26,36.17-4,54.19-.63,6.54-1,13-1.19,19.59-.07,1.95-.25,3.76-3.31,3.72,4.17-4.72-2-6.58-2.69-10-.44,2.53,1.49,4.5,2,6.72-1.22,1.08-3.54-1.38-3.64.88-.11,2.62-2.66,4.74-1.58,7.26.64,1.51,3,1.33,4.27,1.19,4.48-.47,6,1.72,6.38,5.66a39,39,0,0,1-.07,9,75.89,75.89,0,0,0,.66,23.78c.19.95-.13,2.69,1.44,2.66s1.72-1.6,1.88-2.92c.51-4.1,1-8.2,1.6-12.29.41-2.84.82-5.85,3.14-7.75,1.63-1.33.06-2.18.18-3.2,1-9.15.76-18.61,5.33-27,1.54-2.85,1.8-5.78,2.26-8.83.27-1.78-.49-4.11,1.95-5.79-.27,5.32-.45,10.26-.8,15.19-.08,1.05.36,3.69-2.28,1.54-.66-.55-1.4,0-1.47.89-.32,3.53-2.27,7.06,0,10.6.41.64.32,2,1.48,1.54.51-.2.64-1.39,1.31-2.11.21,8.6,2.68,17.19-.67,25.78a13.49,13.49,0,0,0-.86,5.42c.1,2.2.89,5.09-3.58,5-2.75-.06-.75,3.47-.28,3.59,5.51,1.38,3.59,6,3.1,8.77-.56,3.08,1.63,5,1.48,7.59H557.1c3-10,3.39-20.45,5.3-30.62,2.53-13.43.67-27,2.23-40.38a19.52,19.52,0,0,1,.6-2.93c.11-.38.51-.67,1.47-1.87,0,9.73-.45,18.59.12,27.39.65,10,.52,20.13,3.27,30,1.13,4,1.55,8.37,2.69,12.48.28,1,.42,2.61,1.9,2.5s1.12-1.66,1.35-2.73c2.83-12.65,2.53-25.57,2.72-38.38.24-16.54-.59-33.09.28-50.39a36.52,36.52,0,0,1,3.54,13.83c2.13,24,4.15,48.07,5.38,72.17a4.06,4.06,0,0,0,0,.86c.41,1.42.12,3.65,1.91,3.79,1.19.09,1.91-1.85,2.44-3.19q4.24-10.74,8.51-21.46c.2-.49.28-1.14,1.31-1,.6,8.58,1.05,17.3,5.08,25.55,2.12-1.82.65-4,1.88-5.66,2.08.18.87,2.73,2.64,3.7,4-7.17,4.84-15.32,7.17-24.33.8,6.25,1.69,11.22,1.76,16.33,0,2.41.46,4.82.72,7.24.12,1,.33,2.26,1.49,2.31,1.32.06,1.23-1.25,1.44-2.23a54.78,54.78,0,0,0,.58-15.38c-1-14.1-2.52-28.1-6.11-41.9-1.85-7.09-1.58-14.73-2.3-22.12-.37-3.76-.83-7.5-1.26-11.26l-1.12-.08c-.49,4.65-1.34,9.3-1.39,13.95-.1,10,.17,20,.36,30,0,2.56.36,5.11.58,7.66.93,10.55-1.65,20.75-3,31.07-.1.78-.12,2-1.22,1.94-1.27-.05-1.34-1.31-1.36-2.29-.17-10.95-.86-21.9,1.24-32.81a35.57,35.57,0,0,0-.65-14.47c-.22-1-.39-2.33-1.47-2.34-1.59,0-1.31,1.51-1.42,2.61-1.14,12-6,22.76-11.08,33.48a18.87,18.87,0,0,1-1.54,2.08c-.27-3.88-.65-6.91-.66-9.94-.06-19.75-2.19-39.32-5-58.84a64.45,64.45,0,0,0-1.2-7.51c-.47-1.78,3.06-3.15,1.52-5.34-1.22-1.74-4.16.12-5.55-2.14-1.11-1.81-2.77-3.31-3.73-5.18a8.77,8.77,0,0,0-4.43-3.86c5.23-5,12.22-7.19,17.08-12.47,2.81-3.06,6.52-5.22,7.37-9.81.58-3.1,3-5.4,5.29-7.07a13.62,13.62,0,0,0,5.63-10.53c.67-7.9,3-15.3,5.58-22.71,1.9-5.36,4.49-8.67,10.87-8.41,8.52.34,16.62-3,25.07-3.73,2.22-.18,4.43-.62,6.89-1-.85,1-1.51,1.7-1.49,2.8.31,17.76-4.27,35.12-4.32,52.86C652,867,651,885.54,654.36,904c1.77,9.81,1.77,19.92,2.93,29.84,1.37,11.61,3.12,23.17,4.77,34.74.15,1,.25,2.52,1.76,2.59,1.67.08,1.46-1.45,1.7-2.49a162.66,162.66,0,0,0,4.31-42.4,22.81,22.81,0,0,1,1.33-9.29c2.23.71,1.68,2.48,1.65,3.86-.16,9-.6,18-.56,26.94,0,10.29,2.19,20.39,3.58,30.55.26,1.86,1,4.39,3.5,4.22A4.83,4.83,0,0,0,684,978c.67-6.94,1.49-13.89,2-20.85.93-14,2.42-28,2.15-41.89-.15-7.88,1-15.62.73-23.47-.2-6.63,1.06-13.31,2.06-19.91,3.64,27.16,3.86,54.36,3.56,81.6-.08,7.55-.82,15.15.83,22.66.34,1.54.3,3.63,2.3,3.49s1.16-2.25,1.29-3.54c2-20,2.94-40.12,7.4-59.87,2.37-10.52,3.23-21.39,4.76-32.1a2.46,2.46,0,0,1,1.67-2.43c.24,5.17,1.62,10,1.58,15-.11,15.71-1.64,31.35-2.35,47-.49,10.88-.17,22.06,3.35,32.71.46,1.41.88,3.17,2.89,3.32,2.34.16,2.19-1.8,2.63-3.22,4.68-15.06,6.56-30.66,8.93-46.16,2.33-15.23,4.69-30.46,6.71-45.74,1.45-10.93,1.29-22,.63-33-.6-9.87.46-19.81-.67-29.6-1.2-10.42-.69-20.85.14-31.09.66-8.16.65-16.49,2.52-24.59.79-3.45.81-7.08,1.24-11.25,2.72,7.2,1.93,14.17,1.93,21,0,12.69.79,25.41-.47,38.08-.48,4.89.68,9.66.81,14.51.24,8.22,1.38,16.42,1.51,24.63.27,17.27,2.62,34.44,2.11,51.76-.29,9.75-1.93,19.28-3.18,28.89-1.53,11.74-2.77,23.51-3.24,35.35a7.7,7.7,0,0,0,.85,4.72c1.82-.68,1.7-2.24,2-3.51,3-12.32,5.73-24.7,7.71-37.24,2.12-13.48,5.26-26.78,7.67-40.21,1.14-6.36-.22-12.52.76-18.81,1.79-11.53,1.8-23.28,3.17-34.9a73.22,73.22,0,0,0,.47-14.31c2.32,11.67,3.82,23.3,1.84,35.26A264.09,264.09,0,0,0,760.4,902c0,6.53-1,13.06-1.71,19.57-1.78,17.23-2.07,34.42,1,51.54.5,2.75.69,7.31,3.24,7.07s1.25-4.68.92-7.12c-1.68-12.25,1.53-24.14,2.45-36.19.78-10.09,2.1-20.16,3.71-30.15,2-12.67,3.38-25.41,5-38.12.87-6.8,1.13-13.67,2.05-20.45,1.6-11.72,2.26-23.53,3.39-35.29a25.48,25.48,0,0,1,1.19-4.16c.61,2.38-.25,5.64,3.73,3.94.76-.32,2,.5,1.72,1.86s-1,2.66-2.51,2.29c-.91-.22-2-2-2.43-.08-.35,1.45-1.6,3.4.12,4.78s2.76,2.12-.56,2.35c-1,.06-1,1.61-.7,2.59.4,1.19,1.31.81,2.11.45,1.13-.5,2.24-1,3.9-1.83a15.36,15.36,0,0,0-.59,7c.16,1.26-.42,1.55-1.46,1.3-.8-.2-1.26-.73-.88-1.57.51-1.12,2.78-2.11.7-3.29-.52-.3-2.73,1.6-3.57,2.88s-.5,3.24,1,3.64c6.26,1.67,5.2,6.79,4.77,10.87-1.8,17-3.32,34.07-6.89,50.83-3.38,15.89-6.55,31.83-8.51,47.95-1.31,10.76-.65,21.62.2,32.43a3.55,3.55,0,0,0,.32,1.24c.55,1.08.52,2.88,2.18,2.76,1.38-.09,1.32-1.78,1.53-2.75.84-3.9,1.26-7.89,2.13-11.78,3.23-14.3,5.28-28.81,7.76-43.25,1.36-7.9,2.64-15.88,5.78-24.06,1.56,4.41-.73,7.93-.87,11.6-.38,9.94-1.59,19.87-2.23,29.79-.55,8.64,1.54,17.27,3.55,25.74.69,2.88,1.84,5.58-.05,8.61-1.07,1.71,2.25,8.5,3.9,8.24,2.55-.4,4.94-1.86,8.11-3.17l-4.69-.71c1.3-12.49,1.3-25.1,3.68-37.45,1.41-7.34,1.41-15,4.48-22a1.13,1.13,0,0,0-.28-1.52Zm-169.5-40.16c-3.32,8-4,16.33-4.44,24.62-.75,15.81,1,31.68-1.14,47.47-1.25,9.12-2.58,18.24-2.85,27.46-.05,1.87-.64,4,1.5,6,2.72-8.87,4.11-17.56,5.92-26.35,1.66,6.81,2.42,13.78,6.25,20.6a10,10,0,0,0,.92-6.25c-.29-2.69-.88-5.37-1-8.07-.62-10.29,1.28-20.94-4.43-30.51a4,4,0,0,1-.34-2.09c.59-13.13,0-26.31,1.46-39.42C639.94,887.15,638.61,882.77,637.62,878.24Zm15.11,87.67a43.28,43.28,0,0,0,4.42,11.49c.43.73.79,1.77,1.8,1.47s1.06-1.29,1-2.17a17.16,17.16,0,0,0-1.48-6.64c-4.14-8.66-5.63-17.95-5.64-27.38,0-7.16-.29-14.19-2.08-21.13-.25-1-.06-2.22-1.3-2.4-1-.16-1.39.86-1.51,1.72-.59,4.23-1.18,8.46-1.69,12.69-1.36,11.49,2.22,22.67,2.18,34.09,0,1.59-.45,4.53,2.06,4.37,2.13-.13.79-2.88,1.33-4.36C652,967.29,652.19,967,652.73,965.91Zm-56.62-80.7c4.63-.52,9.45-.26,13.09-3.88,1-1,1.72-.05,2.19,1,.4.89.34,2.77,2.05,1.79,2.14-1.23.75-3,.16-4.51-.45-1.13-2.28-2.72-2.56-1.74-1.15,4-7-1.49-7,3.81C600,879.77,599,884.62,596.11,885.21Zm34.06-75c-5.09,4.81-7.35,11.1-5.52,15.93C625.89,820.39,632.05,817.11,630.17,810.18ZM808.53,975.64c.6-3,1-5.63-.67-8.94-1.32,3.83-4.19,2.68-7.53,2.83,2.36,1.36,1.69,5.21,2.75,4.2C806.64,970.35,806.41,974.92,808.53,975.64Z" transform="translate(-196.47 -15.31)"/><path d="M198,988.25c2.77-4.53-.07-10.5,3.78-14.76a1.57,1.57,0,0,0,.21-2c-5.75-6.5-4.28-14.74-4.53-22.14-.58-17.56-.42-35.16-1-52.73a29.4,29.4,0,0,1,.9-8.1c.45,2.11,1.05,4.2,1.31,6.34,1.55,12.39,5.29,24.33,5.57,37.09a159.15,159.15,0,0,0,5.1,38c2.39-3.91,2.47-7.28,2.42-10.59-.26-15.28-.5-30.55-.95-45.82-.45-15.66,0-31.24,2.73-46.7a2.28,2.28,0,0,0-.07-1.25c-.46-1-1-2.1.59-2.26,1.09-.11,1,1.13,1.07,2,.71,5.93,1.62,11.85,2.1,17.81a294.92,294.92,0,0,0,4,30.53c3.62,19.31,4.32,38.79,5.82,58.24.13,1.71.43,3.45,2.35,3.44s1.61-2.22,1.72-3.4a266.9,266.9,0,0,0,.18-40.09c-.91-14.25-.11-28.51.82-42.76.43-6.46.08-13,.47-19.47.21,11,1.44,21.92,2.06,32.87s4,21.38,7.71,31.43c2.65,7.1,2.78,14.2,3.56,21.33.64,5.92,2.66,11.32,4.63,16.79.28.76.66,1.84,1.71,1.61,1.27-.27,1.16-1.42,1-2.44-.59-3.21-1.11-6.44-1.82-9.62-2.14-9.59-1.43-19.53-3.69-29.08-2-8.6-4-17.23-5.24-26-1.65-11.27-2.09-22.65-2.52-34-.09-2.5-2.14-4.69-1.06-7.76,2.79,3.91,1.59,8.28,2.44,12.2,3.25,15.2,5.89,30.52,8.85,45.77,1.32,6.79,4.43,13.23,4.17,20.33a4.24,4.24,0,0,0,.18,2.12c2.59,4.56,3.44,9.59,4.47,14.62.26,1.26.59,3.76,2.61,3.13,1.77-.54,1-2.74.77-4.21-1.9-11.24-3.43-22.56-5.57-33.74-2-10.66-4.32-21.27-6-32-3.27-20.47-5.64-41-5.65-61.79,0-8-1.16-16-1.06-24,.17-13.43-2.38-26.63-2.3-40a163.88,163.88,0,0,0-1.53-22.05c-.93-7.21-.3-14.61-.39-21.93a30.79,30.79,0,0,0-.33-4.61c-.39-2.3.39-3.79,2.52-4.52,1.19,5.84,3.49,11.7,3.32,17.49-.28,10,1.29,19.85.49,29.79-.44,5.55.37,11,1.41,16.47a50.49,50.49,0,0,1,.28,13.68c-.74,8.39,3.38,16.57.85,25,2.75,2.73,2.34,6.33,2.86,9.76,2.83,18.79,3.83,37.73,4.92,56.67.24,4.13,1.55,8.09,2.09,12.2,1.95,14.71,4.86,29.3,6.33,44,1,9.79,2.79,19.1,7.13,27.9.46.94.47,2.59,2.09,2.07,1.2-.4.67-1.75.58-2.66-.76-7.34-1.58-14.67-2.38-22a8.93,8.93,0,0,1,.63-5.6c3.37,9.15,4.43,18,8.86,25.64,1-5.48-.64-10.58-1.7-15.72-2.43-11.84-5.39-23.55-7.11-35.55-2-13.83-3.82-27.67-5.42-41.54-.79-6.87,0-13.75-.65-20.57s1.49-13,2.92-19.43c.66-3,.44-6,1-8.92,2.07-11,4.15-22,7.47-32.74,1.65-5.35,2.09-11.09,4.23-17.52-1.4,14.42-2.13,27.83-4.89,41.08-2.86,13.79-5.09,27.69-4.22,41.92.74,12.07,2.74,24,4.38,35.9,1.25,9.06,1.86,18.2,2.86,27.29,1,8.91,1.07,17.91,2.63,26.76.33,1.9,0,3.91.69,5.87,1.46-15.35-.22-30.68,0-46.11.88,5.29,2,10.57,2.58,15.9,1.18,10.33,5.2,19.84,8.5,29.52,1.95,5.72,2.68,11.66,4.47,17.37.34,1.09.58,2.21.88,3.32.2.71.52,1.47,1.37,1.33a1.5,1.5,0,0,0,1.19-2c-2.07-7.54-2.42-15.4-4.78-22.93-5-15.92-9.53-31.9-7.36-49,1.34-10.57,1.48-21.3,2.2-32a10.54,10.54,0,0,1,.86-3.3c6.86,35.45,13.89,70.85,13.16,107.26,4.28-16.23,3.1-32.62,1.47-49.1,6.71,19.7,10.73,40.25,20.41,59.07,1.82-1,2.41-3.18,2.45-5.6a464.15,464.15,0,0,0-2.86-56.39c-1.17-11.27-4.06-22.43-3-34,.46-5-1.4-10.28-2.76-15.28-.81-2.95-.19-5.27,1.19-8,1.83,2.76,1.08,5.83,1.63,8.61,2.35,11.85,4.28,23.78,6.71,35.61,1.51,7.39,3.84,14.6,5.43,22,2.66,12.26,7.05,24,10,36.21.75,3.13,1.7,6.35,4.78,8.29,2,1.28,3.33.77,3.76-1.45a36.51,36.51,0,0,0,.85-10.22c-.87-9.65-1.11-19.4-2.69-28.93-1.63-9.87-1.17-19.89-3.06-29.68-.54-2.76,1.2-5.13,1.32-7.89,7.83,27.62,13.45,55.83,23.4,83.65,3-5,3.53-10.14,4.23-15.11.76-5.34,2.88-10.34,2.9-15.93,0-5.08,1.45-10.19,2-15.34.41,8.91,1,17.82,1.16,26.74a57.12,57.12,0,0,0,5.21,23.64c.29.62.7,1.5,1.21,1.63,1.12.28,1.05-1,1.51-1.59,2.06-2.91,1.82-6.33,1.44-9.38-1.14-9.18.07-18.3.59-27.38.46-8,.54-16,1-24,.92-15.41,2.8-30.68,4.95-45.93,1-7.15-.21-14.2-.1-21.29,0-.61-.1-1.19-.75-1.36-1-.26-1.21.49-1.35,1.21-.47,2.51-1.25,5-1.3,7.53-.29,13.93-4.42,27.32-5.51,41.13-.73,9.4-1,18.84-2.31,28.2-.4,2.85,1.22,5.86-.55,9.16A498.51,498.51,0,0,1,382.58,878c-1.45,4.67-.84,9.35-.93,14-.22,11.3-1.64,22.5-2.48,33.74-.09,1.14-.28,2.76-1.35,2.87-1.6.16-1.65-1.54-1.94-2.79a44.74,44.74,0,0,1-.73-10.26c0-10.74-2.74-21.23-3-31.92-.24-9-3-17.72-1.92-26.82.31-2.72-.94-5.59-1.11-8.42A203.5,203.5,0,0,0,364.69,816a96.55,96.55,0,0,0-3.64-11.82c-.79-2.15-2.47-4.41-.76-6.37,2-2.32,3.71.83,5.64,1.19,10.9,2.07,21.65,5.45,32.93,4.15,2.79-.32,4.52.38,5.41,2.85,1.3,3.55,3,6.82,3.35,10.89.37,4.52,1.44,9.3,6.22,12.25,3.46,2.14,5.43,6,6,10.05.39,2.78,1.87,5,2.6,7.46,1.76,5.89,6.85,8.18,10.81,11.69a59.94,59.94,0,0,0,6.68,4.61c3.66,2.44,4.17,4.77,2,8.48-1.07,1.79-2.57.44-3.85.63-.77.11-1.75-.75-2.3.28a1.63,1.63,0,0,0,.89,2.16c5.91,3.21,4.45,8.49,4,13.56-1.34,14.07-2.76,28.14-4.16,42.21-.78,7.89-1,15.88-2.53,24.84-3.72-17-5.87-33.1-7.79-49.33-3.38,4.53-1.69,9.76-2.44,14.58-1.86-2.25-1.86-2.25-3.09-7.73-.24-1.06,0-2.59-1.67-2.46-1.46.1-.87,1.51-1.12,2.39-1.05,3.67-.41,7.37-.17,11.06.11,1.6.25,3.14-1.11,4.79-2.58-8.38-1.15-17.37-5.39-25.29-1.44,1.27-1,3.07-1,4.6.18,7.29.47,14.57.78,21.85a34.47,34.47,0,0,1-1.91,13c-2.63,7.65-4.27,15.65-6.72,23.37-1.11,3.48-3.31,6.6-4.77,10-1.05,2.45-2.71,6.13-.45,7.47,2.61,1.55,3.89-2.48,5.37-4.28,5.26-6.35,5.92-14.65,9.27-22.76.68,3.67,1.68,6.71,1.73,9.77.09,5.22,1.29,10.18,2.52,15.17.28,1.12.39,2.5,1.88,2.43s1.54-1.55,1.68-2.61c.65-5,1.39-9.9,1.75-14.87.72-10,2.87-19.82,2-29.89a151,151,0,0,0,10.88,38.35,33.28,33.28,0,0,0,3.09,5.61c1.29,1.88,2.37,4.8,5,4.41s5-6.42,4.54-9.38c-.91-6.21-.05-12.43.66-18.56q2.49-21.21,6.68-42.2a54.48,54.48,0,0,1,2.63-8.5c-.16,8.57.41,17.5-2.57,25.32-1.57,4.13.39,6.27.62,9.33.41,5.42.87,10.87.75,16.29-.18,7.34,2.51,14.4,1.74,21.75-.17,1.57,1,1.94,2,2.28,1.7.54,2.51-.74,2.74-2,1.44-7.41,4.07-14.54,5-22.07.73-5.74,1.79-11.43,2.81-17.88,3.14,3.14,3.49,6.91,4.32,10.06,2,7.7,3.24,15.62,4.66,23.47.57,3.1,3.77,5.46,2.15,9.25-.61,1.41,1.65.39,2.55,1.16s.8-.94.92-1.59A246.4,246.4,0,0,0,488.57,948c.36-6.5.79-13,1.65-19.53-.13,10.83,3.86,20.93,5.21,31.52,1,7.88,2.91,16,6.92,23.18,1.48,2.67,2.73,2,4,0,3.29-5.21,7.68-9.72,9.55-16.06,2.65,3.28,2.7,7,4.08,10.21,1.71,4,5.33,6.68,6.2,11ZM415.22,858.33c-2.27-3.17-3.79-6.91-7.45-8.88C409.55,853,411.07,856.72,415.22,858.33Z" transform="translate(-196.47 -15.31)"/><path d="M532.18,988.25c6.13-16.65,8.31-34.24,12.32-51.4.81-3.46-.19-6.92,0-10.37h1c.28,6.7.54,13.4.85,20.11.6,12.76.55,25.61,4.95,37.89a21.21,21.21,0,0,1,.64,3.77Z" transform="translate(-196.47 -15.31)"/><path d="M613.22,793.91c-.72,3.14-2.35,6.05-2.13,9.44a2.09,2.09,0,0,1-1.59,2.28,1.77,1.77,0,0,1-2-1.34c-1.66-6.72-7.84-9-12.48-12.77-3.65-3-7.41-5.78-11.13-8.65a3.2,3.2,0,0,0-1.43-.83C571.15,781,560.39,777,549,775.87c-9.77-.93-19.48-2.7-29.17-4.34-10.44-1.78-20.83-.55-31.14.55-5.94.64-12-.05-17.82,1.41-11.88,3-24.31,3.46-35.87,7.65-6.78,2.45-13.31,5.67-18.36,11.2-1.16,1.26-1.1,2.91-2,4.21-1,1.46-2.13,2.83-4.14,2.29-1.59-.42-2.84-1-3.1-3.25-.55-4.77-2.95-9-4.55-13.48s-3.2-9-3.51-13.71c-.29-4.49-1.31-9-1.4-13.36-.17-8.07-2.09-16.16.12-24.32,2.34-8.64,8.69-13,16-16.57,14-6.85,27.77-13.89,38.26-26.08a50.67,50.67,0,0,0,11.79-25.16c3.86-22.86,4.46-45.94-.85-68.54-3.35-14.26-8.16-28.35-15.64-41.22a5.74,5.74,0,0,0-1.59-2c-1.31-.84-2.07-3.78-3.82-2.34-1.47,1.21-.67,3.67.38,5.52,7.05,12.47,12.12,25.59,14.11,39.91.66,4.72,2.8,9.24,3.26,14.1a133.21,133.21,0,0,1,.4,26c-.35,3.44,1.07,7,.28,10.57-1.88,8.47-1.15,17.34-4.07,25.66a33.48,33.48,0,0,1-8.45,13,169.48,169.48,0,0,1-13.68,12.06c-5,4-10.91,6.4-16.49,9.4-7.14,3.84-14.18,7.88-21,12.18-2.63,1.65-3.29.91-3.82-1.57-1.44-6.66-3.38-13.55-6.36-19.28-5.76-11.09-9.44-23.25-16.83-33.5-2.36-3.27-2.32-8-6.44-10.3-.56-.31-.45-1.91.12-2.8,4.14-6.47,8.1-13.19,15.66-16.3,3.12-1.28,4.42-4.38,7-6.14,6.56-4.55,12.87-9.57,20.06-13.07,3.4-1.67,3.13-4.49,3.59-7.12a1.61,1.61,0,0,0-2.58-1.64c-9.77,5.85-21.16,5.35-31.64,8.32-8.77,2.48-17.39,5.6-25.3,10.3-1.7,1-3.29,1.92-4.56-.62-2.75-5.47-5.79-10.82-7.24-16.84-1.2-5-.74-5.62,4.24-6.57a187.7,187.7,0,0,0,33.87-10.12,18.61,18.61,0,0,0,6.07-3.95,7.87,7.87,0,0,1,5-2.2c11.52-.9,22.28-4.35,32.62-9.39,2.82-1.38,4-3.94,5.69-6.22a66.68,66.68,0,0,0,7.11-11.66c.37-.81.73-1.72-.14-2.31s-1.6.15-2.15.81a40.92,40.92,0,0,0-2.69,3.34c-6.79,10.06-16.94,14.21-28.26,16.79-5.67,1.29-11.15,2.31-16.84.72a8.29,8.29,0,0,1-5.25-3.65c3.58-.47,6.76-1.1,10-1.27,8.18-.45,14.9-4.54,21.68-8.5.79-.46,2-1.26,1.49-2.29-.79-1.49-2-.25-2.92.16a24.78,24.78,0,0,0-5.36,2.65c-7.39,5.66-15.86,5.63-24.42,4.69-2.59-.28-1.78-3.23-1.9-4.72-.15-2,1-4.07,1.75-6.07.29-.81.9-1.58,1.95-1.2,7.47,2.73,14.64-.39,21.79-1.49,5.86-.91,11,.32,16.32,2,4.39,1.39,5.15.6,4.09-3.9A11,11,0,0,0,420.5,548c-3.6-4.71-5.19-10.44-7.2-15.82-1.6-4.29-4.82-7-7.29-10.35-6.78-9.28-15.5-15.75-27.56-15.48-7.71.17-14.29-2.64-20.84-6-1.34-.69-2.52-1.34-.2-2.44,2.53-1.21,1.5-2.74,0-3.89a61.29,61.29,0,0,0-12.25-7.56c-14-6.33-27.54-13.52-37.24-25.74a86,86,0,0,1-9.54-15.87c-3.77-7.8-6.71-16-10.91-23.56a73.24,73.24,0,0,1-9.38-29.79c-.75-8.64-3.08-17.13-2.84-25.89.17-5.94.16-11.87,2.88-17.47,1.33-2.74,2.69-2.95,4.89-1.42a19,19,0,0,1,5.82,5.64c3.45,6,7.74,11.29,11.8,16.79a54.81,54.81,0,0,0,15.85,14.84c6,3.58,11.87,7.29,17.94,10.72,18.18,10.26,30.57,25.85,37.87,45.43,1.9,5.08,4.06,10.09,3.85,15.71-.06,1.72,1,2.39,2.7,2.62s2.17-.8,2.61-2.09c3.64-10.81,10.92-18.65,20.2-24.92,2.44-1.65,4.59-3.73,7.61-6.22-.93,2.73-3,3.65-3.33,5.62-.23,1.31-.72,2.8.44,3.57.93.62,2.2-.21,3.08-1,4-3.42,8-6.88,12-10.31.51-.45,1.07-.84,2.14-1.67.64,6.6-1.5,12.76.27,20,3.36-6.14,3.65-11.76,4-17.36a10.19,10.19,0,0,0-.16-3.83c-1.31-3.81,1.82-3.51,3.71-4,2.89-.8,1.8,1.52,2,2.86a8.34,8.34,0,0,0,.76,2.44c4.75,9.37,8.55,19.16,12.67,28.81.74,1.73,1.59,4.75,3.73,3.85s1.47-4.06,1.07-6.13c-1.93-10-5.26-19.37-12.55-27.36,3.1-.79,4,1.85,5.83,2.46,1.29.43,2.94,1.61,3.94.23,1.15-1.6-.77-2.51-1.76-3.35a25.65,25.65,0,0,0-9.48-5.2c3.1-1.41,6.45-2.23,9.11-1,2.82,1.32,2.69,5.39,4.47,8.32,2.8-3.19-.94-6.21.36-9.1,1.08.24.4,1.39.93,1.67,5.59,2.88,4.34,7.46,3.66,12.39a57.87,57.87,0,0,0,3.18,27.84c.36-13.6-.65-27.35,5-40.51,2.66,2.29.21,6.64,3.7,8.7,1.66-2.78,2-5.49.62-8.39,4.84-.19,5.19.12,3.82,4.56-1.63,5.31-3.84,10.47-4.45,16.07a16.05,16.05,0,0,0-.36,2.53c.08,1.34-.66,3.37,1,3.78,2.09.52,1.61-1.89,2.19-3,3.36-6.35,4.28-13.56,7.07-20.12.43-1,.43-2.55,2-2.2,1.25.28.73,1.68.94,2.57.52,2.22.89,4.48,1.33,6.72.12.66,0,1.55.92,1.66,1.21.13,1.32-.95,1.48-1.72a21.23,21.23,0,0,0-.19-8.93c3.14.45,6.06.92,9,1.26,2.13.24,2.28,1.32,1.47,2.94-1.72,3.45-3.54,6.85-5.15,10.35-3,6.5-3.7,13.11-.38,19.76,1,2,.81,4.57,2.6,6.27.68.65,1.16,1.86,2.39,1.4s.85-1.64.76-2.61c-.77-9.18-1.17-18.31,1.59-27.32.68-2.2,1.79-4.18,2.54-6.32,1.26-3.63,4.16-2.83,6.79-2.61,1.74.15,1,1.4.72,2.25-.88,2.81-1.84,5.59-2.93,8.85,4-2.5,6.16-7.08,5.34-10.72.24-.11.52-.37.72-.32,6,1.67,6.06,1.7,3.63,7.42a37.19,37.19,0,0,0-2.9,16.33,5.92,5.92,0,0,0,.19,2.12c.77,1.75,1,4.74,3.1,4.59,2.39-.15,1.55-3.24,1.37-4.63-.87-6.9,5.43-8.39,8.67-12.14a10.13,10.13,0,0,1,2.51-1.59c1.23.52.43,1.8,1,2.58s1,1.41,2,1.37c1.18,0,1.15-.94,1.37-1.78.7-2.62,1.49-5.21,2.25-7.81.61-2.11,1.56-3.71,4.21-2.9a4,4,0,0,0,1.67.21c1.76-.25,3.92-1.77,5.14.14,1.76,2.77,4.39,5.12,3.92,9.15a102,102,0,0,1-2.33,13.47c-.37,1.49-1.27,3.41.7,4.13s2.49-1.3,3.11-2.72c2.29-5.29,3.7-10.76,3.26-16.58-.4-5.38,3.74-8,6.88-11.13a2.87,2.87,0,0,1,2.46-.2c1.79.66,3.46,1.42,4.72-1.55C565.14,423.88,564.19,429,563,434c-.27,1.08-1.4,2.64.36,3.39,1.59.67,2.22-.9,2.88-1.93,2.95-4.66,5.84-9.36,8.89-14.27,2.68,3.31,3.71,7.2,5.49,10.68.72,1.39,1.23,2.9,2.53,3.93.82.66,1.74,1.3,2.68.62s.26-1.52.15-2.37c-.6-4.9-2.62-9.33-4.62-13.72-.9-2-.13-2.11,1.36-2.33,4.5-.65,5.68.26,6,4.88.11,1.71,0,3.44,0,5.15.05,1.13.07,2.48,1.57,2.67s1.76-1.24,1.95-2.3a17.81,17.81,0,0,1,2.17-6.78c2,3.44,2.22,7.2,3.7,10.46.71,1.56.79,4.13,3.19,4,2.16-.12,1.6-2.71,2.68-3.92a2.55,2.55,0,0,1,.34.41c1.16,2,1.22,5.68,3.79,5.49,2.17-.16.67-3.82,1.76-5.59.91-1.5-.43-4.49,3.42-4.21,2,.15.91-2.06-.08-2.64s-2.19-.6-1.75-2.23a1.1,1.1,0,0,1,1.19-.95c1.52,0,1.72,1.29,2,2.37,1.1,4.08,5.25,6,6.89,9.66a1.75,1.75,0,0,0,2.12,1.09c1.21-.52.63-1.74.59-2.66-.16-3.38-3.83-5.22-3.93-8.67,2.13-.54,3.45.26,4.53,2.14,2.52,4.4,6.47,7.56,10.06,11a11.09,11.09,0,0,0,2.51,1.61c.89.47,2,.93,2.78.11s.24-1.79-.34-2.66c-1.7-2.58-3.35-5.19-5.43-8.42,10.46,2.84,19.66,6.93,28.74,11.36,1.35.65,1.1,1.81,1.3,2.91,1.64,9-1,17.56-2.75,26.21-.36,1.81-1.33,1.79-2.81,1-3.15-1.63-6.24-3.63-9.6-4.52-6.41-1.69-13-1.4-19.57-.42-10.28,1.55-19.61,5.78-28.82,10.38-10.29,5.14-19.22,12.2-27.31,20.2C567,501.63,563.2,510,560.43,518.76c-.32,1-.64,2.49.74,3,1.62.56,2.81-.54,3.41-1.91,2.43-5.56,6.45-10.07,9.72-15.07,5.65-8.65,14.06-14,22.29-19.67,7.95-5.46,17.06-8.49,25.95-11.89,10.1-3.86,20.29-4,30.37.47,3.51,1.55,7.47,4.35,10.65,3.72s4.51-5.68,6.55-8.83c3.29-5.08,7.1-9.92,8.92-16.33-3.22.6-4,3.46-5.78,5.15-1,1-1.87,2.85-3.3,2.32-1.89-.69-1-2.79-.75-4.19.95-4.83.79-9.7.59-14.52-.83-20.07,3.81-38,18-53.16,4.25-4.53,9.35-8.26,13-13.44.88-1.28,2.08-2,2.83.52.63,2.16,3.35,3.61,2.15,6.45a.84.84,0,0,0,.78,1.21c1.26.07,2.87.4,3.57-.81s1.88-2.22,1.22-4.18c-3,3-3.36,1.85-3.86-1.66-.83-5.86-1.07-6.18,4.77-8.31,3.08-1.13,4.9-3.82,7.06-6,7.81-7.67,17.74-11.23,27.59-15,.86-.33,2,.21,2.95-.06,1.42-.41,3.34.75,4-2.21.49-2.24,5-2.12,6.93-.09a2,2,0,0,0,2.31.45c2.06-.74.81-2.76,1.7-4.46.8,8.93.13,17.38-.36,25.93-.51,8.81-3.13,17.09-4.16,25.66-.51,4.17-.22,8.7-.3,13.07-.16,9.2-2.17,18.15-3.19,27.22-.91,8.14-5.67,14.69-11.81,20.14a98.86,98.86,0,0,1-25.64,16.61c-11.86,5.32-24.29,3.8-36.59,5.35,10.5-5.48,20.2-12.06,30.34-18.36-1.62-1.53-2.51-.79-3.36-.4-9.87,4.5-20,8.7-29,14.74-5.67,3.81-11.91,7.32-16,13.18a5.76,5.76,0,0,0,1.91,8.5c1.32.72.62,1.24.48,1.93-.2,1-.46,2.17.54,2.75,1.22.71,2.1-.33,3-1.07,2.36-2,4.84-3.77,8.43-3.63-8.06,3.35-13,8.54-12.21,17.83-6.22.72-13.08-1-20-.9-9.75.14-17.13,4.12-23.82,11.36s-10,16.2-13.85,24.87c-1.67,3.74.31,7.22,4.13,8.52,11.31,3.88,22.7,6.26,34.8,3.92,3.9-.75,3.23,3.6,4,5.89.86,2.53-1.2,3.41-3.1,3.53-4.12.28-8.26.67-12.4,0a9.58,9.58,0,0,0-6.77.82c6.65,2.77,13.24,4,19.79,2.93,4-.62,5.34.93,6,3.87.68,3.2-1.09,5.39-4.06,6.62-2.5,1-5.08.72-7.61.43-16.81-1.92-31.55-7.79-41.77-22.15a9.26,9.26,0,0,0-1.18-1.25c-.81-.77-1.61-1.94-2.88-1s-.82,2-.14,3c1.47,2.28,2.66,4.82,4.46,6.79a57.41,57.41,0,0,0,28.87,17.55c4.94,1.22,9.84,3,15.08,2.72a2.18,2.18,0,0,1,1.82.73c8.77,8.33,19.93,12.35,30.78,16.95a8.46,8.46,0,0,0,2.11.32c4.28.64,4.84,1.42,2.89,5.16a30,30,0,0,0-3.47,9.12c-.36,2.25-1.68,3.53-4.31,2C667,616,656.64,613,646.82,608.9c-4.19-1.75-8.64-2.87-13-4.25-1.35-.43-2.71-.82-4.09-1.15-2.35-.56-4.51,1.09-5.41,2.31-1.27,1.7,1.46,2.57,2.7,3.59,4.84,4,10.64,6.59,15.27,11a97.59,97.59,0,0,1,14.61,18.33,7.68,7.68,0,0,1-.43,9c-9,12.71-16.53,26.36-24.32,39.8-3.62,6.24-8.85,11.78-10.1,19.35-.13.8-1.06,2.91-2.71,1.45-9.14-8.11-20-13.51-30.4-19.68a24.66,24.66,0,0,1-11.47-15.43c-2.66-10.17-4.89-20.41-5.22-31-.18-5.85-1-11.72-.45-17.55,1.44-15.17,3.51-30.18,7.6-45,2.6-9.39,7.66-17.77,9.6-27.3.53-2.58,2.3-6.64.31-7.32-2.33-.81-3,3.46-3.85,5.65-2.22,5.77-5.94,10.68-8.84,16-2.21,4.06-4.1,8.32-4.57,12.53-1,9.18-4.3,17.88-4.7,27.19-.52,11.83-2.91,23.7-.79,35.45,2.47,13.77,1.48,28.28,8.52,41.17a31.12,31.12,0,0,0,6.91,8.58A82.87,82.87,0,0,0,601.61,705c13.39,6.35,19.74,18.58,21.92,32.82,1.63,10.68,2.6,21.48.39,32.25-1.38,6.74-4.5,12.82-7.79,18.75-1,1.73-.19,4.58-3,5.2.09-2.59-.71-4.66-3.3-5.71-.7-.29-1.45-.41-1.87.27-.22.37,0,1,.06,1.53C610.79,789.89,610.52,794,613.22,793.91Zm-86.05-37.17c7.78-1.53,13.9,1.73,20.39,2.53,10.66,1.3,20.82,4.69,31.07,7.7a74.47,74.47,0,0,0,14.63,2.9c1.13.09,2.43.19,2.86-1.23.36-1.17-.48-1.77-1.39-2.34s-1.38-1.54-2.23-1.86c-2.38-.88-5.51.46-7.15-2.64-1-1.84-5.48.59-4.7-3.73.05-.25-1-.19-1.37.34-2.5,3.84-5,.37-7.4-.11-1.1-.22-1.07-1.19,0-1.78,1.3-.73,1.33-1.36-.06-2-1.09-.52-2.35-1.16-2.53.73-.29,3.1-1.92,2-3.55,1.36-9.52-3.48-19.49-4.85-29.38-6.8-7.22-1.42-14.89,1.61-21.7-2.57a1.35,1.35,0,0,0-1.16,0c-3.14,1.7-6.62.73-9.9,1.3-5.72,1-11.57,0-17.28.67-8.79,1-17.53,2.41-26.25,4.11-5.2,1-10.38,2.46-15.62,3.46-2.75.53-2.79,3.33-2.5,5.63.31,2.57,2.2,1.54,3.64,1.25,3.07-.63,6.12-1.35,9.19-2,7.83-1.6,15.56-3.67,23.57-4.25C494.93,756.22,511.55,756.39,527.17,756.74ZM448.32,531.5a4.27,4.27,0,0,0,3.06-3.1c1.56-6.27,2.26-12.79,1-19a57.92,57.92,0,0,0-11.45-25.44c-10.47-12.95-22-24.09-39.75-26.54-9.95-1.38-18.28,2.17-26.77,6.08-3.31,1.53-2.05,3.9-1.16,6.12,1.2,3,3.1.75,4.59.36a48.38,48.38,0,0,0,5.57-2.14c13.42-5.38,25.86-3.85,37.43,5a90.68,90.68,0,0,1,15.51,15.26C446.55,500.77,450,515.17,448.32,531.5Zm32.43,193.08c-3.33-.43-8.05,1.4-12.94,2.24-2.78.47-4.15,1.73-3.83,4,.4,2.91,3.11,1.51,4.52,1.18,7.88-1.81,15.92-1.55,23.89-2.16,15.07-1.14,30,1.17,44.89,2.94,10.36,1.24,20.69,2.63,31.13,3,1.28,0,3.12.53,3.31-1.67.17-1.87-1.14-2.3-2.68-2.65A125.9,125.9,0,0,0,552,729.15c-9.39-.82-18.68-2.44-28.05-3.35C510.1,724.46,496.32,724.75,480.75,724.58Zm164.1-236.94c-.57.09-1.13.21-1.7.27-11.46,1.08-22.42,4.33-33.11,8.29-14.76,5.45-28.65,12.32-36.64,27.08-1.06,2-3.5,4.3-1.1,5.88,2.12,1.39,3.44-1.87,4.63-3.41,4.21-5.42,8.52-10.66,14.48-14.33A129.13,129.13,0,0,1,640,493.36a34.2,34.2,0,0,0,5.76-1.6c1.19-.4,2.69-.9,2.28-2.57S646.17,487.63,644.85,487.64ZM514.91,685.49c-7,.74-14.14,1.4-21.21,2.26a38.36,38.36,0,0,0-12.26,3.68,3.54,3.54,0,0,0-2,3.93c.34,1.71,2.3,1.19,3.21.8,5.27-2.25,11.08-1.08,16.42-2.73,12.34-3.82,24.93-2.19,37.47-1.77,7.58.25,14.9,2.84,22.53,2.65,1.1,0,2.63.15,2.83-1.27s-1.43-1.57-2.43-1.88C545,686.58,530,686,514.91,685.49ZM389,475.85c-2.43,0-4.25,1.17-4.51,3.3-.32,2.52,2.21,2,3.72,2.34,6.48,1.65,13.2,2.81,19.12,5.86,9.58,4.93,19,10.32,25.57,19.32,2.19,3,4.65,5.76,7,8.59.62.74,1.45,1.7,2.49,1,.75-.54.52-1.66.07-2.38-2.8-4.44-4.56-9.49-8.16-13.48A71.59,71.59,0,0,0,396.86,478C394.23,477.35,391.64,476.56,389,475.85Zm19.38,155.64A28.75,28.75,0,0,0,410.53,642a238,238,0,0,1,7.82,28.15c1.24,5.5,1.18,11,1.85,16.53.17,1.39,0,2.79,1.61,2.9,1.34.1,1.16-1.43,1.19-2.32.06-2.14,1.23-4,.86-6.31-1-6.19-1.42-12.5-2.73-18.62C418.84,651.71,416.34,641,408.42,631.49Zm191.2,56.13,2.3,1A177.2,177.2,0,0,1,628.58,627C613.59,644.81,603,664.57,599.62,687.62ZM548,642c-2.35-3-5-3.2-7.42-3.38-12.6-1-25.21-1.71-37.81-2.52-.86-.06-1.78-.16-2.1.91a2,2,0,0,0,1,2.54,8.68,8.68,0,0,0,2.87.58c7.11.38,14.23,1,21.34,1S540,642.84,548,642Zm-52.55-95c9,2,16.89-.21,24.8-.07,4.92.09,10,1.22,14.88-.23.9-.27,2.35.22,2.49-1.06.16-1.57-1.35-1.46-2.43-1.65-8.47-1.49-17-2.32-25.49-.72C505.25,544.19,500.33,543.35,495.45,547.08ZM450.54,654.89c-.06,2.62.57,5.4-2,6.47s-4.84-.47-7-2.08c-3.56-2.68-4-6.34-3.88-10.32,0-1,.19-2.12-1.12-2.46a2.11,2.11,0,0,0-1.11.28c.61,3.39-3.69,6.34-1.33,9.63,2.55,3.53,4.27,8,9.83,8.61,2.64.28,5.16,2.09,7.48-.45,2.51-2.75,4.12-5.89,2.76-9.76-.59-1.65-.72-4.46-2.82-4.1C449.51,651,450.84,653.68,450.54,654.89Zm145.21-35c3.6-.73,7.19-.7,9.59-3.66,1-1.26,1.82-3,.75-4.3-1.45-1.74-2.42.25-3.36,1.1-2.47,2.24-5.06,1.51-7.52.24s-3.42-3.67-2.73-6.52a12.09,12.09,0,0,0,.69-3.28c-.08-1.67-1.06-2.44-2.51-1.11A8.9,8.9,0,0,0,588,612.46,10.71,10.71,0,0,0,595.75,619.93ZM426.91,586c-1.61,1.74-3.16,3.58-4.89,5.23-4,3.85-8.79,3.29-11.81-1.31-.69-1.06-1.3-2.75-2.78-1.9s-1.2,2.77-.52,4.22a11.25,11.25,0,0,0,7.61,6.35c3.26.67,6.75-1.31,10.29-.86a1.24,1.24,0,0,0,.93-.79C426,593.3,429.94,590.07,426.91,586Zm94.39,24.41c3.75.36,7.36-.83,11.05-.94,1.14,0,2.61-.1,2.86-1.36.35-1.75-1.45-1.34-2.37-1.66-7.37-2.54-14.6-.21-21.87.66-.61.07-1.09.47-.94,1.14a1.64,1.64,0,0,0,1.55,1.25C514.82,609.84,518.06,610.12,521.3,610.42ZM404.54,506.62c9.45,7.35,15.72,18,26.08,24.34C423.51,521.15,415.92,511.85,404.54,506.62Zm120.13,79c1.41-.1,4-.25,6.51-.49a1.89,1.89,0,0,0,1.91-1.4,1,1,0,0,0-.75-1.31c-5.47-.82-11-1.62-16.39.12a1.61,1.61,0,0,0-1.3,1.91c.21.81,1,.94,1.66,1.14C518.71,586.36,521.12,585.67,524.67,585.65ZM336.48,456.07a47.32,47.32,0,0,0,14.21,15.26c.61.44,1.31.72,1.89,0,.79-.92.08-1.61-.55-2.16C346.94,464.77,343.34,458.63,336.48,456.07Zm17.91-1.75c.62,2.17,1.34,4,3.39,5.12a58,58,0,0,1,7.72,5.2c1,.8,1.75,2.21,3.07,1.06,1.5-1.31.38-2.63-.67-3.59C364,458.55,359.32,456.38,354.39,454.32Zm3.19,13.55c-2.87-5.77-8.14-9.43-12.7-13.75C347.32,460.27,352.28,464.18,357.58,467.87Zm335.76-16.63c-.1-.22-.18-.72-.47-.9a1.13,1.13,0,0,0-1.06.18,103.35,103.35,0,0,1-13.17,13.29c-.31.25-.33,1-.29,1.5,0,.15.69.38,1,.35C680.57,465.55,693.16,452.62,693.34,451.24Zm-78.75,64.1c-5,3.83-10.93,6.76-11.58,14Zm-.48,47.84c3.59,3.3,8.21,3.45,12.76,3.78A33.74,33.74,0,0,0,614.11,563.18ZM740.37,385.55c2.7.82,4-.88,5.12-3.06.39-.78,1-1.73.13-2.27-1.1-.7-1.24.56-1.67,1.23-.93,1.42-1.9,2.94-4,2.45-1-.23-2.26-1.75-2.41.51S739,385.88,740.37,385.55Zm-1.2,6.15c5.26.29,6.36-4.94,9.89-6.94C744.37,385.23,743.13,390.27,739.17,391.7ZM498.29,627.5c.19,1.87-2.85,3.15-.89,5.16a1.4,1.4,0,0,0,2.18-.25C501.15,630.4,500.34,628.9,498.29,627.5ZM719.16,440.86c1.88-.8,4.29.16,5.62-1.84.44-.66-.31-1.85-1.16-2C721,436.7,720.28,439,719.16,440.86Z" transform="translate(-196.47 -15.31)"/><path d="M518.93,38a16,16,0,0,1-.12-3.34c.3-1.51-.75-2-2.15-1.31-7.18,3.76-11.86,10.3-17.55,15.77,4.41-1.95,7.3-6.14,12.15-7.78.45,1.71-1,2.24-1.84,2.89-5.88,4.42-9.25,10.6-12.91,16.82-4.85,8.24-8.76,16.93-13.43,25.24a9.76,9.76,0,0,1-.95,1.42c-1.09,1.33-2.37,3.28-4.08,2.49-2.22-1-.49-2.88.06-4.41,2.21-6.14,3.27-12.69,6.49-18.49.86-1.57.12-3.22-.59-4.51-1.24-2.23-2.71-3.67-5.07-.65-3.58,4.57-6.85,9.45-11.68,13.08,5.32-12.52,9.93-25.36,19-37l-10.52,3.62a9.75,9.75,0,0,1,3.49-7.65A89.83,89.83,0,0,1,507.06,17a24.11,24.11,0,0,1,13.84-1.13c7.24,1.41,14.74,1.48,21.43,5.42,9.33,5.5,15.49,13.25,17.85,23.77,2,9,3.27,18.26,4.79,27.41,1.87,11.3-2.27,20.14-9.72,27.93a11.45,11.45,0,0,0-3.52,8c-.52,20.3-.66,40.62-1.75,60.89-.92,17-1.58,34-1.17,51,.33,13.24-.23,26.59,1.79,39.77.62,4-.28,7.95-.22,11.94.1,6.17,1.13,12.25,1.18,18.34.05,5.59,2.85,10.46,3,15.92,0,1.42,1.42,1.46,2.41,2,8.68,4.8,18.62,6.06,27.62,9.88,19.37,8.21,39.54,14.52,57.62,25.85,9,5.67,16.7,12.8,25,19.24,1.9,1.48,2.11,2.39.07,4.17-5.7,5-11.89,9.66-16.48,15.55-6.78,8.69-13.78,17.64-15.53,29-.37,2.36-1.92,2-2.75,2.15-2.33.45-1.16-1.74-1.27-2.6-.61-4.76.86-9.75-1.69-14.3,4-6.77-2.95-10-4.84-14.91-.46-1.18-1.4-2.18-1.83-3.37-.57-1.55-.31-3.55-2.61-3.92-.64-.1-1.35.23-1.27.8.3,2.14-1.48,4.14.22,6.48,4.18,5.78,3.13,9.68-3.32,12.58,1.16-3.7-.08-7.18.24-10.71s-2.35-5.74-4.45-8a1.93,1.93,0,0,0-3.33,1.16c-.66,6.82-6.36,9.24-11,12.16-3.93,2.51-6.86,6.38-11.69,8.42a36.12,36.12,0,0,1,8.88-22c-10.4,5.1-17.45,13.29-22.57,24.76a31.17,31.17,0,0,1,0-4.64c3-14.88-.52-29.31-3-43.8-.17-1-.32-2.61-1.94-2.27-1.37.28-1.25,1.74-1.39,2.84-.93,7.29.73,14.54.46,21.82,0,1.27.11,2.54.24,5.07-5.24-7-8.72-13.8-13.44-19.76s-8.57-12.5-15.63-17.88c.67,3.74,2.34,5.7,3.61,7.82,6.09,10.18,12.14,20.37,18.36,30.46,1.81,2.93,2.1,5-1.11,7.19-2.54,1.73-4.64,4.1-7.42,6.62-.45-4-1.06-7.46-1.18-10.91-.16-4.81-1.94-9.18-3.24-13.69-.34-1.17-.62-2.71-2.4-2.48s-1.51,1.79-1.72,3c-1.12,6.47.81,12.77,1.08,19.17.18,4.31-1.64,8-2.81,12-.2.69-.81,1.17-1.43.8.9-6.52-.26-12.86-1-19.12-.73-6-2.41-11.83-3.78-17.71-.3-1.28-.53-3.32-2.37-2.91-1.45.34-1.58,2.21-1.53,3.67a154.75,154.75,0,0,0,1.47,15.78c.42,3.19,1,6.43-1.8,9.25-1.24,1.25-1.75.43-2.68,0,2,3.61,2.42,3.74,4.81.66-.58,4.71.5,8.44-1.85,12.55-1.22,2.13-1.16,6.18-.36,9.39.2.79.41,1.81-.66,2.2s-1.41-.37-2-1.11A39.6,39.6,0,0,1,521,403.49c-1.39-4.18-5.29-3.89-9.77,1.15,1.59-7.22,1.48-13.43-2.21-19.42-2.19,1.77-2,4.1-2.07,6.27-.05,5.44.06,10.87,0,16.3,0,2,.68,4.92-2.42,4.86-2.74-.06-3.06-2.4-2.83-5,1.11-12.75,2.29-25.51,2.08-38.33,0-1.12,1.17-3.36-1.28-3.26-2.08.08-1.28,2.15-1.42,3.44-.67,5.82-1.28,11.64-2,17.45-.08.67-.38,1.69-.85,1.88-6.08,2.41-9.2,7.65-12.43,13.11a9.5,9.5,0,0,1-1.28-8.17c1.06-3.75-.16-7.64,1.1-11.43,1.78-5.36,5.52-8.67,10.05-11.64,1.82-1.2,5.61-2.67,4.43-4.81s-4.14.73-6.34,1.22c-6.67,1.47-11.51,5.3-13.72,12.13-2.42-1.76-3.77-4.32-5.57-6.48-.51-.62-.92-1.67-2-1.14a1.84,1.84,0,0,0-.77,2.26,28.69,28.69,0,0,0,1.76,4.35c2.43,4.81,4,9.72,2.72,15.21-.91,3.81-.52,7.65,0,11.5.15,1.19.89,3.26-1.47,3.23-2,0-4.89.38-5-2.66-.16-4.74-1.45-9.27-1.89-13.94-.15-1.6.91-2.63,1.71-3.8,1.56-2.3,3.51-4.41,4-7.26-1.34-.69-1.79.3-2.4.77-2.76,2.14-5.4,5.17-8.31.05-.73-1.29-1.83-.63-2,.68a27.2,27.2,0,0,0-.06,5.56c.39,3.39-1.83,5.22-3.9,7.19-.71.68-1.73,1-2.25.19-2.15-3.39-6.49-4.66-8.13-8.5-.39-.93.05-2.74-1.66-2.35-1.21.28-1.2,1.79-1.2,3,0,.67-.06,1.34-.1,2.06-1.81-.34-1.66-2-2.46-2.92-.6-.69-.68-2.19-2-1.75-1.16.38-1.09,1.79-.9,2.61.87,3.81,2,7.57,3,11.57a52.39,52.39,0,0,0-6.45-2.4c-1.81-.42-1.21-1.63-1.35-2.62-.58-4.09-1.08-8.2-1.71-12.28-.21-1.39-.57-3.22-2.38-3s-.93,2.08-.94,3.22c0,2.42.12,4.85.2,7.28.05,1.4-.1,2.69-1.95,2.59-1.41-.07-2-1-1.82-2.33.34-3.25-.4-6.56.6-9.8a4.39,4.39,0,0,0,0-2.91c-.58-1.24-.08-3.62-2.49-3.33s-1.27,2.36-1.41,3.73c-.44,4.05,1.2,8.64-3.06,11.71a.86.86,0,0,0-.19.78c3.41,8.32-1.36,15.64-2.88,23.34-.44,2.2-.67,2.15-3.89,4.78,9-20.84,2.37-37.42-11-52.81-1.74,1.93-1.39,3.72-.52,5.59,2.72,5.81,5.78,11.49,8,17.49a29.07,29.07,0,0,1,.25,21,4.22,4.22,0,0,1-1.41-3.1,10.41,10.41,0,0,0-1.9-4.73c-1.51-2-3.77-4.16-5.91-3.26s.11,3.5.26,5.35c.2,2.32,2.42,5.27.16,6.67-1.45.9-2.9-2.47-4.25-4A90.81,90.81,0,0,0,363,382.13c-5.64-2.42-5.71-3.22-2.34-8,8.9-12.57,21.91-20.09,34.21-28.59a146.59,146.59,0,0,1,38-19.14c16.77-5.44,33.75-10.45,51.68-10.81,11.13-.22,22.24-1.06,33.36-1.6a4.27,4.27,0,0,0,3.43-1.48,52.2,52.2,0,0,0,10-24.52c1.77-14.45,2.43-29,3.86-43.49,2.16-21.87,2.11-43.86,4.6-65.7.88-7.79.64-15.7,1.13-23.54.94-15.09,2.34-30.16,2.48-45.29,0-2.71,1-5.87-2.76-7.24a.8.8,0,0,1-.25-1.39c.74-.48,2.87.37,1.93-1.57a2.8,2.8,0,0,0-3.73-1.06c-2.42,1.66-1.85-.13-1.93-1.36a1.19,1.19,0,0,1,.06-.42c3.22-9.21.88-18.94,2.67-28.37,1-5-.45-10.47-1.35-15.64-.78-4.49-7.07-7.17-11-4.47C520.48,53,514.21,58,512.24,66.53a13.8,13.8,0,0,1-2.91,6.59c-1.27-8.85,2.27-15.39,8.05-20.44,3-2.59,5.46-5.22,5-8.81-.28-2.44.78-4.2,1.05-6.6-1.46,1.95-2.92,2.6-4.57.66ZM520,375.31c-1.62,9.67,1.31,18.83,2.75,28.14.15,1,.77,2.41,2.17,2.25,1.88-.2,1.26-1.95,1.43-3.07C527.93,392.71,523.2,384.18,520,375.31ZM495.31,40c3.56.62,4.05.36,5.13-2.23s7-7.84,8.48-6.93c2.29,1.42,3.86-.27,5.71-.31,3.53-.06,5-3.14,7.7-4.29,1-.42,3.12.41,2.29-1.72-.58-1.47-2.41-1.49-3.74-.64s-2.4,2.61-4.4,2.11c-6.22-1.54-10.05,2.15-14.19,5.89C499.61,34.31,499.85,39.07,495.31,40Zm30.92,284.23c-2.36-.05,0-3.19-2.6-2.72-2,.36-2,2-1.91,3.67,0,1.5-.17,3-.28,4.64,1.6-.35.76-2.63,2.47-2.6,1.52,1,1.55,3.43,4.09,4.08-3.49-3.45,1-5.75,1.47-9.66Zm9.54-287c-1.36-2.27-2.83-3.67-5.81-3.16-2.09.36-4.37.61-6.44-1.11-1.28-1.07-2.62-.08-3.22,1.62C525.37,36,530.35,37.52,535.77,37.19Zm13.09,290.1c.2-2-1.93-3.41-1.54-5.46.45-2.33-.53-1.95-2.38-1.6-3,.56-3.93,4.23-7.12,4.25-.2,0-.61,1-.53,1.43.18,1,1,.83,1.66.52a9.42,9.42,0,0,0,2.92-1.56c1.73-1.72,3.55-1.36,4.68.89C547,326.69,547.27,327.61,548.86,327.29ZM543.53,57.38c.35.9.09,2.87,2.23,2.4,1.84-.41,4.86-.55,4.8-2.74-.08-3.15-4.09-1.12-5.84-3C544.17,53.47,543.84,55.86,543.53,57.38ZM529,44.46c.43.88,1.27,1,2.12,1.13,2.77.38,5.6.5,8.19,1.83.65.33,1.71.88,2.1-.35.33-1-.53-1.28-1.31-1.76-3.14-2-6.91-.41-10.12-2C529.49,43.1,529.13,43.86,529,44.46Zm12.17-6.3c-1.21,2.88.46,4.32,2.07,6,1.28,1.33,2.23,1.05,3.1-.08s.91-2.72-.58-3.13C544.05,40.45,543.17,38.88,541.2,38.16Z" transform="translate(-196.47 -15.31)"/><path d="M331.14,496.26c4.17.82,7.79,1.33,11-1.12,2-1.49,3.22.24,4.43,1.13,3.94,2.88,7,6.66,10.83,10.56-3.65.36-6.93.67-10.2,1-.9.11-2.32-.5-2.51.88s1.3,1.65,2.36,1.89a26.69,26.69,0,0,0,5,.91c2,.06,2.37,1.85,2.64,2.89.41,1.54-1.52,1.2-2.45,1.53-2.64.93-5.37-.09-8.05.14-1.61.13-4.06-.56-4.26,1.59s2.46,1.9,3.94,2.33c4.15,1.21,8.46,1,13.2,1-1.56,2.74-3.44,4.76-5.1,7.15,4.16-.4,7.51-2.74,11.51-4.55-1.52,5.85,2.85,9.95,3.75,15.06.57,3.28,1.26,6.75,3.53,9.54,1,1.2.23,2.64-.39,3.63-4,6.42-1.8,13.82-3.15,20.66-.34,1.69,3.35,4.18,5.18,6.3,3.28,3.77,3.12,4.85-1.68,6.45-5.52,1.84-11.21,3.3-16.72,5-7.66,2.43-15.62,3-23.27,5.27-4.11,1.22-3.1,3.66-2.69,6.25.8,5.07,3.9,9.07,6.59,13.15,2.51,3.8,3.68,8.4,7.14,11.63,1.64,1.53.07,2.69-.92,3.5-3.42,2.81-6.75,5.83-10.53,8.06a48.9,48.9,0,0,0-14.28,12.09c-.74,1-1.56,2.44-3.05,1.83-1.22-.49-1.63-1.88-1.61-3.22.1-6.48-3-12.13-4.94-18-1-2.93-2-5.92-2.9-8.87-3.66-12.33-9.15-24.22-9.75-37.35-.34-7.66-1-15.29.14-23,.77-5-.11-10.28.34-15.37,1.43-16.06,4.46-31.75,11.14-46.59,1.11-2.48,3.66-3.35,5-6.23,1.57,5.12,4.66,8.63,8.1,11.87,2.31,2.17,4.79,3.7,8.07,2.07,1.13-.57,2.24-.06,3.37,0,1.9.06,3.83,0,2-2.72-.35-.53-1-.78-.17-1.64C335,499.79,334.94,499.74,331.14,496.26Z" transform="translate(-196.47 -15.31)"/><path d="M661.09,524.13c3.4.48,5.59,2.41,8.08,3.64,1,.5,2,1.12,3.06,1.52,1.64.63,3.95,1.13,4.78-.23,1.12-1.84-1.57-2.13-2.52-3.17a11.67,11.67,0,0,1-.78-1.12c2.06-.76,3.64.6,5.35,1a13.8,13.8,0,0,0,7.19-.33c.84-.28,1.75-.5,1.59-1.61-.11-.82-.9-.9-1.6-1.13-7.67-2.48-15.85-3.17-24.07-7.2,6.18.89,11.49,1.51,16.74,2.48a50.34,50.34,0,0,0,8.12.41c1.36,0,2.75-.28,3-1.86.27-2.08-1.5-1.49-2.64-1.79-5.19-1.37-10.82-.83-15.9-3.68,3.21-4.73,7.85-7.12,12.86-8.83a85.21,85.21,0,0,1,10.75-2.88c7.42-1.5,14.42-4.33,21.62-6.51,2.49-.75,3.8-1,4.88,2.16a172.52,172.52,0,0,1,7.86,38.1,259,259,0,0,1-.35,59.49,150.6,150.6,0,0,1-11.91,42.73c-2,4.51-5.12,8.55-7.54,12.9-1.19,2.16-1.89,1.29-3,0a100.82,100.82,0,0,0-21.82-19.77c-2.12-1.37-2.38-2.76-1.14-4.93,2.84-5,5.48-10,8.2-15,2.84-5.25,1.14-8-4.75-8.31-2.78-.18-5.54-1.26-8.24-2.16a143,143,0,0,1-22.34-9.59c-1.17-.62-3.23-1.38-1.07-2.92,5.8-4.14,4.2-10.29,4.22-15.77,0-4.33-.23-8.89-2.6-12.87-.4-.67-.66-1.26,0-1.88C666.74,546,666.34,535.52,661.09,524.13Z" transform="translate(-196.47 -15.31)"/><path d="M581.86,839.3c1.49,4.28.25,5.92-3.26,5.36-2-.3-2.24,1.29-3.25,2.14-1.26,1.05-3.69,2.47-3.62-.53.13-6.31-2.94-1.56-4.61-2-.06,1.95,1.6,1.31,2.08,2a4.16,4.16,0,0,1,.87,2.31c-.08,1-1.16.94-2,1.15-15.77,3.89-31.83,4.35-47.9,3.51-10.61-.55-21.27-.8-31.75-3.17-4-.89-8.23.15-12.36-.6-17.36-3.1-33.56-9.61-49.59-16.63-5.45-2.38-6.89-7.29-4.8-14.64,2.33-8.16,8.22-13.29,15.17-17.09a88.89,88.89,0,0,1,38.37-10.5c11.84-.66,23.66-1.69,35.53-1.63,14,.08,27.41,3.52,40.73,7.24,9,2.51,18.35,4.16,26.78,8.56,5.87,3.06,10.56,7.19,12.41,13.92.56,2,1.05,3.85-.34,5.68a3.58,3.58,0,0,0-.36,3.67c.66,1.67.6,3.06-1.14,4s-.66,2.55-.95,3.84C587.25,838.62,586.93,842,581.86,839.3Zm-12-.86c7.31-.24,7.82-1.28,5.85-6.87-3.07-8.67-12.81-16.46-22.74-15.28a24.29,24.29,0,0,1-5.5-.25c-3-.34-6.19.46-9.09,1-2,.34-4.06,2.89-6.94,3-1.36,0-2.06,1.5-2.1,2.86-.05,1.77,1.52,1.32,2.52,1.56,3.31.79,6.72,1.12,10,1.71,4.68.83,10.28-.16,13.48,4.86C559.15,836.84,565.43,837.17,569.88,838.44Zm-84.59-17.18c2,.34,3.61-.75,5.17-1.62a1.49,1.49,0,0,0-.23-2.75c-3.83-1.36-7.17-3.83-11.7-3.63-6.65.3-13.53.62-19.95-.74-6.8-1.45-17.09,3.59-19.09,12-.43,1.82,0,2.85,2,2.72,5.66-.35,11.48,0,16.9-1.79A82.09,82.09,0,0,1,485.29,821.26Z" transform="translate(-196.47 -15.31)"/><path d="M807.43,520.29a32.8,32.8,0,0,0-5-7.25c-2.11-2.25-3.78-5.44-1.06-7.95,2.53-2.35,5.51-1.37,7.85,1.35,1.74,2,4.22,3.27,6,6,1.36-3.81-2.1-5.12-2.27-7.91,4.31-1.26,8.79-.12,13.11-.77,3.3-.49,5.91-.34,7.72,3.22a9.6,9.6,0,0,0,4.91,4c1.25.53,2.81,1.38,2.51,3.07s-2,1.83-3.27,2.44a1.87,1.87,0,0,1-1.26.16c-7.1-2.43-14.47,1.68-21.57-.89a5.23,5.23,0,0,0-2.13-.09c-1.66.13-4.35-.24-4.43,1.51-.1,2.37,2.65,1.86,4.39,2.07,3.39.4,6.89.53,10.17,1.14,2.72.51,5.08,3,7.55,4.74.14.09,0,.81-.18,1.09a1.72,1.72,0,0,1-2.25.67c-1.15-.55-2.22-1.3-3.41-1.74-2.11-.77-4.52-1-5.59,1.33s1.22,3,3.52,3.91c-3.55,1.88-6.16,3.9-10.18,2.8-2.34-.64-5.08.16-7.64.38-1.4.11-3.08,0-3.49,1.82-.34,1.5,1.14,2.18,2,3.06a3.88,3.88,0,0,0,2.77,1.72c-1.47-3.94.93-4,3.62-3.63,2.27.32,4.18-.63,6.46-1.79-.48,5.32,3.34,5.88,6.94,7,5.68,1.8,6.68,5.5,3.17,10-1.4,1.8-3.24,1.88-5,1.61-5.23-.81-7.66,2.11-9.13,6.43a296.36,296.36,0,0,0-10,39.7c-1.6,8.37-2.8,16.83-4.37,25.2a76.87,76.87,0,0,0-1.13,20.86c1.5,16.41,0,32.87.8,49.27.56,11.71-.79,23.41.32,35.09.26,2.68-2.08,3.54-3,5.35-.29.57-2,.6-.76,1.76.46.43,2.07-.64,1.53,1-.14.42-1.18.72-1.83.78-1.95.19-.89-1.33-1-2.08a103,103,0,0,1-1.78-21.2c.26-17.57-.52-35.12-1.64-52.67-.37-5.92-.9-12.25,1.89-18,1.09-2.28.14-4.84.53-7.22,1.73-10.49,2.63-21.11,4.42-31.55a288.55,288.55,0,0,1,9.19-39.14c2.11-6.62,2.07-11.56-2.63-16.31-1.58-1.59-3.79-2.53-5.61-3.92-4.61-3.51-4.8-7.25-.33-10.74,4.78-3.74,1.26-8.15,1.18-12.22,0-1.89-1.23-3.76-1.32-5.8-.16-3.61.5-3.95,3.92-2.49C803.25,516.56,804.53,519.39,807.43,520.29ZM793,717.57c-1.14,2.36-.72,4.7.79,5.67,3.78,2.41,2.22,3.94-.76,5.54,2.85,1.1,4.16,1,3.67-2.31-.32-2.17.57-4.56-2.38-5.58C792.88,720.38,794.46,718.77,793,717.57Z" transform="translate(-196.47 -15.31)"/><path d="M485.23,864.72c-.8,3.31,1.16,5.48,2,8.16-3.25-.18-6.09-.48-8-3.75-1.73-3-2.44-2.82-4.08-.16-.48.79-1.25.62-1.87.4-1.47-.54-3.54-.8-4.23-1.89-2.65-4.24-7.26-3.73-11.06-5-8-2.74-14.69-7.47-21.28-12.55-2.49-1.91-1.68-5.54-4.58-7,10.1,1.92,19.67,5.18,29.43,7.72a225.61,225.61,0,0,0,31.6,5.42c13.77,1.57,27.63,2.48,41.47,1.58,9.66-.62,19.41,1.35,29-1.25,2.87-.77,8.31,2.29,9.52,4.83.36.77.14,1.72-.53,1.81-5,.69-7.7,5.46-12.47,6.81-7.32,2.08-7.23,2.39-9-5.1a3.56,3.56,0,0,0-.71-1.75c-.61,3.48-4.12,5.62-3.85,9.44-1.39.9-4.94-4.42-4.62,1.65,0,.84-1.29,1.06-1.91.13-.36-.56-.27-1.4-.55-2-.62-1.47.54-4.51-2.42-4-2.41.44-2.16,3-2,5,.06.68.11,1.35.22,2.8-2.62-2.57-2.34-6.09-5-8.07-1.5,2-.5,3.95-.49,5.81,0,.79.78,1.76-.24,2.3a2.11,2.11,0,0,1-3-.64c-.67-1-1.59-1.6-2.11,0-.73,2.32-2.63,2-4.22,1.85-1.91-.24-2-2.22-2.44-3.65-.4-1.15,0-2.6-1.54-3.66a5.25,5.25,0,0,0-.17,4c.3,1.18,1.25,2.66-.54,3.27-1.61.55-3.22.65-4.52-1.2-1.19-1.69-1.23-4.17-3.56-5.25-1.92,1.81-.17,6.69-5.57,5.77-3.74-.63-3.42-4.66-6.29-5.58-1.14,1.66.72,2.66.75,4.75C489.91,874.72,489,868.4,485.23,864.72Z" transform="translate(-196.47 -15.31)"/><path d="M239.74,695.63c-1.82-.56-1.13-2-1.14-3.22,0-4.71-.17-9.42-.1-14.13.06-4-2.72-6.81-3.83-10.33-1.95-6.22-2.07-6.54,2.94-11,1.21-1.08,1.4-2.62-.27-2.93-3.4-.63-4.14-3.09-4.87-5.75-.22-.83-.4-1.82-1.51-1.7a1.82,1.82,0,0,0-1.56,1.82c-.29,6.53-1.84,13.11,0,19.59a76.81,76.81,0,0,1,1.2,38c-.47,2.08.58,3.84.38,5.82-.11,1-.32,1.81-1.25,1.8s-.74-1-.82-1.72c-1.91-16.68-2.73-33.44-3.38-50.21-.33-8.53-1.75-17-1.75-25.56,0-10-1.44-19.79-2.46-29.61-1.09-10.46-1.73-21.15-5.62-31.14-1.12-2.89-1-5.9-1.43-8.83-.9-6.09-4.84-11.15-5.5-17.27a8.14,8.14,0,0,1,.24-1.63c3.87,10,9.9,18.75,11.48,28.87,1.35,8.64,3.54,17.25,3.35,26.16a118.46,118.46,0,0,0,2,24.26c.65,3.52-.49,7.73,3.88,9.3,2.83,1,5.42,2.44,8.16,3.58,1,.41,2.26,1.28,3,0A2.69,2.69,0,0,0,240,636c-2.35-1.76-5-3.16-5.92-6.41-.69-2.51-.13-5.92-4-6.69-.38-.08-.51-1.25.09-2.09,2.37.68,3.63,3.26,6.11,3.57,1.3.15,3,1.41,3.73-.55a3.19,3.19,0,0,0-1.6-4.34c-4.62-2.44-6.09-6.79-6.73-11.54-.12-.85-.6-2.22.75-2.53,1.08-.26,1.68.82,2.28,1.62,1.78,2.37,4.75,2.7,7.19,3.82,1.23.57,2.1-1.36,2.21-2.61.26-3,2.26-5.2,3.37-7.79s3.09-2.59,5.08-.58c3.69,3.76,1.29,11.19-4.54,13.59-1.39.57-3.1.69-2.05,2.71.78,1.49,2.05,2.37,3.78.88s2.07-.19,2.62,1.18c1.06,2.61.15,4.83-1.38,6.79a56.61,56.61,0,0,1-5.17,5.67c-1.17,1.15-3.49,1.94-2.19,3.93,1.15,1.74,3.07.3,4.15-.52,3.43-2.61,5.2-.28,6.26,2.25,1.63,3.88-1.65,5.56-4.21,7.3-1.05.71-3.57.42-2.64,2.37.79,1.66,1.78,4.3,4.34,3.94,4.71-.65,4.41,2,3.43,4.91-1,3-1,7-5.53,7.68-.37.06-.85,1.19-.82,1.79.07,1.2,1.14,1.08,2,1a47,47,0,0,1,5.47-.75c2.78,0,3.59,1.37,2.16,3.88-2.11,3.75-5.93,5.17-9.48,6.95a25.19,25.19,0,0,1-3.24,1.1c-6.59,2.26-7.4,4-6.12,11.11.47,2.63,2.13,5.32.36,8.09Z" transform="translate(-196.47 -15.31)"/><path d="M374.25,726.1c-4.46-1.09-9.67.16-14.56-2.17-6.08-2.89-7.57-8.91-10.27-14.06-1.36-2.59-1.94-5.62-2.69-8.5a25.19,25.19,0,0,1,.94-16.34c2.85-7,6-13.81,8.1-21.07.43-1.5,1.14-3.21,2.82-3.47,1.83-.29,2,1.74,2.68,2.87,9.3,15.35,17.6,31.19,23.87,48a92.46,92.46,0,0,0,3.7,9.55c1.39,2.77.63,3.84-2.15,4.09C382.72,725.41,378.74,725.72,374.25,726.1Z" transform="translate(-196.47 -15.31)"/><path d="M844,464.76c.07-3.65,1.08-6.56-1.21-9.35-1.21-1.47.49-4.84-3.31-4.88-.8,0-.26-1.39.42-2,1.12-1,2.22-2.07,3.3-3.07,1.24.64-.16,2.28,1.13,2.53s1.68-1,2.15-1.79C848.12,443.38,848,440,849,437c.47-1.33.7-3.69,2.5-3.19a3.17,3.17,0,0,1,2.05,4.33c-1,3.26,1.54,6.27,1.95,9.6.74,6,.93,6.24-4.92,8.05a8.32,8.32,0,0,0-2.68,1.29c-1.28,1-2.18,2.15.31,2.91,3.91,1.19,3,6.28,6.39,8,.36.19-.26,1.55-1,2.09a3.63,3.63,0,0,1-3.22.83c-5.64-2-10,1.5-14.9,3.09-.83.27-1.88.31-1.64,1.46s1.39,1.12,2.12.89c7-2.14,7.53,5.66,11.86,7.65,1.07.49,0,1.34-.75,1.83-1.44,1-3.11.7-4.58.5-5.38-.74-10.72.24-16.07.14-.78,0-2-.65-2.21.44a2.44,2.44,0,0,0,1.67,2.69,6.45,6.45,0,0,0,3.77.29c4-1.23,6.48,1,8.94,3.49.49.49,1.21.9,1,1.72s-1.08.77-1.75.8c-2.9.16-5.42.51-7.28,3.47-.78,1.24-3.61,1.52-5.54,1.63-4.38.27-8.79-.41-13.09,1.44-1.93.84-3.4-.64-3.09-2.78.67-4.52,1.34-9,.79-13.62-.3-2.43,1.55-2.76,3.5-2.05,2.32.86,3.18,3.05,4.51,4.9,1.17,1.62,3.16,3.95,5.2,2.11,1.81-1.63-.19-3.44-1.59-5-2.74-3-4.89-6.24-2.45-10.58.43-.77.07-2,.16-3,.18-2-1-5,1.88-5.3a6.49,6.49,0,0,1,6.74,4.3c.84,2.11,1.24,4.39,2,6.56.31.91.85,2,2.16,1.5,1.08-.42.6-1.46.56-2.25-.12-2.68-1.51-4.87-2.85-7.06-2.93-4.82-2-11.91,2.13-15.48,2.64-2.31,7.1-.87,8.28,2.55C840.67,459.81,841.3,462.43,844,464.76Z" transform="translate(-196.47 -15.31)"/><path d="M325.38,963.2c-1.53-4.46-2.89-7.87-3.88-11.38-3.09-10.93-7.64-21.48-9.52-32.72-1.65-9.94-2.43-20-4-30-1.43-9-1.66-18.12-2.15-27.17-.6-10.93-4.13-21.23-5.8-31.91-2-12.9-5-25.65-6.47-38.63-.44-3.84-2.82-6.77-3.66-10.37a9,9,0,0,1-.21-4.93c1.55-5.4-1.13-10.59-1.22-16-.08-4.95-.79-9.91-1.33-14.85a3.48,3.48,0,0,1,.58-2.85,56.85,56.85,0,0,1,2.81,17.85c0,8.46,1.64,16.6,3.55,24.7q1.83,7.78,4.24,15.48c1.94,6.22,3,12.72,4.29,19.14,1.2,6.07,2.21,12.08,4.35,18,1.92,5.35,2,11.45,2.39,17.26,1.48,23.13,6.37,45.57,12.82,67.78,2.73,9.39,5.73,18.84,5.47,28.88A36.24,36.24,0,0,1,325.38,963.2Z" transform="translate(-196.47 -15.31)"/><path d="M415.65,548.27c-8.15-1.88-15,1.18-22.08,1.32-4.95.1-9.85,1.62-14.91-.81s-6.37-7.42-8.88-11.52a22.53,22.53,0,0,1-3-14c.21-2.37.53-4.94-3.86-4.56,6.38-1.1,11-4.11,15.67-7.51,2.41-1.76,5.77-.62,8.63.61a38.81,38.81,0,0,1,20.5,20.27C410.09,537.28,412.73,542.33,415.65,548.27Zm-34.56-22.21c0-.8,0-2.52,0-4.23.06-2.27-.25-4.81-2.8-5-2.37-.21-3.81,2.31-4.11,4.27-1.44,9.45-1,18.6,5.83,26.3,1.37,1.53,3,2.79,4.76,1.71s.35-2.88-.23-4.27C382.14,539.1,380.52,533.25,381.09,526.06Z" transform="translate(-196.47 -15.31)"/><path d="M668.06,376.12c1.52-3.55,4.75-5.59,7.39-7.88,11.58-10.07,25-17.15,38.61-24.08,9.2-4.66,18.75-8.24,28.26-11.75,9.74-3.6,19.56-7.35,29.84-9.5,3.49-.74,5,.66,5.62,3.94,2.18,11.33,2,22.71,1,34.12-.46,5.12-.29,10.25-.86,15.39-1.2,11-2.89,22-4.6,32.93-1,6.47-1.14,13.09-3.09,19.39a142.34,142.34,0,0,1-8.94,22.56c-2.49,4.9-5.13,9.71-9.69,13.85,11.25-21,15.93-43.3,18.75-66.14,2.3-18.69,6.29-37.28,4.94-56.22-.67-9.42-5.35-16-15-11.23-4,1.94-8.29,1.15-12.42,2.19-4.76,1.19-8.56,3.81-12.92,5.42-6.31,2.32-12,5.82-18.15,8.54-.78.35-1.71.74-2.42.06-2.14-2-2.33-.55-2.83,1.29-.87,3.24-4.23,3.63-6.59,5-11.66,6.59-23.65,12.62-34,21.33C670.22,375.9,669.56,376.83,668.06,376.12Z" transform="translate(-196.47 -15.31)"/><path d="M664.05,653.34c7,10.49,7.27,21.45,3.33,32.61-1.77,5-5.69,8.8-9.88,12-7.26,5.61-14.74,10.65-24.47,11.11-3.66.17-3.36-1.88-2.39-3.53,8.84-15.08,16-31.18,26.91-45C659.49,658.1,661.74,655.89,664.05,653.34Z" transform="translate(-196.47 -15.31)"/><path d="M611.4,547.57c6.59-9.26,11.09-18.59,18.31-26a25.4,25.4,0,0,1,15-7.44c4.46-.65,10,3.16,11.34,7.41a60.09,60.09,0,0,0,2.85,6.68,21.49,21.49,0,0,1,1.47,13.4c-1.38,7.3-3.85,9.25-12.38,9.89.43-3.22,2.65-5.56,3.67-8.39C654,536.66,653,525,645.21,521.7c-1.76-.74-3.77-1.72-5.22-.4s0,3.17.84,4.59c4.79,8,2.37,16.33,1.08,24.59-.25,1.58-1.6,1.44-2.71,1.34a41.77,41.77,0,0,1-7.61-.92A107,107,0,0,0,611.4,547.57Z" transform="translate(-196.47 -15.31)"/><path d="M325.49,683.07c-2.17,4.09-1.13,8.87-2.91,13.15-.8,1.92-2.29,3.43-2.66,5.65-3.12,18.72,2.3,34.39,15.51,48,8.54,8.79,18.19,15.78,29.43,20,8.82,3.34,17.47,7.91,27.3,8,2.09,0,2.83.88,3.47,2.85,1.2,3.73-.46,7.86,2.77,11.93-10.51-4.33-19.95-8.39-29.51-12.13-13.45-5.27-24.37-14.34-35.68-22.93-10.88-8.26-16.28-19-17.5-32.49-.63-6.9.4-13.55,1.35-20.2a60.62,60.62,0,0,1,4.79-17.56c.86-1.81,1.45-3.69,3.63-4.32Z" transform="translate(-196.47 -15.31)"/><path d="M684.17,658.56c3.43,6.71,6.53,13.34,7.14,21.23a82.58,82.58,0,0,0,2.21,12.26c1.31,5.51.14,11.14,1.6,16.56a9.61,9.61,0,0,1-1.12,7.44,37.62,37.62,0,0,0-3.78,10c-.28,1.15.06,2.9-2.14,1.87-.18-.09-.94.55-.92.61,2.34,4.9-2.75,6.95-4.21,10.28-5.3,12.12-15,20-26.64,25.89-8.13,4.12-16.45,7.88-24,13.05-.84.57-1.77,1.27-2.74.66-1.34-.83-.56-2.15-.17-3.08a27.65,27.65,0,0,0,1.86-7.43,7.24,7.24,0,0,1,3.86-5.68c10.19-6,20.85-11.11,31.28-16.68,12.32-6.58,20.36-16.46,23.33-30.36.48-2.22-.55-5.23,2.4-6.85.32-.19-.94-2.58-.78-3.85,2-16-4.13-30.75-7.07-46Z" transform="translate(-196.47 -15.31)"/><path d="M600.09,821.28a9.17,9.17,0,0,1-.15-1.42c.31-5.24.12-7.29-3.75-11.18-7-7-14.75-12.75-25-15.09a278.44,278.44,0,0,1-31.61-8.87c-7.49-2.66-15.54-3.17-23.38-3.44-11.47-.39-23,.56-34.46,1.15-3.6.19-7.91,2.28-11.36-1.1-3,3.48-7.57,1.4-11.2,3-4.79,2.13-9.82,4.91-14.82,5.06-5.25.16-9.08,2.84-13.42,4.48-2.87,1.09-5.07,4-7.53,6.12-.55.48-.66,1.83-1.8.86a1.62,1.62,0,0,1-.43-2.29,17.84,17.84,0,0,1,3.18-4c10.53-8.05,22.36-12.21,35.69-13.5,11-1.05,22-2.89,33-4.2,7.59-.9,15.07.11,22.43,1.12,17.38,2.38,34.62,5.73,52,8.35a45.45,45.45,0,0,1,28.3,15.36c4.58,5.26,7,12,8.27,19,.27,1.44.29,4.3-2.07,4.38S599.8,822.92,600.09,821.28Z" transform="translate(-196.47 -15.31)"/><path d="M675.86,684.14c.09,20.36-9.73,37.84-30.67,44.57-3.78,1.22-7.45,2.79-11.1,4.36-2.15.92-3.34.75-3.91-1.82s-1.55-5.19-2.36-7.77c-1.52-4.83-1.39-5.13,3.75-5.88a69.1,69.1,0,0,0,16.89-4.51c10.94-4.57,19.9-11.64,25.83-22.06C675.4,689.07,675.37,686.46,675.86,684.14Z" transform="translate(-196.47 -15.31)"/><path d="M756.68,258.76c-2.17.36-4.09-.34-6-.83-4.67-1.19-8.87-.82-12.95,2.24-3.51,2.63-4.79,1.43-6.4-2.57-3.11-7.77-5.35-16-10.56-22.81-1.12-1.47-3.15-2.87-.84-5,2-1.89,3.91-3.18,6.65-1.13,2.07,1.55,4.33,2.87,5.14,5.52,1.37,4.45,4.62,7.83,6.66,11.89.65,1.28,1.55,2.58,3.17,2.6,4.54.06,9.13,1.43,13.61-.09,2.25-.77,4.51-.65,6.78-.74,1.6-.07,3.1,0,3.9,1.85a4.86,4.86,0,0,1-.36,5.24C763.25,257.91,760.34,259.33,756.68,258.76Z" transform="translate(-196.47 -15.31)"/><path d="M400.63,272c-.53,3.37-1.05,6.62-3.44,9.47-2.69,3.22-2.53,7.75-4.29,11.49-1,2.12-1.68,2.91-4.3,2.1-8.78-2.73-18.19-2.27-27-5-2.13-.66-4.89-.73-4.5-4,.41-3.44,3.71-4,5.87-3.65,5.38,1,11.08-.69,16.25,2.55,2.71,1.69,4.69,1,5.69-3.28,1.22-5.24,4.13-10.24,7.14-14.8.74-1.12,0-4.32,2.79-3.73C397.32,263.73,400.79,269.41,400.63,272Z" transform="translate(-196.47 -15.31)"/><path d="M807.13,918.39c.3-9.71,3-19.12,3.54-28.8.26-5-.26-10.21,1-14.93,2.15-7.94,3.41-15.63,1.68-23.85a19.9,19.9,0,0,1,.79-11.81c.74-1.77-.89-3.22-.87-4.84,6.44,3.56,6.73,8.8,6.26,15.73-.43,6.31-1.13,12.7-1.21,19.07-.18,13.68-1.59,27.27-2.92,40.88-3.85-.49-6.14.95-6.34,4.87-.09,1.61-1.16,2.54-2,3.69Z" transform="translate(-196.47 -15.31)"/><path d="M370.46,939.42c-2.19-10.39-4.58-20.75-6.5-31.19-1.19-6.42-2.32-13-2.3-19.46,0-8-2-15.67-2.12-23.56s-2.08-15.18-7.15-21.37c-2.3-2.8-3.65-6.32-6.61-8.59a1.4,1.4,0,0,1-.34-1.89c.44-1,1.34-.47,1.8-.08,2.88,2.46,6.73,4,8,8.08,3.38,11.16,8.12,22.13,9.79,33.54,2.91,19.93,6.84,39.82,6.78,60.1,0,1.43-.27,2.85-.41,4.27Z" transform="translate(-196.47 -15.31)"/><path d="M621.27,299.1a8.22,8.22,0,0,1-1.19-.29c-6.12-2.48-12.49-2.65-18.93-2-1.85.18-3.37,0-4.37-1.85-3.62-6.56-8.26-12.52-11.4-19.36-.91-2-1.78-4.56-.08-5.86s4,.23,5.62,1.6a38.75,38.75,0,0,1,10.27,14c1.46,3.16,3.28,4.73,7.1,4.79,5.37.09,10.62,1.93,16.12,1.74,1.9-.06,4.33.86,4.38,3.26s-2.37,2.73-4.11,3.38A18.91,18.91,0,0,1,621.27,299.1Z" transform="translate(-196.47 -15.31)"/><path d="M780.35,743.3c-1,.39-1.25-1.48-2.16-.66a1.28,1.28,0,0,0,.19,1.92c2.59,1.77,2,4,2.2,6.7A23.53,23.53,0,0,0,782,758a29.83,29.83,0,0,1,1.79,18c-.38,1.73.57,2.35,1.44,3.25-1.57,1.29,1.52,4.3-2,5.07-.92.2-.69,2.3.55,2,3.61-.86,2.38,1.86,2.57,3.24.4,2.86-1.58.64-2.4.93s-1.72.44-1.52,1.15A4.15,4.15,0,0,0,785,794.7c.46.15,1-.61,1.53.16-.2,1.51-3,2.68-1.44,4.14s.75-1.49,1.95-1.78c1.54,2.91-.52,5.74-.09,8.59-.43-1.21-.31-2.48-1.09-3.59-.52-.75.19-2.77-1.79-1.87-1.13.51-1.72,1.77-.63,2.8s1.72,1.6.67,2.78a1.86,1.86,0,0,1-1.53.58c-1.51-.42-1-1.85-1.12-2.89-1.16-7.18.23-14.42-.73-21.68-1.7-13-1.89-26.08-4.14-39s-4.66-25.69-7.67-38.41a65,65,0,0,1-1.57-12.83c1.84,8,6,15.29,7.67,23.32,1.41,6.68,2.56,13.41,3.74,20.13.23,1.32,1.27,2.44-.42,4.13S781,740.93,780.35,743.3Z" transform="translate(-196.47 -15.31)"/><path d="M527.14,891.44c1.08,4.54.2,9.13.91,13.53.77,4.72.43,9.41.48,14.11s.09,9.14.07,13.71.12,9.16-.26,13.71.95,9.8-1.19,13.91c-2,3.91.34,8.19-2.38,11.84a5.89,5.89,0,0,1-1.74-5.34c.62-2.79-2.27-4.32-2-7.36,1.42-15.86,2.3-31.77,3.39-47.66.4-5.81-.55-11.7,1-17.45C525.7,893.37,525.62,892.17,527.14,891.44Z" transform="translate(-196.47 -15.31)"/><path d="M339.76,684.78c-2.11,15.37-1,28.66,9.65,40.05,12.06,12.95,26,6.21,39.87,6,.19,2.12.39,5,.75,7.93.44,3.54-1.46,4.37-4.33,3.61-9.44-2.51-19.14-4.38-27.91-8.86-7.36-3.75-14.25-8.28-18.54-15.72a8.57,8.57,0,0,1-1.31-3.54C337.26,704.79,334.35,695.28,339.76,684.78Z" transform="translate(-196.47 -15.31)"/><path d="M230.54,716.62c.25,1.66,1.05,3.47.63,4.94-1.33,4.66.38,9,1.36,13.25,1.37,6,.53,11.92,1.11,17.86.82,8.33,1.31,16.69,2.1,25,.45,4.85-2.68,10,.7,14.88-2.41,7.13.49,14.12.46,21.09-.05,11.85,4.08,23.46,1.64,35.36-.43,2.09,1.44,4.1-.14,7.42C234.24,809.2,228.63,763.16,230.54,716.62Z" transform="translate(-196.47 -15.31)"/><path d="M710.71,693.72c2.92,8-.41,14.64-1.27,21.42-1.45,11.36-6,21.89-9.89,32.54-2.12,5.76-6.53,9.94-10.43,14.48a85,85,0,0,1-24.2,20c-2.95,1.59-6.31,1.57-9.66,2.32,2.39-1.46,4.62-3.33,7.19-4.32,8.8-3.38,15.16-9.92,21.64-16.28,11.51-11.31,17.39-25.33,20.32-41.07C706.16,713.34,707.34,703.71,710.71,693.72Z" transform="translate(-196.47 -15.31)"/><path d="M301.91,482.36a12.06,12.06,0,0,1-6.09-5.65c-2-3.57-5.13-6.37-7.26-10.09a125.27,125.27,0,0,1-10.47-24.21c-3.76-11.7-5.52-23.78-7.27-35.87-.61-4.21-1.05-8.44-1.24-12.73,2.88,7.3,4.08,15,5.38,22.65,1.37,8,4.19,15.42,6.73,23s5.44,15,8.53,22.4S296.76,476.19,301.91,482.36Z" transform="translate(-196.47 -15.31)"/><path d="M709.6,834.06c-.7,3.14-2.47,4.39-4.09,5.62-6,4.58-11.68,9.61-15.49,16.25-4.11,7.17-8.77,14-11.33,22.08-3.34,10.54-4,21.32-5,32.14-.13,1.42-.13,2.8-1.6,4a5,5,0,0,1-.63-4.1c1.5-8.9.84-18,2.69-26.86,3-14.28,8.61-27.08,19-37.85C697.85,840.47,703.2,837.42,709.6,834.06Z" transform="translate(-196.47 -15.31)"/><path d="M505,976.26c-1.32-7-2.73-12.91-3.5-19-.56-4.35.6-8.78,1.07-13.1.66-6.08-.25-12-.6-17.9-.59-9.94,2.21-19.39,3.29-29.08a8.49,8.49,0,0,1,.95-2c0,5.8.49,11.11-.11,16.3a159.9,159.9,0,0,0-.72,24.26c.1,2.73.29,5.51-.83,8s.49,4.44.9,6.57c1.09,5.66.15,11.52,2.29,17.13C508.64,970,506.46,972.63,505,976.26Z" transform="translate(-196.47 -15.31)"/><path d="M322.25,859.47c-4.24-10.1-3.23-21.05-5.38-31.35-2.29-11-2-22.1-4.25-33,2.38,2.83,2.84,6.26,3.64,9.53,2.54,10.36,3.57,21,5.46,31.49,1,5.65,2,11.22,1.16,17-.3,2.11,2.45,4.45-.46,6.37C322.24,859.55,322,859.52,322.25,859.47Z" transform="translate(-196.47 -15.31)"/><path d="M696.69,836.72c4.63-14.94,2.17-30.24,7.92-45.34.35,7.34.81,13.65.89,20,.06,4.87,0,9.74.94,14.51s-1,7.32-5.25,8.73A43.57,43.57,0,0,0,696.69,836.72Z" transform="translate(-196.47 -15.31)"/><path d="M795.21,787.84c-.86-14.5-1.71-28.71-2.57-43l5.78.74c-3.73,1.11-2.06,5.07-3.92,7.07-.55.59.17,1.89,1.12,1.86,3.94-.12,4.34,2,3.55,5.12-.12.5.59,1.2.93,1.86-1.33,1-2.34-1.28-3.49-.1-.52.52-1.59.77-.28,1.79,2.43,1.9,5.92,3.5,3,7.68-.23.34,2.11,1,1.57,2.7-.32,1,.33,2.81-1,3-2,.27-.79-2-2.41-3.95.44,3.53-1.53,5.91,1.35,8.25C801.22,782.71,800.22,784.72,795.21,787.84Z" transform="translate(-196.47 -15.31)"/><path d="M301.55,725.58c-2.63-2.38-2.81-5.74-3-8.82-1.09-17.55,3.81-33.65,12.43-48.74,1.32-2.31,3.28-4.27,5.35-6.91-2.35,7.62-6.62,13.74-9,20.67s-5.12,13.74-5.12,21.4c0,7.46-1,14.92-.71,22.44C301.53,725.64,301.55,725.58,301.55,725.58Z" transform="translate(-196.47 -15.31)"/><path d="M705.49,851.24c.53,13.52,2.35,26.36-3.82,39.33,0-8.61-2.13-16.39-1.25-24.37.26-2.4.82-4.73.29-7.17C699.91,855.41,702.54,853.7,705.49,851.24Z" transform="translate(-196.47 -15.31)"/><path d="M345.06,380c-11.33-1.77-19.9-7.3-28.21-13.24-5.57-4-11.64-7.09-17.39-10.74-.93-.58-3.09-.88-2.26-2.53.94-1.87,2.62-.08,3.65.29,3.89,1.39,6.89,4.42,10.29,6.66,10.35,6.83,21.38,12.34,32.27,18.15A14.65,14.65,0,0,1,345.06,380Z" transform="translate(-196.47 -15.31)"/><path d="M270.68,379c-6-7.93-3.78-28.93,4-33.75A146.62,146.62,0,0,0,270.68,379Z" transform="translate(-196.47 -15.31)"/><path d="M366.21,751.23a69.49,69.49,0,0,1,13.52,3.47c2,.79,3.9.63,5.88.59,4-.07,6.29,1.39,5.55,5.84a23,23,0,0,0,0,3.37C383,759.62,373.77,757.53,366.21,751.23Z" transform="translate(-196.47 -15.31)"/><path d="M680.86,851c1-6.82-5.67-11.31-4.16-17.9,1.68-.47,2.32.78,2.92,1.81.78,1.34,1,3.23,2.08,4.15C686.52,843.12,685.38,846.84,680.86,851Z" transform="translate(-196.47 -15.31)"/><path d="M562.08,386.14c4,4.05,3,7.44-.08,10.82-1.23,1.33-2.62,2.83-3.06,4.49-.55,2.07-1.51.84-2.39.81-1.86-.06-1.2-1.45-.9-2.13C557.67,395.53,559.83,391,562.08,386.14Z" transform="translate(-196.47 -15.31)"/><path d="M796.86,852.46c-1.39-5.68-.19-11.21.11-17,2.64,1.15,6.38.25,6.41,4.53,0,1.38.22,3.17-2.28,1.75-1.92-1.09-2.83.3-2.44,2C799.4,846.93,798.05,849.65,796.86,852.46Z" transform="translate(-196.47 -15.31)"/><path d="M795.7,942c-1.06-8-.18-15.82,1.51-23.58C799.91,926.52,797.58,934.23,795.7,942Z" transform="translate(-196.47 -15.31)"/><path d="M335.22,664.85c5-6.83,8.14-15.06,15.76-21.16C348.55,653.8,339.62,657.66,335.22,664.85Z" transform="translate(-196.47 -15.31)"/><path d="M308.65,747.77c-4.76-6.61-8.24-13.64-7.11-22.17,0,0,0,0,0,0,2.89,7.22,6,14.39,7,22.25Z" transform="translate(-196.47 -15.31)"/><path d="M607.53,400.67c-7.08-5.84-7.08-5.84-.07-12C609.31,392.53,607.32,396.25,607.53,400.67Z" transform="translate(-196.47 -15.31)"/><path d="M796.79,804.62c-2.37-4-.91-7.51-.31-11.27.19,3.55,5.23,1.5,5.36,5.1S798.05,801.85,796.79,804.62Z" transform="translate(-196.47 -15.31)"/><path d="M496.32,397c-.74,3.74-1.41,7.49-2.26,11.2-.39,1.69-1.07,3.29-3.47,2.8-2-.41-3-1-1.3-3C492.16,404.73,493.39,400.54,496.32,397Z" transform="translate(-196.47 -15.31)"/><path d="M599.74,398.12c1.63,3.38,3.27,6.75,4.89,10.13.49,1,0,1.83-1,1.73-2.1-.22-4.78.31-5.16-3C598.12,404.05,599.68,401.26,599.74,398.12Z" transform="translate(-196.47 -15.31)"/><path d="M422.47,406.06c.74-2.71,1.49-5.42,2.21-8.14.22-.85-.4-2.24,1.13-2.24a2.4,2.4,0,0,1,2.16,1.81,13,13,0,0,1,.37,6.71C427.49,407.73,424.18,404.5,422.47,406.06Z" transform="translate(-196.47 -15.31)"/><path d="M681.38,922.69c1.2,10.44-.11,20.81-1,31.2C679,943.45,681.36,933.09,681.38,922.69Z" transform="translate(-196.47 -15.31)"/><path d="M239.69,695.7c2.57,7.69,2.57,14.07-.46,17,1.21-6-2.61-11.52.49-17.06C239.74,695.63,239.69,695.7,239.69,695.7Z" transform="translate(-196.47 -15.31)"/><path d="M623.89,401.17a10.27,10.27,0,0,1-.57,5.41c-.84,1.86.44,3.57.55,5.45C616.59,407.27,616.6,405.57,623.89,401.17Z" transform="translate(-196.47 -15.31)"/><path d="M308.52,747.87c1.74,0,2.34,1.52,3.08,2.62,2.4,3.56,4.64,7.22,7.16,11.19-4.63-1.07-7.42-5.12-10.1-13.91Z" transform="translate(-196.47 -15.31)"/><path d="M442.14,406.4c-9.41,1.11-9.25,2.89-8.27-5.21A19.61,19.61,0,0,1,442.14,406.4Z" transform="translate(-196.47 -15.31)"/><path d="M462,397.48c.72,2.68,1.32,4.79,1.82,6.92.32,1.31-.2,2.11-1.6,2.45s-2-.3-2.56-1.48C458.3,402.26,459.66,400.07,462,397.48Z" transform="translate(-196.47 -15.31)"/><path d="M212.34,818.35c.46-8.45-.38-16.94,1.42-25.44v25.27Z" transform="translate(-196.47 -15.31)"/><path d="M237.62,598.72c.25-1-.71-3.28,1.38-3,2.25.27,3.31,2.56,3.69,4.73.28,1.63-1,2.29-2.38,2.33C237.61,602.82,237.51,600.92,237.62,598.72Z" transform="translate(-196.47 -15.31)"/><path d="M325.48,683.08c-.21-6.85,4.74-11,8.4-15.83a169.62,169.62,0,0,0-8.39,15.82Z" transform="translate(-196.47 -15.31)"/><path d="M575.92,859.27c-1.06-2.53-2.91-2.82-4.29-3.81,1.5-1.37,3.67-.41,5.35-1.57a1.62,1.62,0,0,1,2.28,1.63C579.07,857.4,576.55,856.8,575.92,859.27Z" transform="translate(-196.47 -15.31)"/><path d="M684.27,658.46A37.26,37.26,0,0,1,678,645.9c3.11,3.69,5.84,7.58,6.18,12.65Z" transform="translate(-196.47 -15.31)"/><path d="M643.13,740.13l11-5.24c-2.9,3.3-6.54,5.1-10.42,6.42Z" transform="translate(-196.47 -15.31)"/><path d="M802.36,844.56c1.27,3.67.38,7.13-1,10.51a.91.91,0,0,1-1.44.35.85.85,0,0,1-.15-1.43C802.89,851.38,801.45,847.72,802.36,844.56Z" transform="translate(-196.47 -15.31)"/><path d="M448.92,397.55c2.47,2.38,4,4,2.54,6.55-.42.72-1.22,1-1.75.5C447.67,402.59,449.23,400.45,448.92,397.55Z" transform="translate(-196.47 -15.31)"/><path d="M518.9,37.93a18.18,18.18,0,0,1-5.84,3.88c.44-3.65,3.26-5.37,5.86-3.8C518.93,38,518.9,37.93,518.9,37.93Z" transform="translate(-196.47 -15.31)"/><path d="M518.48,430.2c.82-2.17,1.56-4.36,2.48-6.49.3-.7,1-1.65,1.92-1.07s.4,1.54-.06,2.25c-1.22,1.87-2.51,3.71-3.77,5.56Z" transform="translate(-196.47 -15.31)"/><path d="M282.14,890.2q.64,6,1.28,12C282.77,898.26,281.85,894.34,282.14,890.2Z" transform="translate(-196.47 -15.31)"/></svg>