<svg xmlns="http://www.w3.org/2000/svg" xmlns:xlink="http://www.w3.org/1999/xlink" version="1.1" x="0px" y="0px" viewBox="0 0 90 112.5" enable-background="new 0 0 90 90" xml:space="preserve"><path fill="#000000" d="M29.231,80.278c-0.411,0.489-0.253,1.053-0.085,1.457c0.165,0.405,1.031,1.168,2.012,0.158  c0.982-1.011,0.244-1.684-0.09-2.003c-0.335-0.322-0.891-0.392-1.178-0.221C29.606,79.842,29.231,80.278,29.231,80.278z"/><path fill="#000000" d="M37.041,78.827c-0.797,0.036-1.634,0.25-2.424,0.633c-0.788,0.38-1.161,0.33-1.307,0.975  c-0.145,0.649-0.096,1.035,0.502,1.475c0.604,0.441,1.764,0.385,2.371,0.324c0.607-0.057,1.234-0.477,1.62-0.798  c0.381-0.324,0.761-1.003,0.764-1.257c0.01-0.257,0.088-0.388,0.405-0.438c0.32-0.049,1.021,0.607,2.31,0.585  c1.285-0.023,1.722-0.513,1.984-1.074c0.263-0.561,0.197-1.295,0.505-1.622c0.304-0.326,0.24,0.002,0.753-0.015  c0.508-0.016,0.84,0.034,1.151-0.236c0.311-0.272,0.505-0.832,0.351-1.057c-0.158-0.225-0.666-0.413-0.558-0.723  c0.111-0.309,0.181-0.526,0.534-0.631c0.354-0.103,0.589-0.079,0.608-0.37c0.019-0.29-0.423-0.233-0.635-0.007  c-0.211,0.229-0.558,0.311-0.696,0.215c-0.139-0.094-0.378-0.287-0.296-0.455c0.081-0.174,0.34-0.479,0.647-0.711  c0.305-0.231,0.489-1.107,1.116-1.212c0.628-0.108,1.023,0.118,2.327-1.117c1.3-1.237,0.797-1.75,1.401-2.409  c0.595-0.658,1.03-1.138,1.383-1.584c0.352-0.445-0.56-1.375-1.283-0.425c-0.729,0.947-0.74,1.147-0.869,1.408  c-0.131,0.259-0.259,0.55-0.979,0.97c-0.722,0.422-1.688,1.25-2.335,2.064c-0.649,0.816-0.705,1.067-1.265,1.307  c-0.557,0.241-1.115,0.318-0.96-0.596c0.159-0.915,0.471-0.711,1.19-1.43c0.72-0.721-0.394-0.658-0.006-1.361  c0.384-0.704,0.832-1.04,1.754-1.752c0.915-0.71,1.086-1.211,1.697-1.623c0.61-0.41,1.7-1.46,2.227-1.863  c0.524-0.402,0.344-0.013,0.479-0.04c0.135-0.029-0.118-0.387,0.465-0.971c0.584-0.583,0.651-0.723,0.915-0.875  c0.265-0.153,0.341-0.625,0.924-1.168c0.58-0.545,1.467-1.348,2.236-2.16c0.766-0.81,1.411-1.855,2.146-2.585  c0.737-0.726,0.919-1.117,0.979-1.338c0.061-0.22,0.061-0.911-0.377-0.214c-0.438,0.696-1.124,1.292-1.775,1.919  c-0.653,0.624-1.816,2.051-2.396,2.556c-0.579,0.502-1.264,1.307-1.797,1.869c-0.538,0.561-1.554,1.666-2.304,2.187  c-0.746,0.519-1.962,1.641-2.248,1.92c-0.288,0.281-2.279,1.72-2.684,2.051c-0.4,0.328-2.55,2.262-4.407,2.983  c-1.859,0.717-2.499,0.831-3.122,1.333c-0.616,0.504-0.756,0.514-0.907,0.412c-0.151-0.099-0.602-0.398-0.698-0.3  c-0.093,0.098,0.763,0.76,0.812,1.216c0.051,0.454,0.101,1.086,0.68,1.504c0.581,0.42,0.801,0.56,1.438,0.729  c0.639,0.172,1.173,0.151,1.373,0.299c0.201,0.148,0.302,0.607-0.376,0.922c-0.682,0.316-1.26,0.467-1.44,1.034  c-0.184,0.566-0.35,0.406-0.46,0.785c-0.109,0.376,0.133,0.769-0.181,0.838C37.993,78.986,37.87,78.787,37.041,78.827z"/><path fill="#000000" d="M52.832,64.578c-0.315,0.243-0.48,0.762-0.671,0.903c-0.189,0.141-0.334,0.613,0.097,0.622  c0.43,0.006,0.999-0.189,1.286-0.375c0.29-0.185,0.487-0.784,0.224-1.081C53.501,64.354,53.123,64.355,52.832,64.578z"/><path fill="#000000" d="M56.008,61.894c-0.528-0.058-0.847,0.361-0.513,0.681c0.334,0.322,0.818,0.203,0.997,0.016  C56.676,62.403,56.54,61.956,56.008,61.894z"/><path fill="#000000" d="M57.133,63.032c-0.815-0.036-1.549,0.324-1.41,0.828c0.139,0.503,0.772,0.55,1.14,0.586  c0.366,0.034,1.326-0.334,1.43-0.699C58.396,63.38,57.906,63.064,57.133,63.032z"/><path fill="#000000" d="M60.625,52.776c-0.582-0.097-1.188,0.36-1.128,0.721c0.062,0.366,0.274,0.654,0.814,0.596  c0.539-0.062,1.006-0.351,1.1-0.72C61.503,53,60.982,52.835,60.625,52.776z"/><path fill="#000000" d="M61.629,51.232c-0.306-0.038-0.388,0.296-0.237,0.465c0.149,0.167,0.252,0.085,0.34-0.042  C61.824,51.528,61.784,51.251,61.629,51.232z"/><path fill="#000000" d="M62.046,51.072c-0.175,0.008-0.241-0.586-0.002-0.925c0.243-0.337,0.896-1.07,1.11-1.326  c0.209-0.256,0.433-0.793,0.657-0.839c0.219-0.05,0.177-0.012,0.279,0.083c0.097,0.092-0.009,0.295-0.185,0.496  c-0.175,0.204,0.02,0.498-0.173,0.885c-0.19,0.385-0.544,0.789-0.897,1.002C62.482,50.662,62.352,51.056,62.046,51.072z"/><path fill="#000000" d="M65.002,45.858c-0.271,0.399-0.745,0.577-0.581,0.777c0.167,0.199,0.117,0.289,0.617,0.216  c0.507-0.072,0.716-0.289,0.841-0.537c0.125-0.25-0.074-0.327-0.207-0.544c-0.131-0.215-0.457-0.356-0.523-0.153  C65.083,45.823,65.129,45.665,65.002,45.858z"/><path fill="#000000" d="M66.274,43.592c-0.217,0.192-0.359,0.223-0.362,0.441c-0.005,0.215-0.121,0.373,0.058,0.402  c0.177,0.029,0.631-0.117,0.819-0.22c0.187-0.102,0.447-0.271,0.447-0.487c0.006-0.217-0.145-0.423-0.338-0.404  C66.699,43.34,66.397,43.478,66.274,43.592z"/><path fill="#000000" d="M65.006,39.306c-0.518,0.771-1.221,1.134-1.168,1.966c0.05,0.833,0.408,1.167,1.017,1.352  c0.606,0.184,1.181-0.009,1.487-0.089c0.304-0.083,0.72,0.105,1.016-0.237c0.298-0.343,0.273-0.695,0.793-1.018  c0.525-0.323,1.307-0.895,1.309-1.182c0.002-0.281-0.094-0.999-0.957-1.22c-0.865-0.218-0.92-0.794-1.046-1.199  c-0.128-0.403-0.615-1.059-1.292-0.646c-0.677,0.413-0.689,0.718-0.786,1.266C65.283,38.842,65.27,38.919,65.006,39.306z"/><path fill="#000000" d="M68.138,34.406c-0.165,0.155,0.006,0.53,0.042,0.613c0.034,0.083,0.198,0.185,0.324-0.064  c0.127-0.247,0.199-0.435,0.085-0.521C68.472,34.348,68.271,34.28,68.138,34.406z"/><path fill="#000000" d="M68.121,32.727c0.113,0.268,0.185,0.564,0.487,0.383c0.301-0.18,0.341-0.527,0.139-0.759  c-0.211-0.233-0.314-0.042-0.304-0.337c0.008-0.295,0.099-0.625-0.285-0.897c-0.379-0.272-0.638-0.036-1.032,0.145  c-0.398,0.183-0.602,0.63-0.648,0.886c-0.05,0.252,0.181,0.261,0.274,0.501c0.097,0.243,0.573,0.27,0.702,0.117  c0.128-0.155,0.275-0.259,0.44-0.219C68.057,32.581,68.092,32.663,68.121,32.727z"/><path fill="#000000" d="M68.701,28.927c-0.37,0.032-0.668,0.305-0.598,0.646c0.071,0.34,0.414,0.436,0.681,0.308  c0.265-0.124,0.492-0.416,0.511-0.572c0.02-0.155,0.123-0.101,0.202-0.203c0.081-0.105-0.074-0.395-0.304-0.406  C68.967,28.692,68.896,28.908,68.701,28.927z"/><path fill="#000000" d="M69.506,27.018c-0.402,0.226-0.482,0.57-0.214,0.921c0.269,0.349,0.533-0.036,0.66-0.121  c0.126-0.085,0.306-0.464,0.194-0.668C70.036,26.943,69.732,26.89,69.506,27.018z"/><path fill="#000000" d="M70.833,24.894c-0.318,0.266-0.529,0.717-0.322,1.027c0.202,0.312,0.727,0.259,0.797-0.025  c0.07-0.283,0.335-0.464,0.553-0.61c0.218-0.143,0.188-0.412-0.169-0.5C71.331,24.698,71.058,24.712,70.833,24.894z"/><path fill="#000000" d="M73.186,28.77c-0.324,0.193-0.849,0.397-0.825,0.748c0.025,0.348,0.148,0.547,0.415,0.501  c0.262-0.047,0.662-0.541,1.01-0.811c0.354-0.267,0.351-0.402,0.134-0.475C73.703,28.661,73.366,28.663,73.186,28.77z"/><path fill="#000000" d="M72.593,30.789c-0.683,0.438-1.312,0.812-1.243,1.258c0.065,0.448,0.23,0.581-0.117,0.987  c-0.352,0.404-0.354,1-0.367,1.335c-0.007,0.334,0.408,0.718,0.654,0.477c0.244-0.245,0.272-0.587,0.719-0.884  c0.442-0.3,0.64-0.388,0.873-0.117c0.232,0.267,0.82,0.05,1.282-0.052c0.461-0.103,0.786-0.312,0.919-0.099  c0.134,0.216,0.618,0.53,0.784,0.226c0.157-0.304,0.087-1.091-0.191-1.241c-0.28-0.15-0.861-0.053-0.871-0.235  c-0.012-0.18,0.429-0.294,0.376-0.462c-0.059-0.173-0.672-0.401-0.822-0.678c-0.149-0.276-0.038-0.696-0.528-0.943  C73.578,30.118,73.013,30.52,72.593,30.789z"/><path fill="#000000" d="M77.55,31.672c-0.213,0.217-0.126,0.562,0.154,0.619c0.274,0.054,0.575,0.09,0.527-0.35  C78.188,31.505,77.685,31.536,77.55,31.672z"/><path fill="#000000" d="M78.717,30.817c-0.193-0.063-0.394,0.143-0.38,0.312c0.013,0.168,0.179,0.37,0.384,0.259  C78.926,31.28,78.954,30.897,78.717,30.817z"/><path fill="#000000" d="M43.975,58.814c-0.904,0.597-0.841,0.971-0.883,1.582c-0.035,0.606,0.069,0.759,0.31,0.607  c0.233-0.151,0.431-0.522,0.664-0.321c0.233,0.199,0.479,0.201,0.823-0.124c0.348-0.324,0.48-1.522,0.338-1.713  C45.085,58.654,44.494,58.478,43.975,58.814z"/><path fill="#000000" d="M42.127,54.527c-0.59,0.462-1.11,0.812-1.162,1.566c-0.052,0.751-0.336,0.95-0.075,1.054  c0.258,0.101,1.108,0.384,1.82-0.042c0.711-0.423,1.042-0.646,1.124-1.224c0.078-0.581,0.48-1.602,0.103-1.779  C43.559,53.925,42.991,53.851,42.127,54.527z"/><path fill="#000000" d="M39.283,58.046c-0.409,0.296-0.777,0.497-0.884,0.792c-0.103,0.301,0.318,0.641,0.514,0.244  c0.201-0.395,0.397-0.345,0.644-0.519c0.243-0.178,0.399-0.329,0.296-0.508C39.747,57.876,39.453,57.924,39.283,58.046z"/><path fill="#000000" d="M35.2,63.575c-0.525,0.229-0.525,0.582-0.366,0.862c0.163,0.279,0.367-0.099,0.557-0.243  c0.19-0.141,0.381-0.203,0.312-0.448C35.637,63.505,35.428,63.476,35.2,63.575z"/><path fill="#000000" d="M32.549,66.926c-0.36,0.23-0.402,0.195-0.399,0.468c-0.001,0.271,0.235,0.635,0.39,0.588  c0.155-0.046,0.167-0.423,0.444-0.504c0.273-0.082,0.521-0.229,0.429-0.48C33.325,66.747,32.835,66.742,32.549,66.926z"/><path fill="#000000" d="M30.98,68.832c-0.202,0.008-0.358-0.058-0.312,0.176c0.041,0.234,0.218,0.465,0.4,0.428  c0.177-0.036,0.515-0.067,0.462-0.278C31.48,68.95,31.172,68.827,30.98,68.832z"/><path fill="#000000" d="M31.129,69.623c-0.319-0.055-0.359,0.022-0.504,0.319c-0.144,0.295-0.056,0.547,0.115,0.534  c0.167-0.014,0.609-0.032,0.8-0.173c0.194-0.142,0.044-0.527-0.093-0.58C31.306,69.666,31.26,69.648,31.129,69.623z"/><path fill="#000000" d="M26.55,66.918c-0.434-0.206-0.807-0.018-0.734,0.146c0.072,0.166,0.252,0.535,0.678,0.486  C26.92,67.5,26.869,67.073,26.55,66.918z"/><path fill="#000000" d="M24.207,69.28c-0.37-0.282-0.874,0.008-0.964,0.38c-0.093,0.372,0.193,0.673,0.588,0.641  c0.394-0.037,0.635-0.237,0.609-0.521C24.418,69.5,24.352,69.393,24.207,69.28z"/><path fill="#000000" d="M27.442,73.464c-0.199,0.085-0.398,0.248-0.611,0.517c-0.217,0.267,0.202,0.243,0.492,0.196  c0.292-0.049,0.421,0.03,0.667-0.171c0.241-0.204,0.293-0.673,0.223-0.782C28.148,73.117,27.771,73.319,27.442,73.464z"/><path fill="#000000" d="M23.583,79.869c-0.312,0.069-1.243,0.46-1.269,0.665c-0.028,0.208,0.004,0.682,0.423,0.575  c0.425-0.104,0.967-0.379,1.06-0.75C23.889,79.99,23.853,79.81,23.583,79.869z"/><path fill="#000000" d="M25.952,82.189c-0.416-0.251-0.579,0.286-0.488,0.404c0.091,0.118,0.42,0.112,0.559,0.03  C26.166,82.543,26.083,82.268,25.952,82.189z"/><path fill="#000000" d="M23.201,82.486c-0.624,0.108-0.723,0.666-0.905,0.783c-0.185,0.118-0.381,0.201-0.702,0.266  c-0.325,0.062,0.369,0.228,1.088,0.267c0.634,0.034,0.797,0.394,1.124,0.174c0.333-0.222,0.755-0.6,0.548-1.034  C24.145,82.504,23.726,82.395,23.201,82.486z"/><path fill="#000000" d="M18.348,80.229c-0.207,0.11-0.357,0.509,0.167,0.34c0.529-0.173,0.292-0.32,0.237-0.367  C18.704,80.155,18.451,80.175,18.348,80.229z"/><path fill="#000000" d="M15.367,81.147c-0.104-0.161-0.339-0.108-0.395,0.006c-0.06,0.11,0.144,0.462,0.294,0.427  C15.416,81.544,15.454,81.271,15.367,81.147z"/><path fill="#000000" d="M18.118,83.495c-0.174,0.065-0.439,0.367-0.16,0.368c0.284,0.005,0.387,0.088,0.479-0.107  C18.529,83.56,18.28,83.437,18.118,83.495z"/><path fill="#000000" d="M20.492,83.683c-0.138-0.107-0.549-0.202-0.793-0.205c-0.241,0-0.44,0.016-0.46,0.104  c-0.021,0.087,0.692,0.097,0.75,0.295c0.057,0.199-0.148,0.242-0.308,0.34c-0.164,0.1-0.255,0.403,0.104,0.422  c0.358,0.021,0.549-0.231,0.788-0.448C20.81,83.972,20.599,83.771,20.492,83.683z"/><path fill="#000000" d="M18.816,85.818c-0.129,0.039-0.456,0.161-0.535,0.292c-0.08,0.132,0.387,0.331,0.565,0.292  c0.175-0.039,0.543-0.246,0.549-0.396C19.398,85.859,19.128,85.724,18.816,85.818z"/><path fill="#000000" d="M17.159,84.134c-0.268-0.106-0.659-0.181-0.873,0.047c-0.213,0.229-0.492,0.498-0.21,0.706  c0.286,0.206,0.406,0.457,0.823,0.432c0.415-0.027,0.685-0.122,0.695-0.498C17.608,84.443,17.303,84.191,17.159,84.134z"/><path fill="#000000" d="M22.771,58.045c-0.209-0.067-0.959-0.105-1.236-0.096c-0.278,0.008-1.051,0.077-1.239,0.296  c-0.183,0.223-0.674,0.578-0.471,0.952c0.202,0.374,0.899,0.847,1.621,0.563c0.72-0.286,1.232-1.084,1.307-1.271  C22.825,58.302,23.047,58.134,22.771,58.045z"/><path fill="#000000" d="M26.671,55.424c-0.314,0.226-0.487,0.733-0.443,0.965c0.05,0.232,0.665,0.557,1.034,0.465  c0.368-0.086,0.686-0.846,0.621-1.125c-0.067-0.282-0.255-0.553-0.697-0.473C26.745,55.337,26.859,55.287,26.671,55.424z"/><path fill="#000000" d="M28.891,54.772c-0.325-0.056-0.595-0.04-0.674,0.263c-0.079,0.302-0.114,0.386,0.311,0.553  c0.424,0.168,0.654-0.013,0.783-0.338C29.437,54.927,29.147,54.812,28.891,54.772z"/><path fill="#000000" d="M30.061,54.487c-0.244,0.022-0.388,0.239-0.265,0.27C29.926,54.787,30.223,54.472,30.061,54.487z"/><path fill="#000000" d="M30.618,54.218c-0.12-0.049-0.273,0.049-0.247,0.177c0.029,0.13,0.233,0.112,0.334,0.013  C30.8,54.308,30.671,54.239,30.618,54.218z"/><path fill="#000000" d="M31.238,53.854c-0.153,0.076-0.23,0.026-0.284,0.163c-0.054,0.135,0.187,0.071,0.335-0.005  C31.439,53.933,31.409,53.764,31.238,53.854z"/><path fill="#000000" d="M32.513,53.199c-0.135,0.059,0.045,0.234,0.045,0.234s0.185-0.124,0.126-0.166  C32.622,53.223,32.583,53.168,32.513,53.199z"/><path fill="#000000" d="M35.425,51.542c-0.207,0.089-1.045,0.411-1.424,0.673c-0.38,0.265-0.83,0.517-1.006,0.605  c-0.17,0.088-0.337,0.359,0.196,0.254c0.53-0.104,0.993-0.43,1.337-0.609c0.348-0.177,0.808-0.351,0.952-0.567  c0.146-0.217,0.178-0.302,0.09-0.376C35.48,51.445,35.517,51.501,35.425,51.542z"/><path fill="#000000" d="M36.296,51.22c-0.107-0.089-0.243-0.037-0.313,0.093c-0.067,0.131-0.025,0.322,0.117,0.204  C36.248,51.396,36.337,51.255,36.296,51.22z"/><path fill="#000000" d="M37.959,49.542c-0.623,0.271-0.38,0.516-0.562,0.778c-0.182,0.263-0.543,0.53-0.599,0.627  c-0.059,0.095,0.176-0.007,0.333-0.104s0.056-0.292,0.422-0.226c0.367,0.065,0.975,0.265,1.138,0.156  c0.162-0.114,0.23,0.01,0.259,0.14c0.024,0.129,0.178,0.287,0.451,0.041c0.273-0.246-0.009-0.514-0.139-0.486  c-0.129,0.027-0.237-0.347-0.188-0.663c0.046-0.319-0.364-0.323-0.721-0.324C38.004,49.48,38.028,49.51,37.959,49.542z"/><path fill="#000000" d="M40.979,47.906c-0.168,0.229-0.58,0.575-0.673,0.755c-0.089,0.179,0.079,0.208,0.199,0.292  c0.123,0.09,0,0.235,0.09,0.371c0.123,0.187,0.73,0.093,0.955-0.075c0.22-0.167,0.294-0.649,0.366-0.836  c0.073-0.185,0.024-0.411,0.191-0.63c0.286-0.377,0.47-0.15,0.553-0.312c0.038-0.074-0.349-0.215-0.528-0.052  c-0.141,0.129-0.271,0.049-0.432,0.009C41.461,47.362,41.229,47.574,40.979,47.906z"/><path fill="#000000" d="M44.697,45.35c-0.302,0.042-0.958,0.233-0.819,0.736c0.133,0.503,0.525,0.307,0.805,0.141  c0.28-0.16,0.565-0.088,0.552-0.35c-0.015-0.261-0.037-0.445,0.098-0.548c0.139-0.103,0.33,0.012,0.638-0.025  c0.31-0.035,0.786-0.199,0.861-0.443c0.078-0.245,0.237-0.595,0.024-0.756c-0.21-0.163-0.736-0.272-1.01-0.125  c-0.277,0.146-0.442,0.18-0.465,0.483c-0.024,0.306-0.019,0.445-0.159,0.605C45.078,45.229,44.883,45.326,44.697,45.35z"/><path fill="#000000" d="M48.021,42.896c-0.256-0.012-0.264,0.012-0.338,0.259c-0.079,0.246-0.453,0.449-0.066,0.405  c0.391-0.039,0.678-0.164,0.676-0.36C48.291,43.004,48.19,42.904,48.021,42.896z"/><path fill="#000000" d="M46.393,47.708c-0.231,0.388-0.901,0.999-0.847,1.157c0.056,0.16,0.807-0.152,1.017-0.439  c0.214-0.291,0.586-0.537,0.552-0.805C47.084,47.354,46.451,47.614,46.393,47.708z"/><path fill="#000000" d="M48.397,46.166c-0.116-0.083-0.2,0.157-0.116,0.248c0.078,0.091,0.276,0.093,0.302-0.019  C48.604,46.285,48.458,46.207,48.397,46.166z"/><path fill="#000000" d="M52.885,37.872c-0.266,0.127-0.539,0.474-0.573,0.716c-0.04,0.239,0.024,0.281,0.35,0.253  c0.322-0.029,0.253-0.195,0.552-0.352c0.295-0.155,0.476-0.262,0.446-0.492C53.629,37.773,53.468,37.588,52.885,37.872z"/><path fill="#000000" d="M54.793,35.973c-0.177,0.147-0.368,0.331-0.245,0.417s0.237,0.152,0.253,0.256  c0.019,0.106,0.161-0.055,0.274-0.19c0.108-0.131,0.359,0.126,0.378-0.122c0.02-0.247-0.055-0.357-0.253-0.395  C54.998,35.899,54.793,35.973,54.793,35.973z"/><path fill="#000000" d="M60.885,29.237c-0.361,0.172-1.052,0.524-1.307,1.424c-0.258,0.899-0.143,0.809-0.216,1.23  c-0.063,0.427-0.008,0.527,0.395,1.096c0.402,0.573,0.822,1.051,1.544,1.065c0.721,0.009,1.119-0.403,1.584-0.831  c0.458-0.425,0.85-0.509,0.93-1.062c0.081-0.558-0.146-1.866-0.616-2.167c-0.469-0.304-0.856-0.417-1.247-0.571  C61.561,29.267,61.178,29.097,60.885,29.237z"/><path fill="#000000" d="M62.432,28.001c-0.265,0.358-0.617,0.719-0.195,0.845c0.423,0.125,0.863,0.145,0.913-0.225  c0.047-0.376-0.242-0.432-0.35-0.553C62.689,27.945,62.559,27.835,62.432,28.001z"/><path fill="#000000" d="M67.614,28.045c-0.063-0.09-0.237,0.006-0.2,0.159c0.04,0.153,0.328,0.265,0.34,0.134  C67.771,28.206,67.689,28.153,67.614,28.045z"/><path fill="#000000" d="M68.676,20.988c-0.107-0.075-0.383,0.181-0.286,0.319c0.103,0.142,0.418,0.146,0.43,0.013  S68.736,21.032,68.676,20.988z"/><path fill="#000000" d="M76.237,18.031c-0.288,0.297-0.66,0.383-0.698,0.779c-0.041,0.397,0.423,0.621,0.979,0.212  c0.549-0.41,0.661-0.74,0.653-0.979c-0.003-0.236-0.581-0.307-0.655-0.218C76.441,17.913,76.237,18.031,76.237,18.031z"/><path fill="#000000" d="M73.578,15.487c-0.412,0.652-0.383,1.499,0.199,1.572c0.58,0.071,2.397-0.9,2.948-1.602  c0.553-0.707,0.963-2.349,1.698-3.157c0.729-0.812,5.343-5.84,5.937-6.701c0.598-0.864,1.645-1.923,2.081-2.083  c0.435-0.161,1.177-0.695,0.932-1.262c-0.25-0.569-1.273-0.207-1.935,1.021c-0.663,1.232-1.157,1.585-1.945,2.49  c-0.791,0.903-2.929,3.2-3.825,4.179c-0.897,0.98-2.192,2.413-3.172,3.202C75.518,13.939,73.996,14.807,73.578,15.487z"/><path fill="#000000" d="M76.408,8.283c-0.258,0.293-0.786,0.794-0.425,0.972c0.367,0.182,0.724,0.049,1-0.331  c0.275-0.377,0.354-0.708,0.155-0.806C76.942,8.024,76.64,8.012,76.408,8.283z"/><path fill="#000000" d="M78.886,8.14c-0.353,0.097-0.493,0.383-0.417,0.739c0.078,0.356,0.423,0.221,0.886-0.229  c0.468-0.449,0.428-0.754,0.277-0.741C79.479,7.921,78.972,8.119,78.886,8.14z"/><path fill="#000000" d="M75.778,10.28c-0.206,0.289-0.68,0.582-0.551,0.811c0.124,0.231,0.325,0.184,0.76-0.06  c0.444-0.242,0.426-0.52,0.393-0.716C76.348,10.123,75.862,10.165,75.778,10.28z"/><path fill="#000000" d="M74.356,13.067c-0.229,0.067-0.668,0.583-0.435,0.589c0.239,0.001,0.513,0.217,0.709-0.194  C74.831,13.053,74.56,13,74.356,13.067z"/><path fill="#000000" d="M70.27,11.18c-0.247,0.217-0.442,0.242-0.554,0.669c-0.118,0.424-0.229,0.669-0.04,0.6  c0.191-0.07,0.149-0.196,0.638-0.564c0.489-0.367,0.68-0.707,0.657-0.88C70.949,10.833,70.575,10.903,70.27,11.18z"/><path fill="#000000" d="M68.855,11.363c-0.241-0.135-0.64-0.271-0.649-0.147c-0.012,0.122,0.493,0.41,0.604,0.583  c0.112,0.172,0.342,0.189,0.39,0.064c0.051-0.125,0-0.544-0.175-0.521C68.855,11.363,68.958,11.421,68.855,11.363z"/><path fill="#000000" d="M61.63,8.711c-0.329-0.131-0.407-0.289-0.507-0.037c-0.099,0.25,0.021,0.677,0.243,0.711  c0.222,0.033,0.5-0.039,0.509-0.234C61.878,8.955,61.819,8.786,61.63,8.711z"/><path fill="#000000" d="M56.841,9.895c-0.113-0.042-0.541,0.079-0.396,0.496c0.139,0.42,0.13,0.361,0.264,0.521  c0.135,0.162,0.315,0.161,0.465-0.124c0.149-0.286,0.162-0.406,0.032-0.532C57.07,10.133,57.089,9.993,56.841,9.895z"/><path fill="#000000" d="M52.085,13.865c-0.297-0.038-0.403-0.032-0.396,0.136c0.007,0.163,0.241,0.347,0.402,0.303  C52.255,14.26,52.29,13.892,52.085,13.865z"/><path fill="#000000" d="M63.208,20.119c-0.298,0.164-0.718,0.767-0.418,0.832c0.3,0.063,0.432-0.082,0.699-0.267  c0.273-0.182,0.44-0.333,0.349-0.604C63.749,19.809,63.32,20.057,63.208,20.119z"/><path fill="#000000" d="M61.104,23.2c-0.129-0.007-0.237,0.287-0.069,0.353c0.175,0.069,0.285-0.069,0.265-0.203  C61.28,23.215,61.211,23.207,61.104,23.2z"/><path fill="#000000" d="M58.723,24.376c-0.237-0.094-0.528-0.045-0.496,0.11c0.028,0.156-0.069,0.444,0.162,0.465  c0.229,0.018,0.537-0.169,0.578-0.28C59.01,24.562,58.813,24.413,58.723,24.376z"/><path fill="#000000" d="M57.541,23.149c-0.161-0.045-0.341-0.098-0.334,0.067c0.006,0.165,0.096,0.31,0.299,0.298  c0.201-0.011,0.467,0.006,0.395-0.131C57.828,23.245,57.705,23.196,57.541,23.149z"/><path fill="#000000" d="M51.103,23.921"/><path fill="#000000" d="M50.992,24.693c0.308,0.266,0.484,0.026,0.6-0.218c0.112-0.244-0.077-0.5-0.229-0.578  c-0.146-0.077-0.618,0.062-0.677,0.257C50.626,24.346,50.807,24.527,50.992,24.693z"/><path fill="#000000" d="M46.537,20.814c-0.185-0.071-0.395,0.169-0.437,0.371c-0.043,0.198,0.289,0.42,0.521,0.332  c0.233-0.089,0.345-0.278,0.236-0.467C46.751,20.863,46.588,20.833,46.537,20.814z"/><path fill="#000000" d="M37.233,31.815c-0.498,0.238-1.092,0.599-1.198,1.454c-0.105,0.854,0.348,2.664,1.357,2.722  c1.007,0.056,1.767-0.078,2.202-0.298c0.444-0.218,0.424-0.268,0.437-0.06c0.014,0.207,0.021,0.62,0.361,0.455  c0.338-0.166-0.184-0.601-0.056-0.93c0.133-0.328,0.508-2.271-0.123-2.981C39.583,31.466,37.734,31.577,37.233,31.815z"/><path fill="#000000" d="M46.11,36.12c-0.394,0.033-0.653,0.34-0.325,0.687c0.321,0.344,0.782,0.186,0.858-0.111  C46.719,36.4,46.391,36.093,46.11,36.12z"/><path fill="#000000" d="M39.438,39.432c-0.218,0.017-0.426,0.292-0.448,0.555c-0.021,0.262,0.127,0.605,0.376,0.528  c0.246-0.076,0.531-0.523,0.529-0.688C39.891,39.666,39.69,39.408,39.438,39.432z"/><path fill="#000000" d="M39.771,41.001c-0.172-0.16-0.282,0.446-0.168,0.556c0.121,0.12,0.194-0.043,0.251-0.184  C39.909,41.234,39.818,41.048,39.771,41.001z"/><path fill="#000000" d="M41.714,38.417c-0.141,0.072-0.24,0.258-0.184,0.362c0.056,0.104,0.165,0.093,0.265-0.016  C41.894,38.65,41.831,38.354,41.714,38.417z"/><path fill="#000000" d="M35.76,25.192c-0.341-0.048-0.252-0.832,0.086-0.928c0.336-0.1,0.606-0.127,0.64-0.25  c0.036-0.123-0.066-1.033,0.394-1.136c0.463-0.101,0.58,0.353,0.427,0.672c-0.151,0.319,0.025,0.837-0.317,0.84  c-0.34-0.002-0.533-0.023-0.685,0.326C36.153,25.063,36.031,25.231,35.76,25.192z"/><path fill="#000000" d="M36.444,19.001c-0.448-0.104-1.166,0.813-1.313,1.639c-0.15,0.823-0.182,1.49,0.21,1.63  c0.396,0.141,0.849-0.194,1.121-0.534c0.271-0.341,0.38-1.138,0.294-1.567C36.666,19.74,36.765,19.075,36.444,19.001z"/><path fill="#000000" d="M59.182,40.059c-0.512,0.302-0.988,0.918-0.981,1.294c0.012,0.373,0.315,0.69,0.792,0.565  c0.483-0.123,0.723-0.535,1.11-0.634c0.391-0.1,0.607-0.799,0.397-1.055C60.292,39.969,59.358,39.953,59.182,40.059z"/><path fill="#000000" d="M59.673,46.033c-0.229,0.177-0.617,0.029-0.552,0.309c0.065,0.28,0.494,0.585,0.732,0.366  c0.245-0.214,0.524-0.435,0.429-0.589C60.189,45.963,59.84,45.902,59.673,46.033z"/><path fill="#000000" d="M57.521,45.945c-0.165-0.031-0.28,0.259-0.18,0.3c0.104,0.042,0.326-0.028,0.35-0.137  C57.714,46.001,57.611,45.959,57.521,45.945z"/><path fill="#000000" d="M54,44.869c-0.221-0.089-0.255,0.056-0.242,0.217c0.017,0.161,0.322,0.32,0.349,0.157  C54.133,45.077,54.186,44.941,54,44.869z"/><path fill="#000000" d="M53.851,42.817c-0.127-0.006-0.174,0.244-0.028,0.28c0.14,0.037,0.295-0.06,0.276-0.161  C54.08,42.829,53.91,42.819,53.851,42.817z"/><path fill="#000000" d="M58.462,38.271c-0.402-0.062-0.537,0.314-0.537,0.314s0.046,0.333,0.407,0.26  c0.361-0.073,0.409-0.092,0.389-0.293C58.701,38.348,58.625,38.296,58.462,38.271z"/><path fill="#000000" d="M56.919,39.362c-0.15-0.072-0.29,0.04-0.199,0.154c0.091,0.116,0.334,0.291,0.315,0.087  C57.02,39.4,57.131,39.463,56.919,39.362z"/><path fill="#000000" d="M59.62,36.522c-0.207,0.034-0.391,0.197-0.362,0.422c0.028,0.228-0.245,0.567,0.068,0.517  c0.314-0.051,0.351,0.001,0.668-0.206c0.313-0.209,0.462-0.384,0.219-0.558C59.972,36.524,59.723,36.505,59.62,36.522z"/><path fill="#000000" d="M18.888,72.925c-0.401-0.219-1.18,0.756-0.939,1.309c0.241,0.554,0.85,0.757,1.459,0.271  c0.608-0.486,0.173-1.116,0.072-1.347S19.137,73.062,18.888,72.925z"/><path fill="#000000" d="M23.179,66.683c-0.462-0.264-1.063,0.189-0.712,0.557c0.348,0.367,0.888,0.162,0.941,0.029  C23.458,67.139,23.615,66.933,23.179,66.683z"/><path fill="#000000" d="M17.88,64.743c-0.298-0.252-0.992-0.199-0.93,0.13c0.06,0.328,0.183,0.797,0.553,0.827  c0.364,0.032,0.67,0.038,0.801-0.291C18.435,65.077,17.967,64.817,17.88,64.743z"/><path fill="#000000" d="M13.803,59.889c-0.525-0.111-1.072,0.302-1.48,0.371c-0.408,0.066-0.771,0.115-1.209,0.551  c-0.439,0.438-1,1.172-1.058,1.606c-0.057,0.438-0.064,1.614,1.906,2.241c1.966,0.625,2.672-0.394,3.276-0.956  c0.604-0.563,0.92-2.043,0.12-2.817C14.555,60.111,14.01,59.937,13.803,59.889z"/><path fill="#000000" d="M8.903,61.275c-0.427-0.169-1.024-0.101-1.104,0.099c-0.078,0.199,0.051,0.746,0.355,0.941  c0.303,0.197,0.618,0.17,0.868-0.077C9.273,61.995,9.47,61.498,8.903,61.275z"/><path fill="#000000" d="M10.118,59.796c-0.305-0.254-0.565,0.252-0.383,0.38c0.182,0.125,0.451,0.2,0.495,0.085  C10.277,60.145,10.176,59.845,10.118,59.796z"/><path fill="#000000" d="M7.961,58.753c-0.287,0.007-0.469,0.264-0.24,0.544c0.226,0.279,0.535,0.197,0.565-0.023  C8.317,59.057,8.316,58.747,7.961,58.753z"/><path fill="#000000" d="M6.737,59.208c-0.129-0.025-0.264,0.18-0.123,0.276c0.142,0.094,0.421,0.097,0.376-0.03  C6.946,59.33,6.929,59.242,6.737,59.208z"/><path fill="#000000" d="M6.705,57.646c-0.26-0.016-0.702,0.198-0.258,0.401c0.449,0.204,0.512,0.01,0.467-0.116  C6.869,57.809,6.904,57.657,6.705,57.646z"/><path fill="#000000" d="M12.039,67.126c-0.187-0.122-0.758-0.149-0.746,0.408c0.006,0.562,0.738,0.497,0.921,0.379  C12.396,67.794,12.361,67.335,12.039,67.126z"/><path fill="#000000" d="M10.008,65.251c-0.131,0-0.336,0.194-0.232,0.318c0.102,0.117,0.329,0.128,0.375,0.011  C10.198,65.462,10.213,65.249,10.008,65.251z"/><path fill="#000000" d="M7.516,66.127c-0.529-0.168-1.874-0.103-1.987,0.355c-0.112,0.459-0.515,0.896,0.021,1.569  c0.537,0.673,1.063,1.153,1.531,1.107c0.466-0.048,0.967-0.35,1.294-0.427c0.329-0.071,0.311-0.027,0.478-0.137  c0.166-0.112,0.006-0.255-0.029-0.444c-0.033-0.188,0.012-0.268,0.058-0.453c0.046-0.186-0.439-0.811-0.67-1.05  C7.977,66.402,7.698,66.187,7.516,66.127z"/><path fill="#000000" d="M12.832,85.352c-0.181-0.098,0.275-0.773-0.251-1.158c-0.527-0.383-1.069-0.381-1.419-0.045  c-0.354,0.336-0.557,0.719-0.234,1.213c0.319,0.492,0.55,0.596,0.993,0.743c0.447,0.151,0.562,0.439,0.874,0.575  s0.913,0.062,0.989-0.301s0.141-0.731-0.242-0.843C13.166,85.429,13.02,85.453,12.832,85.352z"/></svg>
