<svg id="Layer_1" data-name="Layer 1" xmlns="http://www.w3.org/2000/svg" viewBox="0 0 635.8 959.32"><title>spok</title><path d="M415.11,635.87c-.31-1.55.94-2.59,1.86-2.13,3.83,2,4.5-1.38,6.2-3.41-3.27-1.93-7.52-.06-10.46-3,12.87,3.36,26.37,2.5,39.28,6.22-3.25-3.69-8-5.73-12.19-5.4-9,.71-14.26-5-20.15-9.71C396,599.71,370,591,339.78,598.26c-16.3,3.89-32.85,5-49.49,1.63-13.83-2.84-25.28-10-35.21-19.67-14.5-14.18-21.2-32.1-24.37-51.64q-4-24.76-7.83-49.56c-1.77-11.39.48-13.84,11.18-17.49,10-3.41,19.22-.61,28.46,1.67,24.21,6,47.4,15.4,71.39,22.17,3.23.91,5.81,3.21,7.92,5.7,6.06,7.14,13,13.6,17.75,21.78,5.78,10,15.23,14.18,25.76,15.25,12.75,1.29,25.65,1,38.48,1.6,2.37.12,5.34-2.56,6.72-.15,1,1.79-2.32,3.5-3.5,5.42-4.89,8-9,16.37-10,25.6a42,42,0,0,0,10.07,32.52c5.93,7,14.09,12,18.58,20.34,5.14,9.56,10.49,19,15.62,28.56,2.73,5.08,5.26,10.26,9.23,14.55,1.1,1.19,2.21,2.44,2.23,4.42-2.82.64-5.48,0-8.15-.74-4.48-1.28-4.8-.87-3.91,3.78,2.27,11.91,5.7,23.68,4.33,36-.79,7.23,1.07,14,3.65,20.7,5.57,14.4,10.92,28.87,13.74,44.13,1.61,8.76,2,17.66,2.55,26.52.21,3.12.62,6.22,1,9.31.14,1.12.43,2.48,1.75,2.64s1.79-1.19,2.27-2.23c6.63-14.41,11.8-29.27,13.6-45.12.85-7.51,1.89-14.85,4.83-22,5.07-12.35,4-25.13,1-37.84A119.4,119.4,0,0,1,507,684.1c-.57-4.53-1-9.1,2-13.27a15.89,15.89,0,0,0,2.4-6.42c.92-5.21,2.82-9.63,7.19-13,3.89-3,4.79-8.18,7.79-11.91,1.09-1.35,1.89-2.92,3.88-1.59,7.46,5,14.43,2.91,21.16-1.51,2.49-1.64,4.45-2.48,6.5.65,1.3,2,3.83,2,5.88,2,3.78-.12,5.88,1.61,7.85,4.69,4.63,7.26,10.66,13.37,17.2,18.92a12.83,12.83,0,0,1,5,9.23c1.77,24.25,7.41,48.09,6.19,72.7-.63,12.56,1.38,25.29,4.41,37.66.27,1.11.7,2.17,1,3.26s.71,2.14,1.82,2,1.18-1.34,1.39-2.36c1.43-7.09.57-14.5,3-21.45a110.9,110.9,0,0,0,5.2-24.55,49.06,49.06,0,0,1,4.66-16c3.43-6.92,5.09-14.31,3.84-22-2-12.48-2.65-24.76,1.92-36.94a27.79,27.79,0,0,0,1-14.2c-1.19-7.12,2.18-12.12,7-16.43,7.57-6.83,15.15-13.68,23.14-20,10.51-8.33,14.4-19.65,14.1-32.18-.4-16.77-4.05-32.93-13.23-47.46-1.83-2.9-4.91-4.72-6.27-7.72,14.75,5.31,26.89.57,37.46-9.7,15.6-15.16,31.42-30.08,50.83-40.38a62.38,62.38,0,0,1,32.79-7.37c13.46.65,26.88,2.67,40.4,1.5A53.07,53.07,0,0,0,836,463.6c5.18-2.87,9.85.67,14.22,2.77,7.36,3.53,8.66,11.68,7.67,17.63-4.78,28.64-16.39,54.31-33.8,77.44-5.21,6.92-9.09,14.71-16.13,20.41-20.67,16.75-47.15,21.82-70.73,8.84-8-4.4-15.88-7.74-25.24-5-3.08.92-6,2-8.17,4.33-7.21,7.46-14.8,14.52-22.57,21.39a9.26,9.26,0,0,0-3,9.32c1.13,5.74,9.36,10.06,15.9,8.38,3-.78,6.07-1.41,9.13-2,.35-.08.8.31,2.61,1.08-6.55,0-9.78,4-14,6.18-2.37,1.19-1.48,3.1-.08,4.4a34,34,0,0,0,4.51,3c1.27.85,3.48,1.33,2,3.58-1.16,1.73-2.75,1.28-4.36.44-3.64-1.9-7.32-3.73-11-5.57-3-1.49-4.44-.72-5.06,2.69-1.18,6.48-.46,13.2-2.65,19.54-.37,1.08-.39,2.3-1.29,3.12-10.11,9.19-14.09,22-19.5,33.82-7.59,16.64-8,34.77-10,52.55-1.88,16.66-4.12,33.19-8.89,49.42-2.62,8.94-5.81,17.8-7.52,27a17.41,17.41,0,0,0-.51,2.91c0,1-.67,2.56.78,3,1.68.51,1.73-1.28,2-2.19,1.5-4.86,2.67-9.83,4.28-14.66a154.58,154.58,0,0,1,6.28-16.49c.78-1.66.66-3.89,1.6-4.77,3.49-3.25,2-7.67,3.35-11.38,1.61-4.46,2.76-9.09,4.14-13.63a15.13,15.13,0,0,1,1.17-2.2l4.74,10.74a4.75,4.75,0,0,0-.52-5.29c-5.14-6.37-2.61-12.94-.66-19.46,4.58-15.34,6.43-31.17,8.62-46.94.54-3.87,1.58-7.66,2.52-12.09,1.89,5.62,4.75,10,7.71,14.34.31-4.73-4.5-7.44-4.85-12.18,2.19.05,2.21,2.13,3.09,3.22,10.42,13,17.67,27.68,24.65,42.77a100.75,100.75,0,0,0,13.77,21.79c2.62,3.17,5,6.48,5.61,10.81.3,2,1.65,3.47,4,4.49,4,1.74,6.74,4.85,6.51,9.84a10.4,10.4,0,0,0,3.09,7.8c1.63-2.82-1.27-4.86-.3-7.87,5.12,9,12.9,15.69,15.33,25.75a6.83,6.83,0,0,0,3.14,4.77c2.35,1.4,3.29,4.07,4.28,6.5,7,17.05,13.38,34.29,17.3,52.4,1.83,8.47,4.95,16.63,6.87,25.15,3.83,17,7.71,34,10.23,51.26a31.08,31.08,0,0,1,.45,8.85c-1,7,1.81,13.48,2.24,20.26H702.75c-.83-4.54-1.66-9.08-2.57-14.09-2.09,1.93-1.67,4-1.65,5.51,0,2.86,1.92,5.54,1.25,8.58H644.36c-4.24-2.34-.7-6.48-2.17-9.5-2.32.49-3.37,1.45-2.25,4,.72,1.66,1.8,3.53.46,5.47H629.51c-.5-4.42-1.55-8.86-1.36-13.25.29-6.48-1.65-12.43-3.21-18.59-.49,4.23-1.1,8.32-.25,12.63a61.89,61.89,0,0,1,.86,19.21H591.9c.85-7.69.32-15.1-4.32-21.69-1.32,6.62-1.33,6.67.84,11.67,1.42,3.28,1.88,6.6.51,10H537.46v-7.64l-1.13-.63c-.47,4.51-1.28,8.69-6.79,8.27H498.86c.3-2.9.64-5.79.87-8.69.07-.87.37-2.18-1.13-2.16a1.68,1.68,0,0,0-1.49,1.7c-.05,3.1-1.67,6-1.22,9.15H484c.73-9,1.46-17.89,2.22-27.23-2.78,1-1.9,2.72-2.08,4-1.08,7.74-2.08,15.49-3.11,23.24H457.29l-.37-12.08-1.31.13c-1.26,3.89.86,8.16-1.29,12H278.14V978c-2.3,2.34-2.82,5-3,7.85H252.4c4-16.13,7.54-32.39,8.81-49,3.4-44.59,15.13-86.92,34.12-127.3a54.61,54.61,0,0,1,11-16.3c17.62-17,29.49-37.58,38.36-60.27,8.54-21.83,22.39-40.26,40-55.56,8.54-7.4,18.73-12.66,28.79-17.79a63.16,63.16,0,0,0,6.88-4.5c3.49-2.4,5.92-1.39,6.36,2.81a19.29,19.29,0,0,1-.13,5.42c-1.56,8.6,2.65,17.6-2.39,25.56,1.93,1.48,3.36-2.31,3.89-.12.73,3,3.39,6,1.23,9.4-1.26,2-2.53,4-2.58,6.55,2.52-1,2.74-1.19,4.42-3.39,2.82,5.3,5.28,10.29.81,16.55,4-2.81,4.86-1.28,6,1.76,1.88,5.29,4.16,10.83,3.95,16.14s3,8.31,4.08,12.54a110.11,110.11,0,0,0,5,15.47,21.17,21.17,0,0,1,1.36,12.48c-.36,1.77-.33,3.18,1,4.5a5.38,5.38,0,0,1,1.53,4.55c-.69,4.7,2.22,8.25,3.46,12.32.47,1.56,1.72,3.37,1.31,4.63-1.45,4.4.87,5.22,4.62,5.55-1.7-6.82-3.15-13.48-5.06-20-1.33-4.51-1.36-9.23-1.46-13.67-.23-10.64-4.69-19.91-7.85-29.6-1.39-4.26-2.4-8.21-1.34-12.79,1.78-7.71,1.31-15.18-3.34-22.19-9-13.59-10.77-29-10.48-44.86,0-2.06.28-4-1.74-5.24-4.55-2.9-6.27-7.72-7-12.49-.66-4.28-2.24-4.52-5.87-3.87-3.83.68-7.74,1.71-13.07.83,3.62-.79,6.5-.67,8.28-2s1.92-4.18-.31-6.15ZM404.65,974.62c3.29-4,2.57-9.17,3.74-13.78a2,2,0,0,0-1.12-2.47c-.67-.26-1.17,0-1.64.62-1.5,1.91-2.18,13.83-.82,15.8-1.4,1.17-3.2-1.06-4.56.52,1.53,2.32.34,5.41,2.71,8.18C401.83,979.79,405.11,977.69,404.65,974.62Zm-8-250.64c-2.54-.17-2.14-1.41-1-2.85a38.36,38.36,0,0,1,4.06-4.88c1.15-1,.37-2.13.6-3.15s-.93-.22-1.45-.39a1.65,1.65,0,0,0-2.41,1.56c-.32,3.66-3,6.3-4.29,9.54,1.66.93,3.09.19,4.51.17a9.61,9.61,0,0,1-3.29,6.39c-7.23,5.93-7.16,15.84-12.71,22.63-.47.58-.78,1.52.66,2.14,4.56-2.31,5.49-8,9.62-11.25-.82-.12-1.43-.18-2-.29s-1.15.87-1.65-.07c9.89-12.82,13.12-19.6,11-22.65ZM630.92,902c.37,1.61.35,2.45.73,3,.76,1.19.23,4,2.68,3.14,1.89-.68.51-2.58.14-3.9a73.46,73.46,0,0,1-3.07-16.38,33.67,33.67,0,0,0-5.15-17.27c-7.4-11.29-11.85-23.41-10.36-37.2.4-3.75.49-7.54.9-11.3.5-4.56-1.81-6.75-6-7.45a49.38,49.38,0,0,1-13.9-4.89A87.1,87.1,0,0,0,579,803c-28.08-7-55.37-6.47-81.15,8.59-4.9,2.87-8.88,6.66-10.54,12-3.53,11.31-7,22.51-14.55,32s-8.26,21.31-9.37,32.69c-.86,8.79-1.59,18.16,6.45,24.63,7.2,5.8,9.39,13.62,10.07,22.17a18.39,18.39,0,0,0,4.52,10.58c3.58,4.43,8.51,5.21,13.29,6.76,3.93,1.27,4.91,3.6,2.26,6.38-3.41,3.58-2.21,7-.55,11.83a32,32,0,0,0,3.51-10.89c.27-1.83.27-4.79,2.89-5.13,2.89-.37,2.59,2.69,3.43,4.65,3.19-5.75,7.62-2.47,11.36-1.68,8.62,1.85,1.15,8.51,3.46,12.79a21.66,21.66,0,0,0,3.3-8.61c.33-1.85.49-2.62,2.67-2a63.79,63.79,0,0,0,17.06,2.36c1.84,0,3.24.39,3.21,2.71,0,1.33.35,3.05,1.75,3.14,1.94.13,2-1.94,2.17-3.27.29-2.14,1.84-2.36,3.22-2.11a2.15,2.15,0,0,1,1.42,3.16c-1.74,3.57.55,6.56.8,10.52,3.47-3.37,2.88-7,2.76-10.46-.06-1.73-.11-3.47,2.29-3.53,2.06,0,2.34,1.38,2.31,3a7.19,7.19,0,0,0,.08,2c.3,1.27.63,2.8,2.34,2.63a2.11,2.11,0,0,0,1.79-2.57c-1.16-5.36,2.76-5.77,6.06-5.73,9.71.14,18.24-2.9,26.52-7.75,5.67-3.32,8.92-8.13,9.55-14.11a33.57,33.57,0,0,1,6.83-17.61C624.73,916.26,626.8,909.07,630.92,902ZM784.81,474.64c-10.42,0-20.93.51-30.73,3.92A103.31,103.31,0,0,0,704,515.2c-7,9.43-14.63,18.68-17.56,30.56s1.89,21.58,13.44,25.88c5.52,2.05,11.27,3.48,16.8,5.52q16.13,6,32.11,12.31c21,8.34,43.46,1.15,57.72-14.84,6.27-7,10.77-15.24,15.19-23.48C830.4,535,839,518.77,842.84,500.56c2.94-13.85-2.42-22-16.27-24.37S798.75,474.47,784.81,474.64ZM361.55,582c3.46,0,6.93.12,10.39,0s6.88-.63,10.32-.92c6.91-.58,10.81-6.29,8.44-12.64a72.44,72.44,0,0,0-9.49-18.15c-7.41-10-15.88-19.28-22.68-29.77a87.34,87.34,0,0,0-36.32-32.23c-22-10.54-44.45-18.52-68.91-20.5-10.82-.87-18.88,4.91-21,15.31-1.38,6.68-.32,13.18.43,19.66,1.44,12.55,2,25.29,6.08,37.41a120.9,120.9,0,0,0,18.93,36c4.65,6,9.93,11.87,17.5,14.65,15.86,5.84,31.54,3.35,46.79-2C334.89,584.33,347.89,581.53,361.55,582Zm40,360.95c1.46-.34,1.54-1,1.64-1.9a52.84,52.84,0,0,1,9.59-24.3c2.16-3.09,4.25-6.49,4.79-11.57a25.11,25.11,0,0,1-2.53,3.63c-.74.71-1.27,2.48-2.58,1.62s-.85-2.34-.18-3.58c.32-.57.9-1.08,1-1.68.75-3.95,4.95-6.59,4.45-11-1.57-.31-1.66,2.34-3.39,1.28-.09-3.16,2.76-5.26,3.52-9a7,7,0,0,0-3.88,5c-.85,3.43-3,6.22-2.81,10.36.15,3.36-2.59,7.37-4.94,10.24,1.87,3.18,3.75-1.29,6,.73-2.44,1.67-6.1,2.29-6.29,5.29-.35,5.61-1.34,10-8.14,10.78-1.76.19-2.4,2.56-2.89,4.3-1.73,6.12-3.38,12.27-5.07,18.4-.33,1.21-.39,2.42,1,2.92,1.9.7,2.52-1.1,2.57-2.14.17-3.67,2.51-6.66,2.73-10.38.22-3.54,1.75-7,2.5-10.51.35-1.64,1.05-2.29,2.67-2,2,.4.85,1.55.76,2.61C401.82,935.57,401.73,939.19,401.55,942.92Zm-22.42-65.07c-7.21,15-13.13,30.24-16.3,46.27C364.86,921.92,379.42,881.07,379.13,877.85Zm275.55,49.5c-2.16,13.62,3.45,25.3,2.26,37.45a1.57,1.57,0,0,0,.09.48,1.84,1.84,0,0,0,1.65,1.56c1.47.14,1.53-.92,1.56-1.91a24.09,24.09,0,0,1,0-4.42c1.82-8-4.13-14.57-3.75-22.38A20.19,20.19,0,0,0,654.68,927.35Zm-242.8,45.12,1.24.34q4.51-17.76,9-35.52C416.19,948.32,411.19,959.62,411.88,972.47ZM673.72,788c-.3.51-.65.83-.59,1,3.7,13.12,3,26.91,6,40.12.23,1,.37,2.27,1.65,1.84,1.68-.57,1-2.13.81-3.37-1.85-10.62-4.15-21.17-4.52-32C677,793,676.68,789.75,673.72,788ZM359.53,963.42c3.09,4.07,0,8.15,1,12.94,3.27-5.9,3.66-11.81,5.49-17.22a1.62,1.62,0,0,0-2.44-1.82c-1.38,1-3.73,1.95-4.06,2.52-3,5.17-5.48,10.64-6.26,16.68C356.56,972.93,357.46,968.26,359.53,963.42Zm313.8-182.67c-1.93-5.52-.91-11.12-1.38-16.6-.24-2.85,2.67-4.65,1.27-7.56-1.27-2.64-1.94-5.57-3-8.34-.46-1.24-.49-3.62-2.54-2.68-1.49.68-.7,2.6,0,3.94,3.39,6.18,2.06,12.7,1.54,19.22A16.19,16.19,0,0,0,673.33,780.75ZM385.62,924.93c-1.64,1.27-2.52,1.62-2.56,2-.36,4.43-2.14,7.69-6.73,9a2.24,2.24,0,0,0-1.52,2.27c-.2,2.67-1.53,5-2.46,7.42-.53,1.38-2.06,3.15.29,4.92,1.31-3,2.51-5.8,3.83-8.86,1.66,2.34-1,3.89.45,6.19C379.31,940.22,383.93,933.89,385.62,924.93Zm59.21,19.81c3,6.73-2.09,13.54.78,20.36,2.34-3,2.66-6.48,3.07-9.81,2.2-.15.08,3.24,2.23,2.29,1.72-.76.52-3,1-4.5.24-.71-.88-2-1.16-1.55-.74,1.18-1.43,1.9-2.63,1.06-1.57-1.09.25-2.37.07-3.56-.27-1.75-1-3.37-1-5.26a1.45,1.45,0,0,0-2.64-1,74.26,74.26,0,0,0-3,8.92C444.25,949.82,444.63,947.33,444.83,944.74Zm-1.56-296.38c3.37-.18,5.87-2.13,5.93-5.33.08-4.77-4.89-3.2-7.45-4.43-1.73-.84-3.56,1.68-3.18,3.86C439,645.07,439.37,648.18,443.27,648.36ZM635.41,949.2h-1.12a7.75,7.75,0,0,0-.66,1.7c-.88,7.53,3.92,14.17,3.48,21.67a2.38,2.38,0,0,0,2.51,2c1.1-.11,1.57-1,1.29-2.18Q638.17,960.77,635.41,949.2ZM289.35,962c.14-1.49.67-3-.69-3.41-1.08-.35-1.93.72-2.54,1.78-2.44,4.22-2.95,9-3.91,13.62-.35,1.69.17,1.22,1.88,1.27,4.37.14,3.68-2.44,4-4.86C288.51,967.44,289,964.52,289.35,962ZM672.22,859.65c.35-9.79-3.72-18.65-5.43-28C666.7,841.34,669.25,850.53,672.22,859.65Zm-266.92,34c-3.95,8.48-6.41,17.33-11.68,24.81a1.45,1.45,0,0,0,.56,2.4c1.33.59,1.44-.88,1.9-1.6,4.43-6.86,6.47-14.85,10.29-22C406.91,896.26,406.83,895.07,405.3,893.68Zm-9.74-81.77c6.29-10.15,12.3-20.36,19.19-30C406.61,789.69,396,806.51,395.56,811.91ZM429.22,961a5.86,5.86,0,0,0,3.13-3.18c1.94-3.9,1.82-8.2,2.92-12.23.35-1.28,1.29-2.64-.56-3.15-1.21-.34-1.66,1-2.27,2C429.52,949.5,428.88,954.93,429.22,961Zm183.6,7.65a25.56,25.56,0,0,1,.24,3.21c-.13,1.69.32,3.22,2.2,3s1.15-1.9.88-3.12a10.65,10.65,0,0,1,.17-6.25c.76-2,1.93-3.82.73-6-.61-1.13.31-3.49-2-3.2-1.54.2-2.12,2.08-2.2,3.49C612.68,963,612.82,966.2,612.82,968.65Zm-254.64-47c-5.74,8.25-11.69,24.88-10.05,28.34A201.89,201.89,0,0,0,358.18,921.65Zm28.64-149.93c7.28-5.91,8.78-15.22,13.73-22.52C395,752.65,392.41,757,386.82,771.72Zm351.57,76.11c-.14-1.58-.65-3.24-.34-4.72.66-3.19-5.1-7.2,1.18-9.68.15-.06.12-1-.05-1.4-1.16-2.88-2.31-5.77-3.62-8.59-.45-1-1.27-2.27-2.6-1.36-.93.64-.28,1.75.08,2.69,1,2.68,3.38,5.07,2.4,8.21C733.76,838.43,736.22,843.06,738.39,847.83ZM419.54,927c-4.71,6.86-4.64,14.42-7.65,20.85a1.13,1.13,0,0,0,.79,1.56c1.49.36,2.25-.81,2.49-1.85C416.65,941.08,420.28,935.07,419.54,927ZM659,790.12l-1.48.16a14,14,0,0,0,0,2.34c1.22,7.22,4.84,13.84,5.34,21.25a1,1,0,0,0,.18.46c.6.86.7,2.56,2.25,2s.94-2,.67-3C663.81,805.53,659.74,798.38,659,790.12ZM423.18,696.56c-2.23,2-4.89,3.77-5.37,6.72s2,7.26-4.1,6.6c-.46,0-.71.89-.26,1.07,3.21,1.31-1,3.76.47,5C421.05,711.39,421.66,703.77,423.18,696.56ZM364.29,770c5.61-8.75,11-16,15.36-25.15C371.87,751.94,366.54,759.2,364.29,770ZM635.85,922.12l-1.73.24c2.38,9.65.08,19.95,4.18,29.36l1.3-.19Zm-225.8-215c-3.77,3.72-8.05,7.12-9.15,12.66-.27,1.41-.49,3.92,1.39,4.26,2.29.41,2-2,2.18-3.52a8,8,0,0,1,2.3-4.26A13.63,13.63,0,0,0,410.05,707.17ZM607.62,967.73c1.06-1.11,2.4,3.31,2.58-.3.13-2.5.08-5.4-1.67-7.95-4.3,10-4.57,15.82-.91,22ZM411.61,940c1.53-6.56,6.25-12.24,5.82-20.27C411.91,926.06,410.35,932.62,411.61,940ZM365.85,794.07c5.52-4.31,10.38-9.09,13.32-15.57l-6.9,6c.44-2.4,2.56-3.41,1.37-5.27C368,782.63,369.62,789.73,365.85,794.07Zm77.86,137.47c-5.54,6.32-5.7,12.64-6.44,19.35,6.11-3.33,2.4-11.46,8.58-14.57C444.51,935.65,442.58,935,443.71,931.54Zm-66.78,35c2.6-2.44,3.91-5.34,5.28-8.69,3.5-8.59,4-8.38,2.54-11.66-.94,3.85-1.75,7.88-4.72,10.09C376.13,959.19,377.75,963.08,376.93,966.56Zm300.48-104c-1.37,8.16,1,21.07,4.82,25.64C679.28,880,682.05,870.74,677.41,862.52Zm-9-220.66c-.2-2.18-.39-4.42-3.38-4.41-3.73,0-4.38,3-4.78,5.64-.34,2.24,1.55,3.1,3.5,3.12C666.6,646.23,668.47,645,668.43,641.86ZM458.31,939.56c-1.83,4.79-3.8,9.45-3.09,14.71.16,1.18.16,2.51,1.63,2.51A2.23,2.23,0,0,0,459,954.5C458.5,949.53,460.91,944.53,458.31,939.56ZM749.4,951.83c-1.23,7.53,1.41,14.17,4.14,20.8C753.82,965.34,751.48,958.61,749.4,951.83ZM694.1,805.27c-.62-6.66,4.49-13.85-1.59-20.11C691.66,792,691.73,798.69,694.1,805.27ZM415.49,839.16c-.22-.26-.45-.8-.78-.88a2.78,2.78,0,0,0-3.27,1.5c-2.26,3.76-3.45,8.13-6.51,11.48-.55.6-1.81,2-.24,2.92,1.32.78,2.26-.72,2.71-1.42,2.68-4.08,5.12-8.33,7.63-12.52A10.88,10.88,0,0,0,415.49,839.16ZM395.18,962.69c-3.56.18.56,7.84-5.85,4.65a15.67,15.67,0,0,0-1.07,8.23c.14.82.65,1.83,1.59,1.35,2-1,.48-3.37,1.51-4.83a1.7,1.7,0,0,1,.38-.28c1.5.71-.94,3.76,2,3.49a2.36,2.36,0,0,0,1.33-1.14C393.09,970.25,396.2,966.29,395.18,962.69ZM370,927.52c-3.86,6.64-4,14.05-4.9,21.32C370.52,942.54,368.07,934.58,370,927.52ZM692.81,973.2c2.78-8.17-3.38-14.23-4.74-21.47C685.46,959.81,693,965.61,692.81,973.2Zm-4.1-93.57c2.86,10,6.39,19.27,8.33,29C697.62,902.46,691.56,881.91,688.71,879.63Zm-41.34,70.63c-.17,7.44.27,14.77,4.46,21.28C652.25,964.06,648.31,957.46,647.37,950.26ZM729.2,910.5l-.4.27c.31,3.22.94,6.45.83,9.66-.16,5,.59,9.76,1.18,14.62.17,1.33.58,2.46,1.88,2.31s.83-1.54.69-2.42C732,926.79,730.6,918.65,729.2,910.5ZM597.1,981.61c3-3.32,4.47-14.42,2.3-17.7a2.11,2.11,0,0,0-1.59-.76c-.86.06-.83.94-.65,1.52C598.93,970.34,595.57,976,597.1,981.61ZM702.94,853.88c.38-3.81-6.16-24.53-8.8-27.77C697.46,836.16,698.7,845.47,702.94,853.88ZM385.27,914.7l-1-.86c-4.86,3.42-6.05,9.68-10,13.87-.64.68.13,2,1.06,2.4,1.27.58,1.61-.67,2.06-1.45Q381.35,921.69,385.27,914.7Zm1.55-47,1.07.63c4.07-4.29,7-9.41,10.21-14.33.53-.82,1.27-1.84.26-2.6-1.56-1.16-2,.65-2.5,1.41C392.77,857.69,389.82,862.69,386.82,867.67Zm-29.56,29.88c6.31-6,7.7-14.48,11.33-21.84A90.66,90.66,0,0,0,357.26,897.55Zm38.79-6a41.78,41.78,0,0,0,9.1-17C399.43,878.77,398.09,885.33,396.05,891.5ZM386,728c-4.21,2.92-6.59,6.47-8.66,10.23-.43.78-.6,2.09.52,2.52a2.4,2.4,0,0,0,2.13-.68C382.62,736.68,385.3,733.25,386,728ZM641.7,864c-1.46,7.25-1.13,13.59,3,19.31C642.65,877.29,645.06,870.49,641.7,864Zm-320,32.72c-5.17,2.28-9.49,9.13-10,16.21C313.17,906.38,319.55,903,321.71,896.76Zm69.75-20.21c8.4-13.31,8.57-13.78,6.69-17.76C395.74,864.67,391.69,870,391.46,876.55ZM438,661.89c4.14,4.43,8.83,3.87,13.65,2.25.8-.27,1.55-.64,1.47-1.63a1.08,1.08,0,0,0-1.35-1C447.25,662.69,442.65,661.84,438,661.89ZM353.15,893.26a54.85,54.85,0,0,0-9.4,22.11C346.39,907.8,351.84,901.39,353.15,893.26ZM713,813c1.31,8.44,2.1,17,6.7,24.55C716.32,829.63,717.48,820.52,713,813Zm12.38,170.46a32.62,32.62,0,0,0-1.74-18.1C723.47,971.44,723.3,977.56,725.38,983.41Zm-39.1-144.27c-.38,6,.43,11.71,3.74,16.86C689.76,850.18,689.63,844.35,686.28,839.14Zm-11.7,55.38c.14,7.85,1.21,15.46,4.27,22.65C679.56,909.18,676.09,902,674.58,894.52ZM712.36,966c-.69,5.83-2.09,11.74,1.63,17.25C713.82,977.48,715.08,971.64,712.36,966Zm26.43,16.4c.77-5.22-1.23-9.86-1.5-14.71-.1-1.73-.89-3.91,1.77-5.05.86-.37,1.67,1.4,1.9-.06s-1.2-1.74-2-1.38c-1.93.86-4.88.75-3.78,4.63C736.72,971.25,737.62,976.86,738.79,982.4ZM331.31,913c2.48-6.18,6.16-12,5.25-19.06C336,900.67,330.75,906.08,331.31,913Zm377.74,42.71c.23-6.3-.13-12.53-2.89-18.38C706.5,943.57,705.48,950,709.05,955.74ZM383.9,855.63c.31-5.69,5.86-8.51,7.28-13.59.26-.93,1.06-1.83-.22-2.45-1-.49-1.37.57-1.84,1.15C385.67,845,382.75,849.52,383.9,855.63Zm-24.1.27c-5.31,6.33-10.45,11.62-11.67,19.31C349.31,867.5,358.25,864.53,359.8,855.9Zm318.81-10.77a54.42,54.42,0,0,0,3.56,20.42C681.73,858.65,681.18,851.77,678.61,845.13ZM407.5,892.46c3.21-4.53,4.53-9.61,5-15C408.41,881.67,407.16,886.83,407.5,892.46Zm299.39-7.63c-.22,7.95-1.32,16,2.07,23.64C708.38,900.58,707.11,892.74,706.89,884.83ZM668,915.46c-.48,6.22.77,12.24,2.52,18.18C671.41,927.35,670.08,921.38,668,915.46Zm-28.2.86c-1,5.43.16,9.72.74,14,.12.83.25,1.68,1.23,1.86.7.12,1.51-.32,1.34-1C641.92,926.63,643.55,921.44,639.75,916.32ZM465.88,974.1c1.4-1.92-.59-4,.5-5.76.93-1.54.36-3.31-.94-3.26s-3.43-.33-4.07,2.43C460.35,971.88,464.14,972.09,465.88,974.1ZM648.34,797.47c3.11,4.25,3.35,10,7.69,14.28C655.66,804.75,652.42,798.61,648.34,797.47ZM406.28,735.59l1.18.87q5.35-8.78,10.7-17.54C412.47,723.44,409.41,729.53,406.28,735.59Zm278.1,189c.14,4.08-1.3,8.16.55,12.17.45,1,.84,1.75,2.06,1.54a1.08,1.08,0,0,0,.88-1.44C686.75,932.74,687.19,928.24,684.38,924.55ZM423.58,946c2.13-6.74,5.32-13.18,4.82-20.81C425.75,932.17,423.68,938.89,423.58,946Zm322,25.88c.57-6.16-.62-12-3-18.62C741.49,960.43,743.63,966.13,745.59,971.9Zm-7.49-28c-2,2.41.57,5.36-1.24,5.08-4.6-.7-2.25,2.8-2.06,3.46.7,2.43-.29,6.17,4.43,6.79C737.06,954.42,738.23,949.68,738.1,943.92ZM401.25,872.3c3.19-5.24,9.06-8.86,10.34-15.46C406.89,861.11,404.1,866.67,401.25,872.3Zm266.49,91.51c-.46,4.77-1.39,9.73,3.44,14.08C671,972.43,670.05,968,667.74,963.81ZM398.52,782.15c3.46-3.56,7.22-7,6.14-13.54C401.77,773.34,398.74,777.06,398.52,782.15ZM419.61,925l7.63-13.29a1.88,1.88,0,0,0-.37-2.63c-.94-.64-1.44.3-1.79,1C422.74,914.77,420.21,919.42,419.61,925ZM405.05,731.09c-.26-.15-.71-.49-.77-.42-4,3.69-6.22,8.61-9,13.1-.52.81,0,1.57,1,1.81a1.37,1.37,0,0,0,1.81-1.16C399,739.24,403.14,735.77,405.05,731.09ZM665.19,905a32.89,32.89,0,0,0-3.28-14.56C661.41,895.61,662.09,900.55,665.19,905ZM302,882.22c-4.61,4.85-6.58,9.66-8.93,14.26C296.43,895,299.9,889.23,302,882.22Zm400.38-88.39c.24-6.87-2.06-14.3-5.34-17.29C698.56,782.34,699.17,787.66,702.34,793.83Zm36.92,81.91c-1-6.45-.88-13.18-5-18.59,1.18,5.89,2.72,11.67,4.31,17.45A4.58,4.58,0,0,0,739.26,875.74Zm-332.1.47c4.64-4.38,7.81-9.41,8.59-13.7A45.49,45.49,0,0,0,407.16,876.21Zm275.71-94.7c.92,4.74.76,9.88,4.71,13.5C686.72,790.25,686.24,785.35,682.87,781.51ZM646,906.49c-1-5.56-2.37-11-5.8-15.62C641.61,896.27,642.25,902,646,906.49Zm-193.44,7.63c-4.19,2.12-4.55,6.4-6.43,9.79A32.3,32.3,0,0,1,444,927.6c-.28.37-1.6-2.66-1.71.23,0,.71-.19,2.12,1.06,2.44a1.72,1.72,0,0,0,2-1.07Q448.94,921.66,452.57,914.12ZM382.62,715.35c-2.45,4.34-6.86,7.63-6.82,13.31C378.93,724.68,382.19,720.77,382.62,715.35Zm48.52,98.3c4.5-3,5.86-7.79,7.37-12.51C434.78,804.56,432.65,808.92,431.14,813.65Zm228.75,85.77c-.68,5-.83,10,1.47,16C663.21,909,660.89,904.29,659.89,899.42Zm-304.65-76,1.34.9,8.71-14.21-1.34-.82C359.71,813.2,358.47,819,355.24,823.46Zm343.15,33.91c.13,5.1,0,10.26,2.82,14.84A31.08,31.08,0,0,0,698.39,857.37ZM303.68,939.65c-3.79,4.58-4.81,8.94-5.68,13.36C300.56,949.32,303.84,946,303.68,939.65ZM664.36,785.08a28.65,28.65,0,0,0,5.24,13.8C668.79,793.92,667.53,789.13,664.36,785.08Zm-290-44.52c-5,3.57-7,9.15-9.78,14.27C367.78,750,372.79,746.48,374.37,740.56Zm301.2,97.33c.1-4.56-3.87-6.94-6-10.37C669.85,831.85,672,835.2,675.57,837.89Zm-22.84,67c-.42,5.5-.77,11,2.18,16A44.38,44.38,0,0,0,652.73,904.93Zm-258.87,2.6c5.46-6.69,7.55-11.31,6.87-15C397.91,897.12,395.14,901.61,393.86,907.53ZM654.74,637.15a120,120,0,0,1,15.39-8.4C663.46,628.77,658.89,632.59,654.74,637.15ZM506.38,982.81c-.23-4.83,3.47-9.44.74-14.6C504.09,973,505.59,978,506.38,982.81Zm167.27-9.12c1.12-4.85-.95-8.2-1.11-11.76,0-.63-.38-1.32-1.18-1.25a1.17,1.17,0,0,0-1.08,1.4C671.26,965.57,670.84,969.48,673.65,973.69ZM357.77,794.07c-4.8,3.48-8.18,8.32-9.06,13C353.33,803.17,354.55,797.86,357.77,794.07Zm9.1,69.72c2.24-4.32,5.29-8.36,5.46-13.43C370.1,854.69,367.2,858.75,366.87,863.79ZM683.13,796.1c-.79,5.18.46,9.58,4.7,12.8Zm-319,42.75c5-5.63,7.85-12,7.51-16.33C368.94,828.39,366.53,833.62,364.13,838.85Zm-5.53-57.28c-3,2.8-5.75,5.71-7.17,9.69C354.9,788.87,358.38,786.47,358.6,781.57ZM729.3,952.15c-.13,2.1,1.78,4.53.49,5.83-2.13,2.15.48,2.87.91,3.35,1.23,1.4,1.6-.72,2.4-1.22a1.91,1.91,0,0,0-.07-3.31C731,955.76,730.28,954,729.3,952.15ZM540.07,964.38c-.53,3.27-1.1,6.53-1.56,9.81a1.35,1.35,0,0,0,1.38,1.65c1,0,1.41-.82,1.38-1.68C541.17,970.92,542.12,967.64,540.07,964.38Zm-217-39.76c1.93-5.61,4.51-9.63,3.38-15.54C324.86,914.31,322.32,918.34,323.11,924.62Zm93-229.78-1.16-.73a28.19,28.19,0,0,0-6.1,6.74,2.1,2.1,0,0,0,.1,2.72c.27.25,1.15.39,1.25.24C412.21,700.85,414.15,697.84,416.11,694.84ZM701.31,826c-.86,6.91-.16,10.31,2.58,13.63C703.85,835.22,703.7,831.06,701.31,826ZM664.24,874.9a23.34,23.34,0,0,0,2.7,13.62C667,884.17,667.63,879.71,664.24,874.9Zm28.63,39.79c-.92-4.26-.44-8.9-3.15-12.62C690.3,906.43,690.08,911,692.87,914.69ZM442.32,961.44c-.94-2.44,1.71-5.53-1.52-7.51-.69-.42-.73-2.25-2-1.36-2.11,1.47.49,4.06-1.05,5.81,0,0,.3.37.45.55,1.32-.39.26-3.24,3-2.48C440.7,958.24,440.11,960.16,442.32,961.44Zm275.35-5.22-.78.34c.43,3,.72,6.11,1.39,9.1.2.87-2.2,2.77.77,2.7,2-.05,1.89-1.74,1.57-2.93C719.77,962.32,718.67,959.29,717.67,956.22ZM677.2,937.33c-1-4.82-1.63-8.39-2.38-12a1.17,1.17,0,0,0-1.38-1.06.93.93,0,0,0-.66,1.47C674.89,928.93,673,933.28,677.2,937.33Zm-3.62-65.93c-.32,4-.16,8,1.84,11.5C676.07,878.82,676.24,874.85,673.58,871.4ZM404.79,821.87c-4.2,1.64-7.16,6.4-5.84,9.58C401.12,828.34,403.74,825.66,404.79,821.87ZM452,927.47c2.21,2.59.54,5.95,1.82,8.74C457.76,932.05,457.2,929,452,927.47ZM685.52,815.15a13.7,13.7,0,0,0,1.35,10.94C687.93,822.22,687,818.67,685.52,815.15Zm64.8,131.51c-.09-4.88.45-8.72-2.43-12.44C746.44,938.76,747.8,942.2,750.32,946.66ZM436.07,907.58a34,34,0,0,0,4.22-13.34C438.13,898.45,435.67,902.56,436.07,907.58Zm292.3,57.07c-1.33,3.71.48,6.89,1.39,10.22C730.5,971.29,730.91,967.77,728.37,964.65Zm-310.63,3c-1.35,4.14-2.52,8.3-1.81,12.64C418.22,976.26,417.8,971.91,417.74,967.63ZM656,832.09c-1.46,4.89-.14,8.28,1.72,11.59A16.84,16.84,0,0,0,656,832.09Zm62.11,21.77a17.52,17.52,0,0,0-5-11.84C713.29,846.6,715.81,850.18,718.1,853.86ZM382.62,813.74c5.58-2.9,7.47-5.46,8.06-10Zm358.8,74.89,4.14,16.24A27.45,27.45,0,0,0,741.42,888.63Zm-14.27-66.48c-.52-4.36.3-9.1-3.25-12.57C725,813.78,724.38,818.41,727.15,822.15Zm-55.15.58c1.28-7.46.57-10.64-2.27-12.89C670.53,814.39,671.26,818.56,672,822.73Zm34.08,140.7c-1.17,3.56-.77,6.81,1.73,11C708.6,969.71,707.9,966.48,706.08,963.43ZM402.4,834.49c-4.61,2.46-5.8,6.61-5.68,11.37ZM667.15,665.2l.43-1.25-9.89-3.29C659.83,665.1,663.55,665,667.15,665.2ZM700.3,924.27a17.74,17.74,0,0,0,2.85,11.44C702.9,931.74,703.28,927.63,700.3,924.27ZM389.13,756.32l-1-.72c-3.77,3.57-5.44,8.36-7,13.22Zm41,120.36c-3.62,3.84-5.36,8.87-8.75,12.85C426,886.35,428.08,881.52,430.15,876.68ZM419.88,748l-1-.59c-2.88,3.71-5.76,7.43-6.32,12.46Zm95.3,228.89c2.23-2.66.89-5.5,1.72-7.92a1.09,1.09,0,0,0-.9-1.45c-.77-.16-1.21.26-1.3,1C514.4,971.19,513.18,973.87,515.18,976.89Zm113.66-51.37c-.43,3.56-1.05,7.12,1.1,11.65C630.85,932.29,631.06,928.79,628.84,925.52ZM357.06,768.44c-3.19,2.53-6.75,4.77-8.23,10.55C352.65,775.1,356.12,772.79,357.06,768.44Zm367.84,78.8c.63,4.41.68,8.93,3.64,13.86A29.66,29.66,0,0,0,724.9,847.24ZM436,962.62c-.34,3.75-3.45,7-1.79,11.32C436.74,970.49,436.74,970.49,436,962.62ZM364.24,820c-3.8,3.86-4,8.16-5.08,12.07C361.06,828.5,364,825.34,364.24,820Zm12.47,52.7c2.86-2.79,5-6,4.87-10.17C379.25,865.58,377.25,868.77,376.71,872.71ZM439,730.37c-4.44,2.27-5.6,5.3-6.62,10.15A20.65,20.65,0,0,0,439,730.37Zm-81.36,14.07c-3.5,3.22-5.51,7.41-7.59,11.57C352.84,752.32,356.41,749.18,357.64,744.44Zm40.86,220.7c4.19-2.79,3.92-6.19,4.12-9.61C397.32,957,400.53,961.45,398.5,965.14Zm-9-179c-4.51,5.89-4.63,6.15-4.75,10.17C387.28,793.47,389.82,791.21,389.54,786.17ZM430,803a14.24,14.24,0,0,0-5.21,10.31C428.08,809.78,429.66,806.7,430,803Zm321.92,117.5c.4,3.81-1.56,8.08,1.93,12C755,927.87,752.59,924.31,751.92,920.48Zm-455,7.41c2-4.13,3.94-8.23,4.33-12.84A24.4,24.4,0,0,0,296.93,927.89ZM407.11,698.45a30,30,0,0,0-3.33,4.1C403,703.94,401,705,402,707.38,406,705.74,406.17,701.82,407.11,698.45Zm211.34,284,.72-13.64C617.77,973.22,616.47,977.66,618.45,982.42ZM419.09,744.76c2.62-3.58,6.58-6.35,7.05-11.25C423.66,737.18,420.12,740.2,419.09,744.76ZM646.3,889.42c.52,3.48-.38,7.29,2.39,10.18C647.79,896.2,649.23,892.32,646.3,889.42Zm54.84,68.86c.47-3.6,1.53-7-3.25-8.58C699.48,952.46,698,955.82,701.14,958.28ZM339.61,862.5c-2.47,3.2-4.66,6.49-5.16,12C337.1,869.89,339.09,866.51,339.61,862.5Zm308.12,67.21c-2.23,4.44-.25,7.44,1,10.54A17,17,0,0,0,647.73,929.71Zm-338,9.44c3.11-3.4,4.4-7.45,5.65-11.51l-1.15-.41ZM337,913.47c-2.48,3.51-4.32,7.2-4.21,12.65C335.16,921.45,336.64,917.63,337,913.47Zm11.69.72c-1.5,3.83-5.81,6.56-5.2,12.23C346.66,922.44,347.49,918.26,348.71,914.19Zm234.93,67.12c1.07-3.8.49-7-.1-10.3C583.34,974.22,579.69,977.22,583.64,981.31ZM657,976.85c1.19-3,.65-5.75-.53-9.65C654.47,971.34,656,974.11,657,976.85ZM426.52,847.28c.84-1.95,1.54-3.57,2.22-5.19.52-1.22-.24-1.83-1.16-2.31a2.31,2.31,0,0,0-2.75.12,4.19,4.19,0,0,0-.67,1.26C428.72,841.69,424.52,845,426.52,847.28ZM304.74,926.46c-3.17,3.85-3.53,8.3-3.13,12.9Q303.19,932.91,304.74,926.46ZM385.1,826.41a17.59,17.59,0,0,0,6.62-9A20.74,20.74,0,0,0,385.1,826.41Zm371.77,108c-.33,6.52.26,9.12,2.52,11.95C759.16,942,758.75,938.07,756.87,934.36ZM333.71,942.5l-4.2,10.91C333,950.53,333.24,946.47,333.71,942.5ZM355.12,779l6.31-8.83A10.2,10.2,0,0,0,355.12,779ZM661.79,925.3c-1.07,5.64-.84,7.56,1.27,10.25C663.14,932.05,663.36,928.88,661.79,925.3ZM382.61,967.12c-2.07,3.9-1.25,6.94-.83,10A16,16,0,0,0,382.61,967.12Zm340.14-135c-1-2.94-1.23-6.35-4.34-8.21C719.1,827,719.15,830.5,722.75,832.1Zm-405.17,91c1-3,3.09-5.79,1.29-9.64C317.91,917,316.23,919.84,317.58,923.11Zm353.25-23.29c1,3.07-.06,6.79,3.34,10.66C673.25,905.89,673.3,902.53,670.83,899.82Zm-282.11,1.82c3.13-2,3.43-5.87,5.59-8.53C390.61,894.81,389.59,898.18,388.72,901.64Zm48.21-150.58-1.12-1-5.68,6.89C433.89,756.27,435.09,753.38,436.93,751.06ZM654.2,884.5c-1.33,4,.13,7.7,2,11.32Q655.21,890.17,654.2,884.5Z" transform="translate(-222.34 -26.53)"/><path d="M603.86,585.37c-4.48.17-7.76.88-10.89-.74-.88-.46-2-.78-2.69.21s0,1.83.42,2.74c1.39,3.22,4.46,4.11,7.31,5.28,1.07.43,2.62.77,2.06,2.12-.68,1.66-2.18.88-3.33.18-.55-.34-1-.91-1.51-1.26-1.8-1.13-3.76-1.7-5.43,0-1.85,1.9-.33,3.64.74,5.26a31.5,31.5,0,0,0,2.34,2.71c-3.28-.23-5-2.53-7.32-3.33-1.88-.63-3.33-.65-4.23,1.05-.73,1.39-.45,2.75,1.22,3.71,2.8,1.61,3.93,4.82,6.26,6.92.9.81,2.66,1.51,1.62,3.09s-2.41.47-3.48-.17c-5.79-3.43-11.58-6.85-17.27-10.44-1.62-1-2.47-2.93-4.82-.57-1.56,1.57-3-1.09-4.4-1.91-5-3-9.73-.76-10,5.2-.15,3.07.37,6.19.61,9.64-2.73-1.39-3.09-4.32-4.85-6.08-1.11-1.11-1.83-2.9-3.9-2.53s-1.71,2.1-2.17,3.45a41.26,41.26,0,0,1-1.9,4.07,10.73,10.73,0,0,0-2.35-2.21c-1.43-.67-1.7-3.59-3.7-2.53-2.21,1.17-1.25,3.72-.72,5.39,1.06,3.39,2.73,6.58,3.73,10.07-2.43-2.3-3.65-5.31-4.73-8.36-.77-2.17-1.34-4.41-2.17-6.54A5.07,5.07,0,0,0,524,606.9c-1.85-.26-2.18,1.69-2.81,3a46.62,46.62,0,0,1-3.6,6.6c-1.11-4.4.23-8.72.69-13,.37-3.48-.26-6.78-3.57-7.87-16.57-5.47-23.48-18.85-28.74-33.85a124.87,124.87,0,0,0-6.43-15c-7.82-15.35-21.77-26.72-39.61-24.08-4.59.69-16.38-6.87-17.28-11.33-1.09-5.42,3-9.3,6.61-11.75,12.21-8.3,26.18-11.17,40.85-11.17,5.35,0,10.54-1.72,16.06-.79,11.43,1.93,15.25,6.39,14.24,18,2.74-.66,3.72-2.91,4.18-5,.8-3.68-.29-8.75,1.81-10.94,2.67-2.79,3.48-5.78,4.56-9.09,2.57,2,2.08,5.64,5.33,7.81.61-6.14-.67-12,.91-18.09,2.58,3,2.32,6.92,4.27,9.79.74,1.08,1.11,2.58,2.74,2.4s1.34-1.63,1.57-2.73c2.72-12.68,5.56-25.34,8.1-38.05,1-5.23-2.55-10.14-1.64-15.47.22-1.26.2-2.57.34-4.6,1.51,2.36.54,4.33,1.15,6.1,1.89.21,1.1-2.15,2.72-2.57.92,4.47,3.44,3.66,6.26,1.57-2.58,12.71-2.12,25.57-2.66,38.36a16.65,16.65,0,0,0,.34,3.44,2.25,2.25,0,0,0,2.36,2.09c1.51-.06,1.57-1.32,1.74-2.51.22-1.57-.45-3.34,1.38-5.15.81,3.82,1.54,7.3,2.3,10.78.41,1.84.24,4.45,3.08,4.14s2-3,2.14-4.78a35.17,35.17,0,0,1,1.38-9.14c.76,3.67.29,6.52,1.57,9.06.58,1.15.69,2.75,2.5,2.45,1.55-.25,2.14-1.57,2.23-2.92a24.64,24.64,0,0,1,.81-6.56c1.54,4.82,3,9.68,4.68,14.43.54,1.5.29,4.28,2.84,3.91,1.9-.27,1.46-2.65,1.86-4.16.2-.76-.09-1.67,1.46-2.53.64,4.78,1.34,9.31,1.82,13.86.31,2.94.45,5.88,1.5,8.69.39,1.05.45,2.59,2,2.38,1.86-.27,1.4-1.89,1.24-3.15-.39-2.93-1.34-5.89-1.14-8.77.58-8.31,6.52-12.84,15.61-11.52,18.66,2.71,36.58,7.87,52.76,17.9a92.93,92.93,0,0,1,9.38,7.23c2.6,2.1,2.69,4.4,0,6.46a22.2,22.2,0,0,1-5,3.14c-5.1,2-9.43,5.45-14.52,7.61-6.87,2.92-10.25,9.58-13.3,16-2.58,5.45-5.17,10.25-11.52,12.52-5,1.78-6.84,7.07-8.37,11.7s-2.74,9.06-7.95,11c-2,.74-3,2.64-.34,3.89C598.61,578.43,600,582.35,603.86,585.37ZM593.8,503.76c9.85.44,19.65,1.15,29.29,3.6,6.51,1.66,13.22,2.46,19.75,4.18,2.74.73,6.27.85,7.54-2.61,1.36-3.7,0-6.47-3.93-8.17-9.33-4-18.28-9-28.17-11.63-9.36-2.51-18.69-5.1-28.6-4-6.84.74-10.06,4.46-9,11.08,1.16,7.57,1.16,7.57,8.72,7.58Zm-139.93,9.56c1.77.53,3.31-.29,4.77-.8,10.22-3.54,20.14-8.22,31.34-7.9a8.61,8.61,0,0,0,2.85-.78c3.54-1.3,4-3.12,1.33-5.73-5-4.85-10.76-7.64-17.85-6.42-10.49,1.8-20.89,4.31-31.43,5.46-5.25.58-8.83,2.8-12.22,6.19-4.36,4.37-3.89,9.39,1,13.31,1.4,1.11,2.72,1.25,4,.29,1.66-1.25.62-2.46-.21-3.8-2.66-4.29-2-6.38,2.76-8.07s9.44-3,13.73-5c8.59-3.94,17.37-3.06,26.16-3.16,2.33,0,4.69,1.31,7,2.15a2.17,2.17,0,0,1,1.19,1.44c.1.64-.53,1-1.27,1.19a73.61,73.61,0,0,1-19.27,1.77l10.3-3.9c-6-1.07-9.92,3.34-15.41.8,2.49,3.07,3.36,5.05-.65,5.56-.78.1-1.47.94-2.2,1.44,3,4-1.15,2.72-2.56,3.37S454.35,511.35,453.87,513.32Z" transform="translate(-222.34 -26.53)"/><path d="M653.05,26.53A185.05,185.05,0,0,1,663,62.05c2.51,14.22,6.41,28.1,10,42.07,3.22,12.55,6.31,25.12,8.16,38,.86,6,1.65,12.09,1.91,18,.29,6.8.63,13.76-.12,20.56-.6,5.49,0,10.78.69,16.15a195,195,0,0,1,1,32.77c-.42,10.21-.67,20.42-1,30.63-.18,5.22-.83,5.57-5.67,3.71-5.23-2-10.89-1.42-16.28-2.57-4-.86-7.9-1-11.69,1.5-1.69,1.11-3.49,0-3.49-2.55,0-2.29-.45-4.62-.17-6.87q1.53-12.12,3.43-24.19c2.28-14.53,4.74-28.95,4.8-43.8.06-15.24,2.06-30.45,2.68-45.7a351.56,351.56,0,0,0-.53-36c-.82-13.15-1.56-26.31-2.45-39.46-.65-9.52-1.48-19-2.21-28.55C651.82,32.71,651.75,29.63,653.05,26.53Zm12.19,81.67c2.49.37,2.08,4,4.36,2.43,1.74-1.18,1.46-3,.2-4.76a18.57,18.57,0,0,1-2.07-3.92c-1-2.3-3-2.53-4.93-2.41-2.69.17-1.44,2.46-1.64,3.87a18.62,18.62,0,0,0,0,4c.92,14.75,3.75,29.34,3.51,44.19,0,2.95-2.88,6.15-1.08,8.57,2.23,3,1,5.63.5,8.21-1,5.2,1.24,10.79-1.22,15.52a13,13,0,0,0-1.1,8.85,39.85,39.85,0,0,1,0,11.23c-1.05,10.81-3.9,21.31-5.48,32-.17,1.12-.87,2.58.67,2.88,1.27.24,1.76-1,1.85-2.34.14-2.28.27-4.47,3.06-5.57,1.23-.49,2.06-2.85.79-3.79-2.73-2,.25-4.21.5-4.46a7.09,7.09,0,0,0,1.56-7.47,5.67,5.67,0,0,1,.72-5c2.65-4.68,4.07-10.08,2.39-15-1-3-1.09-5.29.23-7.59,1.82-3.16,1.44-5.69-1-8.1-1-1-.8-2.11-.68-3.23.45-4,1.59-8.08,1.25-12-.27-3.19,4.08-1,3-3.09-2-3.82-.68-7.78-1.32-11.55-1.69-9.95-.41-20.15-2.92-30-.37-1.48-.75-4.58,2.92-3.16,1,.39,2.47,1.2,2.64-.69.15-1.65-1-3.1-2.76-2.64C663.72,114.59,666.06,110.67,665.24,108.2Z" transform="translate(-222.34 -26.53)"/><path d="M434.22,38.2c2.79,25.33,3.75,50.32,5.1,75.28.12,2.14.47,4.38,0,6.41-2.12,9.15.42,18,1.45,27,1.51,13.16,2.32,26.38,3.72,39.53a175.7,175.7,0,0,0,3.2,21.24c1.36,5.87,1.41,12.08,1.6,18.16A69.68,69.68,0,0,0,450.87,240c.6,2.47.14,3.5-2.43,3-2.24-.41-4.68,0-6.61-1.64a3.53,3.53,0,0,0-3.25-.76c-6.5,1.75-13.37.3-19.79,2.2-3.79,1.12-4.69-.42-4-3.52,3.06-12.88,2-26.15,3.88-39.19,2.72-18.69,4.24-37.57,6.71-56.32,3.51-26.62,4.49-53.45,6.35-80.21.45-6.57.75-13.12.8-19.69A9.1,9.1,0,0,1,434.22,38.2Z" transform="translate(-222.34 -26.53)"/><path d="M466.38,466.58c-4.82,3.44-10.69,3.82-16.13,5.23a91.51,91.51,0,0,0-26.44,11.5c-6.18,3.95-6,9.54-.51,13.93,1.32-2.43-2.54-6.46,2.48-7.79a21.68,21.68,0,0,0,8.39-4.06c-1.77.07-3.29-1.75-4.46,0s-2.5,1.82-4.12,2.09c2.92-5.1,8.11-7.05,13.22-8.5,6.89-2,13.43-4.91,20.73-5.86,9.92-1.29,19.64-3,29.57-.14,4.48,1.28,7.11,6.69,5,10.93a1.91,1.91,0,0,1-2.82,1c-2.63-1.46-7.24,1.34-8.2-3.77,0-.18-1.25-.29-1.88-.2-16.79,2.58-34,3.53-48.95,13.05a31.4,31.4,0,0,0-3.13,2.41c-2,1.65-3,5.38-6.44,4s-7.09-8.64-6.61-12c.87-5.95,4.39-10.1,9.08-13.78-1.35-1-4.23.37-4.17-2s2.65-2.72,4.41-3.36c13.34-4.81,27.44-6.51,41.09-10.05,5.7-1.48,11.7-1.42,17.25-3.59,3.27-1.28,1.69,3.7,4.27,3.37.13-4.88-5.07-10.51-11.57-10.55-20.59-.14-40.51,2.71-57.63,15.74-3.4,2.58-3.68,5.41-2.37,9,.63,1.71,2.26,3.36.63,5.38-6.54-5.36-7.07-12.74-1.12-17.95,8.28-7.26,18.3-10.88,28.89-13,8.85-1.75,17.62-4,26.65-4.73,12.35-1,21.37,4.24,23.74,15.71.31,1.49.83,3.09-.4,4.19s-2.41-.41-3.64-.68c-1.59-.36-3.22-1.09-4.79-1-14.79,1.07-29.9-.17-44,6.15-4.68,2.1-9.47,3.95-14.08,6.24,5.34-.19,10-2.63,15-4.1,7.55-2.25,15.14-4,23.09-2.91Zm-7,11.1c8.34.2,16.24-2.36,24.28-4.12C475.36,473.48,467.35,475.18,459.4,477.68Z" transform="translate(-222.34 -26.53)"/><path d="M635.44,292.82a10.66,10.66,0,0,1,.41-3.41c1.11-3.22,2.71-5.71,6.85-3.4,5.6,3.12,11.85,1.12,17.77,1.85,7.65.93,14.76,4.37,22.56,4.41a3,3,0,0,1,1.68.91c2.62,2.36,3.07,14.12.82,16.95-1.36,1.72-2.84,1.42-4.35.59-7.8-4.25-16.42-5.94-24.95-7.79a33.65,33.65,0,0,0-11-.6C636.87,303.36,635.62,302.56,635.44,292.82Z" transform="translate(-222.34 -26.53)"/><path d="M687.23,344.16c-.25,1.46-.4,2.95-.78,4.37-.71,2.61-.57,6.4-4,6.63-3.18.22-5.81-2.53-7.22-5.18-1.69-3.18-4.16-4-7.23-5-7.58-2.62-15.43-3.2-23.26-4-4.46-.46-8.73,1.11-13,2.18-3.3.83-5.35.67-4.41-3.76.57-2.7.22-5.58.46-8.37s1.74-4,4.69-3.29c10.84,2.61,22.24,1.51,33,4.92,6.08,1.93,12.32,3.37,18.31,5.52A5.5,5.5,0,0,1,687.23,344.16Z" transform="translate(-222.34 -26.53)"/><path d="M412.52,331.91c-4.81-5.2-6.13-10.82-5.86-16.87.13-3,5.15-5.48,9.17-5.63,6.85-.26,13.55,1.26,20.35,1.3a28.55,28.55,0,0,0,9.26-1.16c3.87-1.23,8.13,1.93,10.71,5.49a15.94,15.94,0,0,1,2.57,9.86c-.06,2.19-.83,4.38-4.48,2.36-4.79-2.66-10-5.25-15.78-4.54-2.5.3-1.84-2.9-4.32-2.9a36.68,36.68,0,0,0-19.82,5.94C412.37,327,412.85,329.24,412.52,331.91Z" transform="translate(-222.34 -26.53)"/><path d="M688.06,321.72c-.24,1.46-.4,2.94-.75,4.37-1.47,6.16-2.55,6.52-8.27,3.75-6.1-2.95-13-4.11-19-6.76-8.53-3.72-16.59-.39-24.8-.86-3.91-.22-4.72-1.5-4.51-4.91.61-10.25,1.58-11.3,11-8.14a29.62,29.62,0,0,0,10.78,1.35c5.35-.17,9.55,3.6,14.77,4.42a117.94,117.94,0,0,0,16.07,1.63C687,316.64,688.41,318.16,688.06,321.72Z" transform="translate(-222.34 -26.53)"/><path d="M429.49,331.75c8.79.61,17.66-.1,26.36,1.83,2.53.56,4.74,1.4,5.49,4.23,1.41,5.35-1,7.89-6.61,7.39-8.55-.78-17.11-1.63-25.74-.75a33.45,33.45,0,0,0-12.05,3.93c-3.32,1.72-4.56.27-4.92-2.74a33.39,33.39,0,0,1-.16-6.4c.31-4.56,3.06-6.82,9.24-7.44A83.8,83.8,0,0,1,429.49,331.75Z" transform="translate(-222.34 -26.53)"/><path d="M431.08,265.27c4.6,0,9.21.09,13.81,0,7.26-.16,9.52,1.58,10.35,8.73.3,2.58.92,6-.36,7.68-1.75,2.34-4.35-.6-6.44-1.38-10.05-3.73-20.29-2.2-30.51-1.4a5.38,5.38,0,0,0-3.2,1.05c-3.71,3.64-4.42,1.21-4.89-2.2-1.64-12-1-12.73,10.88-12.4,3.45.1,6.9,0,10.36,0Z" transform="translate(-222.34 -26.53)"/><path d="M612,388.82a36.66,36.66,0,0,1,6.15-14.25c5.67-7.64,13.79-6,21.28-4.83,12,1.85,23.12,6.57,34,11.8,4.46,2.14,7.59,5.72,10.27,9.67,2.29,3.35.92,9.92-2.23,12.59-.65.55-1.3,1.29-2.08.76s-.55-1.5-.27-2.27c2.89-7.94,1.68-10.13-6.82-13-4.38-1.49-8.51-3.78-12.7-5.52-10-4.14-20.12-8.75-31.53-7.61-5.78.58-8.74,2.64-10.66,8.15C616.6,386.52,615.48,388.47,612,388.82Z" transform="translate(-222.34 -26.53)"/><path d="M588.82,474.72c-5.66,2.95-5.52,2.92-6.83-2.05-1.08-4.08-1.78-8.05.35-12,2.88-5.3,7.67-6.36,14.9-3.87,19.35,6.65,37.67,15.77,56.53,23.6,3.3,1.37,7.17,1.63,9.89,4.12s6,4.94,3.33,9.14c-2.26,3.58-6.91,4-11.38,1.53.71-1.89,2.87-1.11,4.07-2.23,2.33-2.2,2.21-5.14-.78-6.1-19.12-6.12-36.86-15.69-55.88-22a58.66,58.66,0,0,0-11.92-2.8c-6.31-.72-8.14,1.9-6,7.83C585.75,471.8,586.55,473.58,588.82,474.72Z" transform="translate(-222.34 -26.53)"/><path d="M684.44,376.83c-19.78-13.14-39.52-23-63.62-12.16a32,32,0,0,1,.27-3.32c1.92-10.73,4.71-12.62,15.53-10.52A233.16,233.16,0,0,1,677,362.39a8.1,8.1,0,0,1,1.34.61c2.19,1.43,5.74-1.47,7.08,1.87s.19,7.13-.49,10.66A5.66,5.66,0,0,1,684.44,376.83Z" transform="translate(-222.34 -26.53)"/><path d="M421.07,287.09c8.33.8,16.65,0,25-.08s12.28,5.79,9.23,13.72c-.57,1.49-1.46,1.86-3,1.71-2.92-.27-5.86-.24-8.49-1.83-6.43-3.88-13.83-3.49-20.88-4.5-3.44-.5-6.11,2-8.77,3.87-3.46,2.41-4.89.92-5.78-2.51-1.74-6.73.87-10.28,7.78-10.37C417.78,287.08,419.43,287.09,421.07,287.09Z" transform="translate(-222.34 -26.53)"/><path d="M584.3,452a16.19,16.19,0,0,1,5.42-13.89c3.22-2.75,8-.44,11.95,1.69,16,8.52,33.29,13.76,50,20.5,5.12,2.06,10.11,4.32,15.57,5.46,2.39.51,4.92,1.39,4.9,5.1,0,4.56.08,8.92-3.88,12.12-1.2,1-1.66-.3-2.34-.82-1-.76-.87-1.26.06-2.26,3.69-4,3.44-5.21-1.4-7.87-13.74-7.55-28.73-12.13-43.2-17.95-7-2.83-13.74-6.32-20.6-9.5-8.23-3.82-11.24-2.79-14.67,5.79C585.81,451.16,585.65,452,584.3,452Z" transform="translate(-222.34 -26.53)"/><path d="M468.31,364.21c-7.8-2.27-14.61-4-21.71-2.39-3.11.73-6.23.39-9.2.14-11.06-.94-18,2.05-24.58,11.65-2.66-6.31-2.84-12.2.36-18a5.49,5.49,0,0,1,4.85-3c12.75.09,25.53-1.46,38.23,1.65C462,355.63,463.78,360.62,468.31,364.21Z" transform="translate(-222.34 -26.53)"/><path d="M591.94,434c-2.36-7,.29-11.69,6.18-13.43,5.48-1.61,10.55-.41,15.32,1.59,12.84,5.39,25.73,10.65,38.79,15.51,5.22,1.94,10.6,3.36,15.87,5.09,8.65,2.84,10.74,14.19,4.18,20.5-1.57,1.5-2.95.29-4-.39-2-1.31,0-2.1.79-2.93,4.92-5,4.56-7-1.72-9.9-19.65-9.14-39.54-17.65-60.39-23.75C597.93,423.66,595.39,424.77,591.94,434Z" transform="translate(-222.34 -26.53)"/><path d="M673.64,424.21c-1.89-1.64-2.2-2.94-1.12-4.67,2-3.12.61-5.14-2.33-6.75A155.06,155.06,0,0,0,647,402.94c-9.85-3.49-19.61-7.39-30.34-7.35-3.15,0-6.23.21-6.12,4.23.09,3.37-2.85,1.33-3.75,3.76-.11-8.24,6.16-13.18,13.75-13.18,16.6,0,31.36,6.44,46.26,12.45a58.43,58.43,0,0,1,8.8,4.9c3.82,2.39,4.56,5.7,2.29,9.54-.66,1.11-1.52,2.11-2.2,3.21S674.42,422.79,673.64,424.21Z" transform="translate(-222.34 -26.53)"/><path d="M455.31,262.61C444,257.05,433,257,421.85,257.3a16.15,16.15,0,0,0-2,.12c-7.42,1.23-8,.6-8-7,0-3.87,1.21-5.13,5.17-4.94,7.37.37,14.78.07,22.17.23a35.93,35.93,0,0,1,7.8,1c5.91,1.44,7.26,3.37,6.76,9.35C453.57,258.18,453.33,260.2,455.31,262.61Z" transform="translate(-222.34 -26.53)"/><path d="M470.3,387.1a41.09,41.09,0,0,0-11.64-9.17c-2.86-1.58-5.45-1.49-8.42-1.32-7.06.41-13.87,2.22-20.76,3.54-5.64,1.09-9.67,4.51-10.84,10.6-.53,2.73-1.22,5.43-2,8.1a2.92,2.92,0,0,1-1.67,1.58c-.69.24-1-.56-1.18-1.23-2-7.69-2.93-15.19,3.24-21.67,4-4.19,9.47-3.06,14.29-4,9.07-1.76,18.33-1.92,27.55-2.33C468.25,370.77,471.5,375,470.3,387.1Z" transform="translate(-222.34 -26.53)"/><path d="M649.48,267.88c9.76.85,21.28,1.24,32.37,4.78,2.81.89,4.32,5.27,3,9.44-1.1,3.46-3.81,3.52-6.34,2-5.77-3.36-12.17-3.26-18.46-4.17-4.8-.69-9.33-2.06-14.27-.3-1.8.64-4.42-.33-3.63-3.61.38-1.58.47-3.23.92-4.79C644,267.91,644.1,267.92,649.48,267.88Z" transform="translate(-222.34 -26.53)"/><path d="M457.53,393.94c3.07,0,5.21,0,7.35,0,4.92.09,7.62,2.44,8.38,7.18.24,1.47.58,3.62-.64,4a4.65,4.65,0,0,1-4.85-1.44c-3.76-4.59-8.86-5.11-14.1-4-4.48.91-9.07.79-13.43,1.59-6.57,1.19-13.58,1.36-19.33,5.92-2.81,2.23-3,5-3.28,7.93-.18,1.56-.19,3.3-2.09,3.27s-1.72-2-1.91-3.38c-1-7.13,2-12.1,8.81-14.44a87.26,87.26,0,0,1,11.81-3.37C442.25,395.62,450.08,392.62,457.53,393.94Z" transform="translate(-222.34 -26.53)"/><path d="M597.25,417.48c2-9.59,11.58-13.65,21.2-10,12.61,4.8,25.17,9.69,38,14,4.82,1.63,10.85,1.14,14.87,6.31-3.73,1.17-7.13,1.66-10.55.36-11.93-4.55-24-8.87-35.53-14.31-5.52-2.6-11.42-3.32-17.41-3.71-1.52-.1-1.86.91-2.56,1.82C603.21,414.6,600.37,416,597.25,417.48Z" transform="translate(-222.34 -26.53)"/><path d="M485.69,440.87c-8.2-2.62-13.42-10.32-22-9.26-7.52.93-15,2.25-23.44,3.55,3.44-3.85,7.39-3.59,10.82-4.22,6.83-1.24,13.78-1.63,20.62-3C476.88,426.93,482.66,432.3,485.69,440.87Z" transform="translate(-222.34 -26.53)"/><path d="M439.69,462.94c4.53-2.78,9.58-4.28,14.65-5.61,6.85-1.8,13.75-3.36,20.63-5,2.7-.65,4.93.29,7.08,2.16C467.17,454,454.28,462.22,439.69,462.94Z" transform="translate(-222.34 -26.53)"/><path d="M478.89,427.08c-3.06-2.27-6.12-3.69-5.55-8.45.3-2.55-2.49-4.43-5.23-5-1.48-.29-3-1.45-2.8-2.23.29-1.29,2.08-1.7,3.48-1.88,5.41-.7,11.91,7.22,11.15,13.62A29.54,29.54,0,0,1,478.89,427.08Z" transform="translate(-222.34 -26.53)"/><path d="M418.85,454.6c-7.36-11.06-2.05-16,8.39-18,3-.57,6-1.19,9.05-1.81-1.12,4.21-4.83,4.13-7.75,4.76-7.42,1.6-9.28,3.84-8.89,11.58A16.12,16.12,0,0,1,418.85,454.6Z" transform="translate(-222.34 -26.53)"/><path d="M466.42,466.6c6.84-.52,13.67-1.34,20.52-1.48,7.68-.17,12,4.82,10.65,11.91-5.06-8.67-13.34-9.61-22-9.37a32.66,32.66,0,0,1-9.19-1.07Z" transform="translate(-222.34 -26.53)"/><path d="M671.66,694c-.65-9.85,3.72-18.65,6.78-27.76C679,676.07,676,685.12,671.66,694Z" transform="translate(-222.34 -26.53)"/><path d="M590.35,470.88a199.2,199.2,0,0,1,31.4,10C611.89,476.92,600.35,478.63,590.35,470.88Z" transform="translate(-222.34 -26.53)"/><path d="M668.05,438.52c6.65-1.5,4.85-6.47,4.67-10.9,4.25,2.8,5.39,7,3.28,10.43S671.58,441.94,668.05,438.52Z" transform="translate(-222.34 -26.53)"/><path d="M628.72,483c8.61,1.94,16.3,4.77,23.87,7.4C650.47,492.27,635.49,488,628.72,483Z" transform="translate(-222.34 -26.53)"/><path d="M415,635.78c-5.39,1-10-.35-14-5.18,5.4,1.12,10.35,1.49,14.11,5.26Z" transform="translate(-222.34 -26.53)"/><path d="M415.46,437.46c-.93-4.6-3-9.2.36-13.6.79-1,1.71-2.66,3.06-1.74,1.74,1.18-.38,2.05-.82,3.09C416.42,429.11,415,433.06,415.46,437.46Z" transform="translate(-222.34 -26.53)"/><path d="M465.24,452.69c-2.59-1.05-5.79,3.85-10.51,1.87C458.87,452.18,463,453,465.24,452.69Z" transform="translate(-222.34 -26.53)"/><path d="M537.81,930.14c-1.9-2.22-1.36-4.35-1.11-6.44a19.58,19.58,0,0,0-11.91-20.43c-10.2-4.5-20.65-8.55-28.69-16.85-5.14-5.3-9-11.17-11-18.35-2.54-9.32,1.46-13.48,11-11.89,2.66.44,5.53,5.66,8.67.23.4-.69.58,1.85,1.58,2.45a11.32,11.32,0,0,1,5.88,8.4c.64-.29,1.13-.38,1.16-.54,1-6.39,1-6.39,6.76-3.39a32.92,32.92,0,0,0,3.1,1.52c2.7,1,4.57,2.34,3.47,5.84-.49,1.54-.61,3.6,1.29,4.83,1.43-.92,1.07-2.32,1.06-3.59s-.78-3.08,1-3.31c1.62-.21,3.88,1.13,3.65,2.62-.56,3.78,3.45,5.2,3.22,8.37,2.22.27,2-2.25,3.31-2.48,2.33,1.38-.31,4.91,2.45,5.37,2.16.36,1.07-2.72,2.42-3.64.29.22.69.37.76.61.6,2.08-.77,5.8,1.52,6s2.44-3.59,3.31-5.77c.54-1.38,0-3.63,2.56-3.53s1.9,2.16,2,3.68c.09,1.8.21,3.12,2.53,1.54,1.61-1.11,1,1.69,2.05,1.78,1.35-1.29-.73-4.12,1.6-4.17,3.59-.08.78,4,2.86,5.29,3-.65.42-3.89,2.25-5.12,2.68.39.6,3.43,2.48,4.26,1.47,0,1.19-1.19,1.3-2.1.17-1.43-.15-3.17,2-3.38,1.63-.17,3.24-.35,4.16,1.66s2.65,2,3,0c.43-2.28,2-3,3.42-4.16-1.4-1.49,5.62-2.27.37-4.17,0,0,.11-1.49.47-1.67,6.13-3,12.23-6.39,19.32-6,5.3.27,7.43,3.31,6.66,8.55A15.12,15.12,0,0,1,609,876c-5.93,13.73-22.87,30.93-41.57,30.6a57.91,57.91,0,0,0-11.79.81c-9.41,1.74-13.88,5.65-16.1,14.89C538.89,924.88,538.38,927.52,537.81,930.14Zm-14.49-46.81c-7.27-6.92-14.35-14.1-23.84-18.11A70.22,70.22,0,0,0,523.32,883.33Z" transform="translate(-222.34 -26.53)"/><path d="M610.09,933.9c-.14.18,2.09,3.8-2.21,1.63-1-.5-1.88.26-2.73.75-12.16,7.06-26,9.1-39.32,12.1-27,6.08-51.32-.64-72.18-19.18a72.87,72.87,0,0,0-12.26-9c-1.58-.9-2.84-2.18-3.6-5.62C518.78,949.05,564.26,943.35,610.09,933.9Z" transform="translate(-222.34 -26.53)"/><path d="M596.33,849.25c0,2.5-2.05,3.31-4,3.24a4.21,4.21,0,0,1-4.32-4.4c0-2.9,2.83-3.21,4.51-3.32C594.9,844.63,596,846.82,596.33,849.25Z" transform="translate(-222.34 -26.53)"/><path d="M577.21,854.7c0,2.85-1.65,3.51-3.82,3.7-2.58.24-3.64-1.4-3.67-3.47,0-2.57,2.37-4.84,4-5C575.86,849.8,576.37,853,577.21,854.7Z" transform="translate(-222.34 -26.53)"/><path d="M541.19,861.3c-1.32-.32-3.47-.44-3.73-3a3.19,3.19,0,0,1,3-3.72c2.45-.09,3.46,2,3.84,4.19C544.65,860.73,543.5,861.4,541.19,861.3Z" transform="translate(-222.34 -26.53)"/><path d="M559.35,853.68c-.13,1.79-1.59,1.51-2.59,1.6-1.75.17-3.42-.27-3.55-2.43-.09-1.59,1.25-1.7,2.42-1.69C557.43,851.18,558.81,851.87,559.35,853.68Z" transform="translate(-222.34 -26.53)"/><path d="M718.84,549.06c4.92-5.66,11.38-8.44,17.58-11.66,2.4-1.25,5.25-1.95,6.36-4.9-2.4-.34-4.9-1.28-7.18-.9-5.44.92-8.75-4.78-14-4.06-.89.12-1.1-1.06-.69-1.92,1.5-3.16-1.57-1.74-3-2.8a21.63,21.63,0,0,0,6.91-8.82c.25-.56.93-1.16.57-1.67-5.19-7.55,1.19-3.42,3.46-3.47a8.27,8.27,0,0,0,1.35-.24c.67-2.2-2.45-2.05-2.36-4.14,2-.89,3.94-1,5.4.53,3.7,3.95,4.28,0,4-1.93-.62-4,2.66-5.85,4.41-7.87,3.35-3.84,7.2-2.62,9.73,2,1.33,2.41,2.34,7.2,5.19.67,1-2.36,4.25-.21,6.53-2.49-.49,3.3-1.9,5.61-.28,8.2,2.41-1.86,1.55-5.18,3.26-7.42,2,1,0,4.47,2.66,4.46,2.17,0,1-2.87,2.64-3.94,2.21.69,4.57,4.67,7.1.15.23-.4,2-.35,2.81.06,4.25,2.21,6.91,1,8.11-3.8,2.54,1.09,4.92,4.93,7.24.21.3-.62,1.63-.4,1.57.16-.38,3.88,4,2.52,5.36,4.95.68,1.22,3.89,2.54,6.29-.27,2.84-3.34,2.24-1.83,5.35.57,4.62,3.56,2.12,3.58-1,4.45-.13,0-.22.23-.58.63,2.1,1.81,5.3,3,3.87,7-1,2.85-2.84,3.24-6,3.1,2.64,3.32,3.27,5.62-1.61,6.4-1.16.18-2.48,2.63-2.77,4.21s2.14.62,3,1.66c-1.25,1.58-1.72,4.28-4.9,2.39.21,2.53,2.49,2.64,3.05,4.28.14,3-10.09-3.33-4.17,4.55-1.8,2-3.94-1.55-5,.51s2.35,2.9,2.33,5c-1.84,1.52-4-1.08-6.13.44.47,2.12,2.5,2.3,3.89,3.22.63.42,1.64.87,1.2,1.86-.52,1.15-1.53,1-2.48.46-.57-.32-1.1-.74-1.69-1-1.06-.49-2-2.43-3.29-.91-.9,1,.36,2.07.93,3,.33.55.59,1.15.87,1.73-6.53,1.77,1.33,4.08-.22,6-.13.11-.25.28-.39.3-2.39.34-4.59-3.8-6.54-1.15-1.37,1.86,2.76,3.28,2.79,5.72-1.66,1.23-3.6-.26-5.12.52-1.71,2.05,3.15,2.88.82,4.46-2,1.39-2.19-2.55-4.47-2.22-1.79,1.76.57,3.79.12,6.07-1.64-.83-3.06-1.48-4.4-2.25-2.91-1.69-5.49-2.94-6,2.2-.2,2.09-2.09,1.66-3.52,1.67s-1.9-.92-1.84-2.29.42-3-1.2-3.4c-1.84-.49-1.8,1.54-2.4,2.54s-.64,2.64-2.16,2.05c-1.73-.68,0-1.91,0-2.91,0-1.2,1.73-2.65.14-3.54-2-1.09-2.24,1.31-3.18,2.23a11.78,11.78,0,0,0-1.75,2.38c-.53.86-1.21,1.14-2,.6s-.2-1.21,0-1.77a24.47,24.47,0,0,0,1.17-2.7c.43-1.75-.59-3.38-1.51-4.5-1.09-1.34-2.53.25-3.33,1-3.3,3.18-6.57.06-9.82.08-1.21,0-1.13-1.5-.34-2.3,1.14-1.17,2.46-2.18,3.7-3.26,1.05-.93,3-1.78,1.82-3.41s-2.63.11-3.88.71c-.74.35-1.41.85-2.67,1.62,1.14-3.58,2.54-6.2,5.45-8,1.4-.87,4-1.65,3-3.83s-3.53-1.12-5.29-.71c-6.71,1.58-13.36,3.4-20,5.08A20.7,20.7,0,0,1,718.84,549.06Z" transform="translate(-222.34 -26.53)"/><path d="M373.19,566c-7.18-.51-14.05-2-20.26-5.34-3.39-1.83-7.19-2.21-10.53-4a2.07,2.07,0,0,0-3.23,1.1c-.62,1.53.82,1.84,1.56,2.64,1.9,2.08,5.36.32,7.21,3.28a14.26,14.26,0,0,1-8.56-.24c-1.85-.69-3.87-.84-3.77,2,.16,4.24-1.58,3.18-3.57,1.39-1-.86-2-1.52-3-.53s.78,2,.4,3.77c-2.37-3.89-4.67-4.38-7.13-.49-.3.48-2,3.28-3.54.33-.63-1.24-1.33-.44-1.72.31-1.74,3.27-5.36,5.35-5.64,9.66-3-1.18-1.94-8.74-7.6-4.44-3.09-2.84-5.85-2.31-8.71,2.19a22.41,22.41,0,0,0,0-3.13c-.41-1.77,1-4.9-1.24-5.06-2.82-.2-1.61,3.24-2.31,5.07-1.63.33-1.8-1.75-3.12-1.84.35-3.89-1.91-4.19-4.93-3.68-1.28.21-1.56-.73-1.6-1.87-.06-1.64,1.52-3.91-.92-4.72a6.82,6.82,0,0,0-6.16.85c-.89.63-1.57,2.64-3,.74-1.19-1.54-.52-2.72,1-3.63,1.67-1,2.26-2.83,1.33-4.24-1.12-1.71-2.6-.11-3.72.61-.87.56-1.54,1.35-2.43.2s0-1.79.67-2.52c.1-.13.24-.23.34-.36,1.13-1.47,3.92-2.59,2.77-4.64-1.44-2.58-3.16,1.44-5.13.51-1.24-1.9,2.12-2.32,1.32-4.36-3.1.15-5.74-.54-4.07-4.74a1.58,1.58,0,0,0-.83-2.35c-2.84-1.59-2.38-3.47-.19-5.22s2-2.72-.79-3.4c-2.32-.58-2.46-2.56-.92-3.65,5-3.52.72-3.91-1.81-5.24,1.59-2.09,5.57-3.67,1.88-7.17-.52-.49,0-2.77.69-3.69,3-3.81,4-7.57.85-11.78-.46-.61-.74-1.84.14-2.17,5.58-2.11,3.49-5.29,1.34-8.55-.11-.17.15-.58.24-.88,6.26,5.55,6.26,5.55,7.68,1.83C274.39,495,278,490,281,489.9c2.12-.08,4-1.25,5.14,1.55.25.61,1.56,1.42,1.92,1.23,4.5-2.32,5,1.08,5.84,4,.69,2.28,1.72,1.89,4,1.57,3.65-.51,7.55-5.77,11.35-.24.27.39.88.58,1.08,1,1.51,3.13,1.52,3.18,4.05,1.31.59-.43,1-.91,1.34.05.7,2.19,2,1.09,3.45,1.05,3-.09,6.34.3,5,4.84-1,3.33,1.45,2.59,3,2.66,2.8.13,6.2-1.07,6.5,3.59a1.5,1.5,0,0,0,1,1c6.74,1.68,9,8,13.15,12.46,2.48,2.65,2.81,5.36-.09,8.07-1.4,1.32-3,2.92.59,3.51.71.11,1.78-.49,1.94.79s-.68,1.7-1.65,2.14c-2.81,1.3-3.38,2.68-.08,4.14.64.29,1.92.65,1.21,1.51-3.59,4.34.77,4.73,3,6,5.33,3.19,11.15,5.61,15.29,10.6C369.24,564.26,371.35,565,373.19,566Z" transform="translate(-222.34 -26.53)"/><path d="M592,497c.75,2.16,1.89,1.73,2.79,1.82a6.89,6.89,0,0,1,2.94.69,20.36,20.36,0,0,1-12.28,1c-2.23-.54-2.16-4-2.19-6.1,0-2.54,2.47-1.42,3.88-1.49,13.23-.68,25.52,3.57,37.88,7.48C614.17,498.41,603.4,496.27,592,497Z" transform="translate(-222.34 -26.53)"/><path d="M635.51,505.22c3.79-2.87,7.81,0,12.45-1.41C644.13,508.66,642.11,508.74,635.51,505.22Z" transform="translate(-222.34 -26.53)"/><path d="M620.42,494.72l12.67,4.38c-.17.45-.33.9-.49,1.35A36.23,36.23,0,0,1,620.42,494.72Z" transform="translate(-222.34 -26.53)"/></svg>