<svg id="Layer_1" data-name="Layer 1" xmlns="http://www.w3.org/2000/svg" viewBox="0 0 810.68 890.05"><title>thestag</title><path d="M490.07,967.89c-9.76-6.47-19.55-12.9-29.27-19.43-3.07-2.06-4.91,0-7.18,1.53-5.05,3.4-10.32,6.47-15.38,9.86-9.15,6.13-19.05,7.58-31.8,4.86,18.25-7.92,34.35-15.93,48.85-27,39.31-30,83.23-52.85,125-79,37.34-23.34,72.46-49.65,106.35-77.71,10.75-8.91,20-19.44,30.74-28.17,16.64-13.53,16.84-30.44,13.09-48.81-2-9.92-4.57-19.74-6.65-29.65-.54-2.58-.91-5.55-.17-8,1.08-3.52,3.17-7.37,7-8,3.68-.63,4.55,3.63,6,6.07,9.42,16.21,8.76,33.63,5.56,51.25-.35,1.93-1.64,3.73,1,7.1,12.49-17.58,29.68-31,38-51.1,3.48-8.42,1.27-17.61-2-25.89-5.18-13.25-11.14-26.19-16.67-39.31-3.9-9.25-6.11-18.51-.92-28.2,1.27-2.38,1.59-5.56,4.68-6s4.75,2.47,6,4.76A153.69,153.69,0,0,1,790,630.71c1.07,7.9,1.63,15.87,3.52,24,13.12-22.05,28.86-42.41,24.23-71.16-3.29-20.36-8.57-40.51-9.1-61.29-.09-3.7-.26-7.57.66-11.08.75-2.83,3.65-6.42,6.73-3.44,7.42,7.16,14.8,14.28,15,26.22a328.43,328.43,0,0,1-5.32,64.78,9.74,9.74,0,0,0,.41,5.61c15.29-12.17,22.53-31,36.83-44.05-22.85,32.2-41.45,66.87-62.41,100.94,7.62.51,11.34-4.79,16-8.34,8.59-6.59,17.06-13.2,27.83-16.26,6.47-1.84,12.25-.12,14.66,5,2.64,5.61,1.07,11.54-5.7,15.38-8.7,4.93-18.32,4.85-27.56,6.13-15.15,2.1-28,7.78-37.67,19.72-8.2,10.11-17.56,19.34-25.84,33.38,13.14-8.74,24.17-14.86,37.55-13.94,3.45.24,7.25.1,8.48,4.09s-2.2,6.29-5,7.94c-3.14,1.87-7.09,4.4-10.25,3.89-30.35-4.94-49,13.4-66.26,33.44-24,27.8-53.45,48.76-82.44,70.63C611.84,846.78,575.92,866.08,543.1,891c10.73,4.57,19.53,3.63,29.72-1.8,18.35-9.79,38.34-16.47,56.88-26a290.28,290.28,0,0,1,75.18-25.9c6.08-1.23,8.25-8.4,12.86-12.23,3.52-2.92,6.46-5.35,7,1.63.38,5.27,2.88,3.46,6.08,3,11.39-1.48,22.86-2.52,34.13,1.09,3.53,1.13,6.7-.05,9.7-1.82,6.37-3.8,13.3-3.45,21.4-3.46-6.24,6.1-14.15,3.8-23.15,8.14,11.35,1.17,18,7.4,27.35,6,7.91-1.2,16.33-1.11,22.53,6.75-1,.41-1.78.76-2.57,1-4.28,1.37-11-3.61-12.6,1.79-1.15,3.87,6,6.27,9.3,9.55a27.57,27.57,0,0,0,11.06,7c8.57,2.57,13.82,7.92,17,16.89a18.44,18.44,0,0,1-12.69-7.09c-4.46-5.45-6.63-3.11-7.66,2.21-1.72,8.83-5.18,17.8,5.39,24.41,4.75,3,2.55,9.2,3.33,14.65-2.52-1.42-4.62-2.45-6.55-3.73-4.2-2.82-7.13-11-13.73-3.65-3.64,4.06-9,6.5-9.19,13.78-.26,8.13-2.05,16.62-9.25,22.41,0-4,.27-8-.08-12-.29-3.17,3-8.08-3.36-8.83a7.21,7.21,0,0,0-8.49,6.91c-.68,8.39-6.19,13.56-11.61,20.88a24.61,24.61,0,0,1,2.6-13.65c1.4-2.82,1.86-5.21-1.23-6.9-2.86-1.57-5.37-.3-7.21,1.93-2.38,2.87-4.38,6.06-6.7,9-3.55,4.48-7.72,7.67-14,5.92a14.3,14.3,0,0,1,5.22-9.5c3.14-2.52,8.1-5.29,4.85-9.33s-8.5-7-14.41-3.15c-7.84,5.16-16.21,6.74-25.4,3,5.85-4.1,12.25-7.15,20.34-7.83-6.81-10.86-20.69-4.05-27.21-14.86,5.73,1.65,10.57,2.85,15.27,4.48,2.51.88,4.73,1.3,6.33-1.08s-.92-3.56-2.09-5c-5.1-6-9.5-12.19-6.48-21.27,8.79,7,7.89,18.83,15.92,27.47.64-5,.94-8.75,1.61-12.38.77-4.16,2.11-8,7.81-8.07-.38,4.13-.07,8.54-1.29,12.48-2.94,9.54-2.67,16.87,10.05,18.28,2.65-6-3.43-12.56.09-19.62,6.19,4.2,11.75,8.18,6.83,16.25-3.77,6.18,1.15,7.89,4.64,8,5.61.2,11.32-1.32,16.91-2.48a2.94,2.94,0,0,0,2.21-3.92c-.36-.82-2.13-1.11-3.31-1.44-.61-.18-1.35.19-2,.13-2.93-.25-6.47.82-8.34-2.24-1.32-2.15,1.25-3.54,2.3-5.14,2.31-3.48,6.75-4.1,9-2.13,16.23,14.43,22.38-2.12,33.11-10-7.69-3.13-16.48,1.41-21-6.8,4.14-3.75,9.32-5.19,14.6-6.24,7.62-1.51,12.13-9.23,9.22-16.3-1.59-3.88-3.75-2.26-5,.07-2.23,4.31-5.78,6.28-12,7.53,3.72-10.64,8-21.49-7-26.51,1.39,4.44,4.18,9.44-.93,14-4.23-2.67-8.94-5.8-7.69-11.59,2.41-11.17-3.41-14.4-12.77-15.14-1.87-.15-3.41-2.6-5.95-.58.83,5.6,8.43,9.35,4.81,16.93-4.1-2.18-8.53-3.49-10.91-8.55-6.81-14.48-7.1-14.48-25.89-11.63,5,3.64,11.68,3,14.32,8.46.67,1.39,2.83,2.19,2,4.19s-2.76,1.52-4.4,1.81c-5.27.94-8.35-2.56-11.12-5.87-7.33-8.77-15.17-8-24.6-1.89,4.79,3.57,10.7,3.65,14.69,8.31-3.77,2.72-7.5,1.4-11.23.5-4.92-1.18-9.83-2.45-14.82-3.26-2.57-.42-6.16-1.47-7.71.8-2.67,3.9,2.78,3.43,3.94,5.48.79,1.41,2.63,2.54,1.28,4.31s-3.46,1.32-5.56.84c-8.1-1.85-14.89-9.62-24.43-5.2-.73,3.47,3.85,4.07,4.53,7.62-10.7,2.69-22.28-2.36-32.88,3.84,2.84,4.12,7.75,4.33,11.14,6.92,1.85,1.41,4.95,1.93,3.89,4.92s-4.12,1.2-6.28,1.43c-4,.44-7.32-1.22-10.13-3.92-7.65-7.32-15.19-4.53-23.72-.37,3.84,5.32,9.22,3.25,13.17,5-3.6,7.58-7.79,9.15-16.68,6.29-10.75-3.46-20.49-1.85-31.51,5.56,5.62,4,13.82-.38,18.17,6.17-12,9.63-27.35-4.82-41.5,7,11.57-.34,17.42,6.57,24.53,11.72-6.5,4-15.27,2.6-24.61-3.68-9.11-6.12-13.55-6-24,1.32,4.22,1.36,7.92,2.21,11.31,3.76s6.24,3.72,10.17,6.14c-6.25,4.82-12,2.38-16.57.14-10.59-5.16-19.68,2.88-29.7,2.42-2.77-.13-3.53,4-.54,6.16,2.67,1.9,5.79,3.19,9.52,5.18-6.21,3.48-12,4.3-16.21-.62-5.9-6.82-12.27-6.57-18.8-2.49-4.37,2.74-12.7,1-13,7.14-.33,5.82,7.71,5.24,11.83,7.8,8.64,5.36,17.68,10.09,26.7,14.79,2,1,3.46,1.92,3.57,4.26Z" transform="translate(-52.24 -77.84)"/><path d="M304.58,681.7c3.25-3.81,6.49-7.63,9.94-11.69-5.68-2.68-5.86,3.87-9.1,5-7.1-10.21,6.11-10.3,7.92-16.54-2.87-1.75-3.91,2.58-6.91,2.29,1.07-5.87,5.87-8.71,9.44-12.51,2-2.11,5.46-4.06,4.38-7.51-1-3.13-5-.47-7.5-2.91,3.1-3.67,6.61-7.19,9.33-11.24,2.41-3.56,11.54-5.6,3.54-12.25,3.85-3.72,7.1-8.7,11.68-10.9,12.77-6.13,17-17.8,20.88-30.2-5.81,11-10.68,22.81-24.73,26.13.16-4,4.14-5.06,5.7-7.63,2.31-3.83,11.46-6.39,2.91-13.67-1.25-1.07,4.2-10.38,6.94-15.66,2.89-5.58,8.1-9.83,9.81-17.16-6.18,1.49-6.14,7.94-11.22,11.88,2-8.33,5.35-14.18,8.94-20,.91-1.48,5.77-5-1-5.83l.25.28c2.25-6.71-1.32-14.41,3.73-20.73,1.08-1.35,1.66-2.94,3.61-2.66,1.6.24,1.73,1.71,2.07,3.08,5.19,21,18.71,37.1,31,54,8.7,12,13,26.56,21.95,38.61a102.18,102.18,0,0,0,11.49,13.32c3.25,3.1,7.48,5.2,2.76,12a13.72,13.72,0,0,1,19.23,6.44c2.44-4.55,4.35-11.85,10.25-3.57a1.73,1.73,0,0,0,3.18-.29c1.09-6.85,7.43-8.25,11.87-9.32,9.82-2.36,8.17-13.37,15.27-17.9,3.18,3.14,3.09,8.38,8,10.84-3.35-12.29,3-21.14,9.37-30,11.79-16.5,23.75-32.88,33.93-50.57,18.23,23.22,20.72,52.71,32.3,78.52s19.7,53.8,25.72,82.43l-4.33-2.67c14.36,19.15,10.39,42.6,13.8,64.6L594.58,718.1c.48,13.56,7.63,24.74,11.43,37.82-7.28-3.63-6-16.33-17.79-14.23l20.6,53.57c3.68-8.9,3.62-9.9-1.16-19.57-3.06-6.18-6.18-12.34-8.8-18.75,14.45,16,24.64,34.59,34,53.74,2.19,4.46-1.19,4.93-2.75,7.12-2.36,3.31-8.92-.68-9.73,7.14-.38,3.65-8.68,6.51-13.44,9.67-5.07,3.36-10.39,6.38-15.21,10.07-3.08,2.35-7.67,1-10,5.9-1.92,4-4.32-.19-5.07-2.3-1.66-4.71,0-10.29-3.83-14.57-.25.31-.85.77-.78,1,5.94,16.53-2.58,24.23-16.31,32-33.28,18.77-65.56,39.31-98.17,59.27-3.65,2.24-6.41,3.59-11.05,1.4C407.29,908.8,369.6,887.66,334,862.64c-8.56-6-11.61-11.86-8-21.88,2.48-6.8,3.28-14.21,3.21-21.74-3.17,10.58-6.33,21.16-9.92,33.13-16.09-13-31.55-25.51-46.92-38.11-1.16-.95-1.64-2.74-2.44-4.14,9-4.24,2-15.73,9.72-21,6.46-4.41,8.8-10.68,7.48-19.21-1-6.39,7.15-9.46,10.7-16.45-7.49,3.27-10.25,9.33-14.93,14-9.26-13.21,10.47-17.12,8.42-27.54-4-1.41-3.66,4.37-8,3.89,4.65-10.19,9.16-20.09,13.71-30.08-2.37-2.91-4.5,3.11-7.47-.22,8.09-5.38,3.22-14.65,6.46-21.9,2-4.44,3.11-9,8.72-10-.89,1.42-1.67,2.91-2.66,4.23-1.42,1.89-3.62,4.11-1.06,6s3.87-1.31,5.63-2.69c5.13-4,10.4-7.86,15.61-11.77-1-1.06-2.08-2.13-3.13-3.19C313.51,674.84,312.24,684.57,304.58,681.7Zm97.9,8.84c-3.4.06-7-1.4-10.72,1.49,3.06-13.73,12.51-25.32,10.2-41.94-5,19.17-11.45,35.65-17.45,52.28-1.4,3.91-1.24,4.46.88,4.37,5.92-.23,7.17,3,6,7.77-.95,3.9-2.16,7.68.56,14.27,4-14.24,5.22-26.95,10.23-38.5,6.39-11.39,7.28-23.94,8-36.53C406.67,665.82,401.94,677.65,402.48,690.54Zm88.81.3c-2.63,22.15-1.92,44,6.43,65-2.54-21.65-2-43.59-6.47-65-3.08-9.18,1.11-19-2-29.52-5.18,13.44-.37,27.56-8.44,39.71-.68-3.54-1.21-6.32-1.74-9.09-10.47,21.14-7.21,43.25-6.93,65.14,5.3-12.42,5.7-25.56,6.82-38.63.84,8.88.68,17.69.87,26.49.39,17.56.46,17.56,6.13,23.26a10.07,10.07,0,0,0,1.81-7.78c-2.88-16.08-1.25-32.36-2.49-48.46C484.63,703.64,487.88,697.45,491.29,690.84Zm57-85c-1.12,33.36-5.36,67.13,7,100-2.93-6.75,4.34-11.83,2.62-17.77-3.38-11.73-1.45-24.27-6.2-35.78a15,15,0,0,1-.19-9.95C556.18,629.66,551.27,618,548.26,605.86Zm-138.5,144c5.33-16.54,27-30.13,7.87-53.19C419.73,716.56,414.55,733.14,409.76,749.87Zm139.17-187.6c6,26.81,7.68,54.32,13.52,81.07C564.77,615.11,556.63,588.67,548.93,562.27ZM540.54,717.1l3.16-.43-14.46-76.41-3,.57C531.44,666.18,533.27,692.14,540.54,717.1Zm-38-59.48c-.88,19.53-.34,38.92,4.64,57.83C510.61,695.64,508.18,676.46,502.5,657.62Zm74,169c-3.86-14-7.71-28-11.72-42.5-2.8,4.66.9,8.4.17,12.42-4.21-2.6-2.23-9-8.43-11.62C559.72,801,565.47,814.77,576.47,826.6ZM377.22,634.83c-4.41,16.93-3.78,32.17-10.2,46,7.59-13.55,16.68-26.22,20.67-41.34-2.9,4.41-5,9.19-9.35,12.54C376.33,647.08,380.55,642.16,377.22,634.83Zm91.95,229.81c2.11-18.42,8-36.82,1.27-55.51C470.63,827.65,466.05,846,469.17,864.64Zm-28.49-48.48c-1.7,12.41-3.56,24.79-5,37.24-.29,2.58,2,2.13,4.45,2.47,4.66.63,2.08-1.78,2.17-3.09.27-4.35.74-8.71.67-13.06C442.87,832,444.92,824.07,440.68,816.16ZM565,758.55c2,16.06,4.08,32.11,12.7,46.37A171.23,171.23,0,0,0,565,758.55ZM446.38,724.83c4.1-14,5.42-28.45,5.32-43.08a2.09,2.09,0,0,0-2.55-2.29c-2,.4-2.25,2.38-2.11,4C448.25,697.28,443.7,710.83,446.38,724.83Zm-85.93-140.1c-9.27,13.16-22,24.6-22.81,42.77,4-1.72,9-6.25,8.15-7.89-4.19-8.12,2.45-12.2,5.18-17.64C353.91,596.13,359.73,591.94,360.45,584.73Zm-6.62,84.79c12.3-14.69,15.54-33.83,25.74-49.56C364.33,633.22,363.81,653.69,353.83,669.52ZM469,694c9.88-10.6,12.21-26.16,6-34.26C470,670.36,471.86,681.61,469,694Zm-175.6,82.44c10.32-13.79,20.39-27.83,27-44C310,746.17,300,760.19,293.44,776.44Zm168-70.62c-2.94,14.47-4.65,29.08-1.81,43.74C461.61,735,461,720.46,461.43,705.82Zm-14.15,162-2.41-.43c-2.58,12.13-5.22,24.25-7.68,36.4-.32,1.6.18,3.62,2.17,4.05,2.17.48,3-1.53,3.2-3C444.24,892.52,445.73,880.18,447.28,867.84Zm94.22-73.32-2.79.18a388.53,388.53,0,0,0,7.57,44.71l3.11-.52ZM330.34,807.05l3.78,1.11c3.95-14,9.76-27.5,12.41-41.91l-2.73-.84ZM434.81,694l3.85,1.25c4.46-11.74,8.33-23.65,10.55-36l-2.36-.71Q440.83,676.26,434.81,694Zm-16.43-13.55c-6,12.08-11.52,24.37-7.62,38.57ZM343.65,807.21l2.56.53a53.48,53.48,0,0,0,5.59-35.39Q347.72,789.78,343.65,807.21Zm88-93c-3.2,7.66-3.56,15.77-5.21,23.58-.36,1.75-.52,3.53,1.51,4.29,3.13,1.16,3.13-1.61,3.71-3.33C434.4,730.7,437.33,722.63,431.69,714.19ZM438.77,741c-6.75,14.81-7.65,22.21-4.26,32C439.5,763.1,441.28,753.42,438.77,741Zm-91.24-97.16c11.18-8,16.63-19.25,18.4-32.55C360.36,622.47,353.51,632.92,347.53,643.86Zm27.71,50.86,2,1.52a104.37,104.37,0,0,0,14.95-40.94Zm136,4.14c-1.5,13.34,1.12,26.18,4.35,38.94C517.76,724.38,513.8,711.71,511.21,698.86Zm84.93,122.21c3-12.91.23-23.75-6.29-29.07C588.77,802.61,594.1,811.42,596.14,821.07Zm-66.33,9.31v36.53C534.27,854.6,531.18,842.65,529.81,830.38Zm8.75-188.54a103.72,103.72,0,0,0-2.89-41.71C534,614.24,536.21,628,538.56,641.84Zm-169.2-96.39-20.87,28.74C358.87,568.14,366.47,557.18,369.36,545.45ZM307.83,832.11c6.95-8.24,11.36-18,14.15-28.45C314.79,811.83,311,821.66,307.83,832.11ZM613.49,790.9c6.4,7.21,6.67,18.26,16.35,27C626.57,805.15,622.41,796.54,613.49,790.9ZM515.35,634.6c-1.12,8.93.52,17.35,3.68,25.48C521.69,650.86,520,642.45,515.35,634.6Zm-120,202.18c4-11.25,9.73-22.36,7.56-35Zm122.76-143,2.57-.51a60.06,60.06,0,0,0-7.62-29Q515.6,679,518.11,693.79Zm-67,216.34h3.45q1.26-13.26,2.53-26.52l-4.22-.44C456.68,892.67,447.83,900.69,451.15,910.13Zm13.23-68.67c.34,12.47-4.42,24.62-1.73,37.12C466.73,866.38,466.23,853.91,464.38,841.46Zm-46.69,32.4c-5.43,7-6.36,13.86-6.37,21,0,.27,2.21.91,2.29.76C417.2,889.32,419.7,882.75,417.69,873.86Zm-78.53-142.4q-3.95,12.24-7.9,24.5C337.69,749.06,342.18,741.5,339.16,731.46Zm111.14-.22c-4.93,5.37-5.86,11.6-4.69,18.68C453.63,745.18,451,737.91,450.3,731.24ZM348,823.82q-3,13.41-6,26.82C348.4,842.65,350.05,833.61,348,823.82Zm239.14-30.48c-1.89-9.25-4.6-18.19-10.44-25.88C578.67,776.67,580.79,785.81,587.16,793.34ZM575,681c-.71-8.09-.84-16.25-5.73-23.15C569.58,666.05,570.24,674.09,575,681ZM349.1,625.32C358,615.91,362,607.2,362,598.71Z" transform="translate(-52.24 -77.84)"/><path d="M376.19,501.58c4.73-14.95,19.68-6.77,29.51-12.84-8.39-3.29-17.33,2.85-24.29-3.9-5.9-5.73-4.76-15.94-15.58-19.76,11.54-3.09,19.9,3,30,2.16-6.17-5.05-12.92-5.06-19.09-6.79-3.37-.95-6.71-.51-5.79-7.36,1.27-9.43-5.35-15.85-15.23-18.43-14.77-3.86-29.21-8.59-40.24-20.19-4.09-4.3-7.4-8.52-7.79-14.87-.3-4.66-1.66-9.41-5.38-12.87-8-7.48-10.1-16.92-10.57-27.57-.44-9.75,4.85-12.25,12.13-10.64,32.31,7.12,62.12,19,82.62,47.06,3.8,5.19,8.12,10,12.38,14.85,3.21,3.65,7.59,2.88,11.34,1.56,3.32-1.18,1-4.41,1.31-6.75,3.77-28.55-18-38.88-36.92-49-26.84-14.3-56.67-19.81-87-21.36-19.32-1-38.57-2.61-58-1.45-22.52,1.33-37.74-12.5-51.58-28.14-24.6-27.8-28.32-70.63-12-101.53a17.49,17.49,0,0,1,2.51-2.68c4,11.71,2.06,23,1.72,34.26-.57,18.43,4.13,34.75,17.6,48.2,3.91,3.89,11.62,6.94,7,15.14,2.92.38,2.41,8.4,8,3.36,2.28-2.07,5.47-2.21,8.61-.75,21.59,10.09,45.23,9.86,68.15,13,10.91,1.48,11.71-.32,7.63-11.07-7.7-20.24-6.33-40.39.37-60.51.48-1.45.62-3.51,3.77-3.57.85,13.59,3.34,27,6.43,40.33,1.78,7.68,5,14.72,8.49,21.7,5.24,10.34,13.12,14.81,25,15.82a273.5,273.5,0,0,1,51.6,9.91c17.1,4.86,24.77,18.69,32.9,32.69-8.26-29-11-57.68,3.24-87.67,2.13,8,1.75,14.48,1.63,20.87-.42,21-.77,41.85,8,61.94,5.61,12.81,15.9,21.75,23.27,33,1.72,2.62,4.25,5.08,3.12,8.18-4.24,11.65,3.47,10.68,10.54,10.22,5.41-.36,10.83-.94,16.2-1.75,15.91-2.4,23.93-15.25,24-31.41.21-34.42-11.31-67.62-9.49-102.08.23-4.26.38-8.52.63-14.05,8.22,5.14,8.13,12.89,9,19.27A132.92,132.92,0,0,0,518.1,317.8c4.52,9.23,6.82,19.07,8,29.23.51,4.23,0,7.81-3.34,11.09a36.5,36.5,0,0,0-7.07,10.79c8.93-4.72,14.89-13,23.16-18.43,16.28-10.76,34-18.35,53-21.15,16.92-2.5,33.22,4.71,49.68,8.37,14.36,3.19,28.5,7.65,43.68,5.61,9.05-1.22,15.66-5.45,21.12-12.33C717.27,317.27,724,301.54,729,285c.57-1.88,1.51-3.64,3.08-7.35.12,20-1.63,37.08-9.12,54.31C712.47,356,676,373.75,649.47,364.49c-17.72-6.18-36.26-7.31-55.18-5.81-22.55,1.79-38.59,15.11-55,28.14-2.24,1.78-3.25,5-1.41,7.4,4.54,5.81,2.09,11.42,0,17.89-5.56-5.68-11.56-10.59-20.44-11.05,17.66,2.61,10,20.59,18.07,28.72,3.52-1.37.34-4.46,2.23-6.55,7.82,4.42-4.3,15.94,8.05,18.67-3.67-11.65,3.78-16.35,12.61-21.66,11-6.59,18.68-17.73,30.2-23.93,14.44-7.78,30.83-9.63,46-15.29,9.41-3.52,18.28-8.28,29.15-7.36,9,.76,11.16,5,9.73,12.59-6.73,36-40.3,69.18-78.07,66.8-11.83-.74-22.84,1.25-32.87,8.27-5.62,3.93-11.53,6.91-19.44,4.32-4.44-1.45-10.7-1.84-15.42,3.22,7,2.74,13.88-.33,20.39,2.36,9.38,3.89,10,6,4.63,13.72-5.68,8.12-12,11.36-21.3,6.69a14.23,14.23,0,0,0-10.3-1.44c.17,3.9,7.77,5.1,4,10.48-.72,1.05.81,3.83,2.62,3.6,4.19-.55,2.3-5.6,5-7.95,4.41,3.34.72,8.48,3.66,13.1,0-8.95,2.67-14,11.46-9.77,2.15,33.23-23.16,53.74-37.7,80.41-5.68-8,.38-13.91.57-21,2.27,2.24,1.6,5.73,5.05,5.59,2.71-3,.09-6.1-1-8.2-7.8-15.11-16.14-29.92-35.24-36,1,6,3.25,10.79,1.61,16.6l-4.23-12.78c-2.7,4.38-.9,8.35-1.37,12-.25,1.95.08,4.31-2.86,4.47-1.31.07-3,.41-3.85-.26-2.17-1.8-.05-3.56.64-5.3,2.76-7,4.81-14,1.27-21.6-1.26,6.7-2.52,13.4-4,21.22l-7.84-7.45c-3.71,2.87-2.57,8.52-5.87,11.58-4.09-2.1-.28-10.58-8.41-9.24-.83.14,1.12-5.92,3.54-8.07,2.17-1.94,3.08-3.61,1.06-5.93-1.81-2.09-3.46-.66-5.32.31-5.18,2.7-11.1,4-14.91,8.69-3.84-3,1.63-6.11-2.77-10.51-3.8,15.27-14.73,25.59-20.47,38.81-2,4.61-.32,10.81-.32,16.54-14.28-9.5-14.15-22.39-8.63-36.82-5.33,4.3-5.29,10.21-7.69,15-11.59-12.86-10.9-12.29.71-26.32,6.62-8,14.27-16.18,16.05-29.88-5.73,8.49-9,16.94-15.13,21.45C383.76,518,381.3,524.79,377,531.2c-.2-14.43,13-23.05,16.86-39.1-9,10-14.55,19-20.55,28.07l3.13-18.88ZM336.33,385.77c-6.85,2.14-11.35-4.36-17.74-4.7a24.26,24.26,0,0,0,13.2,9.24,54.36,54.36,0,0,1,19.93,11.53c5.71,5,3.58,7-4.18,6.87,8.16,4.05,13,12.06,23,9.52-4.55-3.74-12.15-7-12.31-10.66-.66-14.57-11.58-17.86-21.39-22.89l-1,.62ZM601,428.36c-1.09,2.65-4,2.2-5.82,3.4-3.37,2.14-11-1.81-10.25,4.56.57,5.19,7.49,4.66,12.22,4.76,1.82,0,4,.94,5.49-.92-.39-3.42-4.63-2-5.77-4.94,9.71,1.81,16.56-5.69,25.5-6.29-7.53-4.65-14.54.35-21.69-.27-1.15-.68-2.28-1.38-3.43-2.05-.29-.17-.79-.17-.9-.39s.16-.61.33-1.12a131.31,131.31,0,0,0,31.22-5.21c-4-2.6-7.87.18-11-2.55,12.27-3,12.14-3.16,18.74-9.49,2.62-2.52,5.94-4.3,8.94-6.42-11,.85-17.49,11.81-28.82,12,2-4.89,8.51-5.18,10-10.1-17.95-.43-26.34,13.39-38.8,25.6C593.25,428.69,597.14,428.51,601,428.36Zm-89.93-7.31c.44,14.65,5.17,34.9,9.67,41,4.57-8.66-5.75-17.56.43-25.67,3.42.86,2.14,6.66,7.09,6.18,2.57-5.73-2-9.59-3.78-14.08-.71-1.78-2.23-3.95-4.53-3.35-3.76,1,1.65,4.35-1.05,5.91C515.3,428.48,516.46,422.27,511.08,421.05Zm4.38,53.88c1.69-9.18-3.16-14.2-3.47-20.24-.13-2.45-1.3-5.54-4.13-6.45-1.66-.54-3.83,1.45-3.26,2.83,1.7,4.11-7.21,6.12-2,10.18A63,63,0,0,1,515.46,474.93Zm-94.77-42.07C413.45,443,410,455.19,401.76,464.8,416.31,458.88,418.93,446.08,420.69,432.86ZM496,521.35c9.61,8.13,12.84,21.32,22.73,30.5C517.82,539.38,503.24,520.6,496,521.35ZM390.92,461.17c1.3-1.86,2.61-5.34,3.9-5.33,10.3,0,11.36-9.79,16.68-15,1.29-1.25,1.65-3-.12-4.35-.74-.56-1.92-1.48-2.51-.13C404.61,446.06,393.67,450.26,390.92,461.17Zm25.18-2.55c-9.82,10.56,5.89,20.25-1.44,29.63C426,478.93,416.94,469.33,416.1,458.62Zm95.52,26.87c1.27-9.25-5.22-17.74-17.36-23.22C498.12,472.33,507.73,476.73,511.62,485.49Zm-16.18-10.76c-.11,7,1.33,13.26,9.33,18C503,484.79,500.63,479.09,495.44,474.73Zm-96.71,70.71c2.49-4.84,14.85-6.37,5.67-15.94A31.33,31.33,0,0,0,398.73,545.44Z" transform="translate(-52.24 -77.84)"/><path d="M127.89,847.59c-2.92-8.08,2.7-11.17,6.63-15.05,1.47-1.45,3.22-2.88,2.21-5.18-1.26-2.87-3.46-1-5.21-.57-3.58.9-7.08,2.13-10.66,3-8.94,2.25-10.26,7.63-6.06,15,2.45,4.29,4.39,8.37,1.25,13.13-1.18,1.8-2.46.83-3.26,0-3.52-3.58-7.44-7-4.56-13,.74-1.57,1-4.62-1.57-5-1.62-.28-4,1-5.3,2.31-6.48,6.31-6.25,12.57-.45,19.63,3.17,3.85,5.36,8.5,8.22,13.17-4.1,1.92-6.1-.93-7.43-3.13-2.22-3.65-3.92-3.54-7-1-2.88,2.46-3.53,4.57-1.36,7.77,3.13,4.58,8.16,5.73,12.78,7.75,3.94,1.71,8.6,2.31,11.12,6.58-.51.46-.88,1-1.37,1.17-5.1,1.73-11.74-7.07-14.43-.56-2.49,6,7.8,9.61,9.15,16.58.36,1.89,6.17-.67,9.76,2.17-6.49,2.11-14,3.48-9.78,13.25-6.38-1.51-8.31-6.83-7.83-10.26,1.41-10.21-6.17-16.65-8.82-25-1.72-5.48-5-6.87-9.13-1.08-2.71,3.8-6.42,6.9-10.49,11.15-.55-14,14.18-20.48,14.16-34.11-9.27.51-15.29,9.31-24.73,7.05,4.68-6.35,10.66-10.51,17.28-14a40.87,40.87,0,0,0,7.45-5.15c2.58-2.24,2.35-5.62,1.82-8.48-.77-4.12-4.88,1.61-6.32-1.62,2.63-3.79,6.81-2.3,10.26-3,3.19-.69,6.4-1.62,7.32-4.73,1.15-3.92-3-4.56-5.23-6.37s-6.25-1.62-6.24-6.06c3.9-1.06,7.85-1.36,11.66.12,12.56,4.87,23.59,4.42,34.1-5.81,2.51-2.44,10.27-.4,15.12,2.46,11.11,6.56,24,2.67,36.55,7.94-1.47-6-7-6.85-6.62-11.93,8.32,3.29,13.58,9.77,18.87,16.22,1.49,1.81,2.65,4.55,4.55,5.25,4.38,1.61,7.87,7.39,13.64,3.51s-2-7.52.42-12.14A30.27,30.27,0,0,1,229.83,841c5.69,9.41,20.68,17.08,32.87,16.08l-3.23-6.49c1.41-.19,2.57-.74,3.21-.38,3.21,1.82,7.9,3.17,9.13,6,4.48,10.22,13.85,13.14,22.65,17.06,4,1.79,7.64,5,11.68-1.55,3.39-5.52,7-.18,9.42,2.74,10.78,13.22,26.75,17.82,41.54,24.48-7.85-5.13-15.44-10.73-23.63-15.23a74.77,74.77,0,0,1-16-12.3c-3.08-3-5.75-6.72-11.3-4.47-4.1,1.67-6.91-2-9.65-4.24-32.46-26.29-71.49-40.81-107.89-60-9.94-5.24-21.17-7-31.39,1.45-1.76,1.44-4.49,3.5-7.48,1.34-.83-3.7,3.4-4.69,4.37-8.34-7.83,1.82-12.63,8.76-20.38,11-1.73-3.66,3.29-5,2.56-8.11-7.29,0-10.33,9.42-18,8.55-1.08-3.65,3-4.53,3-7.89-5.91,1.21-9.77,7.07-16.4,7.81,1-2.66,1.77-4.67,3-8-3,1.28-4.75,2.05-6.54,2.8-3.31,1.38-6.77,5.22-10.16,2.26-3.06-2.68,3.05-5.32,1.31-9.94-8.89,10.43-17.21-2.07-26.72.65,1.22-10.56,7.56-7.24,12-4.87,5.32,2.84,8.47,3.12,10.52-3.32,1.51-4.72,4.82-3.84,8-1.7,3.58,2.41,7.06,4.95,10.71,7.53,2.84-3.33-4.2-8.4,1.43-10.55,7.46-2.85,9.35,6.62,15.19,7.77,2.3-9.55,3.84-10,11-3.6,3.11,2.79,6.7,9.65,8.77-1.12.73-3.77,4.28-3.43,8-1.3a96.66,96.66,0,0,0,19.34,8.68c2.82.88,6,3.23,10,.51-30.68-6-50.33-35.73-82.93-36.27-.12-3.91,4.5-3.12,3.73-6.94-5.36-.32-11.14.24-16-3.06,1.13-5.07,7.5-.15,9.14-5.56-2.24-2.25-5.3-1.6-7.76-.49-4,1.83-7.29-.28-10.76-1.34-2.34-.72-4.76-2.06-4.24-4.91.75-4.07,3.53-1.44,5.59-1.27,2.45.19,5.32,1.85,7.5-2.34-6.32-1.53-12.1-3.79-17.1-7.61-1.75-1.33-5-1.79-3.57-5,1.08-2.49,3.62-2.78,6.12-2.59l10.28.74c-4.83-4.51-9.9-4.56-14.65-5.88-3.57-1-8.52-2.49-8.51-7.4,0-5.23,5-3.2,7.9-3.93,4.48-1.12,8.63-2.36,7.48-10-3.3,5.21-7.38,6.21-12.25,5.5-7.69-1.12-9.66-6.4-5.72-11.42,5.34-6.81,1.25-10.36-2.68-14.79,11.63.38,12.16,1.09,9.85,12.82,4.09-.16,5.88-8.78,6.92-5.92,2.15,5.87,11.4,2.69,10.73,11-.49,6,6.62,11.31,3.61,18.37,10.86-.61,3.29,6.73,4.41,10.31a17.58,17.58,0,0,1,.38,3c4,.77,2.72-7.23,7-4.52,5.06,3.22,1.1,8.64,1.35,14.26,12.11-6.72,12.07.51,11.48,8.69-.3,4,0,8.11,0,12.44,1.22-.48,2-.53,2.32-.94,2.63-3.42.57-11.27,4.56-11,6.78.38,3.76,8.3,4.83,12.65,1.27,5.15,3.17,8.36,7.75,10.82,29.2,15.64,58.85,30.56,87.28,47.51,23.2,13.82,46.82,26.78,70.41,39.85,2.24,1.24,4.38,3.21,8,2.35C281.33,839,267,830.59,254.91,819.58c-27.84-25.42-56.51-50.11-81.12-78.73-11.07-12.86-25.47-17.19-40.06-22.27-8-2.77-16-5.16-23.53-9.29-4.94-2.72-7.49-6.29-5.09-11.45s7.64-4.14,11.65-2.62c11.13,4.23,20.81,11.27,31.12,17.09,1.54.88,3.3,3.11,5.31.92,1.41-1.53.61-3.4-.69-4.51-12.89-11-19.64-27.5-34.5-37-13.15-8.37-27.87-11.86-42.27-16.54-7.15-2.32-14.22-4.64-19.54-11.83,16.62,5.5,34.71.87,49.84,12C85.88,621.05,65.57,587.6,53,550.28c13,24.77,23.35,50.86,39.75,74.58,4.35-5.16.32-9.56-1.28-13.1-8.14-18-12.7-37-16.83-56.16-.58-2.72-1.85-5.67.67-7.48s5.21.28,7.65,1.38c5,2.24,7.5,6.32,9,11.54,3.78,13.47,6.39,27,6,41.12-.77,28.66,14.68,50.09,33.36,70.16-3.28-9.05-6.5-18.11-9.85-27.13-4.58-12.36-7.17-25.19-8.92-38.18-.85-6.3,1.81-12.58,8-13.54,6.71-1,12,3.28,14,10.5,3.29,11.92,3.5,24.25,3.71,36.35A227.47,227.47,0,0,0,143,683.7c3.19,15,14.51,26.44,23,39,3.38,5,7.87,9.31,11.95,13.84,1.86,2.07,4.29,4.15,7,2.09,2.45-1.87.41-4.37-.56-6.43-4.85-10.26-7.89-20.91-6.6-32.37.29-2.58-1.88-6.5,3.06-7.27,4.16-.66,6.49,1.81,7.87,5.06a65.54,65.54,0,0,1,4.81,25.87c-.08,21.26,7.07,38.22,23.73,52.43,48.48,41.34,97,82.57,150.85,116.91,25.33,16.14,52.76,28.25,80,41.75-4.85,4-8.93,6.42-16.05,3.61-8.55-3.37-17.18-.21-25.25,4.32-3.84,2.15-8.19,5.45-13.2,2.76a3.92,3.92,0,0,1-1.43-5.4c2.93-4.3,8.08-1.85,12.07-3.18,1.26-.42,2.71-.2,4-.45,2.23-.41,5.31,0,6-2.69.81-3.32-2.47-4.91-4.64-5.92-8.2-3.85-16.7-1.67-24.95,0a50,50,0,0,1-11.07,1.11c-2.95,0-5.58-.56-5.53-4.32s2.87-3.12,5.16-3.17c4.08-.08,8.18.16,12.24-.16,2.06-.16,4.66,3.53,6-.2,1-2.86.6-6.11-2.6-8-8.84-5.3-17.68-10.6-27-15.16,6,8.46,16.91,10.18,25.38,19.22-7-2.7-12-4.22-16.69-6.53-13.13-6.5-26.33-9.91-40.81-4.15-4.35,1.73-9.29,1.35-13.38-3.59,3.61-2.72,7.32-1.86,10.73-2.1s6.82-.73,8.37-4.51c.57-1.41.34-3-1.09-3.39-3.42-.85-6.54-3.39-10.54-.65-5.6,3.85-11.7,6.84-18.89,6.52-2.68-.12-5.91.87-6.43-3-.58-4.3,3.7-3,5.74-4.13,1.37-.78,3.31-.47,4.95-.83,2.41-.52,6.68,1.12,6.7-2.36,0-3.84-4.41-5.09-7.58-4.77A125.72,125.72,0,0,0,289.6,887a28.51,28.51,0,0,1-10.08.76c-4.21-.41-6.06-3.41-5.38-7.11.72-3.93,4.48-2.38,6.76-2,4.93.74,9.72,3,14.9.58-8.6-8.36-22.68-9.83-31.7-3.49a31.48,31.48,0,0,1-5.17,3.2c-2.19,1-5.15,1.73-6.43-.69-1.56-3,1.89-4,3.66-5,3.2-1.81,8.31-2.82,6.84-7.28-1.29-3.89-6.45-4.24-10.46-4.22-4.34,0-8.62-.72-13,1-12.87,5-13,4.82-27.48,1.77,8.77-9.39,20-5.22,31.8-7.6-9.52-6.18-19.31-6.27-27.9-9.42-9.64-3.53-17.09,7.18-26.53,4.31,2-4.21,10.7-7.9,7.31-12.31-3.95-5.15-12.44-3.41-19-1.72-5.22,1.32-10.23,3.47-15.45,4.78-2.33.59-6.13,2.08-7.11-.87-1.24-3.76,3.12-4.5,5.57-5.92,4.32-2.5,10-1.14,14.1-4.43C152.74,817.48,142.51,838.89,127.89,847.59Z" transform="translate(-52.24 -77.84)"/><path d="M584.41,326.28c28.13-13.93,53.33-30.93,68-61.78,2.15,11.06-1.77,19.42-4.07,28-.72,2.67-2.22,5.79-.15,7.67,2.56,2.33,4.89-.61,6.91-2.21C674,283,696.73,275.46,718.4,266.25c19.45-8.27,26.76-22.42,27.08-41.83.16-10.41,1.26-20.92-.72-31.42,8.14,12.77,11.21,27.05,12.52,42.31,8.07-26.73,26.1-50.4,24.81-80-.51-11.47-2.48-22.9-4.36-34.26-1.19-7.18-.33-14.07,1-22.19a108.6,108.6,0,0,1,12.88,42c.88,9.82,3,19.44,3.63,29.2,1.2,17.77-1,34.68-11.88,50-9.34,13.12-19.1,25.41-33,33.91-1.28.78-2,2.49-4.63,5.91,31-17.43,52.11-40.54,62.4-71.55,4-12,4.37-25.86,5.07-39.1.91-17.42,2.14-35.13,15.56-49.2-3.4,30-3,60.28-8.72,90.81,17.67-8,23-27.26,36.69-38.61-20.35,61.35-60.79,105-117.91,134.15-.67-.74-1.27-1.11-1.42-1.61-1.18-4.13,2.39-11-4.55-11.7-6-.62-7.24,5.94-7.95,10.2-2.18,13.11-12.24,17.71-22.45,22.3a350.94,350.94,0,0,0-49.86,27,9.12,9.12,0,0,1-8.46,1.21c-9.74-2.73-19.7-4.7-29.55-7.08S594.54,323.57,584.41,326.28Z" transform="translate(-52.24 -77.84)"/><path d="M161.93,201.05c-2.76-4.63-4.64-10.21-8.44-13.72-9.38-8.67-10.86-19-10.53-31,.59-22.27-5-44.73,2.38-66.76,1.32-4,1.22-8.74,6.46-11.69,2.26,8.35,1.76,16.45.57,24.18-3.56,23.13,3,44.76,11.84,65,4.13,9.52,12.45,18.9,21.58,25.9,5,3.83,8.66,3.72,11.23-3.47,8.27-23.17,19.07-45.44,24.1-69.74.33-1.57,1.44-3,2.37-4.82,6.43,16.37-.06,31.82-4.51,46.12-9.74,31.28,2.49,55.33,20.55,78.45,6.05,7.75,11.83,16.11,19.3,22.28,14.56,12,20.94,27.37,22.09,45.53-15.29,3.15-24.09-8.33-33.83-17A143.27,143.27,0,0,1,228,269.1a124.44,124.44,0,0,0-46.9-38c-4-1.92-5.42-4.33-5.27-8.62.21-6.11-.05-12.24-.32-18.35-.2-4.63-1.51-9.4-6.24-10.79-5.76-1.69-4.82,5.12-7.58,7.44Z" transform="translate(-52.24 -77.84)"/><path d="M606.63,861.88c12-10.13,26.53-15.6,40.82-20.91,8.88-3.31,16.78-8.35,25.56-11.58,7.78-2.87,16.29-.71,24.17-5.68,27-17,54.25-33.44,72.72-60.63,1.45-2.14,2.54-4.5,5-6.24,8.37-6,9.28-5.9,12.57,3.62,4.83-3.28,1.64-9.07,4.17-13.14,1.73-2.78,1.82-7.53,5.68-7.69,4.55-.18,5.33,4.27,5.33,8.43,7.4-4,1.89-24.24,19.64-13.68a28.75,28.75,0,0,1,5.83-15c1.71-2.22,1.47-6.76,5.69-6.08,3.86.62.34,5.7,4.28,7.69,2.08-5.68,5.07-11,5.87-16.66,1.13-8.06,11.37-4,12.76-13,3.08,14.42-14.7,21.46-7.66,34.4-3.93,1.85-7.49.17-13.15-.9,3.92,4.88,6.36,8.37,5.34,12.67-1.63,6.85-7.89,1.3-11.45,4.6,3.19,6.56,5.13,12.87-6.7,7.66-2.08-.91-5-.18-4,2.41,3.73,9.46-3.29,6.84-7.74,7.52s-8.89,1.74-13.42,2.65c.48,1.36.64,2.48.92,2.51,4.56.48,11.54-2.22,11.34,5.58-.17,6.69-7.46,5.51-12,7-1.78.58-4.1,0-6-.51-22.39-6.3-34.26,10.43-49.76,21,6.2,5,16.11-9.58,18.84,5.22,2.81-3.18,8.13-3,12.14-6.23,6-4.82,7.48-1.1,5.65,6,5.71-3.06,7.25-11.45,14.66-8,4.94,2.3.2,5.87.45,6.81,8.17,3.26,17.24-3.06,23.05,6.86a8.49,8.49,0,0,0,7.72,4.2c2.7-.09,5.45.17,7.74,4.14-11.72,2.85-23,1.21-34.15,0-2.35-.26-4.18-3.33-7.14-.73-6.81,6-8.43.5-10-4.77-10,10.21-12,10.07-17.59-1.66-4.46,2.53-4.52,10.79-10.69,9.88-5.13-.75-7.42-6.33-11.77-12.32,1.86,16.36-5.94,14-14.48,10.16-4.4-2-8.2-.8-12.43,1.21-35,16.7-71.42,30-107.95,43Z" transform="translate(-52.24 -77.84)"/><path d="M438,577.22c3.05-2.74,4.43-6.31,3.21-10.27A17.74,17.74,0,0,0,429.73,555c-2.45-.89-7.18,2.11-7-2.87.1-3.36,4.57-3.31,7.21-4.51,5.34-2.45,10.79-2.25,16.61-1.36,12.3,1.9,24.67,1.27,37-.66a17.74,17.74,0,0,1,10,1.15c2.31,1,4.33,1.55,4.24,4.65-.09,2.84-2.11,2.87-4.06,3.51-11.76,3.84-16.18,9.61-13.19,20.86,1.79,6.71-2.76,7.12-5.62,9.88-2,2-6.65,2.09-5.65,6.19,1.25,5.09,6.51,2.78,9.58,3.49,3.61.84,8.31-2.77,10.66,2.63-24.12,2.5-48.35,6.39-69.17-11.9,6.1,1.89,11.8,3.61,17.47,5.42,3.58,1.15,7.33,1.07,9-2.4,1.74-3.63-3.15-3.52-4.57-5.54s-4.84-2.93-4-6.43Z" transform="translate(-52.24 -77.84)"/><path d="M569.74,938c27.18-8.75,54.35-17.28,81.81-1.47a40.79,40.79,0,0,1,9.65,7.24c2.89,3.12,6.1,6.8,2.74,11.72-3.18,4.65-7.33,5.16-12.51,3.79-12.47-3.29-23.81-9.41-35.71-14.11C600.85,939.32,585.54,937.8,569.74,938Z" transform="translate(-52.24 -77.84)"/><path d="M326.24,932.53c-20.9-4.82-39,4-57.46,10.27-10.59,3.6-21.18,7.06-32.25,8.83-4.4.7-9.87,1.64-11.15-3.78-1.14-4.84.59-10.32,5.85-12.85,22.38-10.76,45.51-17.23,70.5-10.75C310.12,926.42,319,927.34,326.24,932.53Z" transform="translate(-52.24 -77.84)"/><path d="M161.7,200.74a45.69,45.69,0,0,0-5.86,16.91c-1.52-.38-2.42-.33-2.62-.69-12-21.14-33-32.27-51.53-46.19-8.82-6.65-15.92-14.52-16.64-27,3.54.13,5.25,1.65,7.22,4.25,8.93,11.76,20.29,20.5,34.54,24.89,15.46,4.76,23.1,19.09,35.1,28.12Z" transform="translate(-52.24 -77.84)"/><path d="M194.75,782.62c-40.43-15.82-61.83-30.46-61.15-47.06C162.7,740.22,172.76,769.3,194.75,782.62Z" transform="translate(-52.24 -77.84)"/><path d="M708.14,794.52c21-17.92,32.4-47.14,62.94-54-6.14,16.62-16.41,28.06-32.61,35.09C727.66,780.27,718.21,788.09,708.14,794.52Z" transform="translate(-52.24 -77.84)"/><path d="M717.84,866.27a113.28,113.28,0,0,1,42.8-.17c6.91,1.29,13.56,3.77,17.48,10.61,1.44,2.51,2.8,5.32,1.16,7.43-.9,1.16-4.54,1.15-6.47.42-10.65-4-21.13-8.43-31.71-12.61A78.81,78.81,0,0,0,717.84,866.27Z" transform="translate(-52.24 -77.84)"/><path d="M140.74,914.38c6-5.73,3.13-17.07,13-20.61,5.73,10.21-5.19,13.57-8.41,20.66,18.2-.25,17.76-25.77,36.27-26-2.61,8.91-7.9,14.36-15.33,18.35-10.28,5.54-10.29,7.29.09,14.11-9.79,2.57-18.3,4.29-25.56-3.82Z" transform="translate(-52.24 -77.84)"/><path d="M178.83,869.28c-13.6,2.16-27.18,4.47-40.82,6.37-3.51.49-8.23.91-9.16-4s2.73-6.32,6.88-8.19C151.48,856.34,164.87,864.24,178.83,869.28Z" transform="translate(-52.24 -77.84)"/><path d="M180.7,178.46c-11.52-9.69-8.3-25.92,9.47-45.37Z" transform="translate(-52.24 -77.84)"/><path d="M140.74,914.38l.08,2.68c-7.56,2.62-12.88,6-3.89,14.76-7.35-3.51-15.24-4.92-15.83-13.94-.42-6.37,9.28-18.44,16-20.76.43,3.91-5.43,3.56-5,7.69.38,3.48-5.84,5.91-2.59,9.8S137,915.28,140.74,914.38Z" transform="translate(-52.24 -77.84)"/><path d="M376.44,501.29c-2.16,2.06-5.12,3.28-6.19,8.5-5.36-12,0-21.23-.09-31.56,6.83,4.59,4.22,9.83,2.16,14.54,4.38,1.05,3.67-4.42,7.13-3.24.1,4.33-4.88,7.37-3.28,12.08Z" transform="translate(-52.24 -77.84)"/><path d="M606.46,861.67c-8,7.86-18.63,11.59-27.93,17.38-5.95,3.69-12.5,6.49-18.07,10.86-1.69,1.33-3.24,1-4.24-.49-.8-1.23-.13-2.17,1.48-2.85,16.88-7.1,31.66-18.35,48.93-24.69Z" transform="translate(-52.24 -77.84)"/><path d="M438.18,577.14c-7-.36-11.4-4.93-15.71-9.67-2.05-2.26-1.3-4.43.43-6.3,2.06-2.22,3.49.39,5.19,1,7.31,2.43,4.3,11.57,9.89,15.11Z" transform="translate(-52.24 -77.84)"/><path d="M355.57,531.25c-1.55,6.27-8.8,9.29-8.86,18.09-4.35-8,.67-13,2.11-18.13,1.12-4.05,4.48,1.52,7,.3Z" transform="translate(-52.24 -77.84)"/><path d="M494.39,562.35c-1.58,5.6-1,11.26-7.78,14.53C485.91,570.15,485.77,564.69,494.39,562.35Z" transform="translate(-52.24 -77.84)"/></svg>