<svg id="Layer_1" data-name="Layer 1" xmlns="http://www.w3.org/2000/svg" viewBox="0 0 727.5 963.01"><title>zebra</title><path d="M623.7,984.76c.48-.81,1-2.34,1.44-2.32,5.21.2,3.27-3.37,3.41-6,.41-7.63,3-14.74,5.39-21.91a139.77,139.77,0,0,0,4.33-14.45c.8-3.72-.1-6.8-1.41-10-2.68-6.52-5.28-13.2-6.21-20.1a28.25,28.25,0,0,1,4.15-18.16c3.52-5.89,5.74-11.78,4.31-19.19-1.09-5.66.93-11.86.39-17.71a263.63,263.63,0,0,1-.58-26.5c.13-14.27.51-28.56,2.44-44,3,5.58,3.19,10.63,3.06,15.31-.34,11.18-.91,22.33-.71,33.53.22,12.48.24,25-.22,37.46-.28,7.58-.29,15.18,1.6,22.39,1,3.73,1.68,9.51,8.22,9.25,1.2-.05,1.67,1.56,1.62,2.54-.16,3.29,1.46,3.53,4.14,3.05,2.14-.39,4.39.14,6.55-.6.61-.2,1.66.82,1.93-.37.89-4,2.27-2.56,3.53-.31.56,1,1.17,1.48,2.2,1.19s.59-1.28.83-2c1.24-3.53,1-7.16.89-10.78,0-.32-.14-.72,0-.94,2-2.89-4.35.63-2.49-3.41,1-2.07-3.08-1.82-5.11-2.15-4.8-.77-9.31,1.46-14.08,1.22-3.38-.18-5.34-1.51-5.86-4.83-.62-3.94,2.28-4.15,4.95-4.76,5.14-1.18,10.36-.72,15.55-1,5.94-.26,7-1.49,7.18-7.34.16-5-1-10.05.67-15,.83-2.46-.93-3.5-3.21-3.31-6.68.56-13.33-1.13-20-.21-2.24.31-5,.34-5.12-3.23s2.23-3.88,5-4.11c6.44-.51,12.89-1,19.27-2,3.25-.5,7-1.65,3.93-6.42-.69-1.08-.2-2,0-3.11,1.23-5.85-.65-8.21-6.82-8.41-5.06-.16-10.14.16-15.18-.11-1.94-.11-4.88.28-5.18-2.85s2.35-3,4.46-3.73a109.18,109.18,0,0,1,20.66-4.6c4.68-.61,6.18-3.11,6.11-7.7-.1-6.77-.18-13.56,1.37-20.28,1.64-7.07-1.41-10.3-8.7-8.8-5.18,1.06-10.37,0-15.53,1.14-2.43.55-4.63-1.41-4.71-4.2-.09-3.33,2.71-1.79,4.24-2,7.21-.74,14.45-1.17,21.66-1.93,5.16-.54,10.23-5.58,11.06-10.58.49-2.93-2.23-4.81-6.46-4.68a288.64,288.64,0,0,0-29.09,1.85,19.88,19.88,0,0,1-3.78,0c-2-.14-2.52-1.8-2.73-3.35s.83-2.13,2.21-2.59a118.66,118.66,0,0,1,32.7-6.29c7.62-.3,12-4.51,13.06-12.11.47-3.51.54-7.15,2.18-10.54,1.94-4-2.2-11.71-6.72-12.46-5.26-.88-10.62-.73-16-.88-6.45-.18-12.66,2.15-19.12,1.05-1.45-.25-3.1.34-4.59.77a19.27,19.27,0,0,1-9.32.46c11.22-9.43,24-14,38.3-14.81,4.09-.24,8.17-.7,12.26-.93a5.65,5.65,0,0,0,5.49-4.42,84.16,84.16,0,0,0,3.17-12.79,45.56,45.56,0,0,1,3.72-13.12c2.39-5.16.55-8.53-5-9.63a121.86,121.86,0,0,0-25.94-1.78c-9,.16-18-.17-27,.75-5.21.53-9.95,3.72-15.56,2.6-.48-.1-2.84,2.11-5,1.7-.66-.13-1.27-.16-1.35-1s.49-1,1.11-1.22c13.78-5.75,26.81-13.74,42.16-14.91,12-.91,24-1.53,36-1.28,7,.14,10-2.6,10-9.43a53,53,0,0,1,3.21-17.11c2-5.67.36-8.35-5.6-9.64-20-4.32-40.18-6.6-60.66-5.62-5,.25-10.05.61-15.07.84-1.76.09-4.09,1.11-4.57-1.78-.39-2.34.68-3,3.15-4,7.32-2.81,14.55-5.73,22.23-7.43,9.09-2,18.12-1,27.19.25,7.28,1,14.58,2.19,21.91,2.49,6.09.25,11.31-3.31,16.3-6.34,3.54-2.15,6.6-17.19,4.72-20.65s-6.14-4.82-9.36-5.83c-14.26-4.47-25.66-13.82-38.23-21.15-8.43-4.9-17.63-6.85-27.24-7.94a47.5,47.5,0,0,1-17.18-5.6c3.39-3.43,7.83-3.73,11.62-5.19,16.68-6.43,31.31-2.33,44.28,9.42,9.61,8.7,21.38,8,33.06,7,3.13-.26,5.22-2.31,6.38-5.57a71.47,71.47,0,0,0,3.93-17c.21-2.23.36-4.87,2.1-6.61,2.7-2.72,1.6-4.52-1.23-5.7-12.17-5.09-21.49-14.24-31.61-22.21-4.06-3.21-8.8-4.9-13.29-7.14-3.1-1.55-5.73-3.39-7-6.54a3,3,0,0,0-4.17-1.93c-4.7,1.54-8.08-1.13-11.65-3.23-9.61-5.65-17.83-13.48-28.18-18-1.28-.55-3-1.41-2.9-2.81s2.05-1.59,3.34-2c5-1.52,10.08-.57,15.09-.51a61,61,0,0,1,15.83,2c9.24,2.62,18.9,2.86,28.07,5.54,2.51.73,7.16.37,5.24,6,2.51-3.21,5.06-2.82,8.59-1.92,13.47,3.44,27.11,5.92,40.65,0,1.13-.5,2.47-.51,3.63-.95,1.38-.53,2.72-2.39,4.16-.74a6.57,6.57,0,0,1,1.62,5.72c-1.74,8.46-3.29,16.95-6.54,25.06-1.85,4.64-2.82,9.64-3.93,14.54-.8,3.56,1.85,5.8,4.35,7.15,1.94,1.05,2.44-1.68,3.29-3.1,2.27-3.79,6.16-6.16,8.42-10.1,3.27-5.69,6.09-11.92,12.3-15.31-1.91-4.92,5.68-3.87,5-7.6-1-4.84,3.07-7.77,3.84-11.87s1.88-8,2.19-12.11a75.08,75.08,0,0,1,3.26-18,71.27,71.27,0,0,0,4-21.85c.27-15,2.9-30.07-.15-44.91-1.82-8.87-1.57-18.14-5.1-26.7-.76-1.86-1.44-3.95.72-6,1.58-1.51.07-3.85-.39-5.78a1,1,0,0,0-.63-.58c-3.08-.86-5.44-3.94-5.76-7.95-.55-7-2.29-13.44-6.54-19.22-1.71-2.32-1.93-5.48-3.37-8.16-1.7-3.18-2.53-6.76-6.1-8.56-1.5-.76.21-3.4-2.6-3.71.37,5.12-1.24,9.93-2.21,14.85-1,5.19-3.25,6.45-8.31,4.81-3.87-1.26-7.58-2.85-11.57-3.9-10.32-2.71-19.93.87-29.79,2.4-3.58.55-7.17,1.52-10.75,1.51-14.2,0-25.7,7.06-37.08,14.1-9.94,6.13-20.58,10.66-31,15.81-5.24,2.59-12.41,2.7-15.52,9.31-.47,1-2,2.71-3.8,2a2.4,2.4,0,0,1-1.15-2.88c.49-1.64.93-3.84,3-3.78,6.87.21,10.1-5.52,14.24-9.08,13.18-11.32,21.21-27,32.28-40.13,1.77-2.1,4.34-3.62,6.73-5.1,11.34-7,23.74-11.12,36.85-13.32,6-1,11.07-4.44,16.25-7.38,8.06-4.59,16-9.43,25.16-11.57,4.4-1,4.78-4.12,3-8.2-2.19-5.05-4.61-4.48-8.15-1.94-8.48,6.11-18.83,7-28.45,9.89-14,4.18-28.38,7.25-42.24,11.86-7.41,2.47-15.37,4.16-21.86,9.16-1.21.93-3.51,2.07-4.61.38-1-1.48,1.14-2.55,2.25-3.66,10.22-10.28,23.76-14.24,36.73-19.22,2.72-1.05,5.84-1.21,8.81-1.48,9.56-.87,17.32-6.3,25.77-10,.42-.18,1.08-.44,1.13-.75,1.07-6.45,7.28-5.42,11.21-7.18s6-4.52,8.17-7.48c1.55-2.1-3.21-7.43-6.94-7.66-2.34-.15-4.92-.32-7.06.45-12.43,4.5-25.76,4.92-38.3,8.6-9.09,2.67-18.46,3.93-27.51,6.79-7.7,2.42-12.19,7.75-16,13.88-4.17,6.83-8.41,13.65-11.94,20.91C633,253,628.09,257.7,623.2,262.2c-1.85,1.7-3.85,3.24-5.8,4.84-.89.72-2,1.28-3,.61a2.54,2.54,0,0,1-.75-3c2.53-9.08,4.93-18.21,7.72-27.21a177.67,177.67,0,0,0,5.26-24.87c2-12.59,4.24-25.13,6.47-37.68a3.16,3.16,0,0,1,3.65-2.88c7.19.32,12.75-4,18.57-7.21,1.9-1,3.61-2.55,5.78-2.78,6.43-.68,10.95-6.18,17.34-6.75,5.69-.5,10.23-3.38,15.11-6,2.92-1.53,1.75-4.53,4-6,.72-.47-1-1.48-2-2a139.63,139.63,0,0,0-18.32-7.74c-5-1.78-9.1-.93-12.79,3.15-8.19,9.05-16.92,17.54-27.8,23.4-4.43,2.39-8.52,5-12,8.88-1.45,1.65-4.61,1.89-6.59,3.68a1.75,1.75,0,0,1-2.52-.49c-.64-.88-.34-1.73.08-2.65,1.37-3,2.43-6.17,4-9,5.13-9.3,5.29-19.89,7.94-29.83,1.57-5.93,3.46-11.79,3.89-18,.17-2.48,2.09-3,4.21-2.26,18.49,6.26,37.52,11.09,54.67,20.92,7.45,4.27,15.61,7.61,22.5,12.46,5.17,3.64,11,7.75,13.94,14.22a23.4,23.4,0,0,0,4.19,6.27c10.64,11.44,17.66,25.08,23.71,39.24,2.09,4.9,5.91,9.31,5.94,14.82,0,7.2,5.45,12.23,6.75,18.9.5,2.53,4,3.1,5.71,5.27,9.34,11.68,14.36,25.42,19.36,39.19a419.28,419.28,0,0,1,13.73,48c3.21,13.78,6.86,27.62,7.72,41.71a149.87,149.87,0,0,1-2.42,36.07c-1.68,9.11-2.63,18.35-6,27.16-2.17,5.66-5.56,10.58-8.49,15.7-4.2,7.35-8.71,14.67-12.6,22.09-6.39,12.2-15.06,22.73-22.42,34.17-2.09,3.25-6.12,5.63-9.31,8.33a26.62,26.62,0,0,0-7,8.67c-1-1.67-.25-4.6-3.08-4.28s-2.07,2.72-2.59,4.4c-.92,3,.14,6.36-1.45,9.29-.14.25-.21.83-.08.91,6.07,3.8-.74,7.3-.46,11.12.33,4.38-1.33,9-2.59,13.37-2.47,8.59-4.41,17.23-4.26,26.24.14,8.81-2,17.3-4.54,25.59-1.65,5.32-1.61,10.89-3.31,16.13-2.9,9-4.6,18.24-6.83,27.38-3.4,14-7.79,27.75-11.31,41.73-1.26,5-1.71,10.27-2.86,15.25-1.62,7,.22,13.56,0,20.26-.53,18.72-2.25,37.37-10.44,54.66-.8,1.68-.73,3.35-1.11,5-3.2,14-3.48,28.32-3.87,42.67-.28,10.64-1.28,21.32-1.94,32-.69,10.93-2.77,21.71-3,32.61-.1,3.91,2.61,7.63,3,11.81.81,8.7.79,17.17-2.12,25.61a42.58,42.58,0,0,0-2.19,13c-.19,11.72,2.53,23.24,3.11,34.93,0,.51,1.12,1,1.73,1.45Zm33.1-785.38c3.48,1.5,3.6-2.33,5.4-3.73.76-.58,3.15.64,2.27-1.66-.68-1.77-2-3.66-4.05-4-1.73-.26-2.4,1.49-2.32,2.94.17,2.89-.77,4.17-3.8,3.46a1.32,1.32,0,0,0-1.73,1.13c-.18,1.22.56,1.71,1.62,1.8C655,199.43,655.77,199.38,656.8,199.38Z" transform="translate(-136.45 -21.75)"/><path d="M494.55,984.76c.06-10.56,3.3-20.71,4.11-31.2a40.72,40.72,0,0,0-1.45-14c-2.84-10.59-3.38-21.25-2.9-32.19a239.15,239.15,0,0,0-1.08-30.26c-1.1-13.12-2.73-26.21-4.38-39.28-2-15.42-4.47-30.86-10.12-45.32-3.55-9.11-8-18-12.45-26.81-3.76-7.4-5.61-15.65-7.61-23.74-3.88-15.73-7.89-31.42-11.59-47.18-6.26-26.65-15.44-52.53-21.07-79.3-3.56-16.9-7.87-33.66-10.78-50.7-2.32-13.54-7.24-26.47-9.26-40-1.61-10.81-5.32-21.47-2.7-32.77,1.68,1.81,4,2.89,6.46,1,6.65-5.29,15.08-5.86,22.68-8.61,10.62-3.84,21.41-7.19,32-10.94,3.06-1.08,6.17-2.1,9.23-1.34,7.87,2,15.26-1.4,22.91-1.61,9.68-.26,18.73-4,28.21-5.33,1.53-.23,3-.62,3.68,1s-.72,2.61-1.79,3.51c-3.7,3.07-8.29,4.51-12.48,6.68-11.74,6.08-24.24,10.88-34,20.26-6.8,6.53-13.72,12.94-20.25,19.72-4.38,4.54-10.23,6.72-15.19,10.32s-9.08,8.22-13.47,12.5c-3.29,3.21-5.58,7.08-8.13,10.77-2.38,3.44-1.44,5.34,2.66,5.79a23.26,23.26,0,0,0,16.52-4.29c6.81-4.81,13.76-9.47,22.28-10.8,6.33-1,12.58.92,18.84.66,9.15-.37,17.83-3.06,26.24-6.65,3.94-1.68,8.15-2.7,11.74-5.26-4.32,10-12,16.3-21,21.24-6.71,3.64-13.94,4.39-21.39,5.05-9.6.86-18.74,3.36-26.49,9.87-4.56,3.84-10.2,6.46-14.19,10.95-3.14,3.55-6.77,6.64-8.74,11.39-2.69,6.51,2,9.78,5,13.46s7.68,1.43,10.84-.27c13.87-7.44,28.71-12,43.89-15.56,8.73-2,17.17,1.07,25.59,2.84,5.26,1.1,10.39,2.82,16,4.39-3.08,3.82-6.68,5-11.56,4.34-11.66-1.49-23.35-3.72-35.13-.72a53.47,53.47,0,0,0-11,4.1c-8.45,4.26-16.84,8.64-25.38,12.71-3.37,1.6-5.16,3.59-7.06,7.12-2.21,4.09-2,7.34-1,10.94,1.08,4.05,2.88,7.91,4.39,11.84.88,2.28,2.69,3,5,2.73,6.58-.65,13.17-1.29,19.75-2,17.65-1.84,34.71.91,51.5,6.28,3.14,1,6.44,1.4,9,3.77,1.74,1.63,1.26-2,2.95-.91-.46,2.75-1,4.56-4.95,3.63-6.49-1.55-13-.36-19.64.27-9.85.92-19.86.06-29.77-1.09-8.3-1-16.17-.59-22.84,6-3.26,3.23-3.3,6-1.6,9.37,1,1.94.57,3.55.39,5.61-.7,7.62.6,15.17,5.82,21.14,2.25,2.59,5.95,2.65,9.34,1.56,12-3.87,24.24-3.75,36.47-2.17,5.17.67,10.15,2.78,15.25,5.16-6.24.73-12.49,1.33-18.7,2.21-7.89,1.11-16.32.37-23.33,4.84-5.84,3.73-13.55,6.19-15.16,14-1.31,6.41,2.26,12.28,4.84,17.94,3.53,7.76,7,8.81,15.2,5.52a223.37,223.37,0,0,1,35.85-11.41c1.27-.27,3.39-1.86,4.17.85.67,2.33-.12,2.88-2.71,3.18-2.44.28-4.55,2.62-6.71,4.1-8.15,5.56-17.1,9.88-24.83,16.07a14.28,14.28,0,0,0-3.18,3.49c-.78,1.24-2.26,2.45-1.29,4.25.89,1.65,2.46,1.77,4.1,1.76,1.89,0,3.79,0,5.69,0,.77,0,2.05-.09,2.23.28,3.17,6.51,6.39.87,9.54.22,3.39,3.42,2.06,5.11-2.09,6.54-5.83,2-11.48,4.57-15,10.11-2,3.07-.67,13.47,2.07,15.45a3.78,3.78,0,0,0,2.69.53c4.29-1,9.18-.33,12.88-1.85,5.66-2.34,6.25,1.86,9.45,4.53-9-.65-14.45,5.11-21,8.3-2.24,1.09-2.79,3.48-2.45,5.72.48,3.26,1.45,6.44,2.06,9.68.54,2.85,2.67,3.14,4.93,3.48,1.78.27,3.94-1.47,5.35,1.28.46.89,1.75.07,2-1,.45-2,2-2.78,3.71-3.25,2.47-.71,4.85-1,4.53,2.9a12.6,12.6,0,0,0,.56,3.26c.61,3.2-.66,4.5-3.87,3.82-1.39-.29-2.77-.61-4.15-.93-5.56-1.29-7.28.2-8.72,7.52-.9,4.6.52,6.22,6.14,7.14,1.86.3,3.67,1,5.57.15,3.91-1.69,5.49-.59,5.67,3.86.13,3.3-.81,4.2-3.86,4-2-.11-4.3-.26-6.07.5-2.49,1.07-3.93,3.12-4,6.32-.15,10.72,1.44,21.43.18,32.15-.28,2.34-.75,4.67-1,7-.13,1.47-.74,3.39,1.5,3.91,2.4.55,2.13-1.54,2.76-2.9,1.44-3.11.81-7.68,6.15-8.14,2.75-.24,4,1.48,5.66,2.77.86.66,1.75,1.66,2.91.91,1-.63.31-1.71.22-2.61-.37-4.06-.71-8.11-1.1-12.66,2.79,4.7,2.06,9.54,2.8,14.09.49,3.09,1.86,6.18,5.12,5.21,2.06-.62,5.81-2,4.89-6.17a5.68,5.68,0,0,1,1.07-4.85c1.6,7.68,8.34,12.34,9.91,19.88a42.39,42.39,0,0,1,.35,17.82c-1.34,6.14-.1,11.77,2.21,17,3.86,8.82,6.12,17.8,5.82,27.42-.06,2,.07,4,.12,6Z" transform="translate(-136.45 -21.75)"/><path d="M722.68,911.9a65,65,0,0,1-8.58,22.57c-3.13,5.23-4,11.14-6.68,16.45-1.37,2.73-3.82,5.42-2.34,9a1,1,0,0,1-.82,1.41c-3.23.34-2.51,3.06-3,4.95-1.71.63-2.36-1.65-4.75-1,3.35,3.58,5.9,7.33,3.46,12.41,4.94-5.82,10-11.24,12.88-18.06,4.28-10,10.12-19.21,15.31-28.74,4.78-8.75,10-17.2,15.13-25.76.39-.66,1.08-1.78.84-2.08-3.47-4.39,1.89-5.45,3-8.08.81-1.94,2.66-1.78,4.06-1.15,1.66.75,1.1,2.57.64,3.8-1.83,4.8-4,9.46-5.73,14.29-1.46,4.1-4.17,7.56-5.8,11.4-2,4.61-5.12,8.79-5.57,14.1-.41,4.91-4.45,8.54-5.52,13.22-1.58,6.86-4.6,13.42-4.22,20.71.15,2.95,1,3.14,2.91,1.28,3.15-3.11,8.46-.08,11.27-4,1.17.91,2.1,3.51,3.88.8,1-1.5-.71-3.06-.6-4.39a165.81,165.81,0,0,0-.69-31.66c-.15-1.33,1.09-2.82,1.94-4.86,2.49,4.41,1.59,8.78,2.11,12.76,1.3,10,2.61,20,2.42,30.06,0,.85.29,1.71,1.15,1.84s1.3-.77,1.49-1.49c.61-2.43.5-5.33,1.83-7.24,3.36-4.83,4.28-10.71,7.4-15.6s2.8-10.95,1.67-16.09-2.08-10.11-3.2-15.15c-.68-3-.74-6.24-3.1-8.72a3.74,3.74,0,0,1-1.09-2.53c.24-2.45,0-5.88,2.61-6.59,2.86-.76,2.94,2.84,3.44,4.6a113.52,113.52,0,0,0,3.7,12.07c2.06,5.05,4.23,5.85,7.51,1.73,3.61-4.55,8.79-4.73,13.48-5.93,8.07-2.05,16.24-3.65,24-6.74,1.79-.71,4.48-1.24,5.23,1.39.71,2.47-1.14,3.62-3.55,3.88-.9.1-2.49.42-2.54.81-.69,5.11-4.95,4.19-8,4.43-3.86.32-5.71,4.08-9.69,4.4-5.12.42-8.27,5.11-12.14,7.95-2.43,1.78-3.48,5.84-4.46,9.09-1.95,6.52-2.9,13.39-5.3,19.73-1.55,4.07-3.72,7.85-4.07,12.31-.13,1.8,0,3.76,1.64,4.56,2.06,1,1.38-2.07,3.18-2.48.36,2.59,4,3.24,3.46,6.9-.3,1.84,10.07,4.23,11.61,2.73.44-.42.7-1.13,1.44-.64a1.38,1.38,0,0,1,.8,1.56c-.24.89-.46,1.79-.69,2.69H687.33c-.82-13.42,7.95-23.27,13-34.46,3.6-7.93,8.2-15.41,12.31-23.1,2.79-5.22,5.56-10.93,10.11-15.18Z" transform="translate(-136.45 -21.75)"/><path d="M392.94,984.76c1.68-3.08,3.49-4.44,7.76-4.19A27.72,27.72,0,0,0,415.4,977c2.58-1.48,3.34-6.26,4.7-9.65.25-.63-.23-2.16-1.24-2.27-2.2-.24-2.23,1.88-3,3.5,1.9-7.83-4.62-11.61-8-16.22-4.34-5.83-6.16-12.9-10.8-18.5-1.74-2.11-3.13-3.25-5.66-3.23-4.09,0-8-1-12.34-2.22,3.22-3,7-3.08,10.36-4.19,4.54-1.52,8.09-4.3,11.62-7.31,2.05-1.74,1-3.53.31-5.13a33.25,33.25,0,0,1-2.44-19.12c2.79.8,3.27,3.24,4.11,5,4.52,9.36,8.67,18.89,10.87,29.1a14.44,14.44,0,0,0,3,5.75c2.61,3.39,2,7.65-.15,9.46-4.48,3.81-.17,5.72.5,8.53.52,2.17.69,4.7-.65,6.79-1,1.56-1.19,2.86.19,4.21a2.58,2.58,0,0,0,2.53.94c2.29-.61,1.43-2.56,1.5-4,.3-6.57,0-13.26.38-19.69.47-7.75.56-15.63,1.62-23.41,1-7.28,3-14.49,2.25-22-.14-1.39-.08-3.24,1.68-3.21s1.16,1.94,1.2,3.08a40.49,40.49,0,0,0,.84,8.42,5.59,5.59,0,0,1-1,5.27c-3.19,4-.31,8.49-.13,12.7.36,8.73.87,17.51,1.66,26.17.42,4.49-2.71,8.72.19,13.46,2.35,3.85,3.83,2.47,5.42.33a26.41,26.41,0,0,0,4.68-11.17c1.54-8.58,5.14-16.39,8.78-24.18.42-.9.73-2.3,2.2-2.09,1.29.18,1.58,1.42,2.07,2.38,2.92,5.74,3.05,11.4-.81,16.76-1.49,2.06-.87,4.49-1.82,6.72-2.28,5.32-6.44,9.81-7.54,15.51-1.36,7-3.69,14-1,21.25Z" transform="translate(-136.45 -21.75)"/><path d="M483.16,984.76a30,30,0,0,1-1.8-10.58,22.31,22.31,0,0,0-4-12.81c-4.47-6.63-8.29-13.71-12.38-20.56-3.9-6.53-8-13.27-9.47-21.11-.61-3.15-2.82-6-2.67-9.42.05-1.21-.24-3.06,1.42-3,11.17.19,13.8-9.26,18.23-16.35,2.29-3.67,4.2-7.6,6.91-11.11-.9,9-2.8,17.6-8.36,25.13-4.41,6-6.91,12.07-4.13,20.22,1.12,3.32,5,7.1,2.37,11.66-.41.7.54,2.13,1.6,2.67,6.06,3.07,9,9.49,11.92,14.53,2.55,4.42,5.86,9.39,6.68,15.51.7,5.23-.42,10.22.33,15.25Z" transform="translate(-136.45 -21.75)"/><path d="M353.06,984.76a2.43,2.43,0,0,1,.05-.94c3.64-7.41,2.88-15.37,2.92-23.22,0-5.35-.07-10.7-.08-16.05,0-1.57-.29-3.39,1-4.47s.52-4.08,3-3.55a5.28,5.28,0,0,1,4.07,4.7c1.66,12.1,5.69,23.78,6.42,36.06.19,3.18.82,6.29,5.26,6.52,3.06.16,4.15-.88,3.67-3.76-1.2-7.22-.47-14.51-.74-21.76a6.93,6.93,0,0,1,2.4-6.22c1,5.24,4.16,9.24,2.64,14.59-.89,3.15-.84,6.49,2,9.13s-.28,6,.59,9Z" transform="translate(-136.45 -21.75)"/><path d="M588.56,984.76c1.22-7.31,3.89-14.29,3.92-21.91,0-9,2.73-17.34,6.33-25.7a80.89,80.89,0,0,1,7.9-15c.65-.91,1.21-2.24,2.34-1.41a2,2,0,0,1-.21,3c-4.22,2.59-.71,7-2.67,10.32s-2.82,7.23-3.49,11.14c-1.49,8.59,0,17.22-.8,25.82-.46,4.76.09,9.57,2.83,13.79Z" transform="translate(-136.45 -21.75)"/><path d="M559.13,984.76c-1.6-6.55,1.63-11.55,4.86-16.84,3.53-5.81,3.82-12.83,5.72-19.27a40.4,40.4,0,0,1,15-21.74c0,4.87-3.67,8.05-5.13,12.28-2.51,7.29-5.69,14.21-5.48,22.27.2,7.83,0,15.74-2.68,23.3Z" transform="translate(-136.45 -21.75)"/><path d="M815.52,984.76a111.72,111.72,0,0,0,1.82-24.31c-.24-5.2,2.06-10.1,4-14.91a3.53,3.53,0,0,1,3.27-2.35c1.68.09,1.26,1.94,1.54,3,1.47,5.74.38,11.62.2,17.37a97.24,97.24,0,0,0,1.2,16.84c.24,1.63.3,3-.67,4.31Z" transform="translate(-136.45 -21.75)"/><path d="M835.47,984.76c1.39-6,1.41-6,7.44-4.31,1.7.49,2-.19,1.88-1.54q-.88-7.95-1.88-15.91c-.13-1.08-.66-2.12-.74-3.19-.12-1.7-.32-4.09,1.47-4.5s2.52,1.78,3.28,3.4c1.92,4.11,4.11,8.11,6.12,12.19a13.6,13.6,0,0,1,1.69,4.36c.52,5.24,1.84,9.36,8.51,8,.12,0,.47,1,.72,1.54Z" transform="translate(-136.45 -21.75)"/><path d="M606.61,984.76c8-7.88,3.66-18.41,5.88-27.7,1.18,4.79,2.49,9.37,5.71,13.1.48.55,1.3,1.35.55,2s-1.74.6-2.08-.78c-.22-.85-.67-1.35-1.63-.48-1.48,1.32-.62,3.27-1.42,4.8-.23.44.55,1.42,1.57,1.15.75-.2,2-.77,2.15-.58,1,1.5,6-.7,3.56,4-.55,1.06.56,3,.9,4.5Z" transform="translate(-136.45 -21.75)"/><path d="M526.27,103.9c9.17-.81,17.14-1.31,25.05-2.27,10.64-1.3,21.36-.59,32-1.4,3.74-.28,7.64,1.35,11.45,2.23,2,.46,1.51,2.3,1.32,3.54a67,67,0,0,1-1.85,8.26c-3.31,11.57-3.06,23.41-3,35.25,0,4.54-.14,9.07-.19,13.6,0,2.11-1.63,1.82-2.58,1.39-2.17-1-4.56-1.18-6.68-2.05-5.45-2.23-6.07-2.13-8.44,3.34a15.75,15.75,0,0,0-.53,1.92,3.56,3.56,0,0,0,4.54-1.31c.48-.71.38-2.12,1.61-1.67a3.29,3.29,0,0,1,1.63,2.16c.37,1.63-1,1.1-1.84,1.13-1.57.06-1.75,1.1-1.68,2.28.08,1.4.89,3,2.19,2.41,2-.87,7.49,2.22,5.39-4.14-.31-.92.51-1.4,1.41-1.38,1.7,0,3.34-.13,4.79,1.36,1.89,1.95,2,4.63,1.94,6.65-.17,6,2.45,11.35,3.7,16.86,2.1,9.21,1.14,18.57,3.16,27.62s-.93,16.67-3.69,25.13c-2.83,8.66-5.6,17.91-5.46,27.51.09,6.29-.73,12.6-1.28,18.89-.17,1.86-.37,4-1.34,5.46-6.65,10-5.75,21.39-6.11,32.55-.06,1.89,0,3.79.1,5.69.31,9.95.3,10,9,13.42,2.38.95,3.37-.16,3.74-2.58.91-6.06,2.07-12.09,3.07-18.14,1.91-11.62,5.23-23,5.88-34.84a6.46,6.46,0,0,1,2-4.59c2.36-2.29,4.75-4.53,5.73-7.89.42-1.42,1.78-2.72,3.24-2,1.24.62.62,2.25,0,3.41A178.07,178.07,0,0,0,605.12,306a12,12,0,0,0-.35,7c1.65,5.46-.2,10.55-.88,15.82-1,7.73-.57,15.76-2.52,23.2-1.35,5.12-1,10.29-2.37,15.27-1.82,6.73-.35,13.6-.82,20.4-.53,7.65-.43,15.34-2.49,22.8-.6,2.17-.07,4.13.22,6.3a109.25,109.25,0,0,1,.79,18.09c-.21,7.73-1.73,15.48-1.36,23.17.46,9.69-.68,19.31-.38,29,.38,12.48.71,25,.44,37.54-.3,13.87-.13,28.15,4,41.36,5,16,5.66,32.8,11,48.59a31.78,31.78,0,0,0,2.4,4.58c3.13,5.83,2.8,12.26,3.17,18.56.05.75,0,2-.44,2.21-6.69,3.84-3.32,10.19-3,15,.56,7.57-.32,15.33,1,22.57,1.4,7.78.12,15.8,2.92,23.4,1.11,3,1.67,6.12,3,9.16,1,2.36-1.08,5.46-.46,8.75,1.15,6.08,1.09,12.4,1.27,18.62,0,1-1.33,2-2.37,3.4-1-3.5-1.89-6.61-2.82-9.7a7.81,7.81,0,0,0-2.43-4,3.38,3.38,0,0,0-3.09-.71c-1.6.32-1.18,1.71-1.11,2.69.23,3.12.92,6.24.86,9.36-.06,3.31,1,7-2.2,9.71-1.29,1.1.29,2.64.23,4a40.22,40.22,0,0,0,1.78,12.62c2.08,7.17-2.64,19.39-9.12,23.71-3,2-4.65,5.45-5.51,8.55-2.17,7.7-3.48,15.65-4.92,23.54-.34,1.86-.64,3.37-2.75,4.18-1.5-10-.41-20-.23-30.33-5.25,2.06,0,7.46-4.3,9.79-.93-4.61-.09-9,.16-13.42.07-1.23.93-2.79-.71-3.2s-2.48,1-2.82,2.51c-.62,2.75-1.1,5.54-1.88,8.24-.44,1.52-.69,3.07-3.17,3.35-6.17.7-6.58.72-6.12-6.85.35-5.55.51-11.14.6-16.65.2-11.49,2.93-22.41,5.6-33.38,1.63-6.69,2.58-13.22-.47-19.72-2.78-5.93-1.9-12.4-2.8-18.61-.41-2.84,1.66-5,2.61-7.43.39-1,1.24-1.83,1.65-2.83,1-2.48.25-5.31-1.6-6.33-2.34-1.29-2.41,2.11-3.61,3.32-2.26,2.3-1.36,6-4.2,9.32,1.32-7.25,2.46-13.49,3.57-19.74.29-1.61,1.43-3.82-.71-4.52s-2.53,1.85-3.34,3.26-1.5,3.09-2.4,5c-2.56-4-2.12-8.1-1.39-11.89,2.05-10.66,4.58-21.22,6.86-31.84.45-2.11,1.47-5.32-.89-5.95-2.92-.78-2.35,3-3.17,4.71-3.05,6.47-4,13.62-6.17,20.47-1.92-9.71-5-19.31-.56-29.09a2.63,2.63,0,0,0,.08-1.75c-3.55-11.2-1-22.29.62-33.38a215.12,215.12,0,0,0,1.8-29.72c0-9.08-1.49-18-1.17-27.08.42-11.76-.91-23.58-1.49-35.37-.59-12.07,1.9-24,1.88-36.22q1.41,6.6,2.83,13.18c.23,1.07.49,2.14.67,3.22.25,1.58.34,3.35,2.49,3.42,2.62.1,3.09-2.27,3.31-3.91a99.2,99.2,0,0,0,.25-16.08c-.12-3.8,0-7.48-2.68-10.69-1.14-1.37-1.85-3-3.94-2.78-2.61.33-1.63,2.64-2.13,4.13a21.32,21.32,0,0,1-1,2c-1.17-4.88-.55-9.13-.6-13.33,0-1,.51-1.19,1.51-1.2,6.06-.07,10.86-4.24,11.09-10a94.64,94.64,0,0,0-.52-11.28c-.17-2.1-.83-4.05-3.23-4.75-2.57-.75-3.35,1.22-4.86,2.65-5,4.69-2,11.21-5.07,17.54,1.23-9.81-2-18-3-26.53-1.71-14.32-2.84-28.7-4.91-43-1.45-10.1-1.94-20.36-3.48-30.49-2-13.21-3.72-26.48-7.27-39.41-.82-3-2.91-5.18-4.38-7.75-.58-1-1-2.17-.36-3.13.82-1.26,2-.16,3,0,2,.26,2.91,1.79,4,3.08,3.45,3.92,4.68,9.07,6,13.72a140,140,0,0,1,4,15.46,115,115,0,0,1,1.31,20.18c0,4.2,1.44,6,5.67,4.71,3.42-1.08,6.47.49,9.64,1.2,5.19,1.17,8.42-2.07,6.92-7.11-.77-2.55-1.3-5.42-2.84-7.45-6.69-8.76-5.58-18.6-4.71-28.52.42-4.73,2.46-9.17,2.86-13.73.63-7.25-1.25-14.4-4.19-21.07-3.24-7.36-6.87-14.55-10.41-21.77-2.79-5.68-2.37-11.63-1.52-17.56,1.52-10.6,3.3-21.24,2.42-31.94-1.35-16.44-1.94-33.13-7.51-48.83-5.12-14.44-9-29.45-17.38-42.59C530.09,107.37,528.55,106.05,526.27,103.9ZM558,395.63q.6,6.84,1.19,13.68c.1,1.15.32,2.26,1.49,2.75,2.24.94,8.93-3.34,8.94-5.91,0-5.37,1.42-10.64,1-16-.12-1.51-.31-3.13.74-4.56,2.81-3.85-.27-4.86-3-5.83-1.31-.47-2.81-.4-4.14-.82-2.33-.73-2.88-2.42-2.58-4.79.33-2.58,1.9-3.33,3.91-2.71,5.89,1.83,6.58-2.92,7.53-6.3,1.52-5.36-2.33-8.82-7.8-7.59-1.23.28-2.46.54-3.7.8-4.66,1-7,4.43-5.87,9.06.5,2.07,2.23,4.1,2.07,6C557.1,380.85,556.18,388.25,558,395.63Zm18.67,76.13c1.48,4.69,1.1,10.55,3.82,15.68.87,1.65,3.23,4.05,4,1.83,1.39-3.86,5.36-6.45,5-11s-1.07-9.2-.33-13.59c.7-4.17,0-7.3-2.59-10.38-2.32-2.73-4.46-2.84-5.51.4C579.37,460,577.2,465.3,576.63,471.76Zm4.14-92.28a46.71,46.71,0,0,1,0,6.21c-1.19,8,2.78,14.84,5.19,22,.51,1.5,2.45,1.95,4.1,1.71s1.3-1.86,1.53-3c1.2-6,1.05-12.14,1.23-18.26.13-4.47-2-7.05-5.24-9.24-1.59-1.09-3.6-1.2-2.94-4.3.45-2.13-1.58-1.54-2.89-.65C579.19,375.64,581.67,378.12,580.77,379.48Zm4.91-5.79c2.26-2.57,6.26-1.54,6.47-3.4.37-3.28,2.36-5.77,2.91-8.85.42-2.33-.27-4.84-1.95-5.38-3.43-1.11-5-3.66-6.69-6.64-.45,6.12-6.07,6.38-9.35,9.13-.72.61-2.86,1-1.3,2,2.66,1.75,2.89,5.56,6.47,6.52C584.71,367.75,586.42,369.79,585.68,373.69ZM589.75,509a48,48,0,0,1-1-7,4.69,4.69,0,0,0-4.08-5c-2.59-.42-4.52,1.65-5.25,4-1.67,5.26-1,10.57.83,15.69a4.34,4.34,0,0,0,4.07,2.77c2,.15,2.47-1.41,3.31-2.79A11.77,11.77,0,0,0,589.75,509Zm-.26-77h.16c0-2.05-.11-4.1,0-6.14.19-3,0-5.34-4-5.37-3.56,0-5.33,1.72-5.4,5.05-.08,3.75-.4,7.49.29,11.28a10.3,10.3,0,0,0,3.23,5.52,3.48,3.48,0,0,0,3.83,1.15c1.59-.57,1.84-2,1.85-3.48C589.5,437.34,589.49,434.67,589.49,432Zm3.74,361.53c.37-8-.6-15.29,1.34-21.69,2-6.57.65-13.69,4.15-19.83a2.6,2.6,0,0,0-1.37-3.6c-1.41-.71-2.67.55-4,1-.23.08-.57.53-.51.71,1.67,5.42-1.24,10.13-2,15.17-1.11,7.16-.29,14.61-.39,21.94C590.4,789.34,591,791.09,593.23,793.53Zm-28.6-274.61c.73,1.5-1.1,4.47,2.1,4.73,2.52.2,4.12-1.39,4.93-4.1,1.53-5.15-.3-9.85-1.38-14.67a2.2,2.2,0,0,0-2.43-1.8c-1.2.16-1.28,1.33-1.4,2.19C565.79,509.74,565.24,514.22,564.63,518.92Zm2.85,22.3c0,1,.07,3,3,3.07,3.46.1,7.5-3.8,7.33-7.23-.11-2.11-1.69-3-3.46-3.15C571.47,533.6,567.46,537.3,567.48,541.22Zm23-10.21c-.28-.82.58-2.47-1-3.36a1.92,1.92,0,0,0-2.18.36c-1.19.93-3.18,10.75-2.48,12.09.62,1.17,1.45,2.1,2.92,2,1.06-.1,2-.87,1.74-1.82C588.64,537.12,590.86,534.47,590.5,531Zm17,133.31c-1.28-4.12-.83-8.35-2.62-12.09-.33-.69-.48-1.66-1.49-1.36-.48.15-1.19,1-1.12,1.32.91,4.25-.14,8.84,2.28,12.8.52.85,1.07,1.65,2.2,1.11A1.65,1.65,0,0,0,607.55,664.32ZM592.79,562c-.54-1.69.6-4.38-2.34-4.43-3.7-.06-2.58,3.42-3.1,5.39-.57,2.16.88,3.79,3.14,3.74C594.11,566.65,591.68,563.51,592.79,562ZM573.6,563.3c-.25-1.15.59-3.22-1.77-2.93s-2.78,2.32-3,4.24c-.17,1.55.35,3.1,2.14,3C573.6,567.49,573.44,565.25,573.6,563.3Z" transform="translate(-136.45 -21.75)"/><path d="M286.82,89c2.19.19,2.64-4.82,6.45-1.63,1.35,1.13,3.19-3.17,2.93-5.72a110.44,110.44,0,0,0-5.86-27.46c-1.31-3.53-.4-7.19-1.68-10.69-.62-1.68-.29-3.55-2.05-4.94s-.39-2.93.85-3.83c1.47-1.06,2,.2,2.74,1.38,3.14,4.92,4.52,10.71,7.92,15.48.89,1.23,1.27,2.48,3.22,2.93,3.25.76.75,4.11,2.21,6.62,3.15-4,.76-8.12,1.18-11.84.52-4.74-3.54-8.89-2-13.9.45-1.45-1.26-.91-1.92-1.38-2.15-1.52-4.36-4.18-3.53-6.09s4.09-2.91,6.39-4.12c.65-.34,1.57.22,1.86,1.08,1,3,1.95,6.08,2.91,9.09-2.17.78-1.78-2.37-3.58-1.78-.42,4.7,1.89,8.19,6.09,8.66,2.1.24,2.25,1.43,2.14,2.91-.28,3.8.74,6.79,4.28,8.86,2.58,1.51,3.62,4.3,4.22,7.13.63,3,2.31,3.39,5.16,3,3.51-.51,2.38-2.91,2.26-4.63-.28-4-.95-7.94-1.61-13.07,4.67,4.18,7.46,8.52,10.48,12.61,2.69,3.66,5.13,7.5,7.6,11.32.59.91,1.27,1.58,2.24,1.13.61-.28,1.45-1.36,1.3-1.77-1.88-5.32.3-10.55.35-16.15,4.65,5.33,7.69,11.37,10.32,17.73,1,2.52.82,7.41,4.35,6.69,3.28-.67.42-4.6.29-7-.24-4,1.33-7.77.79-12.31,2.5,1.58,3.25,4.2,5.91,4.92,2.88.78,4.1.33,4.45-2.68.71-5.95,3.08-11.72,1.84-17.89-.12-.59.56-1.33,1-2.25,2.5,2,3.23,4.89,3.78,7.23.9,3.83,5,5.7,5.11,9.87,0,1.36,2.13.67,2.23.37.55-1.65,3.31-2.3,2.19-4.59-.36-.74-2-1.2-1-2.2,5.11-5.13,2.39-12.25,5.19-18.22.78,4.38,2.84,8.36,4.5,12.32,1.88,4.49,1.05,9.14,2.89,13.37a1.85,1.85,0,0,0,2.65,1.11c1.15-.38,1.53-1.21,1.45-2.57S406,54,405.61,52.85c-.29-1-.46-1.9.8-2.29.92-.28,1.45.1,1.68,1.06,1.22,5,2.73,1.22,4.44-.1,1.05,3.43,2,6.84,5.61,8.51.89.42,1.73,1,2.6.41a1.55,1.55,0,0,0,.08-2.48c-2-2.2-.79-5-1.81-7.48,3.18.4,1.23,5.22,4.06,4.49,2.67-.7,1.2-4.39,2.63-6.37.79-1.09.59-2.28,0-3.55-.38-.76-2.75.31-1.42-1.56.7-1,1.51-2.22,3-2.06s1.74,1.28,1.8,2.43a29.15,29.15,0,0,0,1.7,9.24c.37.95.09,2.55,1.86,1.8,1.08-.46,1.12-1.41.32-2.31-.63-.71-1.49-1.55.16-2,.87-.22,1.84.73,1.5,1.32-1.23,2.12,3.88,6.71-2.62,6.75-1,0-1.1,1.07-.71,1.84.54,1.06.9,2.52,2.66,2l2.18-.61c.33,5,6.13,4.51,8.12,8a4.87,4.87,0,0,0,5.15,2.3c2.75-.4,2.06-2.36,1.91-4.28-.1-1.27-.55-3.08,1.93-3.43,1.75-.25,2.57-2.2,3.75-3.45.93.83,1.9,1.73,2.91,2.58s2.51,1.94,3.74.71c1.67-1.66-1.29-1.64-1.31-2.73s-1.61-2.47,1.13-2.87c3.09-.46,4.44-4.86,8.65-4,1.26.27,0-2,0-3.09.13-1.42-2.19-5.28,2.57-3.36.29.12.85-.29,1.23-.54,1.23-.78,2.34-3,3.86-1.62s1.23,3.77.56,5.76a20,20,0,0,1-1.37,2.47c-1,2-.23,3.68,1.26,5.08a44.23,44.23,0,0,1,4.46,5.8c.54,1.28.72,2.19-1.19,1.9a2.21,2.21,0,0,0-.87.23c2.14,5.41-5.37,6.13-5.1,10.69.85.91,1.62-.28,2.47-.26,1.13,0,2.18-1.7,3.39-.23a3.41,3.41,0,0,1,.42,4c-.59,1.26-2.15,3.22.31,3.78,1.89.43,2.68-1.54,3.25-3.34.83-2.61-2.42-5.37.47-7.84,2.38,1.71,2.45,6.37,7.08,5.37.72-.16,2.14,2.27.19,2.93-3.24,1.1-3.22,5.43-6.77,6.12-.95.19-.51,1.66-.18,2.51s.78,1.82,1.88,1.91,1.18-.85,1.46-1.56c1.11-2.73,3-3.7,5.55-2a3.27,3.27,0,0,0,5.17-1.92c.21-2.27,1.2-3,2.88-3.45,1.17-.31,1.66-3.26,3.18-1.29,1.95,2.52-2.49,1.23-1.92,3.37,2.39-.1,2.41,3.39,5.19,3.92,1.51.29.08,1.8-.59,2.54-3.87,4.26-6,9.63-9.05,14.39-1.26,2-1.43,3.66,0,5.62,1.73,2.3,3.46.76,5,.1,3.9-1.63,7.45-4,11.73-4.87,1.46-.29,3.31-1.93,4.05,0s1.26,4.43-1.19,6a31,31,0,0,1-4.47,2.46c-5.43,2.24-5.51,3.12-3.55,8.48,4.51,12.31,10.75,23.81,16.28,35.64,3.69,7.87,6.74,15.82,7.67,24.56.44,4.07,5.22,7,3.26,11.9-1.38,0-1.83-1.23-2.5-2.25a456.75,456.75,0,0,1-26.14-44.36c-6.51-12.71-17.59-19.26-31-22.51-3.71-.9-10.64,2.3-12.43,5.51-1.28,2.29.23,4,1.44,5.52,3,3.88,6.19,7.6,9.19,11.47,10.83,13.93,19.19,29.63,30.78,43,3.67,4.25,8,7.8,11.17,12.65,4.93,7.46,8.32,15.59,11.57,23.69,3.95,9.83,4,20.6,5.59,31.6-3.26-1.43-4.58-4-6.11-6.2-7.08-10.41-14.84-20.33-21.9-30.78-4-6-6.35-13.13-11.68-18.29-.33-.32-.49-.84-.85-1.13-17.07-13.44-30.74-31.1-51-40.58-6.73-3.15-8.87-3.24-13.48,2.47-3.25,4-7.65,6.85-11,10.91a115.09,115.09,0,0,0-11.62,18.26c-1.34,2.47-.7,3.94,1.35,5.61,5.25,4.28,11.5,6.71,17.68,8.8,17.53,5.9,32.36,15.72,45.44,28.65,6.61,6.53,12.67,13.64,19.45,19.87,3.67,3.37,5.55,7,7.43,11.21-3.2-4.24-8.17-6-12.28-9-10.26-7.27-18.54-16.69-27.88-24.95a114.19,114.19,0,0,0-25.9-17.25c-3.39-1.65-6.63-3.62-10-5.38-10.18-5.34-16.78-2.88-21.61,7.33-3.08,6.52-6.93,12.67-10.47,19-3.15,5.59-1.18,13.06,4.79,15.52,9.19,3.8,17.7,8.83,26.31,13.66,13.05,7.32,27.53,10.53,41.61,14.94,13.53,4.23,23.57,12.41,31.84,24.27,4.63,6.65,7.75,14.75,14.61,19.87a2.82,2.82,0,0,1,1.18,3.14c-3.91.06-6.67-3.26-10.43-3.69-9.54-1.1-19.1-2.2-28.6-3.59A109.86,109.86,0,0,1,449.77,317c-3-1.24-5.51-3.52-8.67-4.71-6.27-2.38-12.53-4-19.34-3.77-10.24.4-20.51-.43-30.76.42-3.38.28-5.68-.9-5.88-4.91-.46-9.37-3.43-18.42-2.36-28.07.86-7.77,1.35-16.2-.78-23.51-3-10.28-6.47-20.72-13.38-29.51-5.89-7.49-11.86-15-15.87-23.77-1.17-2.56-1.77-4.77.66-7.18,4.41-4.37,7-10.07,9.78-15.47,1.66-3.18,3.64-4.82,7-5.16-7.52,5.94-8,13.5-2.35,21.73,6.33,9.29,13.94,17.84,17,29.18a20.22,20.22,0,0,0,5.39,8.74c.55.53,1,1.35,1.94.93s.68-1.34.61-2.07c-.37-3.77-.57-7.56-1.23-11.27-2-11.21-9.48-20.08-13.28-30.54-2.12-5.83-6.37-10.66-8.1-16.7-1.31-4.89.79-9.28,2.56-13.47,3.39-8,5.15-16.47,7.17-24.82,1.14-4.72-2.87-7.76-6.28-10.22-3.8-2.74-8.07-1.63-11.45.78-12.33,8.79-26.25,12.7-41,14.37-2.49.28-3.31-1.13-4.38-2.74-6.64-10-13.68-19.67-20.45-29.51-2.9-4.21-5.73-8.7-8.64-13-.65-1-2-2.29-.7-3.83Zm120.27,47.26c0-9.46,0-18.93,0-28.4a166.78,166.78,0,0,0-4.81-38.78c-.3-1.29-.69-2.49-2.08-2.92-1.67-.52-2.14,1-2.91,1.9-2.74,3.17-1.61,7.51-3.21,11-2.21,4.83-1.95,10.53-5.27,15-.52.69-.94,2-2,1.48a3.24,3.24,0,0,1-1.32-2.34c-.26-3-.25-5.93-.41-8.89-.24-4.24-.46-8.48-.84-12.7-.11-1.25-1.06-2.79-2.26-2.58-1.68.28-1,1.92-.81,3.16.21,1.55.67,3.27.25,4.69-4.25,14.48,2.09,28.34,2.41,42.55.23,10.07,3,19.84,5.56,29.57,1.57,6,.47,12.22,1.39,18.26a149.28,149.28,0,0,0,4.93,21.8c1.69,5.44,2,11.29,3.34,16.88.4,1.67,1.62,5.76,3.94,2.89,3.71-4.56,7.66-10.23,6.66-16.28C406.52,173.83,407.27,155.06,407.09,136.28ZM357.63,113.9c.28-3.42-3.2-5.14-3.62-8.13-1.44-10.28-5.6-19.91-7-30.25-.64-4.88-4.19-9.65-8.62-11-3.92-1.21-4.4,4.46-6,7.29-1.75,3.18-3.74,3-5.31.58-1.44-2.24-3.7-3.6-5.06-6-1.19-2.1-3.7-5.15-6.93-3.43-2.82,1.51-3.64,4.46-2.88,7.82a85.7,85.7,0,0,0,5.41,17.2c5.42,11.84,12.39,23,16,35.71.54,1.91,1.45,4.67,4.36,4.23,8.11-1.25,14.21-5.82,19.07-12.22A5.4,5.4,0,0,0,357.63,113.9ZM473.57,78.44c-.28-2.8,1.66-6.59-2-8-4.08-1.57-6.36,1.56-8.12,4.71-1.08,2-2.83,1.82-4.55,1.68-2.67-.21-4.23.81-4.52,3.56-1,9.16-4.42,17.74-6.17,26.7-.92,4.74-3,9.11-3.19,14.15-.38,8.6-.58,17.32-3.32,25.68-.62,1.88-.29,4.08-.35,6.13,0,.8.13,1.63,1.17,1.68a1.41,1.41,0,0,0,1.46-.92c3-6.78,8.59-11.34,13.6-16.47,2.9-3,7.07-5,8.61-9,5.74-14.66,11-29.47,7.75-45.7A37.1,37.1,0,0,1,473.57,78.44Z" transform="translate(-136.45 -21.75)"/><path d="M370.22,584.46c-1.34,2-2.66,3.33-4.73,3.19-16.91-1.18-34.29,1.17-50.44-5.72-8.3-3.54-17.14-6.4-23.19-14-4.72-5.95-6.09-12.49-5.18-19.74.25-2-2.78-11.82-4.29-12.27-2.89-.86-5.81-1-8.53,1-.8.57-1.87.84-1.35,2,1.52,3.3-.79,5.37-2.31,7.68-4.78,7.31-10.25,14.12-13.66,22.36-2.11,5.08-2.66,10.26-3.41,15.49-.93,6.56-5.33,12.1-5.25,19,0,1.84.11,3,1.63,3.88,8.85,5,17.88,8.44,28.49,6.47,5.45-1,11.24-1.52,16.77.84,3.13,1.33,3.63,2.88,1.71,5.71-2.21,3.27-5.63,5.14-8.69,7.12-5,3.22-10.58,5.52-16,8.05a3.78,3.78,0,0,1-5.63-2.6c-2.63-11.34-12.08-17.25-19.36-24.86-2.08-2.17-5.38-2.67-8.31-2.94-1.95-.18-5.09-1.71-5.83.84-.62,2.12,2.55,3.79,4.27,4.35,4.36,1.41,7.33,4.83,11.26,6.74,4.78,2.32,7.65,6.47,10.36,10.75.75,1.2,2.55,2.83.64,4a3.46,3.46,0,0,1-4.83-1.42c-3.14-7-9.49-10.83-14.83-15.63-1.37-1.23-3.12-4.17-5.4-1.3-2.06,2.59.65,4.08,2.18,5.33,3.52,2.88,7.28,5.47,11,8.14,1,.71,2.32,1,3,3.31-4-2.08-7.61-3.49-10.65-5.72-5-3.72-9.6-8.07-12.37-13.92a23.3,23.3,0,0,0-2.07-3.17c-.55-.78-1.15-1.68-2.27-1.23s-1.07,1.5-.63,2.38c2.28,4.57-.34,7-3.8,9.26-3.14,2-5.21,5.5-9.17,6.47-2.76.67-9.76-2.81-10.39-5.42a2.19,2.19,0,0,1,.78-2.54c6.67-4.58,11.4-12.48,20.86-12.29,1.79,0,1.45-1.09,1.56-2.18A40.56,40.56,0,0,0,220.65,584c-2.22-6.61,0-8.94,5.35-13.35,6.05-5,13.63-6,20-9.81.77-.46,1.92-.43,2.29-1.43,4.8-13,15.51-21,25.07-30,6.59-6.16,12.41-13.1,19.64-18.65,3-2.28,5.91-4.73,9-6.7,10.19-6.43,20.66-12.42,31.07-18.5,2.83-1.66,6.18-2.23,8.93-4.2,4.12-2.95,5.44-6.25,3-10.6-2.18-4-1.79-8.18-2.29-12.31-1.57-12.91-8.32-23.19-16.35-32.88-9.11-11-21.14-18.85-31-29-11.46-11.83-20.54-25.45-29.19-39.32-1.82-2.92-2.32-6.92-4.2-10.13-3.78-6.47-8.93-12.42-8-20.73,0-.34-.46-.83-.82-1.1-4.56-3.32-6.11-8.6-8.95-13.09-5.78-9.13-7.05-19.19-7.91-29.55-.4-4.86-.06-9.68-.1-14.52-.07-8.07-1.12-9.9-8.92-11.61-7.28-1.6-13.44-6.09-20.81-7.43-2.15-.39-3.83-1.7-.57-3.93,7.27-5,9.77-5.31,17.11-.15,3.79,2.65,8.48,2.55,12.44,5.24a19.41,19.41,0,0,1,9,15.74,105.44,105.44,0,0,0,6.87,34c.64,1.63.43,3.67,1.12,5,3.58,6.94,2.22,16.45,12.33,20.08,8.42,3,10.8,13.5,5.79,20.7-1.47,2.1-.74,3.56.27,5.14,1.78,2.79,3.63,5.54,5.61,8.19,2.16,2.89,4.71,4.1,8.77,3.86,5.77-.34,11.64-1.56,17.44-.19,2.66.63,5.91.78,6.58,4.39s-1.64,5.56-4.05,7.47a17.92,17.92,0,0,1-2.7,1.92c-6.31,3.32-4.87,13.86.52,17.5,1.74,1.17,3.29.7,4.63-.76,3.86-4.23,10.09-4.33,14.17-8.19a1.36,1.36,0,0,1,2.09.13c.73.84.47,1.78.24,2.7-1.09,4.39-3.3,8.53-2.57,13.31.68,4.41,1.84,8.59,5.12,11.82a7.53,7.53,0,0,0,7.93,1.65c2.89-.9,1.6-3.32,1.53-5.22-.29-7.49,4.84-13.2,6.5-20,1.26-5.17,4-10,3.77-15.65,4.78,6.66,11,12.33,10.18,21.51-1,10.23,1.44,20.25,4.17,29.81,3.37,11.85,7.83,23.41,14.54,34.16a137.37,137.37,0,0,1,13.35,26.77c1.5,4.25.72,4.52-3.86,5.07a43.4,43.4,0,0,1-22.2-3,16.79,16.79,0,0,1-5.71-4c-2-2-4.52-3.44-7.14-1.27-10.76,8.9-22.51,16.4-34.06,24.2a26.77,26.77,0,0,0-5.66,5.59c-2,2.51-1,5.66,2,6.31,13.22,2.76,19.93,12.45,25.16,23.56a33.66,33.66,0,0,1,3.46,13.63c.25,9.88,5.32,18.08,12.15,24.31C357,584.29,363.81,584.66,370.22,584.46ZM339,576.22c-.36-3.25-2.15-3.79-3-5-1.12-1.71-1.74-3.11.9-3.87.88-.25,2.1-.3,2.06-1.53s-1.23-1.74-2.28-2.07c-3.29-1-6.55-2.19-9.92-2.92-7.47-1.6-12.4-6.44-16.49-12.45-.85-1.26-1.59-2.61.63-3.27,1-.3,2.49-.12,2.06-1.81-.38-1.44-1.89-1.68-3.06-1.76-1.69-.12-3.37.42-5.07-.44-4.72-2.39-7.79-1.36-10.14,3.2-.47.91-.82,1.88.26,2.43s1.74,0,1.91-1.21c.6-4.29,2.28-3.48,4.79-1.24a11.47,11.47,0,0,1,3.3,4.49c1.9,5.24,5.93,8.28,10.43,11,3.74,2.3,7.34,4.85,10.94,7.36C330.33,569.9,334.18,572.73,339,576.22Zm-73.16,38.87c-3.13,0-3.84,1.15-2.14,3.73a66.88,66.88,0,0,1,4.4,6.68c1.57,3.22,3.92,3.52,7,3,4.13-.74,7.59-2.76,10.95-5.07,1.18-.81,3.61-.5,3.18-2.75s-2.63-2.49-4.52-2.48c-3.3,0-6.58.13-9.82-.79C272,616.53,268.91,615.85,265.88,615.09Zm-56.2,3.17c3.19-.75,4.62-3.64,6.86-5.48,1.46-1.2,1.49-2.59.14-4-1.2-1.29-2.41-1.9-4.1-.94-2.69,1.51-4.37,4.11-5.86,6.52C205.38,616.49,207.32,617.91,209.68,618.26ZM336.57,418.47c.1-1.29-.42-2.3-1.1-2.05a6.17,6.17,0,0,0-3.75,3.83c-.37,1.11.94,1.61,1.84,1.43C335.45,421.32,336.1,419.69,336.57,418.47Z" transform="translate(-136.45 -21.75)"/><path d="M286.94,88.89c-4.26-1.15-7.47-.77-9.44,4.17a7.16,7.16,0,0,0,.55,7c3.54,6.33,9.11,11.34,11.73,18.25.45,1.17,1.33,2.31,1.37,3.49.25,7.63,4.62,13.05,9.46,18.25,3.94,4.23,3.89,4.71-1.07,7.9-2.73,1.77-5.25,10-3.74,13.42,1.69,3.87,2.59,8.13,5.5,11.46a4,4,0,0,1,.49,4.78c-1.6,3.24-2.49,6.85-4.28,10-3.67,6.39-1.85,13-.49,19.22.71,3.25,4.28,5.85,8.18,7,8.24,2.46,16.88,3.42,24.91,6.63a106.87,106.87,0,0,1,22.3,12c.64.46,1.48.85,1.82,1.49.89,1.66,2.13,3.79,1.26,5.3-1,1.7-3.2.41-4.75-.1a297.53,297.53,0,0,1-36.12-15c-2.53-5.78-9.46-3.45-13.32-7.33-2.92-2.92-9.86-1-12.8,2.43-3.33,3.93-6.41,8-10.78,11.08-3.32,2.34-3.91,7-5.81,10.57-3.29,6.21-5.42,13-8.57,19.33-2.88,5.76-5.59,11.57-8,17.52-.39,1-.87,2.09-2.76,1.67,3-5.83,2.19-11.91.94-17.84-1.74-8.24,3.76-13.7,7.14-19.91,3.75-6.88,7.71-13.65,13.73-19,1.28-1.13,2.64-3.25.93-5s-3.58-.47-5.08.74c-2.61,2.1-4.53,3.59-5.72-1.44-.44-1.83-3.51-1.7-5.36-.38s-3.57,2.37-4.62,5.09c-2.16-4-.24-6.85.95-9.43.84-1.84,1.73-2.18-.82-3.53-6.52-3.45-4-10.54-5.41-16-.23-.89.7-2.36-.41-3-3.24-1.83-2.32-2.66.39-4.16,2.55-1.41,1.84-4.88-1.55-6-5.53-1.89-10.2-5.41-15.62-7.41a9.55,9.55,0,0,1-4.83-3.72c6.08-.78,11.25.95,16.5,1,1.21,0,3,.85,2.94-1s2.54-2.47,1-5.34c-3.16-5.76-8.76-8.88-12.54-13.79-6.31-8.19-16-11-24.54-15.61-1.54-.83-3.7-1.38-2.48-3.58s2.94-.86,4.39.16c4.95,3.52,10.8,5.05,16.35,7.19,3,1.17,5-1.56,4.82-5-.5-8.24-5.9-13.91-10.58-19.61S214.88,100.83,210.09,94c4.22,1.54,8.15.14,10.82,3.82,1.1,1.51,3.27.78,4.84-.09,2-1.14.49-2.16-.08-3.41-1.56-3.39-2.08-7.25-4.75-10.15-1.15-1.24-1.15-3-1-4.48a4,4,0,0,1,2.86-3.47,3,3,0,0,1,3.37,2.06c.56,2.92,3.18,4.52,4,7.29a8.36,8.36,0,0,0,3.69,5.33c2.4,1.34,4.14,2.86,3.33,6-.34,1.31.24,2.33,1.7,2.06,1.88-.34.67-1.29.47-2.33-.62-3.19-2.25-6.26-1.52-9.65.2-.95-.37-1.45-1-2-3.61-3-4.46-7.34-6.46-11.74,2.39,1.73,2.44,1.7,2.95,2.9.87,2.06,1.79,4.56,4.42,4,3.15-.67-.66-3.31,1-4.88,3.68,4,7.22,8.11,9.49,13.13,1,2.11,1.85,3.15,4.52,3,3-.16,2.63-1.84,2.76-3.72.16-2.32,1.42-2.67,3.17-1.37.74.56,1.24,1.43,1.94,2.06,1.21,1.11,1.49,4.11,4.1,2.52,2.18-1.31.31-3.32-.06-4.68-2.34-8.65-3.85-17.54-7.32-25.87a2.16,2.16,0,0,1,1.72-3.22c2.07-.46,1.45,1.36,1.92,2.39,2.22,5-.29,10.62,2.7,15.52,2.39,3.91,2.92,9.15,8.14,10.86,1.85.6,3,1,3.52-2.21a18.64,18.64,0,0,1,3.54-8.9c.59-.71,1.69-1.59.54-2.3-5.57-3.42-3.87-9.37-5.12-14.27-.21-.84-.31-1.92.87-2.42a1.86,1.86,0,0,1,2.62,1.32c2,6.75,7.07,12.36,7.43,19.72,0,.59,1,1.43-.62,1.49-3.76.14-3.06,2.64-1.65,4.32,1.65,2,2.28,4.44,3.86,6.37Zm-8.66,38.37c-2.76.15-2.5,2-1.79,3.68a22.91,22.91,0,0,0,6.58,8.94c.78.64,1.38,2,2.68.71.9-.86,1.38-2.22.71-3-2.33-2.62-3.61-5.72-4.9-8.89C281.08,127.56,279.65,127.18,278.28,127.26Zm19.83,17.07c-2.87-4-3.62-9.54-10.59-8.43C290.13,139.86,291.85,144.3,298.11,144.33Z" transform="translate(-136.45 -21.75)"/><path d="M190.94,688.3c2.13-1.82,2.75-2.65,1.24-4.83-1.39-2,0-5.5-1-8.25a1.36,1.36,0,0,1,.51-1.09,1,1,0,0,1,1.56.49c.56,1.62,1.33,3.49,3.19,2.09s4.53-1.46,5.28-5c1-4.51.63-9.29,2.85-13.62,1.49-2.92-2.47-9.82-5.71-10.45-2.85-.56-5.26,0-6.45,3.18-.61,1.64-.35,3.78-2.38,4.93-.23-1.85,1.13-3.27.78-5.13a4.35,4.35,0,0,0-2.65-3.54c-1.73-.82-2.83-.21-4.15,1-6,5.51-12.83,10-18.35,16.08-3.09,3.43-9.15,2-10.65-1.65-1-2.45,1.16-3.75,1.55-5.62,1.1-5.38,1.57-11.14,4.82-15.92a7.82,7.82,0,0,1,2.2-2.34c4.66-2.9,7.28-7.82,11.34-11.35,1.52-1.31.89-3.31-1.63-3.57a47.21,47.21,0,0,0-8.27-.61c-10.57.82-18.54-4.47-26.16-10.7-1.35-1.11-3.12-2.43-2.14-4.28a5.52,5.52,0,0,1,5.24-3.08c7.52.24,15-1.63,22.56-.23a6.71,6.71,0,0,0,1.42,0c2,0,4.66.14,5.35-1.75.38-1-1.53-3.25-2.81-4.51-5.21-5.15-10.09-10.54-13.86-16.86-2.44-4.07-1.77-7.83,1.54-10.33,4.06-3.06,6.65-1,9,2.32,1.7,2.42,4.53,3.34,6.69,5.11,7.19,5.92,16.07,9.3,23,15.54.66.59,1.54,1.35,2.53.63s.35-1.77-.06-2.53c-1.28-2.34-2.27-5.06-4.13-6.83-5.85-5.56-8.48-13.2-13.15-19.5-.74-1-1.64-2-.88-3.36s2.16-1.6,3.66-1.55a39.84,39.84,0,0,1,21.76,7.1c10.67,7.19,9.66,18.66,13.19,28.5a1.82,1.82,0,0,1-1.28,2.26,2.24,2.24,0,0,1-2.87-.93,14.26,14.26,0,0,1-2.07-5.25,33.88,33.88,0,0,0-15.28-22.78c-1.22-.81-2.84-2.3-4.21-.83s-.48,3,.41,4.72c2.66,5.12,5.05,10.35,8.4,15.12a32.36,32.36,0,0,0,4.84,5.71c3.34,3,3.29,5.58.25,8.85a80.36,80.36,0,0,0-6.95,8.26c-2.79,4-2.5,8.71.28,11.74,5,5.44,7.53,6.08,13.11,3.29,1.83-.92,3.68-1.81,5.43-2.85,8.11-4.8,8-4.69,15.75,1.12,4.53,3.41,9.38,6.4,14.17,9.44,3.57,2.27,7.68,1.57,11.57,1.48,3.4-.07,6.16.56,8.27,3.45a7.47,7.47,0,0,0,3.21,2.74c10,3.44,11.76,12.84,15.38,20.88.88,2-.27,2.68-2.06,2.42C272.69,664,261,663,251.06,656.11a19.57,19.57,0,0,0-3.93-2.58c-2-.75-3.93-3.46-6.36-1.4-2.23,1.88-1.15,4.68-.32,6.65,2.48,5.87,4.86,11.94,4.18,18.21-.52,4.74.43,9.92-2.4,14.34-1.07,1.66-2,2.92-4,.86-4.15-4.47-8.12-9.16-12.65-13.23-4.31-3.88-6.76-8.9-9.66-13.64-1.42-2.31-3.13-3.09-5.46-2.38s-2.2,2.5-2.1,4.6c.23,5-2.48,9.51-3,14.45a2.21,2.21,0,0,1-2.42,1.86c-.58,0-1.4-.21-1.7.09C197.67,687.69,197.69,687.7,190.94,688.3Zm81-29c1.76.23,3.48-.06,4.28-1.51.68-1.24-.16-2.71-.92-3.92a20.69,20.69,0,0,0-4.76-5.17C265,644.28,258,642.86,252,639.49c-1.56-.88-4.23-1.32-5.59.73s-.72,4.53.93,6.52C253.76,654.46,262.64,657.26,271.92,659.27Zm-48.87-10.65c-2.26.46-3.69,1.06-3.79,3.35-.46,10.21,6.38,17,11.62,24.44,1.31,1.87,3.85,2.2,6,.64,1.84-1.35,2.22-3,1.2-5.23a47.18,47.18,0,0,1-2.69-7.5c-1.47-5.29-4.66-9.55-8.07-13.62C226.29,649.52,224.28,649.19,223.05,648.62Zm-40.83-8.93c-.7-.89-1.51-1.45-1.58-2.08-.41-3.75-2.3-3.26-5.18-2.55-4.14,1-5.93,4.53-8.28,7.16-1.29,1.45-4.19,5-.43,7.32,3.36,2,5.09-.74,7-3.15C176,643.64,177.61,639.93,182.22,639.69Zm-34-27a70.44,70.44,0,0,0,20.26,2.85c.91,0,1.68-.29,1.7-1.18,0-1.11-.93-1.59-1.86-1.77C161.67,611.3,155,612.34,148.24,612.66Zm24.55-22.72c.79,3.13,1.81,5.69,4.13,7.49,1.36,1.05,2.92,1.35,4.19,0,.91-.92,2.44-2.45.95-3.55C179.44,592,177.11,589,172.79,589.94Z" transform="translate(-136.45 -21.75)"/><path d="M649.24,378.94c2.81-1.71.7-4.58,1.49-6.93,1.43-4.22,4.21-5.77,7.88-6.26a36,36,0,0,0,11.17-3.26c.14-.07.29-.28.39-.26,4.79,1.24,8-3,12.38-3.57a78,78,0,0,0,14.46-4c9.8-3.39,19.91-5.32,30-7.32,8.44-1.67,16.59.75,24.89.7.14,0,.29.13.44.18,2.49.76,6.1-.73,7.41,2a18.16,18.16,0,0,1,1.57,11.07c-1.73,9.18-1.81,18.43-1.51,27.7.21,6.72-1.34,8.11-8,7.33-8.56-1-17.14-2.07-25.74-2.6-2.87-.17-3.45-.9-2.54-3.21.69-1.75,1.4-3.8-.68-4.44s-3.68.82-4.4,3c2.06,1.23,1.2-1.91,2.33-1.17a1.51,1.51,0,0,1-.21,2.71c-1.4.55-1.5,2.51-3.17,2.5a6.58,6.58,0,0,1-2.32-.2c-1.53-.6,2.15-3.21-1.18-3.27-1.84,0-1.66,3-3.58,2.55-4.71-1.09-9.68.67-14.26-1.26-1.67-.7-4.26-1.17-2.23-4.19.68-1-.4-1.69-1.5-1.64-.94,0-2.26-.08-2.74.46-3.4,3.88-7.61.6-11.31,1.47-.89.21-1.9,0-2.1-.67-2.15-6.83-7.38-3-10.76-2.47-4.56.74-8.59-1.2-13-1-1.92.1-1-3.51-3.2-4.09Z" transform="translate(-136.45 -21.75)"/><path d="M399.41,404.65c-3.43-7-1.72-14.51-2.58-21.73-.65-5.47-1.34-10.93-2-16.39-.27-2.31.06-3.84,3.12-3.83,14.53,0,29.13-.16,43.31,3.15a111.56,111.56,0,0,0,24.32,2.47c11.14.11,22.07,1.22,32.54,4.85,10.17,3.53,18.85,9.65,27.25,17.79-8.22,1.2-15.59.56-22.78,2.07-10.93,2.29-22,3.78-32.69,7.33-12.56,4.16-25.87,3.49-39,3.08-8.67-.28-17.34-.38-26-.84C402.58,402.48,401.42,404.68,399.41,404.65Z" transform="translate(-136.45 -21.75)"/><path d="M642.57,346.38c3.14-2.43,7.18-2.46,10.42-4.73,10.5-7.36,22.77-11,34.56-15.51a142.43,142.43,0,0,1,44.43-9c8.63-.43,17.25-1.3,25.87-1.93,1.41-.1,3.06-.43,4.21.14,5.1,2.52,5.41-1.05,5.27-4.28s-.06-6,2.21-8.61c3,2.87,4.24,6.84,5.44,10.54,4.45,13.72,7.38,28.06,7.32,42.27-.09,22.29-.58,44.73-7.22,66.54-3.13,10.3-6.39,20.67-8.24,31.38-.36,2.12-.1,4.14-.43,6.23-1-2.84-2.39-5.35-1.48-8.73,1.68-6.27.75-12.81.61-19.2-.48-22.08-1.89-44.16-1.25-66.25.38-13.13-.28-26.36,2.63-39.34a10.54,10.54,0,0,0-.34-3.75c-.15-.95-.51-1.86-1.66-2s-2.38.47-2.45,1.67c-.2,3-2.17,3.13-4.34,3-14.39-1-28.33,2.36-42.15,5.36-14.44,3.14-28.76,7-43.29,9.73C662.6,341.79,652.49,343.54,642.57,346.38Z" transform="translate(-136.45 -21.75)"/><path d="M169.71,202.81A18.7,18.7,0,0,0,175.12,217c2.48,2.48,4.89,3.32,8.3.92A41.48,41.48,0,0,0,195,205.2c2-3.25,3.88-7.61,9.19-5.61,3.64,1.37,7.46,1,11.17,1.61,5.1.81,9.32-1,13.21-3.93a36.8,36.8,0,0,1,9.52-5.12c2-.73,2.7-.31,2.28,2.25-1.39,8.44-5.83,15.16-11.18,21.47-7.84,9.26-15.6,18.54-25.13,26.27-3.75,3.05-7.19,3.46-10.71,1.62-13-6.81-24.67-15.25-31.53-28.8a28.7,28.7,0,0,1-3.16-8.24c-1.18-7.76,4.38-12.86,8.29-18.45.75-1.07,3.39-1.59,5.37-1,6.61,1.93,13.15,4,18.87,8.05,1.58,1.12,1.56,1.76.59,3.35-.85,1.38-1.34,3.43-3.17,2.33-3.3-2-7.31-2-10.42-4.28-1.52-1.09-2.95-2.9-5-1.55s-3.92,3.26-3.55,6.23A11.21,11.21,0,0,1,169.71,202.81Z" transform="translate(-136.45 -21.75)"/><path d="M370.61,143.78c-3.11,9.31-5.38,18.57-10.17,27.08-4.16,7.39-10.65,9.65-17.93,10.22a65.59,65.59,0,0,1-26.07-3.67c-8.1-2.73-10.52-7.4-8-15.61,1.69-5.48,2.33-11.38,8.12-14.81,3.2-1.89,6.09-2.49,9.24-.64a8.33,8.33,0,0,0,5,1q16-1,32-1.85C365.46,145.4,367.65,143.42,370.61,143.78Z" transform="translate(-136.45 -21.75)"/><path d="M360.82,321.19c-1.15-2.19-2.57-4.1-3.21-6.25-4.5-15-14.85-25.28-27.28-33.9-2.07-1.44-4-3.08-6.11-4.45-3.78-2.47-7.52-.75-7.58,3.75-.1,8.11-2.88,15.26-6.28,22.48-4.91,10.43-6.13,21.39-1.72,32.41a14.89,14.89,0,0,0,4,5.19c8.22,7.33,13.44,17.66,23.35,23.27a2,2,0,0,1,.67.67c1.62,2.45,4.31,5.75,2.17,7.86s-4.54-1.38-6.46-3.05c-5.7-4.94-11.28-10-17.05-14.87a60.36,60.36,0,0,1-14.23-17c-5.44-9.88-2.47-19.74,1.42-29.48,5-12.51,10.62-24.9,11.42-38.61.28-4.8-1.15-9.54-3.21-15.13a23.08,23.08,0,0,1,10.75,7.68c4.68,5.91,10.59,10,16.72,14.19,5.65,3.85,10.41,9,15.53,13.66a78.49,78.49,0,0,1,5.95,5.35C367.18,303.34,366,311.94,360.82,321.19Z" transform="translate(-136.45 -21.75)"/><path d="M377,301.26c9.73,45,14.06,89.77,15.3,135A61.91,61.91,0,0,1,383.46,417c-4.75-16.87-5.68-34.3-7.9-51.56C374,353,371.92,340.57,371.3,328a164.53,164.53,0,0,1,.09-17.49C371.59,306.81,374.58,304.62,377,301.26Z" transform="translate(-136.45 -21.75)"/><path d="M533.1,887.76a179.94,179.94,0,0,1-6.63-26,62.89,62.89,0,0,1-1.1-9.36c-.2-8.39-2.33-16.84.44-25.16,1.14-3.42,0-6.85.37-10.26.84-8.26,1.64-16.52,2.51-24.77.2-1.9,0-3.58,2.07-5.28,2.43-2,.33-5.54.51-8.36.43-6.9,4.13-13.06,5.51-19.81.22-1.06.8-2.1.4-3.15-4-10.51-3.8-21.56-3.72-32.5,0-4.54-.93-8.92-.53-13.59,1.19-13.55,5.56-26.47,7-39.92a330.84,330.84,0,0,1,8.81-47.57,19.78,19.78,0,0,1,1.49-4c-1,6.59-.5,13.23-1.78,19.88-1.55,8-1.34,16.3-2.55,24.38-1.29,8.62-3.7,17.08-5,25.71-1.2,8.19-2.7,16.33-2.46,24.77.31,11.1,3.8,21.7,4,32.84.16,10.57-3.35,20-6.74,29.56a71.39,71.39,0,0,0-3.22,15.65c-1.8,15-1.2,30.11-.87,45.18.24,11.06,1.05,22.11,1.42,33.18C533.27,875.33,533.1,881.48,533.1,887.76Z" transform="translate(-136.45 -21.75)"/><path d="M501.29,431.52c-7.22,2.55-11.77,8.91-18.77,11.87-11.14,4.71-22.46,7.37-34.5,6.54-11.51-.8-22.63,1.19-33.67,4a12.29,12.29,0,0,0-9.09,11.31c-.49,7.9-1.09,15.8-2.09,23.7-2.68-9.4-2.56-19-2.7-28.61-.07-4.54-.42-9.09-.44-13.63,0-1.41-.13-3.45,2.36-3.23,8.2.73,15.85-2,23.65-3.81,4.08-.93,8.09-1.4,12.09,0,9.15,3.16,17.9.63,26.67-1.72,7.56-2,15-4.58,22.68-6.11C491.88,431,496.57,429.94,501.29,431.52Z" transform="translate(-136.45 -21.75)"/><path d="M337.81,350.05c-3.43-.32-4.09-2.85-5.72-4.06-3.29-2.43-6.48-5-9.9-7.26-6.92-4.54-8.35-11-7.81-18.79.67-9.58,4.52-18.22,6.91-27.29.82-3.1.11-6.24,1-9.75,3.32,1.68,6.56,2.91,8.82,6a17.09,17.09,0,0,0,8.52,6.47,6.15,6.15,0,0,1,3.52,3c2.05,3.61,5.13,6.34,7.73,9.47,4.86,5.86,5.41,13.51,6.81,20.67a49.29,49.29,0,0,1-2.32,26.89,15,15,0,0,1-.6,1.79c-.81,1.46-1.41,3.92-3.35,3.36-2.37-.69-.33-3,.05-3.85,3.1-6.77-.7-12.75-2.33-18.69-2.84-10.32-4.77-21.05-10.55-30.42-2.71-4.39-6.6-8.05-8.14-13.19-.58-1.95-2-1.68-3.34-.6-.47.39-1.06,1-1.1,1.49-.77,11.06-5,22,.37,33.25,2,4.33,3.19,9.13,5.72,13.43C333.61,344.59,335.88,346.75,337.81,350.05Z" transform="translate(-136.45 -21.75)"/><path d="M748.83,864.92c-4,4.1-5.51,1.33-7.1-1.81-4.21-8.32-4.85-17.82-8.7-26.26a2.62,2.62,0,0,1,1.3-3.65c2.12-.88,2.77,1,3.47,2.28,2.84,5.25,5.7,10.49,8.29,15.86.91,1.88,2.26,2.81,4,2.61s1.08-2.26,1.36-3.4c2.63-10.7,5.87-21.17,11-30.95,1.44-2.72,4.13-2.49,6.25-1.78,2.6.88.31,2.83.11,4.27-.12.88-.61,2.17-1.28,2.44-5.88,2.37-5.48,8.51-6,12.67-.75,6.15-1.18,12.55-2.48,18.52-1.63,7.49,2.49,14.1,1.45,21.3a13.76,13.76,0,0,1-2.62,6.92,10.73,10.73,0,0,0-2.75,5.37c-.17,1.42-.77,3.21-2.46,2.86a3.1,3.1,0,0,1-2.35-3.6A18.92,18.92,0,0,0,748.48,875c-1-1.74.6-4.79.89-7.26A11.36,11.36,0,0,0,748.83,864.92Z" transform="translate(-136.45 -21.75)"/><path d="M490.24,355.24c-5.71-1-11.44-2-17.15-3.11-18.76-3.57-37.72-5.81-56.62-8.41q-10.79-1.49-21.59-2.86c-2.65-.35-4.84-1.21-5.54-4.22-1.16-5,2.44-8.05,8.33-6.77,14.11,3.08,28.42,5.16,42.4,8.94,8.43,2.28,17.18,3.46,25.83,4.8,9.15,1.42,16.07,7.6,24.59,10.28Z" transform="translate(-136.45 -21.75)"/><path d="M669,400.17c5.35-.44,9.44,2.1,13.83,3.74,7.36,2.76,15.38,2.2,22.89,4.38,13,3.74,26.4,3.63,39.68,4.71,3.8.3,7.77.49,10.92-2.69,1.72-1.73,3.11-.61,4.07,1.15a3.85,3.85,0,0,1,.16.92c2.44,10.91.92,13-10,12.05-10.49-.9-20.93-2.4-31.4-3.58-1.87-.21-3.78-.11-5.67-.17-4.28-.15-8.24-.92-11.91-3.56-3.29-2.38-7.39-3.63-10.7-6C684.21,406.41,675.64,405.61,669,400.17Z" transform="translate(-136.45 -21.75)"/><path d="M297.68,237.68c2,.07,4.08,5,3.19,7.35-3.59,9.61-4.79,20.11-11.24,28.66-3.56,4.72-1.92,11-3.95,16.34-2.93,7.69-5.26,15.58-5.86,23.9-.18,2.43-2.15,4.71-4.38,4.45-2.82-.33-2.88-3.2-2.37-5.61,1.74-8.29,3.25-16.64,5.51-24.79.71-2.56-.56-4.78.43-7.28,5-12.55,9.2-25.39,15.88-37.21.73-1.28.39-3.1,1.46-4.37C296.83,238.55,297.36,238,297.68,237.68Z" transform="translate(-136.45 -21.75)"/><path d="M351.48,216.55c3.19,2,4,4.16,5,6,4.8,9.16,12.61,16,18.41,24.38,2,2.83,3,5.75,2.12,9.27-1.76,6.64-1,13.4-.39,20.08.47,5.32.05,10.26-2.81,14.91-1.45,2.36-2.4,1.9-3.58-.1a44.49,44.49,0,0,1-6-16.21c-.62-4.33.36-7.68,5-9.35,3.23-1.16,5.29-2.78,3.1-7-4.22-8.17-8.09-16.55-11.62-25C358.38,227.92,354.06,223.46,351.48,216.55Z" transform="translate(-136.45 -21.75)"/><path d="M394.48,482.79c-4.1-1.8-4.34-5.8-6.07-8.64-5.48-9-11.85-17.5-15.37-27.59-1-3-2.06-5.94-3.28-8.83-.87-2-.65-3.4,1.17-4.86.71-.56,1.06-2.57-.3-3.22-1.17-.55-1,1.31-1.76,1.76-.14-.19-.48-.54-.43-.6,2.37-3.25-.9-5.53-1.72-8-1-3.08-.84-6.23-1.69-9.24-.26-.92-.65-1.82.6-2.35,1.63-.71,1.78.54,2.16,1.57,2.36,6.33,4.91,12.58,7.07,19,4.41,13.05,11.2,25,17.29,37.22C394.25,473.2,393.94,477.8,394.48,482.79Z" transform="translate(-136.45 -21.75)"/><path d="M292.9,225.55c1.7,2.57,1.15,4.65-.42,7.31-3.33,5.64-6.78,11.2-9.07,17.52-1.89,5.23-5,10-6.81,15.45-3.06,9-8.12,17.16-10.65,26.37-.58,2.11-1.53,4.2-4,4-2.84-.27-2.94-2.77-3-5.07-.07-3.74,1.22-6.83,3.27-10,3.67-5.69,6.81-11.73,9.92-17.76.78-1.5,2.32-2.15,2.95-3.59,3.58-8.06,6.91-16.23,10.75-24.16C287.64,232,288.61,227.57,292.9,225.55Z" transform="translate(-136.45 -21.75)"/><path d="M288.74,316c-1.29-11.66,1.79-21.41,6.17-30.54a81.66,81.66,0,0,0,6-18.12c.82-3.68,2.12-7.26,3.54-12,3.05,6.4,3.87,11.95,2.46,17.48a159.5,159.5,0,0,1-11.74,32.05C293.44,308.3,291.31,311.56,288.74,316Z" transform="translate(-136.45 -21.75)"/><path d="M345.68,349.49a66.83,66.83,0,0,1-14.47-19.15c-3.79-7.7-1-15.82-.83-23.75C337.28,311,347.4,338.79,345.68,349.49Z" transform="translate(-136.45 -21.75)"/><path d="M308,237.77c3.87,4.93,9.85,6,14.76,8.89A98.81,98.81,0,0,1,333.63,254c4.75,3.68,10.07,6.39,15.11,9.56,3.15,2,5,4.63,4.54,8.64-.28,2.37-1.28,2.65-3.06,1.57a89.16,89.16,0,0,1-7.55-4.79c-9.17-6.91-18.07-14.2-27.45-20.8C311.36,245.42,310.52,241.17,308,237.77Z" transform="translate(-136.45 -21.75)"/><path d="M297,218.47a2.35,2.35,0,0,1,2.28.91c4.1,4.83,9.86,7.1,15.38,9.56,4.58,2.05,7.15,6.32,11.45,8.82,8.78,5.11,17.86,9.61,26.72,14.53.54.3,1.28.34,1.73.73,1.8,1.58,6.29,1.84,4.46,5.28-1.54,2.88-4.86.44-6.65-.74-6.06-4-13.26-5.73-19.11-10-9.64-7-19.26-14.11-28.75-21.33a23.86,23.86,0,0,0-7-3.71,3.28,3.28,0,0,1-1.94-3.05C295.44,218.29,296.56,218.59,297,218.47Z" transform="translate(-136.45 -21.75)"/><path d="M419.32,42.34c-.9-3.34-4.07-5.66-3.36-9.71.24-1.33-3-1.92-4.38.21a11.71,11.71,0,0,0-1.58,6.3c0,1.8.58,3.83-1.69,5.66-.35-5.73-.81-11.06-1-16.41-.12-4.33-2.17-6-5.82-3.84-2.18,1.28-2.57.1-3.9-1.32,8.09-2.2,15.84-1.43,23.41-.93,1.79.12,2.33,4.6,1.41,7.47C421.13,33.88,419.3,37.88,419.32,42.34Z" transform="translate(-136.45 -21.75)"/><path d="M394.76,26.92c-5.4-2.84-9.6-3.1-11.47,3.37-.23.79-.82.9-1.47.65-3.69-1.45-6,0-7.16,3.67a5.24,5.24,0,0,1-1.81-3.06c-.32-1.63-1.18-3.31-3-3s-1.93,2.37-2,3.87c-.26,4.63,2.51,9.1.51,13.9-1.26-1.13-.86-3.95-3.31-4.12-.22,0-.51,1-1,2a21.56,21.56,0,0,1-.63-8,13.35,13.35,0,0,0-1.75-8.17c-1.3-2.38-.32-3.2,2.07-3.05,6.32.4,12.63.23,18.7-1.61,3.94-1.2,7.74.81,11.69-.14C395.55,22.8,394.67,25.05,394.76,26.92Z" transform="translate(-136.45 -21.75)"/><path d="M649.35,378.8c-3.22,4.25-7.41,3-11.58,2.09-2-.44-3-1.45-1.21-5-3.4,2.73-4.21,6.08-7.85,5a14.6,14.6,0,0,0-8.13,0c-.11-2.67.17-3.86,3.54-4.58s7-2.44,10.44-3.78c4.76-1.84,9.75-2,15.33-3.48-2.28,3.53-.18,6.71-.65,9.92Z" transform="translate(-136.45 -21.75)"/><path d="M382.61,946.69c3.8-1.65,5.48.24,6.6,2,3.14,4.83,7,9.27,9.24,14.61a17.09,17.09,0,0,0,7.18,7.77c5.13,2.92.69,4.68-.44,5.63-2.11,1.77-5.23,1.72-8,2.05-1.92.22-1.79-1.84-1.72-2.75.76-9.59-4.64-17.3-7.6-25.75C387.19,948.22,385.38,947.57,382.61,946.69Z" transform="translate(-136.45 -21.75)"/><path d="M621.85,114.17c-5.48-.39-11-.8-16.46-1.15-2.41-.16-4.18-1-3.49-3.76.64-2.52.36-6.33,4.68-5.66a73.17,73.17,0,0,1,16.2,4.64c1.71.69,3.27,2.25,2.42,4.53C624.67,114.18,623.54,115.06,621.85,114.17Z" transform="translate(-136.45 -21.75)"/><path d="M315.18,209.45c4.66-1.39,8.63-1.87,12.71-.89a12,12,0,0,0,6.06-.49c5.23-1.43,8.48,1.28,8.24,6.67-.11,2.32-.77,2.6-3.17,2.29C330.76,216,323.85,211.14,315.18,209.45Z" transform="translate(-136.45 -21.75)"/><path d="M709.63,896.67c-1.35,10.44-.41,20.87-1.24,31.24-.12,1.48-.57,2.34-2,2.82-.81.27-1.9.45-1.44,1.86.32,1,1,2.48-.77,2.53-1.52,0-1.3-1.78-1.22-2.62,1.15-10.87-.21-22.08,4.27-32.51.43-1,.82-2,1.3-3C708.66,896.81,709.1,896.82,709.63,896.67Z" transform="translate(-136.45 -21.75)"/><path d="M328.23,38.8c-1.56-.46-1.23-1.25-1.48-1.76-.71-1.43-1.79-3.22-3.41-2.41-2,1-1.16,2.93,0,4.41s2.13,2.62,3.58,4.39C323.38,42,311.64,28,309.58,23.06c2,0,3.84,0,5.67,0,5.68-.1,6.92.88,7.83,6.38a6.62,6.62,0,0,0,2.41,3.94A7,7,0,0,1,328.23,38.8Z" transform="translate(-136.45 -21.75)"/><path d="M446.65,38.9c.16-2.75.36-5.31.42-7.88,0-1.67.53-3.85-1.79-4.29s-3.08,1.52-3.84,3.37c-2.18,5.32-3.16,10.7-1.57,16.38q-3.06-10.63-6.15-21.27c-.41-1.4,0-2.4,1.45-2.17q9.4,1.55,18.71,3.64C446.65,28.17,450.42,35.32,446.65,38.9Z" transform="translate(-136.45 -21.75)"/><path d="M364.85,340.32c1.95,1.64,1.34,3.24,1.25,4.7-.69,11.75-1.84,23.43-1.06,35.3.52,7.94.39,15.9,2.13,23.73.48,2.16-1.42,2.4-3,4C362.8,385.14,362.18,363,364.85,340.32Z" transform="translate(-136.45 -21.75)"/><path d="M489.54,30.83C489,32.68,492,34,490.22,36a5.14,5.14,0,0,0-1.35,5.51c-3.1-2.06-7-10.3-6.19-12.54a2.51,2.51,0,0,1,3.59-1.28,71,71,0,0,0,8.52,3.49c7,2.69,2.54,5.26.7,8.08a17.58,17.58,0,0,0-1.05,1.55c-.41.82-.57,2-1.91,1.23-1-.58-.41-1.32-.06-2,1.16-2.3-.1-4.63.06-7C492.64,31.41,491.33,30.71,489.54,30.83Z" transform="translate(-136.45 -21.75)"/><path d="M722.78,912c1.27-10.18,1.26-20.58,5.33-30.46,4.23,8.54,4.13,13.86-1.42,22.12-1.7,2.54-1.05,6.27-4,8.21Z" transform="translate(-136.45 -21.75)"/><path d="M461.66,26.93a19.52,19.52,0,0,0,12-.55c2.33-.77,4.77.08,5.48,1.22.88,1.41.17,3.86-1.15,5.71-2.26,3.18-5.52,5.53-7.68,9C470.28,39.74,469,37,472.23,35c1.34-.86-.58-2-.56-3.17,0-1.56-2.08-2.35-2.71-1.84C464.83,33.31,463.82,28.79,461.66,26.93Z" transform="translate(-136.45 -21.75)"/><path d="M246.24,63.62a5.08,5.08,0,0,1,3.38,3.45c1.11,3.72,3.37,6.65,5.73,9.57,1.54,1.9,2.23,4.26.06,5.76s-2.75-1.31-4.13-2.23c-5.19-3.49-4.89-9.39-7.05-14.16C243.55,64.53,244.49,63.66,246.24,63.62Z" transform="translate(-136.45 -21.75)"/><path d="M566.52,712.71c0,8,.28,16-.12,23.91-.2,4-4.59,6.16-5.84,10.24a10,10,0,0,1,.29-9.28,45.12,45.12,0,0,0,4.92-20.9C565.75,715.05,565.81,715.05,566.52,712.71Z" transform="translate(-136.45 -21.75)"/><path d="M490,72.59c1.27.31,3.09,2.15,3.09.87,0-4.19,6-.36,5.18-4.15-.46-2.13-2.46-3.9-2.26-6.72a4.23,4.23,0,0,1,4.28,4.81c-.22,4-1.08,7.85,1.67,11.42a1.87,1.87,0,0,1-1.11,2.71c-1.47.6-2.37.23-2.65-1.5-.34-2.13-1.64-3.64-3.87-3C490.43,78.08,490.26,75.59,490,72.59Z" transform="translate(-136.45 -21.75)"/><path d="M507,62.35c-1.16-2-.38-2.92,0-3.56,1.91-3.19,2.7-6,.47-9.67-1.65-2.71,2.79-3.5,3.38-5.94.25-1,1.69-.51,2.4.07,1.76,1.44,2.48,3.42,1.43,5.44C512.36,53.16,509.77,57.49,507,62.35Z" transform="translate(-136.45 -21.75)"/><path d="M546.56,82.07c-1.89-1.21-3.65-1.93-5.34.58-1,1.48-3.27,1.56-4.73.6-1.79-1.17.64-2.52.46-3.52-.64-3.4,3.4-4,3.7-6.85.11-1.11,1.86-.51,2.24.17C544.45,75.79,548.1,77.68,546.56,82.07Z" transform="translate(-136.45 -21.75)"/><path d="M532.79,74c-.62-2.27.54-3.78,1.32-5.19,1-1.77.64-3-.53-4.36a2.68,2.68,0,0,0-4.1-.25c-2.81,2.5-2.46-.53-2.39-1.45.12-1.74.46-4.54,1.44-4.9,2.07-.77,3.44,1.46,4.77,3C538.57,67.08,538.57,67.83,532.79,74Z" transform="translate(-136.45 -21.75)"/><path d="M523.33,767.23c-2.28,2.17-1.29,5.2-3.53,5.61-3,.56-6.23.24-9.36.16-1.1,0-1.42-1.07-1.63-2-.35-1.59.84-1.89,1.91-2.05C514.52,768.35,518.34,767.89,523.33,767.23Z" transform="translate(-136.45 -21.75)"/><path d="M356,37.36c-2.27-5.09-5.13-8.36-7.54-11.67h7.77c1.62,0,3.39.65,2.12,2.31C356.48,30.49,357,33.32,356,37.36Z" transform="translate(-136.45 -21.75)"/><path d="M454.22,51.52A2.18,2.18,0,0,1,453,49c1.17-4.77.41-9.44-.38-14.16-.14-.84-.26-2.47,1.4-2.51,1.06,0,2.41,0,3.13.55s-.08,1.72-.55,2.55C453.67,40.47,456.59,46.32,454.22,51.52Z" transform="translate(-136.45 -21.75)"/><path d="M619.66,682.86A28.84,28.84,0,0,0,622,693c.65,1.39.5,2.76.64,4.15a1.65,1.65,0,0,1-1.44,2,1.61,1.61,0,0,1-2-1.92C619.69,692.5,616.25,687.66,619.66,682.86Z" transform="translate(-136.45 -21.75)"/><path d="M500.43,46.55c-.48-4.17,2.05-6.93.87-10.12-.35-.93.52-1.35,1.38-1.34a3.73,3.73,0,0,1,3.54,2.57c.54,1.27,1.19,2.46-.32,3.74C504.16,42.89,501.78,43.6,500.43,46.55Z" transform="translate(-136.45 -21.75)"/><path d="M611.15,188.18c-1.55-3.14-3.36-6.77,0-8.19s3.78,2.4,3.4,4.88A11.4,11.4,0,0,1,611.15,188.18Z" transform="translate(-136.45 -21.75)"/><path d="M735.49,893.16c3,3.76,2,7.89,3.43,11.35a2.27,2.27,0,0,1-2.1,3c-1.55,0-1.75-1.66-1.45-2.87C736.26,901.06,734.81,897.47,735.49,893.16Z" transform="translate(-136.45 -21.75)"/><path d="M281.19,49.3c-.58,1.39.77,3.9-1.37,3.92-2.78,0-3-3-3.26-5-.19-1.53.42-3.86,2.69-3.51C281.86,45.15,280.69,47.72,281.19,49.3Z" transform="translate(-136.45 -21.75)"/><path d="M215.69,126.66c-2.66-.28-4.5-.34-6.29-.69-2.61-.51-1.8-2.74-1.44-4.13.56-2.15,2.08-.57,2.88-.07C212.6,122.86,214.46,124,215.69,126.66Z" transform="translate(-136.45 -21.75)"/><path d="M622.37,747.43c.23,3.56.39,6.33.6,9.09.06.89-.18,1.66-1,1.84-1.1.23-1.72-.52-1.91-1.53C619.44,753.72,619.28,750.68,622.37,747.43Z" transform="translate(-136.45 -21.75)"/><path d="M633,752.83l4.95,14.33C635.23,762.75,632.19,758.48,633,752.83Z" transform="translate(-136.45 -21.75)"/><path d="M614.43,950.1c-2.57-3.83-2.44-7.05-.48-10.42C613.64,942.92,616,946,614.43,950.1Z" transform="translate(-136.45 -21.75)"/><path d="M582.93,820.52c0,3.13,0,6.26,0,9.39,0,1.22-.31,2.37-1.66,2.29s-1.07-1.28-.89-2.21c.63-3.18,1.28-6.36,1.91-9.54Z" transform="translate(-136.45 -21.75)"/></svg>